# SSTK version 0.8.0
# 57
mtllib original-57.mtl
o #ID377
v 0.808315 0.188352 -0.039156
v 0.807654 0.188763 -0.199199
v 0.807654 0.188763 -0.039577
v 0.808315 0.188352 -0.199620
v 0.808315 0.188352 -0.199620
v 0.808315 0.188352 -0.039156
v 0.807654 0.188763 -0.199199
v 0.807654 0.188763 -0.039577
v 0.806885 0.189022 -0.198935
v 0.806885 0.189022 -0.039841
v 0.806885 0.189022 -0.198935
v 0.806885 0.189022 -0.039841
v 0.808315 0.200645 -0.039156
v 0.807654 0.200234 -0.039577
v 0.807654 0.200234 -0.039577
v 0.808315 0.200645 -0.039156
v 0.808822 0.187816 -0.200169
v 0.808822 0.187816 -0.038607
v 0.808822 0.187816 -0.200169
v 0.808822 0.187816 -0.038607
v 0.808315 0.200645 -0.199620
v 0.807654 0.200234 -0.199199
v 0.807654 0.200234 -0.199199
v 0.808315 0.200645 -0.199620
v 0.806059 0.189110 -0.198845
v 0.806059 0.189110 -0.039932
v 0.806059 0.189110 -0.198845
v 0.806059 0.189110 -0.039932
v 0.806885 0.199975 -0.039841
v 0.806885 0.199975 -0.039841
v 0.806885 0.199975 -0.198935
v 0.806885 0.199975 -0.198935
v 0.808822 0.201180 -0.038607
v 0.808822 0.201180 -0.038607
v 0.809141 0.187193 -0.200808
v 0.809141 0.187193 -0.037969
v 0.809141 0.187193 -0.200808
v 0.809141 0.187193 -0.037969
v 0.808822 0.201180 -0.200169
v 0.808822 0.201180 -0.200169
v 0.806059 0.189110 -0.039932
v 0.795944 0.189110 -0.198845
v 0.795944 0.189110 -0.039932
v 0.806059 0.189110 -0.198845
v 0.806059 0.189110 -0.198845
v 0.806059 0.189110 -0.039932
v 0.795944 0.189110 -0.198845
v 0.795944 0.189110 -0.039932
v 0.806059 0.199887 -0.039932
v 0.806059 0.199887 -0.039932
v 0.806059 0.199887 -0.198845
v 0.806059 0.199887 -0.198845
v 0.809141 0.201804 -0.037969
v 0.809141 0.201804 -0.037969
v 0.809250 0.186523 -0.201493
v 0.809250 0.186523 -0.037283
v 0.809250 0.186523 -0.201493
v 0.809250 0.186523 -0.037283
v 0.809141 0.201804 -0.200808
v 0.809141 0.201804 -0.200808
v 0.806059 0.199887 -0.198845
v 0.795944 0.189110 -0.198845
v 0.806059 0.189110 -0.198845
v 0.795944 0.199887 -0.198845
v 0.795944 0.199887 -0.198845
v 0.806059 0.199887 -0.198845
v 0.795944 0.189110 -0.198845
v 0.806059 0.189110 -0.198845
v 0.795944 0.189110 -0.039932
v 0.795118 0.189198 -0.198754
v 0.795118 0.189198 -0.040022
v 0.795944 0.189110 -0.198845
v 0.795944 0.189110 -0.198845
v 0.795944 0.189110 -0.039932
v 0.795118 0.189198 -0.198754
v 0.795118 0.189198 -0.040022
v 0.795944 0.199887 -0.039932
v 0.806059 0.189110 -0.039932
v 0.795944 0.189110 -0.039932
v 0.806059 0.199887 -0.039932
v 0.806059 0.199887 -0.039932
v 0.795944 0.199887 -0.039932
v 0.806059 0.189110 -0.039932
v 0.795944 0.189110 -0.039932
v 0.809250 0.202474 -0.037283
v 0.809250 0.202474 -0.037283
v 0.809250 0.202474 -0.201493
v 0.809250 0.202474 -0.201493
v 0.806059 0.199887 -0.198845
v 0.795944 0.199887 -0.039932
v 0.795944 0.199887 -0.198845
v 0.806059 0.199887 -0.039932
v 0.806059 0.199887 -0.039932
v 0.806059 0.199887 -0.198845
v 0.795944 0.199887 -0.039932
v 0.795944 0.199887 -0.198845
v 0.795944 0.199887 -0.198845
v 0.795118 0.199799 -0.198754
v 0.795118 0.199799 -0.198754
v 0.795944 0.199887 -0.198845
v 0.794348 0.189456 -0.198490
v 0.794348 0.189456 -0.040286
v 0.794348 0.189456 -0.198490
v 0.794348 0.189456 -0.040286
v 0.795944 0.199887 -0.039932
v 0.795118 0.199799 -0.040022
v 0.795118 0.199799 -0.040022
v 0.795944 0.199887 -0.039932
v 0.794348 0.199541 -0.198490
v 0.794348 0.199541 -0.198490
v 0.793687 0.189867 -0.198069
v 0.793687 0.189867 -0.040707
v 0.793687 0.189867 -0.198069
v 0.793687 0.189867 -0.040707
v 0.794348 0.199541 -0.040286
v 0.794348 0.199541 -0.040286
v 0.793687 0.199130 -0.198069
v 0.793687 0.199130 -0.198069
v 0.793180 0.190403 -0.041256
v 0.793180 0.190403 -0.197520
v 0.793180 0.190403 -0.197520
v 0.793180 0.190403 -0.041256
v 0.793687 0.199130 -0.040707
v 0.793687 0.199130 -0.040707
v 0.793180 0.198594 -0.197520
v 0.793180 0.198594 -0.197520
v 0.792861 0.191027 -0.041895
v 0.792861 0.191027 -0.196881
v 0.792861 0.191027 -0.196881
v 0.792861 0.191027 -0.041895
v 0.793180 0.198594 -0.041256
v 0.793180 0.198594 -0.041256
v 0.792861 0.197970 -0.196881
v 0.792861 0.197970 -0.196881
v 0.792753 0.191696 -0.042580
v 0.792753 0.191696 -0.196196
v 0.792753 0.191696 -0.196196
v 0.792753 0.191696 -0.042580
v 0.792861 0.197970 -0.041895
v 0.792861 0.197970 -0.041895
v 0.792753 0.197301 -0.196196
v 0.792753 0.197301 -0.196196
v 0.792753 0.191696 -0.196196
v 0.792753 0.197301 -0.042580
v 0.792753 0.191696 -0.042580
v 0.792753 0.197301 -0.196196
v 0.792753 0.197301 -0.196196
v 0.792753 0.191696 -0.196196
v 0.792753 0.197301 -0.042580
v 0.792753 0.191696 -0.042580
v 0.792753 0.197301 -0.042580
v 0.792753 0.197301 -0.042580
vn 0.7879219729214685 0.4405423419539726 -0.4302341333893087
vn 0.5878743504140147 0.5787465659446914 0.5652045298230784
vn 0.5878743504140147 0.5787465659446918 -0.5652045298230781
vn 0.7879219729214686 0.4405423419539725 0.43023413338930894
vn -0.7879219729214686 -0.4405423419539725 -0.43023413338930894
vn -0.7879219729214685 -0.4405423419539726 0.4302341333893087
vn -0.5878743504140147 -0.5787465659446914 -0.5652045298230784
vn -0.5878743504140147 -0.5787465659446918 0.5652045298230781
vn 0.31756287986023884 0.6783948373658161 0.6625211407723375
vn 0.31756287986023884 0.6783948373658164 -0.6625211407723371
vn -0.31756287986023884 -0.6783948373658161 -0.6625211407723375
vn -0.31756287986023884 -0.6783948373658164 0.6625211407723371
vn 0.7879219729214686 -0.4405423419539725 -0.43023413338930894
vn 0.5878743504140147 -0.5787465659446914 -0.5652045298230784
vn -0.5878743504140147 0.5787465659446914 0.5652045298230784
vn -0.7879219729214686 0.4405423419539725 0.43023413338930894
vn 0.9175654547735249 0.2844430061397386 0.2777873511599168
vn 0.9175654547735249 0.2844430061397387 -0.2777873511599167
vn -0.9175654547735249 -0.2844430061397386 -0.2777873511599168
vn -0.9175654547735249 -0.2844430061397387 0.2777873511599167
vn 0.7879219729214685 -0.4405423419539726 0.4302341333893087
vn 0.5878743504140147 -0.5787465659446918 0.5652045298230781
vn -0.5878743504140147 0.5787465659446918 -0.5652045298230781
vn -0.7879219729214685 0.4405423419539726 -0.4302341333893087
vn 0.15094381106654983 0.707230228422173 0.6906818152424651
vn 0.15094381106654983 0.7072302284221732 -0.6906818152424649
vn -0.15094381106654983 -0.707230228422173 -0.6906818152424651
vn -0.15094381106654983 -0.7072302284221732 0.6906818152424649
vn 0.31756287986023884 -0.6783948373658161 -0.6625211407723375
vn -0.31756287986023884 0.6783948373658161 0.6625211407723375
vn 0.31756287986023884 -0.6783948373658164 0.6625211407723371
vn -0.31756287986023884 0.6783948373658164 -0.6625211407723371
vn 0.9175654547735249 -0.2844430061397386 -0.2777873511599168
vn -0.9175654547735249 0.2844430061397386 0.2777873511599168
vn 0.9852762437173928 0.12231657756960938 0.11945450354759603
vn 0.9852762437173928 0.12231657756960942 -0.11945450354759599
vn -0.9852762437173928 -0.12231657756960938 -0.11945450354759603
vn -0.9852762437173928 -0.12231657756960942 0.11945450354759599
vn 0.9175654547735249 -0.2844430061397387 0.2777873511599167
vn -0.9175654547735249 0.2844430061397387 -0.2777873511599167
vn 0 1 0
vn 0 -1 0
vn 0.15094381106654983 -0.707230228422173 -0.6906818152424651
vn -0.15094381106654983 0.707230228422173 0.6906818152424651
vn 0.15094381106654983 -0.7072302284221732 0.6906818152424649
vn -0.15094381106654983 0.7072302284221732 -0.6906818152424649
vn 0.9852762437173928 -0.12231657756960938 -0.11945450354759603
vn -0.9852762437173928 0.12231657756960938 0.11945450354759603
vn 0.9936192124182132 0.08069075642480476 0.07880268105212183
vn 0.9936192124182132 0.0806907564248048 -0.07880268105212179
vn -0.9936192124182132 -0.08069075642480476 -0.07880268105212183
vn -0.9936192124182132 -0.0806907564248048 0.07880268105212179
vn 0.9852762437173928 -0.12231657756960942 0.11945450354759599
vn -0.9852762437173928 0.12231657756960942 -0.11945450354759599
vn 0 0 1
vn 0 0 -1
vn 0.2723466763673985 0.6883836180545795 0.6722761949271432
vn 0.2723466763673985 0.6883836180545798 -0.672276194927143
vn -0.2723466763673985 -0.6883836180545795 -0.6722761949271432
vn -0.2723466763673985 -0.6883836180545798 0.672276194927143
vn 0.9936192124182132 -0.08069075642480476 -0.07880268105212183
vn -0.9936192124182132 0.08069075642480476 0.07880268105212183
vn 0.9936192124182132 -0.0806907564248048 0.07880268105212179
vn -0.9936192124182132 0.0806907564248048 -0.07880268105212179
vn 0.2723466763673985 -0.6883836180545798 0.672276194927143
vn -0.2723466763673985 0.6883836180545798 -0.672276194927143
vn 0.5197087898260173 0.6112206875552332 0.5969187925355378
vn 0.5197087898260173 0.6112206875552334 -0.5969187925355375
vn -0.5197087898260173 -0.6112206875552332 -0.5969187925355378
vn -0.5197087898260173 -0.6112206875552334 0.5969187925355375
vn 0.2723466763673985 -0.6883836180545795 -0.6722761949271432
vn -0.2723466763673985 0.6883836180545795 0.6722761949271432
vn 0.5197087898260173 -0.6112206875552334 0.5969187925355375
vn -0.5197087898260173 0.6112206875552334 -0.5969187925355375
vn 0.721772283520321 0.49516916192882193 0.483582745573671
vn 0.721772283520321 0.4951691619288221 -0.4835827455736708
vn -0.721772283520321 -0.49516916192882193 -0.483582745573671
vn -0.721772283520321 -0.4951691619288221 0.4835827455736708
vn 0.5197087898260173 -0.6112206875552332 -0.5969187925355378
vn -0.5197087898260173 0.6112206875552332 0.5969187925355378
vn 0.721772283520321 -0.4951691619288221 0.4835827455736708
vn -0.721772283520321 0.4951691619288221 -0.4835827455736708
vn 0.868683071260537 0.3544000072419881 -0.34610743501438934
vn 0.868683071260537 0.35440000724198795 0.3461074350143895
vn -0.868683071260537 -0.35440000724198795 -0.3461074350143895
vn -0.868683071260537 -0.3544000072419881 0.34610743501438934
vn 0.721772283520321 -0.49516916192882193 -0.483582745573671
vn -0.721772283520321 0.49516916192882193 0.483582745573671
vn 0.868683071260537 -0.3544000072419881 0.34610743501438934
vn -0.868683071260537 0.3544000072419881 -0.34610743501438934
vn 0.9599435624634838 0.20045804109780124 -0.19576754236631722
vn 0.9599435624634838 0.20045804109780116 0.1957675423663173
vn -0.9599435624634838 -0.20045804109780116 -0.1957675423663173
vn -0.9599435624634838 -0.20045804109780124 0.19576754236631722
vn 0.868683071260537 -0.35440000724198795 -0.3461074350143895
vn -0.868683071260537 0.35440000724198795 0.3461074350143895
vn 0.9599435624634838 -0.20045804109780124 0.19576754236631722
vn -0.9599435624634838 0.20045804109780124 -0.19576754236631722
vn 0.9599435624634838 -0.20045804109780116 -0.1957675423663173
vn -0.9599435624634838 0.20045804109780116 0.1957675423663173
vn 1 0 0
vn -1 0 0
usemtl material_0_0
f 1//1 2//2 3//3
f 2//2 1//1 4//4
f 5//5 6//6 7//7
f 8//8 7//7 6//6
f 3//3 9//9 10//10
f 9//9 3//3 2//2
f 7//7 8//8 11//11
f 12//12 11//11 8//8
f 3//3 13//13 1//1
f 13//13 3//3 14//14
f 15//15 8//8 16//16
f 6//6 16//16 8//8
f 17//17 1//1 18//18
f 1//1 17//17 4//4
f 5//5 19//19 6//6
f 20//20 6//6 19//19
f 21//21 2//2 4//4
f 2//2 21//21 22//22
f 23//23 24//24 7//7
f 5//5 7//7 24//24
f 10//10 25//25 26//26
f 25//25 10//10 9//9
f 11//11 12//12 27//27
f 28//28 27//27 12//12
f 10//10 14//14 3//3
f 14//14 10//10 29//29
f 30//30 12//12 15//15
f 8//8 15//15 12//12
f 22//22 9//9 2//2
f 9//9 22//22 31//31
f 32//32 23//23 11//11
f 7//7 11//11 23//23
f 21//21 14//14 22//22
f 14//14 21//21 13//13
f 16//16 24//24 15//15
f 23//23 15//15 24//24
f 1//1 33//33 18//18
f 33//33 1//1 13//13
f 16//16 6//6 34//34
f 20//20 34//34 6//6
f 35//35 18//18 36//36
f 18//18 35//35 17//17
f 19//19 37//37 20//20
f 38//38 20//20 37//37
f 17//17 21//21 4//4
f 21//21 17//17 39//39
f 40//40 19//19 24//24
f 5//5 24//24 19//19
f 41//41 42//41 43//41
f 42//41 41//41 44//41
f 45//42 46//42 47//42
f 48//42 47//42 46//42
f 26//26 29//29 10//10
f 29//29 26//26 49//43
f 50//44 28//28 30//30
f 12//12 30//30 28//28
f 31//31 25//25 9//9
f 25//25 31//31 51//45
f 52//46 32//32 27//27
f 11//11 27//27 32//32
f 22//22 29//29 31//31
f 29//29 22//22 14//14
f 15//15 23//23 30//30
f 32//32 30//30 23//23
f 13//13 39//39 33//33
f 39//39 13//13 21//21
f 24//24 16//16 40//40
f 34//34 40//40 16//16
f 18//18 53//47 36//36
f 53//47 18//18 33//33
f 34//34 20//20 54//48
f 38//38 54//48 20//20
f 55//49 36//36 56//50
f 36//36 55//49 35//35
f 37//37 57//51 38//38
f 58//52 38//38 57//51
f 35//35 39//39 17//17
f 39//39 35//35 59//53
f 60//54 37//37 40//40
f 19//19 40//40 37//37
f 61//55 62//55 63//55
f 62//55 61//55 64//55
f 65//56 66//56 67//56
f 68//56 67//56 66//56
f 69//26 70//57 71//58
f 70//57 69//26 72//25
f 73//27 74//28 75//59
f 76//60 75//59 74//28
f 77//56 78//56 79//56
f 78//56 77//56 80//56
f 81//55 82//55 83//55
f 84//55 83//55 82//55
f 31//31 49//43 51//45
f 49//43 31//31 29//29
f 30//30 32//32 50//44
f 52//46 50//44 32//32
f 33//33 59//53 53//47
f 59//53 33//33 39//39
f 40//40 34//34 60//54
f 54//48 60//54 34//34
f 36//36 85//61 56//50
f 85//61 36//36 53//47
f 54//48 38//38 86//62
f 58//52 86//62 38//38
f 55//49 59//53 35//35
f 59//53 55//49 87//63
f 88//64 57//51 60//54
f 37//37 60//54 57//51
f 89//42 90//42 91//42
f 90//42 89//42 92//42
f 93//41 94//41 95//41
f 96//41 95//41 94//41
f 97//45 70//57 72//25
f 70//57 97//45 98//65
f 99//66 100//46 75//59
f 73//27 75//59 100//46
f 71//58 101//67 102//68
f 101//67 71//58 70//57
f 75//59 76//60 103//69
f 104//70 103//69 76//60
f 71//58 105//43 69//26
f 105//43 71//58 106//71
f 107//72 76//60 108//44
f 74//28 108//44 76//60
f 53//47 87//63 85//61
f 87//63 53//47 59//53
f 60//54 54//48 88//64
f 86//62 88//64 54//48
f 97//45 106//71 98//65
f 106//71 97//45 105//43
f 108//44 100//46 107//72
f 99//66 107//72 100//46
f 98//65 101//67 70//57
f 101//67 98//65 109//73
f 110//74 99//66 103//69
f 75//59 103//69 99//66
f 102//68 111//75 112//76
f 111//75 102//68 101//67
f 103//69 104//70 113//77
f 114//78 113//77 104//70
f 102//68 106//71 71//58
f 106//71 102//68 115//79
f 116//80 104//70 107//72
f 76//60 107//72 104//70
f 98//65 115//79 109//73
f 115//79 98//65 106//71
f 107//72 99//66 116//80
f 110//74 116//80 99//66
f 109//73 111//75 101//67
f 111//75 109//73 117//81
f 118//82 110//74 113//77
f 103//69 113//77 110//74
f 111//75 119//83 112//76
f 119//83 111//75 120//84
f 121//85 113//77 122//86
f 114//78 122//86 113//77
f 112//76 115//79 102//68
f 115//79 112//76 123//87
f 124//88 114//78 116//80
f 104//70 116//80 114//78
f 109//73 123//87 117//81
f 123//87 109//73 115//79
f 116//80 110//74 124//88
f 118//82 124//88 110//74
f 111//75 125//89 120//84
f 125//89 111//75 117//81
f 118//82 113//77 126//90
f 121//85 126//90 113//77
f 120//84 127//91 119//83
f 127//91 120//84 128//92
f 129//93 121//85 130//94
f 122//86 130//94 121//85
f 119//83 123//87 112//76
f 123//87 119//83 131//95
f 132//96 122//86 124//88
f 114//78 124//88 122//86
f 131//95 117//81 123//87
f 117//81 131//95 125//89
f 126//90 132//96 118//82
f 124//88 118//82 132//96
f 120//84 133//97 128//92
f 133//97 120//84 125//89
f 126//90 121//85 134//98
f 129//93 134//98 121//85
f 128//92 135//50 127//91
f 135//50 128//92 136//49
f 137//51 129//93 138//52
f 130//94 138//52 129//93
f 127//91 131//95 119//83
f 131//95 127//91 139//99
f 140//100 130//94 132//96
f 122//86 132//96 130//94
f 139//99 125//89 131//95
f 125//89 139//99 133//97
f 134//98 140//100 126//90
f 132//96 126//90 140//100
f 128//92 141//63 136//49
f 141//63 128//92 133//97
f 134//98 129//93 142//64
f 137//51 142//64 129//93
f 143//101 144//101 145//101
f 144//101 143//101 146//101
f 147//102 148//102 149//102
f 150//102 149//102 148//102
f 135//50 139//99 127//91
f 139//99 135//50 151//61
f 152//62 138//52 140//100
f 130//94 140//100 138//52
f 151//61 133//97 139//99
f 133//97 151//61 141//63
f 142//64 152//62 134//98
f 140//100 134//98 152//62
