# SSTK version 0.8.0
# 42
mtllib original-42.mtl
o #ID287
v 0.576160 0.213081 0.511953
v 0.576066 0.206560 0.516045
v 0.576066 0.211733 0.516045
v 0.576066 -0.347388 0.516045
v 0.576076 -0.350567 0.515617
v 0.576127 -0.355766 0.513411
v 0.576208 -0.360230 0.509902
v 0.577051 0.225769 0.473444
v 0.576243 -0.361370 0.508380
v 0.576578 -0.361370 0.493864
v 0.577080 0.221645 0.472159
v 0.577697 0.228914 0.445469
v 0.577697 0.229581 0.445469
vn -0.9997328593082389 0 -0.0231129837834308
vn -0.9999332070461467 0 -0.01155774400165899
vn -0.9999026730044843 0 -0.013951505957687384
vn -0.9997546560884838 0 -0.022150115787451043
usemtl material_0_0
f 1//1 2//2 3//3
f 2//2 1//1 4//4
f 4//4 1//1 5//1
f 5//1 1//1 6//1
f 6//1 1//1 7//1
f 7//1 1//1 8//1
f 7//1 8//1 9//1
f 9//1 8//1 10//1
f 10//1 8//1 11//1
f 10//1 11//1 12//1
f 12//1 11//1 13//1
