# SSTK version 0.8.0
# 84
mtllib original-84.mtl
o #ID539
v -0.601527 -0.392249 -0.242967
v -0.595579 -0.366543 -0.235216
v -0.595579 -0.392249 -0.235216
v -0.601527 -0.366543 -0.242967
v -0.601527 -0.366543 -0.242967
v -0.601527 -0.392249 -0.242967
v -0.595579 -0.366543 -0.235216
v -0.595579 -0.392249 -0.235216
v -0.591840 -0.366543 -0.226190
v -0.591840 -0.392249 -0.226190
v -0.591840 -0.366543 -0.226190
v -0.591840 -0.392249 -0.226190
v -0.664141 -0.392249 -0.226190
v -0.664141 -0.392249 -0.206817
v -0.665416 -0.392249 -0.216503
v -0.660402 -0.392249 -0.235216
v -0.660402 -0.392249 -0.197791
v -0.654454 -0.392249 -0.242967
v -0.654454 -0.392249 -0.190040
v -0.646703 -0.392249 -0.248915
v -0.646703 -0.392249 -0.184092
v -0.637677 -0.392249 -0.252654
v -0.637677 -0.392249 -0.180353
v -0.627990 -0.392249 -0.253929
v -0.627990 -0.392249 -0.179078
v -0.618304 -0.392249 -0.252654
v -0.618304 -0.392249 -0.180353
v -0.609278 -0.392249 -0.248915
v -0.609278 -0.392249 -0.184092
v -0.601527 -0.392249 -0.242967
v -0.601527 -0.392249 -0.190040
v -0.595579 -0.392249 -0.235216
v -0.595579 -0.392249 -0.197791
v -0.591840 -0.392249 -0.226190
v -0.591840 -0.392249 -0.206817
v -0.590565 -0.392249 -0.216503
v -0.590565 -0.392249 -0.216503
v -0.591840 -0.392249 -0.226190
v -0.591840 -0.392249 -0.206817
v -0.595579 -0.392249 -0.197791
v -0.595579 -0.392249 -0.235216
v -0.601527 -0.392249 -0.190040
v -0.601527 -0.392249 -0.242967
v -0.609278 -0.392249 -0.184092
v -0.609278 -0.392249 -0.248915
v -0.618304 -0.392249 -0.180353
v -0.618304 -0.392249 -0.252654
v -0.627990 -0.392249 -0.179078
v -0.627990 -0.392249 -0.253929
v -0.637677 -0.392249 -0.180353
v -0.637677 -0.392249 -0.252654
v -0.646703 -0.392249 -0.184092
v -0.646703 -0.392249 -0.248915
v -0.654454 -0.392249 -0.190040
v -0.654454 -0.392249 -0.242967
v -0.660402 -0.392249 -0.197791
v -0.660402 -0.392249 -0.235216
v -0.664141 -0.392249 -0.206817
v -0.664141 -0.392249 -0.226190
v -0.665416 -0.392249 -0.216503
v -0.609278 -0.366543 -0.248915
v -0.609278 -0.392249 -0.248915
v -0.609278 -0.366543 -0.248915
v -0.609278 -0.392249 -0.248915
v -0.590565 -0.366543 -0.216503
v -0.590565 -0.392249 -0.216503
v -0.590565 -0.366543 -0.216503
v -0.590565 -0.392249 -0.216503
v -0.637677 -0.366543 -0.252654
v -0.627990 -0.392249 -0.253929
v -0.637677 -0.392249 -0.252654
v -0.627990 -0.366543 -0.253929
v -0.627990 -0.366543 -0.253929
v -0.637677 -0.366543 -0.252654
v -0.627990 -0.392249 -0.253929
v -0.637677 -0.392249 -0.252654
v -0.618304 -0.392249 -0.252654
v -0.618304 -0.366543 -0.252654
v -0.618304 -0.366543 -0.252654
v -0.618304 -0.392249 -0.252654
v -0.591840 -0.366543 -0.206817
v -0.591840 -0.392249 -0.206817
v -0.591840 -0.366543 -0.206817
v -0.591840 -0.392249 -0.206817
v -0.595579 -0.366543 -0.197791
v -0.595579 -0.392249 -0.197791
v -0.595579 -0.366543 -0.197791
v -0.595579 -0.392249 -0.197791
v -0.601527 -0.366543 -0.190040
v -0.601527 -0.392249 -0.190040
v -0.601527 -0.366543 -0.190040
v -0.601527 -0.392249 -0.190040
v -0.609278 -0.392249 -0.184092
v -0.609278 -0.366543 -0.184092
v -0.609278 -0.366543 -0.184092
v -0.609278 -0.392249 -0.184092
v -0.618304 -0.392249 -0.180353
v -0.618304 -0.366543 -0.180353
v -0.618304 -0.366543 -0.180353
v -0.618304 -0.392249 -0.180353
v -0.627990 -0.392249 -0.179078
v -0.627990 -0.366543 -0.179078
v -0.627990 -0.366543 -0.179078
v -0.627990 -0.392249 -0.179078
v -0.637677 -0.392249 -0.180353
v -0.637677 -0.366543 -0.180353
v -0.637677 -0.366543 -0.180353
v -0.637677 -0.392249 -0.180353
v -0.646703 -0.392249 -0.184092
v -0.646703 -0.366543 -0.184092
v -0.646703 -0.366543 -0.184092
v -0.646703 -0.392249 -0.184092
v -0.654454 -0.392249 -0.190040
v -0.654454 -0.366543 -0.190040
v -0.654454 -0.366543 -0.190040
v -0.654454 -0.392249 -0.190040
v -0.660402 -0.366543 -0.197791
v -0.660402 -0.392249 -0.197791
v -0.660402 -0.392249 -0.197791
v -0.660402 -0.366543 -0.197791
v -0.664141 -0.366543 -0.206817
v -0.664141 -0.392249 -0.206817
v -0.664141 -0.392249 -0.206817
v -0.664141 -0.366543 -0.206817
v -0.665416 -0.366543 -0.216503
v -0.665416 -0.392249 -0.216503
v -0.665416 -0.392249 -0.216503
v -0.665416 -0.366543 -0.216503
v -0.664141 -0.366543 -0.226190
v -0.664141 -0.392249 -0.226190
v -0.664141 -0.392249 -0.226190
v -0.664141 -0.366543 -0.226190
v -0.660402 -0.366543 -0.235216
v -0.660402 -0.392249 -0.235216
v -0.660402 -0.392249 -0.235216
v -0.660402 -0.366543 -0.235216
v -0.654454 -0.366543 -0.242967
v -0.654454 -0.392249 -0.242967
v -0.654454 -0.392249 -0.242967
v -0.654454 -0.366543 -0.242967
v -0.646703 -0.392249 -0.248915
v -0.646703 -0.366543 -0.248915
v -0.646703 -0.366543 -0.248915
v -0.646703 -0.392249 -0.248915
vn 0.7048829604882486 0 -0.7093236299555528
vn 0.8647743484446505 0 -0.5021606578298723
vn -0.7048829604882486 0 0.7093236299555528
vn -0.8647743484446505 0 0.5021606578298723
vn 0.9655730037000424 0 -0.2601322250811651
vn -0.9655730037000424 0 0.2601322250811651
vn 0 -1 0
vn 0 1 0
vn 0.4974128798922294 0 -0.8675139347107449
vn -0.4974128798922294 0 0.8675139347107449
vn 1 0 0
vn -1 0 0
vn -0.2570265030699609 0 -0.9664043546671484
vn 0 0 -1
vn 0 0 1
vn 0.2570265030699609 0 0.9664043546671484
vn 0.2570265030699609 0 -0.9664043546671484
vn -0.2570265030699609 0 0.9664043546671484
vn 0.9655730037000424 0 0.2601322250811651
vn -0.9655730037000424 0 -0.2601322250811651
vn 0.8647743484446505 0 0.5021606578298723
vn -0.8647743484446505 0 -0.5021606578298723
vn 0.7048829604882486 0 0.7093236299555528
vn -0.7048829604882486 0 -0.7093236299555528
vn 0.4974128798922294 0 0.8675139347107449
vn -0.4974128798922294 0 -0.8675139347107449
usemtl material_0_0
f 1//1 2//2 3//2
f 2//2 1//1 4//1
f 5//3 6//3 7//4
f 8//4 7//4 6//3
f 3//2 9//5 10//5
f 9//5 3//2 2//2
f 7//4 8//4 11//6
f 12//6 11//6 8//4
f 13//7 14//7 15//7
f 14//7 13//7 16//7
f 14//7 16//7 17//7
f 17//7 16//7 18//7
f 17//7 18//7 19//7
f 19//7 18//7 20//7
f 19//7 20//7 21//7
f 21//7 20//7 22//7
f 21//7 22//7 23//7
f 23//7 22//7 24//7
f 23//7 24//7 25//7
f 25//7 24//7 26//7
f 25//7 26//7 27//7
f 27//7 26//7 28//7
f 27//7 28//7 29//7
f 29//7 28//7 30//7
f 29//7 30//7 31//7
f 31//7 30//7 32//7
f 31//7 32//7 33//7
f 33//7 32//7 34//7
f 33//7 34//7 35//7
f 35//7 34//7 36//7
f 37//8 38//8 39//8
f 39//8 38//8 40//8
f 38//8 41//8 40//8
f 40//8 41//8 42//8
f 41//8 43//8 42//8
f 42//8 43//8 44//8
f 43//8 45//8 44//8
f 44//8 45//8 46//8
f 45//8 47//8 46//8
f 46//8 47//8 48//8
f 47//8 49//8 48//8
f 48//8 49//8 50//8
f 49//8 51//8 50//8
f 50//8 51//8 52//8
f 51//8 53//8 52//8
f 52//8 53//8 54//8
f 53//8 55//8 54//8
f 54//8 55//8 56//8
f 55//8 57//8 56//8
f 56//8 57//8 58//8
f 57//8 59//8 58//8
f 60//8 58//8 59//8
f 61//9 1//1 62//9
f 1//1 61//9 4//1
f 5//3 63//10 6//3
f 64//10 6//3 63//10
f 10//5 65//11 66//11
f 65//11 10//5 9//5
f 11//6 12//6 67//12
f 68//12 67//12 12//6
f 69//13 70//14 71//13
f 70//14 69//13 72//14
f 73//15 74//16 75//15
f 76//16 75//15 74//16
f 72//14 77//17 70//14
f 77//17 72//14 78//17
f 79//18 73//15 80//18
f 75//15 80//18 73//15
f 78//17 62//9 77//17
f 62//9 78//17 61//9
f 63//10 79//18 64//10
f 80//18 64//10 79//18
f 66//11 81//19 82//19
f 81//19 66//11 65//11
f 67//12 68//12 83//20
f 84//20 83//20 68//12
f 82//19 85//21 86//21
f 85//21 82//19 81//19
f 83//20 84//20 87//22
f 88//22 87//22 84//20
f 86//21 89//23 90//23
f 89//23 86//21 85//21
f 87//22 88//22 91//24
f 92//24 91//24 88//22
f 89//23 93//25 90//23
f 93//25 89//23 94//25
f 95//26 91//24 96//26
f 92//24 96//26 91//24
f 94//25 97//16 93//25
f 97//16 94//25 98//16
f 99//13 95//26 100//13
f 96//26 100//13 95//26
f 98//16 101//15 97//16
f 101//15 98//16 102//15
f 103//14 99//13 104//14
f 100//13 104//14 99//13
f 102//15 105//18 101//15
f 105//18 102//15 106//18
f 107//17 103//14 108//17
f 104//14 108//17 103//14
f 106//18 109//10 105//18
f 109//10 106//18 110//10
f 111//9 107//17 112//9
f 108//17 112//9 107//17
f 110//10 113//3 109//10
f 113//3 110//10 114//3
f 115//1 111//9 116//1
f 112//9 116//1 111//9
f 117//4 113//3 114//3
f 113//3 117//4 118//4
f 119//2 120//2 116//1
f 115//1 116//1 120//2
f 121//6 118//4 117//4
f 118//4 121//6 122//6
f 123//5 124//5 119//2
f 120//2 119//2 124//5
f 125//12 122//6 121//6
f 122//6 125//12 126//12
f 127//11 128//11 123//5
f 124//5 123//5 128//11
f 129//20 126//12 125//12
f 126//12 129//20 130//20
f 131//19 132//19 127//11
f 128//11 127//11 132//19
f 133//22 130//20 129//20
f 130//20 133//22 134//22
f 135//21 136//21 131//19
f 132//19 131//19 136//21
f 137//24 134//22 133//22
f 134//22 137//24 138//24
f 139//23 140//23 135//21
f 136//21 135//21 140//23
f 137//24 141//26 138//24
f 141//26 137//24 142//26
f 143//25 140//23 144//25
f 139//23 144//25 140//23
f 142//26 71//13 141//26
f 71//13 142//26 69//13
f 74//16 143//25 76//16
f 144//25 76//16 143//25
