# SSTK version 0.8.0
# 47
mtllib original-47.mtl
o #ID317
v 0.806059 -0.017273 -0.198845
v 0.792753 -0.017273 -0.039932
v 0.792753 -0.017273 -0.198845
v 0.806059 -0.017273 -0.039932
v 0.806059 -0.017273 -0.039932
v 0.806059 -0.017273 -0.198845
v 0.792753 -0.017273 -0.039932
v 0.792753 -0.017273 -0.198845
v 0.806059 -0.017273 -0.198845
v 0.792753 -0.028050 -0.198845
v 0.806059 -0.028050 -0.198845
v 0.792753 -0.017273 -0.198845
v 0.792753 -0.017273 -0.198845
v 0.806059 -0.017273 -0.198845
v 0.792753 -0.028050 -0.198845
v 0.806059 -0.028050 -0.198845
v 0.806885 -0.017185 -0.198935
v 0.806059 -0.017273 -0.039932
v 0.806059 -0.017273 -0.198845
v 0.806885 -0.017185 -0.039841
v 0.806885 -0.017185 -0.039841
v 0.806885 -0.017185 -0.198935
v 0.806059 -0.017273 -0.039932
v 0.806059 -0.017273 -0.198845
v 0.792753 -0.017273 -0.039932
v 0.806059 -0.028050 -0.039932
v 0.792753 -0.028050 -0.039932
v 0.806059 -0.017273 -0.039932
v 0.806059 -0.017273 -0.039932
v 0.792753 -0.017273 -0.039932
v 0.806059 -0.028050 -0.039932
v 0.792753 -0.028050 -0.039932
v 0.792753 -0.028050 -0.198845
v 0.792753 -0.017273 -0.039932
v 0.792753 -0.028050 -0.039932
v 0.792753 -0.017273 -0.198845
v 0.792753 -0.017273 -0.198845
v 0.792753 -0.028050 -0.198845
v 0.792753 -0.017273 -0.039932
v 0.792753 -0.028050 -0.039932
v 0.806059 -0.028050 -0.039932
v 0.792753 -0.028050 -0.198845
v 0.792753 -0.028050 -0.039932
v 0.806059 -0.028050 -0.198845
v 0.806059 -0.028050 -0.198845
v 0.806059 -0.028050 -0.039932
v 0.792753 -0.028050 -0.198845
v 0.792753 -0.028050 -0.039932
v 0.806059 -0.028050 -0.198845
v 0.806885 -0.028139 -0.198935
v 0.806059 -0.028050 -0.198845
v 0.806885 -0.028139 -0.198935
v 0.807654 -0.016926 -0.199199
v 0.807654 -0.016926 -0.039577
v 0.807654 -0.016926 -0.039577
v 0.807654 -0.016926 -0.199199
v 0.806059 -0.028050 -0.039932
v 0.806885 -0.028139 -0.039841
v 0.806059 -0.028050 -0.039932
v 0.806885 -0.028139 -0.039841
v 0.807654 -0.028397 -0.199199
v 0.807654 -0.028397 -0.199199
v 0.808315 -0.016515 -0.199620
v 0.808315 -0.016515 -0.039156
v 0.808315 -0.016515 -0.039156
v 0.808315 -0.016515 -0.199620
v 0.807654 -0.028397 -0.039577
v 0.807654 -0.028397 -0.039577
v 0.808315 -0.028808 -0.199620
v 0.808315 -0.028808 -0.199620
v 0.808822 -0.015980 -0.200169
v 0.808822 -0.015980 -0.038607
v 0.808822 -0.015980 -0.200169
v 0.808822 -0.015980 -0.038607
v 0.808315 -0.028808 -0.039156
v 0.808315 -0.028808 -0.039156
v 0.808822 -0.029344 -0.200169
v 0.808822 -0.029344 -0.200169
v 0.809141 -0.015356 -0.200808
v 0.809141 -0.015356 -0.037969
v 0.809141 -0.015356 -0.200808
v 0.809141 -0.015356 -0.037969
v 0.808822 -0.029344 -0.038607
v 0.808822 -0.029344 -0.038607
v 0.809141 -0.029967 -0.200808
v 0.809141 -0.029967 -0.200808
v 0.809250 -0.014687 -0.201493
v 0.809250 -0.014687 -0.037283
v 0.809250 -0.014687 -0.201493
v 0.809250 -0.014687 -0.037283
v 0.809141 -0.029967 -0.037969
v 0.809141 -0.029967 -0.037969
v 0.809250 -0.030637 -0.201493
v 0.809250 -0.030637 -0.201493
v 0.809250 -0.030637 -0.037283
v 0.809250 -0.030637 -0.037283
vn 0 -1 0
vn 0 1 0
vn 0 0 1
vn 0 0 -1
vn 0.31756287986023884 -0.6783948373658164 0.6625211407723371
vn 0.15094381106654983 -0.707230228422173 -0.6906818152424651
vn 0.15094381106654983 -0.7072302284221732 0.6906818152424649
vn 0.31756287986023884 -0.6783948373658161 -0.6625211407723375
vn -0.31756287986023884 0.6783948373658161 0.6625211407723375
vn -0.31756287986023884 0.6783948373658164 -0.6625211407723371
vn -0.15094381106654983 0.707230228422173 0.6906818152424651
vn -0.15094381106654983 0.7072302284221732 -0.6906818152424649
vn 1 0 0
vn -1 0 0
vn 0.15094381106654983 0.707230228422173 0.6906818152424651
vn 0.31756287986023884 0.6783948373658161 0.6625211407723375
vn -0.15094381106654983 -0.707230228422173 -0.6906818152424651
vn -0.31756287986023884 -0.6783948373658161 -0.6625211407723375
vn 0.5878743504140147 -0.5787465659446918 0.5652045298230781
vn 0.5878743504140147 -0.5787465659446914 -0.5652045298230784
vn -0.5878743504140147 0.5787465659446914 0.5652045298230784
vn -0.5878743504140147 0.5787465659446918 -0.5652045298230781
vn 0.15094381106654983 0.7072302284221732 -0.6906818152424649
vn 0.31756287986023884 0.6783948373658164 -0.6625211407723371
vn -0.15094381106654983 -0.7072302284221732 0.6906818152424649
vn -0.31756287986023884 -0.6783948373658164 0.6625211407723371
vn 0.5878743504140147 0.5787465659446914 0.5652045298230784
vn -0.5878743504140147 -0.5787465659446914 -0.5652045298230784
vn 0.7879219729214685 -0.4405423419539726 0.4302341333893087
vn 0.7879219729214686 -0.4405423419539725 -0.43023413338930894
vn -0.7879219729214686 0.4405423419539725 0.43023413338930894
vn -0.7879219729214685 0.4405423419539726 -0.4302341333893087
vn 0.5878743504140147 0.5787465659446918 -0.5652045298230781
vn -0.5878743504140147 -0.5787465659446918 0.5652045298230781
vn 0.7879219729214686 0.4405423419539725 0.43023413338930894
vn -0.7879219729214686 -0.4405423419539725 -0.43023413338930894
vn 0.9175654547735249 -0.2844430061397387 0.2777873511599167
vn 0.9175654547735249 -0.2844430061397386 -0.2777873511599168
vn -0.9175654547735249 0.2844430061397387 -0.2777873511599167
vn -0.9175654547735249 0.2844430061397386 0.2777873511599168
vn 0.7879219729214685 0.4405423419539726 -0.4302341333893087
vn -0.7879219729214685 -0.4405423419539726 0.4302341333893087
vn 0.9175654547735249 0.2844430061397386 0.2777873511599168
vn -0.9175654547735249 -0.2844430061397386 -0.2777873511599168
vn 0.9852762437173928 -0.12231657756960942 0.11945450354759599
vn 0.9852762437173928 -0.12231657756960938 -0.11945450354759603
vn -0.9852762437173928 0.12231657756960942 -0.11945450354759599
vn -0.9852762437173928 0.12231657756960938 0.11945450354759603
vn 0.9175654547735249 0.2844430061397387 -0.2777873511599167
vn -0.9175654547735249 -0.2844430061397387 0.2777873511599167
vn 0.9852762437173928 0.12231657756960938 0.11945450354759603
vn -0.9852762437173928 -0.12231657756960938 -0.11945450354759603
vn 0.9936192124182132 -0.0806907564248048 0.07880268105212179
vn 0.9936192124182132 -0.08069075642480476 -0.07880268105212183
vn -0.9936192124182132 0.0806907564248048 -0.07880268105212179
vn -0.9936192124182132 0.08069075642480476 0.07880268105212183
vn 0.9852762437173928 0.12231657756960942 -0.11945450354759599
vn -0.9852762437173928 -0.12231657756960942 0.11945450354759599
vn 0.9936192124182132 0.08069075642480476 0.07880268105212183
vn -0.9936192124182132 -0.08069075642480476 -0.07880268105212183
vn 0.9936192124182132 0.0806907564248048 -0.07880268105212179
vn -0.9936192124182132 -0.0806907564248048 0.07880268105212179
usemtl material_0_0
f 1//1 2//1 3//1
f 2//1 1//1 4//1
f 5//2 6//2 7//2
f 8//2 7//2 6//2
f 9//3 10//3 11//3
f 10//3 9//3 12//3
f 13//4 14//4 15//4
f 16//4 15//4 14//4
f 17//5 18//6 19//7
f 18//6 17//5 20//8
f 21//9 22//10 23//11
f 24//12 23//11 22//10
f 25//4 26//4 27//4
f 26//4 25//4 28//4
f 29//3 30//3 31//3
f 32//3 31//3 30//3
f 33//13 34//13 35//13
f 34//13 33//13 36//13
f 37//14 38//14 39//14
f 40//14 39//14 38//14
f 41//2 42//2 43//2
f 42//2 41//2 44//2
f 45//1 46//1 47//1
f 48//1 47//1 46//1
f 17//5 49//15 50//16
f 49//15 17//5 19//7
f 24//12 22//10 51//17
f 52//18 51//17 22//10
f 53//19 20//8 17//5
f 20//8 53//19 54//20
f 55//21 56//22 21//9
f 22//10 21//9 56//22
f 57//23 20//8 58//24
f 20//8 57//23 18//6
f 23//11 59//25 21//9
f 60//26 21//9 59//25
f 58//24 49//15 57//23
f 49//15 58//24 50//16
f 52//18 60//26 51//17
f 59//25 51//17 60//26
f 53//19 50//16 61//27
f 50//16 53//19 17//5
f 22//10 56//22 52//18
f 62//28 52//18 56//22
f 63//29 54//20 53//19
f 54//20 63//29 64//30
f 65//31 66//32 55//21
f 56//22 55//21 66//32
f 58//24 54//20 67//33
f 54//20 58//24 20//8
f 21//9 60//26 55//21
f 68//34 55//21 60//26
f 67//33 50//16 58//24
f 50//16 67//33 61//27
f 62//28 68//34 52//18
f 60//26 52//18 68//34
f 63//29 61//27 69//35
f 61//27 63//29 53//19
f 56//22 66//32 62//28
f 70//36 62//28 66//32
f 64//30 71//37 72//38
f 71//37 64//30 63//29
f 66//32 65//31 73//39
f 74//40 73//39 65//31
f 67//33 64//30 75//41
f 64//30 67//33 54//20
f 55//21 68//34 65//31
f 76//42 65//31 68//34
f 75//41 61//27 67//33
f 61//27 75//41 69//35
f 70//36 76//42 62//28
f 68//34 62//28 76//42
f 77//43 63//29 69//35
f 63//29 77//43 71//37
f 73//39 78//44 66//32
f 70//36 66//32 78//44
f 72//38 79//45 80//46
f 79//45 72//38 71//37
f 73//39 74//40 81//47
f 82//48 81//47 74//40
f 75//41 72//38 83//49
f 72//38 75//41 64//30
f 65//31 76//42 74//40
f 84//50 74//40 76//42
f 77//43 75//41 83//49
f 75//41 77//43 69//35
f 70//36 78//44 76//42
f 84//50 76//42 78//44
f 85//51 71//37 77//43
f 71//37 85//51 79//45
f 81//47 86//52 73//39
f 78//44 73//39 86//52
f 80//46 87//53 88//54
f 87//53 80//46 79//45
f 81//47 82//48 89//55
f 90//56 89//55 82//48
f 83//49 80//46 91//57
f 80//46 83//49 72//38
f 74//40 84//50 82//48
f 92//58 82//48 84//50
f 85//51 83//49 91//57
f 83//49 85//51 77//43
f 78//44 86//52 84//50
f 92//58 84//50 86//52
f 93//59 79//45 85//51
f 79//45 93//59 87//53
f 89//55 94//60 81//47
f 86//52 81//47 94//60
f 91//57 88//54 95//61
f 88//54 91//57 80//46
f 82//48 92//58 90//56
f 96//62 90//56 92//58
f 93//59 91//57 95//61
f 91//57 93//59 85//51
f 86//52 94//60 92//58
f 96//62 92//58 94//60
