# SSTK version 0.8.0
# 59
mtllib original-59.mtl
o #ID389
v 0.809141 0.251857 -0.037969
v 0.809250 0.267138 -0.037283
v 0.809250 0.251188 -0.037283
v 0.809141 0.266469 -0.037969
v 0.809141 0.266469 -0.037969
v 0.809141 0.251857 -0.037969
v 0.809250 0.267138 -0.037283
v 0.809250 0.251188 -0.037283
v 0.808822 0.252481 -0.038607
v 0.808822 0.265845 -0.038607
v 0.808822 0.265845 -0.038607
v 0.808822 0.252481 -0.038607
v 0.809250 0.267138 -0.201493
v 0.809141 0.266469 -0.200808
v 0.809141 0.266469 -0.200808
v 0.809250 0.267138 -0.201493
v 0.809250 0.251188 -0.201493
v 0.809141 0.251857 -0.200808
v 0.809141 0.251857 -0.200808
v 0.809250 0.251188 -0.201493
v 0.808315 0.253017 -0.039156
v 0.808315 0.265309 -0.039156
v 0.808315 0.265309 -0.039156
v 0.808315 0.253017 -0.039156
v 0.808822 0.265845 -0.200169
v 0.808822 0.265845 -0.200169
v 0.808822 0.252481 -0.200169
v 0.808822 0.252481 -0.200169
v 0.807654 0.253428 -0.039577
v 0.807654 0.264898 -0.039577
v 0.807654 0.264898 -0.039577
v 0.807654 0.253428 -0.039577
v 0.808315 0.265309 -0.199620
v 0.808315 0.265309 -0.199620
v 0.808315 0.253017 -0.199620
v 0.808315 0.253017 -0.199620
v 0.806885 0.253686 -0.039841
v 0.806885 0.264640 -0.039841
v 0.806885 0.264640 -0.039841
v 0.806885 0.253686 -0.039841
v 0.807654 0.264898 -0.199199
v 0.807654 0.264898 -0.199199
v 0.807654 0.253428 -0.199199
v 0.807654 0.253428 -0.199199
v 0.806059 0.253774 -0.039932
v 0.806059 0.264552 -0.039932
v 0.806059 0.264552 -0.039932
v 0.806059 0.253774 -0.039932
v 0.806885 0.264640 -0.198935
v 0.806885 0.264640 -0.198935
v 0.806885 0.253686 -0.198935
v 0.806885 0.253686 -0.198935
v 0.795944 0.264552 -0.039932
v 0.806059 0.253774 -0.039932
v 0.795944 0.253774 -0.039932
v 0.806059 0.264552 -0.039932
v 0.806059 0.264552 -0.039932
v 0.795944 0.264552 -0.039932
v 0.806059 0.253774 -0.039932
v 0.795944 0.253774 -0.039932
v 0.806059 0.264552 -0.198845
v 0.806059 0.264552 -0.198845
v 0.806059 0.253774 -0.198845
v 0.806059 0.253774 -0.198845
v 0.806059 0.253774 -0.039932
v 0.795944 0.253774 -0.198845
v 0.795944 0.253774 -0.039932
v 0.806059 0.253774 -0.198845
v 0.806059 0.253774 -0.198845
v 0.806059 0.253774 -0.039932
v 0.795944 0.253774 -0.198845
v 0.795944 0.253774 -0.039932
v 0.795118 0.253862 -0.040022
v 0.795944 0.264552 -0.039932
v 0.795944 0.253774 -0.039932
v 0.795118 0.264464 -0.040022
v 0.795118 0.264464 -0.040022
v 0.795118 0.253862 -0.040022
v 0.795944 0.264552 -0.039932
v 0.795944 0.253774 -0.039932
v 0.806059 0.264552 -0.198845
v 0.795944 0.264552 -0.039932
v 0.795944 0.264552 -0.198845
v 0.806059 0.264552 -0.039932
v 0.806059 0.264552 -0.039932
v 0.806059 0.264552 -0.198845
v 0.795944 0.264552 -0.039932
v 0.795944 0.264552 -0.198845
v 0.806059 0.264552 -0.198845
v 0.795944 0.253774 -0.198845
v 0.806059 0.253774 -0.198845
v 0.795944 0.264552 -0.198845
v 0.795944 0.264552 -0.198845
v 0.806059 0.264552 -0.198845
v 0.795944 0.253774 -0.198845
v 0.806059 0.253774 -0.198845
v 0.795118 0.253862 -0.198754
v 0.795944 0.253774 -0.198845
v 0.795944 0.253774 -0.198845
v 0.795118 0.253862 -0.198754
v 0.794348 0.254121 -0.040286
v 0.794348 0.264205 -0.040286
v 0.794348 0.264205 -0.040286
v 0.794348 0.254121 -0.040286
v 0.795944 0.264552 -0.198845
v 0.795118 0.264464 -0.198754
v 0.795944 0.264552 -0.198845
v 0.795118 0.264464 -0.198754
v 0.794348 0.254121 -0.198490
v 0.794348 0.254121 -0.198490
v 0.793687 0.254532 -0.040707
v 0.793687 0.263794 -0.040707
v 0.793687 0.263794 -0.040707
v 0.793687 0.254532 -0.040707
v 0.794348 0.264205 -0.198490
v 0.794348 0.264205 -0.198490
v 0.793687 0.254532 -0.198069
v 0.793687 0.254532 -0.198069
v 0.793180 0.255067 -0.041256
v 0.793180 0.263258 -0.041256
v 0.793180 0.263258 -0.041256
v 0.793180 0.255067 -0.041256
v 0.793687 0.263794 -0.198069
v 0.793687 0.263794 -0.198069
v 0.793180 0.255067 -0.197520
v 0.793180 0.255067 -0.197520
v 0.792861 0.255691 -0.041895
v 0.792861 0.262634 -0.041895
v 0.792861 0.262634 -0.041895
v 0.792861 0.255691 -0.041895
v 0.793180 0.263258 -0.197520
v 0.793180 0.263258 -0.197520
v 0.792861 0.255691 -0.196881
v 0.792861 0.255691 -0.196881
v 0.792753 0.256361 -0.042580
v 0.792753 0.261965 -0.042580
v 0.792753 0.261965 -0.042580
v 0.792753 0.256361 -0.042580
v 0.792861 0.262634 -0.196881
v 0.792861 0.262634 -0.196881
v 0.792753 0.256361 -0.196196
v 0.792753 0.256361 -0.196196
v 0.792753 0.256361 -0.196196
v 0.792753 0.261965 -0.042580
v 0.792753 0.256361 -0.042580
v 0.792753 0.261965 -0.196196
v 0.792753 0.261965 -0.196196
v 0.792753 0.256361 -0.196196
v 0.792753 0.261965 -0.042580
v 0.792753 0.256361 -0.042580
v 0.792753 0.261965 -0.196196
v 0.792753 0.261965 -0.196196
vn 0.9852762437173928 0.12231657756960942 -0.11945450354759599
vn 0.9936192124182132 -0.08069075642480476 -0.07880268105212183
vn 0.9936192124182132 0.0806907564248048 -0.07880268105212179
vn 0.9852762437173928 -0.12231657756960938 -0.11945450354759603
vn -0.9852762437173928 0.12231657756960938 0.11945450354759603
vn -0.9852762437173928 -0.12231657756960942 0.11945450354759599
vn -0.9936192124182132 0.08069075642480476 0.07880268105212183
vn -0.9936192124182132 -0.0806907564248048 0.07880268105212179
vn 0.9175654547735249 0.2844430061397387 -0.2777873511599167
vn 0.9175654547735249 -0.2844430061397386 -0.2777873511599168
vn -0.9175654547735249 0.2844430061397386 0.2777873511599168
vn -0.9175654547735249 -0.2844430061397387 0.2777873511599167
vn 0.9936192124182132 -0.0806907564248048 0.07880268105212179
vn 0.9852762437173928 -0.12231657756960942 0.11945450354759599
vn -0.9852762437173928 0.12231657756960942 -0.11945450354759599
vn -0.9936192124182132 0.0806907564248048 -0.07880268105212179
vn 0.9936192124182132 0.08069075642480476 0.07880268105212183
vn 0.9852762437173928 0.12231657756960938 0.11945450354759603
vn -0.9852762437173928 -0.12231657756960938 -0.11945450354759603
vn -0.9936192124182132 -0.08069075642480476 -0.07880268105212183
vn 0.7879219729214685 0.4405423419539726 -0.4302341333893087
vn 0.7879219729214686 -0.4405423419539725 -0.43023413338930894
vn -0.7879219729214686 0.4405423419539725 0.43023413338930894
vn -0.7879219729214685 -0.4405423419539726 0.4302341333893087
vn 0.9175654547735249 -0.2844430061397387 0.2777873511599167
vn -0.9175654547735249 0.2844430061397387 -0.2777873511599167
vn 0.9175654547735249 0.2844430061397386 0.2777873511599168
vn -0.9175654547735249 -0.2844430061397386 -0.2777873511599168
vn 0.5878743504140147 0.5787465659446918 -0.5652045298230781
vn 0.5878743504140147 -0.5787465659446914 -0.5652045298230784
vn -0.5878743504140147 0.5787465659446914 0.5652045298230784
vn -0.5878743504140147 -0.5787465659446918 0.5652045298230781
vn 0.7879219729214685 -0.4405423419539726 0.4302341333893087
vn -0.7879219729214685 0.4405423419539726 -0.4302341333893087
vn 0.7879219729214686 0.4405423419539725 0.43023413338930894
vn -0.7879219729214686 -0.4405423419539725 -0.43023413338930894
vn 0.31756287986023884 0.6783948373658164 -0.6625211407723371
vn 0.31756287986023884 -0.6783948373658161 -0.6625211407723375
vn -0.31756287986023884 0.6783948373658161 0.6625211407723375
vn -0.31756287986023884 -0.6783948373658164 0.6625211407723371
vn 0.5878743504140147 -0.5787465659446918 0.5652045298230781
vn -0.5878743504140147 0.5787465659446918 -0.5652045298230781
vn 0.5878743504140147 0.5787465659446914 0.5652045298230784
vn -0.5878743504140147 -0.5787465659446914 -0.5652045298230784
vn 0.15094381106654983 0.7072302284221732 -0.6906818152424649
vn 0.15094381106654983 -0.707230228422173 -0.6906818152424651
vn -0.15094381106654983 0.707230228422173 0.6906818152424651
vn -0.15094381106654983 -0.7072302284221732 0.6906818152424649
vn 0.31756287986023884 -0.6783948373658164 0.6625211407723371
vn -0.31756287986023884 0.6783948373658164 -0.6625211407723371
vn 0.31756287986023884 0.6783948373658161 0.6625211407723375
vn -0.31756287986023884 -0.6783948373658161 -0.6625211407723375
vn 0 0 -1
vn 0 0 1
vn 0.15094381106654983 -0.7072302284221732 0.6906818152424649
vn -0.15094381106654983 0.7072302284221732 -0.6906818152424649
vn 0.15094381106654983 0.707230228422173 0.6906818152424651
vn -0.15094381106654983 -0.707230228422173 -0.6906818152424651
vn 0 1 0
vn 0 -1 0
vn 0.2723466763673985 0.6883836180545798 -0.672276194927143
vn 0.2723466763673985 -0.6883836180545795 -0.6722761949271432
vn -0.2723466763673985 0.6883836180545795 0.6722761949271432
vn -0.2723466763673985 -0.6883836180545798 0.672276194927143
vn 0.2723466763673985 0.6883836180545795 0.6722761949271432
vn -0.2723466763673985 -0.6883836180545795 -0.6722761949271432
vn 0.5197087898260173 0.6112206875552334 -0.5969187925355375
vn 0.5197087898260173 -0.6112206875552332 -0.5969187925355378
vn -0.5197087898260173 0.6112206875552332 0.5969187925355378
vn -0.5197087898260173 -0.6112206875552334 0.5969187925355375
vn 0.2723466763673985 -0.6883836180545798 0.672276194927143
vn -0.2723466763673985 0.6883836180545798 -0.672276194927143
vn 0.5197087898260173 0.6112206875552332 0.5969187925355378
vn -0.5197087898260173 -0.6112206875552332 -0.5969187925355378
vn 0.721772283520321 0.4951691619288221 -0.4835827455736708
vn 0.721772283520321 -0.49516916192882193 -0.483582745573671
vn -0.721772283520321 0.49516916192882193 0.483582745573671
vn -0.721772283520321 -0.4951691619288221 0.4835827455736708
vn 0.5197087898260173 -0.6112206875552334 0.5969187925355375
vn -0.5197087898260173 0.6112206875552334 -0.5969187925355375
vn 0.721772283520321 0.49516916192882193 0.483582745573671
vn -0.721772283520321 -0.49516916192882193 -0.483582745573671
vn 0.868683071260537 0.3544000072419881 -0.34610743501438934
vn 0.868683071260537 -0.35440000724198795 -0.3461074350143895
vn -0.868683071260537 0.35440000724198795 0.3461074350143895
vn -0.868683071260537 -0.3544000072419881 0.34610743501438934
vn 0.721772283520321 -0.4951691619288221 0.4835827455736708
vn -0.721772283520321 0.4951691619288221 -0.4835827455736708
vn 0.868683071260537 0.35440000724198795 0.3461074350143895
vn -0.868683071260537 -0.35440000724198795 -0.3461074350143895
vn 0.9599435624634838 0.20045804109780124 -0.19576754236631722
vn 0.9599435624634838 -0.20045804109780116 -0.1957675423663173
vn -0.9599435624634838 0.20045804109780116 0.1957675423663173
vn -0.9599435624634838 -0.20045804109780124 0.19576754236631722
vn 0.868683071260537 -0.3544000072419881 0.34610743501438934
vn -0.868683071260537 0.3544000072419881 -0.34610743501438934
vn 0.9599435624634838 0.20045804109780116 0.1957675423663173
vn -0.9599435624634838 -0.20045804109780116 -0.1957675423663173
vn 0.9599435624634838 -0.20045804109780124 0.19576754236631722
vn -0.9599435624634838 0.20045804109780124 -0.19576754236631722
vn 1 0 0
vn -1 0 0
usemtl material_0_0
f 1//1 2//2 3//3
f 2//2 1//1 4//4
f 5//5 6//6 7//7
f 8//8 7//7 6//6
f 9//9 4//4 1//1
f 4//4 9//9 10//10
f 11//11 12//12 5//5
f 6//6 5//5 12//12
f 4//4 13//13 2//2
f 13//13 4//4 14//14
f 15//15 5//5 16//16
f 7//7 16//16 5//5
f 17//17 1//1 3//3
f 1//1 17//17 18//18
f 19//19 20//20 6//6
f 8//8 6//6 20//20
f 21//21 10//10 9//9
f 10//10 21//21 22//22
f 23//23 24//24 11//11
f 12//12 11//11 24//24
f 10//10 14//14 4//4
f 14//14 10//10 25//25
f 26//26 11//11 15//15
f 5//5 15//15 11//11
f 18//18 9//9 1//1
f 9//9 18//18 27//27
f 28//28 19//19 12//12
f 6//6 12//12 19//19
f 17//17 14//14 18//18
f 14//14 17//17 13//13
f 16//16 20//20 15//15
f 19//19 15//15 20//20
f 29//29 22//22 21//21
f 22//22 29//29 30//30
f 31//31 32//32 23//23
f 24//24 23//23 32//32
f 22//22 25//25 10//10
f 25//25 22//22 33//33
f 34//34 23//23 26//26
f 11//11 26//26 23//23
f 27//27 21//21 9//9
f 21//21 27//27 35//35
f 36//36 28//28 24//24
f 12//12 24//24 28//28
f 18//18 25//25 27//27
f 25//25 18//18 14//14
f 15//15 19//19 26//26
f 28//28 26//26 19//19
f 37//37 30//30 29//29
f 30//30 37//37 38//38
f 39//39 40//40 31//31
f 32//32 31//31 40//40
f 33//33 30//30 41//41
f 30//30 33//33 22//22
f 23//23 34//34 31//31
f 42//42 31//31 34//34
f 21//21 43//43 29//29
f 43//43 21//21 35//35
f 36//36 24//24 44//44
f 32//32 44//44 24//24
f 27//27 33//33 35//35
f 33//33 27//27 25//25
f 26//26 28//28 34//34
f 36//36 34//34 28//28
f 45//45 38//38 37//37
f 38//38 45//45 46//46
f 47//47 48//48 39//39
f 40//40 39//39 48//48
f 41//41 38//38 49//49
f 38//38 41//41 30//30
f 31//31 42//42 39//39
f 50//50 39//39 42//42
f 29//29 51//51 37//37
f 51//51 29//29 43//43
f 44//44 32//32 52//52
f 40//40 52//52 32//32
f 33//33 43//43 35//35
f 43//43 33//33 41//41
f 42//42 34//34 44//44
f 36//36 44//44 34//34
f 53//53 54//53 55//53
f 54//53 53//53 56//53
f 57//54 58//54 59//54
f 60//54 59//54 58//54
f 49//49 46//46 61//55
f 46//46 49//49 38//38
f 39//39 50//50 47//47
f 62//56 47//47 50//50
f 37//37 63//57 45//45
f 63//57 37//37 51//51
f 52//52 40//40 64//58
f 48//48 64//58 40//40
f 41//41 51//51 43//43
f 51//51 41//41 49//49
f 50//50 42//42 52//52
f 44//44 52//52 42//42
f 65//59 66//59 67//59
f 66//59 65//59 68//59
f 69//60 70//60 71//60
f 72//60 71//60 70//60
f 73//61 74//46 75//45
f 74//46 73//61 76//62
f 77//63 78//64 79//47
f 80//48 79//47 78//64
f 81//60 82//60 83//60
f 82//60 81//60 84//60
f 85//59 86//59 87//59
f 88//59 87//59 86//59
f 49//49 63//57 51//51
f 63//57 49//49 61//55
f 62//56 50//50 64//58
f 52//52 64//58 50//50
f 89//54 90//54 91//54
f 90//54 89//54 92//54
f 93//53 94//53 95//53
f 96//53 95//53 94//53
f 75//45 97//65 73//61
f 97//65 75//45 98//57
f 99//58 80//48 100//66
f 78//64 100//66 80//48
f 101//67 76//62 73//61
f 76//62 101//67 102//68
f 103//69 104//70 77//63
f 78//64 77//63 104//70
f 105//55 76//62 106//71
f 76//62 105//55 74//46
f 79//47 107//56 77//63
f 108//72 77//63 107//56
f 105//55 97//65 98//57
f 97//65 105//55 106//71
f 108//72 107//56 100//66
f 99//58 100//66 107//56
f 73//61 109//73 101//67
f 109//73 73//61 97//65
f 100//66 78//64 110//74
f 104//70 110//74 78//64
f 111//75 102//68 101//67
f 102//68 111//75 112//76
f 113//77 114//78 103//69
f 104//70 103//69 114//78
f 106//71 102//68 115//79
f 102//68 106//71 76//62
f 77//63 108//72 103//69
f 116//80 103//69 108//72
f 106//71 109//73 97//65
f 109//73 106//71 115//79
f 116//80 108//72 110//74
f 100//66 110//74 108//72
f 101//67 117//81 111//75
f 117//81 101//67 109//73
f 110//74 104//70 118//82
f 114//78 118//82 104//70
f 119//83 112//76 111//75
f 112//76 119//83 120//84
f 121//85 122//86 113//77
f 114//78 113//77 122//86
f 115//79 112//76 123//87
f 112//76 115//79 102//68
f 103//69 116//80 113//77
f 124//88 113//77 116//80
f 115//79 117//81 109//73
f 117//81 115//79 123//87
f 124//88 116//80 118//82
f 110//74 118//82 116//80
f 117//81 119//83 111//75
f 119//83 117//81 125//89
f 126//90 118//82 122//86
f 114//78 122//86 118//82
f 127//91 120//84 119//83
f 120//84 127//91 128//92
f 129//93 130//94 121//85
f 122//86 121//85 130//94
f 120//84 123//87 112//76
f 123//87 120//84 131//95
f 132//96 121//85 124//88
f 113//77 124//88 121//85
f 117//81 131//95 125//89
f 131//95 117//81 123//87
f 124//88 118//82 132//96
f 126//90 132//96 118//82
f 125//89 127//91 119//83
f 127//91 125//89 133//97
f 134//98 126//90 130//94
f 122//86 130//94 126//90
f 135//3 128//92 127//91
f 128//92 135//3 136//2
f 137//7 138//8 129//93
f 130//94 129//93 138//8
f 128//92 131//95 120//84
f 131//95 128//92 139//99
f 140//100 129//93 132//96
f 121//85 132//96 129//93
f 125//89 139//99 133//97
f 139//99 125//89 131//95
f 132//96 126//90 140//100
f 134//98 140//100 126//90
f 133//97 135//3 127//91
f 135//3 133//97 141//17
f 142//20 134//98 138//8
f 130//94 138//8 134//98
f 143//101 144//101 145//101
f 144//101 143//101 146//101
f 147//102 148//102 149//102
f 150//102 149//102 148//102
f 136//2 139//99 128//92
f 139//99 136//2 151//13
f 152//16 137//7 140//100
f 129//93 140//100 137//7
f 133//97 151//13 141//17
f 151//13 133//97 139//99
f 140//100 134//98 152//16
f 142//20 152//16 134//98
