# SSTK version 0.8.0
# 89
mtllib original-89.mtl
o #ID660
v -0.650549 0.289405 0.333372
v -0.651081 0.289405 -0.131484
v -0.651081 0.289405 0.326634
v -0.650549 0.289405 -0.138222
v -0.648885 0.289405 -0.145165
v -0.648885 0.289405 0.340316
v -0.646143 0.289405 0.347019
v -0.646143 0.289405 -0.151869
v -0.642371 0.289405 0.353368
v -0.642371 0.289405 -0.158218
v -0.639085 0.289405 0.326308
v -0.637632 0.289405 0.359255
v -0.638630 0.289405 0.332070
v -0.637273 0.289405 0.337733
v -0.632009 0.289405 0.364577
v -0.635037 0.289405 0.343201
v -0.631960 0.289405 0.348380
v -0.625596 0.289405 0.369245
v -0.628095 0.289405 0.353181
v -0.623508 0.289405 0.357522
v -0.618504 0.289405 0.373178
v -0.618278 0.289405 0.361329
v -0.610855 0.289405 0.376309
v -0.612494 0.289405 0.364537
v -0.606254 0.289405 0.367091
v -0.602778 0.289405 0.378584
v -0.599667 0.289405 0.368947
v -0.594413 0.289405 0.379965
v -0.592844 0.289405 0.370073
v -0.586294 0.289405 0.380407
v -0.585902 0.289405 0.370451
v 0.479495 0.289405 0.380407
v 0.479102 0.289405 0.370451
v 0.486044 0.289405 0.370073
v 0.487613 0.289405 0.379965
v 0.492867 0.289405 0.368947
v 0.495978 0.289405 0.378584
v 0.499455 0.289405 0.367091
v 0.504055 0.289405 0.376309
v 0.505694 0.289405 0.364537
v 0.511704 0.289405 0.373178
v 0.511478 0.289405 0.361329
v 0.516709 0.289405 0.357522
v 0.518796 0.289405 0.369245
v 0.521296 0.289405 0.353181
v 0.525209 0.289405 0.364577
v 0.525160 0.289405 0.348380
v 0.528237 0.289405 0.343201
v 0.530833 0.289405 0.359255
v 0.530473 0.289405 0.337733
v 0.531831 0.289405 0.332070
v 0.535571 0.289405 0.353368
v 0.532286 0.289405 0.326308
v 0.532286 0.289405 -0.131158
v -0.639085 0.289405 -0.131158
v -0.637632 0.289405 -0.164104
v -0.638630 0.289405 -0.136920
v -0.637273 0.289405 -0.142583
v -0.632009 0.289405 -0.169426
v -0.635037 0.289405 -0.148050
v -0.631960 0.289405 -0.153229
v -0.625596 0.289405 -0.174094
v -0.628095 0.289405 -0.158030
v -0.623508 0.289405 -0.162371
v -0.618504 0.289405 -0.178027
v -0.618278 0.289405 -0.166178
v -0.610855 0.289405 -0.181158
v -0.612494 0.289405 -0.169386
v -0.606254 0.289405 -0.171940
v -0.602778 0.289405 -0.183434
v -0.599667 0.289405 -0.173796
v -0.594413 0.289405 -0.184815
v -0.592844 0.289405 -0.174923
v -0.586294 0.289405 -0.185257
v -0.585902 0.289405 -0.175300
v 0.479495 0.289405 -0.185257
v 0.479102 0.289405 -0.175300
v 0.486044 0.289405 -0.174923
v 0.487613 0.289405 -0.184815
v 0.492867 0.289405 -0.173796
v 0.495978 0.289405 -0.183434
v 0.499455 0.289405 -0.171940
v 0.504055 0.289405 -0.181158
v 0.505694 0.289405 -0.169386
v 0.511704 0.289405 -0.178027
v 0.511478 0.289405 -0.166178
v 0.516709 0.289405 -0.162371
v 0.518796 0.289405 -0.174094
v 0.521296 0.289405 -0.158030
v 0.525209 0.289405 -0.169426
v 0.525160 0.289405 -0.153229
v 0.528237 0.289405 -0.148050
v 0.530833 0.289405 -0.164104
v 0.530473 0.289405 -0.142583
v 0.531831 0.289405 -0.136920
v 0.535571 0.289405 -0.158218
v 0.539343 0.289405 0.347019
v 0.539343 0.289405 -0.151869
v 0.542085 0.289405 -0.145165
v 0.542085 0.289405 0.340316
v 0.543749 0.289405 0.333372
v 0.543749 0.289405 -0.138222
v 0.544281 0.289405 -0.131484
v 0.544281 0.289405 0.326634
vn 0 1 0
usemtl material_0_0
f 1//1 2//1 3//1
f 2//1 1//1 4//1
f 4//1 1//1 5//1
f 5//1 1//1 6//1
f 5//1 6//1 7//1
f 5//1 7//1 8//1
f 8//1 7//1 9//1
f 8//1 9//1 10//1
f 10//1 9//1 11//1
f 11//1 9//1 12//1
f 11//1 12//1 13//1
f 13//1 12//1 14//1
f 14//1 12//1 15//1
f 14//1 15//1 16//1
f 16//1 15//1 17//1
f 17//1 15//1 18//1
f 17//1 18//1 19//1
f 19//1 18//1 20//1
f 20//1 18//1 21//1
f 20//1 21//1 22//1
f 22//1 21//1 23//1
f 22//1 23//1 24//1
f 24//1 23//1 25//1
f 25//1 23//1 26//1
f 25//1 26//1 27//1
f 27//1 26//1 28//1
f 27//1 28//1 29//1
f 29//1 28//1 30//1
f 29//1 30//1 31//1
f 31//1 30//1 32//1
f 31//1 32//1 33//1
f 33//1 32//1 34//1
f 34//1 32//1 35//1
f 34//1 35//1 36//1
f 36//1 35//1 37//1
f 36//1 37//1 38//1
f 38//1 37//1 39//1
f 38//1 39//1 40//1
f 40//1 39//1 41//1
f 40//1 41//1 42//1
f 42//1 41//1 43//1
f 43//1 41//1 44//1
f 43//1 44//1 45//1
f 45//1 44//1 46//1
f 45//1 46//1 47//1
f 47//1 46//1 48//1
f 48//1 46//1 49//1
f 48//1 49//1 50//1
f 50//1 49//1 51//1
f 51//1 49//1 52//1
f 51//1 52//1 53//1
f 53//1 52//1 54//1
f 10//1 55//1 56//1
f 55//1 10//1 11//1
f 56//1 55//1 57//1
f 56//1 57//1 58//1
f 56//1 58//1 59//1
f 59//1 58//1 60//1
f 59//1 60//1 61//1
f 59//1 61//1 62//1
f 62//1 61//1 63//1
f 62//1 63//1 64//1
f 62//1 64//1 65//1
f 65//1 64//1 66//1
f 65//1 66//1 67//1
f 67//1 66//1 68//1
f 67//1 68//1 69//1
f 67//1 69//1 70//1
f 70//1 69//1 71//1
f 70//1 71//1 72//1
f 72//1 71//1 73//1
f 72//1 73//1 74//1
f 74//1 73//1 75//1
f 74//1 75//1 76//1
f 76//1 75//1 77//1
f 76//1 77//1 78//1
f 76//1 78//1 79//1
f 79//1 78//1 80//1
f 79//1 80//1 81//1
f 81//1 80//1 82//1
f 81//1 82//1 83//1
f 83//1 82//1 84//1
f 83//1 84//1 85//1
f 85//1 84//1 86//1
f 85//1 86//1 87//1
f 85//1 87//1 88//1
f 88//1 87//1 89//1
f 88//1 89//1 90//1
f 90//1 89//1 91//1
f 90//1 91//1 92//1
f 90//1 92//1 93//1
f 93//1 92//1 94//1
f 93//1 94//1 95//1
f 93//1 95//1 96//1
f 96//1 95//1 54//1
f 96//1 54//1 52//1
f 96//1 52//1 97//1
f 96//1 97//1 98//1
f 98//1 97//1 99//1
f 99//1 97//1 100//1
f 99//1 100//1 101//1
f 99//1 101//1 102//1
f 102//1 101//1 103//1
f 103//1 101//1 104//1
