# SSTK version 0.8.0
# 58
mtllib original-58.mtl
o #ID383
v 0.806885 0.124357 -0.039841
v 0.807654 0.135569 -0.039577
v 0.807654 0.124099 -0.039577
v 0.806885 0.135311 -0.039841
v 0.806885 0.135311 -0.039841
v 0.806885 0.124357 -0.039841
v 0.807654 0.135569 -0.039577
v 0.807654 0.124099 -0.039577
v 0.806059 0.124445 -0.039932
v 0.806059 0.135223 -0.039932
v 0.806059 0.135223 -0.039932
v 0.806059 0.124445 -0.039932
v 0.807654 0.135569 -0.199199
v 0.806885 0.135311 -0.198935
v 0.807654 0.135569 -0.199199
v 0.806885 0.135311 -0.198935
v 0.808315 0.135980 -0.039156
v 0.808315 0.123688 -0.039156
v 0.808315 0.135980 -0.039156
v 0.808315 0.123688 -0.039156
v 0.806885 0.124357 -0.198935
v 0.807654 0.124099 -0.199199
v 0.807654 0.124099 -0.199199
v 0.806885 0.124357 -0.198935
v 0.795944 0.135223 -0.039932
v 0.806059 0.124445 -0.039932
v 0.795944 0.124445 -0.039932
v 0.806059 0.135223 -0.039932
v 0.806059 0.135223 -0.039932
v 0.795944 0.135223 -0.039932
v 0.806059 0.124445 -0.039932
v 0.795944 0.124445 -0.039932
v 0.806059 0.135223 -0.198845
v 0.806059 0.135223 -0.198845
v 0.806059 0.124445 -0.198845
v 0.806059 0.124445 -0.198845
v 0.808315 0.135980 -0.199620
v 0.808315 0.135980 -0.199620
v 0.808822 0.136516 -0.038607
v 0.808822 0.123152 -0.038607
v 0.808822 0.136516 -0.038607
v 0.808822 0.123152 -0.038607
v 0.808315 0.123688 -0.199620
v 0.808315 0.123688 -0.199620
v 0.806059 0.124445 -0.039932
v 0.795944 0.124445 -0.198845
v 0.795944 0.124445 -0.039932
v 0.806059 0.124445 -0.198845
v 0.806059 0.124445 -0.198845
v 0.806059 0.124445 -0.039932
v 0.795944 0.124445 -0.198845
v 0.795944 0.124445 -0.039932
v 0.795118 0.124534 -0.040022
v 0.795944 0.135223 -0.039932
v 0.795944 0.124445 -0.039932
v 0.795118 0.135135 -0.040022
v 0.795118 0.135135 -0.040022
v 0.795118 0.124534 -0.040022
v 0.795944 0.135223 -0.039932
v 0.795944 0.124445 -0.039932
v 0.806059 0.135223 -0.198845
v 0.795944 0.135223 -0.039932
v 0.795944 0.135223 -0.198845
v 0.806059 0.135223 -0.039932
v 0.806059 0.135223 -0.039932
v 0.806059 0.135223 -0.198845
v 0.795944 0.135223 -0.039932
v 0.795944 0.135223 -0.198845
v 0.808822 0.136516 -0.200169
v 0.808822 0.136516 -0.200169
v 0.809141 0.137140 -0.037969
v 0.809141 0.122528 -0.037969
v 0.809141 0.137140 -0.037969
v 0.809141 0.122528 -0.037969
v 0.808822 0.123152 -0.200169
v 0.808822 0.123152 -0.200169
v 0.806059 0.135223 -0.198845
v 0.795944 0.124445 -0.198845
v 0.806059 0.124445 -0.198845
v 0.795944 0.135223 -0.198845
v 0.795944 0.135223 -0.198845
v 0.806059 0.135223 -0.198845
v 0.795944 0.124445 -0.198845
v 0.806059 0.124445 -0.198845
v 0.795118 0.124534 -0.198754
v 0.795944 0.124445 -0.198845
v 0.795944 0.124445 -0.198845
v 0.795118 0.124534 -0.198754
v 0.794348 0.124792 -0.040286
v 0.794348 0.134876 -0.040286
v 0.794348 0.134876 -0.040286
v 0.794348 0.124792 -0.040286
v 0.795944 0.135223 -0.198845
v 0.795118 0.135135 -0.198754
v 0.795944 0.135223 -0.198845
v 0.795118 0.135135 -0.198754
v 0.809141 0.137140 -0.200808
v 0.809141 0.137140 -0.200808
v 0.809250 0.137809 -0.037283
v 0.809250 0.121859 -0.037283
v 0.809250 0.137809 -0.037283
v 0.809250 0.121859 -0.037283
v 0.809141 0.122528 -0.200808
v 0.809141 0.122528 -0.200808
v 0.794348 0.124792 -0.198490
v 0.794348 0.124792 -0.198490
v 0.793687 0.125203 -0.040707
v 0.793687 0.134465 -0.040707
v 0.793687 0.134465 -0.040707
v 0.793687 0.125203 -0.040707
v 0.794348 0.134876 -0.198490
v 0.794348 0.134876 -0.198490
v 0.809250 0.137809 -0.201493
v 0.809250 0.137809 -0.201493
v 0.809250 0.121859 -0.201493
v 0.809250 0.121859 -0.201493
v 0.793687 0.125203 -0.198069
v 0.793687 0.125203 -0.198069
v 0.793180 0.125739 -0.041256
v 0.793180 0.133929 -0.041256
v 0.793180 0.133929 -0.041256
v 0.793180 0.125739 -0.041256
v 0.793687 0.134465 -0.198069
v 0.793687 0.134465 -0.198069
v 0.793180 0.125739 -0.197520
v 0.793180 0.125739 -0.197520
v 0.792861 0.126362 -0.041895
v 0.792861 0.133306 -0.041895
v 0.792861 0.133306 -0.041895
v 0.792861 0.126362 -0.041895
v 0.793180 0.133929 -0.197520
v 0.793180 0.133929 -0.197520
v 0.792861 0.126362 -0.196881
v 0.792861 0.126362 -0.196881
v 0.792753 0.127032 -0.042580
v 0.792753 0.132636 -0.042580
v 0.792753 0.132636 -0.042580
v 0.792753 0.127032 -0.042580
v 0.792861 0.133306 -0.196881
v 0.792861 0.133306 -0.196881
v 0.792753 0.127032 -0.196196
v 0.792753 0.127032 -0.196196
v 0.792753 0.127032 -0.196196
v 0.792753 0.132636 -0.042580
v 0.792753 0.127032 -0.042580
v 0.792753 0.132636 -0.196196
v 0.792753 0.132636 -0.196196
v 0.792753 0.127032 -0.196196
v 0.792753 0.132636 -0.042580
v 0.792753 0.127032 -0.042580
v 0.792753 0.132636 -0.196196
v 0.792753 0.132636 -0.196196
vn 0.31756287986023884 0.6783948373658164 -0.6625211407723371
vn 0.5878743504140147 -0.5787465659446914 -0.5652045298230784
vn 0.5878743504140147 0.5787465659446918 -0.5652045298230781
vn 0.31756287986023884 -0.6783948373658161 -0.6625211407723375
vn -0.31756287986023884 0.6783948373658161 0.6625211407723375
vn -0.31756287986023884 -0.6783948373658164 0.6625211407723371
vn -0.5878743504140147 0.5787465659446914 0.5652045298230784
vn -0.5878743504140147 -0.5787465659446918 0.5652045298230781
vn 0.15094381106654983 0.7072302284221732 -0.6906818152424649
vn 0.15094381106654983 -0.707230228422173 -0.6906818152424651
vn -0.15094381106654983 0.707230228422173 0.6906818152424651
vn -0.15094381106654983 -0.7072302284221732 0.6906818152424649
vn 0.5878743504140147 -0.5787465659446918 0.5652045298230781
vn 0.31756287986023884 -0.6783948373658164 0.6625211407723371
vn -0.5878743504140147 0.5787465659446918 -0.5652045298230781
vn -0.31756287986023884 0.6783948373658164 -0.6625211407723371
vn 0.7879219729214686 -0.4405423419539725 -0.43023413338930894
vn 0.7879219729214685 0.4405423419539726 -0.4302341333893087
vn -0.7879219729214686 0.4405423419539725 0.43023413338930894
vn -0.7879219729214685 -0.4405423419539726 0.4302341333893087
vn 0.31756287986023884 0.6783948373658161 0.6625211407723375
vn 0.5878743504140147 0.5787465659446914 0.5652045298230784
vn -0.5878743504140147 -0.5787465659446914 -0.5652045298230784
vn -0.31756287986023884 -0.6783948373658161 -0.6625211407723375
vn 0 0 -1
vn 0 0 1
vn 0.15094381106654983 -0.7072302284221732 0.6906818152424649
vn -0.15094381106654983 0.7072302284221732 -0.6906818152424649
vn 0.15094381106654983 0.707230228422173 0.6906818152424651
vn -0.15094381106654983 -0.707230228422173 -0.6906818152424651
vn 0.7879219729214685 -0.4405423419539726 0.4302341333893087
vn -0.7879219729214685 0.4405423419539726 -0.4302341333893087
vn 0.9175654547735249 -0.2844430061397386 -0.2777873511599168
vn 0.9175654547735249 0.2844430061397387 -0.2777873511599167
vn -0.9175654547735249 0.2844430061397386 0.2777873511599168
vn -0.9175654547735249 -0.2844430061397387 0.2777873511599167
vn 0.7879219729214686 0.4405423419539725 0.43023413338930894
vn -0.7879219729214686 -0.4405423419539725 -0.43023413338930894
vn 0 1 0
vn 0 -1 0
vn 0.2723466763673985 0.6883836180545798 -0.672276194927143
vn 0.2723466763673985 -0.6883836180545795 -0.6722761949271432
vn -0.2723466763673985 0.6883836180545795 0.6722761949271432
vn -0.2723466763673985 -0.6883836180545798 0.672276194927143
vn 0.9175654547735249 -0.2844430061397387 0.2777873511599167
vn -0.9175654547735249 0.2844430061397387 -0.2777873511599167
vn 0.9852762437173928 -0.12231657756960938 -0.11945450354759603
vn 0.9852762437173928 0.12231657756960942 -0.11945450354759599
vn -0.9852762437173928 0.12231657756960938 0.11945450354759603
vn -0.9852762437173928 -0.12231657756960942 0.11945450354759599
vn 0.9175654547735249 0.2844430061397386 0.2777873511599168
vn -0.9175654547735249 -0.2844430061397386 -0.2777873511599168
vn 0.2723466763673985 0.6883836180545795 0.6722761949271432
vn -0.2723466763673985 -0.6883836180545795 -0.6722761949271432
vn 0.5197087898260173 0.6112206875552334 -0.5969187925355375
vn 0.5197087898260173 -0.6112206875552332 -0.5969187925355378
vn -0.5197087898260173 0.6112206875552332 0.5969187925355378
vn -0.5197087898260173 -0.6112206875552334 0.5969187925355375
vn 0.2723466763673985 -0.6883836180545798 0.672276194927143
vn -0.2723466763673985 0.6883836180545798 -0.672276194927143
vn 0.9852762437173928 -0.12231657756960942 0.11945450354759599
vn -0.9852762437173928 0.12231657756960942 -0.11945450354759599
vn 0.9936192124182132 -0.08069075642480476 -0.07880268105212183
vn 0.9936192124182132 0.0806907564248048 -0.07880268105212179
vn -0.9936192124182132 0.08069075642480476 0.07880268105212183
vn -0.9936192124182132 -0.0806907564248048 0.07880268105212179
vn 0.9852762437173928 0.12231657756960938 0.11945450354759603
vn -0.9852762437173928 -0.12231657756960938 -0.11945450354759603
vn 0.5197087898260173 0.6112206875552332 0.5969187925355378
vn -0.5197087898260173 -0.6112206875552332 -0.5969187925355378
vn 0.721772283520321 0.4951691619288221 -0.4835827455736708
vn 0.721772283520321 -0.49516916192882193 -0.483582745573671
vn -0.721772283520321 0.49516916192882193 0.483582745573671
vn -0.721772283520321 -0.4951691619288221 0.4835827455736708
vn 0.5197087898260173 -0.6112206875552334 0.5969187925355375
vn -0.5197087898260173 0.6112206875552334 -0.5969187925355375
vn 0.9936192124182132 -0.0806907564248048 0.07880268105212179
vn -0.9936192124182132 0.0806907564248048 -0.07880268105212179
vn 0.9936192124182132 0.08069075642480476 0.07880268105212183
vn -0.9936192124182132 -0.08069075642480476 -0.07880268105212183
vn 0.721772283520321 0.49516916192882193 0.483582745573671
vn -0.721772283520321 -0.49516916192882193 -0.483582745573671
vn 0.868683071260537 0.3544000072419881 -0.34610743501438934
vn 0.868683071260537 -0.35440000724198795 -0.3461074350143895
vn -0.868683071260537 0.35440000724198795 0.3461074350143895
vn -0.868683071260537 -0.3544000072419881 0.34610743501438934
vn 0.721772283520321 -0.4951691619288221 0.4835827455736708
vn -0.721772283520321 0.4951691619288221 -0.4835827455736708
vn 0.868683071260537 0.35440000724198795 0.3461074350143895
vn -0.868683071260537 -0.35440000724198795 -0.3461074350143895
vn 0.9599435624634838 0.20045804109780124 -0.19576754236631722
vn 0.9599435624634838 -0.20045804109780116 -0.1957675423663173
vn -0.9599435624634838 0.20045804109780116 0.1957675423663173
vn -0.9599435624634838 -0.20045804109780124 0.19576754236631722
vn 0.868683071260537 -0.3544000072419881 0.34610743501438934
vn -0.868683071260537 0.3544000072419881 -0.34610743501438934
vn 0.9599435624634838 0.20045804109780116 0.1957675423663173
vn -0.9599435624634838 -0.20045804109780116 -0.1957675423663173
vn 0.9599435624634838 -0.20045804109780124 0.19576754236631722
vn -0.9599435624634838 0.20045804109780124 -0.19576754236631722
vn 1 0 0
vn -1 0 0
usemtl material_0_0
f 1//1 2//2 3//3
f 2//2 1//1 4//4
f 5//5 6//6 7//7
f 8//8 7//7 6//6
f 9//9 4//4 1//1
f 4//4 9//9 10//10
f 11//11 12//12 5//5
f 6//6 5//5 12//12
f 13//13 4//4 14//14
f 4//4 13//13 2//2
f 7//7 15//15 5//5
f 16//16 5//5 15//15
f 3//3 17//17 18//18
f 17//17 3//3 2//2
f 7//7 8//8 19//19
f 20//20 19//19 8//8
f 3//3 21//21 1//1
f 21//21 3//3 22//22
f 23//23 8//8 24//24
f 6//6 24//24 8//8
f 25//25 26//25 27//25
f 26//25 25//25 28//25
f 29//26 30//26 31//26
f 32//26 31//26 30//26
f 14//14 10//10 33//27
f 10//10 14//14 4//4
f 5//5 16//16 11//11
f 34//28 11//11 16//16
f 1//1 35//29 9//9
f 35//29 1//1 21//21
f 24//24 6//6 36//30
f 12//12 36//30 6//6
f 13//13 21//21 22//22
f 21//21 13//13 14//14
f 16//16 15//15 24//24
f 23//23 24//24 15//15
f 37//31 2//2 13//13
f 2//2 37//31 17//17
f 19//19 38//32 7//7
f 15//15 7//7 38//32
f 18//18 39//33 40//34
f 39//33 18//18 17//17
f 19//19 20//20 41//35
f 42//36 41//35 20//20
f 18//18 22//22 3//3
f 22//22 18//18 43//37
f 44//38 20//20 23//23
f 8//8 23//23 20//20
f 45//39 46//39 47//39
f 46//39 45//39 48//39
f 49//40 50//40 51//40
f 52//40 51//40 50//40
f 53//41 54//10 55//9
f 54//10 53//41 56//42
f 57//43 58//44 59//11
f 60//12 59//11 58//44
f 61//40 62//40 63//40
f 62//40 61//40 64//40
f 65//39 66//39 67//39
f 68//39 67//39 66//39
f 14//14 35//29 21//21
f 35//29 14//14 33//27
f 34//28 16//16 36//30
f 24//24 36//30 16//16
f 37//31 22//22 43//37
f 22//22 37//31 13//13
f 15//15 38//32 23//23
f 44//38 23//23 38//32
f 17//17 69//45 39//33
f 69//45 17//17 37//31
f 38//32 19//19 70//46
f 41//35 70//46 19//19
f 40//34 71//47 72//48
f 71//47 40//34 39//33
f 41//35 42//36 73//49
f 74//50 73//49 42//36
f 75//51 18//18 40//34
f 18//18 75//51 43//37
f 44//38 76//52 20//20
f 42//36 20//20 76//52
f 77//26 78//26 79//26
f 78//26 77//26 80//26
f 81//25 82//25 83//25
f 84//25 83//25 82//25
f 55//9 85//53 53//41
f 85//53 55//9 86//29
f 87//30 60//12 88//54
f 58//44 88//54 60//12
f 89//55 56//42 53//41
f 56//42 89//55 90//56
f 91//57 92//58 57//43
f 58//44 57//43 92//58
f 93//27 56//42 94//59
f 56//42 93//27 54//10
f 59//11 95//28 57//43
f 96//60 57//43 95//28
f 75//51 37//31 43//37
f 37//31 75//51 69//45
f 70//46 76//52 38//32
f 44//38 38//32 76//52
f 39//33 97//61 71//47
f 97//61 39//33 69//45
f 70//46 41//35 98//62
f 73//49 98//62 41//35
f 72//48 99//63 100//64
f 99//63 72//48 71//47
f 73//49 74//50 101//65
f 102//66 101//65 74//50
f 103//67 40//34 72//48
f 40//34 103//67 75//51
f 76//52 104//68 42//36
f 74//50 42//36 104//68
f 93//27 85//53 86//29
f 85//53 93//27 94//59
f 96//60 95//28 88//54
f 87//30 88//54 95//28
f 53//41 105//69 89//55
f 105//69 53//41 85//53
f 88//54 58//44 106//70
f 92//58 106//70 58//44
f 107//71 90//56 89//55
f 90//56 107//71 108//72
f 109//73 110//74 91//57
f 92//58 91//57 110//74
f 94//59 90//56 111//75
f 90//56 94//59 56//42
f 57//43 96//60 91//57
f 112//76 91//57 96//60
f 103//67 69//45 75//51
f 69//45 103//67 97//61
f 98//62 104//68 70//46
f 76//52 70//46 104//68
f 71//47 113//77 99//63
f 113//77 71//47 97//61
f 98//62 73//49 114//78
f 101//65 114//78 73//49
f 115//79 72//48 100//64
f 72//48 115//79 103//67
f 104//68 116//80 74//50
f 102//66 74//50 116//80
f 94//59 105//69 85//53
f 105//69 94//59 111//75
f 112//76 96//60 106//70
f 88//54 106//70 96//60
f 89//55 117//81 107//71
f 117//81 89//55 105//69
f 106//70 92//58 118//82
f 110//74 118//82 92//58
f 119//83 108//72 107//71
f 108//72 119//83 120//84
f 121//85 122//86 109//73
f 110//74 109//73 122//86
f 111//75 108//72 123//87
f 108//72 111//75 90//56
f 91//57 112//76 109//73
f 124//88 109//73 112//76
f 115//79 97//61 103//67
f 97//61 115//79 113//77
f 114//78 116//80 98//62
f 104//68 98//62 116//80
f 111//75 117//81 105//69
f 117//81 111//75 123//87
f 124//88 112//76 118//82
f 106//70 118//82 112//76
f 117//81 119//83 107//71
f 119//83 117//81 125//89
f 126//90 118//82 122//86
f 110//74 122//86 118//82
f 127//91 120//84 119//83
f 120//84 127//91 128//92
f 129//93 130//94 121//85
f 122//86 121//85 130//94
f 120//84 123//87 108//72
f 123//87 120//84 131//95
f 132//96 121//85 124//88
f 109//73 124//88 121//85
f 117//81 131//95 125//89
f 131//95 117//81 123//87
f 124//88 118//82 132//96
f 126//90 132//96 118//82
f 125//89 127//91 119//83
f 127//91 125//89 133//97
f 134//98 126//90 130//94
f 122//86 130//94 126//90
f 135//64 128//92 127//91
f 128//92 135//64 136//63
f 137//65 138//66 129//93
f 130//94 129//93 138//66
f 128//92 131//95 120//84
f 131//95 128//92 139//99
f 140//100 129//93 132//96
f 121//85 132//96 129//93
f 125//89 139//99 133//97
f 139//99 125//89 131//95
f 132//96 126//90 140//100
f 134//98 140//100 126//90
f 133//97 135//64 127//91
f 135//64 133//97 141//79
f 142//80 134//98 138//66
f 130//94 138//66 134//98
f 143//101 144//101 145//101
f 144//101 143//101 146//101
f 147//102 148//102 149//102
f 150//102 149//102 148//102
f 136//63 139//99 128//92
f 139//99 136//63 151//77
f 152//78 137//65 140//100
f 129//93 140//100 137//65
f 133//97 151//77 141//79
f 151//77 133//97 139//99
f 140//100 134//98 152//78
f 142//80 152//78 134//98
