# SSTK version 0.8.0
# 96
mtllib original-96.mtl
o #ID702
v 0.037641 0.116775 0.522257
v 0.030800 0.092593 0.522257
v 0.030800 0.116775 0.522257
v 0.033405 0.079162 0.522257
v 0.034819 0.080760 0.522257
v 0.035878 0.082532 0.522257
v 0.037200 0.086898 0.522257
v 0.037641 0.092565 0.522257
v 0.003823 0.116775 0.522257
v -0.003018 0.092565 0.522257
v -0.003018 0.116775 0.522257
v -0.002524 0.086609 0.522257
v -0.001043 0.082060 0.522257
v 0.000109 0.080251 0.522257
v 0.001593 0.078669 0.522257
v 0.003407 0.077314 0.522257
v 0.003823 0.092593 0.522257
v 0.004136 0.087852 0.522257
v 0.005551 0.076186 0.522257
v 0.005075 0.084547 0.522257
v 0.006776 0.082257 0.522257
v 0.008026 0.075298 0.522257
v 0.009377 0.080559 0.522257
v 0.010832 0.074664 0.522257
v 0.012767 0.079509 0.522257
v 0.017435 0.074157 0.522257
v 0.016835 0.079159 0.522257
v 0.020338 0.079332 0.522257
v 0.020993 0.074302 0.522257
v 0.023298 0.079852 0.522257
v 0.024192 0.074739 0.522257
v 0.025715 0.080718 0.522257
v 0.027032 0.075467 0.522257
v 0.027591 0.081931 0.522257
v 0.029513 0.076486 0.522257
v 0.028995 0.083638 0.522257
v 0.029998 0.085983 0.522257
v 0.030599 0.088968 0.522257
v 0.030800 0.092593 0.522257
v 0.030599 0.088968 0.522257
v 0.033405 0.079162 0.522257
v 0.029998 0.085983 0.522257
v 0.029513 0.076486 0.522257
v 0.028995 0.083638 0.522257
v 0.027591 0.081931 0.522257
v 0.027032 0.075467 0.522257
v 0.025715 0.080718 0.522257
v 0.024192 0.074739 0.522257
v 0.023298 0.079852 0.522257
v 0.020993 0.074302 0.522257
v 0.020338 0.079332 0.522257
v 0.017435 0.074157 0.522257
v 0.016835 0.079159 0.522257
v 0.012767 0.079509 0.522257
v 0.010832 0.074664 0.522257
v 0.009377 0.080559 0.522257
v 0.008026 0.075298 0.522257
v 0.006776 0.082257 0.522257
v 0.005551 0.076186 0.522257
v 0.005075 0.084547 0.522257
v 0.004136 0.087852 0.522257
v 0.003407 0.077314 0.522257
v 0.003823 0.092593 0.522257
v 0.003823 0.116775 0.522257
v 0.001593 0.078669 0.522257
v 0.000109 0.080251 0.522257
v -0.001043 0.082060 0.522257
v -0.002524 0.086609 0.522257
v -0.003018 0.092565 0.522257
v -0.003018 0.116775 0.522257
v 0.037641 0.092565 0.522257
v 0.037641 0.116775 0.522257
v 0.037200 0.086898 0.522257
v 0.035878 0.082532 0.522257
v 0.034819 0.080760 0.522257
v 0.030800 0.116775 0.522257
v 0.030800 0.116775 0.524632
v 0.037641 0.116775 0.522257
v 0.030800 0.116775 0.522257
v 0.037641 0.116775 0.524632
v 0.037641 0.116775 0.524632
v 0.030800 0.116775 0.524632
v 0.037641 0.116775 0.522257
v 0.030800 0.116775 0.522257
v 0.037641 0.116775 0.522257
v 0.037641 0.092565 0.524632
v 0.037641 0.092565 0.522257
v 0.037641 0.116775 0.524632
v 0.037641 0.116775 0.524632
v 0.037641 0.116775 0.522257
v 0.037641 0.092565 0.524632
v 0.037641 0.092565 0.522257
v 0.037200 0.086898 0.524632
v 0.037200 0.086898 0.522257
v 0.037200 0.086898 0.524632
v 0.037200 0.086898 0.522257
v 0.035878 0.082532 0.524632
v 0.035878 0.082532 0.522257
v 0.035878 0.082532 0.524632
v 0.035878 0.082532 0.522257
v 0.034819 0.080760 0.524632
v 0.034819 0.080760 0.522257
v 0.034819 0.080760 0.524632
v 0.034819 0.080760 0.522257
v 0.033405 0.079162 0.524632
v 0.033405 0.079162 0.522257
v 0.033405 0.079162 0.524632
v 0.033405 0.079162 0.522257
v 0.029513 0.076486 0.522257
v 0.029513 0.076486 0.524632
v 0.029513 0.076486 0.524632
v 0.029513 0.076486 0.522257
v 0.027032 0.075467 0.522257
v 0.027032 0.075467 0.524632
v 0.027032 0.075467 0.524632
v 0.027032 0.075467 0.522257
v 0.024192 0.074739 0.522257
v 0.024192 0.074739 0.524632
v 0.024192 0.074739 0.524632
v 0.024192 0.074739 0.522257
v 0.020993 0.074302 0.522257
v 0.020993 0.074302 0.524632
v 0.020993 0.074302 0.524632
v 0.020993 0.074302 0.522257
v 0.017435 0.074157 0.522257
v 0.017435 0.074157 0.524632
v 0.017435 0.074157 0.524632
v 0.017435 0.074157 0.522257
v 0.010832 0.074664 0.522257
v 0.010832 0.074664 0.524632
v 0.010832 0.074664 0.524632
v 0.010832 0.074664 0.522257
v 0.008026 0.075298 0.522257
v 0.008026 0.075298 0.524632
v 0.008026 0.075298 0.524632
v 0.008026 0.075298 0.522257
v 0.005551 0.076186 0.522257
v 0.005551 0.076186 0.524632
v 0.005551 0.076186 0.524632
v 0.005551 0.076186 0.522257
v 0.003407 0.077314 0.522257
v 0.003407 0.077314 0.524632
v 0.003407 0.077314 0.524632
v 0.003407 0.077314 0.522257
v 0.001593 0.078669 0.522257
v 0.001593 0.078669 0.524632
v 0.001593 0.078669 0.524632
v 0.001593 0.078669 0.522257
v 0.000109 0.080251 0.524632
v 0.000109 0.080251 0.522257
v 0.000109 0.080251 0.522257
v 0.000109 0.080251 0.524632
v -0.001043 0.082060 0.524632
v -0.001043 0.082060 0.522257
v -0.001043 0.082060 0.522257
v -0.001043 0.082060 0.524632
v -0.002524 0.086609 0.524632
v -0.002524 0.086609 0.522257
v -0.002524 0.086609 0.522257
v -0.002524 0.086609 0.524632
v -0.003018 0.092565 0.524632
v -0.003018 0.092565 0.522257
v -0.003018 0.092565 0.522257
v -0.003018 0.092565 0.524632
v -0.003018 0.116775 0.524632
v -0.003018 0.116775 0.522257
v -0.003018 0.116775 0.522257
v -0.003018 0.116775 0.524632
v -0.003018 0.116775 0.524632
v 0.003823 0.116775 0.522257
v -0.003018 0.116775 0.522257
v 0.003823 0.116775 0.524632
v 0.003823 0.116775 0.524632
v -0.003018 0.116775 0.524632
v 0.003823 0.116775 0.522257
v -0.003018 0.116775 0.522257
v 0.003823 0.116775 0.522257
v 0.003823 0.092593 0.524632
v 0.003823 0.092593 0.522257
v 0.003823 0.116775 0.524632
v 0.003823 0.116775 0.524632
v 0.003823 0.116775 0.522257
v 0.003823 0.092593 0.524632
v 0.003823 0.092593 0.522257
v 0.004136 0.087852 0.524632
v 0.004136 0.087852 0.522257
v 0.004136 0.087852 0.524632
v 0.004136 0.087852 0.522257
v 0.005075 0.084547 0.524632
v 0.005075 0.084547 0.522257
v 0.005075 0.084547 0.524632
v 0.005075 0.084547 0.522257
v 0.006776 0.082257 0.524632
v 0.006776 0.082257 0.522257
v 0.006776 0.082257 0.524632
v 0.006776 0.082257 0.522257
v 0.009377 0.080559 0.522257
v 0.009377 0.080559 0.524632
v 0.009377 0.080559 0.524632
v 0.009377 0.080559 0.522257
v 0.012767 0.079509 0.522257
v 0.012767 0.079509 0.524632
v 0.012767 0.079509 0.524632
v 0.012767 0.079509 0.522257
v 0.016835 0.079159 0.522257
v 0.016835 0.079159 0.524632
v 0.016835 0.079159 0.524632
v 0.016835 0.079159 0.522257
v 0.020338 0.079332 0.522257
v 0.020338 0.079332 0.524632
v 0.020338 0.079332 0.524632
v 0.020338 0.079332 0.522257
v 0.023298 0.079852 0.522257
v 0.023298 0.079852 0.524632
v 0.023298 0.079852 0.524632
v 0.023298 0.079852 0.522257
v 0.025715 0.080718 0.522257
v 0.025715 0.080718 0.524632
v 0.025715 0.080718 0.524632
v 0.025715 0.080718 0.522257
v 0.027591 0.081931 0.522257
v 0.027591 0.081931 0.524632
v 0.027591 0.081931 0.524632
v 0.027591 0.081931 0.522257
v 0.028995 0.083638 0.524632
v 0.028995 0.083638 0.522257
v 0.028995 0.083638 0.522257
v 0.028995 0.083638 0.524632
v 0.029998 0.085983 0.524632
v 0.029998 0.085983 0.522257
v 0.029998 0.085983 0.522257
v 0.029998 0.085983 0.524632
v 0.030599 0.088968 0.524632
v 0.030599 0.088968 0.522257
v 0.030599 0.088968 0.522257
v 0.030599 0.088968 0.524632
v 0.030800 0.092593 0.524632
v 0.030800 0.092593 0.522257
v 0.030800 0.092593 0.522257
v 0.030800 0.092593 0.524632
v 0.030800 0.116775 0.524632
v 0.030800 0.116775 0.522257
v 0.030800 0.116775 0.522257
v 0.030800 0.116775 0.524632
v 0.003407 0.077314 0.524632
v 0.004136 0.087852 0.524632
v 0.003823 0.092593 0.524632
v 0.005551 0.076186 0.524632
v 0.005075 0.084547 0.524632
v 0.006776 0.082257 0.524632
v 0.008026 0.075298 0.524632
v 0.009377 0.080559 0.524632
v 0.010832 0.074664 0.524632
v 0.012767 0.079509 0.524632
v 0.017435 0.074157 0.524632
v 0.016835 0.079159 0.524632
v 0.020338 0.079332 0.524632
v 0.020993 0.074302 0.524632
v 0.023298 0.079852 0.524632
v 0.024192 0.074739 0.524632
v 0.025715 0.080718 0.524632
v 0.027032 0.075467 0.524632
v 0.027591 0.081931 0.524632
v 0.029513 0.076486 0.524632
v 0.028995 0.083638 0.524632
v 0.029998 0.085983 0.524632
v 0.033405 0.079162 0.524632
v 0.030599 0.088968 0.524632
v 0.030800 0.092593 0.524632
v 0.030800 0.116775 0.524632
v 0.037641 0.116775 0.524632
v 0.034819 0.080760 0.524632
v 0.035878 0.082532 0.524632
v 0.037200 0.086898 0.524632
v 0.037641 0.092565 0.524632
v -0.002524 0.086609 0.524632
v -0.003018 0.116775 0.524632
v -0.003018 0.092565 0.524632
v 0.003823 0.116775 0.524632
v -0.001043 0.082060 0.524632
v 0.000109 0.080251 0.524632
v 0.001593 0.078669 0.524632
v 0.003823 0.092593 0.524632
v 0.003407 0.077314 0.524632
v 0.003823 0.116775 0.524632
v 0.001593 0.078669 0.524632
v 0.000109 0.080251 0.524632
v -0.001043 0.082060 0.524632
v -0.002524 0.086609 0.524632
v -0.003018 0.116775 0.524632
v -0.003018 0.092565 0.524632
v 0.037641 0.092565 0.524632
v 0.037200 0.086898 0.524632
v 0.037641 0.116775 0.524632
v 0.035878 0.082532 0.524632
v 0.034819 0.080760 0.524632
v 0.033405 0.079162 0.524632
v 0.030800 0.116775 0.524632
v 0.030800 0.092593 0.524632
v 0.030599 0.088968 0.524632
v 0.029998 0.085983 0.524632
v 0.029513 0.076486 0.524632
v 0.028995 0.083638 0.524632
v 0.027591 0.081931 0.524632
v 0.027032 0.075467 0.524632
v 0.025715 0.080718 0.524632
v 0.024192 0.074739 0.524632
v 0.023298 0.079852 0.524632
v 0.020993 0.074302 0.524632
v 0.020338 0.079332 0.524632
v 0.017435 0.074157 0.524632
v 0.016835 0.079159 0.524632
v 0.012767 0.079509 0.524632
v 0.010832 0.074664 0.524632
v 0.009377 0.080559 0.524632
v 0.008026 0.075298 0.524632
v 0.006776 0.082257 0.524632
v 0.005551 0.076186 0.524632
v 0.005075 0.084547 0.524632
v 0.004136 0.087852 0.524632
vn 0 0 -1
vn 0 0 1
vn 0 1 0
vn 0 -1 0
vn 1 0 0
vn 0.9992460204581192 -0.03882512844295654 0
vn -1 0 0
vn -0.9992460204581192 0.03882512844295654 0
vn 0.9826413510585944 -0.1855154311364427 0
vn -0.9826413510585944 0.1855154311364427 0
vn 0.9137077934052558 -0.4063718349867503 0
vn -0.9137077934052558 0.4063718349867503 0
vn 0.80614866696382 -0.5917130442642411 0
vn -0.80614866696382 0.5917130442642411 0
vn 0.6603449841401267 -0.7509623838255655 0
vn -0.6603449841401267 0.7509623838255655 0
vn 0.4740603307425965 -0.8804923638602551 0
vn -0.4740603307425965 0.8804923638602551 0
vn 0.3142654530356824 -0.949335148948082 0
vn -0.3142654530356824 0.949335148948082 0
vn 0.19180870303774566 -0.9814323315639127 0
vn -0.19180870303774566 0.9814323315639127 0
vn 0.08808088020120693 -0.9961133261547004 0
vn -0.08808088020120693 0.9961133261547004 0
vn -0.017862546197946368 -0.9998404519938799 0
vn 0.017862546197946368 0.9998404519938799 0
vn -0.14854486195958921 -0.9889056699126598 0
vn 0.14854486195958921 0.9889056699126598 0
vn -0.2791135937787571 -0.9602580912275134 0
vn 0.2791135937787571 0.9602580912275134 0
vn -0.4018175918183484 -0.9157197294507219 0
vn 0.4018175918183484 0.9157197294507219 0
vn -0.532616840851751 -0.8463564856732063 0
vn 0.532616840851751 0.8463564856732063 0
vn -0.6653544838144796 -0.7465275687260098 0
vn 0.6653544838144796 0.7465275687260098 0
vn -0.7888042416477018 -0.6146445056767319 0
vn 0.7888042416477018 0.6146445056767319 0
vn -0.9033292268403386 -0.4289479081847076 0
vn 0.9033292268403386 0.4289479081847076 0
vn -0.980135497207233 -0.19832903749660583 0
vn 0.980135497207233 0.19832903749660583 0
vn -0.9991442481298042 -0.04136147276304846 0
vn 0.9991442481298042 0.04136147276304846 0
vn 0.9994566005206067 0.032962155205514626 0
vn -0.9994566005206067 -0.032962155205514626 0
vn 0.9852448660168887 0.17115067626907862 0
vn -0.9852448660168887 -0.17115067626907862 0
vn 0.89488078855477 0.4463052478692056 0
vn -0.89488078855477 -0.4463052478692056 0
vn 0.6805719474029122 0.7326812570335124 0
vn -0.6805719474029122 -0.7326812570335124 0
vn 0.42218319468015764 0.9065105350351181 0
vn -0.42218319468015764 -0.9065105350351181 0
vn 0.19090122728725517 0.9816092508835783 0
vn -0.19090122728725517 -0.9816092508835783 0
vn 0.01816114232864901 0.9998350728541776 0
vn -0.01816114232864901 -0.9998350728541776 0
vn -0.11119976016225969 0.9937980747314092 0
vn 0.11119976016225969 -0.9937980747314092 0
vn -0.2552305651777462 0.9668802193648642 0
vn 0.2552305651777462 -0.9668802193648642 0
vn -0.44092666506761613 0.8975431332433838 0
vn 0.44092666506761613 -0.8975431332433838 0
vn -0.6617948327448958 0.7496850000848058 0
vn 0.6617948327448958 -0.7496850000848058 0
vn -0.8527036040758024 0.5223950263891657 0
vn 0.8527036040758024 -0.5223950263891657 0
vn -0.9545952615136127 0.29790583528316 0
vn 0.9545952615136127 -0.29790583528316 0
vn -0.9919076404478295 0.12696154071694085 0
vn 0.9919076404478295 -0.12696154071694085 0
vn -0.9996179213493988 0.027640754640696468 0
vn 0.9996179213493988 -0.027640754640696468 0
usemtl material_0_0
f 1//1 2//1 3//1
f 2//1 1//1 4//1
f 4//1 1//1 5//1
f 5//1 1//1 6//1
f 6//1 1//1 7//1
f 7//1 1//1 8//1
f 9//1 10//1 11//1
f 10//1 9//1 12//1
f 12//1 9//1 13//1
f 13//1 9//1 14//1
f 14//1 9//1 15//1
f 15//1 9//1 16//1
f 16//1 9//1 17//1
f 16//1 17//1 18//1
f 16//1 18//1 19//1
f 19//1 18//1 20//1
f 19//1 20//1 21//1
f 19//1 21//1 22//1
f 22//1 21//1 23//1
f 22//1 23//1 24//1
f 24//1 23//1 25//1
f 24//1 25//1 26//1
f 26//1 25//1 27//1
f 26//1 27//1 28//1
f 26//1 28//1 29//1
f 29//1 28//1 30//1
f 29//1 30//1 31//1
f 31//1 30//1 32//1
f 31//1 32//1 33//1
f 33//1 32//1 34//1
f 33//1 34//1 35//1
f 35//1 34//1 36//1
f 35//1 36//1 37//1
f 35//1 37//1 4//1
f 4//1 37//1 38//1
f 4//1 38//1 2//1
f 39//2 40//2 41//2
f 40//2 42//2 41//2
f 41//2 42//2 43//2
f 42//2 44//2 43//2
f 44//2 45//2 43//2
f 43//2 45//2 46//2
f 45//2 47//2 46//2
f 46//2 47//2 48//2
f 47//2 49//2 48//2
f 48//2 49//2 50//2
f 49//2 51//2 50//2
f 50//2 51//2 52//2
f 51//2 53//2 52//2
f 53//2 54//2 52//2
f 52//2 54//2 55//2
f 54//2 56//2 55//2
f 55//2 56//2 57//2
f 56//2 58//2 57//2
f 57//2 58//2 59//2
f 58//2 60//2 59//2
f 60//2 61//2 59//2
f 59//2 61//2 62//2
f 61//2 63//2 62//2
f 63//2 64//2 62//2
f 62//2 64//2 65//2
f 65//2 64//2 66//2
f 66//2 64//2 67//2
f 67//2 64//2 68//2
f 68//2 64//2 69//2
f 70//2 69//2 64//2
f 71//2 72//2 73//2
f 73//2 72//2 74//2
f 74//2 72//2 75//2
f 75//2 72//2 41//2
f 41//2 72//2 39//2
f 76//2 39//2 72//2
f 77//3 78//3 79//3
f 78//3 77//3 80//3
f 81//4 82//4 83//4
f 84//4 83//4 82//4
f 85//5 86//6 87//6
f 86//6 85//5 88//5
f 89//7 90//7 91//8
f 92//8 91//8 90//7
f 87//6 93//9 94//9
f 93//9 87//6 86//6
f 91//8 92//8 95//10
f 96//10 95//10 92//8
f 94//9 97//11 98//11
f 97//11 94//9 93//9
f 95//10 96//10 99//12
f 100//12 99//12 96//10
f 98//11 101//13 102//13
f 101//13 98//11 97//11
f 99//12 100//12 103//14
f 104//14 103//14 100//12
f 102//13 105//15 106//15
f 105//15 102//13 101//13
f 103//14 104//14 107//16
f 108//16 107//16 104//14
f 105//15 109//17 106//15
f 109//17 105//15 110//17
f 111//18 107//16 112//18
f 108//16 112//18 107//16
f 110//17 113//19 109//17
f 113//19 110//17 114//19
f 115//20 111//18 116//20
f 112//18 116//20 111//18
f 114//19 117//21 113//19
f 117//21 114//19 118//21
f 119//22 115//20 120//22
f 116//20 120//22 115//20
f 118//21 121//23 117//21
f 121//23 118//21 122//23
f 123//24 119//22 124//24
f 120//22 124//24 119//22
f 122//23 125//25 121//23
f 125//25 122//23 126//25
f 127//26 123//24 128//26
f 124//24 128//26 123//24
f 126//25 129//27 125//25
f 129//27 126//25 130//27
f 131//28 127//26 132//28
f 128//26 132//28 127//26
f 130//27 133//29 129//27
f 133//29 130//27 134//29
f 135//30 131//28 136//30
f 132//28 136//30 131//28
f 134//29 137//31 133//29
f 137//31 134//29 138//31
f 139//32 135//30 140//32
f 136//30 140//32 135//30
f 138//31 141//33 137//31
f 141//33 138//31 142//33
f 143//34 139//32 144//34
f 140//32 144//34 139//32
f 142//33 145//35 141//33
f 145//35 142//33 146//35
f 147//36 143//34 148//36
f 144//34 148//36 143//34
f 149//37 145//35 146//35
f 145//35 149//37 150//37
f 151//38 152//38 148//36
f 147//36 148//36 152//38
f 153//39 150//37 149//37
f 150//37 153//39 154//39
f 155//40 156//40 151//38
f 152//38 151//38 156//40
f 157//41 154//39 153//39
f 154//39 157//41 158//41
f 159//42 160//42 155//40
f 156//40 155//40 160//42
f 161//43 158//41 157//41
f 158//41 161//43 162//43
f 163//44 164//44 159//42
f 160//42 159//42 164//44
f 165//7 162//43 161//43
f 162//43 165//7 166//7
f 167//5 168//5 163//44
f 164//44 163//44 168//5
f 169//3 170//3 171//3
f 170//3 169//3 172//3
f 173//4 174//4 175//4
f 176//4 175//4 174//4
f 177//5 178//45 179//45
f 178//45 177//5 180//5
f 181//7 182//7 183//46
f 184//46 183//46 182//7
f 179//45 185//47 186//47
f 185//47 179//45 178//45
f 183//46 184//46 187//48
f 188//48 187//48 184//46
f 186//47 189//49 190//49
f 189//49 186//47 185//47
f 187//48 188//48 191//50
f 192//50 191//50 188//48
f 190//49 193//51 194//51
f 193//51 190//49 189//49
f 191//50 192//50 195//52
f 196//52 195//52 192//50
f 193//51 197//53 194//51
f 197//53 193//51 198//53
f 199//54 195//52 200//54
f 196//52 200//54 195//52
f 198//53 201//55 197//53
f 201//55 198//53 202//55
f 203//56 199//54 204//56
f 200//54 204//56 199//54
f 202//55 205//57 201//55
f 205//57 202//55 206//57
f 207//58 203//56 208//58
f 204//56 208//58 203//56
f 206//57 209//59 205//57
f 209//59 206//57 210//59
f 211//60 207//58 212//60
f 208//58 212//60 207//58
f 210//59 213//61 209//59
f 213//61 210//59 214//61
f 215//62 211//60 216//62
f 212//60 216//62 211//60
f 214//61 217//63 213//61
f 217//63 214//61 218//63
f 219//64 215//62 220//64
f 216//62 220//64 215//62
f 218//63 221//65 217//63
f 221//65 218//63 222//65
f 223//66 219//64 224//66
f 220//64 224//66 219//64
f 225//67 221//65 222//65
f 221//65 225//67 226//67
f 227//68 228//68 224//66
f 223//66 224//66 228//68
f 229//69 226//67 225//67
f 226//67 229//69 230//69
f 231//70 232//70 227//68
f 228//68 227//68 232//70
f 233//71 230//69 229//69
f 230//69 233//71 234//71
f 235//72 236//72 231//70
f 232//70 231//70 236//72
f 237//73 234//71 233//71
f 234//71 237//73 238//73
f 239//74 240//74 235//72
f 236//72 235//72 240//74
f 241//7 238//73 237//73
f 238//73 241//7 242//7
f 243//5 244//5 239//74
f 240//74 239//74 244//5
f 245//2 246//2 247//2
f 246//2 245//2 248//2
f 246//2 248//2 249//2
f 249//2 248//2 250//2
f 250//2 248//2 251//2
f 250//2 251//2 252//2
f 252//2 251//2 253//2
f 252//2 253//2 254//2
f 254//2 253//2 255//2
f 254//2 255//2 256//2
f 256//2 255//2 257//2
f 257//2 255//2 258//2
f 257//2 258//2 259//2
f 259//2 258//2 260//2
f 259//2 260//2 261//2
f 261//2 260//2 262//2
f 261//2 262//2 263//2
f 263//2 262//2 264//2
f 263//2 264//2 265//2
f 265//2 264//2 266//2
f 266//2 264//2 267//2
f 266//2 267//2 268//2
f 268//2 267//2 269//2
f 269//2 267//2 270//2
f 270//2 267//2 271//2
f 271//2 267//2 272//2
f 271//2 272//2 273//2
f 271//2 273//2 274//2
f 271//2 274//2 275//2
f 276//2 277//2 278//2
f 277//2 276//2 279//2
f 279//2 276//2 280//2
f 279//2 280//2 281//2
f 279//2 281//2 282//2
f 279//2 282//2 245//2
f 279//2 245//2 247//2
f 283//1 284//1 285//1
f 284//1 286//1 285//1
f 286//1 287//1 285//1
f 287//1 288//1 285//1
f 288//1 289//1 285//1
f 285//1 289//1 290//1
f 291//1 290//1 289//1
f 292//1 293//1 294//1
f 293//1 295//1 294//1
f 295//1 296//1 294//1
f 296//1 297//1 294//1
f 294//1 297//1 298//1
f 298//1 297//1 299//1
f 299//1 297//1 300//1
f 300//1 297//1 301//1
f 297//1 302//1 301//1
f 301//1 302//1 303//1
f 303//1 302//1 304//1
f 302//1 305//1 304//1
f 304//1 305//1 306//1
f 305//1 307//1 306//1
f 306//1 307//1 308//1
f 307//1 309//1 308//1
f 308//1 309//1 310//1
f 309//1 311//1 310//1
f 310//1 311//1 312//1
f 312//1 311//1 313//1
f 311//1 314//1 313//1
f 313//1 314//1 315//1
f 314//1 316//1 315//1
f 315//1 316//1 317//1
f 316//1 318//1 317//1
f 317//1 318//1 319//1
f 319//1 318//1 320//1
f 318//1 284//1 320//1
f 283//1 320//1 284//1
