# SSTK version 0.8.0
# 40
mtllib original-40.mtl
o #ID275
v -0.664610 -0.326270 0.515866
v -0.664610 0.208410 0.515895
v -0.664613 0.207183 0.516045
v -0.664600 0.209653 0.515454
v -0.664609 -0.346368 0.515859
v -0.664527 -0.356734 0.512328
v -0.664583 0.210826 0.514753
v -0.664562 0.211851 0.513839
v -0.664538 0.212656 0.512774
v -0.664511 0.213187 0.511632
v -0.664491 -0.358744 0.510749
v -0.663628 0.225769 0.473444
v -0.664487 -0.358941 0.510595
v -0.664464 -0.360230 0.509582
v -0.664429 -0.361370 0.508061
v -0.662982 -0.361370 0.445469
v -0.663599 0.221645 0.472159
v -0.662981 0.229581 0.445469
v -0.662982 0.228914 0.445469
vn 0.9997873904378849 0.000006188762425489164 0.020619744981540306
vn 0.9997328270160527 -2.813705683988068e-7 0.02311438051110065
vn 0.9997352521772592 1.8377770272859442e-7 0.02300924931496242
usemtl material_0_0
f 1//1 2//2 3//2
f 2//2 1//1 4//2
f 4//2 1//1 5//3
f 4//2 5//3 6//2
f 4//2 6//2 7//2
f 7//2 6//2 8//2
f 8//2 6//2 9//2
f 9//2 6//2 10//2
f 10//2 6//2 11//2
f 10//2 11//2 12//2
f 12//2 11//2 13//2
f 12//2 13//2 14//2
f 12//2 14//2 15//2
f 12//2 15//2 16//2
f 12//2 16//2 17//2
f 17//2 16//2 18//2
f 18//2 16//2 19//2
