# SSTK version 0.8.0
# 100
mtllib original-100.mtl
o #ID726
v -0.143112 0.108357 0.522257
v -0.144708 0.104370 0.524632
v -0.144708 0.104370 0.522257
v -0.143112 0.108357 0.524632
v -0.143112 0.108357 0.524632
v -0.143112 0.108357 0.522257
v -0.144708 0.104370 0.524632
v -0.144708 0.104370 0.522257
v -0.141922 0.112373 0.522257
v -0.141922 0.112373 0.524632
v -0.141922 0.112373 0.524632
v -0.141922 0.112373 0.522257
v -0.150385 0.092079 0.524632
v -0.150385 0.092079 0.522257
v -0.150385 0.092079 0.524632
v -0.150385 0.092079 0.522257
v -0.141922 0.112373 0.524632
v -0.138254 0.103684 0.522257
v -0.138254 0.103684 0.524632
v -0.141922 0.112373 0.522257
v -0.141922 0.112373 0.522257
v -0.141922 0.112373 0.524632
v -0.138254 0.103684 0.522257
v -0.138254 0.103684 0.524632
v -0.150385 0.092079 0.524632
v -0.132859 0.092079 0.522257
v -0.150385 0.092079 0.522257
v -0.132859 0.092079 0.524632
v -0.132859 0.092079 0.524632
v -0.150385 0.092079 0.524632
v -0.132859 0.092079 0.522257
v -0.150385 0.092079 0.522257
v -0.132859 0.092079 0.522257
v -0.132859 0.092079 0.524632
v -0.132859 0.092079 0.522257
v -0.132859 0.092079 0.524632
vn 0.9445364128378896 -0.32840670642258746 0
vn 0.9184009427914479 -0.39565099302261264 0
vn -0.9445364128378896 0.32840670642258746 0
vn -0.9184009427914479 0.39565099302261264 0
vn 0.9587845754086209 -0.28413401408228217 0
vn -0.9587845754086209 0.28413401408228217 0
vn 0.907829293820827 -0.4193399256936769 0
vn -0.907829293820827 0.4193399256936769 0
vn -0.921306235160795 -0.3888377824412669 0
vn -0.9141782819120888 -0.4053123102994301 0
vn 0.921306235160795 0.3888377824412669 0
vn 0.9141782819120888 0.4053123102994301 0
vn 0 1 0
vn 0 -1 0
vn -0.9067921746139331 -0.42157793118109754 0
vn 0.9067921746139331 0.42157793118109754 0
usemtl material_0_0
f 1//1 2//2 3//2
f 2//2 1//1 4//1
f 5//3 6//3 7//4
f 8//4 7//4 6//3
f 9//5 4//1 1//1
f 4//1 9//5 10//5
f 11//6 12//6 5//3
f 6//3 5//3 12//6
f 3//2 13//7 14//7
f 13//7 3//2 2//2
f 7//4 8//4 15//8
f 16//8 15//8 8//4
f 17//9 18//10 19//10
f 18//10 17//9 20//9
f 21//11 22//11 23//12
f 24//12 23//12 22//11
f 25//13 26//13 27//13
f 26//13 25//13 28//13
f 29//14 30//14 31//14
f 32//14 31//14 30//14
f 19//10 33//15 34//15
f 33//15 19//10 18//10
f 23//12 24//12 35//16
f 36//16 35//16 24//12
