# SSTK version 0.8.0
# 16
mtllib original-16.mtl
o #ID75
v 0.681269 0.299377 0.366570
v 0.682507 0.301259 0.367595
v 0.681425 0.299372 0.366587
v 0.681269 0.301295 0.367460
v 0.684229 0.302684 0.369198
v 0.681269 0.302770 0.368875
v 0.681269 0.303700 0.370719
v 0.686473 0.303549 0.371288
v 0.681269 0.304022 0.372867
v 0.689086 0.303795 0.373721
v 0.681269 0.303714 0.375172
v 0.691890 0.303405 0.376332
vn -0.1027266611952183 -0.13767030642026493 -0.9851365995687265
vn 0.32899003466591115 0.3926637685946222 -0.8588251987008716
vn -0.9421531161177911 -0.19406309908673333 -0.2732892595079232
vn 0.20964926564002004 0.5522902614050427 -0.8068597477714141
vn 0.3054152540871244 0.6203204309960698 -0.722443136488781
vn 0.17419403739722075 0.7924309682120787 -0.5845593194481834
vn 0.11999137340354896 0.94626346333332 -0.3003123844751675
vn 0.2558425310352463 0.8331899164706483 -0.4902439825282031
vn 0.05852569268883273 0.9982553105521546 -0.007815257495055392
vn 0.16551939918946312 0.9732875319699426 -0.15910596658773424
vn 0.027381792554562967 0.9908116495117287 0.13244815071697344
vn 0.10457347263525278 0.9938666802661826 0.03596401920922545
usemtl material_0_0
f 1//1 2//2 3//3
f 2//2 1//1 4//4
f 4//4 5//5 2//2
f 5//5 4//4 6//6
f 7//7 5//5 6//6
f 5//5 7//7 8//8
f 9//9 8//8 7//7
f 8//8 9//9 10//10
f 11//11 10//10 9//9
f 10//10 11//11 12//12
