# SSTK version 0.8.0
# 53
mtllib original-53.mtl
o #ID353
v 0.792753 -0.071160 -0.198845
v 0.792753 -0.060383 -0.039932
v 0.792753 -0.071160 -0.039932
v 0.792753 -0.060383 -0.198845
v 0.792753 -0.060383 -0.198845
v 0.792753 -0.071160 -0.198845
v 0.792753 -0.060383 -0.039932
v 0.792753 -0.071160 -0.039932
v 0.806059 -0.071160 -0.039932
v 0.792753 -0.071160 -0.198845
v 0.792753 -0.071160 -0.039932
v 0.806059 -0.071160 -0.198845
v 0.806059 -0.071160 -0.198845
v 0.806059 -0.071160 -0.039932
v 0.792753 -0.071160 -0.198845
v 0.792753 -0.071160 -0.039932
v 0.806059 -0.060383 -0.198845
v 0.792753 -0.071160 -0.198845
v 0.806059 -0.071160 -0.198845
v 0.792753 -0.060383 -0.198845
v 0.792753 -0.060383 -0.198845
v 0.806059 -0.060383 -0.198845
v 0.792753 -0.071160 -0.198845
v 0.806059 -0.071160 -0.198845
v 0.806059 -0.060383 -0.198845
v 0.792753 -0.060383 -0.039932
v 0.792753 -0.060383 -0.198845
v 0.806059 -0.060383 -0.039932
v 0.806059 -0.060383 -0.039932
v 0.806059 -0.060383 -0.198845
v 0.792753 -0.060383 -0.039932
v 0.792753 -0.060383 -0.198845
v 0.792753 -0.060383 -0.039932
v 0.806059 -0.071160 -0.039932
v 0.792753 -0.071160 -0.039932
v 0.806059 -0.060383 -0.039932
v 0.806059 -0.060383 -0.039932
v 0.792753 -0.060383 -0.039932
v 0.806059 -0.071160 -0.039932
v 0.792753 -0.071160 -0.039932
v 0.806885 -0.071248 -0.039841
v 0.806059 -0.071160 -0.198845
v 0.806059 -0.071160 -0.039932
v 0.806885 -0.071248 -0.198935
v 0.806885 -0.071248 -0.198935
v 0.806885 -0.071248 -0.039841
v 0.806059 -0.071160 -0.198845
v 0.806059 -0.071160 -0.039932
v 0.806885 -0.060295 -0.198935
v 0.806059 -0.060383 -0.198845
v 0.806059 -0.060383 -0.198845
v 0.806885 -0.060295 -0.198935
v 0.806059 -0.060383 -0.039932
v 0.806885 -0.060295 -0.039841
v 0.806885 -0.060295 -0.039841
v 0.806059 -0.060383 -0.039932
v 0.807654 -0.071507 -0.039577
v 0.807654 -0.071507 -0.199199
v 0.807654 -0.071507 -0.199199
v 0.807654 -0.071507 -0.039577
v 0.807654 -0.060036 -0.199199
v 0.807654 -0.060036 -0.199199
v 0.807654 -0.060036 -0.039577
v 0.807654 -0.060036 -0.039577
v 0.808315 -0.071918 -0.039156
v 0.808315 -0.071918 -0.199620
v 0.808315 -0.071918 -0.199620
v 0.808315 -0.071918 -0.039156
v 0.808315 -0.059625 -0.199620
v 0.808315 -0.059625 -0.199620
v 0.808315 -0.059625 -0.039156
v 0.808315 -0.059625 -0.039156
v 0.808822 -0.072453 -0.200169
v 0.808822 -0.072453 -0.038607
v 0.808822 -0.072453 -0.200169
v 0.808822 -0.072453 -0.038607
v 0.808822 -0.059089 -0.200169
v 0.808822 -0.059089 -0.200169
v 0.808822 -0.059089 -0.038607
v 0.808822 -0.059089 -0.038607
v 0.809141 -0.073077 -0.200808
v 0.809141 -0.073077 -0.037969
v 0.809141 -0.073077 -0.200808
v 0.809141 -0.073077 -0.037969
v 0.809141 -0.058466 -0.200808
v 0.809141 -0.058466 -0.200808
v 0.809141 -0.058466 -0.037969
v 0.809141 -0.058466 -0.037969
v 0.809250 -0.073747 -0.201493
v 0.809250 -0.073747 -0.037283
v 0.809250 -0.073747 -0.201493
v 0.809250 -0.073747 -0.037283
v 0.809250 -0.057796 -0.201493
v 0.809250 -0.057796 -0.201493
v 0.809250 -0.057796 -0.037283
v 0.809250 -0.057796 -0.037283
vn 1 0 0
vn -1 0 0
vn 0 1 0
vn 0 -1 0
vn 0 0 1
vn 0 0 -1
vn 0.31756287986023884 0.6783948373658164 -0.6625211407723371
vn 0.15094381106654983 0.707230228422173 0.6906818152424651
vn 0.15094381106654983 0.7072302284221732 -0.6906818152424649
vn 0.31756287986023884 0.6783948373658161 0.6625211407723375
vn -0.31756287986023884 -0.6783948373658161 -0.6625211407723375
vn -0.31756287986023884 -0.6783948373658164 0.6625211407723371
vn -0.15094381106654983 -0.707230228422173 -0.6906818152424651
vn -0.15094381106654983 -0.7072302284221732 0.6906818152424649
vn 0.31756287986023884 -0.6783948373658164 0.6625211407723371
vn 0.15094381106654983 -0.7072302284221732 0.6906818152424649
vn -0.15094381106654983 0.7072302284221732 -0.6906818152424649
vn -0.31756287986023884 0.6783948373658164 -0.6625211407723371
vn 0.15094381106654983 -0.707230228422173 -0.6906818152424651
vn 0.31756287986023884 -0.6783948373658161 -0.6625211407723375
vn -0.31756287986023884 0.6783948373658161 0.6625211407723375
vn -0.15094381106654983 0.707230228422173 0.6906818152424651
vn 0.5878743504140147 0.5787465659446918 -0.5652045298230781
vn 0.5878743504140147 0.5787465659446914 0.5652045298230784
vn -0.5878743504140147 -0.5787465659446914 -0.5652045298230784
vn -0.5878743504140147 -0.5787465659446918 0.5652045298230781
vn 0.5878743504140147 -0.5787465659446918 0.5652045298230781
vn -0.5878743504140147 0.5787465659446918 -0.5652045298230781
vn 0.5878743504140147 -0.5787465659446914 -0.5652045298230784
vn -0.5878743504140147 0.5787465659446914 0.5652045298230784
vn 0.7879219729214685 0.4405423419539726 -0.4302341333893087
vn 0.7879219729214686 0.4405423419539725 0.43023413338930894
vn -0.7879219729214686 -0.4405423419539725 -0.43023413338930894
vn -0.7879219729214685 -0.4405423419539726 0.4302341333893087
vn 0.7879219729214685 -0.4405423419539726 0.4302341333893087
vn -0.7879219729214685 0.4405423419539726 -0.4302341333893087
vn 0.7879219729214686 -0.4405423419539725 -0.43023413338930894
vn -0.7879219729214686 0.4405423419539725 0.43023413338930894
vn 0.9175654547735249 0.2844430061397386 0.2777873511599168
vn 0.9175654547735249 0.2844430061397387 -0.2777873511599167
vn -0.9175654547735249 -0.2844430061397386 -0.2777873511599168
vn -0.9175654547735249 -0.2844430061397387 0.2777873511599167
vn 0.9175654547735249 -0.2844430061397387 0.2777873511599167
vn -0.9175654547735249 0.2844430061397387 -0.2777873511599167
vn 0.9175654547735249 -0.2844430061397386 -0.2777873511599168
vn -0.9175654547735249 0.2844430061397386 0.2777873511599168
vn 0.9852762437173928 0.12231657756960938 0.11945450354759603
vn 0.9852762437173928 0.12231657756960942 -0.11945450354759599
vn -0.9852762437173928 -0.12231657756960938 -0.11945450354759603
vn -0.9852762437173928 -0.12231657756960942 0.11945450354759599
vn 0.9852762437173928 -0.12231657756960942 0.11945450354759599
vn -0.9852762437173928 0.12231657756960942 -0.11945450354759599
vn 0.9852762437173928 -0.12231657756960938 -0.11945450354759603
vn -0.9852762437173928 0.12231657756960938 0.11945450354759603
vn 0.9936192124182132 0.08069075642480476 0.07880268105212183
vn 0.9936192124182132 0.0806907564248048 -0.07880268105212179
vn -0.9936192124182132 -0.08069075642480476 -0.07880268105212183
vn -0.9936192124182132 -0.0806907564248048 0.07880268105212179
vn 0.9936192124182132 -0.0806907564248048 0.07880268105212179
vn -0.9936192124182132 0.0806907564248048 -0.07880268105212179
vn 0.9936192124182132 -0.08069075642480476 -0.07880268105212183
vn -0.9936192124182132 0.08069075642480476 0.07880268105212183
usemtl material_0_0
f 1//1 2//1 3//1
f 2//1 1//1 4//1
f 5//2 6//2 7//2
f 8//2 7//2 6//2
f 9//3 10//3 11//3
f 10//3 9//3 12//3
f 13//4 14//4 15//4
f 16//4 15//4 14//4
f 17//5 18//5 19//5
f 18//5 17//5 20//5
f 21//6 22//6 23//6
f 24//6 23//6 22//6
f 25//4 26//4 27//4
f 26//4 25//4 28//4
f 29//3 30//3 31//3
f 32//3 31//3 30//3
f 33//6 34//6 35//6
f 34//6 33//6 36//6
f 37//5 38//5 39//5
f 40//5 39//5 38//5
f 41//7 42//8 43//9
f 42//8 41//7 44//10
f 45//11 46//12 47//13
f 48//14 47//13 46//12
f 49//15 42//8 44//10
f 42//8 49//15 50//16
f 51//17 52//18 47//13
f 45//11 47//13 52//18
f 49//15 53//19 50//16
f 53//19 49//15 54//20
f 55//21 52//18 56//22
f 51//17 56//22 52//18
f 43//9 54//20 41//7
f 54//20 43//9 53//19
f 56//22 48//14 55//21
f 46//12 55//21 48//14
f 57//23 44//10 41//7
f 44//10 57//23 58//24
f 59//25 60//26 45//11
f 46//12 45//11 60//26
f 61//27 44//10 58//24
f 44//10 61//27 49//15
f 52//18 62//28 45//11
f 59//25 45//11 62//28
f 61//27 54//20 49//15
f 54//20 61//27 63//29
f 64//30 62//28 55//21
f 52//18 55//21 62//28
f 41//7 63//29 57//23
f 63//29 41//7 54//20
f 55//21 46//12 64//30
f 60//26 64//30 46//12
f 65//31 58//24 57//23
f 58//24 65//31 66//32
f 67//33 68//34 59//25
f 60//26 59//25 68//34
f 69//35 58//24 66//32
f 58//24 69//35 61//27
f 62//28 70//36 59//25
f 67//33 59//25 70//36
f 69//35 63//29 61//27
f 63//29 69//35 71//37
f 72//38 70//36 64//30
f 62//28 64//30 70//36
f 57//23 71//37 65//31
f 71//37 57//23 63//29
f 64//30 60//26 72//38
f 68//34 72//38 60//26
f 73//39 65//31 74//40
f 65//31 73//39 66//32
f 67//33 75//41 68//34
f 76//42 68//34 75//41
f 73//39 69//35 66//32
f 69//35 73//39 77//43
f 78//44 75//41 70//36
f 67//33 70//36 75//41
f 71//37 77//43 79//45
f 77//43 71//37 69//35
f 70//36 72//38 78//44
f 80//46 78//44 72//38
f 65//31 79//45 74//40
f 79//45 65//31 71//37
f 72//38 68//34 80//46
f 76//42 80//46 68//34
f 81//47 74//40 82//48
f 74//40 81//47 73//39
f 75//41 83//49 76//42
f 84//50 76//42 83//49
f 81//47 77//43 73//39
f 77//43 81//47 85//51
f 86//52 83//49 78//44
f 75//41 78//44 83//49
f 79//45 85//51 87//53
f 85//51 79//45 77//43
f 78//44 80//46 86//52
f 88//54 86//52 80//46
f 74//40 87//53 82//48
f 87//53 74//40 79//45
f 80//46 76//42 88//54
f 84//50 88//54 76//42
f 89//55 82//48 90//56
f 82//48 89//55 81//47
f 83//49 91//57 84//50
f 92//58 84//50 91//57
f 89//55 85//51 81//47
f 85//51 89//55 93//59
f 94//60 91//57 86//52
f 83//49 86//52 91//57
f 87//53 93//59 95//61
f 93//59 87//53 85//51
f 86//52 88//54 94//60
f 96//62 94//60 88//54
f 82//48 95//61 90//56
f 95//61 82//48 87//53
f 88//54 84//50 96//62
f 92//58 96//62 84//50
