# SSTK version 0.8.0
# 27
mtllib original-27.mtl
o #ID198
v 0.684318 0.321065 0.315624
v 0.680160 0.324306 0.301816
v 0.680160 0.321065 0.315624
v 0.684318 0.324306 0.301816
v 0.684318 0.324306 0.301816
v 0.684318 0.321065 0.315624
v 0.680160 0.324306 0.301816
v 0.680160 0.321065 0.315624
v 0.680160 0.321729 0.315787
v 0.684318 0.321065 0.315624
v 0.680160 0.321065 0.315624
v 0.684318 0.321729 0.315787
v 0.684318 0.321729 0.315787
v 0.680160 0.321729 0.315787
v 0.684318 0.321065 0.315624
v 0.680160 0.321065 0.315624
v 0.684318 0.324970 0.301979
v 0.684318 0.321065 0.315624
v 0.684318 0.321729 0.315787
v 0.684318 0.324306 0.301816
v 0.684318 0.324306 0.301816
v 0.684318 0.324970 0.301979
v 0.684318 0.321065 0.315624
v 0.684318 0.321729 0.315787
v 0.684318 0.324970 0.301979
v 0.680160 0.324306 0.301816
v 0.684318 0.324306 0.301816
v 0.680160 0.324970 0.301979
v 0.680160 0.324970 0.301979
v 0.684318 0.324970 0.301979
v 0.680160 0.324306 0.301816
v 0.684318 0.324306 0.301816
v 0.680160 0.321065 0.315624
v 0.680160 0.324970 0.301979
v 0.680160 0.321729 0.315787
v 0.680160 0.324306 0.301816
v 0.680160 0.324306 0.301816
v 0.680160 0.321065 0.315624
v 0.680160 0.324970 0.301979
v 0.680160 0.321729 0.315787
vn 0 0.9735377029585691 0.22852645561980955
vn 0 -0.9735377029585691 -0.22852645561980955
vn 0 0.23898929856146994 -0.9710222011741527
vn 0 -0.23898929856146994 0.9710222011741527
vn -1 0 0
vn 1 0 0
usemtl material_0_0
f 1//1 2//1 3//1
f 2//1 1//1 4//1
f 5//2 6//2 7//2
f 8//2 7//2 6//2
f 9//3 10//3 11//3
f 10//3 9//3 12//3
f 13//4 14//4 15//4
f 16//4 15//4 14//4
f 17//5 18//5 19//5
f 18//5 17//5 20//5
f 21//6 22//6 23//6
f 24//6 23//6 22//6
f 25//4 26//4 27//4
f 26//4 25//4 28//4
f 29//3 30//3 31//3
f 32//3 31//3 30//3
f 33//6 34//6 35//6
f 34//6 33//6 36//6
f 37//5 38//5 39//5
f 40//5 39//5 38//5
