# SSTK version 0.8.0
# 2
mtllib original-2.mtl
o #ID738
v 0.630308 -0.344548 -0.401546
v -0.657783 -0.344988 -0.401546
v 0.625835 -0.344988 -0.401546
v -0.662256 -0.344548 -0.401546
v 0.634478 -0.343256 -0.401546
v -0.666425 -0.343256 -0.401546
v 0.638057 -0.341200 -0.401546
v -0.670005 -0.341200 -0.401546
v 0.640804 -0.338522 -0.401546
v -0.672752 -0.338522 -0.401546
v 0.642530 -0.335403 -0.401546
v -0.674479 -0.335403 -0.401546
v 0.643119 -0.332055 -0.401546
v -0.675068 -0.332055 -0.401546
v 0.643119 0.235670 -0.401546
v -0.675068 0.235670 -0.401546
v 0.642530 0.239018 -0.401546
v -0.674479 0.239018 -0.401546
v 0.640804 0.242137 -0.401546
v -0.672752 0.242137 -0.401546
v 0.638057 0.244815 -0.401546
v -0.670005 0.244815 -0.401546
v 0.634478 0.246870 -0.401546
v -0.666425 0.246870 -0.401546
v 0.630308 0.248162 -0.401546
v -0.662256 0.248162 -0.401546
v 0.625835 0.248603 -0.401546
v -0.657783 0.248603 -0.401546
vn 0 0 1
usemtl material_0_0
f 1//1 2//1 3//1
f 2//1 1//1 4//1
f 4//1 1//1 5//1
f 4//1 5//1 6//1
f 6//1 5//1 7//1
f 6//1 7//1 8//1
f 8//1 7//1 9//1
f 8//1 9//1 10//1
f 10//1 9//1 11//1
f 10//1 11//1 12//1
f 12//1 11//1 13//1
f 12//1 13//1 14//1
f 14//1 13//1 15//1
f 14//1 15//1 16//1
f 16//1 15//1 17//1
f 16//1 17//1 18//1
f 18//1 17//1 19//1
f 18//1 19//1 20//1
f 20//1 19//1 21//1
f 20//1 21//1 22//1
f 22//1 21//1 23//1
f 22//1 23//1 24//1
f 24//1 23//1 25//1
f 24//1 25//1 26//1
f 26//1 25//1 27//1
f 26//1 27//1 28//1
