# SSTK version 0.8.0
# 94
mtllib original-94.mtl
o #ID690
v -0.111665 0.116775 0.522257
v -0.105071 0.110544 0.522257
v -0.111665 0.074871 0.522257
v -0.101368 0.116775 0.522257
v -0.090119 0.074871 0.522257
v -0.089132 0.087105 0.522257
v -0.086663 0.080902 0.522257
v -0.083948 0.074871 0.522257
v -0.083913 0.087620 0.522257
v -0.068926 0.109944 0.522257
v -0.071535 0.116775 0.522257
v -0.062332 0.116775 0.522257
v -0.068926 0.074871 0.522257
v -0.062332 0.074871 0.522257
v -0.105071 0.074871 0.522257
v -0.105071 0.110544 0.522257
v -0.111665 0.074871 0.522257
v -0.105071 0.074871 0.522257
v -0.062332 0.074871 0.522257
v -0.062332 0.116775 0.522257
v -0.068926 0.074871 0.522257
v -0.068926 0.109944 0.522257
v -0.071535 0.116775 0.522257
v -0.083913 0.087620 0.522257
v -0.083948 0.074871 0.522257
v -0.086663 0.080902 0.522257
v -0.090119 0.074871 0.522257
v -0.089132 0.087105 0.522257
v -0.101368 0.116775 0.522257
v -0.111665 0.116775 0.522257
v -0.111665 0.116775 0.524632
v -0.111665 0.074871 0.522257
v -0.111665 0.074871 0.524632
v -0.111665 0.116775 0.522257
v -0.111665 0.116775 0.522257
v -0.111665 0.116775 0.524632
v -0.111665 0.074871 0.522257
v -0.111665 0.074871 0.524632
v -0.111665 0.116775 0.524632
v -0.101368 0.116775 0.522257
v -0.111665 0.116775 0.522257
v -0.101368 0.116775 0.524632
v -0.101368 0.116775 0.524632
v -0.111665 0.116775 0.524632
v -0.101368 0.116775 0.522257
v -0.111665 0.116775 0.522257
v -0.101368 0.116775 0.522257
v -0.089132 0.087105 0.524632
v -0.089132 0.087105 0.522257
v -0.101368 0.116775 0.524632
v -0.101368 0.116775 0.524632
v -0.101368 0.116775 0.522257
v -0.089132 0.087105 0.524632
v -0.089132 0.087105 0.522257
v -0.086663 0.080902 0.524632
v -0.086663 0.080902 0.522257
v -0.086663 0.080902 0.524632
v -0.086663 0.080902 0.522257
v -0.083913 0.087620 0.524632
v -0.086663 0.080902 0.522257
v -0.086663 0.080902 0.524632
v -0.083913 0.087620 0.522257
v -0.083913 0.087620 0.522257
v -0.083913 0.087620 0.524632
v -0.086663 0.080902 0.522257
v -0.086663 0.080902 0.524632
v -0.071535 0.116775 0.524632
v -0.071535 0.116775 0.522257
v -0.071535 0.116775 0.522257
v -0.071535 0.116775 0.524632
v -0.071535 0.116775 0.524632
v -0.062332 0.116775 0.522257
v -0.071535 0.116775 0.522257
v -0.062332 0.116775 0.524632
v -0.062332 0.116775 0.524632
v -0.071535 0.116775 0.524632
v -0.062332 0.116775 0.522257
v -0.071535 0.116775 0.522257
v -0.062332 0.116775 0.522257
v -0.062332 0.074871 0.524632
v -0.062332 0.074871 0.522257
v -0.062332 0.116775 0.524632
v -0.062332 0.116775 0.524632
v -0.062332 0.116775 0.522257
v -0.062332 0.074871 0.524632
v -0.062332 0.074871 0.522257
v -0.062332 0.074871 0.524632
v -0.068926 0.074871 0.522257
v -0.062332 0.074871 0.522257
v -0.068926 0.074871 0.524632
v -0.068926 0.074871 0.524632
v -0.062332 0.074871 0.524632
v -0.068926 0.074871 0.522257
v -0.062332 0.074871 0.522257
v -0.068926 0.109944 0.524632
v -0.068926 0.074871 0.522257
v -0.068926 0.074871 0.524632
v -0.068926 0.109944 0.522257
v -0.068926 0.109944 0.522257
v -0.068926 0.109944 0.524632
v -0.068926 0.074871 0.522257
v -0.068926 0.074871 0.524632
v -0.068926 0.109944 0.522257
v -0.083948 0.074871 0.524632
v -0.083948 0.074871 0.522257
v -0.068926 0.109944 0.524632
v -0.068926 0.109944 0.524632
v -0.068926 0.109944 0.522257
v -0.083948 0.074871 0.524632
v -0.083948 0.074871 0.522257
v -0.083948 0.074871 0.524632
v -0.090119 0.074871 0.522257
v -0.083948 0.074871 0.522257
v -0.090119 0.074871 0.524632
v -0.090119 0.074871 0.524632
v -0.083948 0.074871 0.524632
v -0.090119 0.074871 0.522257
v -0.083948 0.074871 0.522257
v -0.105071 0.110544 0.524632
v -0.090119 0.074871 0.522257
v -0.090119 0.074871 0.524632
v -0.105071 0.110544 0.522257
v -0.105071 0.110544 0.522257
v -0.105071 0.110544 0.524632
v -0.090119 0.074871 0.522257
v -0.090119 0.074871 0.524632
v -0.105071 0.110544 0.522257
v -0.105071 0.074871 0.524632
v -0.105071 0.074871 0.522257
v -0.105071 0.110544 0.524632
v -0.105071 0.110544 0.524632
v -0.105071 0.110544 0.522257
v -0.105071 0.074871 0.524632
v -0.105071 0.074871 0.522257
v -0.105071 0.074871 0.524632
v -0.111665 0.074871 0.522257
v -0.105071 0.074871 0.522257
v -0.111665 0.074871 0.524632
v -0.111665 0.074871 0.524632
v -0.105071 0.074871 0.524632
v -0.111665 0.074871 0.522257
v -0.105071 0.074871 0.522257
v -0.062332 0.074871 0.524632
v -0.068926 0.109944 0.524632
v -0.068926 0.074871 0.524632
v -0.105071 0.074871 0.524632
v -0.111665 0.116775 0.524632
v -0.111665 0.074871 0.524632
v -0.105071 0.110544 0.524632
v -0.101368 0.116775 0.524632
v -0.090119 0.074871 0.524632
v -0.089132 0.087105 0.524632
v -0.086663 0.080902 0.524632
v -0.083948 0.074871 0.524632
v -0.083913 0.087620 0.524632
v -0.071535 0.116775 0.524632
v -0.062332 0.116775 0.524632
v -0.062332 0.074871 0.524632
v -0.068926 0.109944 0.524632
v -0.062332 0.116775 0.524632
v -0.071535 0.116775 0.524632
v -0.083913 0.087620 0.524632
v -0.083948 0.074871 0.524632
v -0.086663 0.080902 0.524632
v -0.090119 0.074871 0.524632
v -0.089132 0.087105 0.524632
v -0.101368 0.116775 0.524632
v -0.105071 0.110544 0.524632
v -0.111665 0.116775 0.524632
v -0.105071 0.074871 0.524632
v -0.111665 0.074871 0.524632
v -0.068926 0.074871 0.524632
vn 0 0 -1
vn 0 0 1
vn -1 0 0
vn 1 0 0
vn 0 1 0
vn 0 -1 0
vn 0.924465556611715 0.381265569699903 0
vn 0.9268127481019289 0.37552380744201874 0
vn -0.924465556611715 -0.381265569699903 0
vn -0.9268127481019289 -0.37552380744201874 0
vn 0.9291277968425702 0.36975875531820984 0
vn -0.9291277968425702 -0.36975875531820984 0
vn -0.9229702550209447 0.38487128802571435 0
vn -0.9254211176662489 0.37894030529537326 0
vn 0.9229702550209447 -0.38487128802571435 0
vn 0.9254211176662489 -0.37894030529537326 0
vn -0.9204855207939772 0.3907766702461147 0
vn 0.9204855207939772 -0.3907766702461147 0
vn 0.9192282291230981 -0.3937251106841079 0
vn -0.9192282291230981 0.3937251106841079 0
vn -0.9222660335950588 -0.3865557699437921 0
vn 0.9222660335950588 0.3865557699437921 0
usemtl material_0_0
f 1//1 2//1 3//1
f 2//1 1//1 4//1
f 2//1 4//1 5//1
f 5//1 4//1 6//1
f 5//1 6//1 7//1
f 5//1 7//1 8//1
f 8//1 7//1 9//1
f 8//1 9//1 10//1
f 10//1 9//1 11//1
f 10//1 11//1 12//1
f 10//1 12//1 13//1
f 13//1 12//1 14//1
f 15//1 3//1 2//1
f 16//2 17//2 18//2
f 19//2 20//2 21//2
f 21//2 20//2 22//2
f 20//2 23//2 22//2
f 23//2 24//2 22//2
f 22//2 24//2 25//2
f 24//2 26//2 25//2
f 25//2 26//2 27//2
f 26//2 28//2 27//2
f 28//2 29//2 27//2
f 27//2 29//2 16//2
f 29//2 30//2 16//2
f 17//2 16//2 30//2
f 31//3 32//3 33//3
f 32//3 31//3 34//3
f 35//4 36//4 37//4
f 38//4 37//4 36//4
f 39//5 40//5 41//5
f 40//5 39//5 42//5
f 43//6 44//6 45//6
f 46//6 45//6 44//6
f 47//7 48//8 49//8
f 48//8 47//7 50//7
f 51//9 52//9 53//10
f 54//10 53//10 52//9
f 49//8 55//11 56//11
f 55//11 49//8 48//8
f 53//10 54//10 57//12
f 58//12 57//12 54//10
f 59//13 60//14 61//14
f 60//14 59//13 62//13
f 63//15 64//15 65//16
f 66//16 65//16 64//15
f 67//17 62//13 59//13
f 62//13 67//17 68//17
f 69//18 70//18 63//15
f 64//15 63//15 70//18
f 71//5 72//5 73//5
f 72//5 71//5 74//5
f 75//6 76//6 77//6
f 78//6 77//6 76//6
f 79//4 80//4 81//4
f 80//4 79//4 82//4
f 83//3 84//3 85//3
f 86//3 85//3 84//3
f 87//6 88//6 89//6
f 88//6 87//6 90//6
f 91//5 92//5 93//5
f 94//5 93//5 92//5
f 95//3 96//3 97//3
f 96//3 95//3 98//3
f 99//4 100//4 101//4
f 102//4 101//4 100//4
f 103//19 104//19 105//19
f 104//19 103//19 106//19
f 107//20 108//20 109//20
f 110//20 109//20 108//20
f 111//6 112//6 113//6
f 112//6 111//6 114//6
f 115//5 116//5 117//5
f 118//5 117//5 116//5
f 119//21 120//21 121//21
f 120//21 119//21 122//21
f 123//22 124//22 125//22
f 126//22 125//22 124//22
f 127//4 128//4 129//4
f 128//4 127//4 130//4
f 131//3 132//3 133//3
f 134//3 133//3 132//3
f 135//6 136//6 137//6
f 136//6 135//6 138//6
f 139//5 140//5 141//5
f 142//5 141//5 140//5
f 143//2 144//2 145//2
f 146//2 147//2 148//2
f 147//2 146//2 149//2
f 147//2 149//2 150//2
f 150//2 149//2 151//2
f 150//2 151//2 152//2
f 152//2 151//2 153//2
f 153//2 151//2 154//2
f 153//2 154//2 155//2
f 155//2 154//2 144//2
f 155//2 144//2 156//2
f 156//2 144//2 157//2
f 157//2 144//2 143//2
f 158//1 159//1 160//1
f 160//1 159//1 161//1
f 161//1 159//1 162//1
f 159//1 163//1 162//1
f 162//1 163//1 164//1
f 163//1 165//1 164//1
f 164//1 165//1 166//1
f 166//1 165//1 167//1
f 165//1 168//1 167//1
f 167//1 168//1 169//1
f 168//1 170//1 169//1
f 171//1 169//1 170//1
f 172//1 159//1 158//1
