# SSTK version 0.8.0
# 32
mtllib original-32.mtl
o #ID226
v 0.662890 0.326904 0.194501
v 0.702352 0.341647 0.194501
v 0.702352 0.326904 0.194501
v 0.662890 0.341647 0.194501
v 0.662890 0.341647 0.194501
v 0.662890 0.326904 0.194501
v 0.702352 0.341647 0.194501
v 0.702352 0.326904 0.194501
v 0.702352 0.342916 0.188286
v 0.702352 0.326904 0.194501
v 0.702352 0.341647 0.194501
v 0.702352 0.328173 0.188286
v 0.702352 0.328173 0.188286
v 0.702352 0.342916 0.188286
v 0.702352 0.326904 0.194501
v 0.702352 0.341647 0.194501
v 0.702352 0.326904 0.194501
v 0.662890 0.328173 0.188286
v 0.662890 0.326904 0.194501
v 0.702352 0.328173 0.188286
v 0.702352 0.328173 0.188286
v 0.702352 0.326904 0.194501
v 0.662890 0.328173 0.188286
v 0.662890 0.326904 0.194501
v 0.662890 0.328173 0.188286
v 0.662890 0.341647 0.194501
v 0.662890 0.326904 0.194501
v 0.662890 0.342916 0.188286
v 0.662890 0.342916 0.188286
v 0.662890 0.328173 0.188286
v 0.662890 0.341647 0.194501
v 0.662890 0.326904 0.194501
v 0.702352 0.342916 0.188286
v 0.662890 0.328173 0.188286
v 0.702352 0.328173 0.188286
v 0.662890 0.342916 0.188286
v 0.662890 0.342916 0.188286
v 0.702352 0.342916 0.188286
v 0.662890 0.328173 0.188286
v 0.702352 0.328173 0.188286
vn 0 0 -1
vn 0 0 1
vn -1 0 0
vn 1 0 0
vn 0 0.9797940534470517 0.20000903187055363
vn 0 -0.9797940534470517 -0.20000903187055363
usemtl material_0_0
f 1//1 2//1 3//1
f 2//1 1//1 4//1
f 5//2 6//2 7//2
f 8//2 7//2 6//2
f 9//3 10//3 11//3
f 10//3 9//3 12//3
f 13//4 14//4 15//4
f 16//4 15//4 14//4
f 17//5 18//5 19//5
f 18//5 17//5 20//5
f 21//6 22//6 23//6
f 24//6 23//6 22//6
f 25//4 26//4 27//4
f 26//4 25//4 28//4
f 29//3 30//3 31//3
f 32//3 31//3 30//3
f 33//2 34//2 35//2
f 34//2 33//2 36//2
f 37//1 38//1 39//1
f 40//1 39//1 38//1
