# SSTK version 0.8.0
# 6
mtllib original-6.mtl
o #ID15
v 0.767251 0.354884 -0.337155
v 0.766552 0.354599 -0.333758
v 0.764007 0.354590 -0.337158
v 0.768779 0.354889 -0.335112
v 0.770279 0.355745 -0.337144
v 0.770855 0.355747 -0.336375
v 0.772100 0.356702 -0.337132
vn 0.20924485018905475 -0.9579004843977478 -0.1965788764336604
vn 0.0758993870782384 -0.9932281763972772 -0.08796063126016637
vn 0.08986666649531021 -0.9908805518916378 -0.10039777953691863
vn 0.15095201240983822 -0.9723150602795139 -0.17837296180493703
vn 0.3794780069340773 -0.8677824606572122 -0.3208582915074102
vn 0.296440666294644 -0.8870913765361987 -0.3538245625191948
vn 0.5187414390610239 0.0015165173937122605 0.8549298331301187
usemtl material_0_0
f 1//1 2//2 3//3
f 2//2 1//1 4//4
f 5//5 4//4 1//1
f 4//4 5//5 6//6
f 7//7 6//6 5//5
