# SSTK version 0.8.0
# 55
mtllib original-55.mtl
o #ID365
v 0.809141 0.244914 -0.037969
v 0.809250 0.245583 -0.201493
v 0.809250 0.245583 -0.037283
v 0.809141 0.244914 -0.200808
v 0.809141 0.244914 -0.200808
v 0.809141 0.244914 -0.037969
v 0.809250 0.245583 -0.201493
v 0.809250 0.245583 -0.037283
v 0.808822 0.244290 -0.038607
v 0.808822 0.244290 -0.200169
v 0.808822 0.244290 -0.200169
v 0.808822 0.244290 -0.038607
v 0.809250 0.229633 -0.201493
v 0.809141 0.230302 -0.200808
v 0.809250 0.229633 -0.201493
v 0.809141 0.230302 -0.200808
v 0.809141 0.230302 -0.037969
v 0.809250 0.229633 -0.037283
v 0.809141 0.230302 -0.037969
v 0.809250 0.229633 -0.037283
v 0.808315 0.243754 -0.039156
v 0.808315 0.243754 -0.199620
v 0.808315 0.243754 -0.199620
v 0.808315 0.243754 -0.039156
v 0.808822 0.230926 -0.200169
v 0.808822 0.230926 -0.200169
v 0.808822 0.230926 -0.038607
v 0.808822 0.230926 -0.038607
v 0.807654 0.243343 -0.039577
v 0.807654 0.243343 -0.199199
v 0.807654 0.243343 -0.039577
v 0.807654 0.243343 -0.199199
v 0.808315 0.231462 -0.199620
v 0.808315 0.231462 -0.199620
v 0.808315 0.231462 -0.039156
v 0.808315 0.231462 -0.039156
v 0.806885 0.243085 -0.039841
v 0.806885 0.243085 -0.198935
v 0.806885 0.243085 -0.039841
v 0.806885 0.243085 -0.198935
v 0.807654 0.231873 -0.199199
v 0.807654 0.231873 -0.199199
v 0.807654 0.231873 -0.039577
v 0.807654 0.231873 -0.039577
v 0.806059 0.242997 -0.039932
v 0.806059 0.242997 -0.198845
v 0.806059 0.242997 -0.039932
v 0.806059 0.242997 -0.198845
v 0.806885 0.232131 -0.198935
v 0.806885 0.232131 -0.198935
v 0.806885 0.232131 -0.039841
v 0.806885 0.232131 -0.039841
v 0.806059 0.242997 -0.198845
v 0.795944 0.242997 -0.039932
v 0.795944 0.242997 -0.198845
v 0.806059 0.242997 -0.039932
v 0.806059 0.242997 -0.039932
v 0.806059 0.242997 -0.198845
v 0.795944 0.242997 -0.039932
v 0.795944 0.242997 -0.198845
v 0.806059 0.232219 -0.198845
v 0.806059 0.232219 -0.198845
v 0.806059 0.232219 -0.039932
v 0.806059 0.232219 -0.039932
v 0.795944 0.242997 -0.039932
v 0.806059 0.232219 -0.039932
v 0.795944 0.232219 -0.039932
v 0.806059 0.242997 -0.039932
v 0.806059 0.242997 -0.039932
v 0.795944 0.242997 -0.039932
v 0.806059 0.232219 -0.039932
v 0.795944 0.232219 -0.039932
v 0.795944 0.242997 -0.198845
v 0.795118 0.242909 -0.040022
v 0.795118 0.242909 -0.198754
v 0.795944 0.242997 -0.039932
v 0.795944 0.242997 -0.039932
v 0.795944 0.242997 -0.198845
v 0.795118 0.242909 -0.040022
v 0.795118 0.242909 -0.198754
v 0.806059 0.242997 -0.198845
v 0.795944 0.232219 -0.198845
v 0.806059 0.232219 -0.198845
v 0.795944 0.242997 -0.198845
v 0.795944 0.242997 -0.198845
v 0.806059 0.242997 -0.198845
v 0.795944 0.232219 -0.198845
v 0.806059 0.232219 -0.198845
v 0.806059 0.232219 -0.039932
v 0.795944 0.232219 -0.198845
v 0.795944 0.232219 -0.039932
v 0.806059 0.232219 -0.198845
v 0.806059 0.232219 -0.198845
v 0.806059 0.232219 -0.039932
v 0.795944 0.232219 -0.198845
v 0.795944 0.232219 -0.039932
v 0.795118 0.232308 -0.040022
v 0.795944 0.232219 -0.039932
v 0.795118 0.232308 -0.040022
v 0.795944 0.232219 -0.039932
v 0.794348 0.242650 -0.040286
v 0.794348 0.242650 -0.198490
v 0.794348 0.242650 -0.040286
v 0.794348 0.242650 -0.198490
v 0.795118 0.232308 -0.198754
v 0.795944 0.232219 -0.198845
v 0.795118 0.232308 -0.198754
v 0.795944 0.232219 -0.198845
v 0.794348 0.232566 -0.040286
v 0.794348 0.232566 -0.040286
v 0.793687 0.242239 -0.040707
v 0.793687 0.242239 -0.198069
v 0.793687 0.242239 -0.040707
v 0.793687 0.242239 -0.198069
v 0.794348 0.232566 -0.198490
v 0.794348 0.232566 -0.198490
v 0.793687 0.232977 -0.040707
v 0.793687 0.232977 -0.040707
v 0.793180 0.241703 -0.041256
v 0.793180 0.241703 -0.197520
v 0.793180 0.241703 -0.197520
v 0.793180 0.241703 -0.041256
v 0.793687 0.232977 -0.198069
v 0.793687 0.232977 -0.198069
v 0.793180 0.233513 -0.041256
v 0.793180 0.233513 -0.041256
v 0.792861 0.241080 -0.041895
v 0.792861 0.241080 -0.196881
v 0.792861 0.241080 -0.196881
v 0.792861 0.241080 -0.041895
v 0.793180 0.233513 -0.197520
v 0.793180 0.233513 -0.197520
v 0.792861 0.234136 -0.041895
v 0.792861 0.234136 -0.041895
v 0.792753 0.240410 -0.042580
v 0.792753 0.240410 -0.196196
v 0.792753 0.240410 -0.196196
v 0.792753 0.240410 -0.042580
v 0.792861 0.234136 -0.196881
v 0.792861 0.234136 -0.196881
v 0.792753 0.234806 -0.042580
v 0.792753 0.234806 -0.042580
v 0.792753 0.234806 -0.196196
v 0.792753 0.240410 -0.042580
v 0.792753 0.234806 -0.042580
v 0.792753 0.240410 -0.196196
v 0.792753 0.240410 -0.196196
v 0.792753 0.234806 -0.196196
v 0.792753 0.240410 -0.042580
v 0.792753 0.234806 -0.042580
v 0.792753 0.234806 -0.196196
v 0.792753 0.234806 -0.196196
vn 0.9852762437173928 -0.12231657756960938 -0.11945450354759603
vn 0.9936192124182132 -0.0806907564248048 0.07880268105212179
vn 0.9936192124182132 -0.08069075642480476 -0.07880268105212183
vn 0.9852762437173928 -0.12231657756960942 0.11945450354759599
vn -0.9852762437173928 0.12231657756960942 -0.11945450354759599
vn -0.9852762437173928 0.12231657756960938 0.11945450354759603
vn -0.9936192124182132 0.0806907564248048 -0.07880268105212179
vn -0.9936192124182132 0.08069075642480476 0.07880268105212183
vn 0.9175654547735249 -0.2844430061397386 -0.2777873511599168
vn 0.9175654547735249 -0.2844430061397387 0.2777873511599167
vn -0.9175654547735249 0.2844430061397387 -0.2777873511599167
vn -0.9175654547735249 0.2844430061397386 0.2777873511599168
vn 0.9936192124182132 0.08069075642480476 0.07880268105212183
vn 0.9852762437173928 0.12231657756960938 0.11945450354759603
vn -0.9936192124182132 -0.08069075642480476 -0.07880268105212183
vn -0.9852762437173928 -0.12231657756960938 -0.11945450354759603
vn 0.9852762437173928 0.12231657756960942 -0.11945450354759599
vn 0.9936192124182132 0.0806907564248048 -0.07880268105212179
vn -0.9852762437173928 -0.12231657756960942 0.11945450354759599
vn -0.9936192124182132 -0.0806907564248048 0.07880268105212179
vn 0.7879219729214686 -0.4405423419539725 -0.43023413338930894
vn 0.7879219729214685 -0.4405423419539726 0.4302341333893087
vn -0.7879219729214685 0.4405423419539726 -0.4302341333893087
vn -0.7879219729214686 0.4405423419539725 0.43023413338930894
vn 0.9175654547735249 0.2844430061397386 0.2777873511599168
vn -0.9175654547735249 -0.2844430061397386 -0.2777873511599168
vn 0.9175654547735249 0.2844430061397387 -0.2777873511599167
vn -0.9175654547735249 -0.2844430061397387 0.2777873511599167
vn 0.5878743504140147 -0.5787465659446914 -0.5652045298230784
vn 0.5878743504140147 -0.5787465659446918 0.5652045298230781
vn -0.5878743504140147 0.5787465659446914 0.5652045298230784
vn -0.5878743504140147 0.5787465659446918 -0.5652045298230781
vn 0.7879219729214686 0.4405423419539725 0.43023413338930894
vn -0.7879219729214686 -0.4405423419539725 -0.43023413338930894
vn 0.7879219729214685 0.4405423419539726 -0.4302341333893087
vn -0.7879219729214685 -0.4405423419539726 0.4302341333893087
vn 0.31756287986023884 -0.6783948373658161 -0.6625211407723375
vn 0.31756287986023884 -0.6783948373658164 0.6625211407723371
vn -0.31756287986023884 0.6783948373658161 0.6625211407723375
vn -0.31756287986023884 0.6783948373658164 -0.6625211407723371
vn 0.5878743504140147 0.5787465659446914 0.5652045298230784
vn -0.5878743504140147 -0.5787465659446914 -0.5652045298230784
vn 0.5878743504140147 0.5787465659446918 -0.5652045298230781
vn -0.5878743504140147 -0.5787465659446918 0.5652045298230781
vn 0.15094381106654983 -0.707230228422173 -0.6906818152424651
vn 0.15094381106654983 -0.7072302284221732 0.6906818152424649
vn -0.15094381106654983 0.707230228422173 0.6906818152424651
vn -0.15094381106654983 0.7072302284221732 -0.6906818152424649
vn 0.31756287986023884 0.6783948373658161 0.6625211407723375
vn -0.31756287986023884 -0.6783948373658161 -0.6625211407723375
vn 0.31756287986023884 0.6783948373658164 -0.6625211407723371
vn -0.31756287986023884 -0.6783948373658164 0.6625211407723371
vn 0 -1 0
vn 0 1 0
vn 0.15094381106654983 0.707230228422173 0.6906818152424651
vn -0.15094381106654983 -0.707230228422173 -0.6906818152424651
vn 0.15094381106654983 0.7072302284221732 -0.6906818152424649
vn -0.15094381106654983 -0.7072302284221732 0.6906818152424649
vn 0 0 -1
vn 0 0 1
vn 0.2723466763673985 -0.6883836180545795 -0.6722761949271432
vn 0.2723466763673985 -0.6883836180545798 0.672276194927143
vn -0.2723466763673985 0.6883836180545795 0.6722761949271432
vn -0.2723466763673985 0.6883836180545798 -0.672276194927143
vn 0.2723466763673985 0.6883836180545798 -0.672276194927143
vn -0.2723466763673985 -0.6883836180545798 0.672276194927143
vn 0.5197087898260173 -0.6112206875552332 -0.5969187925355378
vn 0.5197087898260173 -0.6112206875552334 0.5969187925355375
vn -0.5197087898260173 0.6112206875552332 0.5969187925355378
vn -0.5197087898260173 0.6112206875552334 -0.5969187925355375
vn 0.2723466763673985 0.6883836180545795 0.6722761949271432
vn -0.2723466763673985 -0.6883836180545795 -0.6722761949271432
vn 0.5197087898260173 0.6112206875552334 -0.5969187925355375
vn -0.5197087898260173 -0.6112206875552334 0.5969187925355375
vn 0.721772283520321 -0.49516916192882193 -0.483582745573671
vn 0.721772283520321 -0.4951691619288221 0.4835827455736708
vn -0.721772283520321 0.49516916192882193 0.483582745573671
vn -0.721772283520321 0.4951691619288221 -0.4835827455736708
vn 0.5197087898260173 0.6112206875552332 0.5969187925355378
vn -0.5197087898260173 -0.6112206875552332 -0.5969187925355378
vn 0.721772283520321 0.4951691619288221 -0.4835827455736708
vn -0.721772283520321 -0.4951691619288221 0.4835827455736708
vn 0.868683071260537 -0.35440000724198795 -0.3461074350143895
vn 0.868683071260537 -0.3544000072419881 0.34610743501438934
vn -0.868683071260537 0.3544000072419881 -0.34610743501438934
vn -0.868683071260537 0.35440000724198795 0.3461074350143895
vn 0.721772283520321 0.49516916192882193 0.483582745573671
vn -0.721772283520321 -0.49516916192882193 -0.483582745573671
vn 0.868683071260537 0.3544000072419881 -0.34610743501438934
vn -0.868683071260537 -0.3544000072419881 0.34610743501438934
vn 0.9599435624634838 -0.20045804109780116 -0.1957675423663173
vn 0.9599435624634838 -0.20045804109780124 0.19576754236631722
vn -0.9599435624634838 0.20045804109780124 -0.19576754236631722
vn -0.9599435624634838 0.20045804109780116 0.1957675423663173
vn 0.868683071260537 0.35440000724198795 0.3461074350143895
vn -0.868683071260537 -0.35440000724198795 -0.3461074350143895
vn 0.9599435624634838 0.20045804109780124 -0.19576754236631722
vn -0.9599435624634838 -0.20045804109780124 0.19576754236631722
vn 0.9599435624634838 0.20045804109780116 0.1957675423663173
vn -0.9599435624634838 -0.20045804109780116 -0.1957675423663173
vn 1 0 0
vn -1 0 0
usemtl material_0_0
f 1//1 2//2 3//3
f 2//2 1//1 4//4
f 5//5 6//6 7//7
f 8//8 7//7 6//6
f 9//9 4//4 1//1
f 4//4 9//9 10//10
f 11//11 12//12 5//5
f 6//6 5//5 12//12
f 13//13 4//4 14//14
f 4//4 13//13 2//2
f 7//7 15//15 5//5
f 16//16 5//5 15//15
f 17//17 3//3 18//18
f 3//3 17//17 1//1
f 6//6 19//19 8//8
f 20//20 8//8 19//19
f 21//21 10//10 9//9
f 10//10 21//21 22//22
f 23//23 24//24 11//11
f 12//12 11//11 24//24
f 14//14 10//10 25//25
f 10//10 14//14 4//4
f 5//5 16//16 11//11
f 26//26 11//11 16//16
f 27//27 1//1 17//17
f 1//1 27//27 9//9
f 12//12 28//28 6//6
f 19//19 6//6 28//28
f 13//13 17//17 18//18
f 17//17 13//13 14//14
f 16//16 15//15 19//19
f 20//20 19//19 15//15
f 22//22 29//29 30//30
f 29//29 22//22 21//21
f 24//24 23//23 31//31
f 32//32 31//31 23//23
f 25//25 22//22 33//33
f 22//22 25//25 10//10
f 11//11 26//26 23//23
f 34//34 23//23 26//26
f 35//35 9//9 27//27
f 9//9 35//35 21//21
f 24//24 36//36 12//12
f 28//28 12//12 36//36
f 14//14 27//27 17//17
f 27//27 14//14 25//25
f 26//26 16//16 28//28
f 19//19 28//28 16//16
f 30//30 37//37 38//38
f 37//37 30//30 29//29
f 31//31 32//32 39//39
f 40//40 39//39 32//32
f 22//22 41//41 33//33
f 41//41 22//22 30//30
f 32//32 23//23 42//42
f 34//34 42//42 23//23
f 43//43 21//21 35//35
f 21//21 43//43 29//29
f 31//31 44//44 24//24
f 36//36 24//24 44//44
f 25//25 35//35 27//27
f 35//35 25//25 33//33
f 34//34 26//26 36//36
f 28//28 36//36 26//26
f 38//38 45//45 46//46
f 45//45 38//38 37//37
f 39//39 40//40 47//47
f 48//48 47//47 40//40
f 30//30 49//49 41//41
f 49//49 30//30 38//38
f 40//40 32//32 50//50
f 42//42 50//50 32//32
f 51//51 29//29 43//43
f 29//29 51//51 37//37
f 39//39 52//52 31//31
f 44//44 31//31 52//52
f 35//35 41//41 43//43
f 41//41 35//35 33//33
f 34//34 36//36 42//42
f 44//44 42//42 36//36
f 53//53 54//53 55//53
f 54//53 53//53 56//53
f 57//54 58//54 59//54
f 60//54 59//54 58//54
f 38//38 61//55 49//49
f 61//55 38//38 46//46
f 48//48 40//40 62//56
f 50//50 62//56 40//40
f 63//57 37//37 51//51
f 37//37 63//57 45//45
f 47//47 64//58 39//39
f 52//52 39//39 64//58
f 43//43 49//49 51//51
f 49//49 43//43 41//41
f 42//42 44//44 50//50
f 52//52 50//50 44//44
f 65//59 66//59 67//59
f 66//59 65//59 68//59
f 69//60 70//60 71//60
f 72//60 71//60 70//60
f 73//46 74//61 75//62
f 74//61 73//46 76//45
f 77//47 78//48 79//63
f 80//64 79//63 78//48
f 81//60 82//60 83//60
f 82//60 81//60 84//60
f 85//59 86//59 87//59
f 88//59 87//59 86//59
f 51//51 61//55 63//57
f 61//55 51//51 49//49
f 50//50 52//52 62//56
f 64//58 62//56 52//52
f 89//54 90//54 91//54
f 90//54 89//54 92//54
f 93//53 94//53 95//53
f 96//53 95//53 94//53
f 97//65 76//45 98//57
f 76//45 97//65 74//61
f 79//63 99//66 77//47
f 100//58 77//47 99//66
f 75//62 101//67 102//68
f 101//67 75//62 74//61
f 79//63 80//64 103//69
f 104//70 103//69 80//64
f 73//46 105//71 106//55
f 105//71 73//46 75//62
f 80//64 78//48 107//72
f 108//56 107//72 78//48
f 98//57 105//71 97//65
f 105//71 98//57 106//55
f 108//56 100//58 107//72
f 99//66 107//72 100//58
f 109//73 74//61 97//65
f 74//61 109//73 101//67
f 103//69 110//74 79//63
f 99//66 79//63 110//74
f 102//68 111//75 112//76
f 111//75 102//68 101//67
f 103//69 104//70 113//77
f 114//78 113//77 104//70
f 75//62 115//79 105//71
f 115//79 75//62 102//68
f 104//70 80//64 116//80
f 107//72 116//80 80//64
f 97//65 115//79 109//73
f 115//79 97//65 105//71
f 107//72 99//66 116//80
f 110//74 116//80 99//66
f 117//81 101//67 109//73
f 101//67 117//81 111//75
f 113//77 118//82 103//69
f 110//74 103//69 118//82
f 119//83 112//76 111//75
f 112//76 119//83 120//84
f 121//85 122//86 114//78
f 113//77 114//78 122//86
f 102//68 123//87 115//79
f 123//87 102//68 112//76
f 114//78 104//70 124//88
f 116//80 124//88 104//70
f 109//73 123//87 117//81
f 123//87 109//73 115//79
f 116//80 110//74 124//88
f 118//82 124//88 110//74
f 125//89 111//75 117//81
f 111//75 125//89 119//83
f 122//86 126//90 113//77
f 118//82 113//77 126//90
f 127//91 120//84 119//83
f 120//84 127//91 128//92
f 129//93 130//94 121//85
f 122//86 121//85 130//94
f 123//87 120//84 131//95
f 120//84 123//87 112//76
f 114//78 124//88 121//85
f 132//96 121//85 124//88
f 123//87 125//89 117//81
f 125//89 123//87 131//95
f 132//96 124//88 126//90
f 118//82 126//90 124//88
f 133//97 119//83 125//89
f 119//83 133//97 127//91
f 130//94 134//98 122//86
f 126//90 122//86 134//98
f 135//3 128//92 127//91
f 128//92 135//3 136//2
f 137//7 138//8 129//93
f 130//94 129//93 138//8
f 131//95 128//92 139//99
f 128//92 131//95 120//84
f 121//85 132//96 129//93
f 140//100 129//93 132//96
f 131//95 133//97 125//89
f 133//97 131//95 139//99
f 140//100 132//96 134//98
f 126//90 134//98 132//96
f 141//18 127//91 133//97
f 127//91 141//18 135//3
f 138//8 142//20 130//94
f 134//98 130//94 142//20
f 143//101 144//101 145//101
f 144//101 143//101 146//101
f 147//102 148//102 149//102
f 150//102 149//102 148//102
f 139//99 136//2 151//13
f 136//2 139//99 128//92
f 129//93 140//100 137//7
f 152//15 137//7 140//100
f 139//99 141//18 133//97
f 141//18 139//99 151//13
f 152//15 140//100 142//20
f 134//98 142//20 140//100
