# SSTK version 0.8.0
# 62
mtllib original-62.mtl
o #ID407
v 0.573406 0.353839 -0.284409
v 0.572124 0.354270 -0.320806
v 0.572124 0.354270 -0.284409
v 0.573406 0.353839 -0.320806
v 0.573406 0.353839 -0.320806
v 0.573406 0.353839 -0.284409
v 0.572124 0.354270 -0.320806
v 0.572124 0.354270 -0.284409
v 0.574508 0.353154 -0.284409
v 0.574508 0.353154 -0.320806
v 0.574508 0.353154 -0.320806
v 0.574508 0.353154 -0.284409
v 0.573406 0.353839 -0.320806
v 0.572148 0.354342 -0.321385
v 0.572124 0.354270 -0.320806
v 0.572152 0.354356 -0.321492
v 0.573461 0.353916 -0.321492
v 0.573461 0.353916 -0.321492
v 0.573406 0.353839 -0.320806
v 0.572152 0.354356 -0.321492
v 0.572148 0.354342 -0.321385
v 0.572124 0.354270 -0.320806
v 0.570747 0.354417 -0.320806
v 0.570747 0.354417 -0.284409
v 0.570747 0.354417 -0.320806
v 0.570747 0.354417 -0.284409
v 0.575353 0.352261 -0.320806
v 0.575353 0.352261 -0.284409
v 0.575353 0.352261 -0.320806
v 0.575353 0.352261 -0.284409
v 0.574508 0.353154 -0.320806
v 0.574586 0.353217 -0.321492
v 0.574586 0.353217 -0.321492
v 0.574508 0.353154 -0.320806
v 0.572235 0.354607 -0.322130
v 0.573622 0.354142 -0.322130
v 0.573622 0.354142 -0.322130
v 0.572235 0.354607 -0.322130
v 0.570747 0.354417 -0.320806
v 0.570747 0.354417 -0.320806
v 0.575885 0.351221 -0.320806
v 0.575885 0.351221 -0.284409
v 0.575885 0.351221 -0.320806
v 0.575885 0.351221 -0.284409
v 0.575448 0.352306 -0.321492
v 0.575353 0.352261 -0.320806
v 0.575448 0.352306 -0.321492
v 0.575353 0.352261 -0.320806
v 0.574813 0.353401 -0.322130
v 0.574813 0.353401 -0.322130
v 0.572368 0.355008 -0.322679
v 0.573878 0.354501 -0.322679
v 0.573878 0.354501 -0.322679
v 0.572368 0.355008 -0.322679
v 0.572406 0.354329 -0.321492
v 0.575828 0.354224 -0.322130
v 0.575738 0.354151 -0.321929
v 0.577270 0.354070 -0.322130
v 0.577270 0.354070 -0.322130
v 0.575738 0.354151 -0.321929
v 0.575828 0.354224 -0.322130
v 0.572406 0.354329 -0.321492
v 0.576066 0.350106 -0.320806
v 0.576066 0.350106 -0.284409
v 0.576066 0.350106 -0.320806
v 0.576066 0.350106 -0.284409
v 0.575974 0.351241 -0.321385
v 0.575885 0.351221 -0.320806
v 0.575990 0.351244 -0.321492
v 0.575990 0.351244 -0.321492
v 0.575974 0.351241 -0.321385
v 0.575885 0.351221 -0.320806
v 0.575726 0.352436 -0.322130
v 0.575726 0.352436 -0.322130
v 0.575174 0.353694 -0.322679
v 0.575174 0.353694 -0.322679
v 0.574211 0.354969 -0.323100
v 0.572540 0.355530 -0.323100
v 0.572540 0.355530 -0.323100
v 0.574211 0.354969 -0.323100
v 0.576280 0.354590 -0.322679
v 0.585007 0.353659 -0.322679
v 0.585007 0.353659 -0.322679
v 0.576280 0.354590 -0.322679
v 0.572406 0.354329 -0.325418
v 0.575738 0.354151 -0.324980
v 0.577270 0.354070 -0.324779
v 0.577270 0.354070 -0.324779
v 0.575738 0.354151 -0.324980
v 0.572406 0.354329 -0.325418
v 0.575974 0.351241 -0.321385
v 0.576066 0.350106 -0.320806
v 0.576066 0.350106 -0.320806
v 0.575974 0.351241 -0.321385
v 0.576301 0.351312 -0.322130
v 0.576301 0.351312 -0.322130
v 0.576170 0.352643 -0.322679
v 0.576170 0.352643 -0.322679
v 0.575646 0.354077 -0.323100
v 0.575646 0.354077 -0.323100
v 0.574599 0.355514 -0.323365
v 0.572741 0.356138 -0.323365
v 0.572741 0.356138 -0.323365
v 0.574599 0.355514 -0.323365
v 0.576869 0.355068 -0.323100
v 0.595090 0.353123 -0.323100
v 0.576869 0.355068 -0.323100
v 0.595090 0.353123 -0.323100
v 0.585007 0.353659 -0.324230
v 0.585007 0.353659 -0.324230
v 0.575957 0.354329 -0.325418
v 0.575957 0.354329 -0.325418
v 0.575957 0.351450 -0.321492
v 0.575738 0.354151 -0.321929
v 0.575638 0.355393 -0.322130
v 0.575828 0.354224 -0.322130
v 0.575828 0.354224 -0.322130
v 0.575638 0.355393 -0.322130
v 0.575738 0.354151 -0.321929
v 0.575957 0.351450 -0.321492
v 0.576795 0.351419 -0.322679
v 0.576795 0.351419 -0.322679
v 0.576747 0.352913 -0.323100
v 0.576747 0.352913 -0.323100
v 0.576195 0.354521 -0.323365
v 0.576195 0.354521 -0.323365
v 0.575016 0.356099 -0.323455
v 0.572957 0.356790 -0.323455
v 0.572957 0.356790 -0.323455
v 0.575016 0.356099 -0.323455
v 0.577555 0.355624 -0.323365
v 0.606832 0.352500 -0.323365
v 0.577555 0.355624 -0.323365
v 0.606832 0.352500 -0.323365
v 0.595090 0.353123 -0.323810
v 0.595090 0.353123 -0.323810
v 0.575638 0.354070 -0.324779
v 0.575131 0.353659 -0.324230
v 0.575638 0.354070 -0.324779
v 0.575131 0.353659 -0.324230
v 0.576066 0.354417 -0.326103
v 0.570747 0.354417 -0.326103
v 0.576066 0.354417 -0.326103
v 0.570747 0.354417 -0.326103
v 0.575738 0.354151 -0.324980
v 0.575957 0.351450 -0.325418
v 0.575957 0.351450 -0.325418
v 0.575738 0.354151 -0.324980
v 0.575131 0.361664 -0.322679
v 0.576280 0.354590 -0.322679
v 0.576280 0.354590 -0.322679
v 0.575131 0.361664 -0.322679
v 0.575738 0.354151 -0.324980
v 0.575638 0.355393 -0.324779
v 0.575638 0.355393 -0.324779
v 0.575738 0.354151 -0.324980
v 0.577439 0.351559 -0.323100
v 0.577439 0.351559 -0.323100
v 0.577419 0.353228 -0.323365
v 0.577419 0.353228 -0.323365
v 0.576784 0.354999 -0.323455
v 0.576784 0.354999 -0.323455
v 0.578291 0.356221 -0.323455
v 0.619433 0.351830 -0.323455
v 0.578291 0.356221 -0.323455
v 0.619433 0.351830 -0.323455
v 0.606832 0.352500 -0.323545
v 0.606832 0.352500 -0.323545
v 0.574470 0.353123 -0.323810
v 0.574470 0.353123 -0.323810
v 0.575131 0.361664 -0.324230
v 0.575131 0.361664 -0.324230
v 0.576066 0.350106 -0.326103
v 0.576066 0.350106 -0.326103
v 0.576869 0.355068 -0.323100
v 0.574470 0.369838 -0.323100
v 0.574470 0.369838 -0.323100
v 0.576869 0.355068 -0.323100
v 0.578189 0.351722 -0.323365
v 0.578189 0.351722 -0.323365
v 0.578140 0.353566 -0.323455
v 0.578140 0.353566 -0.323455
v 0.573700 0.352500 -0.323545
v 0.573700 0.352500 -0.323545
v 0.574470 0.369838 -0.323810
v 0.574470 0.369838 -0.323810
v 0.577555 0.355624 -0.323365
v 0.573700 0.379355 -0.323365
v 0.573700 0.379355 -0.323365
v 0.577555 0.355624 -0.323365
v 0.578993 0.351897 -0.323455
v 0.578993 0.351897 -0.323455
v 0.572875 0.351830 -0.323455
v 0.572875 0.351830 -0.323455
v 0.573700 0.379355 -0.323545
v 0.573700 0.379355 -0.323545
v 0.578291 0.356221 -0.323455
v 0.572875 0.389569 -0.323455
v 0.572875 0.389569 -0.323455
v 0.578291 0.356221 -0.323455
vn 0.4238679253915858 0.9057240097426108 0
vn 0.21224546884429427 0.9772163838961491 0
vn -0.4238679253915858 -0.9057240097426108 0
vn -0.21224546884429427 -0.9772163838961491 0
vn 0.6296932577296294 0.7768438718107048 0
vn -0.6296932577296294 -0.7768438718107048 0
vn 0.420022519169462 0.8975070486571864 0.13439561377219736
vn 0.2104420652409932 0.9689131410430167 0.1300825210828158
vn 0.2999709222910484 0.946766501202823 -0.11683594472602425
vn 0.4082616310660821 0.8723763223296447 0.2688531064314976
vn -0.4082616310660821 -0.8723763223296447 -0.2688531064314976
vn -0.420022519169462 -0.8975070486571864 -0.13439561377219736
vn -0.2999709222910484 -0.946766501202823 0.11683594472602425
vn -0.2104420652409932 -0.9689131410430167 -0.1300825210828158
vn 0.10611224543608931 0.9943541579178472 0
vn -0.10611224543608931 -0.9943541579178472 0
vn 0.8145096449498493 0.5801500136030943 0
vn -0.8145096449498493 -0.5801500136030943 0
vn 0.6233981741776901 0.7690777142096336 0.14104675089489865
vn 0.6042529443103314 0.7454585086451825 0.2813716246901879
vn -0.6042529443103314 -0.7454585086451825 -0.2813716246901879
vn -0.6233981741776901 -0.7690777142096336 -0.14104675089489865
vn 0.0025322041024020045 0.8762675462849627 0.48181819732147363
vn 0.3631060488479554 0.7758875695791115 0.5158996769359769
vn -0.3631060488479554 -0.7758875695791115 -0.5158996769359769
vn -0.0025322041024020045 -0.8762675462849627 -0.48181819732147363
vn 0.10524086571207363 0.9861888321248001 0.12789037327530223
vn -0.10524086571207363 -0.9861888321248001 -0.12789037327530223
vn 0.9494688350484497 0.31386132490598423 0
vn -0.9494688350484497 -0.31386132490598423 0
vn 0.7780553874320928 0.5541848035018627 0.29581923138210264
vn 0.8054426301658303 0.5736919040633643 0.1487943840462435
vn -0.7780553874320928 -0.5541848035018627 -0.29581923138210264
vn -0.8054426301658303 -0.5736919040633643 -0.1487943840462435
vn 0.5321473629972223 0.656502849236664 0.5346243475555941
vn -0.5321473629972223 -0.656502849236664 -0.5346243475555941
vn 0.002549194001456942 0.7240666904417173 0.6897252564628333
vn 0.2928965966637351 0.6258634844182769 0.7228460987890953
vn -0.2928965966637351 -0.6258634844182769 -0.7228460987890953
vn -0.002549194001456942 -0.7240666904417173 -0.6897252564628333
vn 0.0872830066487648 0.9889652499561452 -0.11970551837543221
vn 0.0923663764945293 0.8655446577395588 0.4922406910768154
vn 0.11613095977995436 -0.212573169158275 0.9702196905518843
vn 0.10704011887265459 0.7568333143590016 0.6447834886441315
vn -0.10704011887265459 -0.7568333143590016 -0.6447834886441315
vn -0.11613095977995436 0.212573169158275 -0.9702196905518843
vn -0.0923663764945293 -0.8655446577395588 -0.4922406910768154
vn -0.0872830066487648 -0.9889652499561452 0.11970551837543221
vn 0.9870655659525882 0.16031708739462835 0
vn -0.9870655659525882 -0.16031708739462835 0
vn 0.9379416183808206 0.31005084385675946 0.15535119804133687
vn 0.8923896384346047 0.4303285855267808 -0.13586037572844972
vn -0.8923896384346047 -0.4303285855267808 0.13586037572844972
vn -0.9379416183808206 -0.31005084385675946 -0.15535119804133687
vn 0.6772521384338938 0.4823857571007046 0.5555479478254762
vn -0.6772521384338938 -0.4823857571007046 -0.5555479478254762
vn 0.4238162292812033 0.5228562263443962 0.7395952747082419
vn -0.4238162292812033 -0.5228562263443962 -0.7395952747082419
vn 0.20380088285580747 0.4354832470541229 0.8768235521941637
vn 0.0023880179344935846 0.5181865896007991 0.8552642607570115
vn -0.0023880179344935846 -0.5181865896007991 -0.8552642607570115
vn -0.20380088285580747 -0.4354832470541229 -0.8768235521941637
vn 0.07580693018414694 0.7103698123119128 0.6997342631971036
vn 0.06227797593559028 0.06441648710889471 0.9959778962918383
vn -0.06227797593559028 -0.06441648710889471 -0.9959778962918383
vn -0.07580693018414694 -0.7103698123119128 -0.6997342631971036
vn 0.017677134460065184 0.9952836992993671 0.09538279103825573
vn 0.027069440981954053 0.9812501609297 0.190828108622295
vn 0.02708501791029227 0.9980532979137549 0.05617843294607591
vn -0.02708501791029227 -0.9980532979137549 -0.05617843294607591
vn -0.027069440981954053 -0.9812501609297 -0.190828108622295
vn -0.017677134460065184 -0.9952836992993671 -0.09538279103825573
vn 0.9749834929419929 0.15835471407645418 0.15598388705374402
vn -0.9749834929419929 -0.15835471407645418 -0.15598388705374402
vn 0.6890994638048075 0.48504732757326624 0.5383967115408111
vn -0.6890994638048075 -0.48504732757326624 -0.5383967115408111
vn 0.5316786604989129 0.3786982892942653 0.757565447770474
vn -0.5316786604989129 -0.3786982892942653 -0.757565447770474
vn 0.29139412037501555 0.3594889002165508 0.8864858697305704
vn -0.29139412037501555 -0.3594889002165508 -0.8864858697305704
vn 0.10250266340989149 0.2190283782747124 0.9703194182866939
vn 0.0019359797675418088 0.27048012805074223 0.9627236115895329
vn -0.0019359797675418088 -0.27048012805074223 -0.9627236115895329
vn -0.10250266340989149 -0.2190283782747124 -0.9703194182866939
vn 0.053883765958153425 0.5049326880265157 0.8614752000658429
vn -0.01109535431855792 -0.5653728001784233 0.8247608683315147
vn -0.053883765958153425 -0.5049326880265157 -0.8614752000658429
vn 0.01109535431855792 0.5653728001784233 -0.8247608683315147
vn -0.05491745530448478 0.07387730352621615 0.9957540947074107
vn 0.05491745530448478 -0.07387730352621615 -0.9957540947074107
vn 0.5905086718112489 0.728502389562845 0.347251748616101
vn -0.5905086718112489 -0.728502389562845 -0.347251748616101
vn 0.9804195755612626 0.13169522908950032 -0.14640294563750336
vn -0.17304074133625155 0.14387890609380988 0.974348891423934
vn 0.6818332761973598 0.14676886528932725 0.7166326001876123
vn 0.8114730792185567 0.1317977344238982 0.5693336446270163
vn -0.8114730792185567 -0.1317977344238982 -0.5693336446270163
vn -0.6818332761973598 -0.14676886528932725 -0.7166326001876123
vn 0.17304074133625155 -0.14387890609380988 -0.974348891423934
vn -0.9804195755612626 -0.13169522908950032 0.14640294563750336
vn 0.5480425973252445 0.38645757410990556 0.7418219833154627
vn -0.5480425973252445 -0.38645757410990556 -0.7418219833154627
vn 0.3609048098080607 0.2570612886417165 0.8964748809304518
vn -0.3609048098080607 -0.2570612886417165 -0.8964748809304518
vn 0.14535978822483347 0.17932836234789215 0.9729911975063572
vn -0.14535978822483347 -0.17932836234789215 -0.9729911975063572
vn 0.05373138102339211 0.1148136034930451 0.9919328481032681
vn 0.0016091340643036378 0.13654034518941124 0.990633203977698
vn -0.0016091340643036378 -0.13654034518941124 -0.990633203977698
vn -0.05373138102339211 -0.1148136034930451 -0.9919328481032681
vn 0.027999904456698928 0.26238087976033514 0.9645580746054684
vn -0.029889301164392274 -0.6674189633913907 0.7440823590043416
vn -0.027999904456698928 -0.26238087976033514 -0.9645580746054684
vn 0.029889301164392274 0.6674189633913907 -0.7440823590043416
vn -0.048845836540424965 -0.5626545877425728 0.8252477804543928
vn 0.048845836540424965 0.5626545877425728 -0.8252477804543928
vn 0.5283281177273563 0.6517910991163998 -0.5440935242504769
vn 0.32293145812442 0.398396078057684 0.8584846174171623
vn -0.5283281177273563 -0.6517910991163998 0.5440935242504769
vn -0.32293145812442 -0.398396078057684 -0.8584846174171623
vn 0.6174934351030231 0.7617931191969205 0.19589053358673278
vn 0 0.9918357066446463 0.12752227658223142
vn -0.6174934351030231 -0.7617931191969205 -0.19589053358673278
vn 0 -0.9918357066446463 -0.12752227658223142
vn 0.5331384863918102 0.6577255844745636 0.5321281893072789
vn 0.9927256225087752 0.026835124044843544 0.11736998991250981
vn -0.9927256225087752 -0.026835124044843544 -0.11736998991250981
vn -0.5331384863918102 -0.6577255844745636 -0.5321281893072789
vn 0.052198951551059955 0.07680838504466346 0.9956785331841802
vn 0.6320601667696876 0.10265786687801055 0.7680893879953891
vn -0.6320601667696876 -0.10265786687801055 -0.7680893879953891
vn -0.052198951551059955 -0.07680838504466346 -0.9956785331841802
vn 0.9715954047628034 0.04079382232681111 0.23310562735329457
vn 0.9967518356609495 0.041169144176653946 0.06921618072596297
vn -0.9967518356609495 -0.041169144176653946 -0.06921618072596297
vn -0.9715954047628034 -0.04079382232681111 -0.23310562735329457
vn 0.3779247427381717 0.26732732736799775 0.8864022725989427
vn -0.3779247427381717 -0.26732732736799775 -0.8864022725989427
vn 0.1785215582652757 0.1271554073143985 0.9756851723918157
vn -0.1785215582652757 -0.1271554073143985 -0.9756851723918157
vn 0.07604497016354866 0.0938156290041548 0.9926811120734492
vn -0.07604497016354866 -0.0938156290041548 -0.9926811120734492
vn 0.014135683516756184 0.13246228904692856 0.991087243602682
vn -0.000010200467411459544 -0.00019199732374128528 0.999999981516489
vn -0.014135683516756184 -0.13246228904692856 -0.991087243602682
vn 0.000010200467411459544 0.00019199732374128528 -0.999999981516489
vn -0.04098892827456128 -0.666658922905585 0.7442350356367725
vn 0.04098892827456128 0.666658922905585 -0.7442350356367725
vn 0.19798344592288014 0.2442494417673966 0.9492864506232127
vn -0.19798344592288014 -0.2442494417673966 -0.9492864506232127
vn 0.05989229603549578 -0.0677609886720401 0.9959022850108259
vn -0.05989229603549578 0.0677609886720401 -0.9959022850108259
vn 0.9876527545369124 0 0.15665898140754564
vn -0.9876527545369124 0 -0.15665898140754564
vn 0.42809274130860275 0.06952991848867035 0.9010561554497281
vn -0.4856556325099828 -0.014505880529577965 0.8740298542048723
vn 0.4856556325099828 0.014505880529577965 -0.8740298542048723
vn -0.42809274130860275 -0.06952991848867035 -0.9010561554497281
vn 0.19210379440499292 0.1368748113497432 0.9717825982148356
vn -0.19210379440499292 -0.1368748113497432 -0.9717825982148356
vn 0.09320605227598985 0.06638778380770172 0.993431071579819
vn -0.09320605227598985 -0.06638778380770172 -0.993431071579819
vn 0.08279681218301688 0.10214528321574552 0.9913178244181355
vn -0.08279681218301688 -0.10214528321574552 -0.9913178244181355
vn -0.4827158687502327 -0.06378031579337196 0.873451464807293
vn 0.4827158687502327 0.06378031579337196 -0.873451464807293
vn 0.21519144401496862 0.03495093248304321 0.9759462458257209
vn -0.5875896317156037 -0.040049836230562484 0.8081673312614325
vn 0.5875896317156037 0.040049836230562484 -0.8081673312614325
vn -0.21519144401496862 -0.03495093248304321 -0.9759462458257209
vn 0.09627136681406957 0.06949388082949425 0.9929261928557465
vn -0.09627136681406957 -0.06949388082949425 -0.9929261928557465
vn 0.05443128326351406 0.06715112210429452 0.9962569759868289
vn -0.05443128326351406 -0.06715112210429452 -0.9962569759868289
vn -0.58665812673868 -0.05489810578412109 0.8079718066323714
vn 0.58665812673868 0.05489810578412109 -0.8079718066323714
vn 0.10769001663587925 0.017490789105322264 0.9940306497354281
vn -0.0001556289821029806 -0.000012584175788674565 0.9999999878106292
vn 0.0001556289821029806 0.000012584175788674565 -0.9999999878106292
vn -0.10769001663587925 -0.017490789105322264 -0.9940306497354281
usemtl material_0_0
f 1//1 2//2 3//2
f 2//2 1//1 4//1
f 5//3 6//3 7//4
f 8//4 7//4 6//3
f 9//5 4//1 1//1
f 4//1 9//5 10//5
f 11//6 12//6 5//3
f 6//3 5//3 12//6
f 13//7 14//8 15//8
f 14//8 13//7 16//9
f 16//9 13//7 17//10
f 18//11 19//12 20//13
f 20//13 19//12 21//14
f 22//14 21//14 19//12
f 3//2 23//15 24//15
f 23//15 3//2 2//2
f 7//4 8//4 25//16
f 26//16 25//16 8//4
f 27//17 9//5 28//17
f 9//5 27//17 10//5
f 11//6 29//18 12//6
f 30//18 12//6 29//18
f 31//19 17//10 13//7
f 17//10 31//19 32//20
f 33//21 34//22 18//11
f 19//12 18//11 34//22
f 17//10 35//23 16//9
f 35//23 17//10 36//24
f 37//25 18//11 38//26
f 20//13 38//26 18//11
f 14//8 39//27 15//8
f 22//14 40//28 21//14
f 41//29 28//17 42//29
f 28//17 41//29 27//17
f 29//18 43//30 30//18
f 44//30 30//18 43//30
f 45//31 31//19 46//32
f 31//19 45//31 32//20
f 33//21 47//33 34//22
f 48//34 34//22 47//33
f 32//20 36//24 17//10
f 36//24 32//20 49//35
f 50//36 33//21 37//25
f 18//11 37//25 33//21
f 36//24 51//37 35//23
f 51//37 36//24 52//38
f 53//39 37//25 54//40
f 38//26 54//40 37//25
f 55//41 35//23 16//9
f 35//23 55//41 56//42
f 56//42 55//41 57//43
f 56//42 57//43 58//44
f 59//45 60//46 61//47
f 60//46 62//48 61//47
f 61//47 62//48 38//26
f 20//13 38//26 62//48
f 63//49 42//29 64//49
f 42//29 63//49 41//29
f 43//30 65//50 44//30
f 66//50 44//30 65//50
f 67//51 46//32 68//51
f 46//32 67//51 45//31
f 45//31 67//51 69//52
f 70//53 71//54 47//33
f 47//33 71//54 48//34
f 72//54 48//34 71//54
f 73//55 32//20 45//31
f 32//20 73//55 49//35
f 50//36 74//56 33//21
f 47//33 33//21 74//56
f 49//35 52//38 36//24
f 52//38 49//35 75//57
f 76//58 50//36 53//39
f 37//25 53//39 50//36
f 77//59 51//37 52//38
f 51//37 77//59 78//60
f 79//61 80//62 54//40
f 53//39 54//40 80//62
f 56//42 51//37 35//23
f 51//37 56//42 81//63
f 81//63 56//42 58//44
f 81//63 58//44 82//64
f 83//65 59//45 84//66
f 59//45 61//47 84//66
f 84//66 61//47 54//40
f 38//26 54//40 61//47
f 60//46 85//67 55//41
f 85//67 60//46 86//68
f 86//68 60//46 58//44
f 86//68 58//44 87//69
f 88//70 59//45 89//71
f 59//45 57//43 89//71
f 89//71 57//43 90//72
f 62//48 90//72 57//43
f 91//73 68//51 92//73
f 93//74 72//54 94//74
f 95//75 45//31 69//52
f 45//31 95//75 73//55
f 74//56 96//76 47//33
f 70//53 47//33 96//76
f 97//77 49//35 73//55
f 49//35 97//77 75//57
f 76//58 98//78 50//36
f 74//56 50//36 98//78
f 99//79 52//38 75//57
f 52//38 99//79 77//59
f 80//62 100//80 53//39
f 76//58 53//39 100//80
f 101//81 78//60 77//59
f 78//60 101//81 102//82
f 103//83 104//84 79//61
f 80//62 79//61 104//84
f 105//85 82//64 106//86
f 82//64 105//85 81//63
f 81//63 105//85 51//37
f 51//37 105//85 78//60
f 79//61 107//87 54//40
f 54//40 107//87 84//66
f 84//66 107//87 83//65
f 108//88 83//65 107//87
f 82//64 87//69 58//44
f 87//69 82//64 109//89
f 110//90 83//65 88//70
f 59//45 88//70 83//65
f 111//91 85//67 86//68
f 89//71 90//72 112//92
f 95//75 113//93 69//52
f 113//93 95//75 114//94
f 114//94 95//75 115//95
f 115//95 95//75 116//96
f 117//97 96//76 118//98
f 118//98 96//76 119//99
f 119//99 96//76 120//100
f 70//53 120//100 96//76
f 121//101 73//55 95//75
f 73//55 121//101 97//77
f 98//78 122//102 74//56
f 96//76 74//56 122//102
f 123//103 75//57 97//77
f 75//57 123//103 99//79
f 100//80 124//104 76//58
f 98//78 76//58 124//104
f 125//105 77//59 99//79
f 77//59 125//105 101//81
f 104//84 126//106 80//62
f 100//80 80//62 126//106
f 127//107 102//82 101//81
f 102//82 127//107 128//108
f 129//109 130//110 103//83
f 104//84 103//83 130//110
f 131//111 106//86 132//112
f 106//86 131//111 105//85
f 105//85 131//111 78//60
f 78//60 131//111 102//82
f 103//83 133//113 79//61
f 79//61 133//113 107//87
f 107//87 133//113 108//88
f 134//114 108//88 133//113
f 135//115 83//65 110//90
f 83//65 135//115 106//86
f 108//88 136//116 82//64
f 109//89 82//64 136//116
f 109//89 137//117 138//118
f 137//117 109//89 87//69
f 88//70 110//90 139//119
f 140//120 139//119 110//90
f 85//67 141//121 142//122
f 141//121 85//67 111//91
f 112//92 90//72 143//123
f 144//124 143//123 90//72
f 111//91 145//125 146//126
f 147//127 148//128 112//92
f 121//101 116//96 95//75
f 116//96 121//101 115//95
f 115//95 121//101 149//129
f 149//129 121//101 150//130
f 151//131 122//102 152//132
f 152//132 122//102 118//98
f 118//98 122//102 117//97
f 96//76 117//97 122//102
f 146//126 119//99 113//93
f 119//99 146//126 115//95
f 115//95 146//126 153//133
f 115//95 153//133 154//134
f 155//135 156//136 118//98
f 156//136 147//127 118//98
f 118//98 147//127 114//94
f 120//100 114//94 147//127
f 157//137 97//77 121//101
f 97//77 157//137 123//103
f 124//104 158//138 98//78
f 122//102 98//78 158//138
f 159//139 99//79 123//103
f 99//79 159//139 125//105
f 126//106 160//140 100//80
f 124//104 100//80 160//140
f 161//141 101//81 125//105
f 101//81 161//141 127//107
f 130//110 162//142 104//84
f 126//106 104//84 162//142
f 163//143 132//112 164//144
f 132//112 163//143 131//111
f 131//111 163//143 102//82
f 102//82 163//143 128//108
f 129//109 165//145 103//83
f 103//83 165//145 133//113
f 133//113 165//145 134//114
f 166//146 134//114 165//145
f 167//147 106//86 135//115
f 106//86 167//147 132//112
f 134//114 168//148 108//88
f 136//116 108//88 168//148
f 109//89 169//149 135//115
f 169//149 109//89 138//118
f 140//120 110//90 170//150
f 136//116 170//150 110//90
f 137//117 171//151 138//118
f 171//151 137//117 154//134
f 155//135 139//119 172//152
f 140//120 172//152 139//119
f 173//153 111//91 146//126
f 111//91 173//153 141//121
f 143//123 174//154 112//92
f 147//127 112//92 174//154
f 157//137 150//130 121//101
f 150//130 157//137 175//155
f 150//130 175//155 149//129
f 149//129 175//155 176//156
f 177//157 178//158 152//132
f 152//132 178//158 151//131
f 178//158 158//138 151//131
f 122//102 151//131 158//138
f 154//134 149//129 115//95
f 149//129 154//134 171//151
f 172//152 155//135 152//132
f 118//98 152//132 155//135
f 179//159 123//103 157//137
f 123//103 179//159 159//139
f 160//140 180//160 124//104
f 158//138 124//104 180//160
f 181//161 125//105 159//139
f 125//105 181//161 161//141
f 162//142 182//162 126//106
f 160//140 126//106 182//162
f 164//144 132//112 167//147
f 168//148 134//114 166//146
f 135//115 183//163 167//147
f 183//163 135//115 169//149
f 170//150 136//116 184//164
f 168//148 184//164 136//116
f 138//118 185//165 169//149
f 185//165 138//118 171//151
f 172//152 140//120 186//166
f 170//150 186//166 140//120
f 179//159 175//155 157//137
f 175//155 179//159 187//167
f 175//155 187//167 176//156
f 176//156 187//167 188//168
f 189//169 190//170 177//157
f 177//157 190//170 178//158
f 190//170 180//160 178//158
f 158//138 178//158 180//160
f 176//156 172//152 152//132
f 172//152 176//156 185//165
f 186//166 177//157 171//151
f 149//129 171//151 177//157
f 191//171 159//139 179//159
f 159//139 191//171 181//161
f 182//162 192//172 160//140
f 180//160 160//140 192//172
f 167//147 193//173 164//144
f 193//173 167//147 183//163
f 184//164 168//148 194//174
f 166//146 194//174 168//148
f 169//149 195//175 183//163
f 195//175 169//149 185//165
f 186//166 170//150 196//176
f 184//164 196//176 170//150
f 191//171 187//167 179//159
f 187//167 191//171 197//177
f 187//167 197//177 188//168
f 188//168 197//177 198//178
f 199//179 200//180 189//169
f 189//169 200//180 190//170
f 200//180 192//172 190//170
f 180//160 190//170 192//172
f 188//168 185//165 176//156
f 185//165 188//168 195//175
f 196//176 189//169 186//166
f 177//157 186//166 189//169
f 183//163 198//178 193//173
f 198//178 183//163 195//175
f 196//176 184//164 199//179
f 194//174 199//179 184//164
f 195//175 188//168 198//178
f 199//179 189//169 196//176
