# SSTK version 0.8.0
# 69
mtllib original-69.mtl
o #ID449
v -0.870696 0.288693 -0.198845
v -0.857389 0.288693 -0.039932
v -0.870696 0.288693 -0.039932
v -0.857389 0.288693 -0.198845
v -0.857389 0.288693 -0.198845
v -0.870696 0.288693 -0.198845
v -0.857389 0.288693 -0.039932
v -0.870696 0.288693 -0.039932
v -0.870696 0.288693 -0.039932
v -0.857389 0.277916 -0.039932
v -0.870696 0.277916 -0.039932
v -0.857389 0.288693 -0.039932
v -0.857389 0.288693 -0.039932
v -0.870696 0.288693 -0.039932
v -0.857389 0.277916 -0.039932
v -0.870696 0.277916 -0.039932
v -0.871521 0.288781 -0.198935
v -0.870696 0.288693 -0.039932
v -0.871521 0.288781 -0.039841
v -0.870696 0.288693 -0.198845
v -0.870696 0.288693 -0.198845
v -0.871521 0.288781 -0.198935
v -0.870696 0.288693 -0.039932
v -0.871521 0.288781 -0.039841
v -0.857389 0.288693 -0.198845
v -0.870696 0.277916 -0.198845
v -0.857389 0.277916 -0.198845
v -0.870696 0.288693 -0.198845
v -0.870696 0.288693 -0.198845
v -0.857389 0.288693 -0.198845
v -0.870696 0.277916 -0.198845
v -0.857389 0.277916 -0.198845
v -0.857389 0.288693 -0.198845
v -0.857389 0.277916 -0.039932
v -0.857389 0.288693 -0.039932
v -0.857389 0.277916 -0.198845
v -0.857389 0.277916 -0.198845
v -0.857389 0.288693 -0.198845
v -0.857389 0.277916 -0.039932
v -0.857389 0.288693 -0.039932
v -0.857389 0.277916 -0.039932
v -0.870696 0.277916 -0.198845
v -0.870696 0.277916 -0.039932
v -0.857389 0.277916 -0.198845
v -0.857389 0.277916 -0.198845
v -0.857389 0.277916 -0.039932
v -0.870696 0.277916 -0.198845
v -0.870696 0.277916 -0.039932
v -0.870696 0.277916 -0.039932
v -0.871521 0.277827 -0.039841
v -0.870696 0.277916 -0.039932
v -0.871521 0.277827 -0.039841
v -0.872291 0.289040 -0.199199
v -0.872291 0.289040 -0.039577
v -0.872291 0.289040 -0.199199
v -0.872291 0.289040 -0.039577
v -0.870696 0.277916 -0.198845
v -0.871521 0.277827 -0.198935
v -0.870696 0.277916 -0.198845
v -0.871521 0.277827 -0.198935
v -0.872291 0.277569 -0.039577
v -0.872291 0.277569 -0.039577
v -0.872952 0.289451 -0.199620
v -0.872952 0.289451 -0.039156
v -0.872952 0.289451 -0.199620
v -0.872952 0.289451 -0.039156
v -0.872291 0.277569 -0.199199
v -0.872291 0.277569 -0.199199
v -0.872952 0.277158 -0.039156
v -0.872952 0.277158 -0.039156
v -0.873459 0.289986 -0.200169
v -0.873459 0.289986 -0.038607
v -0.873459 0.289986 -0.200169
v -0.873459 0.289986 -0.038607
v -0.872952 0.277158 -0.199620
v -0.872952 0.277158 -0.199620
v -0.873459 0.276622 -0.038607
v -0.873459 0.276622 -0.038607
v -0.873778 0.290610 -0.200808
v -0.873778 0.290610 -0.037969
v -0.873778 0.290610 -0.200808
v -0.873778 0.290610 -0.037969
v -0.873459 0.276622 -0.200169
v -0.873459 0.276622 -0.200169
v -0.873778 0.275999 -0.037969
v -0.873778 0.275999 -0.037969
v -0.873887 0.291279 -0.201493
v -0.873887 0.291279 -0.037283
v -0.873887 0.291279 -0.201493
v -0.873887 0.291279 -0.037283
v -0.873778 0.275999 -0.200808
v -0.873778 0.275999 -0.200808
v -0.873887 0.275329 -0.037283
v -0.873887 0.275329 -0.037283
v -0.873887 0.275329 -0.201493
v -0.873887 0.275329 -0.201493
vn 0 -1 0
vn 0 1 0
vn 0 0 -1
vn 0 0 1
vn -0.31756287986023884 -0.6783948373658164 0.6625211407723371
vn -0.15094381106654983 -0.707230228422173 -0.6906818152424651
vn -0.31756287986023884 -0.6783948373658161 -0.6625211407723375
vn -0.15094381106654983 -0.7072302284221732 0.6906818152424649
vn 0.15094381106654983 0.7072302284221732 -0.6906818152424649
vn 0.31756287986023884 0.6783948373658164 -0.6625211407723371
vn 0.15094381106654983 0.707230228422173 0.6906818152424651
vn 0.31756287986023884 0.6783948373658161 0.6625211407723375
vn -1 0 0
vn 1 0 0
vn -0.15094381106654983 0.7072302284221732 -0.6906818152424649
vn -0.31756287986023884 0.6783948373658164 -0.6625211407723371
vn 0.15094381106654983 -0.7072302284221732 0.6906818152424649
vn 0.31756287986023884 -0.6783948373658164 0.6625211407723371
vn -0.5878743504140147 -0.5787465659446918 0.5652045298230781
vn -0.5878743504140147 -0.5787465659446914 -0.5652045298230784
vn 0.5878743504140147 0.5787465659446918 -0.5652045298230781
vn 0.5878743504140147 0.5787465659446914 0.5652045298230784
vn -0.15094381106654983 0.707230228422173 0.6906818152424651
vn -0.31756287986023884 0.6783948373658161 0.6625211407723375
vn 0.15094381106654983 -0.707230228422173 -0.6906818152424651
vn 0.31756287986023884 -0.6783948373658161 -0.6625211407723375
vn -0.5878743504140147 0.5787465659446918 -0.5652045298230781
vn 0.5878743504140147 -0.5787465659446918 0.5652045298230781
vn -0.7879219729214685 -0.4405423419539726 0.4302341333893087
vn -0.7879219729214686 -0.4405423419539725 -0.43023413338930894
vn 0.7879219729214685 0.4405423419539726 -0.4302341333893087
vn 0.7879219729214686 0.4405423419539725 0.43023413338930894
vn -0.5878743504140147 0.5787465659446914 0.5652045298230784
vn 0.5878743504140147 -0.5787465659446914 -0.5652045298230784
vn -0.7879219729214685 0.4405423419539726 -0.4302341333893087
vn 0.7879219729214685 -0.4405423419539726 0.4302341333893087
vn -0.9175654547735249 -0.2844430061397387 0.2777873511599167
vn -0.9175654547735249 -0.2844430061397386 -0.2777873511599168
vn 0.9175654547735249 0.2844430061397387 -0.2777873511599167
vn 0.9175654547735249 0.2844430061397386 0.2777873511599168
vn -0.7879219729214686 0.4405423419539725 0.43023413338930894
vn 0.7879219729214686 -0.4405423419539725 -0.43023413338930894
vn -0.9175654547735249 0.2844430061397387 -0.2777873511599167
vn 0.9175654547735249 -0.2844430061397387 0.2777873511599167
vn -0.9852762437173928 -0.12231657756960942 0.11945450354759599
vn -0.9852762437173928 -0.12231657756960938 -0.11945450354759603
vn 0.9852762437173928 0.12231657756960942 -0.11945450354759599
vn 0.9852762437173928 0.12231657756960938 0.11945450354759603
vn -0.9175654547735249 0.2844430061397386 0.2777873511599168
vn 0.9175654547735249 -0.2844430061397386 -0.2777873511599168
vn -0.9852762437173928 0.12231657756960942 -0.11945450354759599
vn 0.9852762437173928 -0.12231657756960942 0.11945450354759599
vn -0.9936192124182132 -0.0806907564248048 0.07880268105212179
vn -0.9936192124182132 -0.08069075642480476 -0.07880268105212183
vn 0.9936192124182132 0.0806907564248048 -0.07880268105212179
vn 0.9936192124182132 0.08069075642480476 0.07880268105212183
vn -0.9852762437173928 0.12231657756960938 0.11945450354759603
vn 0.9852762437173928 -0.12231657756960938 -0.11945450354759603
vn -0.9936192124182132 0.0806907564248048 -0.07880268105212179
vn 0.9936192124182132 -0.0806907564248048 0.07880268105212179
vn -0.9936192124182132 0.08069075642480476 0.07880268105212183
vn 0.9936192124182132 -0.08069075642480476 -0.07880268105212183
usemtl material_0_0
f 1//1 2//1 3//1
f 2//1 1//1 4//1
f 5//2 6//2 7//2
f 8//2 7//2 6//2
f 9//3 10//3 11//3
f 10//3 9//3 12//3
f 13//4 14//4 15//4
f 16//4 15//4 14//4
f 17//5 18//6 19//7
f 18//6 17//5 20//8
f 21//9 22//10 23//11
f 24//12 23//11 22//10
f 25//4 26//4 27//4
f 26//4 25//4 28//4
f 29//3 30//3 31//3
f 32//3 31//3 30//3
f 33//13 34//13 35//13
f 34//13 33//13 36//13
f 37//14 38//14 39//14
f 40//14 39//14 38//14
f 41//2 42//2 43//2
f 42//2 41//2 44//2
f 45//1 46//1 47//1
f 48//1 47//1 46//1
f 19//7 49//15 50//16
f 49//15 19//7 18//6
f 23//11 24//12 51//17
f 52//18 51//17 24//12
f 53//19 19//7 54//20
f 19//7 53//19 17//5
f 22//10 55//21 24//12
f 56//22 24//12 55//21
f 57//23 17//5 58//24
f 17//5 57//23 20//8
f 21//9 59//25 22//10
f 60//26 22//10 59//25
f 49//15 58//24 50//16
f 58//24 49//15 57//23
f 59//25 51//17 60//26
f 52//18 60//26 51//17
f 54//20 50//16 61//27
f 50//16 54//20 19//7
f 24//12 56//22 52//18
f 62//28 52//18 56//22
f 63//29 54//20 64//30
f 54//20 63//29 53//19
f 55//21 65//31 56//22
f 66//32 56//22 65//31
f 58//24 53//19 67//33
f 53//19 58//24 17//5
f 22//10 60//26 55//21
f 68//34 55//21 60//26
f 50//16 67//33 61//27
f 67//33 50//16 58//24
f 60//26 52//18 68//34
f 62//28 68//34 52//18
f 64//30 61//27 69//35
f 61//27 64//30 54//20
f 56//22 66//32 62//28
f 70//36 62//28 66//32
f 71//37 64//30 72//38
f 64//30 71//37 63//29
f 65//31 73//39 66//32
f 74//40 66//32 73//39
f 67//33 63//29 75//41
f 63//29 67//33 53//19
f 55//21 68//34 65//31
f 76//42 65//31 68//34
f 61//27 75//41 69//35
f 75//41 61//27 67//33
f 68//34 62//28 76//42
f 70//36 76//42 62//28
f 64//30 77//43 72//38
f 77//43 64//30 69//35
f 70//36 66//32 78//44
f 74//40 78//44 66//32
f 79//45 72//38 80//46
f 72//38 79//45 71//37
f 73//39 81//47 74//40
f 82//48 74//40 81//47
f 71//37 75//41 63//29
f 75//41 71//37 83//49
f 84//50 73//39 76//42
f 65//31 76//42 73//39
f 69//35 83//49 77//43
f 83//49 69//35 75//41
f 76//42 70//36 84//50
f 78//44 84//50 70//36
f 72//38 85//51 80//46
f 85//51 72//38 77//43
f 78//44 74//40 86//52
f 82//48 86//52 74//40
f 87//53 80//46 88//54
f 80//46 87//53 79//45
f 81//47 89//55 82//48
f 90//56 82//48 89//55
f 79//45 83//49 71//37
f 83//49 79//45 91//57
f 92//58 81//47 84//50
f 73//39 84//50 81//47
f 77//43 91//57 85//51
f 91//57 77//43 83//49
f 84//50 78//44 92//58
f 86//52 92//58 78//44
f 80//46 93//59 88//54
f 93//59 80//46 85//51
f 86//52 82//48 94//60
f 90//56 94//60 82//48
f 87//53 91//57 79//45
f 91//57 87//53 95//61
f 96//62 89//55 92//58
f 81//47 92//58 89//55
f 85//51 95//61 93//59
f 95//61 85//51 91//57
f 92//58 86//52 96//62
f 94//60 96//62 86//52
