# SSTK version 0.8.0
# 39
mtllib original-39.mtl
o #ID269
v 0.576066 0.211733 0.516045
v 0.576047 0.210720 0.515076
v 0.576066 0.211626 0.516369
v 0.575988 0.207912 0.511072
v 0.576066 0.207077 0.516369
v 0.576066 0.206453 0.516369
v 0.576063 -0.346368 0.516183
v 0.576066 -0.344988 0.516369
v 0.576066 0.206453 0.516369
vn -0.9998720318014204 0.011602113209858036 -0.011014126854403516
vn -0.9999285613355482 0.007080315941512309 0.009630231128533569
vn -0.9999285612248426 0.007080657663927764 0.009629991373955246
vn -0.9768267168485638 0.20212131535692365 0.07040269262778759
vn -0.9998934922580682 7.815262865792347e-7 0.014594661330562711
vn -0.9998593493938349 5.2139107328202026e-8 0.01677144685870679
vn -0.9998567271810067 0 0.01692705263434961
vn -0.9998934887417443 7.814446165099005e-7 0.014594902235113909
usemtl material_0_0
f 1//1 2//2 3//3
f 2//2 1//1 4//4
f 2//2 5//5 3//3
f 5//5 2//2 6//5
f 6//5 2//2 7//6
f 7//6 2//2 4//4
f 7//6 8//7 9//8
