# SSTK version 0.8.0
# 61
mtllib original-61.mtl
o #ID401
v 0.809250 0.164969 -0.201493
v 0.809141 0.165638 -0.037969
v 0.809250 0.164969 -0.037283
v 0.809141 0.165638 -0.200808
v 0.809141 0.165638 -0.200808
v 0.809250 0.164969 -0.201493
v 0.809141 0.165638 -0.037969
v 0.809250 0.164969 -0.037283
v 0.808822 0.166262 -0.038607
v 0.808822 0.166262 -0.200169
v 0.808822 0.166262 -0.200169
v 0.808822 0.166262 -0.038607
v 0.809250 0.180919 -0.037283
v 0.809141 0.180249 -0.037969
v 0.809141 0.180249 -0.037969
v 0.809250 0.180919 -0.037283
v 0.809141 0.180249 -0.200808
v 0.809250 0.180919 -0.201493
v 0.809250 0.180919 -0.201493
v 0.809141 0.180249 -0.200808
v 0.808315 0.166797 -0.039156
v 0.808315 0.166797 -0.199620
v 0.808315 0.166797 -0.199620
v 0.808315 0.166797 -0.039156
v 0.808822 0.179626 -0.038607
v 0.808822 0.179626 -0.038607
v 0.808822 0.179626 -0.200169
v 0.808822 0.179626 -0.200169
v 0.807654 0.167208 -0.199199
v 0.807654 0.167208 -0.039577
v 0.807654 0.167208 -0.199199
v 0.807654 0.167208 -0.039577
v 0.808315 0.179090 -0.039156
v 0.808315 0.179090 -0.039156
v 0.808315 0.179090 -0.199620
v 0.808315 0.179090 -0.199620
v 0.806885 0.167467 -0.198935
v 0.806885 0.167467 -0.039841
v 0.806885 0.167467 -0.198935
v 0.806885 0.167467 -0.039841
v 0.807654 0.178679 -0.039577
v 0.807654 0.178679 -0.039577
v 0.807654 0.178679 -0.199199
v 0.807654 0.178679 -0.199199
v 0.806059 0.167555 -0.198845
v 0.806059 0.167555 -0.039932
v 0.806059 0.167555 -0.198845
v 0.806059 0.167555 -0.039932
v 0.806885 0.178421 -0.039841
v 0.806885 0.178421 -0.039841
v 0.806885 0.178421 -0.198935
v 0.806885 0.178421 -0.198935
v 0.806059 0.167555 -0.039932
v 0.795944 0.167555 -0.198845
v 0.795944 0.167555 -0.039932
v 0.806059 0.167555 -0.198845
v 0.806059 0.167555 -0.198845
v 0.806059 0.167555 -0.039932
v 0.795944 0.167555 -0.198845
v 0.795944 0.167555 -0.039932
v 0.806059 0.178332 -0.039932
v 0.806059 0.178332 -0.039932
v 0.806059 0.178332 -0.198845
v 0.806059 0.178332 -0.198845
v 0.806059 0.178332 -0.198845
v 0.795944 0.167555 -0.198845
v 0.806059 0.167555 -0.198845
v 0.795944 0.178332 -0.198845
v 0.795944 0.178332 -0.198845
v 0.806059 0.178332 -0.198845
v 0.795944 0.167555 -0.198845
v 0.806059 0.167555 -0.198845
v 0.795944 0.167555 -0.039932
v 0.795118 0.167643 -0.198754
v 0.795118 0.167643 -0.040022
v 0.795944 0.167555 -0.198845
v 0.795944 0.167555 -0.198845
v 0.795944 0.167555 -0.039932
v 0.795118 0.167643 -0.198754
v 0.795118 0.167643 -0.040022
v 0.795944 0.178332 -0.039932
v 0.806059 0.167555 -0.039932
v 0.795944 0.167555 -0.039932
v 0.806059 0.178332 -0.039932
v 0.806059 0.178332 -0.039932
v 0.795944 0.178332 -0.039932
v 0.806059 0.167555 -0.039932
v 0.795944 0.167555 -0.039932
v 0.806059 0.178332 -0.198845
v 0.795944 0.178332 -0.039932
v 0.795944 0.178332 -0.198845
v 0.806059 0.178332 -0.039932
v 0.806059 0.178332 -0.039932
v 0.806059 0.178332 -0.198845
v 0.795944 0.178332 -0.039932
v 0.795944 0.178332 -0.198845
v 0.795944 0.178332 -0.198845
v 0.795118 0.178244 -0.198754
v 0.795118 0.178244 -0.198754
v 0.795944 0.178332 -0.198845
v 0.794348 0.167902 -0.198490
v 0.794348 0.167902 -0.040286
v 0.794348 0.167902 -0.198490
v 0.794348 0.167902 -0.040286
v 0.795944 0.178332 -0.039932
v 0.795118 0.178244 -0.040022
v 0.795118 0.178244 -0.040022
v 0.795944 0.178332 -0.039932
v 0.794348 0.177986 -0.198490
v 0.794348 0.177986 -0.198490
v 0.793687 0.168313 -0.198069
v 0.793687 0.168313 -0.040707
v 0.793687 0.168313 -0.198069
v 0.793687 0.168313 -0.040707
v 0.794348 0.177986 -0.040286
v 0.794348 0.177986 -0.040286
v 0.793687 0.177575 -0.198069
v 0.793687 0.177575 -0.198069
v 0.793180 0.168848 -0.041256
v 0.793180 0.168848 -0.197520
v 0.793180 0.168848 -0.197520
v 0.793180 0.168848 -0.041256
v 0.793687 0.177575 -0.040707
v 0.793687 0.177575 -0.040707
v 0.793180 0.177039 -0.197520
v 0.793180 0.177039 -0.197520
v 0.792861 0.169472 -0.041895
v 0.792861 0.169472 -0.196881
v 0.792861 0.169472 -0.196881
v 0.792861 0.169472 -0.041895
v 0.793180 0.177039 -0.041256
v 0.793180 0.177039 -0.041256
v 0.792861 0.176415 -0.196881
v 0.792861 0.176415 -0.196881
v 0.792753 0.170142 -0.042580
v 0.792753 0.170142 -0.196196
v 0.792753 0.170142 -0.196196
v 0.792753 0.170142 -0.042580
v 0.792861 0.176415 -0.041895
v 0.792861 0.176415 -0.041895
v 0.792753 0.175746 -0.196196
v 0.792753 0.175746 -0.196196
v 0.792753 0.170142 -0.196196
v 0.792753 0.175746 -0.042580
v 0.792753 0.170142 -0.042580
v 0.792753 0.175746 -0.196196
v 0.792753 0.175746 -0.196196
v 0.792753 0.170142 -0.196196
v 0.792753 0.175746 -0.042580
v 0.792753 0.170142 -0.042580
v 0.792753 0.175746 -0.042580
v 0.792753 0.175746 -0.042580
vn 0.9936192124182132 0.08069075642480476 0.07880268105212183
vn 0.9852762437173928 0.12231657756960942 -0.11945450354759599
vn 0.9936192124182132 0.0806907564248048 -0.07880268105212179
vn 0.9852762437173928 0.12231657756960938 0.11945450354759603
vn -0.9852762437173928 -0.12231657756960938 -0.11945450354759603
vn -0.9936192124182132 -0.08069075642480476 -0.07880268105212183
vn -0.9852762437173928 -0.12231657756960942 0.11945450354759599
vn -0.9936192124182132 -0.0806907564248048 0.07880268105212179
vn 0.9175654547735249 0.2844430061397387 -0.2777873511599167
vn 0.9175654547735249 0.2844430061397386 0.2777873511599168
vn -0.9175654547735249 -0.2844430061397386 -0.2777873511599168
vn -0.9175654547735249 -0.2844430061397387 0.2777873511599167
vn 0.9936192124182132 -0.08069075642480476 -0.07880268105212183
vn 0.9852762437173928 -0.12231657756960938 -0.11945450354759603
vn -0.9852762437173928 0.12231657756960938 0.11945450354759603
vn -0.9936192124182132 0.08069075642480476 0.07880268105212183
vn 0.9852762437173928 -0.12231657756960942 0.11945450354759599
vn 0.9936192124182132 -0.0806907564248048 0.07880268105212179
vn -0.9936192124182132 0.0806907564248048 -0.07880268105212179
vn -0.9852762437173928 0.12231657756960942 -0.11945450354759599
vn 0.7879219729214685 0.4405423419539726 -0.4302341333893087
vn 0.7879219729214686 0.4405423419539725 0.43023413338930894
vn -0.7879219729214686 -0.4405423419539725 -0.43023413338930894
vn -0.7879219729214685 -0.4405423419539726 0.4302341333893087
vn 0.9175654547735249 -0.2844430061397386 -0.2777873511599168
vn -0.9175654547735249 0.2844430061397386 0.2777873511599168
vn 0.9175654547735249 -0.2844430061397387 0.2777873511599167
vn -0.9175654547735249 0.2844430061397387 -0.2777873511599167
vn 0.5878743504140147 0.5787465659446914 0.5652045298230784
vn 0.5878743504140147 0.5787465659446918 -0.5652045298230781
vn -0.5878743504140147 -0.5787465659446914 -0.5652045298230784
vn -0.5878743504140147 -0.5787465659446918 0.5652045298230781
vn 0.7879219729214686 -0.4405423419539725 -0.43023413338930894
vn -0.7879219729214686 0.4405423419539725 0.43023413338930894
vn 0.7879219729214685 -0.4405423419539726 0.4302341333893087
vn -0.7879219729214685 0.4405423419539726 -0.4302341333893087
vn 0.31756287986023884 0.6783948373658161 0.6625211407723375
vn 0.31756287986023884 0.6783948373658164 -0.6625211407723371
vn -0.31756287986023884 -0.6783948373658161 -0.6625211407723375
vn -0.31756287986023884 -0.6783948373658164 0.6625211407723371
vn 0.5878743504140147 -0.5787465659446914 -0.5652045298230784
vn -0.5878743504140147 0.5787465659446914 0.5652045298230784
vn 0.5878743504140147 -0.5787465659446918 0.5652045298230781
vn -0.5878743504140147 0.5787465659446918 -0.5652045298230781
vn 0.15094381106654983 0.707230228422173 0.6906818152424651
vn 0.15094381106654983 0.7072302284221732 -0.6906818152424649
vn -0.15094381106654983 -0.707230228422173 -0.6906818152424651
vn -0.15094381106654983 -0.7072302284221732 0.6906818152424649
vn 0.31756287986023884 -0.6783948373658161 -0.6625211407723375
vn -0.31756287986023884 0.6783948373658161 0.6625211407723375
vn 0.31756287986023884 -0.6783948373658164 0.6625211407723371
vn -0.31756287986023884 0.6783948373658164 -0.6625211407723371
vn 0 1 0
vn 0 -1 0
vn 0.15094381106654983 -0.707230228422173 -0.6906818152424651
vn -0.15094381106654983 0.707230228422173 0.6906818152424651
vn 0.15094381106654983 -0.7072302284221732 0.6906818152424649
vn -0.15094381106654983 0.7072302284221732 -0.6906818152424649
vn 0 0 1
vn 0 0 -1
vn 0.2723466763673985 0.6883836180545795 0.6722761949271432
vn 0.2723466763673985 0.6883836180545798 -0.672276194927143
vn -0.2723466763673985 -0.6883836180545795 -0.6722761949271432
vn -0.2723466763673985 -0.6883836180545798 0.672276194927143
vn 0.2723466763673985 -0.6883836180545798 0.672276194927143
vn -0.2723466763673985 0.6883836180545798 -0.672276194927143
vn 0.5197087898260173 0.6112206875552332 0.5969187925355378
vn 0.5197087898260173 0.6112206875552334 -0.5969187925355375
vn -0.5197087898260173 -0.6112206875552332 -0.5969187925355378
vn -0.5197087898260173 -0.6112206875552334 0.5969187925355375
vn 0.2723466763673985 -0.6883836180545795 -0.6722761949271432
vn -0.2723466763673985 0.6883836180545795 0.6722761949271432
vn 0.5197087898260173 -0.6112206875552334 0.5969187925355375
vn -0.5197087898260173 0.6112206875552334 -0.5969187925355375
vn 0.721772283520321 0.49516916192882193 0.483582745573671
vn 0.721772283520321 0.4951691619288221 -0.4835827455736708
vn -0.721772283520321 -0.49516916192882193 -0.483582745573671
vn -0.721772283520321 -0.4951691619288221 0.4835827455736708
vn 0.5197087898260173 -0.6112206875552332 -0.5969187925355378
vn -0.5197087898260173 0.6112206875552332 0.5969187925355378
vn 0.721772283520321 -0.4951691619288221 0.4835827455736708
vn -0.721772283520321 0.4951691619288221 -0.4835827455736708
vn 0.868683071260537 0.3544000072419881 -0.34610743501438934
vn 0.868683071260537 0.35440000724198795 0.3461074350143895
vn -0.868683071260537 -0.35440000724198795 -0.3461074350143895
vn -0.868683071260537 -0.3544000072419881 0.34610743501438934
vn 0.721772283520321 -0.49516916192882193 -0.483582745573671
vn -0.721772283520321 0.49516916192882193 0.483582745573671
vn 0.868683071260537 -0.3544000072419881 0.34610743501438934
vn -0.868683071260537 0.3544000072419881 -0.34610743501438934
vn 0.9599435624634838 0.20045804109780124 -0.19576754236631722
vn 0.9599435624634838 0.20045804109780116 0.1957675423663173
vn -0.9599435624634838 -0.20045804109780116 -0.1957675423663173
vn -0.9599435624634838 -0.20045804109780124 0.19576754236631722
vn 0.868683071260537 -0.35440000724198795 -0.3461074350143895
vn -0.868683071260537 0.35440000724198795 0.3461074350143895
vn 0.9599435624634838 -0.20045804109780124 0.19576754236631722
vn -0.9599435624634838 0.20045804109780124 -0.19576754236631722
vn 0.9599435624634838 -0.20045804109780116 -0.1957675423663173
vn -0.9599435624634838 0.20045804109780116 0.1957675423663173
vn 1 0 0
vn -1 0 0
usemtl material_0_0
f 1//1 2//2 3//3
f 2//2 1//1 4//4
f 5//5 6//6 7//7
f 8//8 7//7 6//6
f 4//4 9//9 2//2
f 9//9 4//4 10//10
f 11//11 5//5 12//12
f 7//7 12//12 5//5
f 2//2 13//13 3//3
f 13//13 2//2 14//14
f 15//15 7//7 16//16
f 8//8 16//16 7//7
f 1//1 17//17 4//4
f 17//17 1//1 18//18
f 19//19 6//6 20//20
f 5//5 20//20 6//6
f 10//10 21//21 9//9
f 21//21 10//10 22//22
f 23//23 11//11 24//24
f 12//12 24//24 11//11
f 9//9 14//14 2//2
f 14//14 9//9 25//25
f 26//26 12//12 15//15
f 7//7 15//15 12//12
f 4//4 27//27 10//10
f 27//27 4//4 17//17
f 20//20 5//5 28//28
f 11//11 28//28 5//5
f 14//14 18//18 13//13
f 18//18 14//14 17//17
f 20//20 15//15 19//19
f 16//16 19//19 15//15
f 21//21 29//29 30//30
f 29//29 21//21 22//22
f 23//23 24//24 31//31
f 32//32 31//31 24//24
f 21//21 25//25 9//9
f 25//25 21//21 33//33
f 34//34 24//24 26//26
f 12//12 26//26 24//24
f 10//10 35//35 22//22
f 35//35 10//10 27//27
f 28//28 11//11 36//36
f 23//23 36//36 11//11
f 25//25 17//17 14//14
f 17//17 25//25 27//27
f 28//28 26//26 20//20
f 15//15 20//20 26//26
f 30//30 37//37 38//38
f 37//37 30//30 29//29
f 31//31 32//32 39//39
f 40//40 39//39 32//32
f 30//30 33//33 21//21
f 33//33 30//30 41//41
f 42//42 32//32 34//34
f 24//24 34//34 32//32
f 35//35 29//29 22//22
f 29//29 35//35 43//43
f 44//44 36//36 31//31
f 23//23 31//31 36//36
f 33//33 27//27 25//25
f 27//27 33//33 35//35
f 36//36 34//34 28//28
f 26//26 28//28 34//34
f 38//38 45//45 46//46
f 45//45 38//38 37//37
f 39//39 40//40 47//47
f 48//48 47//47 40//40
f 38//38 41//41 30//30
f 41//41 38//38 49//49
f 50//50 40//40 42//42
f 32//32 42//42 40//40
f 43//43 37//37 29//29
f 37//37 43//43 51//51
f 52//52 44//44 39//39
f 31//31 39//39 44//44
f 35//35 41//41 43//43
f 41//41 35//35 33//33
f 34//34 36//36 42//42
f 44//44 42//42 36//36
f 53//53 54//53 55//53
f 54//53 53//53 56//53
f 57//54 58//54 59//54
f 60//54 59//54 58//54
f 46//46 49//49 38//38
f 49//49 46//46 61//55
f 62//56 48//48 50//50
f 40//40 50//50 48//48
f 51//51 45//45 37//37
f 45//45 51//51 63//57
f 64//58 52//52 47//47
f 39//39 47//47 52//52
f 43//43 49//49 51//51
f 49//49 43//43 41//41
f 42//42 44//44 50//50
f 52//52 50//50 44//44
f 65//59 66//59 67//59
f 66//59 65//59 68//59
f 69//60 70//60 71//60
f 72//60 71//60 70//60
f 73//46 74//61 75//62
f 74//61 73//46 76//45
f 77//47 78//48 79//63
f 80//64 79//63 78//48
f 81//60 82//60 83//60
f 82//60 81//60 84//60
f 85//59 86//59 87//59
f 88//59 87//59 86//59
f 51//51 61//55 63//57
f 61//55 51//51 49//49
f 50//50 52//52 62//56
f 64//58 62//56 52//52
f 89//54 90//54 91//54
f 90//54 89//54 92//54
f 93//53 94//53 95//53
f 96//53 95//53 94//53
f 97//57 74//61 76//45
f 74//61 97//57 98//65
f 99//66 100//58 79//63
f 77//47 79//63 100//58
f 75//62 101//67 102//68
f 101//67 75//62 74//61
f 79//63 80//64 103//69
f 104//70 103//69 80//64
f 75//62 105//55 73//46
f 105//55 75//62 106//71
f 107//72 80//64 108//56
f 78//48 108//56 80//64
f 97//57 106//71 98//65
f 106//71 97//57 105//55
f 108//56 100//58 107//72
f 99//66 107//72 100//58
f 98//65 101//67 74//61
f 101//67 98//65 109//73
f 110//74 99//66 103//69
f 79//63 103//69 99//66
f 102//68 111//75 112//76
f 111//75 102//68 101//67
f 103//69 104//70 113//77
f 114//78 113//77 104//70
f 102//68 106//71 75//62
f 106//71 102//68 115//79
f 116//80 104//70 107//72
f 80//64 107//72 104//70
f 98//65 115//79 109//73
f 115//79 98//65 106//71
f 107//72 99//66 116//80
f 110//74 116//80 99//66
f 109//73 111//75 101//67
f 111//75 109//73 117//81
f 118//82 110//74 113//77
f 103//69 113//77 110//74
f 111//75 119//83 112//76
f 119//83 111//75 120//84
f 121//85 113//77 122//86
f 114//78 122//86 113//77
f 112//76 115//79 102//68
f 115//79 112//76 123//87
f 124//88 114//78 116//80
f 104//70 116//80 114//78
f 109//73 123//87 117//81
f 123//87 109//73 115//79
f 116//80 110//74 124//88
f 118//82 124//88 110//74
f 111//75 125//89 120//84
f 125//89 111//75 117//81
f 118//82 113//77 126//90
f 121//85 126//90 113//77
f 120//84 127//91 119//83
f 127//91 120//84 128//92
f 129//93 121//85 130//94
f 122//86 130//94 121//85
f 119//83 123//87 112//76
f 123//87 119//83 131//95
f 132//96 122//86 124//88
f 114//78 124//88 122//86
f 131//95 117//81 123//87
f 117//81 131//95 125//89
f 126//90 132//96 118//82
f 124//88 118//82 132//96
f 120//84 133//97 128//92
f 133//97 120//84 125//89
f 126//90 121//85 134//98
f 129//93 134//98 121//85
f 128//92 135//3 127//91
f 135//3 128//92 136//1
f 137//6 129//93 138//8
f 130//94 138//8 129//93
f 127//91 131//95 119//83
f 131//95 127//91 139//99
f 140//100 130//94 132//96
f 122//86 132//96 130//94
f 139//99 125//89 131//95
f 125//89 139//99 133//97
f 134//98 140//100 126//90
f 132//96 126//90 140//100
f 128//92 141//18 136//1
f 141//18 128//92 133//97
f 134//98 129//93 142//19
f 137//6 142//19 129//93
f 143//101 144//101 145//101
f 144//101 143//101 146//101
f 147//102 148//102 149//102
f 150//102 149//102 148//102
f 135//3 139//99 127//91
f 139//99 135//3 151//13
f 152//16 138//8 140//100
f 130//94 140//100 138//8
f 151//13 133//97 139//99
f 133//97 151//13 141//18
f 142//19 152//16 134//98
f 140//100 134//98 152//16
