# SSTK version 0.8.0
# 15
mtllib original-15.mtl
o #ID69
v 0.672410 0.288823 0.406279
v 0.671160 0.286203 0.407436
v 0.671484 0.288479 0.407572
v 0.672441 0.286678 0.405646
v 0.673224 0.290821 0.406869
v 0.672436 0.290528 0.407970
v 0.674827 0.292537 0.407375
v 0.673949 0.292211 0.408603
v 0.675921 0.293412 0.409428
v 0.677111 0.293854 0.407764
v 0.678217 0.294049 0.410389
v 0.679920 0.294682 0.408008
v 0.680681 0.294079 0.411420
v 0.683062 0.294964 0.408092
vn -0.809919982757172 0.29659803788682143 -0.506022949531254
vn -0.7910572482653383 0.1481119888590713 -0.593541294876002
vn -0.767901864350962 0.32102984788834915 -0.5543163027469966
vn -0.8214555351690908 0.15036709145404126 -0.5500913938135323
vn -0.7317411615699747 0.562891558127629 -0.3843279410254661
vn -0.6877752567516159 0.5951287271471858 -0.41567655012571864
vn -0.5909577809700858 0.7728357184172311 -0.23128738281504704
vn -0.5441464674917541 0.8035566046135191 -0.24124967377851156
vn -0.3665844982511205 0.9284487331183272 -0.05998962921161886
vn -0.4123468369210152 0.9084032334163292 -0.06909161743650197
vn -0.1816143450049588 0.9774162989119387 0.10804447375829794
vn -0.22066310928507893 0.9716669793270305 0.08468219108009387
vn -0.08983793594060188 0.9784675433409906 0.18582360424386044
vn -0.0928178650430756 0.9781881560774948 0.18582996324208928
usemtl material_0_0
f 1//1 2//2 3//3
f 2//2 1//1 4//4
f 5//5 3//3 6//6
f 3//3 5//5 1//1
f 7//7 6//6 8//8
f 6//6 7//7 5//5
f 9//9 7//7 8//8
f 7//7 9//9 10//10
f 11//11 10//10 9//9
f 10//10 11//11 12//12
f 13//13 12//12 11//11
f 12//12 13//13 14//14
