# SSTK version 0.8.0
# 30
mtllib original-30.mtl
o #ID214
v 0.707670 0.345150 0.198915
v 0.706294 0.347838 0.185014
v 0.706294 0.345233 0.197773
v 0.707670 0.348221 0.183872
v 0.707670 0.348221 0.183872
v 0.707670 0.345150 0.198915
v 0.706294 0.347838 0.185014
v 0.706294 0.345233 0.197773
v 0.658948 0.347838 0.185014
v 0.657571 0.348221 0.183872
v 0.658948 0.347838 0.185014
v 0.657571 0.348221 0.183872
v 0.705011 0.347180 0.186079
v 0.705011 0.345010 0.196708
v 0.705011 0.347180 0.186079
v 0.705011 0.345010 0.196708
v 0.658948 0.345233 0.197773
v 0.657571 0.345150 0.198915
v 0.658948 0.345233 0.197773
v 0.657571 0.345150 0.198915
v 0.660231 0.347180 0.186079
v 0.660231 0.347180 0.186079
v 0.703910 0.346294 0.186993
v 0.703910 0.344497 0.195794
v 0.703910 0.346294 0.186993
v 0.703910 0.344497 0.195794
v 0.660231 0.345010 0.196708
v 0.660231 0.345010 0.196708
v 0.661332 0.346294 0.186993
v 0.661332 0.346294 0.186993
v 0.703065 0.343728 0.195093
v 0.703065 0.345238 0.187695
v 0.703065 0.345238 0.187695
v 0.703065 0.343728 0.195093
v 0.661332 0.344497 0.195794
v 0.661332 0.344497 0.195794
v 0.662177 0.345238 0.187695
v 0.662177 0.345238 0.187695
v 0.702533 0.342756 0.194652
v 0.702533 0.344086 0.188135
v 0.702533 0.344086 0.188135
v 0.702533 0.342756 0.194652
v 0.662177 0.343728 0.195093
v 0.662177 0.343728 0.195093
v 0.662709 0.344086 0.188135
v 0.662709 0.344086 0.188135
v 0.702352 0.341647 0.194501
v 0.702352 0.342916 0.188286
v 0.702352 0.342916 0.188286
v 0.702352 0.341647 0.194501
v 0.662709 0.342756 0.194652
v 0.662709 0.342756 0.194652
v 0.662890 0.342916 0.188286
v 0.662890 0.342916 0.188286
v 0.662890 0.341647 0.194501
v 0.662890 0.341647 0.194501
vn -0.053390209636108334 0.9892245177717587 0.1363243886993221
vn -0.0788718832492388 0.9538121520405831 0.28986480409396
vn -0.08254090621389767 0.9914251559013467 0.1013072507147393
vn -0.051638432354084954 0.9639126077831863 0.2611627018941067
vn 0.051638432354084954 -0.9639126077831863 -0.2611627018941067
vn 0.053390209636108334 -0.9892245177717587 -0.1363243886993221
vn 0.0788718832492388 -0.9538121520405831 -0.28986480409396
vn 0.08254090621389767 -0.9914251559013467 -0.1013072507147393
vn 0.0788718832492388 0.9538121520405831 0.28986480409396
vn 0.051638432354084954 0.9639126077831863 0.2611627018941067
vn -0.0788718832492388 -0.9538121520405831 -0.28986480409396
vn -0.051638432354084954 -0.9639126077831863 -0.2611627018941067
vn -0.189718350501455 0.8959425225890577 0.4016141726828907
vn -0.19850734998841865 0.9786300828674761 -0.05364692821934898
vn 0.189718350501455 -0.8959425225890577 -0.4016141726828907
vn 0.19850734998841865 -0.9786300828674761 0.05364692821934898
vn 0.08254090621389767 0.9914251559013467 0.1013072507147393
vn 0.053390209636108334 0.9892245177717587 0.1363243886993221
vn -0.08254090621389767 -0.9914251559013467 -0.1013072507147393
vn -0.053390209636108334 -0.9892245177717587 -0.1363243886993221
vn 0.189718350501455 0.8959425225890577 0.4016141726828907
vn -0.189718350501455 -0.8959425225890577 -0.4016141726828907
vn -0.3091199642218324 0.8014108777917692 0.5120404795292255
vn -0.32919531397849566 0.9118002631577554 -0.2454602317281712
vn 0.3091199642218324 -0.8014108777917692 -0.5120404795292255
vn 0.32919531397849566 -0.9118002631577554 0.2454602317281712
vn 0.19850734998841865 0.9786300828674761 -0.05364692821934898
vn -0.19850734998841865 -0.9786300828674761 0.05364692821934898
vn 0.3091199642218324 0.8014108777917692 0.5120404795292255
vn -0.3091199642218324 -0.8014108777917692 -0.5120404795292255
vn -0.47563753457545427 0.7440553953106025 -0.46920198679477776
vn -0.4370801985206195 0.646427695536424 0.6253735959445716
vn 0.4370801985206195 -0.646427695536424 -0.6253735959445716
vn 0.47563753457545427 -0.7440553953106025 0.46920198679477776
vn 0.32919531397849566 0.9118002631577554 -0.2454602317281712
vn -0.32919531397849566 -0.9118002631577554 0.2454602317281712
vn 0.4370801985206195 0.646427695536424 0.6253735959445716
vn -0.4370801985206195 -0.646427695536424 -0.6253735959445716
vn -0.6034251736252222 0.4228301492690719 -0.6760863293281894
vn -0.5612505213312271 0.3914923602129185 0.7291992760558287
vn 0.5612505213312271 -0.3914923602129185 -0.7291992760558287
vn 0.6034251736252222 -0.4228301492690719 0.6760863293281894
vn 0.47563753457545427 0.7440553953106025 -0.46920198679477776
vn -0.47563753457545427 -0.7440553953106025 0.46920198679477776
vn 0.5612505213312271 0.3914923602129185 0.7291992760558287
vn -0.5612505213312271 -0.3914923602129185 -0.7291992760558287
vn -0.586674397474112 0.20219289686995034 -0.7841754802362321
vn -0.656957965446598 0.19527395090333727 0.7281993653765894
vn 0.656957965446598 -0.19527395090333727 -0.7281993653765894
vn 0.586674397474112 -0.20219289686995034 0.7841754802362321
vn 0.6034251736252222 0.4228301492690719 -0.6760863293281894
vn -0.6034251736252222 -0.4228301492690719 0.6760863293281894
vn 0.656957965446598 0.19527395090333727 0.7281993653765894
vn -0.656957965446598 -0.19527395090333727 -0.7281993653765894
vn 0.586674397474112 0.20219289686995034 -0.7841754802362321
vn -0.586674397474112 -0.20219289686995034 0.7841754802362321
usemtl material_0_0
f 1//1 2//2 3//3
f 2//2 1//1 4//4
f 5//5 6//6 7//7
f 8//8 7//7 6//6
f 9//9 4//4 10//10
f 4//4 9//9 2//2
f 7//7 11//11 5//5
f 12//12 5//5 11//11
f 3//3 13//13 14//14
f 13//13 3//3 2//2
f 7//7 8//8 15//15
f 16//16 15//15 8//8
f 1//1 17//17 18//18
f 17//17 1//1 3//3
f 8//8 6//6 19//19
f 20//20 19//19 6//6
f 17//17 10//10 18//18
f 10//10 17//17 9//9
f 11//11 19//19 12//12
f 20//20 12//12 19//19
f 21//21 2//2 9//9
f 2//2 21//21 13//13
f 15//15 22//22 7//7
f 11//11 7//7 22//22
f 14//14 23//23 24//24
f 23//23 14//14 13//13
f 15//15 16//16 25//25
f 26//26 25//25 16//16
f 3//3 27//27 17//17
f 27//27 3//3 14//14
f 16//16 8//8 28//28
f 19//19 28//28 8//8
f 27//27 9//9 17//17
f 9//9 27//27 21//21
f 22//22 28//28 11//11
f 19//19 11//11 28//28
f 29//29 13//13 21//21
f 13//13 29//29 23//23
f 25//25 30//30 15//15
f 22//22 15//15 30//30
f 23//23 31//31 24//24
f 31//31 23//23 32//32
f 33//33 25//25 34//34
f 26//26 34//34 25//25
f 14//14 35//35 27//27
f 35//35 14//14 24//24
f 26//26 16//16 36//36
f 28//28 36//36 16//16
f 35//35 21//21 27//27
f 21//21 35//35 29//29
f 30//30 36//36 22//22
f 28//28 22//22 36//36
f 23//23 37//37 32//32
f 37//37 23//23 29//29
f 30//30 25//25 38//38
f 33//33 38//38 25//25
f 32//32 39//39 31//31
f 39//39 32//32 40//40
f 41//41 33//33 42//42
f 34//34 42//42 33//33
f 35//35 31//31 43//43
f 31//31 35//35 24//24
f 26//26 36//36 34//34
f 44//44 34//34 36//36
f 43//43 29//29 35//35
f 29//29 43//43 37//37
f 38//38 44//44 30//30
f 36//36 30//30 44//44
f 32//32 45//45 40//40
f 45//45 32//32 37//37
f 38//38 33//33 46//46
f 41//41 46//46 33//33
f 40//40 47//47 39//39
f 47//47 40//40 48//48
f 49//49 41//41 50//50
f 42//42 50//50 41//41
f 43//43 39//39 51//51
f 39//39 43//43 31//31
f 34//34 44//44 42//42
f 52//52 42//42 44//44
f 51//51 37//37 43//43
f 37//37 51//51 45//45
f 46//46 52//52 38//38
f 44//44 38//38 52//52
f 40//40 53//53 48//48
f 53//53 40//40 45//45
f 46//46 41//41 54//54
f 49//49 54//54 41//41
f 51//51 47//47 55//55
f 47//47 51//51 39//39
f 42//42 52//52 50//50
f 56//56 50//50 52//52
f 55//55 45//45 51//51
f 45//45 55//55 53//53
f 54//54 56//56 46//46
f 52//52 46//46 56//56
