# SSTK version 0.8.0
# 50
mtllib original-50.mtl
o #ID335
v 0.806059 -0.049605 -0.039932
v 0.792753 -0.049605 -0.198845
v 0.792753 -0.049605 -0.039932
v 0.806059 -0.049605 -0.198845
v 0.806059 -0.049605 -0.198845
v 0.806059 -0.049605 -0.039932
v 0.792753 -0.049605 -0.198845
v 0.792753 -0.049605 -0.039932
v 0.792753 -0.038828 -0.039932
v 0.806059 -0.049605 -0.039932
v 0.792753 -0.049605 -0.039932
v 0.806059 -0.038828 -0.039932
v 0.806059 -0.038828 -0.039932
v 0.792753 -0.038828 -0.039932
v 0.806059 -0.049605 -0.039932
v 0.792753 -0.049605 -0.039932
v 0.806885 -0.049693 -0.039841
v 0.806059 -0.049605 -0.198845
v 0.806059 -0.049605 -0.039932
v 0.806885 -0.049693 -0.198935
v 0.806885 -0.049693 -0.198935
v 0.806885 -0.049693 -0.039841
v 0.806059 -0.049605 -0.198845
v 0.806059 -0.049605 -0.039932
v 0.806059 -0.038828 -0.198845
v 0.792753 -0.049605 -0.198845
v 0.806059 -0.049605 -0.198845
v 0.792753 -0.038828 -0.198845
v 0.792753 -0.038828 -0.198845
v 0.806059 -0.038828 -0.198845
v 0.792753 -0.049605 -0.198845
v 0.806059 -0.049605 -0.198845
v 0.792753 -0.049605 -0.198845
v 0.792753 -0.038828 -0.039932
v 0.792753 -0.049605 -0.039932
v 0.792753 -0.038828 -0.198845
v 0.792753 -0.038828 -0.198845
v 0.792753 -0.049605 -0.198845
v 0.792753 -0.038828 -0.039932
v 0.792753 -0.049605 -0.039932
v 0.806059 -0.038828 -0.198845
v 0.792753 -0.038828 -0.039932
v 0.792753 -0.038828 -0.198845
v 0.806059 -0.038828 -0.039932
v 0.806059 -0.038828 -0.039932
v 0.806059 -0.038828 -0.198845
v 0.792753 -0.038828 -0.039932
v 0.792753 -0.038828 -0.198845
v 0.806885 -0.038740 -0.039841
v 0.806059 -0.038828 -0.039932
v 0.806059 -0.038828 -0.039932
v 0.806885 -0.038740 -0.039841
v 0.807654 -0.049952 -0.039577
v 0.807654 -0.049952 -0.199199
v 0.807654 -0.049952 -0.199199
v 0.807654 -0.049952 -0.039577
v 0.806885 -0.038740 -0.198935
v 0.806059 -0.038828 -0.198845
v 0.806059 -0.038828 -0.198845
v 0.806885 -0.038740 -0.198935
v 0.807654 -0.038481 -0.039577
v 0.807654 -0.038481 -0.039577
v 0.808315 -0.050363 -0.039156
v 0.808315 -0.050363 -0.199620
v 0.808315 -0.050363 -0.199620
v 0.808315 -0.050363 -0.039156
v 0.807654 -0.038481 -0.199199
v 0.807654 -0.038481 -0.199199
v 0.808315 -0.038070 -0.039156
v 0.808315 -0.038070 -0.039156
v 0.808822 -0.050899 -0.200169
v 0.808822 -0.050899 -0.038607
v 0.808822 -0.050899 -0.200169
v 0.808822 -0.050899 -0.038607
v 0.808315 -0.038070 -0.199620
v 0.808315 -0.038070 -0.199620
v 0.808822 -0.037534 -0.038607
v 0.808822 -0.037534 -0.038607
v 0.809141 -0.051522 -0.200808
v 0.809141 -0.051522 -0.037969
v 0.809141 -0.051522 -0.200808
v 0.809141 -0.051522 -0.037969
v 0.808822 -0.037534 -0.200169
v 0.808822 -0.037534 -0.200169
v 0.809141 -0.036911 -0.037969
v 0.809141 -0.036911 -0.037969
v 0.809250 -0.052192 -0.201493
v 0.809250 -0.052192 -0.037283
v 0.809250 -0.052192 -0.201493
v 0.809250 -0.052192 -0.037283
v 0.809141 -0.036911 -0.200808
v 0.809141 -0.036911 -0.200808
v 0.809250 -0.036241 -0.037283
v 0.809250 -0.036241 -0.037283
v 0.809250 -0.036241 -0.201493
v 0.809250 -0.036241 -0.201493
vn 0 1 0
vn 0 -1 0
vn 0 0 -1
vn 0 0 1
vn 0.31756287986023884 0.6783948373658164 -0.6625211407723371
vn 0.15094381106654983 0.707230228422173 0.6906818152424651
vn 0.15094381106654983 0.7072302284221732 -0.6906818152424649
vn 0.31756287986023884 0.6783948373658161 0.6625211407723375
vn -0.31756287986023884 -0.6783948373658161 -0.6625211407723375
vn -0.31756287986023884 -0.6783948373658164 0.6625211407723371
vn -0.15094381106654983 -0.707230228422173 -0.6906818152424651
vn -0.15094381106654983 -0.7072302284221732 0.6906818152424649
vn 1 0 0
vn -1 0 0
vn 0.31756287986023884 -0.6783948373658161 -0.6625211407723375
vn 0.15094381106654983 -0.707230228422173 -0.6906818152424651
vn -0.15094381106654983 0.707230228422173 0.6906818152424651
vn -0.31756287986023884 0.6783948373658161 0.6625211407723375
vn 0.5878743504140147 0.5787465659446918 -0.5652045298230781
vn 0.5878743504140147 0.5787465659446914 0.5652045298230784
vn -0.5878743504140147 -0.5787465659446914 -0.5652045298230784
vn -0.5878743504140147 -0.5787465659446918 0.5652045298230781
vn 0.31756287986023884 -0.6783948373658164 0.6625211407723371
vn 0.15094381106654983 -0.7072302284221732 0.6906818152424649
vn -0.15094381106654983 0.7072302284221732 -0.6906818152424649
vn -0.31756287986023884 0.6783948373658164 -0.6625211407723371
vn 0.5878743504140147 -0.5787465659446914 -0.5652045298230784
vn -0.5878743504140147 0.5787465659446914 0.5652045298230784
vn 0.7879219729214685 0.4405423419539726 -0.4302341333893087
vn 0.7879219729214686 0.4405423419539725 0.43023413338930894
vn -0.7879219729214686 -0.4405423419539725 -0.43023413338930894
vn -0.7879219729214685 -0.4405423419539726 0.4302341333893087
vn 0.5878743504140147 -0.5787465659446918 0.5652045298230781
vn -0.5878743504140147 0.5787465659446918 -0.5652045298230781
vn 0.7879219729214686 -0.4405423419539725 -0.43023413338930894
vn -0.7879219729214686 0.4405423419539725 0.43023413338930894
vn 0.9175654547735249 0.2844430061397386 0.2777873511599168
vn 0.9175654547735249 0.2844430061397387 -0.2777873511599167
vn -0.9175654547735249 -0.2844430061397386 -0.2777873511599168
vn -0.9175654547735249 -0.2844430061397387 0.2777873511599167
vn 0.7879219729214685 -0.4405423419539726 0.4302341333893087
vn -0.7879219729214685 0.4405423419539726 -0.4302341333893087
vn 0.9175654547735249 -0.2844430061397386 -0.2777873511599168
vn -0.9175654547735249 0.2844430061397386 0.2777873511599168
vn 0.9852762437173928 0.12231657756960938 0.11945450354759603
vn 0.9852762437173928 0.12231657756960942 -0.11945450354759599
vn -0.9852762437173928 -0.12231657756960938 -0.11945450354759603
vn -0.9852762437173928 -0.12231657756960942 0.11945450354759599
vn 0.9175654547735249 -0.2844430061397387 0.2777873511599167
vn -0.9175654547735249 0.2844430061397387 -0.2777873511599167
vn 0.9852762437173928 -0.12231657756960938 -0.11945450354759603
vn -0.9852762437173928 0.12231657756960938 0.11945450354759603
vn 0.9936192124182132 0.08069075642480476 0.07880268105212183
vn 0.9936192124182132 0.0806907564248048 -0.07880268105212179
vn -0.9936192124182132 -0.08069075642480476 -0.07880268105212183
vn -0.9936192124182132 -0.0806907564248048 0.07880268105212179
vn 0.9852762437173928 -0.12231657756960942 0.11945450354759599
vn -0.9852762437173928 0.12231657756960942 -0.11945450354759599
vn 0.9936192124182132 -0.08069075642480476 -0.07880268105212183
vn -0.9936192124182132 0.08069075642480476 0.07880268105212183
vn 0.9936192124182132 -0.0806907564248048 0.07880268105212179
vn -0.9936192124182132 0.0806907564248048 -0.07880268105212179
usemtl material_0_0
f 1//1 2//1 3//1
f 2//1 1//1 4//1
f 5//2 6//2 7//2
f 8//2 7//2 6//2
f 9//3 10//3 11//3
f 10//3 9//3 12//3
f 13//4 14//4 15//4
f 16//4 15//4 14//4
f 17//5 18//6 19//7
f 18//6 17//5 20//8
f 21//9 22//10 23//11
f 24//12 23//11 22//10
f 25//4 26//4 27//4
f 26//4 25//4 28//4
f 29//3 30//3 31//3
f 32//3 31//3 30//3
f 33//13 34//13 35//13
f 34//13 33//13 36//13
f 37//14 38//14 39//14
f 40//14 39//14 38//14
f 41//2 42//2 43//2
f 42//2 41//2 44//2
f 45//1 46//1 47//1
f 48//1 47//1 46//1
f 19//7 49//15 17//5
f 49//15 19//7 50//16
f 51//17 24//12 52//18
f 22//10 52//18 24//12
f 53//19 20//8 17//5
f 20//8 53//19 54//20
f 55//21 56//22 21//9
f 22//10 21//9 56//22
f 57//23 18//6 20//8
f 18//6 57//23 58//24
f 59//25 60//26 23//11
f 21//9 23//11 60//26
f 57//23 50//16 58//24
f 50//16 57//23 49//15
f 52//18 60//26 51//17
f 59//25 51//17 60//26
f 17//5 61//27 53//19
f 61//27 17//5 49//15
f 52//18 22//10 62//28
f 56//22 62//28 22//10
f 63//29 54//20 53//19
f 54//20 63//29 64//30
f 65//31 66//32 55//21
f 56//22 55//21 66//32
f 67//33 20//8 54//20
f 20//8 67//33 57//23
f 60//26 68//34 21//9
f 55//21 21//9 68//34
f 67//33 49//15 57//23
f 49//15 67//33 61//27
f 62//28 68//34 52//18
f 60//26 52//18 68//34
f 53//19 69//35 63//29
f 69//35 53//19 61//27
f 62//28 56//22 70//36
f 66//32 70//36 56//22
f 71//37 63//29 72//38
f 63//29 71//37 64//30
f 65//31 73//39 66//32
f 74//40 66//32 73//39
f 75//41 54//20 64//30
f 54//20 75//41 67//33
f 68//34 76//42 55//21
f 65//31 55//21 76//42
f 75//41 61//27 67//33
f 61//27 75//41 69//35
f 70//36 76//42 62//28
f 68//34 62//28 76//42
f 63//29 77//43 72//38
f 77//43 63//29 69//35
f 70//36 66//32 78//44
f 74//40 78//44 66//32
f 79//45 72//38 80//46
f 72//38 79//45 71//37
f 73//39 81//47 74//40
f 82//48 74//40 81//47
f 71//37 75//41 64//30
f 75//41 71//37 83//49
f 84//50 73//39 76//42
f 65//31 76//42 73//39
f 69//35 83//49 77//43
f 83//49 69//35 75//41
f 76//42 70//36 84//50
f 78//44 84//50 70//36
f 72//38 85//51 80//46
f 85//51 72//38 77//43
f 78//44 74//40 86//52
f 82//48 86//52 74//40
f 87//53 80//46 88//54
f 80//46 87//53 79//45
f 81//47 89//55 82//48
f 90//56 82//48 89//55
f 79//45 83//49 71//37
f 83//49 79//45 91//57
f 92//58 81//47 84//50
f 73//39 84//50 81//47
f 77//43 91//57 85//51
f 91//57 77//43 83//49
f 84//50 78//44 92//58
f 86//52 92//58 78//44
f 80//46 93//59 88//54
f 93//59 80//46 85//51
f 86//52 82//48 94//60
f 90//56 94//60 82//48
f 87//53 91//57 79//45
f 91//57 87//53 95//61
f 96//62 89//55 92//58
f 81//47 92//58 89//55
f 85//51 95//61 93//59
f 95//61 85//51 91//57
f 92//58 86//52 96//62
f 94//60 96//62 86//52
