# Blender v2.92.0 OBJ File: ''
# www.blender.org
mtllib untitled.mtl
o r_gripper_finger_link
v 0.029000 -0.117150 0.011150
v 0.029000 -0.116998 0.011915
v -0.029000 -0.117150 0.011150
v -0.029000 -0.103850 0.012882
v 0.029000 -0.103436 0.012564
v -0.029000 -0.103118 0.012150
v 0.029000 -0.104085 -0.012998
v -0.029000 -0.104850 -0.013150
v -0.029000 -0.103850 -0.012882
v -0.029000 -0.103118 -0.012150
v 0.029000 -0.103436 -0.012564
v 0.029000 -0.104850 -0.013150
v 0.030707 -0.115915 0.011857
v 0.030414 -0.115150 0.012564
v 0.030307 -0.115915 0.012457
v 0.030707 -0.104085 0.011857
v 0.030848 -0.104850 0.011915
v 0.031000 -0.104850 0.011150
v -0.029000 -0.116150 0.012882
v 0.029000 -0.115915 0.012998
v -0.029000 -0.115150 0.013150
v 0.029000 -0.115150 0.013150
v -0.029000 -0.116882 0.012150
v 0.029000 -0.116564 0.012564
v 0.030000 -0.103436 0.012150
v 0.030307 -0.104085 0.012457
v 0.030414 -0.104850 0.012564
v 0.030848 -0.104085 0.011150
v 0.029765 -0.115150 0.012998
v 0.029000 -0.103002 0.011915
v -0.029000 -0.102850 0.011150
v 0.029000 -0.102850 0.011150
v -0.029000 -0.115150 -0.013150
v 0.029000 -0.115915 -0.012998
v -0.029000 -0.116150 -0.012882
v 0.029000 -0.116564 -0.012564
v -0.029000 -0.116882 -0.012150
v 0.029707 -0.116998 -0.011443
v 0.029765 -0.116998 -0.011150
v 0.029000 -0.117150 -0.011150
v 0.029000 -0.103002 -0.011915
v -0.029000 -0.102850 -0.011150
v 0.029000 -0.102850 -0.011150
v 0.029293 -0.103002 -0.011857
v 0.029541 -0.103436 -0.012457
v 0.030848 -0.115915 0.011150
v 0.031000 -0.115150 0.011150
v 0.030704 -0.104850 0.012131
v 0.030848 -0.115150 0.011915
v 0.029000 -0.116131 0.012854
v 0.029000 -0.116854 0.012131
v 0.029707 -0.116998 0.011443
v 0.029541 -0.116998 0.011691
v 0.030307 -0.116564 0.011691
v -0.029000 -0.104850 0.013150
v 0.029000 -0.104085 0.012998
v 0.029000 -0.104850 0.013150
v 0.029765 -0.104850 0.012998
v 0.029541 -0.103436 0.012457
v 0.029765 -0.103002 0.011150
v 0.029707 -0.103002 0.011443
v 0.030414 -0.103436 0.011150
v 0.029000 -0.116131 -0.012854
v 0.029541 -0.116564 -0.012457
v 0.029000 -0.115150 -0.013150
v -0.029000 -0.117150 -0.011150
v 0.029000 -0.116998 -0.011915
v 0.029981 -0.116854 0.011150
v 0.029000 -0.103869 -0.012854
v 0.029707 -0.104085 -0.012857
v 0.030707 -0.115915 -0.011857
v 0.030848 -0.115915 -0.011150
v 0.030704 -0.116131 -0.011150
v 0.031000 -0.115150 -0.011150
v 0.030704 -0.116131 0.011150
v 0.030704 -0.115150 0.012131
v 0.030307 -0.115915 -0.012457
v 0.030000 -0.116564 -0.012150
v 0.030848 -0.115150 -0.011915
v 0.029707 -0.115915 0.012857
v 0.029293 -0.116998 0.011857
v 0.029541 -0.103002 -0.011691
v 0.030704 -0.103869 0.011150
v 0.029000 -0.103869 0.012854
v 0.029707 -0.104085 0.012857
v 0.030307 -0.103436 0.011691
v 0.029541 -0.103002 0.011691
v 0.029000 -0.116854 -0.012131
v 0.029541 -0.116998 -0.011691
v 0.029765 -0.116998 0.011150
v 0.029981 -0.116854 -0.011150
v 0.030307 -0.116564 -0.011691
v 0.030414 -0.116564 -0.011150
v 0.029765 -0.104850 -0.012998
v 0.030414 -0.116564 0.011150
v 0.029707 -0.115915 -0.012857
v 0.030704 -0.115150 -0.012131
v 0.029541 -0.116564 0.012457
v 0.029765 -0.103002 -0.011150
v 0.029707 -0.103002 -0.011443
v 0.030414 -0.103436 -0.011150
v 0.029293 -0.103002 0.011857
v 0.029293 -0.116998 -0.011857
v 0.030000 -0.103436 -0.012150
v 0.029765 -0.115150 -0.012998
v 0.030000 -0.116564 0.012150
v 0.030707 -0.104085 -0.011857
v 0.030704 -0.103869 -0.011150
v 0.030848 -0.104085 -0.011150
v 0.031000 -0.104850 -0.011150
v 0.030414 -0.115150 -0.012564
v 0.030307 -0.103436 -0.011691
v 0.030307 -0.104085 -0.012457
v 0.030848 -0.104850 -0.011915
v 0.030704 -0.104850 -0.012131
v 0.030414 -0.104850 -0.012564
vn 0.1950 -0.9800 0.0388
vn -0.0009 -0.9659 0.2588
vn 0.0000 -0.9808 0.1951
vn -1.0000 0.0000 0.0000
vn -0.0012 0.7071 0.7071
vn -0.0008 0.9659 0.2589
vn 0.0000 0.1951 -0.9808
vn 0.0006 0.8315 -0.5556
vn 0.1632 0.5481 -0.8203
vn 0.8161 -0.1915 0.5453
vn 0.4647 -0.5481 0.6955
vn 0.8161 0.1915 0.5453
vn 0.8315 0.0000 0.5556
vn 0.9626 0.1915 0.1915
vn -1.0000 0.0001 0.0000
vn 0.0000 -0.1951 0.9808
vn 0.0000 -0.0000 1.0000
vn -0.0011 -0.7071 0.7071
vn 0.1099 -0.8264 0.5522
vn 0.4647 0.5481 0.6955
vn 0.8203 0.5481 0.1632
vn 0.1951 -0.0000 0.9808
vn 0.1098 0.8265 0.5522
vn 0.1104 0.9800 0.1653
vn 0.1632 -0.5481 -0.8203
vn -0.0012 -0.7071 -0.7071
vn 0.0006 -0.8315 -0.5556
vn 0.4681 -0.8264 -0.3128
vn 0.1949 -0.9800 -0.0404
vn 0.1949 -0.9800 -0.0388
vn -0.0000 0.9808 -0.1950
vn -0.0000 1.0000 0.0000
vn 0.1104 0.9800 -0.1653
vn 0.3128 0.8264 -0.4681
vn 0.9626 -0.1915 0.1915
vn 1.0000 0.0000 -0.0000
vn 0.1632 -0.5481 0.8203
vn 0.0006 -0.8315 0.5556
vn 0.1653 -0.9800 0.1104
vn 0.4682 -0.8264 0.3128
vn 0.5522 -0.8264 0.1098
vn 0.1915 0.1915 0.9626
vn 0.1632 0.5481 0.8203
vn 0.5522 0.8264 0.1099
vn 0.5522 0.8264 0.1098
vn 0.8315 0.5556 0.0000
vn 0.1098 -0.8264 -0.5522
vn 0.1915 -0.1915 -0.9626
vn 0.0000 -1.0000 -0.0000
vn 0.1098 -0.8265 -0.5522
vn 0.0006 0.5556 -0.8315
vn 0.8203 -0.5481 -0.1632
vn 0.9808 -0.1951 -0.0000
vn 0.9626 -0.1915 -0.1915
vn 0.8203 -0.5481 0.1632
vn 0.4647 -0.5481 -0.6954
vn 0.4647 -0.5481 -0.6955
vn 0.8315 -0.0000 -0.5556
vn 0.4647 -0.5481 0.6954
vn 0.0388 -0.9800 0.1949
vn 0.1653 0.9800 -0.1105
vn 0.6954 0.5481 0.4647
vn 0.1653 0.9800 0.1105
vn 0.0006 -0.8314 -0.5556
vn 0.3128 -0.8264 -0.4681
vn 0.5555 -0.8315 -0.0000
vn 0.5556 -0.8315 -0.0000
vn 0.5522 -0.8264 -0.1098
vn 0.1951 0.0000 -0.9808
vn 0.1951 0.9808 -0.0000
vn 0.5522 0.8264 -0.1098
vn 0.8203 0.5481 -0.1632
vn 0.0388 0.9800 0.1950
vn 0.5556 0.0000 -0.8315
vn 0.9626 0.1915 -0.1915
vn 0.8161 -0.1915 -0.5453
vn 0.6955 0.5481 -0.4647
vn 0.8161 0.1915 -0.5453
usemtl Default_OBJ.001
s 1
f 1//1 2//2 3//3
f 4//4 5//5 6//6
f 7//7 8//7 9//4
f 10//8 11//9 9//4
f 7//7 12//7 8//7
f 13//10 14//10 15//11
f 16//12 17//13 18//14
f 19//15 20//16 21//4
f 21//4 20//16 22//17
f 2//2 23//18 3//3
f 19//15 23//18 24//19
f 16//12 25//20 26//20
f 16//12 26//20 27//12
f 16//12 18//14 28//21
f 20//16 29//22 22//17
f 5//5 30//23 6//6
f 6//6 30//23 31//4
f 31//4 30//23 32//24
f 33//4 34//25 35//26
f 36//27 37//15 35//26
f 38//28 39//29 40//30
f 41//8 11//9 10//8
f 42//31 41//8 10//8
f 43//32 41//8 42//31
f 43//32 44//33 41//8
f 45//34 41//8 44//33
f 41//8 45//34 11//9
f 13//10 46//35 47//36
f 27//12 48//12 16//12
f 17//13 16//12 48//12
f 49//35 13//10 47//36
f 19//15 24//19 50//37
f 19//15 50//37 20//16
f 23//18 51//38 24//19
f 2//2 51//38 23//18
f 52//39 53//40 1//1
f 52//39 54//41 53//40
f 55//4 56//42 4//4
f 57//22 56//42 55//4
f 58//22 56//42 57//22
f 30//23 5//5 59//43
f 26//20 25//20 59//43
f 60//44 61//45 62//46
f 32//24 61//45 60//44
f 35//26 63//25 36//27
f 34//25 63//25 35//26
f 36//27 63//25 64//47
f 65//48 34//25 33//4
f 40//30 66//49 67//50
f 37//15 67//50 66//49
f 52//39 68//41 54//41
f 45//34 69//51 11//9
f 9//4 69//51 7//7
f 11//9 69//51 9//4
f 69//51 70//9 7//7
f 70//9 69//51 45//34
f 71//52 72//53 73//52
f 71//52 74//54 72//53
f 54//41 75//55 13//10
f 13//10 75//55 46//35
f 13//10 76//13 14//10
f 49//35 76//13 13//10
f 77//56 78//57 64//47
f 78//57 77//56 71//52
f 71//52 79//58 74//54
f 50//37 80//59 20//16
f 20//16 80//59 29//22
f 29//22 80//59 14//10
f 15//11 14//10 80//59
f 1//1 81//60 2//2
f 53//40 81//60 1//1
f 81//60 51//38 2//2
f 43//32 82//61 44//33
f 44//33 82//61 45//34
f 28//21 83//46 16//12
f 84//43 5//5 4//4
f 56//42 84//43 4//4
f 84//43 59//43 5//5
f 59//43 85//43 26//20
f 85//43 56//42 58//22
f 85//43 84//43 56//42
f 84//43 85//43 59//43
f 27//12 85//43 58//22
f 26//20 85//43 27//12
f 61//45 86//62 62//46
f 16//12 86//62 25//20
f 83//46 86//62 16//12
f 86//62 83//46 62//46
f 61//45 32//24 87//63
f 87//63 59//43 25//20
f 86//62 87//63 25//20
f 61//45 87//63 86//62
f 37//15 36//27 88//64
f 37//15 88//64 67//50
f 36//27 64//47 88//64
f 38//28 40//30 89//65
f 78//57 89//65 64//47
f 68//41 52//39 90//66
f 1//1 90//66 52//39
f 38//28 91//67 39//29
f 91//67 92//68 93//68
f 91//67 38//28 92//68
f 78//57 71//52 92//68
f 89//65 92//68 38//28
f 89//65 78//57 92//68
f 93//68 92//68 73//52
f 71//52 73//52 92//68
f 94//69 12//7 7//7
f 70//9 94//69 7//7
f 75//55 54//41 95//67
f 68//41 95//67 54//41
f 77//56 64//47 96//56
f 63//25 96//56 64//47
f 63//25 34//25 96//56
f 79//58 71//52 97//58
f 51//38 98//37 24//19
f 81//60 98//37 51//38
f 53//40 98//37 81//60
f 80//59 98//37 15//11
f 50//37 24//19 98//37
f 98//37 80//59 50//37
f 99//70 100//71 43//32
f 43//32 100//71 82//61
f 101//72 100//71 99//70
f 59//43 102//73 30//23
f 87//63 102//73 59//43
f 30//23 102//73 32//24
f 87//63 32//24 102//73
f 67//50 103//65 40//30
f 89//65 40//30 103//65
f 89//65 103//65 64//47
f 88//64 64//47 103//65
f 88//64 103//65 67//50
f 82//61 104//34 45//34
f 65//48 105//74 34//25
f 96//56 34//25 105//74
f 53//40 54//41 106//11
f 106//11 98//37 53//40
f 98//37 106//11 15//11
f 13//10 106//11 54//41
f 15//11 106//11 13//10
f 107//72 108//72 109//75
f 109//75 110//36 107//72
f 96//56 111//76 77//56
f 105//74 111//76 96//56
f 77//56 111//76 71//52
f 97//58 71//52 111//76
f 108//72 112//71 101//72
f 107//72 112//71 108//72
f 107//72 104//34 112//71
f 112//71 100//71 101//72
f 100//71 112//71 82//61
f 104//34 82//61 112//71
f 107//72 113//77 104//34
f 113//77 70//9 45//34
f 104//34 113//77 45//34
f 107//72 110//36 114//78
f 114//78 115//58 107//72
f 113//77 107//72 116//78
f 115//58 116//78 107//72
f 94//69 70//9 116//78
f 113//77 116//78 70//9
f 66//49 40//30 3//3
f 3//3 40//30 1//1
f 31//4 43//32 42//31
f 32//24 43//32 31//4
f 21//4 57//22 55//4
f 22//17 57//22 21//4
f 57//22 22//17 29//22
f 57//22 29//22 58//22
f 14//10 27//12 29//22
f 58//22 29//22 27//12
f 4//4 6//6 37//15
f 42//31 37//15 31//4
f 66//49 3//3 37//15
f 37//15 23//18 19//15
f 21//4 55//4 37//15
f 31//4 37//15 6//6
f 8//7 33//4 37//15
f 19//15 21//4 37//15
f 4//4 37//15 55//4
f 35//26 37//15 33//4
f 9//4 8//7 37//15
f 42//31 10//8 37//15
f 9//4 37//15 10//8
f 23//18 37//15 3//3
f 17//13 49//35 18//14
f 18//14 49//35 47//36
f 110//36 18//14 47//36
f 74//54 110//36 47//36
f 43//32 32//24 99//70
f 60//44 99//70 32//24
f 8//7 65//48 33//4
f 12//7 65//48 8//7
f 74//54 47//36 72//53
f 46//35 72//53 47//36
f 46//35 75//55 72//53
f 72//53 75//55 73//52
f 14//10 76//13 27//12
f 27//12 76//13 48//12
f 49//35 17//13 76//13
f 48//12 76//13 17//13
f 110//36 109//75 18//14
f 28//21 18//14 109//75
f 40//30 90//66 1//1
f 39//29 90//66 40//30
f 91//67 90//66 39//29
f 90//66 91//67 68//41
f 75//55 95//67 73//52
f 93//68 73//52 95//67
f 91//67 95//67 68//41
f 95//67 91//67 93//68
f 99//70 60//44 101//72
f 62//46 101//72 60//44
f 109//75 108//72 28//21
f 83//46 28//21 108//72
f 108//72 101//72 62//46
f 83//46 108//72 62//46
f 65//48 12//7 105//74
f 94//69 105//74 12//7
f 110//36 74//54 114//78
f 79//58 114//78 74//54
f 79//58 115//58 114//78
f 97//58 115//58 79//58
f 115//58 97//58 116//78
f 111//76 116//78 97//58
f 105//74 94//69 116//78
f 116//78 111//76 105//74
