mtllib new-3.mtl
v 0.692660 0.042540 0.352511
v 0.665843 -0.078677 0.325694
v 0.665843 0.042540 0.325694
v 0.692660 -0.078677 0.352511
v 0.692660 -0.078677 0.472795
v 0.665843 -0.078677 0.445978
v 0.665843 0.042540 0.445978
v 0.692660 0.042540 0.472795
v 0.205218 0.024824 0.472795
v -0.518007 -0.078677 0.445978
v 0.205218 -0.075382 0.445978
v -0.700712 0.042540 0.472795
v -0.213271 0.024824 0.472795
v 0.205218 -0.075382 0.472795
v -0.553611 -0.078677 0.445978
v -0.213271 -0.075382 0.445978
v 0.205218 0.024824 0.445978
v -0.518007 0.042540 0.445978
v -0.700712 -0.078677 0.352511
v -0.213271 0.024824 0.445978
v -0.213271 -0.075382 0.472795
v -0.673895 -0.078677 0.445978
v -0.553611 0.042540 0.445978
v -0.700712 0.042540 0.352511
v -0.673895 0.042540 0.325694
v -0.700712 -0.078677 0.472795
v -0.673895 0.042540 0.445978
v -0.673895 -0.078677 0.325694
vn 0.000000 0.000000 -1.000000
vn 0.000000 0.000000 1.000000
vn 1.000000 0.000000 0.000000
vn -1.000000 0.000000 0.000000
vn 0.707107 0.000000 0.707107
vn -0.707107 0.000000 -0.707107
vn 0.000000 1.000000 0.000000
vn 0.000000 -1.000000 0.000000
vn -0.707107 0.000000 0.707107
vn 0.707107 0.000000 -0.707107
vt -1.683982 0.000000
vt -1.683982 0.225694
vt -1.736327 0.000000
vt -1.736327 0.225694
vt 0.234786 0.225694
vt -0.287130 0.000000
vt 2.954541 0.225694
vt -1.683982 2.768353
vt 0.234786 0.000000
vt -0.287130 0.225694
vt 1.736327 2.818283
vt 2.954541 0.000000
vt -1.736327 2.818283
vt 1.683982 2.768353
vt -1.971113 0.000000
vt -1.918769 2.768353
vt -1.918769 0.000000
vt 1.918769 2.768353
vt -1.971113 0.225694
vt -1.971113 2.818283
vt -1.918769 0.225694
vt 1.971113 2.818283
vt 1.736327 0.225694
vt 1.736327 0.000000
vt 2.003093 0.192708
vt -3.482963 0.000000
vt -3.408938 0.225694
vt -3.482963 0.225694
vt -1.918769 0.564138
vt -3.408938 0.000000
vt -2.003093 0.006135
vt -2.902197 0.225694
vt -2.902197 0.000000
vt 1.971113 0.223958
vt 1.186235 0.192708
vt 2.003093 0.006135
vt -1.918769 0.497847
vt -0.591413 0.000000
vt -1.186235 0.006135
vt -2.003093 0.192708
vt 1.918769 0.564138
vt 1.153742 0.225694
vt 1.227768 0.000000
vt 1.227768 0.225694
vt -1.918769 1.131527
vt -1.971113 1.910714
vt -1.971113 1.131527
vt 1.186235 0.006135
vt 1.971113 0.192708
vt 1.918769 0.006135
vt 1.971113 0.006135
vt -1.918769 0.273888
vt -1.186235 0.192708
vt 1.918769 0.192708
vt 1.971113 1.131527
vt 1.918769 1.910714
vt 1.918769 1.131527
vt 1.918769 0.497847
vt -0.591413 0.225694
vt -1.736327 0.223958
vt 1.153742 0.000000
vt 1.683982 0.273888
vt -1.918769 1.910714
vt -1.971113 0.006135
vt -1.918769 0.192708
vt -1.971113 0.192708
vt 1.971113 1.910714
vt -1.971113 0.223958
vt -0.521917 0.225694
vt -0.521917 0.000000
vt -1.918769 0.006135
vt 1.918769 0.273888
vt 1.971113 0.225694
vt -0.987723 0.000000
vt -1.061749 0.225694
vt -1.061749 0.000000
vt 1.736327 0.223958
vt -1.683982 0.273888
vt 1.971113 0.000000
vt -0.987723 0.225694
usemtl material-0
f 1/4/3 5/15/3 4/3/3
f 4/3/4 5/15/4 1/4/4
f 4/13/8 6/16/8 2/8/8
f 2/8/7 6/16/7 4/13/7
f 3/2/3 6/17/3 2/1/3
f 2/1/4 6/17/4 3/2/4
f 7/18/7 1/11/7 3/14/7
f 3/14/8 1/11/8 7/18/8
f 5/15/3 1/4/3 8/19/3
f 8/19/4 1/4/4 5/15/4
f 6/16/8 4/13/8 5/20/8
f 5/20/7 4/13/7 6/16/7
f 6/17/3 3/2/3 7/21/3
f 7/21/4 3/2/4 6/17/4
f 1/11/7 7/18/7 8/22/7
f 8/22/8 7/18/8 1/11/8
f 8/7/2 9/25/2 5/12/2
f 5/12/1 9/25/1 8/7/1
f 5/26/10 7/27/10 8/28/10
f 8/28/9 7/27/9 5/26/9
f 5/20/8 10/29/8 6/16/8
f 6/16/7 10/29/7 5/20/7
f 7/27/10 5/26/10 6/30/10
f 6/30/9 5/26/9 7/27/9
f 11/31/1 7/32/1 6/33/1
f 6/33/2 7/32/2 11/31/2
f 7/18/7 12/34/7 8/22/7
f 8/22/8 12/34/8 7/18/8
f 8/7/2 13/35/2 9/25/2
f 9/25/1 13/35/1 8/7/1
f 14/36/2 5/12/2 9/25/2
f 9/25/1 5/12/1 14/36/1
f 10/29/8 5/20/8 15/37/8
f 15/37/7 5/20/7 10/29/7
f 10/38/1 16/39/1 6/33/1
f 6/33/2 16/39/2 10/38/2
f 17/40/1 7/32/1 11/31/1
f 11/31/2 7/32/2 17/40/2
f 6/33/1 16/39/1 11/31/1
f 11/31/2 16/39/2 6/33/2
f 18/41/7 12/34/7 7/18/7
f 7/18/8 12/34/8 18/41/8
f 12/5/2 13/35/2 8/7/2
f 8/7/1 13/35/1 12/5/1
f 20/45/8 9/46/8 13/47/8
f 13/47/7 9/46/7 20/45/7
f 21/48/2 5/12/2 14/36/2
f 14/36/1 5/12/1 21/48/1
f 9/49/4 11/50/4 14/51/4
f 14/51/3 11/50/3 9/49/3
f 15/37/8 5/20/8 22/52/8
f 22/52/7 5/20/7 15/37/7
f 16/39/1 10/38/1 20/53/1
f 20/53/2 10/38/2 16/39/2
f 20/53/1 7/32/1 17/40/1
f 17/40/2 7/32/2 20/53/2
f 11/50/4 9/49/4 17/54/4
f 17/54/3 9/49/3 11/50/3
f 21/55/7 11/56/7 16/57/7
f 16/57/8 11/56/8 21/55/8
f 23/58/7 12/34/7 18/41/7
f 18/41/8 12/34/8 23/58/8
f 20/53/1 18/59/1 7/32/1
f 7/32/2 18/59/2 20/53/2
f 13/35/2 12/5/2 21/48/2
f 21/48/1 12/5/1 13/35/1
f 9/46/8 20/45/8 17/63/8
f 17/63/7 20/45/7 9/46/7
f 21/64/3 20/65/3 13/66/3
f 13/66/4 20/65/4 21/64/4
f 21/48/2 26/9/2 5/12/2
f 5/12/1 26/9/1 21/48/1
f 11/56/7 21/55/7 14/67/7
f 14/67/8 21/55/8 11/56/8
f 22/52/8 5/20/8 26/68/8
f 26/68/7 5/20/7 22/52/7
f 22/6/1 23/69/1 15/70/1
f 15/70/2 23/69/2 22/6/2
f 18/59/1 20/53/1 10/38/1
f 10/38/2 20/53/2 18/59/2
f 20/65/3 21/64/3 16/71/3
f 16/71/4 21/64/4 20/65/4
f 12/34/7 23/58/7 27/72/7
f 27/72/8 23/58/8 12/34/8
f 26/9/2 21/48/2 12/5/2
f 12/5/1 21/48/1 26/9/1
f 19/24/4 12/73/4 24/23/4
f 24/23/3 12/73/3 19/24/3
f 28/74/5 24/75/5 19/76/5
f 19/76/6 24/75/6 28/74/6
f 19/60/8 22/52/8 26/68/8
f 26/68/7 22/52/7 19/60/7
f 26/43/6 27/42/6 22/61/6
f 22/61/5 27/42/5 26/43/5
f 23/69/1 22/6/1 27/10/1
f 27/10/2 22/6/2 23/69/2
f 27/72/7 24/77/7 12/34/7
f 12/34/8 24/77/8 27/72/8
f 27/42/6 26/43/6 12/44/6
f 12/44/5 26/43/5 27/42/5
f 12/73/4 19/24/4 26/79/4
f 26/79/3 19/24/3 12/73/3
f 24/75/5 28/74/5 25/80/5
f 25/80/6 28/74/6 24/75/6
f 22/52/8 19/60/8 28/78/8
f 28/78/7 19/60/7 22/52/7
f 24/77/7 27/72/7 25/62/7
f 25/62/8 27/72/8 24/77/8
f 22/17/3 25/2/3 27/21/3
f 27/21/4 25/2/4 22/17/4
f 25/2/3 22/17/3 28/1/3
f 28/1/4 22/17/4 25/2/4