mtllib new-11.mtl
v -0.202683 0.032595 0.479322
v -0.198679 0.028671 0.479322
v 0.201455 0.032595 0.479322
v 0.201455 0.032595 0.487211
v 0.205218 0.036283 0.479322
v -0.202683 0.032595 0.487211
v -0.206447 0.036283 0.479322
v -0.206447 0.036283 0.487211
v 0.205218 0.036283 0.487211
v 0.205218 0.036283 0.472795
v -0.206447 0.036283 0.472795
v 0.205218 0.008800 0.472795
v -0.194737 -0.059976 0.472795
v -0.206447 0.008800 0.472795
v 0.194029 0.008800 0.472795
v 0.194029 -0.059976 0.472795
v -0.194737 0.008800 0.472795
v -0.194737 -0.059976 0.022524
v 0.205218 0.008800 0.022524
v 0.003096 -0.019931 0.472795
v 0.194029 0.008800 0.288269
v 0.194029 -0.059976 0.022524
v -0.000996 -0.023259 0.472795
v -0.206447 0.008800 0.022524
v -0.194737 0.008800 0.288269
v -0.194737 0.008800 0.022524
v 0.194029 0.008800 0.281742
v 0.003068 -0.018957 0.472795
v 0.194029 -0.059976 0.288269
v 0.205218 0.008800 0.010402
v -0.001943 -0.023034 0.472795
v -0.000022 -0.023232 0.472795
v 0.194029 0.008800 0.022524
v -0.195258 0.008800 0.288269
v -0.194737 0.008800 0.281742
v -0.001206 -0.015867 0.472795
v 0.002790 -0.018024 0.472795
v 0.000286 -0.019308 0.474660
v 0.002871 -0.020878 0.472795
v -0.002800 -0.022572 0.472795
v -0.000614 -0.020482 0.474660
v -0.000373 -0.020450 0.474660
v 0.000910 -0.022953 0.472795
v -0.195258 0.008800 0.281742
v -0.000233 -0.015839 0.472795
v -0.002139 -0.016145 0.472795
v 0.002279 -0.017195 0.472795
v 0.000193 -0.019083 0.474660
v 0.000318 -0.019549 0.474660
v 0.002408 -0.021735 0.472795
v -0.003508 -0.021903 0.472795
v -0.000856 -0.020450 0.474660
v -0.000148 -0.020357 0.474660
v 0.001739 -0.022442 0.472795
v 0.000714 -0.016064 0.472795
v -0.000856 -0.018649 0.474660
v -0.001081 -0.018742 0.474660
v -0.002968 -0.016656 0.472795
v 0.194029 -0.059976 0.281742
v 0.001571 -0.016527 0.472795
v 0.000045 -0.018890 0.474660
v 0.000318 -0.019549 0.491593
v 0.000286 -0.019308 0.491593
v 0.000286 -0.019791 0.474660
v -0.004018 -0.021074 0.472795
v -0.001081 -0.020357 0.474660
v -0.000373 -0.020450 0.491593
v -0.000614 -0.020482 0.491593
v -0.000148 -0.020357 0.491593
v 0.000045 -0.020209 0.474660
v -0.000614 -0.018617 0.474660
v -0.001274 -0.018890 0.474660
v -0.003637 -0.017364 0.472795
v -0.000148 -0.018742 0.474660
v 0.000193 -0.019083 0.491593
v 0.000286 -0.019791 0.491593
v 0.000193 -0.020015 0.474660
v -0.004297 -0.020141 0.472795
v -0.001274 -0.020209 0.474660
v -0.000856 -0.020450 0.491593
v 0.000045 -0.020209 0.491593
v -0.000373 -0.018649 0.474660
v -0.000856 -0.018649 0.491593
v -0.001081 -0.018742 0.491593
v -0.001274 -0.018890 0.491593
v -0.001422 -0.019083 0.474660
v -0.004099 -0.018220 0.472795
v -0.000148 -0.018742 0.491593
v 0.000193 -0.020015 0.491593
v -0.004325 -0.019168 0.472795
v -0.001422 -0.020015 0.474660
v -0.001081 -0.020357 0.491593
v -0.000614 -0.018617 0.491593
v -0.001515 -0.019308 0.474660
v -0.000373 -0.018649 0.491593
v -0.001515 -0.019791 0.474660
v -0.001422 -0.020015 0.491593
v -0.001422 -0.019083 0.491593
v -0.001547 -0.019549 0.474660
v -0.001515 -0.019791 0.491593
v -0.001515 -0.019308 0.491593
v -0.001547 -0.019549 0.491593
vn 0.000000 0.000000 -1.000000
vn 0.000000 0.000000 1.000000
vn 1.000000 0.000000 0.000000
vn -1.000000 0.000000 0.000000
vn 0.000000 -1.000000 0.000000
vn 0.000000 1.000000 0.000000
vn -0.554977 0.012903 -0.831766
vn -0.549633 -0.102771 -0.829060
vn -0.539406 -0.131175 -0.831766
vn 0.539406 0.131175 0.831766
vn 0.549633 0.102771 0.829060
vn 0.554977 -0.012903 0.831766
vn 0.042986 0.557504 -0.829060
vn 0.012903 0.554977 -0.831766
vn 0.156102 0.532727 -0.831766
vn -0.156102 -0.532727 0.831766
vn -0.012903 -0.554977 0.831766
vn -0.042986 -0.557504 0.829060
vn -0.131175 0.539406 -0.831766
vn -0.102771 0.549633 -0.829060
vn 0.102771 -0.549633 0.829060
vn 0.131175 -0.539406 0.831766
vn -0.504306 -0.241525 -0.829060
vn -0.487076 -0.266314 -0.831766
vn 0.487076 0.266314 0.831766
vn 0.504306 0.241525 0.829060
vn -0.557504 0.042986 -0.829060
vn 0.557504 -0.042986 0.829060
vn -0.532727 0.156102 -0.831766
vn 0.532727 -0.156102 0.831766
vn 0.185814 0.527382 -0.829060
vn 0.288663 0.474172 -0.831766
vn -0.288663 -0.474172 0.831766
vn -0.185814 -0.527382 0.829060
vn -0.241525 0.504306 -0.829060
vn 0.241525 -0.504306 0.829060
vn -0.266314 0.487076 -0.831766
vn 0.266314 -0.487076 0.831766
vn -0.012903 -0.554977 -0.831766
vn 0.102771 -0.549633 -0.829060
vn 0.131175 -0.539406 -0.831766
vn -0.131175 0.539406 0.831766
vn -0.102771 0.549633 0.829060
vn 0.012903 0.554977 0.831766
vn 0.241525 -0.504306 -0.829060
vn 0.266314 -0.487076 -0.831766
vn -0.266314 0.487076 0.831766
vn -0.241525 0.504306 0.829060
vn -0.424611 -0.363819 -0.829060
vn -0.401552 -0.383304 -0.831766
vn 0.401552 0.383304 0.831766
vn 0.424611 0.363819 0.829060
vn 0.965926 0.258819 0.000000
vn -0.965926 -0.258819 0.000000
vn 0.866025 0.500000 0.000000
vn -0.866025 -0.500000 0.000000
vn -0.474172 0.288663 -0.831766
vn -0.527382 0.185814 -0.829060
vn 0.527382 -0.185814 0.829060
vn 0.474172 -0.288663 0.831766
vn 0.315979 0.461320 -0.829060
vn 0.401552 0.383304 -0.831766
vn -0.401552 -0.383304 0.831766
vn -0.315979 -0.461320 0.829060
vn 0.258819 -0.965926 0.000000
vn -0.258819 0.965926 0.000000
vn -0.258819 -0.965926 0.000000
vn 0.258819 0.965926 0.000000
vn 0.500000 -0.866025 0.000000
vn -0.500000 0.866025 0.000000
vn -0.363819 0.424611 -0.829060
vn 0.363819 -0.424611 0.829060
vn -0.383304 0.401552 -0.831766
vn 0.383304 -0.401552 0.831766
vn -0.156102 -0.532727 -0.831766
vn -0.042986 -0.557504 -0.829060
vn 0.042986 0.557504 0.829060
vn 0.156102 0.532727 0.831766
vn 0.363819 -0.424611 -0.829060
vn -0.363819 0.424611 0.829060
vn 0.383304 -0.401552 -0.831766
vn -0.383304 0.401552 0.831766
vn -0.315979 -0.461320 -0.829060
vn -0.288663 -0.474172 -0.831766
vn 0.288663 0.474172 0.831766
vn 0.315979 0.461320 0.829060
vn 0.707107 0.707107 0.000000
vn -0.707107 -0.707107 0.000000
vn 0.965926 -0.258819 0.000000
vn -0.965926 0.258819 0.000000
vn -0.461320 0.315979 -0.829060
vn 0.461320 -0.315979 0.829060
vn 0.424611 0.363819 -0.829060
vn 0.487076 0.266314 -0.831766
vn -0.487076 -0.266314 0.831766
vn -0.424611 -0.363819 0.829060
vn -0.500000 -0.866025 0.000000
vn 0.500000 0.866025 0.000000
vn 0.707107 -0.707107 0.000000
vn -0.707107 0.707107 0.000000
vn -0.185814 -0.527382 -0.829060
vn 0.185814 0.527382 0.829060
vn 0.461320 -0.315979 -0.829060
vn -0.461320 0.315979 0.829060
vn 0.474172 -0.288663 -0.831766
vn -0.474172 0.288663 0.831766
vn 0.866025 -0.500000 0.000000
vn -0.866025 0.500000 0.000000
vn 0.504306 0.241525 -0.829060
vn 0.539406 0.131175 -0.831766
vn -0.539406 -0.131175 0.831766
vn -0.504306 -0.241525 0.829060
vn 0.527382 -0.185814 -0.829060
vn -0.527382 0.185814 0.829060
vn 0.532727 -0.156102 -0.831766
vn -0.532727 0.156102 0.831766
vn 0.549633 0.102771 -0.829060
vn 0.554977 -0.012903 -0.831766
vn -0.554977 0.012903 0.831766
vn -0.549633 -0.102771 0.829060
vn 0.557504 -0.042986 -0.829060
vn -0.557504 0.042986 0.829060
vt 2.381248 0.311719
vt 2.375656 0.300759
vt 1.816898 0.311719
vt 0.897772 -3.633797
vt 0.908787 -4.762496
vt 0.908787 -3.633797
vt 1.811643 0.322021
vt 2.386504 0.322021
vt -2.381248 0.311719
vt -2.386504 0.322021
vt -0.908787 0.322021
vt -1.811643 0.322021
vt -0.897772 -4.773007
vt -0.908787 -3.623285
vt -0.908787 -4.773007
vt -0.917902 -3.623285
vt 0.908787 0.322021
vt -0.917902 0.053181
vt -0.897772 -3.623285
vt -0.917902 -4.773007
vt 0.917902 0.245265
vt 0.917902 0.322021
vt 0.917902 0.053181
vt 2.370151 0.053181
vt -0.917902 0.245265
vt 2.386504 0.245265
vt -0.917902 0.322021
vt 1.827268 0.245265
vt 1.811643 0.245265
vt 1.827268 0.053181
vt 1.546673 0.053181
vt -1.546673 0.053181
vt 2.370151 0.245265
vt -1.546673 -4.740302
vt -0.917902 -4.740302
vt 1.546673 0.245265
vt 2.093892 0.165023
vt -1.175579 -3.654535
vt -0.917902 -3.654535
vt -1.546673 -3.654535
vt 2.099606 0.155726
vt -1.546673 -3.623285
vt -1.546673 0.245265
vt -1.546673 -4.773007
vt -1.175579 -4.740302
vt -1.184694 -3.654535
vt 2.093931 0.167741
vt -1.175579 0.053181
vt -1.175579 0.245265
vt 2.100929 0.156355
vt 2.098247 0.155804
vt -1.827268 0.245265
vt -2.370151 0.053181
vt -1.175579 -4.741757
vt 1.184694 0.245265
vt 1.175579 0.245265
vt -1.827268 0.053181
vt -2.370151 0.245265
vt 2.099900 0.176373
vt 2.094320 0.170347
vt 1.231311 0.225903
vt 1.236020 0.227642
vt 1.231343 0.228621
vt 2.094206 0.162378
vt 2.102125 0.157647
vt 2.214228 -0.493840
vt 2.215152 -0.503061
vt 2.216460 -0.502314
vt 2.080420 -0.934136
vt 2.081779 -0.934229
vt 2.080959 -0.924793
vt 2.096944 0.156582
vt -1.563600 -3.623285
vt -1.184694 -4.741757
vt -1.184694 -4.740302
vt 2.098540 0.176451
vt 2.101202 0.175595
vt -1.184694 0.245265
vt 2.095033 0.172662
vt 1.268454 0.770537
vt 1.273240 0.770181
vt 1.268782 0.773176
vt 1.210428 0.452014
vt 1.215100 0.453082
vt 1.215136 0.453758
vt 1.272740 0.988984
vt 1.277415 0.987981
vt 1.277525 0.988625
vt 2.094853 0.159985
vt 1.255175 -0.327351
vt 1.255438 -0.330018
vt 1.259846 -0.326276
vt 2.103113 0.159515
vt 2.277963 -0.089056
vt 2.280198 -0.097330
vt 2.281338 -0.095848
vt 2.008228 -1.102818
vt 2.008860 -1.112312
vt 2.008563 -1.102926
vt 2.172678 -0.679243
vt 2.174759 -0.687868
vt 2.173014 -0.679136
vt 1.794566 -1.359992
vt 1.795704 -1.350866
vt 1.795400 -1.350561
vt 1.887191 -1.246789
vt 1.888471 -1.247709
vt 1.889132 -1.238223
vt 2.095786 0.158008
vt 2.097218 0.175822
vt 2.115609 1.121825
vt 2.116429 1.112389
vt 2.116968 1.121732
vt 2.234281 0.679753
vt 2.236222 0.688319
vt 2.234942 0.689238
vt 2.102360 0.174169
vt -1.184694 0.053181
vt 2.096021 0.174530
vt 1.366358 1.231468
vt 1.370976 1.228941
vt 1.366977 1.233888
vt 1.396745 1.411259
vt 1.401175 1.408108
vt 1.401357 1.408683
vt 0.915298 0.712976
vt 0.891652 0.712296
vt 0.915298 0.712296
vt 0.915298 1.760347
vt 0.891652 1.759667
vt 0.915298 1.759667
vt 1.340004 -0.821645
vt 1.340561 -0.824126
vt 1.344435 -0.818496
vt 1.210687 -0.125540
vt 1.215136 -0.122494
vt 1.215100 -0.121819
vt 2.103826 0.161830
vt 2.290128 0.185298
vt 2.293397 0.178536
vt 2.294295 0.180577
vt 2.263468 -0.227138
vt 2.266758 -0.234098
vt 2.263772 -0.226833
vt 0.891652 -4.140212
vt 0.915298 -4.140891
vt 0.915298 -4.140212
vt -0.891652 4.183569
vt -0.915298 4.184249
vt -0.915298 4.183569
vt 0.891652 -3.814682
vt 0.915298 -3.815362
vt 0.915298 -3.814682
vt 1.578165 -1.353756
vt 1.580536 -1.345635
vt 1.580288 -1.345171
vt 1.674263 -1.336215
vt 1.675356 -1.337834
vt 1.677358 -1.329133
vt 1.932447 1.474876
vt 1.934678 1.466402
vt 1.933754 1.475623
vt 2.172381 0.963192
vt 2.172678 0.953806
vt 2.173014 0.953699
vt 2.263468 0.509957
vt 2.263772 0.509652
vt 2.264606 0.519083
vt 2.290336 0.178379
vt 2.290585 0.177915
vt 2.292707 0.186500
vt 2.284535 0.308087
vt 2.287629 0.315168
vt 2.286536 0.316787
vt 2.103294 0.172192
vt 1.521286 1.537692
vt 1.525452 1.532971
vt 1.522184 1.539733
vt 1.576403 1.647049
vt 1.580288 1.641748
vt 1.580536 1.642212
vt 0.915298 2.687776
vt 0.891652 2.687096
vt 0.915298 2.687096
vt 0.891652 -0.383640
vt 0.915298 -0.382960
vt 1.483212 -1.180633
vt 1.484052 -1.182771
vt 1.487132 -1.175438
vt 1.273517 -0.669301
vt 1.277525 -0.664382
vt 1.277415 -0.663738
vt 0.915298 -0.383640
vt 2.104215 0.164436
vt 2.277872 0.298723
vt 2.281871 0.293776
vt 2.282491 0.296197
vt 2.290336 0.118198
vt 2.294469 0.113361
vt 2.290585 0.118662
vt -0.891652 3.941801
vt -0.915298 3.942481
vt -0.915298 3.941801
vt 0.915298 -3.229845
vt 0.891652 -3.229165
vt 0.915298 -3.229165
vt 1.398031 -1.103623
vt 1.401357 -1.096974
vt 1.401175 -1.096399
vt 1.719940 1.627887
vt 1.723316 1.621094
vt 1.721081 1.629368
vt 2.006482 1.386113
vt 2.008228 1.377381
vt 2.008563 1.377488
vt -0.891652 -4.140891
vt -0.915298 -4.140212
vt -0.915298 -4.140891
vt -0.891652 -3.815362
vt -0.915298 -3.814682
vt -0.915298 -3.815362
vt -0.891652 -3.229845
vt -0.915298 -3.229165
vt -0.915298 -3.229845
vt 2.281608 0.015910
vt 2.281789 0.015336
vt 2.284933 0.022559
vt 2.289040 0.082704
vt 2.292960 0.087898
vt 2.292120 0.090037
vt 2.103940 0.169799
vt 1.792414 1.640646
vt 1.795400 1.633380
vt 1.795704 1.633686
vt 0.891652 3.432062
vt 0.915298 3.431382
vt 0.915298 3.432062
vt 0.915298 -1.452775
vt 0.891652 -1.453455
vt 0.915298 -1.453455
vt 2.104254 0.167154
vt 2.262257 0.277712
vt 2.266714 0.274717
vt 2.267042 0.277356
vt 2.281608 0.295798
vt 2.286220 0.293223
vt 2.281789 0.296373
vt -0.891652 3.431382
vt -0.915298 3.432062
vt -0.915298 3.431382
vt 0.915298 -2.423563
vt 0.891652 -2.424242
vt 0.915298 -2.424242
vt 0.891652 4.184249
vt 0.915298 4.183569
vt 0.915298 4.184249
vt -0.915298 -2.424242
vt -0.891652 -2.423563
vt -0.915298 -2.423563
vt 2.263066 0.008459
vt 2.263176 0.007815
vt 2.267074 0.013378
vt 2.274471 0.015339
vt 2.278901 0.018487
vt 2.278345 0.020968
vt 0.891652 3.942481
vt 0.915298 3.941801
vt 0.915298 3.942481
vt 2.254929 0.178214
vt 2.259605 0.177235
vt 2.259637 0.179954
vt 2.263066 0.315784
vt 2.267851 0.315425
vt 2.263176 0.316428
vt -0.915298 2.687096
vt -0.891652 2.687776
vt -0.915298 2.687776
vt -0.915298 -1.453455
vt -0.891652 -1.452775
vt -0.915298 -1.452775
vt 2.250416 0.102596
vt 2.250452 0.101920
vt 2.254865 0.105641
vt 2.259835 0.067718
vt 2.264507 0.068792
vt 2.264243 0.071460
vt 2.250416 0.228668
vt 2.255124 0.230412
vt 2.250452 0.229344
vt -0.915298 1.759667
vt -0.891652 1.760347
vt -0.915298 1.760347
vt -0.915298 -0.383640
vt -0.891652 -0.382960
vt -0.915298 -0.382960
vt -0.915298 0.712296
vt -0.891652 0.712976
vt -0.915298 0.712976
usemtl material-0
f 2/2/1 1/1/1 3/3/1
f 3/3/2 1/1/2 2/2/2
f 4/4/5 1/5/5 3/6/5
f 3/6/6 1/5/6 4/4/6
f 1/1/1 5/7/1 3/3/1
f 3/3/2 5/7/2 1/1/2
f 1/1/1 7/8/1 5/7/1
f 5/7/2 7/8/2 1/1/2
f 8/13/6 5/14/6 7/15/6
f 7/15/5 5/14/5 8/13/5
f 10/16/6 7/15/6 5/14/6
f 5/14/5 7/15/5 10/16/5
f 8/10/2 6/9/2 9/12/2
f 9/12/1 6/9/1 8/10/1
f 5/14/6 8/13/6 9/19/6
f 9/19/5 8/13/5 5/14/5
f 7/15/6 10/16/6 11/20/6
f 11/20/5 10/16/5 7/15/5
f 5/17/3 12/21/3 10/22/3
f 10/22/4 12/21/4 5/17/4
f 10/7/1 14/26/1 11/8/1
f 11/8/2 14/26/2 10/7/2
f 14/25/4 7/11/4 11/27/4
f 11/27/3 7/11/3 14/25/3
f 15/28/1 10/7/1 12/29/1
f 12/29/2 10/7/2 15/28/2
f 14/26/1 10/7/1 17/33/1
f 17/33/2 10/7/2 14/26/2
f 20/37/1 10/7/1 15/28/1
f 15/28/2 10/7/2 20/37/2
f 12/16/6 21/38/6 15/39/6
f 15/39/5 21/38/5 12/16/5
f 22/40/6 13/35/6 16/39/6
f 16/39/5 13/35/5 22/40/5
f 13/24/1 23/41/1 16/30/1
f 16/30/2 23/41/2 13/24/2
f 25/45/6 14/20/6 17/35/6
f 17/35/5 14/20/5 25/45/5
f 13/35/6 22/40/6 18/34/6
f 18/34/5 22/40/5 13/35/5
f 26/36/3 13/23/3 18/31/3
f 18/31/4 13/23/4 26/36/4
f 13/23/3 26/36/3 17/21/3
f 17/21/4 26/36/4 13/23/4
f 17/33/1 10/7/1 13/24/1
f 13/24/2 10/7/2 17/33/2
f 19/42/6 27/46/6 12/16/6
f 12/16/5 27/46/5 19/42/5
f 28/47/1 10/7/1 20/37/1
f 20/37/2 10/7/2 28/47/2
f 16/30/1 20/37/1 15/28/1
f 15/28/2 20/37/2 16/30/2
f 15/25/4 29/48/4 16/18/4
f 16/18/3 29/48/3 15/25/3
f 12/16/6 27/46/6 21/38/6
f 21/38/5 27/46/5 12/16/5
f 29/48/4 15/25/4 21/49/4
f 21/49/3 15/25/3 29/48/3
f 23/41/1 13/24/1 31/50/1
f 31/50/2 13/24/2 23/41/2
f 16/30/1 23/41/1 32/51/1
f 32/51/2 23/41/2 16/30/2
f 14/20/6 26/34/6 24/44/6
f 24/44/5 26/34/5 14/20/5
f 34/54/6 14/20/6 25/45/6
f 25/45/5 14/20/5 34/54/5
f 17/21/3 35/55/3 25/56/3
f 25/56/4 35/55/4 17/21/4
f 22/57/2 26/58/2 18/53/2
f 18/53/1 26/58/1 22/57/1
f 17/21/3 26/36/3 35/55/3
f 35/55/4 26/36/4 17/21/4
f 13/24/1 10/7/1 36/59/1
f 36/59/2 10/7/2 13/24/2
f 27/46/6 19/42/6 33/40/6
f 33/40/5 19/42/5 27/46/5
f 37/60/1 10/7/1 28/47/1
f 28/47/2 10/7/2 37/60/2
f 20/61/7 38/62/8 28/63/9
f 28/63/10 38/62/11 20/61/12
f 16/30/1 39/64/1 20/37/1
f 20/37/2 39/64/2 16/30/2
f 31/50/1 13/24/1 40/65/1
f 40/65/2 13/24/2 31/50/2
f 41/66/13 23/67/14 31/68/15
f 31/68/16 23/67/17 41/66/18
f 32/69/19 23/70/14 42/71/20
f 42/71/21 23/70/17 32/69/22
f 16/30/1 32/51/1 43/72/1
f 43/72/2 32/51/2 16/30/2
f 30/73/6 24/44/6 19/42/6
f 19/42/5 24/44/5 30/73/5
f 19/42/6 26/34/6 33/40/6
f 33/40/5 26/34/5 19/42/5
f 26/34/6 14/20/6 44/74/6
f 44/74/5 14/20/5 26/34/5
f 19/42/6 24/44/6 26/34/6
f 26/34/5 24/44/5 19/42/5
f 44/74/6 14/20/6 34/54/6
f 34/54/5 14/20/5 44/74/5
f 35/75/6 34/54/6 25/45/6
f 25/45/5 34/54/5 35/75/5
f 26/58/2 22/57/2 33/52/2
f 33/52/1 22/57/1 26/58/1
f 35/75/6 26/34/6 44/74/6
f 44/74/5 26/34/5 35/75/5
f 36/59/1 10/7/1 45/76/1
f 45/76/2 10/7/2 36/59/2
f 13/24/1 36/59/1 46/77/1
f 46/77/2 36/59/2 13/24/2
f 22/32/4 27/78/4 33/43/4
f 33/43/3 27/78/3 22/32/3
f 47/79/1 10/7/1 37/60/1
f 37/60/2 10/7/2 47/79/2
f 28/80/9 48/81/23 37/82/24
f 37/82/25 48/81/26 28/80/10
f 20/83/7 49/84/27 38/85/8
f 38/85/11 49/84/28 20/83/12
f 28/86/9 38/87/8 48/88/23
f 48/88/26 38/87/11 28/86/10
f 16/30/1 50/89/1 39/64/1
f 39/64/2 50/89/2 16/30/2
f 20/90/7 39/91/29 49/92/27
f 49/92/28 39/91/30 20/90/12
f 40/65/1 13/24/1 51/93/1
f 51/93/2 13/24/2 40/65/2
f 52/94/31 31/95/15 40/96/32
f 40/96/33 31/95/16 52/94/34
f 42/97/20 23/98/14 41/99/13
f 41/99/18 23/98/17 42/97/21
f 41/100/13 31/101/15 52/102/31
f 52/102/34 31/101/16 41/100/18
f 32/103/19 42/104/20 53/105/35
f 53/105/36 42/104/21 32/103/22
f 43/106/37 32/107/19 53/108/35
f 53/108/36 32/107/22 43/106/38
f 16/30/1 43/72/1 54/109/1
f 54/109/2 43/72/2 16/30/2
f 34/54/6 35/75/6 44/74/6
f 44/74/5 35/75/5 34/54/5
f 45/76/1 10/7/1 55/110/1
f 55/110/2 10/7/2 45/76/2
f 45/111/39 56/112/40 36/113/41
f 36/113/42 56/112/43 45/111/44
f 57/114/45 46/115/46 36/116/41
f 36/116/42 46/115/47 57/114/48
f 13/24/1 46/77/1 58/117/1
f 58/117/2 46/77/2 13/24/2
f 27/78/4 22/32/4 59/118/4
f 59/118/3 22/32/3 27/78/3
f 60/119/1 10/7/1 47/79/1
f 47/79/2 10/7/2 60/119/2
f 37/120/24 61/121/49 47/122/50
f 47/122/51 61/121/52 37/120/25
f 37/123/24 48/124/23 61/125/49
f 61/125/52 48/124/26 37/123/25
f 38/126/53 62/127/3 49/128/3
f 49/128/4 62/127/4 38/126/54
f 48/129/55 63/130/53 38/131/53
f 38/131/54 63/130/54 48/129/56
f 16/30/1 54/109/1 50/89/1
f 50/89/2 54/109/2 16/30/2
f 39/132/29 50/133/57 64/134/58
f 64/134/59 50/133/60 39/132/30
f 39/135/29 64/136/58 49/137/27
f 49/137/28 64/136/59 39/135/30
f 51/93/1 13/24/1 65/138/1
f 65/138/2 13/24/2 51/93/2
f 66/139/61 40/140/32 51/141/62
f 51/141/63 40/140/33 66/139/64
f 52/142/31 40/143/32 66/144/61
f 66/144/64 40/143/33 52/142/34
f 67/145/65 41/146/5 42/147/65
f 42/147/66 41/146/6 67/145/66
f 68/148/5 52/149/67 41/150/5
f 41/150/6 52/149/68 68/148/6
f 69/151/69 42/152/65 53/153/69
f 53/153/70 42/152/66 69/151/70
f 43/154/37 53/155/35 70/156/71
f 70/156/72 53/155/36 43/154/38
f 54/157/73 43/158/37 70/159/71
f 70/159/72 43/158/38 54/157/74
f 55/110/1 10/7/1 60/119/1
f 60/119/2 10/7/2 55/110/2
f 55/160/75 71/161/76 45/162/39
f 45/162/44 71/161/77 55/160/78
f 45/163/39 71/164/76 56/165/40
f 56/165/43 71/164/77 45/163/44
f 56/166/40 57/167/45 36/168/41
f 36/168/42 57/167/48 56/166/43
f 57/169/45 72/170/79 46/171/46
f 46/171/47 72/170/80 57/169/48
f 72/172/79 58/173/81 46/174/46
f 46/174/47 58/173/82 72/172/80
f 13/24/1 58/117/1 73/175/1
f 73/175/2 58/117/2 13/24/2
f 47/176/50 74/177/83 60/178/84
f 60/178/85 74/177/86 47/176/51
f 47/179/50 61/180/49 74/181/83
f 74/181/86 61/180/52 47/179/51
f 61/182/87 75/183/55 48/184/55
f 48/184/56 75/183/56 61/182/88
f 50/187/57 54/188/73 77/189/91
f 77/189/92 54/188/74 50/187/60
f 50/190/57 77/191/91 64/192/58
f 64/192/59 77/191/92 50/190/60
f 49/186/3 76/185/89 64/193/89
f 64/193/90 76/185/90 49/186/4
f 65/138/1 13/24/1 78/194/1
f 78/194/2 13/24/2 65/138/2
f 79/195/93 51/196/62 65/197/94
f 65/197/95 51/196/63 79/195/96
f 66/198/61 51/199/62 79/200/93
f 79/200/96 51/199/63 66/198/64
f 80/201/67 66/202/97 52/203/67
f 52/203/68 66/202/98 80/201/68
f 81/205/99 53/204/69 70/206/99
f 70/206/100 53/204/70 81/205/100
f 54/207/73 70/208/71 77/209/91
f 77/209/92 70/208/72 54/207/74
f 60/210/84 82/211/101 55/212/75
f 55/212/78 82/211/102 60/210/85
f 55/213/75 82/214/101 71/215/76
f 71/215/77 82/214/102 55/213/78
f 83/216/66 71/217/6 56/218/66
f 56/218/65 71/217/5 83/216/65
f 84/219/70 56/220/66 57/221/70
f 57/221/69 56/220/65 84/219/69
f 85/222/100 57/223/70 72/224/100
f 72/224/99 57/223/69 85/222/99
f 72/225/79 86/226/103 58/227/81
f 58/227/82 86/226/104 72/225/80
f 86/228/103 73/229/105 58/230/81
f 58/230/82 73/229/106 86/228/104
f 13/24/1 73/175/1 87/231/1
f 87/231/2 73/175/2 13/24/2
f 60/232/84 74/233/83 82/234/101
f 82/234/102 74/233/86 60/232/85
f 88/235/98 61/236/87 74/237/98
f 74/237/97 61/236/88 88/235/97
f 64/238/89 89/239/107 77/240/107
f 77/240/108 89/239/108 64/238/90
f 78/194/1 13/24/1 90/241/1
f 90/241/2 13/24/2 78/194/2
f 91/242/109 65/243/94 78/244/110
f 78/244/111 65/243/95 91/242/112
f 79/245/93 65/246/94 91/247/109
f 91/247/112 65/246/95 79/245/96
f 92/248/97 79/249/88 66/250/97
f 66/250/98 79/249/87 92/248/98
f 77/251/107 81/252/99 70/253/99
f 70/253/100 81/252/100 77/251/108
f 93/254/6 82/255/68 71/256/6
f 71/256/5 82/255/67 93/254/5
f 86/257/108 85/258/100 72/259/100
f 72/259/99 85/258/99 86/257/107
f 86/260/103 94/261/113 73/262/105
f 73/262/106 94/261/114 86/260/104
f 94/263/113 87/264/115 73/265/105
f 73/265/106 87/264/116 94/263/114
f 13/24/1 87/231/1 90/241/1
f 90/241/2 87/231/2 13/24/2
f 95/266/68 74/267/98 82/268/68
f 82/268/67 74/267/97 95/266/67
f 96/269/117 78/270/110 90/271/118
f 90/271/119 78/270/111 96/269/120
f 91/272/109 78/273/110 96/274/117
f 96/274/120 78/273/111 91/272/112
f 79/275/88 97/276/56 91/277/56
f 91/277/55 97/276/55 79/275/87
f 94/278/90 98/279/108 86/280/108
f 86/280/107 98/279/107 94/278/89
f 94/281/113 99/282/121 87/283/115
f 87/283/116 99/282/122 94/281/114
f 99/284/121 90/285/118 87/286/115
f 87/286/116 90/285/119 99/284/122
f 96/287/117 90/288/118 99/289/121
f 99/289/122 90/288/119 96/287/120
f 91/290/56 100/291/54 96/292/54
f 96/292/53 100/291/53 91/290/55
f 99/293/4 101/294/90 94/295/90
f 94/295/89 101/294/89 99/293/3
f 96/296/54 102/297/4 99/298/4
f 99/298/3 102/297/3 96/296/53