mtllib new-1.mtl
v 0.692660 -0.078677 -0.416752
v 0.692660 0.042540 -0.416752
v 0.692660 0.042540 -0.537036
v 0.665843 0.042540 -0.389935
v 0.692660 -0.078677 -0.537036
v 0.665843 0.042540 -0.510220
v 0.665843 -0.078677 -0.389935
v 0.665843 -0.078677 -0.510220
v -0.700712 -0.078677 -0.537036
v -0.673895 0.042540 -0.510220
v -0.700712 0.042540 -0.537036
v -0.673895 -0.078677 -0.510220
v -0.700712 0.042540 -0.416752
v -0.673895 -0.078677 -0.389935
v -0.700712 -0.078677 -0.416752
v -0.673895 0.042540 -0.389935
vn 0.000000 0.000000 -1.000000
vn 0.000000 0.000000 1.000000
vn 1.000000 0.000000 0.000000
vn -1.000000 0.000000 0.000000
vn 0.707107 0.000000 0.707107
vn -0.707107 0.000000 -0.707107
vn 0.000000 1.000000 0.000000
vn 0.000000 -1.000000 0.000000
vt -2.954541 0.000000
vt -2.954541 0.225694
vt -0.234786 0.000000
vt 0.000000 0.225694
vt -0.234786 0.225694
vt 1.849131 0.225694
vt 1.923157 0.000000
vt 0.287130 2.768353
vt 0.234786 2.818283
vt -0.234786 2.818283
vt 0.000000 0.000000
vt 0.000000 2.818283
vt 0.052344 2.768353
vt 1.849131 0.000000
vt -0.287130 2.768353
vt -0.052344 2.768353
vt 0.052344 0.273888
vt 0.287130 0.225694
vt 0.052344 0.000000
vt 0.287130 0.000000
vt 2.902197 0.225694
vt 2.902197 0.000000
vt 0.052344 0.225694
vt 0.000000 0.223958
vt -0.052344 0.273888
vt 0.234786 0.225694
vt 0.234786 0.223958
vt -0.052344 0.225694
vt -0.287130 0.000000
vt -0.052344 0.000000
vt -0.234786 0.223958
vt 0.234786 0.000000
vt 0.287130 0.273888
vt -0.287130 0.225694
vt -0.287130 0.273888
usemtl material-0
f 1/3/3 3/4/3 2/5/3
f 2/5/4 3/4/4 1/3/4
f 3/4/3 1/3/3 5/11/3
f 5/11/4 1/3/4 3/4/4
f 3/12/7 6/13/7 2/9/7
f 2/9/8 6/13/8 3/12/8
f 1/7/5 4/6/5 7/14/5
f 7/14/6 4/6/6 1/7/6
f 2/9/7 6/13/7 4/8/7
f 4/8/8 6/13/8 2/9/8
f 1/10/8 8/16/8 5/12/8
f 5/12/7 8/16/7 1/10/7
f 9/3/1 3/2/1 5/1/1
f 5/1/2 3/2/2 9/3/2
f 6/13/7 3/12/7 10/17/7
f 10/17/8 3/12/8 6/13/8
f 4/18/4 8/19/4 7/20/4
f 7/20/3 8/19/3 4/18/3
f 8/16/8 1/10/8 7/15/8
f 7/15/7 1/10/7 8/16/7
f 8/19/4 4/18/4 6/23/4
f 6/23/3 4/18/3 8/19/3
f 8/16/8 9/24/8 5/12/8
f 5/12/7 9/24/7 8/16/7
f 3/2/1 9/3/1 11/5/1
f 11/5/2 9/3/2 3/2/2
f 11/24/7 10/17/7 3/12/7
f 3/12/8 10/17/8 11/24/8
f 12/20/2 6/21/2 10/18/2
f 10/18/1 6/21/1 12/20/1
f 6/21/2 12/20/2 8/22/2
f 8/22/1 12/20/1 6/21/1
f 9/24/8 8/16/8 12/25/8
f 12/25/7 8/16/7 9/24/7
f 9/11/4 13/26/4 11/4/4
f 11/4/3 13/26/3 9/11/3
f 10/17/7 11/24/7 13/27/7
f 13/27/8 11/24/8 10/17/8
f 10/28/3 14/29/3 12/30/3
f 12/30/4 14/29/4 10/28/4
f 12/25/8 15/31/8 9/24/8
f 9/24/7 15/31/7 12/25/7
f 13/26/4 9/11/4 15/32/4
f 15/32/3 9/11/3 13/26/3
f 10/17/7 13/27/7 16/33/7
f 16/33/8 13/27/8 10/17/8
f 14/29/3 10/28/3 16/34/3
f 16/34/4 10/28/4 14/29/4
f 15/31/8 12/25/8 14/35/8
f 14/35/7 12/25/7 15/31/7