mtllib new-8.mtl
v 0.205218 -0.075382 0.022524
v -0.206447 -0.059976 0.022524
v -0.206447 -0.075382 0.010402
v -0.206447 0.008800 0.022524
v 0.205218 -0.075382 0.010402
v 0.205218 0.008800 0.010402
v -0.206447 0.008800 0.010402
vn 0.000000 0.000000 -1.000000
vn 0.000000 0.000000 1.000000
vn 1.000000 0.000000 0.000000
vn -1.000000 0.000000 0.000000
vn 0.000000 -1.000000 0.000000
vn 0.000000 1.000000 0.000000
vt 2.386504 0.010156
vt 1.811643 0.010156
vt 2.386504 0.245265
vt 1.811643 0.245265
vt 1.546673 -3.623285
vt -1.546673 0.053181
vt 1.563600 -4.773007
vt -1.546673 -4.773007
vt -1.563600 0.010156
vt 1.563600 -3.623285
vt -1.563600 0.245265
vt -1.563600 -3.623285
vt -1.563600 -4.773007
usemtl material-0
f 1/5/5 3/7/5 5/10/5
f 5/10/6 3/7/6 1/5/6
f 3/9/4 2/6/4 7/11/4
f 7/11/3 2/6/3 3/9/3
f 3/1/1 6/4/1 5/2/1
f 5/2/2 6/4/2 3/1/2
f 4/8/6 6/12/6 7/13/6
f 7/13/5 6/12/5 4/8/5
f 6/4/1 3/1/1 7/3/1
f 7/3/2 3/1/2 6/4/2