mtllib new-2.mtl
v 0.812945 0.042540 -0.416752
v 0.692660 -0.078677 -0.416752
v 0.692660 0.042540 -0.416752
v 0.812945 -0.078677 -0.416752
v 0.665843 0.042540 -0.389935
v 0.812945 -0.078677 0.325694
v 0.786128 -0.078677 -0.389935
v 0.665843 -0.078677 -0.389935
v 0.786128 0.042540 -0.389935
v 0.812945 0.042540 0.325694
v 0.812945 -0.078677 0.352511
v 0.786128 -0.078677 0.325694
v 0.786128 0.042540 0.325694
v 0.812945 0.042540 0.352511
v 0.692660 0.042540 0.352511
v 0.665843 -0.078677 0.325694
v 0.665843 0.042540 0.325694
v 0.692660 -0.078677 0.352511
vn 0.000000 0.000000 -1.000000
vn 0.000000 0.000000 1.000000
vn 1.000000 0.000000 0.000000
vn -1.000000 0.000000 0.000000
vn 0.707107 0.000000 0.707107
vn -0.707107 0.000000 -0.707107
vn 0.000000 1.000000 0.000000
vn 0.000000 -1.000000 0.000000
vn -0.707107 0.000000 0.707107
vn 0.707107 0.000000 -0.707107
vt -3.189328 0.225694
vt -2.954541 0.000000
vt -2.954541 0.225694
vt -3.189328 0.000000
vt -0.234786 0.000000
vt -0.234786 0.225694
vt 1.849131 0.225694
vt 1.923157 0.000000
vt 1.923157 0.225694
vt 0.287130 2.768353
vt 0.234786 3.042241
vt 0.234786 2.818283
vt -1.683982 0.000000
vt -0.287130 2.992311
vt -0.234786 2.818283
vt -0.234786 3.042241
vt 0.287130 2.992311
vt -1.683982 0.225694
vt -1.683982 3.042241
vt -0.287130 2.768353
vt 0.287130 0.225694
vt 0.287130 0.000000
vt 3.136983 0.000000
vt 2.902197 0.225694
vt 2.902197 0.000000
vt 3.136983 0.225694
vt 1.683982 3.042241
vt -1.736327 0.000000
vt -1.683982 2.992311
vt 1.683982 0.225694
vt 1.683982 2.992311
vt -1.736327 0.225694
vt -1.736327 3.042241
vt 1.683982 0.000000
vt 1.736327 3.042241
vt 2.954541 0.225694
vt 3.189328 0.000000
vt 3.189328 0.225694
vt 3.408938 0.225694
vt 3.482963 0.000000
vt 3.482963 0.225694
vt -1.683982 2.768353
vt 3.408938 0.000000
vt 1.736327 2.818283
vt 2.954541 0.000000
vt -1.736327 2.818283
vt 1.683982 2.768353
vt 3.242919 0.225694
vt 3.316944 0.000000
vt 3.316944 0.225694
vt 3.242919 0.000000
usemtl material-0
f 1/1/1 2/2/1 3/3/1
f 2/2/1 1/1/1 4/4/1
f 3/3/2 2/2/2 1/1/2
f 4/4/2 1/1/2 2/2/2
f 5/7/5 2/8/5 3/9/5
f 3/9/6 2/8/6 5/7/6
f 5/10/7 1/11/7 3/12/7
f 3/12/8 1/11/8 5/10/8
f 1/6/3 6/13/3 4/5/3
f 4/5/4 6/13/4 1/6/4
f 7/14/8 2/15/8 4/16/8
f 4/16/7 2/15/7 7/14/7
f 1/11/7 5/10/7 9/17/7
f 9/17/8 5/10/8 1/11/8
f 6/13/3 1/6/3 10/18/3
f 10/18/4 1/6/4 6/13/4
f 6/19/8 7/14/8 4/16/8
f 4/16/7 7/14/7 6/19/7
f 2/15/8 7/14/8 8/20/8
f 8/20/7 7/14/7 2/15/7
f 7/23/2 5/24/2 8/25/2
f 8/25/1 5/24/1 7/23/1
f 5/24/2 7/23/2 9/26/2
f 9/26/1 7/23/1 5/24/1
f 1/11/7 9/17/7 10/27/7
f 10/27/8 9/17/8 1/11/8
f 10/18/3 11/28/3 6/13/3
f 6/13/4 11/28/4 10/18/4
f 7/14/8 6/19/8 12/29/8
f 12/29/7 6/19/7 7/14/7
f 7/22/4 13/30/4 9/21/4
f 9/21/3 13/30/3 7/22/3
f 10/27/7 9/17/7 13/31/7
f 13/31/8 9/17/8 10/27/8
f 11/28/3 10/18/3 14/32/3
f 14/32/4 10/18/4 11/28/4
f 12/29/8 6/19/8 11/33/8
f 11/33/7 6/19/7 12/29/7
f 13/30/4 7/22/4 12/34/4
f 12/34/3 7/22/3 13/30/3
f 10/27/7 13/31/7 14/35/7
f 14/35/8 13/31/8 10/27/8
f 15/36/2 11/37/2 14/38/2
f 14/38/1 11/37/1 15/36/1
f 13/39/9 11/40/9 14/41/9
f 14/41/10 11/40/10 13/39/10
f 11/33/8 16/42/8 12/29/8
f 12/29/7 16/42/7 11/33/7
f 11/40/9 13/39/9 12/43/9
f 12/43/10 13/39/10 11/40/10
f 17/24/2 12/23/2 13/26/2
f 13/26/1 12/23/1 17/24/1
f 13/31/7 15/44/7 14/35/7
f 14/35/8 15/44/8 13/31/8
f 11/37/2 15/36/2 18/45/2
f 18/45/1 15/36/1 11/37/1
f 16/42/8 11/33/8 18/46/8
f 18/46/7 11/33/7 16/42/7
f 12/23/2 17/24/2 16/25/2
f 16/25/1 17/24/1 12/23/1
f 15/44/7 13/31/7 17/47/7
f 17/47/8 13/31/8 15/44/8
f 17/48/9 18/49/9 15/50/9
f 15/50/10 18/49/10 17/48/10
f 18/49/9 17/48/9 16/51/9
f 16/51/10 17/48/10 18/49/10