mtllib new-9.mtl
v -0.202683 0.032595 0.479322
v -0.198679 0.028671 0.479322
v -0.202683 -0.071693 0.479322
v -0.202683 -0.071693 0.487211
v -0.206447 -0.075382 0.479322
v -0.206447 0.036283 0.479322
v -0.206447 0.036283 0.487211
v -0.206447 -0.075382 0.472795
v -0.206447 -0.075382 0.487211
v -0.206447 -0.059976 0.472795
v -0.206447 -0.075382 0.022524
v -0.194737 -0.059976 0.472795
v -0.206447 0.008800 0.472795
v -0.206447 -0.059976 0.022524
v -0.194737 0.008800 0.472795
v -0.194737 -0.059976 0.022524
v -0.206447 -0.075382 0.010402
v -0.206447 0.008800 0.022524
v -0.194737 0.008800 0.022524
v -0.206447 0.008800 0.010402
v -0.195258 0.008800 0.288269
v -0.195258 0.008800 0.281742
v -0.195258 -0.060463 0.281742
vn 0.000000 0.000000 -1.000000
vn 0.000000 0.000000 1.000000
vn 1.000000 0.000000 0.000000
vn -1.000000 0.000000 0.000000
vn 0.000000 -1.000000 0.000000
vn 0.000000 1.000000 0.000000
vt 2.381248 0.311719
vt 2.375656 0.300759
vt 2.381248 0.020458
vt 0.908787 0.311719
vt 0.897772 0.020458
vt 0.908787 0.020458
vt 2.386504 0.010156
vt 2.386504 0.322021
vt -0.908787 0.010156
vt -0.897772 0.322021
vt -0.908787 0.322021
vt -0.917902 0.010156
vt -0.897772 0.010156
vt -0.917902 0.053181
vt -0.917902 -4.773007
vt 2.370151 0.053181
vt -0.917902 0.245265
vt -1.546673 0.010156
vt 2.386504 0.053181
vt 2.386504 0.245265
vt -1.546673 0.053181
vt 2.370151 0.245265
vt -1.546673 -4.740302
vt -0.917902 -4.740302
vt -1.546673 0.245265
vt -1.546673 -4.773007
vt -1.563600 0.010156
vt -1.175579 0.245265
vt -1.563600 0.245265
vt -2.370151 0.053181
vt -2.386504 0.245265
vt -2.386504 0.053181
vt -2.370151 0.245265
vt -1.184694 0.245265
vt -1.184694 0.051823
usemtl material-0
f 1/1/1 2/2/1 3/3/1
f 3/3/2 2/2/2 1/1/2
f 1/4/3 4/5/3 3/6/3
f 3/6/4 4/5/4 1/4/4
f 3/3/1 5/7/1 1/1/1
f 1/1/2 5/7/2 3/3/2
f 6/8/1 1/1/1 5/7/1
f 5/7/2 1/1/2 6/8/2
f 5/9/4 7/10/4 6/11/4
f 6/11/3 7/10/3 5/9/3
f 6/11/4 8/12/4 5/9/4
f 5/9/3 8/12/3 6/11/3
f 7/10/4 5/9/4 9/13/4
f 9/13/3 5/9/3 7/10/3
f 8/12/4 6/11/4 10/14/4
f 10/14/3 6/11/3 8/12/3
f 10/14/4 6/11/4 13/17/4
f 13/17/3 6/11/3 10/14/3
f 10/14/4 11/18/4 8/12/4
f 8/12/3 11/18/3 10/14/3
f 12/16/1 8/7/1 10/19/1
f 10/19/2 8/7/2 12/16/2
f 13/17/4 14/21/4 10/14/4
f 10/14/3 14/21/3 13/17/3
f 15/22/1 10/19/1 13/20/1
f 13/20/2 10/19/2 15/22/2
f 11/18/4 10/14/4 14/21/4
f 14/21/3 10/14/3 11/18/3
f 16/23/6 10/15/6 12/24/6
f 12/24/5 10/15/5 16/23/5
f 10/19/1 15/22/1 12/16/1
f 12/16/2 15/22/2 10/19/2
f 14/21/4 13/17/4 18/25/4
f 18/25/3 13/17/3 14/21/3
f 10/15/6 16/23/6 14/26/6
f 14/26/5 16/23/5 10/15/5
f 14/21/4 17/27/4 11/18/4
f 11/18/3 17/27/3 14/21/3
f 20/29/4 14/21/4 18/25/4
f 18/25/3 14/21/3 20/29/3
f 16/30/2 18/31/2 14/32/2
f 14/32/1 18/31/1 16/30/1
f 18/31/2 16/30/2 19/33/2
f 19/33/1 16/30/1 18/31/1
f 23/35/4 21/28/4 22/34/4
f 22/34/3 21/28/3 23/35/3