# SSTK version 0.8.0
# 7
mtllib original-7.mtl
o leg_base1/leg_base/mesh20/mesh20-geometry#mesh20-geometry
v 0.828796 0.042540 0.488647
v 0.692660 0.042540 0.352511
v 0.692660 0.042540 0.488647
v 0.828796 0.042540 0.352511
v 0.692660 -0.090612 0.488647
v 0.828796 -0.090612 0.447163
v 0.828796 -0.090612 0.352511
v 0.692660 -0.090612 0.352511
v 0.828796 -0.090612 0.488647
v 0.696039 -0.091531 0.355889
v 0.696039 -0.091531 0.485268
v 0.825417 -0.091531 0.485268
v 0.825417 -0.091531 0.355889
v 0.699438 -0.092371 0.359289
v 0.699438 -0.092371 0.481868
v 0.825417 -0.091531 0.447163
v 0.822018 -0.092371 0.481868
v 0.822018 -0.092371 0.359289
v 0.702856 -0.093132 0.362706
v 0.702856 -0.093132 0.478451
v 0.822018 -0.092371 0.447163
v 0.818600 -0.093132 0.478451
v 0.818600 -0.093132 0.362706
v 0.706290 -0.093815 0.366141
v 0.706290 -0.093815 0.475016
v 0.818600 -0.093132 0.447163
v 0.815166 -0.093815 0.475016
v 0.815166 -0.093815 0.366141
v 0.709739 -0.094418 0.369590
v 0.709739 -0.094418 0.471567
v 0.815166 -0.093815 0.447163
v 0.811717 -0.094418 0.471567
v 0.811717 -0.094418 0.369590
v 0.713202 -0.094941 0.373052
v 0.713202 -0.094941 0.468105
v 0.811717 -0.094418 0.447163
v 0.808255 -0.094941 0.468105
v 0.808255 -0.094941 0.373052
v 0.716675 -0.095384 0.376525
v 0.716675 -0.095384 0.464632
v 0.808255 -0.094941 0.447163
v 0.804781 -0.095384 0.464632
v 0.804781 -0.095384 0.376525
v 0.720157 -0.095747 0.380008
v 0.720157 -0.095747 0.461149
v 0.804781 -0.095384 0.447163
v 0.801299 -0.095747 0.461149
v 0.801299 -0.095747 0.380008
v 0.723648 -0.096029 0.383498
v 0.723648 -0.096029 0.457659
v 0.801299 -0.095747 0.447163
v 0.797809 -0.096029 0.457659
v 0.797809 -0.096029 0.383498
v 0.727143 -0.096231 0.386994
v 0.727143 -0.096231 0.454163
v 0.797809 -0.096029 0.447163
v 0.794313 -0.096231 0.454163
v 0.794313 -0.096231 0.386994
v 0.730643 -0.096353 0.390493
v 0.730643 -0.096353 0.450664
v 0.794313 -0.096231 0.447163
v 0.790814 -0.096353 0.450664
v 0.790814 -0.096353 0.390493
v 0.734144 -0.096393 0.393994
v 0.734144 -0.096393 0.447163
v 0.790814 -0.096353 0.447163
v 0.787312 -0.096393 0.447163
v 0.787312 -0.096393 0.393994
vt 0.190104 0
vt 0 0.380208
vt 0 0
vt 0.190104 0.380208
vt -0.190104 0.388021
vt 0 0.016144
vt 0 0.388021
vt 0.190104 0.388021
vt 0.057929 0.016144
vt -0.190104 0.016144
vt 0.190104 0.016144
vt -0.185386 -0.005545
vt 0 0.004234
vt -0.190104 0.004234
vt 0.004718 -0.005545
vt 0.190104 0.004234
vt 0 0.371133
vt 0.190104 0.371133
vt 0.057929 0.371133
vt -0.190104 0.371133
vt -0.004718 0.361354
vt -0.004718 -0.005545
vt 0.185386 -0.005545
vt 0.004718 0.361354
vt -0.185386 0.361354
vt -0.180639 -0.015682
vt -0.004718 -0.005903
vt -0.185386 -0.005903
vt 0.009465 -0.015682
vt 0.185386 -0.005903
vt 0.004718 -0.005903
vt 0.057929 0.361354
vt 0.185386 0.361354
vt -0.185386 0.363199
vt -0.009465 0.35342
vt -0.004718 0.363199
vt -0.009465 -0.015682
vt 0.180639 -0.015682
vt 0.004718 0.363199
vt 0.185386 0.363199
vt 0.057929 0.363199
vt -0.180639 0.35342
vt -0.175866 -0.025814
vt -0.009465 -0.016034
vt -0.180639 -0.016034
vt 0.014238 -0.025814
vt 0.180639 -0.016034
vt 0.009465 -0.016034
vt 0.009465 0.35342
vt 0.057929 0.35342
vt 0.180639 0.35342
vt -0.180639 0.355075
vt -0.014238 0.345295
vt -0.009465 0.355075
vt -0.014238 -0.025814
vt 0.175866 -0.025814
vt 0.009465 0.355075
vt 0.180639 0.355075
vt 0.057929 0.355075
vt -0.175866 0.345295
vt -0.171071 -0.035934
vt -0.014238 -0.026155
vt -0.175866 -0.026155
vt 0.019034 -0.035934
vt 0.175866 -0.026155
vt 0.014238 -0.026155
vt 0.014238 0.345295
vt 0.057929 0.345295
vt 0.175866 0.345295
vt -0.175866 0.346763
vt -0.019034 0.336984
vt -0.014238 0.346763
vt -0.019034 -0.035934
vt 0.171071 -0.035934
vt 0.014238 0.346763
vt 0.175866 0.346763
vt 0.057929 0.346763
vt -0.171071 0.336984
vt -0.166254 -0.046037
vt -0.019034 -0.036258
vt -0.171071 -0.036258
vt 0.02385 -0.046037
vt 0.171071 -0.036258
vt 0.019034 -0.036258
vt 0.019034 0.336984
vt 0.057929 0.336984
vt 0.171071 0.336984
vt -0.171071 0.33827
vt -0.02385 0.328491
vt -0.019034 0.33827
vt -0.02385 -0.046037
vt 0.166254 -0.046037
vt 0.019034 0.33827
vt 0.171071 0.33827
vt 0.057929 0.33827
vt -0.166254 0.328491
vt -0.161419 -0.056119
vt -0.02385 -0.04634
vt -0.166254 -0.04634
vt 0.028685 -0.056119
vt 0.166254 -0.04634
vt 0.02385 -0.04634
vt 0.02385 0.328491
vt 0.057929 0.328491
vt 0.166254 0.328491
vt -0.166254 0.329599
vt -0.028685 0.31982
vt -0.02385 0.329599
vt -0.028685 -0.056119
vt 0.161419 -0.056119
vt 0.02385 0.329599
vt 0.166254 0.329599
vt 0.057929 0.329599
vt -0.161419 0.31982
vt -0.156569 -0.066174
vt -0.028685 -0.056395
vt -0.161419 -0.056395
vt 0.033535 -0.066174
vt 0.161419 -0.056395
vt 0.028685 -0.056395
vt 0.028685 0.31982
vt 0.057929 0.31982
vt 0.161419 0.31982
vt -0.161419 0.320756
vt -0.033535 0.310976
vt -0.028685 0.320756
vt -0.033535 -0.066174
vt 0.156569 -0.066174
vt 0.028685 0.320756
vt 0.161419 0.320756
vt 0.057929 0.320756
vt -0.156569 0.310976
vt -0.151706 -0.076196
vt -0.033535 -0.066417
vt -0.156569 -0.066417
vt 0.038398 -0.076196
vt 0.156569 -0.066417
vt 0.033535 -0.066417
vt 0.033535 0.310976
vt 0.057929 0.310976
vt 0.156569 0.310976
vt -0.156569 0.311744
vt -0.038398 0.301965
vt -0.033535 0.311744
vt -0.038398 -0.076196
vt 0.151706 -0.076196
vt 0.033535 0.311744
vt 0.156569 0.311744
vt 0.057929 0.311744
vt -0.151706 0.301965
vt -0.146832 -0.08618
vt -0.038398 -0.0764
vt -0.151706 -0.0764
vt 0.043272 -0.08618
vt 0.151706 -0.0764
vt 0.038398 -0.0764
vt 0.038398 0.301965
vt 0.057929 0.301965
vt 0.151706 0.301965
vt -0.151706 0.302568
vt -0.043272 0.292789
vt -0.038398 0.302568
vt -0.043272 -0.08618
vt 0.146832 -0.08618
vt 0.038398 0.302568
vt 0.151706 0.302568
vt 0.057929 0.302568
vt -0.146832 0.292789
vt -0.141951 -0.09612
vt -0.043272 -0.086341
vt -0.146832 -0.086341
vt 0.048153 -0.09612
vt 0.146832 -0.086341
vt 0.043272 -0.086341
vt 0.043272 0.292789
vt 0.057929 0.292789
vt 0.146832 0.292789
vt -0.146832 0.293235
vt -0.048153 0.283456
vt -0.043272 0.293235
vt -0.048153 -0.09612
vt 0.141951 -0.09612
vt 0.043272 0.293235
vt 0.146832 0.293235
vt 0.057929 0.293235
vt -0.141951 0.283456
vt -0.137064 -0.106012
vt -0.048153 -0.096233
vt -0.141951 -0.096233
vt 0.05304 -0.106012
vt 0.141951 -0.096233
vt 0.048153 -0.096233
vt 0.048153 0.283456
vt 0.057929 0.283456
vt 0.141951 0.283456
vt -0.141951 0.283747
vt -0.05304 0.273968
vt -0.048153 0.283747
vt -0.05304 -0.106012
vt 0.137064 -0.106012
vt 0.048153 0.283747
vt 0.141951 0.283747
vt 0.057929 0.283747
vt -0.137064 0.273968
vt -0.132175 -0.115851
vt -0.05304 -0.106071
vt -0.137064 -0.106071
vt 0.057929 -0.115851
vt 0.137064 -0.106071
vt 0.05304 -0.106071
vt 0.05304 0.273968
vt 0.057929 0.273968
vt 0.137064 0.273968
vt -0.137064 0.274112
vt -0.057929 0.264332
vt -0.05304 0.274112
vt -0.057929 -0.115851
vt 0.132175 -0.115851
vt 0.05304 0.274112
vt 0.137064 0.274112
vt 0.057929 0.274112
vt -0.132175 0.264332
vt -0.132175 0.26435
vt -0.057929 0.115858
vt -0.057929 0.26435
vt -0.132175 0.115858
vt 0.057929 0.264332
vt 0.132175 0.264332
vn 0 1 0
vn 0 -1 0
vn -1 0 0
vn 1 0 0
vn 0 0 1
vn 0 0 -1
vn -0.2511160000872628 -0.967957000336365 0
vn -0.26226708794944675 -0.964995323604481 0
vn 0.26226708794944675 0.964995323604481 0
vn 0.2511160000872628 0.967957000336365 0
vn 0 -0.967957000336365 0.2511160000872628
vn 0 -0.964995323604481 0.26226708794944675
vn 0 0.964995323604481 -0.26226708794944675
vn 0 0.967957000336365 -0.2511160000872628
vn 0.26226708794944675 -0.964995323604481 0
vn -0.26226708794944675 0.964995323604481 0
vn 0 -0.964995323604481 -0.26226708794944675
vn 0 -0.967957000336365 -0.2511160000872628
vn 0 0.964995323604481 0.26226708794944675
vn 0 0.967957000336365 0.2511160000872628
vn 0.2511160000872628 -0.967957000336365 0
vn -0.2511160000872628 0.967957000336365 0
vn -0.22871509465673479 -0.9734934028929835 0
vn 0.22871509465673479 0.9734934028929835 0
vn 0 -0.9734934028929835 0.22871509465673479
vn 0 0.9734934028929835 -0.22871509465673479
vn 0 -0.9734934028929835 -0.22871509465673479
vn 0 0.9734934028929835 0.22871509465673479
vn -0.20619190979023444 -0.978511571897367 0
vn 0.20619190979023444 0.978511571897367 0
vn 0 -0.978511571897367 0.20619190979023444
vn 0 0.978511571897367 -0.20619190979023444
vn 0.22871509465673479 -0.9734934028929835 0
vn -0.22871509465673479 0.9734934028929835 0
vn 0 -0.978511571897367 -0.20619190979023444
vn 0 0.978511571897367 0.20619190979023444
vn -0.18355894488074478 -0.9830087048212076 0
vn 0.18355894488074478 0.9830087048212076 0
vn 0 -0.9830087048212076 0.18355894488074478
vn 0 0.9830087048212076 -0.18355894488074478
vn 0.20619190979023444 -0.978511571897367 0
vn -0.20619190979023444 0.978511571897367 0
vn 0 -0.9830087048212076 -0.18355894488074478
vn 0 0.9830087048212076 0.18355894488074478
vn -0.16082904538877751 -0.9869822785437106 0
vn 0.16082904538877751 0.9869822785437106 0
vn 0 -0.9869822785437106 0.16082904538877751
vn 0 0.9869822785437106 -0.16082904538877751
vn 0.18355894488074478 -0.9830087048212076 0
vn -0.18355894488074478 0.9830087048212076 0
vn 0 -0.9869822785437106 -0.16082904538877751
vn 0 0.9869822785437106 0.16082904538877751
vn -0.1380120761106447 -0.9904305462008074 0
vn 0.1380120761106447 0.9904305462008074 0
vn 0 -0.9904305462008074 0.1380120761106447
vn 0 0.9904305462008074 -0.1380120761106447
vn 0.16082904538877751 -0.9869822785437106 0
vn -0.16082904538877751 0.9869822785437106 0
vn 0 -0.9904305462008074 -0.1380120761106447
vn 0 0.9904305462008074 0.1380120761106447
vn -0.1151230279559039 -0.9933512412204779 0
vn 0.1151230279559039 0.9933512412204779 0
vn 0 -0.9933512412204779 0.1151230279559039
vn 0 0.9933512412204779 -0.1151230279559039
vn 0.1380120761106447 -0.9904305462008074 0
vn -0.1380120761106447 0.9904305462008074 0
vn 0 -0.9933512412204779 -0.1151230279559039
vn 0 0.9933512412204779 0.1151230279559039
vn -0.09217200923411495 -0.9957430997570339 0
vn 0.09217200923411495 0.9957430997570339 0
vn 0 -0.9957430997570339 0.09217200923411495
vn 0 0.9957430997570339 -0.09217200923411495
vn 0.1151230279559039 -0.9933512412204779 0
vn -0.1151230279559039 0.9933512412204779 0
vn 0 -0.9957430997570339 -0.09217200923411495
vn 0 0.9957430997570339 0.09217200923411495
vn -0.06917198265135766 -0.9976047497962709 0
vn 0.06917198265135766 0.9976047497962709 0
vn 0 -0.9976047497962709 0.06917198265135766
vn 0 0.9976047497962709 -0.06917198265135766
vn 0.09217200923411495 -0.9957430997570339 0
vn -0.09217200923411495 0.9957430997570339 0
vn 0 -0.9976047497962709 -0.06917198265135766
vn 0 0.9976047497962709 0.06917198265135766
vn -0.04613500986251279 -0.9989352135473981 0
vn 0.04613500986251279 0.9989352135473981 0
vn 0 -0.9989352135473981 0.04613500986251279
vn 0 0.9989352135473981 -0.04613500986251279
vn 0.06917198265135766 -0.9976047497962709 0
vn -0.06917198265135766 0.9976047497962709 0
vn 0 -0.9989352135473981 -0.04613500986251279
vn 0 0.9989352135473981 0.04613500986251279
vn -0.023073994459565414 -0.9997337599479573 0
vn 0.023073994459565414 0.9997337599479573 0
vn 0 -0.9997337599479573 0.023073994459565414
vn 0 0.9997337599479573 -0.023073994459565414
vn 0.04613500986251279 -0.9989352135473981 0
vn -0.04613500986251279 0.9989352135473981 0
vn 0 -0.9997337599479573 -0.023073994459565414
vn 0 0.9997337599479573 0.023073994459565414
vn -0.011538005019419798 -0.9999334350046366 0
vn 0.011538005019419798 0.9999334350046366 0
vn 0 -0.9999334350046366 0.011538005019419798
vn 0 0.9999334350046366 -0.011538005019419798
vn 0.023073994459565414 -0.9997337599479573 0
vn -0.023073994459565414 0.9997337599479573 0
vn 0 -0.9999334350046366 -0.011538005019419798
vn 0 0.9999334350046366 0.011538005019419798
vn 0.011538005019419798 -0.9999334350046366 0
vn -0.011538005019419798 0.9999334350046366 0
usemtl material_0_0
f 1/1/1 2/2/1 3/3/1
f 2/2/1 1/1/1 4/4/1
f 3/3/2 2/2/2 1/1/2
f 4/4/2 1/1/2 2/2/2
f 2/5/3 5/6/3 3/7/3
f 3/7/4 5/6/4 2/5/4
f 5/6/5 1/8/5 3/7/5
f 3/7/6 1/8/6 5/6/6
f 1/7/4 6/9/4 4/8/4
f 4/8/3 6/9/3 1/7/3
f 7/10/6 2/7/6 4/5/6
f 4/5/5 2/7/5 7/10/5
f 5/6/3 2/5/3 8/10/3
f 8/10/4 2/5/4 5/6/4
f 1/8/5 5/6/5 9/11/5
f 9/11/6 5/6/6 1/8/6
f 6/9/4 1/7/4 9/6/4
f 9/6/3 1/7/3 6/9/3
f 4/8/4 6/9/4 7/11/4
f 7/11/3 6/9/3 4/8/3
f 2/7/6 7/10/6 8/6/6
f 8/6/5 7/10/5 2/7/5
f 10/12/7 5/13/8 8/14/8
f 8/14/9 5/13/9 10/12/10
f 11/15/11 9/16/12 5/13/12
f 5/13/13 9/16/13 11/15/14
f 9/17/15 7/18/15 6/19/15
f 6/19/16 7/18/16 9/17/16
f 7/20/17 10/21/18 8/17/17
f 8/17/19 10/21/20 7/20/19
f 5/13/8 10/12/7 11/22/7
f 11/22/10 10/12/10 5/13/9
f 9/16/12 11/15/11 12/23/11
f 12/23/14 11/15/14 9/16/13
f 12/24/21 7/18/15 9/17/15
f 9/17/16 7/18/16 12/24/22
f 10/21/18 7/20/17 13/25/18
f 13/25/20 7/20/19 10/21/20
f 14/26/23 11/27/7 10/28/7
f 10/28/10 11/27/10 14/26/24
f 15/29/25 12/30/11 11/31/11
f 11/31/14 12/30/14 15/29/26
f 16/32/21 7/18/15 12/24/21
f 12/24/22 7/18/16 16/32/22
f 7/18/15 16/32/21 13/33/21
f 13/33/22 16/32/22 7/18/16
f 13/34/18 14/35/27 10/36/18
f 10/36/20 14/35/28 13/34/20
f 11/27/7 14/26/23 15/37/23
f 15/37/24 14/26/24 11/27/10
f 12/30/11 15/29/25 17/38/25
f 17/38/26 15/29/26 12/30/14
f 12/39/21 13/40/21 16/41/21
f 16/41/22 13/40/22 12/39/22
f 14/35/27 13/34/18 18/42/27
f 18/42/28 13/34/20 14/35/28
f 19/43/29 15/44/23 14/45/23
f 14/45/24 15/44/24 19/43/30
f 20/46/31 17/47/25 15/48/25
f 15/48/26 17/47/26 20/46/32
f 17/49/33 13/40/21 12/39/21
f 12/39/22 13/40/22 17/49/34
f 13/40/21 21/50/33 18/51/33
f 18/51/34 21/50/34 13/40/22
f 18/52/27 19/53/35 14/54/27
f 14/54/28 19/53/36 18/52/28
f 15/44/23 19/43/29 20/55/29
f 20/55/30 19/43/30 15/44/24
f 17/47/25 20/46/31 22/56/31
f 22/56/32 20/46/32 17/47/26
f 21/50/33 13/40/21 17/49/33
f 17/49/34 13/40/22 21/50/34
f 17/57/33 18/58/33 21/59/33
f 21/59/34 18/58/34 17/57/34
f 19/53/35 18/52/27 23/60/35
f 23/60/36 18/52/28 19/53/36
f 24/61/37 20/62/29 19/63/29
f 19/63/30 20/62/30 24/61/38
f 25/64/39 22/65/31 20/66/31
f 20/66/32 22/65/32 25/64/40
f 22/67/41 18/58/33 17/57/33
f 17/57/34 18/58/34 22/67/42
f 18/58/33 26/68/41 23/69/41
f 23/69/42 26/68/42 18/58/34
f 23/70/35 24/71/43 19/72/35
f 19/72/36 24/71/44 23/70/36
f 20/62/29 24/61/37 25/73/37
f 25/73/38 24/61/38 20/62/30
f 22/65/31 25/64/39 27/74/39
f 27/74/40 25/64/40 22/65/32
f 26/68/41 18/58/33 22/67/41
f 22/67/42 18/58/34 26/68/42
f 22/75/41 23/76/41 26/77/41
f 26/77/42 23/76/42 22/75/42
f 24/71/43 23/70/35 28/78/43
f 28/78/44 23/70/36 24/71/44
f 29/79/45 25/80/37 24/81/37
f 24/81/38 25/80/38 29/79/46
f 30/82/47 27/83/39 25/84/39
f 25/84/40 27/83/40 30/82/48
f 27/85/49 23/76/41 22/75/41
f 22/75/42 23/76/42 27/85/50
f 23/76/41 31/86/49 28/87/49
f 28/87/50 31/86/50 23/76/42
f 28/88/43 29/89/51 24/90/43
f 24/90/44 29/89/52 28/88/44
f 25/80/37 29/79/45 30/91/45
f 30/91/46 29/79/46 25/80/38
f 27/83/39 30/82/47 32/92/47
f 32/92/48 30/82/48 27/83/40
f 31/86/49 23/76/41 27/85/49
f 27/85/50 23/76/42 31/86/50
f 27/93/49 28/94/49 31/95/49
f 31/95/50 28/94/50 27/93/50
f 29/89/51 28/88/43 33/96/51
f 33/96/52 28/88/44 29/89/52
f 34/97/53 30/98/45 29/99/45
f 29/99/46 30/98/46 34/97/54
f 35/100/55 32/101/47 30/102/47
f 30/102/48 32/101/48 35/100/56
f 32/103/57 28/94/49 27/93/49
f 27/93/50 28/94/50 32/103/58
f 28/94/49 36/104/57 33/105/57
f 33/105/58 36/104/58 28/94/50
f 33/106/51 34/107/59 29/108/51
f 29/108/52 34/107/60 33/106/52
f 30/98/45 34/97/53 35/109/53
f 35/109/54 34/97/54 30/98/46
f 32/101/47 35/100/55 37/110/55
f 37/110/56 35/100/56 32/101/48
f 36/104/57 28/94/49 32/103/57
f 32/103/58 28/94/50 36/104/58
f 32/111/57 33/112/57 36/113/57
f 36/113/58 33/112/58 32/111/58
f 34/107/59 33/106/51 38/114/59
f 38/114/60 33/106/52 34/107/60
f 39/115/61 35/116/53 34/117/53
f 34/117/54 35/116/54 39/115/62
f 40/118/63 37/119/55 35/120/55
f 35/120/56 37/119/56 40/118/64
f 37/121/65 33/112/57 32/111/57
f 32/111/58 33/112/58 37/121/66
f 33/112/57 41/122/65 38/123/65
f 38/123/66 41/122/66 33/112/58
f 38/124/59 39/125/67 34/126/59
f 34/126/60 39/125/68 38/124/60
f 35/116/53 39/115/61 40/127/61
f 40/127/62 39/115/62 35/116/54
f 37/119/55 40/118/63 42/128/63
f 42/128/64 40/118/64 37/119/56
f 41/122/65 33/112/57 37/121/65
f 37/121/66 33/112/58 41/122/66
f 37/129/65 38/130/65 41/131/65
f 41/131/66 38/130/66 37/129/66
f 39/125/67 38/124/59 43/132/67
f 43/132/68 38/124/60 39/125/68
f 44/133/69 40/134/61 39/135/61
f 39/135/62 40/134/62 44/133/70
f 45/136/71 42/137/63 40/138/63
f 40/138/64 42/137/64 45/136/72
f 42/139/73 38/130/65 37/129/65
f 37/129/66 38/130/66 42/139/74
f 38/130/65 46/140/73 43/141/73
f 43/141/74 46/140/74 38/130/66
f 43/142/67 44/143/75 39/144/67
f 39/144/68 44/143/76 43/142/68
f 40/134/61 44/133/69 45/145/69
f 45/145/70 44/133/70 40/134/62
f 42/137/63 45/136/71 47/146/71
f 47/146/72 45/136/72 42/137/64
f 46/140/73 38/130/65 42/139/73
f 42/139/74 38/130/66 46/140/74
f 42/147/73 43/148/73 46/149/73
f 46/149/74 43/148/74 42/147/74
f 44/143/75 43/142/67 48/150/75
f 48/150/76 43/142/68 44/143/76
f 49/151/77 45/152/69 44/153/69
f 44/153/70 45/152/70 49/151/78
f 50/154/79 47/155/71 45/156/71
f 45/156/72 47/155/72 50/154/80
f 47/157/81 43/148/73 42/147/73
f 42/147/74 43/148/74 47/157/82
f 43/148/73 51/158/81 48/159/81
f 48/159/82 51/158/82 43/148/74
f 48/160/75 49/161/83 44/162/75
f 44/162/76 49/161/84 48/160/76
f 45/152/69 49/151/77 50/163/77
f 50/163/78 49/151/78 45/152/70
f 47/155/71 50/154/79 52/164/79
f 52/164/80 50/154/80 47/155/72
f 51/158/81 43/148/73 47/157/81
f 47/157/82 43/148/74 51/158/82
f 47/165/81 48/166/81 51/167/81
f 51/167/82 48/166/82 47/165/82
f 49/161/83 48/160/75 53/168/83
f 53/168/84 48/160/76 49/161/84
f 54/169/85 50/170/77 49/171/77
f 49/171/78 50/170/78 54/169/86
f 55/172/87 52/173/79 50/174/79
f 50/174/80 52/173/80 55/172/88
f 52/175/89 48/166/81 47/165/81
f 47/165/82 48/166/82 52/175/90
f 48/166/81 56/176/89 53/177/89
f 53/177/90 56/176/90 48/166/82
f 53/178/83 54/179/91 49/180/83
f 49/180/84 54/179/92 53/178/84
f 50/170/77 54/169/85 55/181/85
f 55/181/86 54/169/86 50/170/78
f 52/173/79 55/172/87 57/182/87
f 57/182/88 55/172/88 52/173/80
f 56/176/89 48/166/81 52/175/89
f 52/175/90 48/166/82 56/176/90
f 52/183/89 53/184/89 56/185/89
f 56/185/90 53/184/90 52/183/90
f 54/179/91 53/178/83 58/186/91
f 58/186/92 53/178/84 54/179/92
f 59/187/93 55/188/85 54/189/85
f 54/189/86 55/188/86 59/187/94
f 60/190/95 57/191/87 55/192/87
f 55/192/88 57/191/88 60/190/96
f 57/193/97 53/184/89 52/183/89
f 52/183/90 53/184/90 57/193/98
f 53/184/89 61/194/97 58/195/97
f 58/195/98 61/194/98 53/184/90
f 58/196/91 59/197/99 54/198/91
f 54/198/92 59/197/100 58/196/92
f 55/188/85 59/187/93 60/199/93
f 60/199/94 59/187/94 55/188/86
f 57/191/87 60/190/95 62/200/95
f 62/200/96 60/190/96 57/191/88
f 61/194/97 53/184/89 57/193/97
f 57/193/98 53/184/90 61/194/98
f 57/201/97 58/202/97 61/203/97
f 61/203/98 58/202/98 57/201/98
f 59/197/99 58/196/91 63/204/99
f 63/204/100 58/196/92 59/197/100
f 64/205/101 60/206/93 59/207/93
f 59/207/94 60/206/94 64/205/102
f 65/208/103 62/209/95 60/210/95
f 60/210/96 62/209/96 65/208/104
f 62/211/105 58/202/97 57/201/97
f 57/201/98 58/202/98 62/211/106
f 58/202/97 66/212/105 63/213/105
f 63/213/106 66/212/106 58/202/98
f 63/214/99 64/215/107 59/216/99
f 59/216/100 64/215/108 63/214/100
f 60/206/93 64/205/101 65/217/101
f 65/217/102 64/205/102 60/206/94
f 62/209/95 65/208/103 67/218/103
f 67/218/104 65/208/104 62/209/96
f 66/212/105 58/202/97 62/211/105
f 62/211/106 58/202/98 66/212/106
f 62/219/105 63/220/105 66/221/105
f 66/221/106 63/220/106 62/219/106
f 64/215/107 63/214/99 68/222/107
f 68/222/108 63/214/100 64/215/108
f 68/223/2 65/224/2 64/225/2
f 64/225/1 65/224/1 68/223/1
f 65/224/2 68/223/2 67/226/2
f 67/226/1 68/223/1 65/224/1
f 67/227/109 63/220/105 62/219/105
f 62/219/106 63/220/106 67/227/110
f 63/220/105 67/227/109 68/228/109
f 68/228/110 67/227/110 63/220/106
