# SSTK version 0.8.0
# 2
mtllib original-2.mtl
o l_rail1/l_rail/mesh1/mesh1-geometry#mesh1-geometry
v 0.220138 -0.043928 0.445978
v 0.205218 -0.043928 -0.510220
v 0.220138 -0.043928 -0.510220
v 0.205218 -0.043928 0.445978
v 0.220138 -0.010360 -0.510220
v 0.205218 -0.010360 0.445978
v 0.205218 -0.010360 -0.510220
v 0.220138 -0.010360 0.445978
vt -1.866424 0.027778
vt 0 0
vt 0 0.027778
vt -1.866424 0
vt 0 -0.034722
vt -0.029121 0.027778
vt -0.029121 -0.034722
vt -1.866424 -0.034722
vt 0.029121 -0.034722
vt 1.866424 0.027778
vt 1.866424 -0.034722
vt 0.029121 0.027778
vt 1.866424 0
vn 0 -1 0
vn 0 1 0
vn 0 0 -1
vn 0 0 1
vn 1 0 0
vn -1 0 0
usemtl material_0_0
f 1/1/1 2/2/1 3/3/1
f 2/2/1 1/1/1 4/4/1
f 3/3/2 2/2/2 1/1/2
f 4/4/2 1/1/2 2/2/2
f 2/5/3 5/6/3 3/7/3
f 3/7/4 5/6/4 2/5/4
f 5/3/5 1/8/5 3/5/5
f 3/5/6 1/8/6 5/3/6
f 1/9/4 6/3/4 4/5/4
f 4/5/3 6/3/3 1/9/3
f 6/10/6 2/5/6 4/11/6
f 4/11/5 2/5/5 6/10/5
f 5/6/3 2/5/3 7/3/3
f 7/3/4 2/5/4 5/6/4
f 1/8/5 5/3/5 8/1/5
f 8/1/6 5/3/6 1/8/6
f 6/3/4 1/9/4 8/12/4
f 8/12/3 1/9/3 6/3/3
f 2/5/6 6/10/6 7/3/6
f 7/3/5 6/10/5 2/5/5
f 6/13/2 5/3/2 7/2/2
f 7/2/1 5/3/1 6/13/1
f 5/3/2 6/13/2 8/10/2
f 8/10/1 6/13/1 5/3/1
