# SSTK version 0.8.0
# 3
mtllib original-3.mtl
o r_rail1/r_rail/mesh3/mesh3-geometry#mesh3-geometry
v -0.226325 -0.012225 0.445978
v -0.213271 -0.012225 -0.510220
v -0.226325 -0.012225 -0.510220
v -0.213271 -0.012225 0.445978
v -0.226325 -0.044259 -0.510220
v -0.213271 -0.044259 0.445978
v -0.213271 -0.044259 -0.510220
v -0.226325 -0.044259 0.445978
vt 1.866424 0
vt 0 0.024306
vt 0 0
vt 1.866424 0.024306
vt -0.025481 0.024306
vt 0 -0.03534
vt 0.025481 -0.03534
vt 0.025481 0.024306
vt -1.866424 -0.03534
vt -1.866424 0.024306
vt -0.025481 -0.03534
vt 1.866424 -0.03534
vt -1.866424 0
vn 0 1 0
vn 0 -1 0
vn 0 0 -1
vn 0 0 1
vn -1 0 0
vn 1 0 0
usemtl material_0_0
f 1/1/1 2/2/1 3/3/1
f 2/2/1 1/1/1 4/4/1
f 3/3/2 2/2/2 1/1/2
f 4/4/2 1/1/2 2/2/2
f 2/5/3 5/6/3 3/2/3
f 3/2/4 5/6/4 2/5/4
f 5/6/5 1/4/5 3/2/5
f 3/2/6 1/4/6 5/6/6
f 1/2/4 6/7/4 4/8/4
f 4/8/3 6/7/3 1/2/3
f 6/9/6 2/2/6 4/10/6
f 4/10/5 2/2/5 6/9/5
f 5/6/3 2/5/3 7/11/3
f 7/11/4 2/5/4 5/6/4
f 1/4/5 5/6/5 8/12/5
f 8/12/6 5/6/6 1/4/6
f 6/7/4 1/2/4 8/6/4
f 8/6/3 1/2/3 6/7/3
f 2/2/6 6/9/6 7/6/6
f 7/6/5 6/9/5 2/2/5
f 6/10/2 5/3/2 7/2/2
f 7/2/1 5/3/1 6/10/1
f 5/3/2 6/10/2 8/13/2
f 8/13/1 6/10/1 5/3/1
