# SSTK version 0.8.0
# 295
mtllib original-295.mtl
o instance_619/RAINURE_P1G_5/ID2749#ID2749
v -0.027448 -0.704078 -0.014943
v 0.019335 -0.721622 -0.014943
v -0.027448 -0.721622 -0.014943
v 0.019335 -0.704078 -0.014943
v 0.019335 -0.704078 -0.014943
v -0.027448 -0.704078 -0.014943
v 0.019335 -0.721622 -0.014943
v -0.027448 -0.721622 -0.014943
v -0.027448 -0.704078 -0.014943
v -0.027448 -0.721622 -0.006171
v -0.027448 -0.704078 -0.006171
v -0.027448 -0.721622 -0.014943
v -0.027448 -0.721622 -0.014943
v -0.027448 -0.704078 -0.014943
v -0.027448 -0.721622 -0.006171
v -0.027448 -0.704078 -0.006171
v 0.019335 -0.721622 -0.014943
v -0.027448 -0.721622 -0.006171
v -0.027448 -0.721622 -0.014943
v 0.019335 -0.721622 -0.006171
v 0.019335 -0.721622 -0.006171
v 0.019335 -0.721622 -0.014943
v -0.027448 -0.721622 -0.006171
v -0.027448 -0.721622 -0.014943
v 0.019335 -0.721622 -0.006171
v -0.027448 -0.704078 -0.006171
v -0.027448 -0.721622 -0.006171
v 0.019335 -0.704078 -0.006171
v 0.019335 -0.704078 -0.006171
v 0.019335 -0.721622 -0.006171
v -0.027448 -0.704078 -0.006171
v -0.027448 -0.721622 -0.006171
vt -1.069884e-10 0.05905512
vt -0.2755906 3.577026e-9
vt -9.804757e-10 1.538867e-9
vt -0.2755906 0.05905512
vt -0.02952756 0.05905512
vt 1.291988e-17 -1.427545e-15
vt 1.291996e-17 0.05905512
vt -0.02952756 -1.430775e-15
vt -0.2755906 0.02952756
vt -8.734872e-10 4.561144e-40
vt -8.734872e-10 0.02952756
vt -0.2755906 -2.079178e-9
vt 0.2755906 2.038157e-9
vt 8.734929e-10 0.05905512
vt 8.734872e-10 -1.421085e-15
vt 0.2755906 0.05905512
vn -6.340846914787946e-9 -5.211633935468532e-8 -1
vn 6.340846914787946e-9 5.211633935468532e-8 1
vn -1 -4.225987068442202e-9 8.452087827307565e-9
vn 1 4.225987068442202e-9 -8.452087827307565e-9
vn 1.2942306352884683e-8 -1 0
vn -1.2942306352884683e-8 1 0
vn 6.340848664787508e-9 5.211633935468532e-8 1
vn -6.340848664787508e-9 -5.211633935468532e-8 -1
usemtl material_0_0
f 1/1/1 2/2/1 3/3/1
f 2/2/1 1/1/1 4/4/1
f 5/4/2 6/1/2 7/2/2
f 8/3/2 7/2/2 6/1/2
f 9/5/3 10/6/3 11/7/3
f 10/6/3 9/5/3 12/8/3
f 13/8/4 14/5/4 15/6/4
f 16/7/4 15/6/4 14/5/4
f 17/9/5 18/10/5 19/11/5
f 18/10/5 17/9/5 20/12/5
f 21/12/6 22/9/6 23/10/6
f 24/11/6 23/10/6 22/9/6
f 25/13/7 26/14/7 27/15/7
f 26/14/7 25/13/7 28/16/7
f 29/16/8 30/13/8 31/14/8
f 32/15/8 31/14/8 30/13/8
