# SSTK version 0.8.0
# 8
mtllib original-8.mtl
o instance_422/FACE_BAS_EP/ID1912#ID1912
v 0.650905 -0.747353 0.039443
v -0.659018 -0.747353 0.045290
v -0.659018 -0.747353 0.039443
v 0.650905 -0.747353 0.045290
v 0.650905 -0.747353 0.045290
v 0.650905 -0.747353 0.039443
v -0.659018 -0.747353 0.045290
v -0.659018 -0.747353 0.039443
vt -9.291339 0.01968504
vt 0 1.007816e-28
vt 0 0.01968504
vt -9.291339 0
vn 0 -1 0
vn 0 1 0
usemtl material_0_0
f 1/1/1 2/2/1 3/3/1
f 2/2/1 1/1/1 4/4/1
f 5/4/2 6/1/2 7/2/2
f 8/3/2 7/2/2 6/1/2
