# SSTK version 0.8.0
# 24
mtllib original-24.mtl
o instance_437/GHHF/ID2028#ID2028
v 0.656753 -0.721622 0.011958
v -0.664866 -0.721622 0.018975
v -0.664866 -0.721622 0.011958
v 0.656753 -0.721622 0.018975
v 0.656753 -0.721622 0.018975
v 0.656753 -0.721622 0.011958
v -0.664866 -0.721622 0.018975
v -0.664866 -0.721622 0.011958
vt -7.559055 0.03543307
vt -3.979039e-14 0
vt 0 0.03543307
vt -7.559055 0
vn 0 -1 0
vn 0 1 0
usemtl material_0_0
f 1/1/1 2/2/1 3/3/1
f 2/2/1 1/1/1 4/4/1
f 5/4/2 6/1/2 7/2/2
f 8/3/2 7/2/2 6/1/2
