# SSTK version 0.8.0
# 201
mtllib original-201.mtl
o #ID2415
v 0.622674 -0.048642 -0.001493
v 0.622577 -0.038339 -0.001493
v 0.622577 -0.047791 -0.001493
v 0.622674 -0.039189 -0.001493
v 0.622962 -0.040019 -0.001493
v 0.622962 -0.049471 -0.001493
v 0.623434 -0.040807 -0.001493
v 0.623434 -0.050260 -0.001493
v 0.624079 -0.041535 -0.001493
v 0.624079 -0.050987 -0.001493
v 0.624880 -0.042183 -0.001493
v 0.624880 -0.051636 -0.001493
v 0.625818 -0.042738 -0.001493
v 0.625818 -0.052190 -0.001493
v 0.626869 -0.043183 -0.001493
v 0.626869 -0.052636 -0.001493
v 0.628009 -0.043510 -0.001493
v 0.628009 -0.052962 -0.001493
v 0.629208 -0.053162 -0.001493
v 0.629208 -0.043709 -0.001493
v 0.630438 -0.043776 -0.001493
v 0.630438 -0.053229 -0.001493
v 0.631668 -0.043709 -0.001493
v 0.631668 -0.053162 -0.001493
v 0.632867 -0.043510 -0.001493
v 0.632867 -0.052962 -0.001493
v 0.634007 -0.043183 -0.001493
v 0.634007 -0.052636 -0.001493
v 0.635058 -0.042738 -0.001493
v 0.635058 -0.052190 -0.001493
v 0.635996 -0.042183 -0.001493
v 0.635996 -0.051636 -0.001493
v 0.636797 -0.041535 -0.001493
v 0.636797 -0.050987 -0.001493
v 0.637442 -0.040807 -0.001493
v 0.637442 -0.050260 -0.001493
v 0.637914 -0.040019 -0.001493
v 0.638298 -0.047791 -0.001493
v 0.638202 -0.039189 -0.001493
v 0.638298 -0.038339 -0.001493
v 0.638298 -0.038339 -0.001493
v 0.638298 -0.047791 -0.001493
v 0.638202 -0.039189 -0.001493
v 0.637914 -0.040019 -0.001493
v 0.637442 -0.050260 -0.001493
v 0.637442 -0.040807 -0.001493
v 0.636797 -0.050987 -0.001493
v 0.636797 -0.041535 -0.001493
v 0.635996 -0.051636 -0.001493
v 0.635996 -0.042183 -0.001493
v 0.635058 -0.052190 -0.001493
v 0.635058 -0.042738 -0.001493
v 0.634007 -0.052636 -0.001493
v 0.634007 -0.043183 -0.001493
v 0.632867 -0.052962 -0.001493
v 0.632867 -0.043510 -0.001493
v 0.631668 -0.053162 -0.001493
v 0.631668 -0.043709 -0.001493
v 0.630438 -0.053229 -0.001493
v 0.630438 -0.043776 -0.001493
v 0.629208 -0.053162 -0.001493
v 0.629208 -0.043709 -0.001493
v 0.628009 -0.043510 -0.001493
v 0.628009 -0.052962 -0.001493
v 0.626869 -0.052636 -0.001493
v 0.626869 -0.043183 -0.001493
v 0.625818 -0.052190 -0.001493
v 0.625818 -0.042738 -0.001493
v 0.624880 -0.051636 -0.001493
v 0.624880 -0.042183 -0.001493
v 0.624079 -0.050987 -0.001493
v 0.624079 -0.041535 -0.001493
v 0.623434 -0.050260 -0.001493
v 0.623434 -0.040807 -0.001493
v 0.622962 -0.049471 -0.001493
v 0.622962 -0.040019 -0.001493
v 0.622674 -0.048642 -0.001493
v 0.622674 -0.039189 -0.001493
v 0.622577 -0.038339 -0.001493
v 0.622577 -0.047791 -0.001493
v 0.638202 -0.039189 -0.001493
v 0.638298 -0.038339 -0.006171
v 0.638202 -0.039189 -0.006171
v 0.638298 -0.038339 -0.001493
v 0.638298 -0.038339 -0.001493
v 0.638202 -0.039189 -0.001493
v 0.638298 -0.038339 -0.006171
v 0.638202 -0.039189 -0.006171
v 0.637914 -0.040019 -0.001493
v 0.638202 -0.039189 -0.006171
v 0.637914 -0.040019 -0.006171
v 0.638202 -0.039189 -0.001493
v 0.638202 -0.039189 -0.001493
v 0.637914 -0.040019 -0.001493
v 0.638202 -0.039189 -0.006171
v 0.637914 -0.040019 -0.006171
v 0.637442 -0.040807 -0.001493
v 0.637914 -0.040019 -0.006171
v 0.637442 -0.040807 -0.006171
v 0.637914 -0.040019 -0.001493
v 0.637914 -0.040019 -0.001493
v 0.637442 -0.040807 -0.001493
v 0.637914 -0.040019 -0.006171
v 0.637442 -0.040807 -0.006171
v 0.637442 -0.040807 -0.001493
v 0.636797 -0.041535 -0.006171
v 0.636797 -0.041535 -0.001493
v 0.637442 -0.040807 -0.006171
v 0.637442 -0.040807 -0.006171
v 0.637442 -0.040807 -0.001493
v 0.636797 -0.041535 -0.006171
v 0.636797 -0.041535 -0.001493
v 0.635996 -0.042183 -0.001493
v 0.636797 -0.041535 -0.006171
v 0.635996 -0.042183 -0.006171
v 0.636797 -0.041535 -0.001493
v 0.636797 -0.041535 -0.001493
v 0.635996 -0.042183 -0.001493
v 0.636797 -0.041535 -0.006171
v 0.635996 -0.042183 -0.006171
v 0.635058 -0.042738 -0.006171
v 0.635996 -0.042183 -0.001493
v 0.635996 -0.042183 -0.006171
v 0.635058 -0.042738 -0.001493
v 0.635058 -0.042738 -0.001493
v 0.635058 -0.042738 -0.006171
v 0.635996 -0.042183 -0.001493
v 0.635996 -0.042183 -0.006171
v 0.634007 -0.043183 -0.001493
v 0.635058 -0.042738 -0.006171
v 0.634007 -0.043183 -0.006171
v 0.635058 -0.042738 -0.001493
v 0.635058 -0.042738 -0.001493
v 0.634007 -0.043183 -0.001493
v 0.635058 -0.042738 -0.006171
v 0.634007 -0.043183 -0.006171
v 0.632867 -0.043510 -0.006171
v 0.634007 -0.043183 -0.001493
v 0.634007 -0.043183 -0.006171
v 0.632867 -0.043510 -0.001493
v 0.632867 -0.043510 -0.001493
v 0.632867 -0.043510 -0.006171
v 0.634007 -0.043183 -0.001493
v 0.634007 -0.043183 -0.006171
v 0.631668 -0.043709 -0.001493
v 0.632867 -0.043510 -0.006171
v 0.631668 -0.043709 -0.006171
v 0.632867 -0.043510 -0.001493
v 0.632867 -0.043510 -0.001493
v 0.631668 -0.043709 -0.001493
v 0.632867 -0.043510 -0.006171
v 0.631668 -0.043709 -0.006171
v 0.630438 -0.043776 -0.001493
v 0.631668 -0.043709 -0.006171
v 0.630438 -0.043776 -0.006171
v 0.631668 -0.043709 -0.001493
v 0.631668 -0.043709 -0.001493
v 0.630438 -0.043776 -0.001493
v 0.631668 -0.043709 -0.006171
v 0.630438 -0.043776 -0.006171
v 0.629208 -0.043709 -0.006171
v 0.630438 -0.043776 -0.001493
v 0.630438 -0.043776 -0.006171
v 0.629208 -0.043709 -0.001493
v 0.629208 -0.043709 -0.001493
v 0.629208 -0.043709 -0.006171
v 0.630438 -0.043776 -0.001493
v 0.630438 -0.043776 -0.006171
v 0.628009 -0.043510 -0.006171
v 0.629208 -0.043709 -0.001493
v 0.629208 -0.043709 -0.006171
v 0.628009 -0.043510 -0.001493
v 0.628009 -0.043510 -0.001493
v 0.628009 -0.043510 -0.006171
v 0.629208 -0.043709 -0.001493
v 0.629208 -0.043709 -0.006171
v 0.626869 -0.043183 -0.001493
v 0.628009 -0.043510 -0.006171
v 0.626869 -0.043183 -0.006171
v 0.628009 -0.043510 -0.001493
v 0.628009 -0.043510 -0.001493
v 0.626869 -0.043183 -0.001493
v 0.628009 -0.043510 -0.006171
v 0.626869 -0.043183 -0.006171
v 0.625818 -0.042738 -0.001493
v 0.626869 -0.043183 -0.006171
v 0.625818 -0.042738 -0.006171
v 0.626869 -0.043183 -0.001493
v 0.626869 -0.043183 -0.001493
v 0.625818 -0.042738 -0.001493
v 0.626869 -0.043183 -0.006171
v 0.625818 -0.042738 -0.006171
v 0.624880 -0.042183 -0.006171
v 0.625818 -0.042738 -0.001493
v 0.625818 -0.042738 -0.006171
v 0.624880 -0.042183 -0.001493
v 0.624880 -0.042183 -0.001493
v 0.624880 -0.042183 -0.006171
v 0.625818 -0.042738 -0.001493
v 0.625818 -0.042738 -0.006171
v 0.624079 -0.041535 -0.006171
v 0.624880 -0.042183 -0.001493
v 0.624880 -0.042183 -0.006171
v 0.624079 -0.041535 -0.001493
v 0.624079 -0.041535 -0.001493
v 0.624079 -0.041535 -0.006171
v 0.624880 -0.042183 -0.001493
v 0.624880 -0.042183 -0.006171
v 0.623434 -0.040807 -0.006171
v 0.624079 -0.041535 -0.001493
v 0.624079 -0.041535 -0.006171
v 0.623434 -0.040807 -0.001493
v 0.623434 -0.040807 -0.001493
v 0.623434 -0.040807 -0.006171
v 0.624079 -0.041535 -0.001493
v 0.624079 -0.041535 -0.006171
v 0.622962 -0.040019 -0.006171
v 0.623434 -0.040807 -0.001493
v 0.623434 -0.040807 -0.006171
v 0.622962 -0.040019 -0.001493
v 0.622962 -0.040019 -0.001493
v 0.622962 -0.040019 -0.006171
v 0.623434 -0.040807 -0.001493
v 0.623434 -0.040807 -0.006171
v 0.622674 -0.039189 -0.006171
v 0.622962 -0.040019 -0.001493
v 0.622962 -0.040019 -0.006171
v 0.622674 -0.039189 -0.001493
v 0.622674 -0.039189 -0.001493
v 0.622674 -0.039189 -0.006171
v 0.622962 -0.040019 -0.001493
v 0.622962 -0.040019 -0.006171
v 0.622577 -0.038339 -0.006171
v 0.622674 -0.039189 -0.001493
v 0.622674 -0.039189 -0.006171
v 0.622577 -0.038339 -0.001493
v 0.622577 -0.038339 -0.001493
v 0.622577 -0.038339 -0.006171
v 0.622674 -0.039189 -0.001493
v 0.622674 -0.039189 -0.006171
v 0.638298 -0.038339 -0.001493
v 0.638298 0.005601 -0.006171
v 0.638298 -0.038339 -0.006171
v 0.638298 0.005601 -0.001493
v 0.638298 0.005601 -0.001493
v 0.638298 -0.038339 -0.001493
v 0.638298 0.005601 -0.006171
v 0.638298 -0.038339 -0.006171
v 0.622577 0.004586 -0.006171
v 0.622577 -0.038339 -0.001493
v 0.622577 -0.038339 -0.006171
v 0.622577 0.004586 -0.001493
v 0.622577 0.004586 -0.001493
v 0.622577 0.004586 -0.006171
v 0.622577 -0.038339 -0.001493
v 0.622577 -0.038339 -0.006171
v 0.638202 0.006452 -0.001493
v 0.638298 0.005601 -0.006171
v 0.638298 0.005601 -0.001493
v 0.638202 0.006452 -0.006171
v 0.638202 0.006452 -0.006171
v 0.638202 0.006452 -0.001493
v 0.638298 0.005601 -0.006171
v 0.638298 0.005601 -0.001493
v 0.622577 0.005601 -0.006171
v 0.622577 0.005601 -0.001493
v 0.622577 0.005601 -0.001493
v 0.622577 0.005601 -0.006171
v 0.637914 0.007281 -0.001493
v 0.638202 0.006452 -0.006171
v 0.638202 0.006452 -0.001493
v 0.637914 0.007281 -0.006171
v 0.637914 0.007281 -0.006171
v 0.637914 0.007281 -0.001493
v 0.638202 0.006452 -0.006171
v 0.638202 0.006452 -0.001493
v 0.622674 0.006452 -0.001493
v 0.622577 0.014708 -0.001493
v 0.622577 0.005601 -0.001493
v 0.622674 0.015558 -0.001493
v 0.622962 0.007281 -0.001493
v 0.622962 0.016388 -0.001493
v 0.623434 0.008070 -0.001493
v 0.623434 0.017176 -0.001493
v 0.624079 0.008797 -0.001493
v 0.624079 0.017904 -0.001493
v 0.624880 0.009446 -0.001493
v 0.624880 0.018552 -0.001493
v 0.625818 0.010000 -0.001493
v 0.625818 0.019106 -0.001493
v 0.626869 0.010446 -0.001493
v 0.626869 0.019552 -0.001493
v 0.628009 0.010772 -0.001493
v 0.628009 0.019879 -0.001493
v 0.629208 0.010972 -0.001493
v 0.629208 0.020078 -0.001493
v 0.630438 0.011039 -0.001493
v 0.630438 0.020145 -0.001493
v 0.631668 0.010972 -0.001493
v 0.631668 0.020078 -0.001493
v 0.632867 0.010772 -0.001493
v 0.632867 0.019879 -0.001493
v 0.634007 0.019552 -0.001493
v 0.634007 0.010446 -0.001493
v 0.635058 0.010000 -0.001493
v 0.635058 0.019106 -0.001493
v 0.635996 0.009446 -0.001493
v 0.635996 0.018552 -0.001493
v 0.636797 0.008797 -0.001493
v 0.636797 0.017904 -0.001493
v 0.637442 0.008070 -0.001493
v 0.637442 0.017176 -0.001493
v 0.637914 0.007281 -0.001493
v 0.637914 0.016388 -0.001493
v 0.638202 0.006452 -0.001493
v 0.638202 0.015558 -0.001493
v 0.638298 0.005601 -0.001493
v 0.638298 0.014708 -0.001493
v 0.638298 0.014708 -0.001493
v 0.638298 0.005601 -0.001493
v 0.638202 0.015558 -0.001493
v 0.638202 0.006452 -0.001493
v 0.637914 0.016388 -0.001493
v 0.637914 0.007281 -0.001493
v 0.637442 0.017176 -0.001493
v 0.637442 0.008070 -0.001493
v 0.636797 0.017904 -0.001493
v 0.636797 0.008797 -0.001493
v 0.635996 0.018552 -0.001493
v 0.635996 0.009446 -0.001493
v 0.635058 0.019106 -0.001493
v 0.635058 0.010000 -0.001493
v 0.634007 0.019552 -0.001493
v 0.634007 0.010446 -0.001493
v 0.632867 0.010772 -0.001493
v 0.632867 0.019879 -0.001493
v 0.631668 0.020078 -0.001493
v 0.631668 0.010972 -0.001493
v 0.630438 0.020145 -0.001493
v 0.630438 0.011039 -0.001493
v 0.629208 0.020078 -0.001493
v 0.629208 0.010972 -0.001493
v 0.628009 0.019879 -0.001493
v 0.628009 0.010772 -0.001493
v 0.626869 0.019552 -0.001493
v 0.626869 0.010446 -0.001493
v 0.625818 0.019106 -0.001493
v 0.625818 0.010000 -0.001493
v 0.624880 0.018552 -0.001493
v 0.624880 0.009446 -0.001493
v 0.624079 0.017904 -0.001493
v 0.624079 0.008797 -0.001493
v 0.623434 0.017176 -0.001493
v 0.623434 0.008070 -0.001493
v 0.622962 0.016388 -0.001493
v 0.622962 0.007281 -0.001493
v 0.622674 0.015558 -0.001493
v 0.622674 0.006452 -0.001493
v 0.622577 0.014708 -0.001493
v 0.622577 0.005601 -0.001493
v 0.622674 0.006452 -0.006171
v 0.622577 0.005601 -0.001493
v 0.622577 0.005601 -0.006171
v 0.622674 0.006452 -0.001493
v 0.622674 0.006452 -0.001493
v 0.622674 0.006452 -0.006171
v 0.622577 0.005601 -0.001493
v 0.622577 0.005601 -0.006171
v 0.637442 0.008070 -0.001493
v 0.637914 0.007281 -0.006171
v 0.637914 0.007281 -0.001493
v 0.637442 0.008070 -0.006171
v 0.637442 0.008070 -0.006171
v 0.637442 0.008070 -0.001493
v 0.637914 0.007281 -0.006171
v 0.637914 0.007281 -0.001493
v 0.622962 0.007281 -0.006171
v 0.622674 0.006452 -0.001493
v 0.622674 0.006452 -0.006171
v 0.622962 0.007281 -0.001493
v 0.622962 0.007281 -0.001493
v 0.622962 0.007281 -0.006171
v 0.622674 0.006452 -0.001493
v 0.622674 0.006452 -0.006171
v 0.623434 0.008070 -0.006171
v 0.622962 0.007281 -0.001493
v 0.622962 0.007281 -0.006171
v 0.623434 0.008070 -0.001493
v 0.623434 0.008070 -0.001493
v 0.623434 0.008070 -0.006171
v 0.622962 0.007281 -0.001493
v 0.622962 0.007281 -0.006171
v 0.624079 0.008797 -0.006171
v 0.623434 0.008070 -0.001493
v 0.623434 0.008070 -0.006171
v 0.624079 0.008797 -0.001493
v 0.624079 0.008797 -0.001493
v 0.624079 0.008797 -0.006171
v 0.623434 0.008070 -0.001493
v 0.623434 0.008070 -0.006171
v 0.624880 0.009446 -0.006171
v 0.624079 0.008797 -0.001493
v 0.624079 0.008797 -0.006171
v 0.624880 0.009446 -0.001493
v 0.624880 0.009446 -0.001493
v 0.624880 0.009446 -0.006171
v 0.624079 0.008797 -0.001493
v 0.624079 0.008797 -0.006171
v 0.625818 0.010000 -0.006171
v 0.624880 0.009446 -0.001493
v 0.624880 0.009446 -0.006171
v 0.625818 0.010000 -0.001493
v 0.625818 0.010000 -0.001493
v 0.625818 0.010000 -0.006171
v 0.624880 0.009446 -0.001493
v 0.624880 0.009446 -0.006171
v 0.626869 0.010446 -0.006171
v 0.625818 0.010000 -0.001493
v 0.625818 0.010000 -0.006171
v 0.626869 0.010446 -0.001493
v 0.626869 0.010446 -0.001493
v 0.626869 0.010446 -0.006171
v 0.625818 0.010000 -0.001493
v 0.625818 0.010000 -0.006171
v 0.628009 0.010772 -0.001493
v 0.626869 0.010446 -0.006171
v 0.628009 0.010772 -0.006171
v 0.626869 0.010446 -0.001493
v 0.626869 0.010446 -0.001493
v 0.628009 0.010772 -0.001493
v 0.626869 0.010446 -0.006171
v 0.628009 0.010772 -0.006171
v 0.629208 0.010972 -0.001493
v 0.628009 0.010772 -0.006171
v 0.629208 0.010972 -0.006171
v 0.628009 0.010772 -0.001493
v 0.628009 0.010772 -0.001493
v 0.629208 0.010972 -0.001493
v 0.628009 0.010772 -0.006171
v 0.629208 0.010972 -0.006171
v 0.630438 0.011039 -0.001493
v 0.629208 0.010972 -0.006171
v 0.630438 0.011039 -0.006171
v 0.629208 0.010972 -0.001493
v 0.629208 0.010972 -0.001493
v 0.630438 0.011039 -0.001493
v 0.629208 0.010972 -0.006171
v 0.630438 0.011039 -0.006171
v 0.631668 0.010972 -0.006171
v 0.630438 0.011039 -0.001493
v 0.630438 0.011039 -0.006171
v 0.631668 0.010972 -0.001493
v 0.631668 0.010972 -0.001493
v 0.631668 0.010972 -0.006171
v 0.630438 0.011039 -0.001493
v 0.630438 0.011039 -0.006171
v 0.632867 0.010772 -0.006171
v 0.631668 0.010972 -0.001493
v 0.631668 0.010972 -0.006171
v 0.632867 0.010772 -0.001493
v 0.632867 0.010772 -0.001493
v 0.632867 0.010772 -0.006171
v 0.631668 0.010972 -0.001493
v 0.631668 0.010972 -0.006171
v 0.634007 0.010446 -0.006171
v 0.632867 0.010772 -0.001493
v 0.632867 0.010772 -0.006171
v 0.634007 0.010446 -0.001493
v 0.634007 0.010446 -0.001493
v 0.634007 0.010446 -0.006171
v 0.632867 0.010772 -0.001493
v 0.632867 0.010772 -0.006171
v 0.635058 0.010000 -0.001493
v 0.634007 0.010446 -0.006171
v 0.635058 0.010000 -0.006171
v 0.634007 0.010446 -0.001493
v 0.634007 0.010446 -0.001493
v 0.635058 0.010000 -0.001493
v 0.634007 0.010446 -0.006171
v 0.635058 0.010000 -0.006171
v 0.635996 0.009446 -0.006171
v 0.635058 0.010000 -0.001493
v 0.635058 0.010000 -0.006171
v 0.635996 0.009446 -0.001493
v 0.635996 0.009446 -0.001493
v 0.635996 0.009446 -0.006171
v 0.635058 0.010000 -0.001493
v 0.635058 0.010000 -0.006171
v 0.635996 0.009446 -0.001493
v 0.636797 0.008797 -0.006171
v 0.636797 0.008797 -0.001493
v 0.635996 0.009446 -0.006171
v 0.635996 0.009446 -0.006171
v 0.635996 0.009446 -0.001493
v 0.636797 0.008797 -0.006171
v 0.636797 0.008797 -0.001493
v 0.636797 0.008797 -0.001493
v 0.637442 0.008070 -0.006171
v 0.637442 0.008070 -0.001493
v 0.636797 0.008797 -0.006171
v 0.636797 0.008797 -0.006171
v 0.636797 0.008797 -0.001493
v 0.637442 0.008070 -0.006171
v 0.637442 0.008070 -0.001493
vn 0 0 1
vn 0 0 -1
vn -0.993589700044053 0.11304648586474889 0
vn 0.993589700044053 -0.11304648586474889 0
vn -0.9447176234475668 0.3278850590490232 0
vn 0.9447176234475668 -0.3278850590490232 0
vn -0.8579424722624578 0.5137457681462513 0
vn 0.8579424722624578 -0.5137457681462513 0
vn -0.7485188604779371 0.6631135012264571 0
vn 0.7485188604779371 -0.6631135012264571 0
vn -0.6293782789474957 0.7770990811917671 0
vn 0.6293782789474957 -0.7770990811917671 0
vn -0.5086532403704938 0.8609714751724338 0
vn 0.5086532403704938 -0.8609714751724338 0
vn -0.39027511847596497 0.9206982849438635 0
vn 0.39027511847596497 -0.9206982849438635 0
vn -0.27543922701669415 0.9613184863615419 0
vn 0.27543922701669415 -0.9613184863615419 0
vn -0.1638250996704098 0.9864894002055877 0
vn 0.1638250996704098 -0.9864894002055877 0
vn -0.0543595411173567 0.9985214270557795 0
vn 0.0543595411173567 -0.9985214270557795 0
vn 0.0543595411173567 0.9985214270557795 0
vn -0.0543595411173567 -0.9985214270557795 0
vn 0.1638250996704098 0.9864894002055877 0
vn -0.1638250996704098 -0.9864894002055877 0
vn 0.27543922701669415 0.9613184863615419 0
vn -0.27543922701669415 -0.9613184863615419 0
vn 0.39027511847596497 0.9206982849438635 0
vn -0.39027511847596497 -0.9206982849438635 0
vn 0.5086532403704938 0.8609714751724338 0
vn -0.5086532403704938 -0.8609714751724338 0
vn 0.6293782789474957 0.7770990811917671 0
vn -0.6293782789474957 -0.7770990811917671 0
vn 0.7485188604779371 0.6631135012264571 0
vn -0.7485188604779371 -0.6631135012264571 0
vn 0.8579424722624578 0.5137457681462513 0
vn -0.8579424722624578 -0.5137457681462513 0
vn 0.9447176234475668 0.3278850590490232 0
vn -0.9447176234475668 -0.3278850590490232 0
vn 0.993589700044053 0.11304648586474889 0
vn -0.993589700044053 -0.11304648586474889 0
vn -1 0 0
vn 1 0 0
usemtl material_0_0
f 1//1 2//1 3//1
f 2//1 1//1 4//1
f 4//1 1//1 5//1
f 5//1 1//1 6//1
f 5//1 6//1 7//1
f 7//1 6//1 8//1
f 7//1 8//1 9//1
f 9//1 8//1 10//1
f 9//1 10//1 11//1
f 11//1 10//1 12//1
f 11//1 12//1 13//1
f 13//1 12//1 14//1
f 13//1 14//1 15//1
f 15//1 14//1 16//1
f 15//1 16//1 17//1
f 17//1 16//1 18//1
f 17//1 18//1 19//1
f 17//1 19//1 20//1
f 20//1 19//1 21//1
f 21//1 19//1 22//1
f 21//1 22//1 23//1
f 23//1 22//1 24//1
f 23//1 24//1 25//1
f 25//1 24//1 26//1
f 25//1 26//1 27//1
f 27//1 26//1 28//1
f 27//1 28//1 29//1
f 29//1 28//1 30//1
f 29//1 30//1 31//1
f 31//1 30//1 32//1
f 31//1 32//1 33//1
f 33//1 32//1 34//1
f 33//1 34//1 35//1
f 35//1 34//1 36//1
f 35//1 36//1 37//1
f 37//1 36//1 38//1
f 37//1 38//1 39//1
f 39//1 38//1 40//1
f 41//2 42//2 43//2
f 43//2 42//2 44//2
f 42//2 45//2 44//2
f 44//2 45//2 46//2
f 45//2 47//2 46//2
f 46//2 47//2 48//2
f 47//2 49//2 48//2
f 48//2 49//2 50//2
f 49//2 51//2 50//2
f 50//2 51//2 52//2
f 51//2 53//2 52//2
f 52//2 53//2 54//2
f 53//2 55//2 54//2
f 54//2 55//2 56//2
f 55//2 57//2 56//2
f 56//2 57//2 58//2
f 57//2 59//2 58//2
f 58//2 59//2 60//2
f 59//2 61//2 60//2
f 60//2 61//2 62//2
f 62//2 61//2 63//2
f 61//2 64//2 63//2
f 64//2 65//2 63//2
f 63//2 65//2 66//2
f 65//2 67//2 66//2
f 66//2 67//2 68//2
f 67//2 69//2 68//2
f 68//2 69//2 70//2
f 69//2 71//2 70//2
f 70//2 71//2 72//2
f 71//2 73//2 72//2
f 72//2 73//2 74//2
f 73//2 75//2 74//2
f 74//2 75//2 76//2
f 75//2 77//2 76//2
f 76//2 77//2 78//2
f 78//2 77//2 79//2
f 80//2 79//2 77//2
f 81//3 82//3 83//3
f 82//3 81//3 84//3
f 85//4 86//4 87//4
f 88//4 87//4 86//4
f 89//5 90//5 91//5
f 90//5 89//5 92//5
f 93//6 94//6 95//6
f 96//6 95//6 94//6
f 97//7 98//7 99//7
f 98//7 97//7 100//7
f 101//8 102//8 103//8
f 104//8 103//8 102//8
f 105//9 106//9 107//9
f 106//9 105//9 108//9
f 109//10 110//10 111//10
f 112//10 111//10 110//10
f 113//11 114//11 115//11
f 114//11 113//11 116//11
f 117//12 118//12 119//12
f 120//12 119//12 118//12
f 121//13 122//13 123//13
f 122//13 121//13 124//13
f 125//14 126//14 127//14
f 128//14 127//14 126//14
f 129//15 130//15 131//15
f 130//15 129//15 132//15
f 133//16 134//16 135//16
f 136//16 135//16 134//16
f 137//17 138//17 139//17
f 138//17 137//17 140//17
f 141//18 142//18 143//18
f 144//18 143//18 142//18
f 145//19 146//19 147//19
f 146//19 145//19 148//19
f 149//20 150//20 151//20
f 152//20 151//20 150//20
f 153//21 154//21 155//21
f 154//21 153//21 156//21
f 157//22 158//22 159//22
f 160//22 159//22 158//22
f 161//23 162//23 163//23
f 162//23 161//23 164//23
f 165//24 166//24 167//24
f 168//24 167//24 166//24
f 169//25 170//25 171//25
f 170//25 169//25 172//25
f 173//26 174//26 175//26
f 176//26 175//26 174//26
f 177//27 178//27 179//27
f 178//27 177//27 180//27
f 181//28 182//28 183//28
f 184//28 183//28 182//28
f 185//29 186//29 187//29
f 186//29 185//29 188//29
f 189//30 190//30 191//30
f 192//30 191//30 190//30
f 193//31 194//31 195//31
f 194//31 193//31 196//31
f 197//32 198//32 199//32
f 200//32 199//32 198//32
f 201//33 202//33 203//33
f 202//33 201//33 204//33
f 205//34 206//34 207//34
f 208//34 207//34 206//34
f 209//35 210//35 211//35
f 210//35 209//35 212//35
f 213//36 214//36 215//36
f 216//36 215//36 214//36
f 217//37 218//37 219//37
f 218//37 217//37 220//37
f 221//38 222//38 223//38
f 224//38 223//38 222//38
f 225//39 226//39 227//39
f 226//39 225//39 228//39
f 229//40 230//40 231//40
f 232//40 231//40 230//40
f 233//41 234//41 235//41
f 234//41 233//41 236//41
f 237//42 238//42 239//42
f 240//42 239//42 238//42
f 241//43 242//43 243//43
f 242//43 241//43 244//43
f 245//44 246//44 247//44
f 248//44 247//44 246//44
f 249//44 250//44 251//44
f 250//44 249//44 252//44
f 253//43 254//43 255//43
f 256//43 255//43 254//43
f 257//42 258//42 259//42
f 258//42 257//42 260//42
f 261//41 262//41 263//41
f 264//41 263//41 262//41
f 265//44 252//44 249//44
f 252//44 265//44 266//44
f 267//43 268//43 253//43
f 254//43 253//43 268//43
f 269//40 270//40 271//40
f 270//40 269//40 272//40
f 273//39 274//39 275//39
f 276//39 275//39 274//39
f 277//1 278//1 279//1
f 278//1 277//1 280//1
f 280//1 277//1 281//1
f 280//1 281//1 282//1
f 282//1 281//1 283//1
f 282//1 283//1 284//1
f 284//1 283//1 285//1
f 284//1 285//1 286//1
f 286//1 285//1 287//1
f 286//1 287//1 288//1
f 288//1 287//1 289//1
f 288//1 289//1 290//1
f 290//1 289//1 291//1
f 290//1 291//1 292//1
f 292//1 291//1 293//1
f 292//1 293//1 294//1
f 294//1 293//1 295//1
f 294//1 295//1 296//1
f 296//1 295//1 297//1
f 296//1 297//1 298//1
f 298//1 297//1 299//1
f 298//1 299//1 300//1
f 300//1 299//1 301//1
f 300//1 301//1 302//1
f 302//1 301//1 303//1
f 303//1 301//1 304//1
f 303//1 304//1 305//1
f 303//1 305//1 306//1
f 306//1 305//1 307//1
f 306//1 307//1 308//1
f 308//1 307//1 309//1
f 308//1 309//1 310//1
f 310//1 309//1 311//1
f 310//1 311//1 312//1
f 312//1 311//1 313//1
f 312//1 313//1 314//1
f 314//1 313//1 315//1
f 314//1 315//1 316//1
f 316//1 315//1 317//1
f 316//1 317//1 318//1
f 319//2 320//2 321//2
f 320//2 322//2 321//2
f 321//2 322//2 323//2
f 322//2 324//2 323//2
f 323//2 324//2 325//2
f 324//2 326//2 325//2
f 325//2 326//2 327//2
f 326//2 328//2 327//2
f 327//2 328//2 329//2
f 328//2 330//2 329//2
f 329//2 330//2 331//2
f 330//2 332//2 331//2
f 331//2 332//2 333//2
f 332//2 334//2 333//2
f 334//2 335//2 333//2
f 333//2 335//2 336//2
f 336//2 335//2 337//2
f 335//2 338//2 337//2
f 337//2 338//2 339//2
f 338//2 340//2 339//2
f 339//2 340//2 341//2
f 340//2 342//2 341//2
f 341//2 342//2 343//2
f 342//2 344//2 343//2
f 343//2 344//2 345//2
f 344//2 346//2 345//2
f 345//2 346//2 347//2
f 346//2 348//2 347//2
f 347//2 348//2 349//2
f 348//2 350//2 349//2
f 349//2 350//2 351//2
f 350//2 352//2 351//2
f 351//2 352//2 353//2
f 352//2 354//2 353//2
f 353//2 354//2 355//2
f 354//2 356//2 355//2
f 355//2 356//2 357//2
f 356//2 358//2 357//2
f 357//2 358//2 359//2
f 360//2 359//2 358//2
f 361//4 362//4 363//4
f 362//4 361//4 364//4
f 365//3 366//3 367//3
f 368//3 367//3 366//3
f 369//38 370//38 371//38
f 370//38 369//38 372//38
f 373//37 374//37 375//37
f 376//37 375//37 374//37
f 377//6 378//6 379//6
f 378//6 377//6 380//6
f 381//5 382//5 383//5
f 384//5 383//5 382//5
f 385//8 386//8 387//8
f 386//8 385//8 388//8
f 389//7 390//7 391//7
f 392//7 391//7 390//7
f 393//10 394//10 395//10
f 394//10 393//10 396//10
f 397//9 398//9 399//9
f 400//9 399//9 398//9
f 401//12 402//12 403//12
f 402//12 401//12 404//12
f 405//11 406//11 407//11
f 408//11 407//11 406//11
f 409//14 410//14 411//14
f 410//14 409//14 412//14
f 413//13 414//13 415//13
f 416//13 415//13 414//13
f 417//16 418//16 419//16
f 418//16 417//16 420//16
f 421//15 422//15 423//15
f 424//15 423//15 422//15
f 425//18 426//18 427//18
f 426//18 425//18 428//18
f 429//17 430//17 431//17
f 432//17 431//17 430//17
f 433//20 434//20 435//20
f 434//20 433//20 436//20
f 437//19 438//19 439//19
f 440//19 439//19 438//19
f 441//22 442//22 443//22
f 442//22 441//22 444//22
f 445//21 446//21 447//21
f 448//21 447//21 446//21
f 449//24 450//24 451//24
f 450//24 449//24 452//24
f 453//23 454//23 455//23
f 456//23 455//23 454//23
f 457//26 458//26 459//26
f 458//26 457//26 460//26
f 461//25 462//25 463//25
f 464//25 463//25 462//25
f 465//28 466//28 467//28
f 466//28 465//28 468//28
f 469//27 470//27 471//27
f 472//27 471//27 470//27
f 473//30 474//30 475//30
f 474//30 473//30 476//30
f 477//29 478//29 479//29
f 480//29 479//29 478//29
f 481//32 482//32 483//32
f 482//32 481//32 484//32
f 485//31 486//31 487//31
f 488//31 487//31 486//31
f 489//34 490//34 491//34
f 490//34 489//34 492//34
f 493//33 494//33 495//33
f 496//33 495//33 494//33
f 497//36 498//36 499//36
f 498//36 497//36 500//36
f 501//35 502//35 503//35
f 504//35 503//35 502//35
