# SSTK version 0.8.0
# 170
mtllib original-170.mtl
o instance_541/Montant_Gauche_2/ID2605#ID2605
v -0.664866 0.671341 0.000847
v -0.664866 -0.704078 0.035934
v -0.664866 0.671341 0.035934
v -0.664866 -0.704078 0.000847
v -0.664866 -0.704078 0.000847
v -0.664866 0.671341 0.000847
v -0.664866 -0.704078 0.035934
v -0.664866 0.671341 0.035934
v -0.664866 0.671341 0.000847
v -0.618083 -0.704078 0.000847
v -0.664866 -0.704078 0.000847
v -0.618083 -0.633076 0.000847
v -0.618083 0.600338 0.000847
v -0.618083 0.671341 0.000847
v -0.618083 0.671341 0.000847
v -0.664866 0.671341 0.000847
v -0.618083 0.600338 0.000847
v -0.618083 -0.633076 0.000847
v -0.618083 -0.704078 0.000847
v -0.664866 -0.704078 0.000847
v -0.618083 0.671341 0.035934
v -0.664866 -0.704078 0.035934
v -0.618083 -0.704078 0.035934
v -0.664866 0.671341 0.035934
v -0.664866 0.671341 0.035934
v -0.618083 0.671341 0.035934
v -0.664866 -0.704078 0.035934
v -0.618083 -0.704078 0.035934
vt -0.1574803 5.456693
vt -1.397535e-11 0
vt -1.397535e-11 5.456693
vt -0.1574803 0
vt -3.053253e-9 5.456693
vt -0.2755906 1.475499e-17
vt -3.053253e-9 1.475499e-17
vt -0.2755905 0.2816877
vt -0.2755905 5.175005
vt -0.2755906 5.456693
vt 0.2755905 5.456693
vt 6.093615e-12 0
vt 0.2755905 0
vt 6.093615e-12 5.456693
vn -1 0 -1.4761768357135998e-8
vn 1 0 1.4761768357135998e-8
vn 0 0 -1
vn 0 0 1
usemtl material_0_0
f 1/1/1 2/2/1 3/3/1
f 2/2/1 1/1/1 4/4/1
f 5/4/2 6/1/2 7/2/2
f 8/3/2 7/2/2 6/1/2
f 9/5/3 10/6/3 11/7/3
f 10/6/3 9/5/3 12/8/3
f 12/8/3 9/5/3 13/9/3
f 13/9/3 9/5/3 14/10/3
f 15/10/4 16/5/4 17/9/4
f 17/9/4 16/5/4 18/8/4
f 18/8/4 16/5/4 19/6/4
f 20/7/4 19/6/4 16/5/4
f 21/11/4 22/12/4 23/13/4
f 22/12/4 21/11/4 24/14/4
f 25/14/3 26/11/3 27/12/3
f 28/13/3 27/12/3 26/11/3
