# SSTK version 0.8.0
# 198
mtllib original-198.mtl
o instance_567/Fond_1/ID2386#ID2386
v 0.622674 -0.039189 -0.005001
v 0.622577 0.004586 -0.005001
v 0.622577 -0.038339 -0.005001
v 0.622577 0.005601 -0.005001
v 0.622674 0.006452 -0.005001
v 0.622962 -0.040019 -0.005001
v 0.622962 0.007281 -0.005001
v 0.623434 -0.040807 -0.005001
v 0.623434 0.008070 -0.005001
v 0.624079 -0.041535 -0.005001
v 0.624079 0.008797 -0.005001
v 0.624880 -0.042183 -0.005001
v 0.624880 0.009446 -0.005001
v 0.625818 -0.042738 -0.005001
v 0.625818 0.010000 -0.005001
v 0.626869 -0.043183 -0.005001
v 0.626869 0.010446 -0.005001
v 0.628009 -0.043510 -0.005001
v 0.628009 0.010772 -0.005001
v 0.629208 0.010972 -0.005001
v 0.629208 -0.043709 -0.005001
v 0.630438 -0.043776 -0.005001
v 0.630438 0.011039 -0.005001
v 0.631668 0.010972 -0.005001
v 0.631668 -0.043709 -0.005001
v 0.632867 -0.043510 -0.005001
v 0.632867 0.010772 -0.005001
v 0.634007 -0.043183 -0.005001
v 0.634007 0.010446 -0.005001
v 0.635058 -0.042738 -0.005001
v 0.635058 0.010000 -0.005001
v 0.635996 -0.042183 -0.005001
v 0.635996 0.009446 -0.005001
v 0.636797 -0.041535 -0.005001
v 0.636797 0.008797 -0.005001
v 0.637442 -0.040807 -0.005001
v 0.637442 0.008070 -0.005001
v 0.637914 -0.040019 -0.005001
v 0.637914 0.007281 -0.005001
v 0.638202 -0.039189 -0.005001
v 0.638202 0.006452 -0.005001
v 0.638298 -0.038339 -0.005001
v 0.638298 0.005601 -0.005001
v 0.638298 0.005601 -0.005001
v 0.638298 -0.038339 -0.005001
v 0.638202 0.006452 -0.005001
v 0.638202 -0.039189 -0.005001
v 0.637914 0.007281 -0.005001
v 0.637914 -0.040019 -0.005001
v 0.637442 0.008070 -0.005001
v 0.637442 -0.040807 -0.005001
v 0.636797 0.008797 -0.005001
v 0.636797 -0.041535 -0.005001
v 0.635996 0.009446 -0.005001
v 0.635996 -0.042183 -0.005001
v 0.635058 0.010000 -0.005001
v 0.635058 -0.042738 -0.005001
v 0.634007 0.010446 -0.005001
v 0.634007 -0.043183 -0.005001
v 0.632867 0.010772 -0.005001
v 0.632867 -0.043510 -0.005001
v 0.631668 0.010972 -0.005001
v 0.631668 -0.043709 -0.005001
v 0.630438 -0.043776 -0.005001
v 0.630438 0.011039 -0.005001
v 0.629208 0.010972 -0.005001
v 0.629208 -0.043709 -0.005001
v 0.628009 -0.043510 -0.005001
v 0.628009 0.010772 -0.005001
v 0.626869 0.010446 -0.005001
v 0.626869 -0.043183 -0.005001
v 0.625818 0.010000 -0.005001
v 0.625818 -0.042738 -0.005001
v 0.624880 0.009446 -0.005001
v 0.624880 -0.042183 -0.005001
v 0.624079 0.008797 -0.005001
v 0.624079 -0.041535 -0.005001
v 0.623434 0.008070 -0.005001
v 0.623434 -0.040807 -0.005001
v 0.622962 0.007281 -0.005001
v 0.622962 -0.040019 -0.005001
v 0.622674 0.006452 -0.005001
v 0.622674 -0.039189 -0.005001
v 0.622577 0.005601 -0.005001
v 0.622577 0.004586 -0.005001
v 0.622577 -0.038339 -0.005001
vn 0 0 1
vn 0 0 -1
usemtl material_0_0
f 1//1 2//1 3//1
f 2//1 1//1 4//1
f 4//1 1//1 5//1
f 5//1 1//1 6//1
f 5//1 6//1 7//1
f 7//1 6//1 8//1
f 7//1 8//1 9//1
f 9//1 8//1 10//1
f 9//1 10//1 11//1
f 11//1 10//1 12//1
f 11//1 12//1 13//1
f 13//1 12//1 14//1
f 13//1 14//1 15//1
f 15//1 14//1 16//1
f 15//1 16//1 17//1
f 17//1 16//1 18//1
f 17//1 18//1 19//1
f 19//1 18//1 20//1
f 20//1 18//1 21//1
f 20//1 21//1 22//1
f 20//1 22//1 23//1
f 23//1 22//1 24//1
f 24//1 22//1 25//1
f 24//1 25//1 26//1
f 24//1 26//1 27//1
f 27//1 26//1 28//1
f 27//1 28//1 29//1
f 29//1 28//1 30//1
f 29//1 30//1 31//1
f 31//1 30//1 32//1
f 31//1 32//1 33//1
f 33//1 32//1 34//1
f 33//1 34//1 35//1
f 35//1 34//1 36//1
f 35//1 36//1 37//1
f 37//1 36//1 38//1
f 37//1 38//1 39//1
f 39//1 38//1 40//1
f 39//1 40//1 41//1
f 41//1 40//1 42//1
f 41//1 42//1 43//1
f 44//2 45//2 46//2
f 45//2 47//2 46//2
f 46//2 47//2 48//2
f 47//2 49//2 48//2
f 48//2 49//2 50//2
f 49//2 51//2 50//2
f 50//2 51//2 52//2
f 51//2 53//2 52//2
f 52//2 53//2 54//2
f 53//2 55//2 54//2
f 54//2 55//2 56//2
f 55//2 57//2 56//2
f 56//2 57//2 58//2
f 57//2 59//2 58//2
f 58//2 59//2 60//2
f 59//2 61//2 60//2
f 60//2 61//2 62//2
f 61//2 63//2 62//2
f 63//2 64//2 62//2
f 62//2 64//2 65//2
f 65//2 64//2 66//2
f 64//2 67//2 66//2
f 67//2 68//2 66//2
f 66//2 68//2 69//2
f 69//2 68//2 70//2
f 68//2 71//2 70//2
f 70//2 71//2 72//2
f 71//2 73//2 72//2
f 72//2 73//2 74//2
f 73//2 75//2 74//2
f 74//2 75//2 76//2
f 75//2 77//2 76//2
f 76//2 77//2 78//2
f 77//2 79//2 78//2
f 78//2 79//2 80//2
f 79//2 81//2 80//2
f 80//2 81//2 82//2
f 81//2 83//2 82//2
f 82//2 83//2 84//2
f 84//2 83//2 85//2
f 86//2 85//2 83//2
