# SSTK version 0.8.0
# 4
mtllib original-4.mtl
o instance_416/ANG_DROIT_16/instance_417/ANG_INT_D_9/ID1881#ID1881
v 0.650905 -0.700570 0.045290
v 0.650905 -0.747353 0.045290
v 0.697688 -0.747353 0.045290
v 0.697688 -0.747353 0.045290
v 0.650905 -0.747353 0.045290
v 0.650905 -0.700570 0.045290
v 0.697688 -0.747353 0.039443
v 0.650905 -0.747353 0.045290
v 0.650905 -0.747353 0.039443
v 0.697688 -0.747353 0.045290
v 0.697688 -0.747353 0.045290
v 0.697688 -0.747353 0.039443
v 0.650905 -0.747353 0.045290
v 0.650905 -0.747353 0.039443
vt 0 0.1574803
vt 0 0
vt 0.1574803 0
vt -0.1574803 0.007874016
vt 0 0.007874016
vt -0.1574803 0
vn 0 0 1
vn 0 0 -1
vn 0 -1 0
vn 0 1 0
usemtl material_0_0
f 1/1/1 2/2/1 3/3/1
f 4/3/2 5/2/2 6/1/2
f 7/4/3 8/2/3 9/5/3
f 8/2/3 7/4/3 10/6/3
f 11/6/4 12/4/4 13/2/4
f 14/5/4 13/2/4 12/4/4
