# SSTK version 0.8.0
# 101
mtllib original-101.mtl
o instance_511/Rainure_Ouvrant_1/ID2450#ID2450
v -0.027448 0.624558 0.028916
v -0.618083 0.624558 0.007864
v -0.618083 0.624558 0.028916
v -0.027448 0.624558 0.007864
v -0.027448 0.624558 0.007864
v -0.027448 0.624558 0.028916
v -0.618083 0.624558 0.007864
v -0.618083 0.624558 0.028916
v -0.027448 -0.657295 0.028916
v -0.027448 0.624558 0.007864
v -0.027448 0.624558 0.028916
v -0.027448 -0.657295 0.007864
v -0.027448 -0.657295 0.007864
v -0.027448 -0.657295 0.028916
v -0.027448 0.624558 0.007864
v -0.027448 0.624558 0.028916
v -0.618083 0.624558 0.007864
v -0.618083 -0.657295 0.028916
v -0.618083 0.624558 0.028916
v -0.618083 -0.657295 0.007864
v -0.618083 -0.657295 0.007864
v -0.618083 0.624558 0.007864
v -0.618083 -0.657295 0.028916
v -0.618083 0.624558 0.028916
v -0.618083 -0.657295 0.007864
v -0.027448 -0.657295 0.028916
v -0.618083 -0.657295 0.028916
v -0.027448 -0.657295 0.007864
v -0.027448 -0.657295 0.007864
v -0.618083 -0.657295 0.007864
v -0.027448 -0.657295 0.028916
v -0.618083 -0.657295 0.028916
vt 5.771654 2.813999e-14
vt 6.217249e-16 0.07086614
vt 2.743959e-28 8.441997e-14
vt 5.771654 0.07086614
vt 8.441997e-14 7.105427e-16
vt 0.07086614 4.141732
vt 2.813999e-14 4.141732
vt 0.07086614 3.823806e-28
vt -0.07086614 4.141732
vt -5.627998e-14 7.105427e-16
vt -5.627998e-14 4.141732
vt -0.07086614 0
vt -6.217249e-16 0.07086614
vt -5.771654 5.627998e-14
vt 0 5.627998e-14
vt -5.771654 0.07086614
vn 0 1 0
vn 0 -1 0
vn 1 0 0
vn -1 0 0
usemtl material_0_0
f 1/1/1 2/2/1 3/3/1
f 2/2/1 1/1/1 4/4/1
f 5/4/2 6/1/2 7/2/2
f 8/3/2 7/2/2 6/1/2
f 9/5/3 10/6/3 11/7/3
f 10/6/3 9/5/3 12/8/3
f 13/8/4 14/5/4 15/6/4
f 16/7/4 15/6/4 14/5/4
f 17/9/4 18/10/4 19/11/4
f 18/10/4 17/9/4 20/12/4
f 21/12/3 22/9/3 23/10/3
f 24/11/3 23/10/3 22/9/3
f 25/13/2 26/14/2 27/15/2
f 26/14/2 25/13/2 28/16/2
f 29/16/1 30/13/1 31/14/1
f 32/15/1 31/14/1 30/13/1
