# SSTK version 0.8.0
# 35
mtllib original-35.mtl
o instance_446/FNGF/ID2061#ID2061
v -0.659018 0.667832 0.039443
v -0.664866 -0.700570 0.039443
v -0.664866 0.667832 0.039443
v -0.659018 -0.700570 0.039443
v -0.659018 -0.700570 0.039443
v -0.659018 0.667832 0.039443
v -0.664866 -0.700570 0.039443
v -0.664866 0.667832 0.039443
vt 0 0.1968504
vt -8.818898 -1.777731e-143
vt -2.842171e-15 -5.729303e-159
vt -8.818898 0.1968504
vn 0 0 -1
vn 0 0 1
usemtl material_0_0
f 1/1/1 2/2/1 3/3/1
f 2/2/1 1/1/1 4/4/1
f 5/4/2 6/1/2 7/2/2
f 8/3/2 7/2/2 6/1/2
