# SSTK version 0.8.0
# 55
mtllib original-55.mtl
o instance_473/ANG_DROIT_15/instance_474/ANG_INT_D_6/ID2229#ID2229
v -0.705801 0.714615 0.039443
v -0.659018 0.714615 0.045290
v -0.659018 0.714615 0.039443
v -0.705801 0.714615 0.045290
v -0.705801 0.714615 0.045290
v -0.705801 0.714615 0.039443
v -0.659018 0.714615 0.045290
v -0.659018 0.714615 0.039443
v -0.659018 0.667832 0.045290
v -0.659018 0.714615 0.045290
v -0.705801 0.714615 0.045290
v -0.705801 0.714615 0.045290
v -0.659018 0.714615 0.045290
v -0.659018 0.667832 0.045290
vt -0.1574803 0.007874016
vt 0 0
vt 0 0.007874016
vt -0.1574803 4.782541e-30
vt -5.310996e-185 0.1574803
vt 0.1574803 1.062197e-122
vn 0 1 0
vn 0 -1 0
vn 0 0 1
vn 0 0 -1
usemtl material_0_0
f 1/1/1 2/2/1 3/3/1
f 2/2/1 1/1/1 4/4/1
f 5/4/2 6/1/2 7/2/2
f 8/3/2 7/2/2 6/1/2
f 9/5/3 10/2/3 11/6/3
f 12/6/4 13/2/4 14/5/4
