# SSTK version 0.8.0
# 81
mtllib original-81.mtl
o instance_496/GHF_1/ID2323#ID2323
v 0.656753 0.688884 -0.024299
v -0.664866 0.688884 -0.017282
v -0.664866 0.688884 -0.024299
v 0.656753 0.688884 -0.017282
v 0.656753 0.688884 -0.017282
v 0.656753 0.688884 -0.024299
v -0.664866 0.688884 -0.017282
v -0.664866 0.688884 -0.024299
vt 0 0
vt -7.185039 0.01574803
vt -7.185039 0
vt 0 0.01574803
vn 0 -1 0
vn 0 1 0
usemtl material_0_0
f 1/1/1 2/2/1 3/3/1
f 2/2/1 1/1/1 4/4/1
f 5/4/2 6/1/2 7/2/2
f 8/3/2 7/2/2 6/1/2
