# SSTK version 0.8.0
# 298
mtllib original-298.mtl
o #ID2769
v 0.019335 -0.657295 -0.041258
v 0.609970 -0.704078 -0.041258
v 0.019335 -0.704078 -0.041258
v 0.609970 -0.657295 -0.041258
v 0.609970 -0.657295 -0.041258
v 0.019335 -0.657295 -0.041258
v 0.609970 -0.704078 -0.041258
v 0.019335 -0.704078 -0.041258
vt -2.364091e-17 0.2755906
vt -2.322835 -2.030122e-16
vt -2.364091e-17 -2.030122e-16
vt -2.322835 0.2755906
vn 0 0 -1
vn 0 0 1
usemtl material_0_0
f 1/1/1 2/2/1 3/3/1
f 2/2/1 1/1/1 4/4/1
f 5/4/2 6/1/2 7/2/2
f 8/3/2 7/2/2 6/1/2
