# SSTK version 0.8.0
# 9
mtllib original-9.mtl
o instance_423/PROF_EXT_BAS/ID1922#ID1922
v 0.650905 -0.700570 0.045290
v -0.659018 -0.747353 0.045290
v 0.650905 -0.747353 0.045290
v -0.659018 -0.700570 0.045290
v -0.659018 -0.700570 0.045290
v 0.650905 -0.700570 0.045290
v -0.659018 -0.747353 0.045290
v 0.650905 -0.747353 0.045290
vt 9.291339 0.2755906
vt 7.061258e-74 0
vt 9.291339 0
vt 7.061258e-74 0.2755906
vn 0 0 1
vn 0 0 -1
usemtl material_0_0
f 1/1/1 2/2/1 3/3/1
f 2/2/1 1/1/1 4/4/1
f 5/4/2 6/1/2 7/2/2
f 8/3/2 7/2/2 6/1/2
