# SSTK version 0.8.0
# 195
mtllib original-195.mtl
o instance_563/Joint_Bas_Verre_1/ID532#ID532
v 0.609970 -0.647939 -0.017867
v 0.019335 -0.657295 -0.017867
v 0.609970 -0.657295 -0.017867
v 0.019335 -0.647939 -0.017867
v 0.019335 -0.647939 -0.017867
v 0.609970 -0.647939 -0.017867
v 0.019335 -0.657295 -0.017867
v 0.609970 -0.657295 -0.017867
v 0.609970 -0.647939 -0.017867
v 0.019335 -0.647939 -0.029562
v 0.019335 -0.647939 -0.017867
v 0.609970 -0.647939 -0.029562
v 0.609970 -0.647939 -0.029562
v 0.609970 -0.647939 -0.017867
v 0.019335 -0.647939 -0.029562
v 0.019335 -0.647939 -0.017867
v 0.019335 -0.647939 -0.029562
v 0.609970 -0.657295 -0.029562
v 0.019335 -0.657295 -0.029562
v 0.609970 -0.647939 -0.029562
v 0.609970 -0.647939 -0.029562
v 0.019335 -0.647939 -0.029562
v 0.609970 -0.657295 -0.029562
v 0.019335 -0.657295 -0.029562
vn 0 0 1
vn 0 0 -1
vn 0 1 0
vn 0 -1 0
usemtl material_0_0
f 1//1 2//1 3//1
f 2//1 1//1 4//1
f 5//2 6//2 7//2
f 8//2 7//2 6//2
f 9//3 10//3 11//3
f 10//3 9//3 12//3
f 13//4 14//4 15//4
f 16//4 15//4 14//4
f 17//2 18//2 19//2
f 18//2 17//2 20//2
f 21//1 22//1 23//1
f 24//1 23//1 22//1
