# SSTK version 0.8.0
# 38
mtllib original-38.mtl
o instance_450/ANG_DROIT_11/instance_451/ANG_INT_D_3/ID2095#ID2095
v -0.705801 -0.747353 0.039443
v -0.705801 -0.700570 0.045290
v -0.705801 -0.700570 0.039443
v -0.705801 -0.747353 0.045290
v -0.705801 -0.747353 0.045290
v -0.705801 -0.747353 0.039443
v -0.705801 -0.700570 0.045290
v -0.705801 -0.700570 0.039443
v -0.659018 -0.700570 0.045290
v -0.705801 -0.700570 0.045290
v -0.705801 -0.747353 0.045290
v -0.705801 -0.747353 0.045290
v -0.705801 -0.700570 0.045290
v -0.659018 -0.700570 0.045290
vt -0.1574803 0.007874016
vt 0 0
vt 0 0.007874016
vt -0.1574803 -3.781181e-64
vt 4.360151e-108 0.1574803
vt 0.1574803 0
vn -1 0 0
vn 1 0 0
vn 0 0 1
vn 0 0 -1
usemtl material_0_0
f 1/1/1 2/2/1 3/3/1
f 2/2/1 1/1/1 4/4/1
f 5/4/2 6/1/2 7/2/2
f 8/3/2 7/2/2 6/1/2
f 9/5/3 10/2/3 11/6/3
f 12/6/4 13/2/4 14/5/4
