mtllib new-4.mtl
v -0.160013 0.616523 -0.027408
v 0.116320 0.616523 -0.027408
v -0.021847 0.616523 -0.029376
v -0.298068 0.616523 -0.021506
v -0.021847 0.106595 -0.029376
v -0.149445 0.106595 -0.027559
v -0.298068 -0.403334 -0.021506
v 0.254374 0.616523 -0.021506
v 0.107732 0.106595 -0.027531
v -0.160013 -0.403334 -0.027408
v -0.435898 -0.403334 -0.011675
v -0.435898 0.616523 -0.011675
v 0.116320 -0.403334 -0.027408
v 0.107732 -0.080654 -0.027531
v 0.254374 -0.403334 -0.021506
v 0.392205 0.616523 -0.011675
v -0.573393 -0.403334 0.002078
v 0.392205 -0.403334 -0.011675
v -0.573393 0.616523 0.002078
v 0.529699 0.616523 0.002078
v -0.710440 -0.403334 0.019741
v 0.529699 -0.403334 0.002078
v 0.666746 0.616523 0.019741
v -0.710440 0.616523 0.019741
v 0.666746 -0.403334 0.019741
v -0.846928 -0.403334 0.041300
v 0.803235 -0.403334 0.041300
v -0.846928 0.616523 0.041300
v 0.803235 0.616523 0.041300
v -0.816350 -0.372756 0.041300
v 0.772657 0.585945 0.041300
v -0.816350 0.585945 0.041300
v 0.772657 -0.372756 0.041300
vn 0.000000 1.000000 0.000000
vn 0.000000 -1.000000 0.000000
vn 0.028480 0.000000 -0.999594
vn 0.014241 0.000000 -0.999899
vn -0.014241 0.000000 -0.999899
vn -0.042713 0.000000 -0.999087
vn -0.056937 0.000000 -0.998378
vn -0.085347 0.000000 -0.996351
vn 0.056937 0.000000 -0.998378
vn -0.113688 0.000000 -0.993517
vn 0.085347 0.000000 -0.996351
vn -0.014241 0.000000 0.999899
vn 0.014241 0.000000 0.999899
vn 0.000000 0.000000 -1.000000
vn 0.000000 0.000000 1.000000
vn -0.141937 0.000000 -0.989876
vn 0.113688 0.000000 -0.993517
vn 0.141937 0.000000 -0.989876
vn -0.156020 0.000000 -0.987754
vn 0.156020 0.000000 -0.987754
vn -0.028480 0.000000 0.999594
vn 0.056937 0.000000 0.998378
vn 0.042713 0.000000 0.999087
vn 0.085347 0.000000 0.996351
vn -0.056937 0.000000 0.998378
vn 0.113688 0.000000 0.993517
vn -0.085347 0.000000 0.996351
vn 0.141937 0.000000 0.989876
vn -0.113688 0.000000 0.993517
vn -0.141937 0.000000 0.989876
vn 0.156020 0.000000 0.987754
vn -0.156020 0.000000 0.987754
vt -45.545643 32.061745
vt -45.545643 27.552370
vt -46.767597 32.061745
vt -45.563446 32.061745
vt -44.341496 32.061745
vt -44.434959 27.552370
vt -43.100876 32.061745
vt -43.100876 23.042995
vt -44.322826 32.061745
vt -46.691647 27.552370
vt -45.563446 27.552370
vt -44.341496 23.042995
vt -44.322826 23.042995
vt -43.046745 23.042995
vt -43.046745 32.061745
vt -41.824795 23.042995
vt -46.712349 32.061745
vt -46.712349 23.042995
vt -47.934303 32.061745
vt -46.691647 25.896500
vt -41.824795 32.061745
vt -47.934303 23.042995
vt -41.736240 23.042995
vt -41.736240 32.061745
vt -40.514286 23.042995
vt -47.840664 32.061745
vt -47.840664 23.042995
vt -49.062614 32.061745
vt -40.514286 32.061745
vt -49.062614 23.042995
vt -40.392368 23.042995
vt -40.392368 32.061745
vt -39.170418 23.042995
vt -48.929668 32.061745
vt -48.929668 23.042995
vt -50.151623 32.061745
vt -39.170418 32.061745
vt -50.151623 23.042995
vt -49.978485 32.061745
vt -49.978485 23.042995
vt -51.200439 32.061745
vt -39.016224 23.042995
vt -39.016224 32.061745
vt -37.794273 23.042995
vt -51.200439 23.042995
vt -37.794273 32.061745
vt -52.208214 23.042995
vt -52.208214 32.061745
vt -50.986259 23.042995
vt -50.986259 32.061745
usemtl material-0
f 1//1 2//1 3//1
f 2//1 1//1 4//1
f 3//2 2//2 1//2
f 4//2 1//2 2//2
f 2//3 5//4 3//4
f 6//5 1//5 3//5
f 1//6 7//7 4//7
f 2//1 4//1 8//1
f 8//2 4//2 2//2
f 5//4 2//3 9//4
f 6//5 3//5 5//5
f 1//5 6//5 10//5
f 7//7 1//6 10//6
f 11//8 4//7 7//7
f 8//1 4//1 12//1
f 12//2 4//2 8//2
f 8//9 13//3 2//3
f 9//4 2//3 14//4
f 4//7 11//8 12//8
f 8//1 12//1 16//1
f 16//2 12//2 8//2
f 13//3 8//9 15//9
f 7//2 13//2 15//2
f 15//1 13//1 7//1
f 17//10 12//8 11//8
f 11//2 15//2 18//2
f 18//1 15//1 11//1
f 16//1 12//1 19//1
f 19//2 12//2 16//2
f 16//11 15//9 8//9
f 12//8 17//10 19//10
f 11//2 18//2 17//2
f 17//1 18//1 11//1
f 15//9 16//11 18//11
f 16//1 19//1 20//1
f 20//2 19//2 16//2
f 21//16 19//10 17//10
f 17//2 18//2 22//2
f 22//1 18//1 17//1
f 20//17 18//11 16//11
f 20//1 19//1 23//1
f 23//2 19//2 20//2
f 19//10 21//16 24//16
f 17//2 25//2 21//2
f 21//1 25//1 17//1
f 18//11 20//17 22//17
f 17//2 22//2 25//2
f 25//1 22//1 17//1
f 23//1 19//1 24//1
f 24//2 19//2 23//2
f 23//18 22//17 20//17
f 26//19 24//16 21//16
f 21//2 25//2 27//2
f 27//1 25//1 21//1
f 22//17 23//18 25//18
f 23//1 24//1 28//1
f 28//2 24//2 23//2
f 24//16 26//19 28//19
f 21//2 27//2 26//2
f 26//1 27//1 21//1
f 25//18 29//20 27//20
f 29//20 25//18 23//18
f 23//1 28//1 29//1
f 29//2 28//2 23//2
f 26//15 30//15 28//15
f 28//14 30//14 26//14
f 30//15 26//15 27//15
f 27//14 26//14 30//14
f 29//15 31//15 27//15
f 27//14 31//14 29//14
f 28//15 32//15 29//15
f 29//14 32//14 28//14
f 32//15 28//15 30//15
f 30//14 28//14 32//14
f 30//15 27//15 33//15
f 33//14 27//14 30//14
f 29//15 32//15 31//15
f 31//14 32//14 29//14
f 33//15 27//15 31//15
f 31//14 27//14 33//14
usemtl material-1
f 3/1/12 5/2/12 2/3/21
f 3/4/13 1/5/13 6/6/13
f 4/7/22 7/8/22 1/9/23
f 9/10/12 2/3/21 5/2/12
f 5/11/13 3/4/13 6/6/13
f 10/12/13 6/6/13 1/5/13
f 10/13/23 1/9/23 7/8/22
f 7/14/22 4/15/22 11/16/24
f 2/17/21 13/18/21 8/19/25
f 14/20/12 2/3/21 9/10/12
f 12/21/24 11/16/24 4/15/22
f 15/22/25 8/19/25 13/18/21
f 11/23/24 12/24/24 17/25/26
f 8/26/25 15/27/25 16/28/27
f 19/29/26 17/25/26 12/24/24
f 18/30/27 16/28/27 15/27/25
f 17/31/26 19/32/26 21/33/28
f 16/34/27 18/35/27 20/36/29
f 24/37/28 21/33/28 19/32/26
f 22/38/29 20/36/29 18/35/27
f 20/39/29 22/40/29 23/41/30
f 21/42/28 24/43/28 26/44/31
f 25/45/30 23/41/30 22/40/29
f 28/46/31 26/44/31 24/43/28
f 27/47/32 29/48/32 25/49/30
f 23/50/30 25/49/30 29/48/32