mtllib new-3.mtl
v -0.021847 0.106595 -0.029376
v 0.107732 0.106595 -0.027531
v -0.021847 -0.403334 -0.029376
v -0.149445 -0.403334 -0.027559
v -0.816350 -0.372756 0.041300
v 0.772657 0.585945 0.041300
v -0.816350 0.585945 0.041300
v 0.772657 -0.372756 0.041300
vn 0.014241 0.000000 -0.999899
vn -0.014241 0.000000 -0.999899
vn -0.014241 0.000000 0.999899
vn 0.014241 0.000000 0.999899
vn 0.000000 0.000000 -1.000000
vn 0.000000 0.000000 1.000000
vt -45.545643 27.552370
vt -46.691647 27.552370
vt -45.563446 27.552370
vt -45.545643 23.042995
vt -44.434959 23.042995
vt -45.563446 23.042995
usemtl material-0
f 2//1 3//1 1//1
f 4//2 1//2 3//2
usemtl material-1
f 1/1/3 3/4/3 2/2/3
f 3/6/4 1/3/4 4/5/4
usemtl material-6
f 8//6 7//6 5//6
f 5//5 7//5 8//5
f 7//6 8//6 6//6
f 6//5 8//5 7//5