mtllib new-0.mtl
v 0.107732 -0.556466 -0.027531
v -0.021847 -0.556466 -0.029376
v 0.107732 -0.556466 -0.109864
v -0.149445 -0.556466 -0.027559
v -0.152445 -0.556466 -0.034000
v -0.154943 -0.556466 -0.040652
v -0.150617 -0.556466 -0.109864
v -0.021847 -0.580024 -0.029376
v -0.153433 -0.556466 -0.103340
v 0.110330 -0.556466 -0.103303
v -0.156925 -0.556466 -0.047476
v -0.047121 -0.556466 -0.109864
v 0.013630 -0.556466 -0.109864
v -0.322818 -0.556466 0.137731
v 0.116320 -0.580024 -0.027408
v -0.155741 -0.556466 -0.096619
v 0.112473 -0.556466 -0.096579
v -0.158377 -0.556466 -0.054432
v -0.047121 -0.556466 -0.272669
v 0.279124 -0.556466 -0.272669
v 0.279124 -0.556466 0.137731
v 0.116320 -0.556466 -0.027408
v -0.160013 -0.580024 -0.027408
v -0.157527 -0.556466 -0.089742
v 0.114150 -0.556466 -0.089724
v -0.159293 -0.556466 -0.061478
v 0.013630 -0.556466 -0.272669
v -0.047121 -0.580024 -0.109864
v -0.021847 -0.556466 0.133445
v -0.322818 -0.580024 0.137731
v -0.158781 -0.556466 -0.082748
v 0.115354 -0.556466 -0.082770
v -0.159667 -0.556466 -0.068574
v 0.013630 -0.580024 -0.272669
v -0.322818 -0.556466 -0.272669
v -0.047121 -0.580024 -0.272669
v 0.279124 -0.580024 0.137731
v 0.116320 -0.556466 -0.068697
v -0.021847 -0.580024 0.133445
v -0.160013 -0.580024 -0.109864
v -0.159496 -0.556466 -0.075678
v 0.116078 -0.556466 -0.075750
v 0.013630 -0.580024 -0.109864
v -0.322818 -0.580024 -0.272669
v 0.279124 -0.580024 -0.272669
v 0.116320 -0.580024 -0.109864
vn 0.000000 1.000000 0.000000
vn 0.000000 -1.000000 0.000000
vn 0.014241 0.000000 -0.999899
vn -0.014241 0.000000 -0.999899
vn -1.000000 0.000000 0.000000
vn 1.000000 0.000000 0.000000
vn -0.014241 0.000000 0.999899
vn 0.014241 0.000000 0.999899
vn 0.000000 0.000000 -1.000000
vn 0.000000 0.000000 1.000000
usemtl material-0
f 5//2 1//2 2//2
f 2//1 1//1 5//1
f 2//1 4//1 1//1
f 1//3 8//3 2//3
f 2//7 8//7 1//7
f 9//2 3//2 1//2
f 1//1 3//1 9//1
f 4//2 5//2 2//2
f 2//1 5//1 4//1
f 6//2 1//2 5//2
f 5//1 1//1 6//1
f 1//1 4//1 14//1
f 8//3 1//3 15//3
f 15//7 1//7 8//7
f 9//2 13//2 3//2
f 3//1 13//1 9//1
f 9//2 1//2 16//2
f 16//1 1//1 9//1
f 4//1 5//1 14//1
f 5//1 6//1 14//1
f 11//2 1//2 6//2
f 6//1 1//1 11//1
f 6//1 11//1 14//1
f 12//2 9//2 7//2
f 7//1 9//1 12//1
f 19//1 7//1 12//1
f 3//1 20//1 13//1
f 10//1 21//1 3//1
f 22//1 1//1 14//1
f 15//3 1//3 22//3
f 22//7 1//7 15//7
f 15//2 23//2 8//2
f 8//1 23//1 15//1
f 9//2 12//2 13//2
f 13//1 12//1 9//1
f 16//2 1//2 24//2
f 24//1 1//1 16//1
f 16//1 9//1 14//1
f 17//1 21//1 10//1
f 18//2 1//2 11//2
f 11//1 1//1 18//1
f 11//1 18//1 14//1
f 12//2 27//2 13//2
f 13//1 27//1 12//1
f 9//1 7//1 14//1
f 7//1 19//1 14//1
f 27//2 12//2 19//2
f 19//1 12//1 27//1
f 28//6 19//6 12//6
f 12//5 19//5 28//5
f 27//1 13//1 20//1
f 21//1 20//1 3//1
f 29//1 22//1 14//1
f 30//2 23//2 15//2
f 15//1 23//1 30//1
f 24//2 1//2 31//2
f 31//1 1//1 24//1
f 24//1 16//1 14//1
f 25//1 21//1 17//1
f 26//2 1//2 18//2
f 18//1 1//1 26//1
f 18//1 26//1 14//1
f 34//5 13//5 27//5
f 27//6 13//6 34//6
f 35//1 14//1 19//1
f 19//6 28//6 36//6
f 36//5 28//5 19//5
f 20//9 34//9 27//9
f 27//10 34//10 20//10
f 37//6 20//6 21//6
f 21//5 20//5 37//5
f 29//1 21//1 22//1
f 14//8 39//8 29//8
f 29//4 39//4 14//4
f 30//2 40//2 23//2
f 23//1 40//1 30//1
f 30//2 15//2 39//2
f 39//1 15//1 30//1
f 31//2 1//2 41//2
f 41//1 1//1 31//1
f 31//1 24//1 14//1
f 32//1 21//1 25//1
f 33//2 1//2 26//2
f 26//1 1//1 33//1
f 26//1 33//1 14//1
f 13//5 34//5 43//5
f 43//6 34//6 13//6
f 44//5 14//5 35//5
f 35//6 14//6 44//6
f 19//9 44//9 35//9
f 35//10 44//10 19//10
f 28//2 40//2 36//2
f 36//1 40//1 28//1
f 44//9 19//9 36//9
f 36//10 19//10 44//10
f 34//9 20//9 45//9
f 45//10 20//10 34//10
f 20//6 37//6 45//6
f 45//5 37//5 20//5
f 29//7 37//7 21//7
f 21//3 37//3 29//3
f 22//1 21//1 38//1
f 39//8 14//8 30//8
f 30//4 14//4 39//4
f 37//7 29//7 39//7
f 39//3 29//3 37//3
f 44//2 40//2 30//2
f 30//1 40//1 44//1
f 15//2 37//2 39//2
f 39//1 37//1 15//1
f 41//2 1//2 33//2
f 33//1 1//1 41//1
f 41//1 31//1 14//1
f 42//1 21//1 32//1
f 33//1 41//1 14//1
f 45//2 43//2 34//2
f 34//1 43//1 45//1
f 14//5 44//5 30//5
f 30//6 44//6 14//6
f 40//2 44//2 36//2
f 36//1 44//1 40//1
f 46//2 45//2 37//2
f 37//1 45//1 46//1
f 38//1 21//1 42//1
f 46//2 37//2 15//2
f 15//1 37//1 46//1
f 43//2 45//2 46//2
f 46//1 45//1 43//1
usemtl material-3
f 1//2 4//2 2//2
f 14//2 4//2 1//2
f 14//2 5//2 4//2
f 14//2 6//2 5//2
f 14//2 11//2 6//2
f 12//2 7//2 19//2
f 13//2 20//2 3//2
f 3//2 21//2 10//2
f 14//2 1//2 22//2
f 14//2 9//2 16//2
f 10//2 21//2 17//2
f 14//2 18//2 11//2
f 14//2 7//2 9//2
f 14//2 19//2 7//2
f 20//2 13//2 27//2
f 3//2 20//2 21//2
f 14//2 22//2 29//2
f 14//2 16//2 24//2
f 17//2 21//2 25//2
f 14//2 26//2 18//2
f 19//2 14//2 35//2
f 22//2 21//2 29//2
f 14//2 24//2 31//2
f 25//2 21//2 32//2
f 14//2 33//2 26//2
f 38//2 21//2 22//2
f 14//2 31//2 41//2
f 32//2 21//2 42//2
f 14//2 41//2 33//2
f 42//2 21//2 38//2