# SSTK version 0.8.0
# 14
mtllib original-14.mtl
o mesh13/mesh13-geometry#mesh13-geometry
v -0.306256 0.029938 -0.073955
v -0.306256 0.052663 -0.162966
v -0.306256 0.042595 -0.072545
v -0.306256 0.040005 -0.164375
v -0.306428 0.052807 -0.164266
v -0.306428 0.029794 -0.072655
v -0.306428 0.042451 -0.071245
v -0.306428 0.040150 -0.165675
v -0.306933 0.052942 -0.165478
v -0.306933 0.029659 -0.071443
v -0.306933 0.042316 -0.070034
v -0.306933 0.040285 -0.166887
v -0.307737 0.053058 -0.166518
v -0.307737 0.029543 -0.070403
v -0.307737 0.042200 -0.068993
v -0.307737 0.040401 -0.167927
v -0.308783 0.053147 -0.167317
v -0.308783 0.042111 -0.068195
v -0.308783 0.040490 -0.168726
v -0.308783 0.029454 -0.069604
v -0.310002 0.053203 -0.167818
v -0.310002 0.040546 -0.169228
v -0.310002 0.042055 -0.067693
v -0.310002 0.029398 -0.069102
v -0.311311 0.053222 -0.167990
v -0.311311 0.040565 -0.169399
v -0.311311 0.042036 -0.067522
v -0.311311 0.029379 -0.068931
v -0.402290 0.053222 -0.167990
v -0.402290 0.042036 -0.067522
v -0.402290 0.040565 -0.169399
v -0.402290 0.029379 -0.068931
v -0.403598 0.053203 -0.167818
v -0.403598 0.029398 -0.069102
v -0.403598 0.042055 -0.067693
v -0.403598 0.040546 -0.169228
v -0.404817 0.053147 -0.167317
v -0.404817 0.029454 -0.069604
v -0.404817 0.042111 -0.068195
v -0.404817 0.040490 -0.168726
v -0.405864 0.053058 -0.166518
v -0.405864 0.029543 -0.070403
v -0.405864 0.042200 -0.068993
v -0.405864 0.040401 -0.167927
v -0.406667 0.052942 -0.165478
v -0.406667 0.040285 -0.166887
v -0.406667 0.042316 -0.070034
v -0.406667 0.029659 -0.071443
v -0.407172 0.052807 -0.164266
v -0.407172 0.040150 -0.165675
v -0.407172 0.042451 -0.071245
v -0.407172 0.029794 -0.072655
v -0.407344 0.052663 -0.162966
v -0.407344 0.040005 -0.164375
v -0.407344 0.042595 -0.072545
v -0.407344 0.029938 -0.073955
vt 1.340989 0.630851
vt 1.340989 0.74128
vt 1.340892 0.742868
vt 1.340892 0.629263
vt 1.340609 0.744347
vt 1.340609 0.627783
vt 1.340157 0.745618
vt 1.340157 0.626512
vt 1.339569 0.746593
vt 1.339569 0.625537
vt 1.338884 0.747206
vt 1.338884 0.624925
vt 1.338148 0.747415
vt 1.338148 0.624716
vt 1.287012 0.747415
vt 1.287012 0.624716
vt 1.286277 0.747206
vt 1.286277 0.624925
vt 1.285592 0.746593
vt 1.285592 0.625537
vt 1.285003 0.745618
vt 1.285003 0.626512
vt 1.284552 0.744347
vt 1.284552 0.627783
vt 1.284268 0.742868
vt 1.284268 0.629263
vt 1.284171 0.74128
vt 1.284171 0.630851
vt 0.039119 0.839417
vt 0.148202 0.92599
vt 0.04082 0.730568
vt 0.149902 0.817142
vt 0.160493 5.242487
vt 0.160493 4.460097
vt 0.160285 5.253737
vt 0.131317 0.797555
vt 0.129735 0.79631
vt 0.129631 0.906415
vt 0.046348 0.840883
vt 0.04793 0.842128
vt 0.048034 0.732023
vt 0.160285 4.448847
vt 0.128049 0.90517
vt 0.049616 0.733268
vt 0.159676 5.26422
vt 0.273614 0.863704
vt 0.272031 0.862543
vt 0.272042 0.97265
vt -0.185757 0.636972
vt -0.184174 0.638133
vt -0.184185 0.528026
vt 0.159676 4.438364
vt 0.270459 0.971489
vt -0.182602 0.529187
vt 0.158707 5.273222
vt 0.358701 0.8288
vt 0.357116 0.827801
vt 0.35735 0.937896
vt -0.444914 0.432751
vt -0.443328 0.43375
vt -0.443562 0.323655
vt 0.158707 4.429362
vt 0.355764 0.936897
vt -0.441976 0.324654
vt 0.157444 5.28013
vt 0.37937 0.811048
vt 0.380409 0.701778
vt 0.377782 0.810281
vt -0.712865 0.173566
vt -0.713903 0.282836
vt -0.711276 0.174334
vt 0.157444 4.422454
vt -0.712315 0.283604
vt 0.37882 0.70101
vt 0.155973 5.284472
vt -0.973746 0.118323
vt -0.9744 0.227744
vt -0.972155 0.118806
vt 0.33602 0.625744
vt 0.336674 0.516322
vt 0.33443 0.625261
vt 0.155973 4.418112
vt -0.972809 0.228227
vt 0.335084 0.515839
vt 0.154395 5.285953
vt -1.207982 0.173203
vt -1.208205 0.282712
vt -1.206391 0.173368
vt 0.229803 0.43168
vt 0.230027 0.32217
vt 0.228212 0.431515
vt 0.154395 4.416631
vt -1.206614 0.282877
vt 0.228435 0.322006
vt 0.044639 5.285953
vt -1.30902 0.348032
vt -1.199264 0.348032
vt -1.30902 0.238511
vt 0.154395 0.348032
vt 0.154395 0.238511
vt 0.044639 0.348032
vt 0.044639 4.416631
vt -1.199264 0.238511
vt 0.044639 0.238511
vt 0.043061 5.284472
vt -1.283902 0.421266
vt -1.282311 0.421101
vt -1.284126 0.311757
vt -0.047168 0.183617
vt -0.04876 0.183782
vt -0.046945 0.293126
vt 0.043061 4.418112
vt -1.282534 0.311592
vt -0.048537 0.293291
vt 0.04159 5.28013
vt -1.425671 0.60601
vt -1.42408 0.605527
vt -1.426325 0.496588
vt -0.245853 0.138057
vt -0.247443 0.13854
vt -0.245199 0.247478
vt 0.04159 4.422454
vt -1.424735 0.496105
vt -0.246789 0.247961
vt 0.040327 5.273222
vt -1.508954 0.79895
vt -1.507366 0.798183
vt -1.509993 0.68968
vt -0.4668 0.185664
vt -0.468389 0.186432
vt -0.465761 0.294935
vt 0.040327 4.429362
vt -1.508405 0.688912
vt -0.46735 0.295702
vt 0.039358 5.26422
vt -1.52981 0.839179
vt -1.528458 0.948275
vt -1.528225 0.83818
vt -0.693227 0.422372
vt -0.694579 0.313276
vt -0.694813 0.423371
vt 0.039358 4.438364
vt -1.526873 0.947277
vt -0.696165 0.314275
vt 0.038749 5.253737
vt -1.485005 0.905328
vt -1.483433 1.014274
vt -1.483422 0.904167
vt -0.912101 0.595349
vt -0.913673 0.486403
vt -0.913684 0.59651
vt 0.038749 4.448847
vt -1.48185 1.013113
vt -0.915256 0.487564
vt 0.038541 5.242487
vt -1.379071 0.870836
vt -1.377385 0.979695
vt -1.377489 0.869591
vt -1.107843 0.767602
vt -1.109529 0.658742
vt -1.109426 0.768847
vt 0.038541 4.460097
vt -1.375803 0.97845
vt -1.111111 0.659987
vt -1.193744 0.839417
vt -1.195444 0.730568
vt -1.302826 0.92599
vt -1.304526 0.817142
vn 0.9978589560687615 -0.0072369996813874925 0.06500099713829867
vn 0.9978589560687615 0.0072369996813874925 -0.06500099713829867
vn 0 0.9938591002356646 0.11065301115991022
vn 0.9659257572160402 -0.028638992801633078 0.2572299353456497
vn 0.9659257572160402 0.028638992801633078 -0.2572299353456497
vn 0.8660251334540503 -0.05532600852571102 0.4969300765766822
vn 0.8660251334540503 0.05532600852571102 -0.4969300765766822
vn 0.7071066741218326 -0.07824296394083871 0.7027646761228917
vn 0.7071066741218326 0.07824296394083871 -0.7027646761228917
vn 0.5000001136417888 -0.09582802178013086 0.8607071956245661
vn 0.5000001136417888 0.09582802178013086 -0.8607071956245661
vn 0.2588190625409164 0.1068820258269226 -0.9599942319725542
vn 0.2588190625409164 -0.1068820258269226 0.9599942319725542
vn 0.06540301236686057 0.11041602087823633 -0.9917311875234928
vn 0.06540301236686057 -0.11041602087823633 0.9917311875234928
vn -0.06540301236686057 0.11041602087823633 -0.9917311875234928
vn -0.06540301236686057 -0.11041602087823633 0.9917311875234928
vn -0.2588190625409164 0.1068820258269226 -0.9599942319725542
vn -0.2588190625409164 -0.1068820258269226 0.9599942319725542
vn -0.5000001136417888 0.09582802178013086 -0.8607071956245661
vn -0.5000001136417888 -0.09582802178013086 0.8607071956245661
vn -0.7071066741218326 0.07824296394083871 -0.7027646761228917
vn -0.7071066741218326 -0.07824296394083871 0.7027646761228917
vn -0.8660251334540503 0.05532600852571102 -0.4969300765766822
vn -0.8660251334540503 -0.05532600852571102 0.4969300765766822
vn -0.9659257572160402 0.028638992801633078 -0.2572299353456497
vn -0.9659257572160402 -0.028638992801633078 0.2572299353456497
vn -0.9978589560687615 0.0072369996813874925 -0.06500099713829867
vn -0.9978589560687615 -0.0072369996813874925 0.06500099713829867
vn 0 -0.9938591002356646 -0.11065301115991022
usemtl material_0_0
f 1/1/1 2/2/2 3/1/1
f 2/2/2 1/1/1 4/2/2
f 5/3/3 3/1/3 2/2/3
f 3/1/1 6/4/4 1/1/1
f 4/2/2 5/3/5 2/2/2
f 5/3/3 7/4/3 3/1/3
f 6/4/4 3/1/1 7/4/4
f 5/3/5 4/2/2 8/3/5
f 9/5/3 7/4/3 5/3/3
f 7/4/4 10/6/6 6/4/4
f 8/3/5 9/5/7 5/3/5
f 9/5/3 11/6/3 7/4/3
f 10/6/6 7/4/4 11/6/6
f 9/5/7 8/3/5 12/5/7
f 13/7/3 11/6/3 9/5/3
f 11/6/6 14/8/8 10/6/6
f 12/5/7 13/7/9 9/5/7
f 13/7/3 15/8/3 11/6/3
f 14/8/8 11/6/6 15/8/8
f 13/7/9 12/5/7 16/7/9
f 17/9/3 15/8/3 13/7/3
f 18/10/10 14/8/8 15/8/8
f 19/9/11 13/7/9 16/7/9
f 17/9/3 18/10/3 15/8/3
f 13/7/9 19/9/11 17/9/11
f 14/8/8 18/10/10 20/10/10
f 21/11/3 18/10/3 17/9/3
f 22/11/12 17/9/11 19/9/11
f 23/12/13 20/10/10 18/10/10
f 21/11/3 23/12/3 18/10/3
f 17/9/11 22/11/12 21/11/12
f 20/10/10 23/12/13 24/12/13
f 25/13/3 23/12/3 21/11/3
f 26/13/14 21/11/12 22/11/12
f 27/14/15 24/12/13 23/12/13
f 25/13/3 27/14/3 23/12/3
f 21/11/12 26/13/14 25/13/14
f 24/12/13 27/14/15 28/14/15
f 29/15/3 27/14/3 25/13/3
f 26/13/14 29/15/16 25/13/14
f 30/16/17 28/14/15 27/14/15
f 29/15/3 30/16/3 27/14/3
f 29/15/16 26/13/14 31/15/16
f 28/14/15 30/16/17 32/16/17
f 33/17/3 30/16/3 29/15/3
f 31/15/16 33/17/18 29/15/16
f 30/16/17 34/18/19 32/16/17
f 33/17/3 35/18/3 30/16/3
f 33/17/18 31/15/16 36/17/18
f 34/18/19 30/16/17 35/18/19
f 37/19/3 35/18/3 33/17/3
f 36/17/18 37/19/20 33/17/18
f 35/18/19 38/20/21 34/18/19
f 37/19/3 39/20/3 35/18/3
f 37/19/20 36/17/18 40/19/20
f 38/20/21 35/18/19 39/20/21
f 41/21/3 39/20/3 37/19/3
f 40/19/20 41/21/22 37/19/20
f 39/20/21 42/22/23 38/20/21
f 41/21/3 43/22/3 39/20/3
f 41/21/22 40/19/20 44/21/22
f 42/22/23 39/20/21 43/22/23
f 45/23/3 43/22/3 41/21/3
f 46/23/24 41/21/22 44/21/22
f 47/24/25 42/22/23 43/22/23
f 45/23/3 47/24/3 43/22/3
f 41/21/22 46/23/24 45/23/24
f 42/22/23 47/24/25 48/24/25
f 49/25/3 47/24/3 45/23/3
f 50/25/26 45/23/24 46/23/24
f 51/26/27 48/24/25 47/24/25
f 49/25/3 51/26/3 47/24/3
f 45/23/24 50/25/26 49/25/26
f 48/24/25 51/26/27 52/26/27
f 53/27/3 51/26/3 49/25/3
f 54/27/28 49/25/26 50/25/26
f 55/28/29 52/26/27 51/26/27
f 51/26/3 53/27/3 55/28/3
f 49/25/26 54/27/28 53/27/28
f 52/26/27 55/28/29 56/28/29
f 53/27/28 56/28/29 55/28/29
f 56/28/29 53/27/28 54/27/28
usemtl material_1_0
f 3/29/28 2/30/29 1/31/28
f 4/32/29 1/31/28 2/30/29
f 2/33/30 3/34/30 5/35/30
f 1/36/28 6/37/26 3/38/28
f 2/39/29 5/40/27 4/41/29
f 3/34/30 7/42/30 5/35/30
f 7/43/26 3/38/28 6/37/26
f 8/44/27 4/41/29 5/40/27
f 5/35/30 7/42/30 9/45/30
f 6/46/26 10/47/24 7/48/26
f 5/49/27 9/50/25 8/51/27
f 7/42/30 11/52/30 9/45/30
f 11/53/24 7/48/26 10/47/24
f 12/54/25 8/51/27 9/50/25
f 9/45/30 11/52/30 13/55/30
f 10/56/24 14/57/22 11/58/24
f 9/59/25 13/60/23 12/61/25
f 11/52/30 15/62/30 13/55/30
f 15/63/22 11/58/24 14/57/22
f 16/64/23 12/61/25 13/60/23
f 13/55/30 15/62/30 17/65/30
f 15/66/22 14/67/22 18/68/20
f 16/69/23 13/70/23 19/71/21
f 15/62/30 18/72/30 17/65/30
f 17/73/21 19/71/21 13/70/23
f 20/74/20 18/68/20 14/67/22
f 17/65/30 18/72/30 21/75/30
f 19/76/21 17/77/21 22/78/19
f 18/79/20 20/80/20 23/81/18
f 18/72/30 23/82/30 21/75/30
f 21/83/19 22/78/19 17/77/21
f 24/84/18 23/81/18 20/80/20
f 21/75/30 23/82/30 25/85/30
f 22/86/19 21/87/19 26/88/17
f 23/89/18 24/90/18 27/91/16
f 23/82/30 27/92/30 25/85/30
f 25/93/17 26/88/17 21/87/19
f 28/94/16 27/91/16 24/90/18
f 25/85/30 27/92/30 29/95/30
f 25/96/17 29/97/15 26/98/17
f 27/99/16 28/100/16 30/101/14
f 27/92/30 30/102/30 29/95/30
f 31/103/15 26/98/17 29/97/15
f 32/104/14 30/101/14 28/100/16
f 29/95/30 30/102/30 33/105/30
f 29/106/15 33/107/13 31/108/15
f 32/109/14 34/110/12 30/111/14
f 30/102/30 35/112/30 33/105/30
f 36/113/13 31/108/15 33/107/13
f 35/114/12 30/111/14 34/110/12
f 33/105/30 35/112/30 37/115/30
f 33/116/13 37/117/10 36/118/13
f 34/119/12 38/120/11 35/121/12
f 35/112/30 39/122/30 37/115/30
f 40/123/10 36/118/13 37/117/10
f 39/124/11 35/121/12 38/120/11
f 37/115/30 39/122/30 41/125/30
f 37/126/10 41/127/8 40/128/10
f 38/129/11 42/130/9 39/131/11
f 39/122/30 43/132/30 41/125/30
f 44/133/8 40/128/10 41/127/8
f 43/134/9 39/131/11 42/130/9
f 41/125/30 43/132/30 45/135/30
f 44/136/8 41/137/8 46/138/6
f 43/139/9 42/140/9 47/141/7
f 43/132/30 47/142/30 45/135/30
f 45/143/6 46/138/6 41/137/8
f 48/144/7 47/141/7 42/140/9
f 45/135/30 47/142/30 49/145/30
f 46/146/6 45/147/6 50/148/4
f 47/149/7 48/150/7 51/151/5
f 47/142/30 51/152/30 49/145/30
f 49/153/4 50/148/4 45/147/6
f 52/154/5 51/151/5 48/150/7
f 49/145/30 51/152/30 53/155/30
f 50/156/4 49/157/4 54/158/1
f 51/159/5 52/160/5 55/161/2
f 55/162/30 53/155/30 51/152/30
f 53/163/1 54/158/1 49/157/4
f 56/164/2 55/161/2 52/160/5
f 55/165/2 56/166/2 53/167/1
f 54/168/1 53/167/1 56/166/2
