# SSTK version 0.8.0
# 47
mtllib original-47.mtl
o mesh46/mesh46-geometry#mesh46-geometry
v 0.166600 0.016030 0.166065
v 0.165291 0.003391 0.164484
v 0.166600 0.003372 0.164656
v 0.165291 0.016049 0.165894
v 0.262633 0.003372 0.164656
v 0.165291 0.027196 0.065768
v 0.164072 0.003447 0.163983
v 0.262633 0.016030 0.166065
v 0.164072 0.027140 0.066270
v 0.166600 0.027215 0.065597
v 0.164072 0.016104 0.165392
v 0.263941 0.003391 0.164484
v 0.165291 0.014539 0.064359
v 0.166600 0.014558 0.064188
v 0.163026 0.003536 0.163184
v 0.263941 0.016049 0.165894
v 0.262633 0.027215 0.065597
v 0.163026 0.027051 0.067069
v 0.164072 0.014483 0.064861
v 0.262633 0.014558 0.064188
v 0.163026 0.016193 0.164593
v 0.265161 0.003447 0.163983
v 0.162222 0.016309 0.163553
v 0.265161 0.016104 0.165392
v 0.263941 0.027196 0.065768
v 0.162222 0.026936 0.068109
v 0.163026 0.014394 0.065659
v 0.162222 0.003652 0.162144
v 0.266207 0.003536 0.163184
v 0.263941 0.014539 0.064359
v 0.162222 0.014278 0.066700
v 0.161717 0.016444 0.162342
v 0.161717 0.026801 0.069320
v 0.266207 0.016193 0.164593
v 0.265161 0.027140 0.066270
v 0.161717 0.014143 0.067911
v 0.161717 0.003787 0.160932
v 0.267011 0.016309 0.163553
v 0.265161 0.014483 0.064861
v 0.161545 0.016589 0.161041
v 0.161545 0.026656 0.070621
v 0.161545 0.013999 0.069211
v 0.267011 0.003652 0.162144
v 0.266207 0.027051 0.067069
v 0.161545 0.003931 0.159632
v 0.267515 0.016444 0.162342
v 0.267011 0.026936 0.068109
v 0.266207 0.014394 0.065659
v 0.267515 0.003787 0.160932
v 0.267011 0.014278 0.066700
v 0.267688 0.016589 0.161041
v 0.267515 0.026801 0.069320
v 0.267515 0.014143 0.067911
v 0.267688 0.003931 0.159632
v 0.267688 0.026656 0.070621
v 0.267688 0.013999 0.069211
vt 1.606765 0.339439
vt 1.60603 0.339649
vt 1.660742 0.339439
vt 1.60603 0.46193
vt 1.605345 0.340261
vt 1.605345 0.461317
vt 1.606765 0.462139
vt 1.661478 0.339649
vt 1.604756 0.341236
vt 1.660742 0.462139
vt 1.604756 0.460342
vt 1.662163 0.340261
vt 1.604305 0.342507
vt 1.661478 0.46193
vt 1.604305 0.459071
vt 1.662751 0.341236
vt 1.604021 0.343987
vt 1.604021 0.457592
vt 1.662163 0.461317
vt 1.663203 0.342507
vt 1.603924 0.345574
vt 1.603924 0.456004
vt 1.662751 0.460342
vt 1.663487 0.343987
vt 1.663203 0.459071
vt 1.663583 0.345574
vt 1.663487 0.457592
vt 1.663583 0.456004
vt -0.016107 2.130477
vt -0.017698 2.130642
vt -0.015883 2.239986
vt -0.017475 2.240151
vt 0.038541 2.259684
vt 0.038541 2.369205
vt 0.154395 2.259684
vt 0.038541 4.416631
vt 0.036963 4.418112
vt 0.036963 5.284472
vt -0.190263 1.933904
vt -0.191853 1.934387
vt -0.189609 2.043326
vt 0.154395 2.369205
vt 0.035493 5.28013
vt 0.038541 5.285953
vt -0.191199 2.043809
vt 0.185487 2.409826
vt 0.185264 2.519335
vt 0.187078 2.409991
vt 0.154395 4.416631
vt 0.035493 4.422454
vt -2.637047 2.786659
vt -2.635457 2.786176
vt -2.637701 2.677237
vt -2.613553 2.509086
vt -2.611961 2.508921
vt -2.613776 2.399577
vt -0.437657 1.861174
vt -0.439245 1.861941
vt -0.436618 1.970444
vt 0.186855 2.5195
vt 0.154395 5.285953
vt 0.03423 5.273222
vt -2.636111 2.676754
vt -2.612184 2.399412
vt -2.565765 2.259684
vt -2.681618 2.259684
vt -2.565765 2.369205
vt -0.438206 1.971212
vt 0.173861 2.696488
vt 0.173207 2.80591
vt 0.175452 2.696971
vt 0.155973 4.418112
vt -2.681618 2.369205
vt 0.03423 4.429362
vt -2.566274 2.999381
vt -2.564686 2.998614
vt -2.567313 2.890111
vt -0.739282 2.040416
vt -0.740634 1.93132
vt -0.740868 2.041415
vt 0.174798 2.806393
vt 0.155973 5.284472
vt -2.610274 2.229737
vt -2.610051 2.120228
vt -2.611866 2.229572
vt 0.033261 5.26422
vt -2.565725 2.889343
vt -0.742219 1.932319
vt 0.033261 4.438364
vt 0.063542 2.901442
vt 0.062503 3.010712
vt 0.06513 2.902209
vt 0.157444 4.422454
vt -2.611643 2.120063
vt -2.405272 3.089406
vt -2.406624 2.98031
vt -2.406858 3.090404
vt -2.408209 2.981308
vt -1.076564 2.233891
vt -1.078136 2.124944
vt -1.078148 2.235052
vt 0.032652 5.253737
vt 0.064091 3.011479
vt 0.157444 5.28013
vt -2.400998 2.024075
vt -2.400344 1.914654
vt -2.402589 2.023592
vt -2.171983 2.926999
vt -2.170411 3.035945
vt -2.170399 2.925838
vt -1.07972 2.126106
vt 0.032652 4.448847
vt -2.168827 3.034784
vt -0.138435 3.079027
vt -0.13685 3.080025
vt -0.137084 2.969931
vt 0.158707 4.429362
vt -2.401935 1.914171
vt -1.42569 2.498853
vt -1.427376 2.389993
vt -1.427272 2.500098
vt 0.032444 5.242487
vt -1.874996 2.74221
vt -1.87331 2.85107
vt -1.873414 2.740965
vt -0.135498 2.970929
vt 0.159676 4.438364
vt 0.158707 5.273222
vt -2.114057 1.959114
vt -2.113018 1.849843
vt -2.115645 1.958346
vt -1.428958 2.391238
vt 0.032444 4.460097
vt -1.871728 2.849825
vt -0.415163 2.99316
vt -0.413579 2.994321
vt -0.413591 2.884214
vt 0.159676 5.26422
vt -2.114606 1.849076
vt -1.598248 2.636942
vt -1.599948 2.528093
vt -1.70733 2.723515
vt -1.70903 2.614667
vt -0.412007 2.885375
vt 0.160285 4.448847
vt -1.771457 2.050796
vt -1.769872 2.051794
vt -1.770106 1.941699
vt -1.76852 1.942698
vt -0.748625 2.776544
vt -0.747043 2.777789
vt -0.746939 2.667685
vt 0.160285 5.253737
vt -1.390737 2.167729
vt -1.39232 2.166568
vt -1.392309 2.276675
vt -0.745357 2.66893
vt 0.160493 4.460097
vt -1.393892 2.275514
vt -0.928975 2.636942
vt -0.819893 2.723515
vt -0.927275 2.528093
vt 0.160493 5.242487
vt -1.005136 2.464519
vt -1.006718 2.463274
vt -1.006822 2.573378
vt -0.818193 2.614667
vt -1.008404 2.572133
vn -0.06540301236686057 -0.11041602087823633 0.9917311875234928
vn -0.2588190625409164 -0.1068820258269226 0.9599942319725542
vn 0.06540301236686057 -0.11041602087823633 0.9917311875234928
vn 0 0.9938591002356646 0.11065301115991022
vn -0.5000001136417888 -0.09582802178013086 0.8607071956245661
vn 0.2588190625409164 -0.1068820258269226 0.9599942319725542
vn -0.2588190625409164 0.1068820258269226 -0.9599942319725542
vn -0.5000001136417888 0.09582802178013086 -0.8607071956245661
vn -0.06540301236686057 0.11041602087823633 -0.9917311875234928
vn -0.7071066741218326 -0.07824296394083871 0.7027646761228917
vn 0.06540301236686057 0.11041602087823633 -0.9917311875234928
vn 0.5000001136417888 -0.09582802178013086 0.8607071956245661
vn -0.7071066741218326 0.07824296394083871 -0.7027646761228917
vn -0.8660251334540503 -0.05532600852571102 0.4969300765766822
vn 0.2588190625409164 0.1068820258269226 -0.9599942319725542
vn 0.7071066741218326 -0.07824296394083871 0.7027646761228917
vn -0.8660251334540503 0.05532600852571102 -0.4969300765766822
vn -0.9659257572160402 -0.028638992801633078 0.2572299353456497
vn 0.5000001136417888 0.09582802178013086 -0.8607071956245661
vn -0.9659257572160402 0.028638992801633078 -0.2572299353456497
vn 0.8660251334540503 -0.05532600852571102 0.4969300765766822
vn -0.9978589560687615 -0.0072369996813874925 0.06500099713829867
vn -0.9978589560687615 0.0072369996813874925 -0.06500099713829867
vn 0.7071066741218326 0.07824296394083871 -0.7027646761228917
vn 0.9659257572160402 -0.028638992801633078 0.2572299353456497
vn 0.8660251334540503 0.05532600852571102 -0.4969300765766822
vn 0.9978589560687615 -0.0072369996813874925 0.06500099713829867
vn 0.9659257572160402 0.028638992801633078 -0.2572299353456497
vn 0.9978589560687615 0.0072369996813874925 -0.06500099713829867
vn 0 -0.9938591002356646 -0.11065301115991022
usemtl material_0_0
f 1/1/1 2/2/2 3/1/1
f 2/2/2 1/1/1 4/2/2
f 5/3/3 1/1/1 3/1/1
f 6/4/4 4/2/4 1/1/4
f 4/2/2 7/5/5 2/2/2
f 1/1/1 5/3/3 8/3/3
f 9/6/4 4/2/4 6/4/4
f 6/4/4 1/1/4 10/7/4
f 7/5/5 4/2/2 11/5/5
f 12/8/6 8/3/3 5/3/3
f 10/7/4 1/1/4 8/3/4
f 9/6/4 11/5/4 4/2/4
f 13/4/7 9/6/8 6/4/7
f 14/7/9 6/4/7 10/7/9
f 11/5/5 15/9/10 7/5/5
f 8/3/3 12/8/6 16/8/6
f 10/7/4 8/3/4 17/10/4
f 18/11/4 11/5/4 9/6/4
f 9/6/8 13/4/7 19/6/8
f 6/4/7 14/7/9 13/4/7
f 10/7/9 20/10/11 14/7/9
f 15/9/10 11/5/5 21/9/10
f 22/12/12 16/8/6 12/8/6
f 17/10/4 8/3/4 16/8/4
f 20/10/11 10/7/9 17/10/11
f 18/11/4 21/9/4 11/5/4
f 19/6/8 18/11/13 9/6/8
f 23/13/14 15/9/10 21/9/10
f 16/8/6 22/12/12 24/12/12
f 17/10/4 16/8/4 25/14/4
f 25/14/15 20/10/11 17/10/11
f 26/15/4 21/9/4 18/11/4
f 18/11/13 19/6/8 27/11/13
f 15/9/10 23/13/14 28/13/14
f 26/15/4 23/13/4 21/9/4
f 29/16/16 24/12/12 22/12/12
f 25/14/4 16/8/4 24/12/4
f 20/10/11 25/14/15 30/14/15
f 18/11/13 31/15/17 26/15/17
f 31/15/17 18/11/13 27/11/13
f 32/17/18 28/13/14 23/13/14
f 33/18/4 23/13/4 26/15/4
f 24/12/12 29/16/16 34/16/16
f 25/14/4 24/12/4 35/19/4
f 35/19/19 30/14/15 25/14/15
f 36/18/20 26/15/17 31/15/17
f 28/13/14 32/17/18 37/17/18
f 33/18/4 32/17/4 23/13/4
f 26/15/17 36/18/20 33/18/20
f 29/16/16 38/20/21 34/16/16
f 35/19/4 24/12/4 34/16/4
f 30/14/15 35/19/19 39/19/19
f 40/21/22 37/17/18 32/17/18
f 41/22/4 32/17/4 33/18/4
f 42/22/23 33/18/20 36/18/20
f 38/20/21 29/16/16 43/20/21
f 44/23/4 34/16/4 38/20/4
f 35/19/4 34/16/4 44/23/4
f 44/23/24 39/19/19 35/19/19
f 37/17/18 40/21/22 45/21/22
f 32/17/4 41/22/4 40/21/4
f 33/18/20 42/22/23 41/22/23
f 43/20/21 46/24/25 38/20/21
f 44/23/4 38/20/4 47/25/4
f 39/19/19 44/23/24 48/23/24
f 41/22/23 45/21/22 40/21/22
f 45/21/22 41/22/23 42/22/23
f 46/24/25 43/20/21 49/24/25
f 47/25/4 38/20/4 46/24/4
f 50/25/26 44/23/24 47/25/26
f 44/23/24 50/25/26 48/23/24
f 49/24/25 51/26/27 46/24/25
f 47/25/4 46/24/4 52/27/4
f 47/25/26 53/27/28 50/25/26
f 51/26/27 49/24/25 54/26/27
f 52/27/4 46/24/4 51/26/4
f 53/27/28 47/25/26 52/27/28
f 54/26/27 55/28/29 51/26/27
f 52/27/4 51/26/4 55/28/4
f 52/27/28 56/28/29 53/27/28
f 55/28/29 54/26/27 56/28/29
f 56/28/29 52/27/28 55/28/29
usemtl material_1_0
f 3/29/11 2/30/15 1/31/11
f 4/32/15 1/31/11 2/30/15
f 3/33/11 1/34/11 5/35/9
f 1/36/30 4/37/30 6/38/30
f 2/39/15 7/40/19 4/41/15
f 8/42/9 5/35/9 1/34/11
f 6/38/30 4/37/30 9/43/30
f 10/44/30 1/36/30 6/38/30
f 11/45/19 4/41/15 7/40/19
f 5/46/9 8/47/9 12/48/7
f 8/49/30 1/36/30 10/44/30
f 4/37/30 11/50/30 9/43/30
f 6/51/6 9/52/12 13/53/6
f 10/54/3 6/55/6 14/56/3
f 7/57/19 15/58/24 11/59/19
f 16/60/7 12/48/7 8/47/9
f 17/61/30 8/49/30 10/44/30
f 9/43/30 11/50/30 18/62/30
f 19/63/12 13/53/6 9/52/12
f 13/64/6 14/56/3 6/55/6
f 14/65/3 20/66/1 10/67/3
f 21/68/24 11/59/19 15/58/24
f 12/69/7 16/70/7 22/71/8
f 16/72/30 8/49/30 17/61/30
f 17/73/1 10/67/3 20/66/1
f 11/50/30 21/74/30 18/62/30
f 9/75/12 18/76/16 19/77/12
f 21/78/24 15/79/24 23/80/26
f 24/81/8 22/71/8 16/70/7
f 25/82/30 16/72/30 17/61/30
f 17/83/1 20/84/1 25/85/2
f 18/62/30 21/74/30 26/86/30
f 27/87/16 19/77/12 18/76/16
f 28/88/26 23/80/26 15/79/24
f 21/74/30 23/89/30 26/86/30
f 22/90/8 24/91/8 29/92/13
f 24/93/30 16/72/30 25/82/30
f 30/94/2 25/85/2 20/84/1
f 26/95/21 31/96/21 18/97/16
f 27/98/16 18/97/16 31/96/21
f 23/99/26 28/100/26 32/101/28
f 26/86/30 23/89/30 33/102/30
f 34/103/13 29/92/13 24/91/8
f 35/104/30 24/93/30 25/82/30
f 25/105/2 30/106/2 35/107/5
f 31/108/21 26/109/21 36/110/25
f 37/111/28 32/101/28 28/100/26
f 23/89/30 32/112/30 33/102/30
f 33/113/25 36/110/25 26/109/21
f 34/114/13 38/115/17 29/116/13
f 34/117/30 24/93/30 35/104/30
f 39/118/5 35/107/5 30/106/2
f 32/119/28 37/120/28 40/121/29
f 33/102/30 32/112/30 41/122/30
f 36/123/25 33/124/25 42/125/27
f 43/126/17 29/116/13 38/115/17
f 38/127/30 34/117/30 44/128/30
f 44/128/30 34/117/30 35/104/30
f 35/129/5 39/130/5 44/131/10
f 45/132/29 40/121/29 37/120/28
f 40/133/30 41/122/30 32/112/30
f 41/134/27 42/125/27 33/124/25
f 38/135/17 46/136/20 43/137/17
f 47/138/30 38/127/30 44/128/30
f 48/139/10 44/131/10 39/130/5
f 40/140/29 45/141/29 41/142/27
f 42/143/27 41/142/27 45/141/29
f 49/144/20 43/137/17 46/136/20
f 46/145/30 38/127/30 47/138/30
f 47/146/14 44/147/10 50/148/14
f 48/149/10 50/148/14 44/147/10
f 46/150/20 51/151/23 49/152/20
f 52/153/30 46/145/30 47/138/30
f 50/154/14 53/155/18 47/156/14
f 54/157/23 49/152/20 51/151/23
f 51/158/30 46/145/30 52/153/30
f 52/159/18 47/156/14 53/155/18
f 51/160/23 55/161/22 54/162/23
f 55/163/30 51/158/30 52/153/30
f 53/164/18 56/165/22 52/166/18
f 56/167/22 54/162/23 55/161/22
f 55/168/22 52/166/18 56/165/22
