# SSTK version 0.8.0
# 26
mtllib original-26.mtl
o mesh25/mesh25-geometry#mesh25-geometry
v 0.537153 0.040285 -0.166887
v 0.536350 0.053058 -0.166518
v 0.537153 0.052942 -0.165478
v 0.536350 0.040401 -0.167927
v 0.537153 0.042316 -0.070034
v 0.537658 0.040150 -0.165675
v 0.535303 0.040490 -0.168726
v 0.536350 0.042200 -0.068993
v 0.537658 0.042451 -0.071245
v 0.537658 0.052807 -0.164266
v 0.535303 0.053147 -0.167317
v 0.536350 0.029543 -0.070403
v 0.537153 0.029659 -0.071443
v 0.537830 0.040005 -0.164375
v 0.534084 0.040546 -0.169228
v 0.535303 0.042111 -0.068195
v 0.537658 0.029794 -0.072655
v 0.537830 0.042595 -0.072545
v 0.537830 0.052663 -0.162966
v 0.534084 0.053203 -0.167818
v 0.535303 0.029454 -0.069604
v 0.537830 0.029938 -0.073955
v 0.532776 0.040565 -0.169399
v 0.534084 0.042055 -0.067693
v 0.532776 0.053222 -0.167990
v 0.534084 0.029398 -0.069102
v 0.441797 0.053222 -0.167990
v 0.532776 0.042036 -0.067522
v 0.441797 0.040565 -0.169399
v 0.532776 0.029379 -0.068931
v 0.440488 0.053203 -0.167818
v 0.441797 0.042036 -0.067522
v 0.440488 0.040546 -0.169228
v 0.441797 0.029379 -0.068931
v 0.439269 0.053147 -0.167317
v 0.440488 0.042055 -0.067693
v 0.440488 0.029398 -0.069102
v 0.439269 0.040490 -0.168726
v 0.438223 0.053058 -0.166518
v 0.439269 0.042111 -0.068195
v 0.439269 0.029454 -0.069604
v 0.438223 0.040401 -0.167927
v 0.437419 0.040285 -0.166887
v 0.438223 0.042200 -0.068993
v 0.438223 0.029543 -0.070403
v 0.437419 0.052942 -0.165478
v 0.436914 0.040150 -0.165675
v 0.437419 0.042316 -0.070034
v 0.436914 0.052807 -0.164266
v 0.437419 0.029659 -0.071443
v 0.436742 0.040005 -0.164375
v 0.436914 0.042451 -0.071245
v 0.436742 0.052663 -0.162966
v 0.436914 0.029794 -0.072655
v 0.436742 0.029938 -0.073955
v 0.436742 0.042595 -0.072545
vt 1.815041 0.744347
vt 1.814589 0.745618
vt 1.815041 0.627783
vt 1.815324 0.742868
vt 1.814001 0.746593
vt 1.814589 0.626512
vt 1.815324 0.629263
vt 1.815421 0.74128
vt 1.813315 0.747206
vt 1.814001 0.625537
vt 1.815421 0.630851
vt 1.81258 0.747415
vt 1.813315 0.624925
vt 1.761444 0.747415
vt 1.81258 0.624716
vt 1.760709 0.747206
vt 1.761444 0.624716
vt 1.760023 0.746593
vt 1.760709 0.624925
vt 1.759435 0.745618
vt 1.760023 0.625537
vt 1.758984 0.744347
vt 1.759435 0.626512
vt 1.7587 0.742868
vt 1.758984 0.627783
vt 1.758603 0.74128
vt 1.7587 0.629263
vt 1.758603 0.630851
vt -2.080699 0.043947
vt -2.079114 0.044946
vt -2.079348 -0.065149
vt -2.077762 -0.06415
vt 0.159676 5.26422
vt 0.159676 4.438364
vt 0.158707 5.273222
vt -1.588533 0.244955
vt -1.590116 0.243794
vt -1.590105 0.353901
vt -2.537174 -0.215858
vt -2.538213 -0.106588
vt -2.535586 -0.215091
vt 0.158707 4.429362
vt 0.160285 4.448847
vt -1.591689 0.35274
vt -2.536625 -0.105821
vt 0.157444 5.28013
vt -0.045035 1.325702
vt -0.04345 1.3267
vt -0.043684 1.216605
vt -0.360196 1.255722
vt -0.358612 1.256883
vt -0.358624 1.146776
vt 0.160285 5.253737
vt -1.100788 0.629314
vt -1.10237 0.628069
vt -1.102474 0.738174
vt -2.931965 -0.167151
vt -2.932619 -0.057729
vt -2.930375 -0.166668
vt 0.157444 4.422454
vt -0.042098 1.217604
vt 0.167094 1.200472
vt 0.168133 1.091202
vt 0.165506 1.199705
vt -0.35704 1.147937
vt 0.160493 4.460097
vt -1.104056 0.736929
vt -2.931029 -0.057246
vt 0.155973 5.284472
vt 0.166544 1.090435
vt -0.758132 1.009124
vt -0.75655 1.010369
vt -0.756447 0.900264
vt 0.160493 5.242487
vt -0.868391 0.817142
vt -0.977473 0.730568
vt -0.870091 0.92599
vt -3.235749 0.068629
vt -3.235973 0.178138
vt -3.234158 0.068794
vt 0.155973 4.418112
vt 0.257654 0.911217
vt 0.258308 0.801795
vt 0.256064 0.910734
vt -0.754865 0.901509
vt -0.979173 0.839417
vt -3.234381 0.178303
vt 0.154395 5.285953
vt 0.256718 0.801312
vt -3.345605 0.348032
vt -3.235849 0.348032
vt -3.345605 0.238511
vt 0.154395 4.416631
vt 0.220985 0.536254
vt 0.221208 0.426745
vt 0.219394 0.536089
vt -3.235849 0.238511
vt 0.044639 5.285953
vt 0.219617 0.42658
vt -3.311669 0.52584
vt -3.310078 0.525675
vt -3.311893 0.416331
vt 0.044639 4.416631
vt 0.154395 0.348032
vt 0.154395 0.238511
vt 0.044639 0.348032
vt -3.310301 0.416166
vt 0.043061 5.284472
vt 0.044639 0.238511
vt -3.383891 0.891483
vt -3.3823 0.891
vt -3.384545 0.782062
vt 0.043061 4.418112
vt -0.055987 0.079042
vt -0.057578 0.079207
vt -0.055763 0.188552
vt -3.382954 0.781579
vt 0.04159 5.28013
vt -0.057355 0.188717
vt -3.333264 1.188374
vt -3.331675 1.187607
vt -3.334303 1.079104
vt 0.04159 4.422454
vt -0.324219 -0.147417
vt -0.325809 -0.146934
vt -0.323565 -0.037995
vt -3.332714 1.078337
vt 0.040327 5.273222
vt -0.325155 -0.037512
vt -3.165596 1.227983
vt -3.164244 1.337079
vt -3.16401 1.226985
vt 0.040327 4.429362
vt -0.679076 -0.20376
vt -0.680665 -0.202993
vt -0.678037 -0.09449
vt -3.162659 1.336081
vt 0.039358 5.26422
vt -0.679626 -0.093723
vt -2.890936 1.189561
vt -2.889364 1.298507
vt -2.889353 1.1884
vt 0.039358 4.438364
vt -1.094027 0.033568
vt -1.095379 -0.075528
vt -1.095612 0.034567
vt -2.887781 1.297346
vt 0.038749 5.253737
vt -1.096964 -0.07453
vt -2.529475 0.97479
vt -2.527789 1.083649
vt -2.527893 0.973545
vt 0.038749 4.448847
vt -1.542755 0.311116
vt -1.544327 0.20217
vt -1.544338 0.312277
vt -2.526207 1.082404
vt 0.038541 5.242487
vt -1.54591 0.203331
vt -2.322819 0.817142
vt -2.321119 0.92599
vt -2.213737 0.730568
vt 0.038541 4.460097
vt -1.994025 0.663648
vt -1.99571 0.554789
vt -1.995607 0.664893
vt -2.212037 0.839417
vt -1.997293 0.556033
vn 0.8660251334540503 0.05532600852571102 -0.4969300765766822
vn 0.7071066741218326 0.07824296394083871 -0.7027646761228917
vn 0 0.9938591002356646 0.11065301115991022
vn 0.9659257572160402 0.028638992801633078 -0.2572299353456497
vn 0.5000001136417888 0.09582802178013086 -0.8607071956245661
vn 0.7071066741218326 -0.07824296394083871 0.7027646761228917
vn 0.8660251334540503 -0.05532600852571102 0.4969300765766822
vn 0.9659257572160402 -0.028638992801633078 0.2572299353456497
vn 0.9978589560687615 0.0072369996813874925 -0.06500099713829867
vn 0.2588190625409164 0.1068820258269226 -0.9599942319725542
vn 0.5000001136417888 -0.09582802178013086 0.8607071956245661
vn 0.9978589560687615 -0.0072369996813874925 0.06500099713829867
vn 0.06540301236686057 0.11041602087823633 -0.9917311875234928
vn 0.2588190625409164 -0.1068820258269226 0.9599942319725542
vn -0.06540301236686057 0.11041602087823633 -0.9917311875234928
vn 0.06540301236686057 -0.11041602087823633 0.9917311875234928
vn -0.2588190625409164 0.1068820258269226 -0.9599942319725542
vn -0.06540301236686057 -0.11041602087823633 0.9917311875234928
vn -0.5000001136417888 0.09582802178013086 -0.8607071956245661
vn -0.2588190625409164 -0.1068820258269226 0.9599942319725542
vn -0.7071066741218326 0.07824296394083871 -0.7027646761228917
vn -0.5000001136417888 -0.09582802178013086 0.8607071956245661
vn -0.8660251334540503 0.05532600852571102 -0.4969300765766822
vn -0.7071066741218326 -0.07824296394083871 0.7027646761228917
vn -0.9659257572160402 0.028638992801633078 -0.2572299353456497
vn -0.8660251334540503 -0.05532600852571102 0.4969300765766822
vn -0.9978589560687615 0.0072369996813874925 -0.06500099713829867
vn -0.9659257572160402 -0.028638992801633078 0.2572299353456497
vn -0.9978589560687615 -0.0072369996813874925 0.06500099713829867
vn 0 -0.9938591002356646 -0.11065301115991022
usemtl material_0_0
f 1/1/1 2/2/2 3/1/1
f 2/2/2 1/1/1 4/2/2
f 2/2/3 5/3/3 3/1/3
f 3/1/1 6/4/4 1/1/1
f 7/5/5 2/2/2 4/2/2
f 2/2/3 8/6/3 5/3/3
f 3/1/3 5/3/3 9/7/3
f 6/4/4 3/1/1 10/4/4
f 2/2/2 7/5/5 11/5/5
f 11/5/3 8/6/3 2/2/3
f 12/6/6 5/3/7 8/6/6
f 13/3/7 9/7/8 5/3/7
f 3/1/3 9/7/3 10/4/3
f 10/4/4 14/8/9 6/4/4
f 15/9/10 11/5/5 7/5/5
f 11/5/3 16/10/3 8/6/3
f 5/3/7 12/6/6 13/3/7
f 16/10/11 12/6/6 8/6/6
f 9/7/8 13/3/7 17/7/8
f 10/4/3 9/7/3 18/11/3
f 14/8/9 10/4/4 19/8/9
f 11/5/5 15/9/10 20/9/10
f 20/9/3 16/10/3 11/5/3
f 12/6/6 16/10/11 21/10/11
f 17/7/8 18/11/12 9/7/8
f 10/4/3 18/11/3 19/8/3
f 19/8/9 22/11/12 14/8/9
f 23/12/13 20/9/10 15/9/10
f 20/9/3 24/13/3 16/10/3
f 24/13/14 21/10/11 16/10/11
f 18/11/12 17/7/8 22/11/12
f 22/11/12 19/8/9 18/11/12
f 20/9/10 23/12/13 25/12/13
f 25/12/3 24/13/3 20/9/3
f 21/10/11 24/13/14 26/13/14
f 23/12/13 27/14/15 25/12/13
f 25/12/3 28/15/3 24/13/3
f 28/15/16 26/13/14 24/13/14
f 27/14/15 23/12/13 29/14/15
f 27/14/3 28/15/3 25/12/3
f 26/13/14 28/15/16 30/15/16
f 29/14/15 31/16/17 27/14/15
f 27/14/3 32/17/3 28/15/3
f 32/17/18 30/15/16 28/15/16
f 31/16/17 29/14/15 33/16/17
f 31/16/3 32/17/3 27/14/3
f 30/15/16 32/17/18 34/17/18
f 33/16/17 35/18/19 31/16/17
f 31/16/3 36/19/3 32/17/3
f 32/17/18 37/19/20 34/17/18
f 35/18/19 33/16/17 38/18/19
f 35/18/3 36/19/3 31/16/3
f 37/19/20 32/17/18 36/19/20
f 38/18/19 39/20/21 35/18/19
f 35/18/3 40/21/3 36/19/3
f 36/19/20 41/21/22 37/19/20
f 39/20/21 38/18/19 42/20/21
f 39/20/3 40/21/3 35/18/3
f 41/21/22 36/19/20 40/21/22
f 43/22/23 39/20/21 42/20/21
f 39/20/3 44/23/3 40/21/3
f 40/21/22 45/23/24 41/21/22
f 39/20/21 43/22/23 46/22/23
f 46/22/3 44/23/3 39/20/3
f 45/23/24 40/21/22 44/23/24
f 47/24/25 46/22/23 43/22/23
f 46/22/3 48/25/3 44/23/3
f 48/25/26 45/23/24 44/23/24
f 46/22/23 47/24/25 49/24/25
f 49/24/3 48/25/3 46/22/3
f 45/23/24 48/25/26 50/25/26
f 51/26/27 49/24/25 47/24/25
f 49/24/3 52/27/3 48/25/3
f 52/27/28 50/25/26 48/25/26
f 49/24/25 51/26/27 53/26/27
f 53/26/3 52/27/3 49/24/3
f 50/25/26 52/27/28 54/27/28
f 55/28/29 53/26/27 51/26/27
f 52/27/3 53/26/3 56/28/3
f 56/28/29 54/27/28 52/27/28
f 53/26/27 55/28/29 56/28/29
f 54/27/28 56/28/29 55/28/29
usemtl material_1_0
f 3/29/26 2/30/24 1/31/26
f 4/32/24 1/31/26 2/30/24
f 3/33/30 5/34/30 2/35/30
f 1/36/26 6/37/28 3/38/26
f 4/39/24 2/40/24 7/41/22
f 5/34/30 8/42/30 2/35/30
f 9/43/30 5/34/30 3/33/30
f 10/44/28 3/38/26 6/37/28
f 11/45/22 7/41/22 2/40/24
f 2/35/30 8/42/30 11/46/30
f 8/47/21 5/48/23 12/49/21
f 5/50/23 9/51/25 13/52/23
f 10/53/30 9/43/30 3/33/30
f 6/54/28 14/55/29 10/56/28
f 7/57/22 11/58/22 15/59/20
f 8/42/30 16/60/30 11/46/30
f 13/61/23 12/49/21 5/48/23
f 8/62/21 12/63/21 16/64/19
f 17/65/25 13/52/23 9/51/25
f 18/66/30 9/43/30 10/53/30
f 19/67/29 10/56/28 14/55/29
f 20/68/20 15/59/20 11/58/22
f 11/46/30 16/60/30 20/69/30
f 21/70/19 16/64/19 12/63/21
f 9/71/25 18/72/27 17/73/25
f 19/74/30 18/66/30 10/53/30
f 14/75/29 22/76/27 19/77/29
f 15/78/20 20/79/20 23/80/18
f 16/60/30 24/81/30 20/69/30
f 16/82/19 21/83/19 24/84/17
f 22/85/27 17/73/25 18/72/27
f 18/86/27 19/77/29 22/76/27
f 25/87/18 23/80/18 20/79/20
f 20/69/30 24/81/30 25/88/30
f 26/89/17 24/84/17 21/83/19
f 25/90/18 27/91/16 23/92/18
f 24/81/30 28/93/30 25/88/30
f 24/94/17 26/95/17 28/96/15
f 29/97/16 23/92/18 27/91/16
f 25/88/30 28/93/30 27/98/30
f 30/99/15 28/96/15 26/95/17
f 27/100/16 31/101/14 29/102/16
f 28/93/30 32/103/30 27/98/30
f 28/104/15 30/105/15 32/106/13
f 33/107/14 29/102/16 31/101/14
f 27/98/30 32/103/30 31/108/30
f 34/109/13 32/106/13 30/105/15
f 31/110/14 35/111/11 33/112/14
f 32/103/30 36/113/30 31/108/30
f 34/114/13 37/115/10 32/116/13
f 38/117/11 33/112/14 35/111/11
f 31/108/30 36/113/30 35/118/30
f 36/119/10 32/116/13 37/115/10
f 35/120/11 39/121/6 38/122/11
f 36/113/30 40/123/30 35/118/30
f 37/124/10 41/125/5 36/126/10
f 42/127/6 38/122/11 39/121/6
f 35/118/30 40/123/30 39/128/30
f 40/129/5 36/126/10 41/125/5
f 42/130/6 39/131/6 43/132/7
f 40/123/30 44/133/30 39/128/30
f 41/134/5 45/135/2 40/136/5
f 46/137/7 43/132/7 39/131/6
f 39/128/30 44/133/30 46/138/30
f 44/139/2 40/136/5 45/135/2
f 43/140/7 46/141/7 47/142/8
f 44/133/30 48/143/30 46/138/30
f 44/144/2 45/145/2 48/146/1
f 49/147/8 47/142/8 46/141/7
f 46/138/30 48/143/30 49/148/30
f 50/149/1 48/146/1 45/145/2
f 47/150/8 49/151/8 51/152/12
f 48/143/30 52/153/30 49/148/30
f 48/154/1 50/155/1 52/156/4
f 53/157/12 51/152/12 49/151/8
f 49/148/30 52/153/30 53/158/30
f 54/159/4 52/156/4 50/155/1
f 51/160/12 53/161/12 55/162/9
f 56/163/30 53/158/30 52/153/30
f 52/164/4 54/165/4 56/166/9
f 56/167/9 55/162/9 53/161/12
f 55/168/9 56/166/9 54/165/4
