# SSTK version 0.8.0
# 30
mtllib original-30.mtl
o mesh29/mesh29-geometry#mesh29-geometry
v 0.837349 0.029398 -0.069102
v 0.836041 0.042036 -0.067522
v 0.836041 0.029379 -0.068931
v 0.837349 0.042055 -0.067693
v 0.684408 0.042036 -0.067522
v 0.838568 0.029454 -0.069604
v 0.836041 0.053222 -0.167990
v 0.684408 0.029379 -0.068931
v 0.684408 0.053222 -0.167990
v 0.838568 0.042111 -0.068195
v 0.837349 0.053203 -0.167818
v 0.683100 0.029398 -0.069102
v 0.683100 0.053203 -0.167818
v 0.839615 0.029543 -0.070403
v 0.836041 0.040565 -0.169399
v 0.683100 0.042055 -0.067693
v 0.684408 0.040565 -0.169399
v 0.839615 0.042200 -0.068993
v 0.838568 0.053147 -0.167317
v 0.837349 0.040546 -0.169228
v 0.681881 0.029454 -0.069604
v 0.681881 0.053147 -0.167317
v 0.683100 0.040546 -0.169228
v 0.840418 0.042316 -0.070034
v 0.681881 0.042111 -0.068195
v 0.840418 0.029659 -0.071443
v 0.839615 0.053058 -0.166518
v 0.838568 0.040490 -0.168726
v 0.680834 0.029543 -0.070403
v 0.680834 0.053058 -0.166518
v 0.681881 0.040490 -0.168726
v 0.840923 0.042451 -0.071245
v 0.840418 0.052942 -0.165478
v 0.680834 0.042200 -0.068993
v 0.840923 0.029794 -0.072655
v 0.840418 0.040285 -0.166887
v 0.839615 0.040401 -0.167927
v 0.680031 0.042316 -0.070034
v 0.680031 0.052942 -0.165478
v 0.680834 0.040401 -0.167927
v 0.841095 0.042595 -0.072545
v 0.840923 0.052807 -0.164266
v 0.840923 0.040150 -0.165675
v 0.680031 0.029659 -0.071443
v 0.680031 0.040285 -0.166887
v 0.841095 0.029938 -0.073955
v 0.679526 0.042451 -0.071245
v 0.679526 0.052807 -0.164266
v 0.679526 0.040150 -0.165675
v 0.841095 0.052663 -0.162966
v 0.841095 0.040005 -0.164375
v 0.679526 0.029794 -0.072655
v 0.679354 0.042595 -0.072545
v 0.679354 0.052663 -0.162966
v 0.679354 0.040005 -0.164375
v 0.679354 0.029938 -0.073955
vt 1.98377 0.624925
vt 1.983035 0.624716
vt 1.897807 0.624716
vt 1.984455 0.625537
vt 1.983035 0.747415
vt 1.897807 0.747415
vt 1.98377 0.747206
vt 1.897072 0.624925
vt 1.897072 0.747206
vt 1.985044 0.626512
vt 1.984455 0.746593
vt 1.896387 0.625537
vt 1.896387 0.746593
vt 1.985495 0.627783
vt 1.985044 0.745618
vt 1.895799 0.626512
vt 1.895799 0.745618
vt 1.985779 0.629263
vt 1.985495 0.744347
vt 1.895347 0.627783
vt 1.895347 0.744347
vt 1.985876 0.630851
vt 1.985779 0.742868
vt 1.895063 0.629263
vt 1.895063 0.742868
vt 1.985876 0.74128
vt 1.894967 0.630851
vt 1.894967 0.74128
vt 0.289672 0.463525
vt 0.289449 0.573035
vt 0.291264 0.46369
vt 0.29104 0.573199
vt 0.227566 0.348032
vt 0.227566 0.238511
vt 0.044639 0.348032
vt 0.302203 0.902168
vt 0.301549 1.01159
vt 0.303793 0.902651
vt 0.229144 4.418112
vt 0.227566 4.416631
vt 0.227566 5.285953
vt 0.044639 0.238511
vt 0.044639 4.416631
vt 0.044639 5.285953
vt 0.303139 1.012073
vt 0.229144 5.284472
vt -0.058468 0.049611
vt -0.06006 0.049776
vt -0.058245 0.159121
vt 0.043061 5.284472
vt 0.16472 1.228016
vt 0.163681 1.337286
vt 0.166308 1.228783
vt 0.230614 4.422454
vt -3.991947 0.348032
vt -3.80902 0.348032
vt -3.991947 0.238511
vt -3.877607 0.141357
vt -3.877384 0.031848
vt -3.879199 0.141193
vt -0.059837 0.159286
vt 0.043061 4.418112
vt -3.882358 0.555271
vt -3.880767 0.555106
vt -3.882582 0.445762
vt 0.165269 1.338054
vt 0.230614 5.28013
vt -3.80902 0.238511
vt -3.878975 0.031683
vt -0.346274 -0.22776
vt -0.347864 -0.227277
vt -0.34562 -0.118338
vt 0.04159 5.28013
vt -3.88099 0.445597
vt -0.113465 1.463064
vt -0.111879 1.464062
vt -0.112113 1.353967
vt 0.231877 4.429362
vt -3.549685 -0.158102
vt -3.54903 -0.267524
vt -3.551275 -0.158585
vt -0.34721 -0.117855
vt 0.04159 4.422454
vt -3.935006 0.971826
vt -3.933416 0.971343
vt -3.93566 0.862405
vt -0.110527 1.354966
vt 0.232846 4.438364
vt 0.231877 5.273222
vt -3.550621 -0.268007
vt -0.738819 -0.313359
vt -0.740407 -0.312591
vt -0.73778 -0.204088
vt 0.040327 5.273222
vt -3.93407 0.861921
vt -0.509831 1.35614
vt -0.508248 1.357301
vt -0.508259 1.247194
vt 0.232846 5.26422
vt -3.10797 -0.243402
vt -3.106932 -0.352672
vt -3.109559 -0.244169
vt -0.739368 -0.203321
vt 0.040327 4.429362
vt -3.846692 1.297973
vt -3.845104 1.297206
vt -3.847731 1.188703
vt -0.506675 1.248355
vt 0.233455 4.448847
vt -2.585441 -0.093415
vt -2.583855 -0.092416
vt -2.584089 -0.202511
vt -3.10852 -0.353439
vt -1.206827 -0.075856
vt -1.208178 -0.184952
vt -1.208412 -0.074857
vt 0.039358 5.26422
vt -3.846143 1.187935
vt -0.998044 1.04585
vt -0.996461 1.047095
vt -0.996358 0.936991
vt 0.233455 5.253737
vt -2.582504 -0.201512
vt -2.012069 0.144537
vt -2.013652 0.143376
vt -2.013641 0.253483
vt -1.209764 -0.183953
vt 0.039358 4.438364
vt -3.623029 1.445505
vt -3.624381 1.336408
vt -3.624615 1.446503
vt -3.625967 1.337407
vt -0.994776 0.938235
vt 0.233663 4.460097
vt -2.015224 0.252322
vt -1.720244 0.231122
vt -1.721817 0.122176
vt -1.721828 0.232283
vt 0.038749 5.253737
vt -3.286618 1.269554
vt -3.285046 1.3785
vt -3.285034 1.268393
vt -1.265759 0.839417
vt -1.156676 0.92599
vt -1.264059 0.730568
vt 0.233663 5.242487
vt -1.434047 0.592588
vt -1.43563 0.591343
vt -1.435733 0.701447
vt -1.7234 0.123337
vt 0.038749 4.448847
vt -3.283462 1.377339
vt -1.154976 0.817142
vt -1.437315 0.700202
vt -2.243429 0.634392
vt -2.245115 0.525532
vt -2.245011 0.635637
vt 0.038541 5.242487
vt -2.853242 1.004046
vt -2.851556 1.112906
vt -2.851659 1.002801
vt -2.246697 0.526777
vt 0.038541 4.460097
vt -2.849974 1.111661
vt -2.498622 0.839417
vt -2.500322 0.730568
vt -2.607704 0.92599
vt -2.609404 0.817142
vn 0.2588190625409164 -0.1068820258269226 0.9599942319725542
vn 0.06540301236686057 -0.11041602087823633 0.9917311875234928
vn -0.06540301236686057 -0.11041602087823633 0.9917311875234928
vn 0.5000001136417888 -0.09582802178013086 0.8607071956245661
vn 0 0.9938591002356646 0.11065301115991022
vn -0.2588190625409164 -0.1068820258269226 0.9599942319725542
vn 0.7071066741218326 -0.07824296394083871 0.7027646761228917
vn 0.06540301236686057 0.11041602087823633 -0.9917311875234928
vn -0.06540301236686057 0.11041602087823633 -0.9917311875234928
vn 0.2588190625409164 0.1068820258269226 -0.9599942319725542
vn -0.2588190625409164 0.1068820258269226 -0.9599942319725542
vn -0.5000001136417888 -0.09582802178013086 0.8607071956245661
vn 0.8660251334540503 -0.05532600852571102 0.4969300765766822
vn 0.5000001136417888 0.09582802178013086 -0.8607071956245661
vn -0.5000001136417888 0.09582802178013086 -0.8607071956245661
vn -0.7071066741218326 -0.07824296394083871 0.7027646761228917
vn 0.9659257572160402 -0.028638992801633078 0.2572299353456497
vn 0.7071066741218326 0.07824296394083871 -0.7027646761228917
vn -0.7071066741218326 0.07824296394083871 -0.7027646761228917
vn 0.8660251334540503 0.05532600852571102 -0.4969300765766822
vn -0.8660251334540503 -0.05532600852571102 0.4969300765766822
vn 0.9978589560687615 -0.0072369996813874925 0.06500099713829867
vn 0.9659257572160402 0.028638992801633078 -0.2572299353456497
vn -0.8660251334540503 0.05532600852571102 -0.4969300765766822
vn -0.9659257572160402 -0.028638992801633078 0.2572299353456497
vn -0.9659257572160402 0.028638992801633078 -0.2572299353456497
vn 0.9978589560687615 0.0072369996813874925 -0.06500099713829867
vn -0.9978589560687615 -0.0072369996813874925 0.06500099713829867
vn -0.9978589560687615 0.0072369996813874925 -0.06500099713829867
vn 0 -0.9938591002356646 -0.11065301115991022
usemtl material_0_0
f 1/1/1 2/2/2 3/2/2
f 2/2/2 1/1/1 4/1/1
f 5/3/3 3/2/2 2/2/2
f 6/4/4 4/1/1 1/1/1
f 7/5/5 2/2/5 4/1/5
f 3/2/2 5/3/3 8/3/3
f 9/6/5 5/3/5 2/2/5
f 4/1/1 6/4/4 10/4/4
f 9/6/5 2/2/5 7/5/5
f 7/5/5 4/1/5 11/7/5
f 5/3/3 12/8/6 8/3/3
f 13/9/5 5/3/5 9/6/5
f 14/10/7 10/4/4 6/4/4
f 11/7/5 4/1/5 10/4/5
f 15/5/8 9/6/9 7/5/8
f 11/7/10 15/5/8 7/5/8
f 12/8/6 5/3/3 16/8/6
f 13/9/5 16/8/5 5/3/5
f 17/6/9 13/9/11 9/6/9
f 10/4/4 14/10/7 18/10/7
f 11/7/5 10/4/5 19/11/5
f 9/6/9 15/5/8 17/6/9
f 15/5/8 11/7/10 20/7/10
f 16/8/6 21/12/12 12/8/6
f 22/13/5 16/8/5 13/9/5
f 13/9/11 17/6/9 23/9/11
f 14/10/7 24/14/13 18/10/7
f 19/11/5 10/4/5 18/10/5
f 19/11/14 20/7/10 11/7/10
f 21/12/12 16/8/6 25/12/12
f 22/13/5 25/12/5 16/8/5
f 23/9/11 22/13/15 13/9/11
f 24/14/13 14/10/7 26/14/13
f 27/15/5 18/10/5 24/14/5
f 19/11/5 18/10/5 27/15/5
f 20/7/10 19/11/14 28/11/14
f 25/12/12 29/16/16 21/12/12
f 30/17/5 25/12/5 22/13/5
f 22/13/15 23/9/11 31/13/15
f 26/14/13 32/18/17 24/14/13
f 27/15/5 24/14/5 33/19/5
f 27/15/18 28/11/14 19/11/14
f 29/16/16 25/12/12 34/16/16
f 30/17/5 34/16/5 25/12/5
f 31/13/15 30/17/19 22/13/15
f 32/18/17 26/14/13 35/18/17
f 33/19/5 24/14/5 32/18/5
f 36/19/20 27/15/18 33/19/20
f 28/11/14 27/15/18 37/15/18
f 38/20/21 29/16/16 34/16/16
f 39/21/5 34/16/5 30/17/5
f 30/17/19 31/13/15 40/17/19
f 35/18/17 41/22/22 32/18/17
f 33/19/5 32/18/5 42/23/5
f 27/15/18 36/19/20 37/15/18
f 33/19/20 43/23/23 36/19/20
f 29/16/16 38/20/21 44/20/21
f 39/21/5 38/20/5 34/16/5
f 30/17/19 45/21/24 39/21/24
f 45/21/24 30/17/19 40/17/19
f 41/22/22 35/18/17 46/22/22
f 42/23/5 32/18/5 41/22/5
f 43/23/23 33/19/20 42/23/23
f 47/24/25 44/20/21 38/20/21
f 48/25/5 38/20/5 39/21/5
f 49/25/26 39/21/24 45/21/24
f 46/22/22 50/26/27 41/22/22
f 42/23/5 41/22/5 50/26/5
f 42/23/23 51/26/27 43/23/23
f 44/20/21 47/24/25 52/24/25
f 48/25/5 47/24/5 38/20/5
f 39/21/24 49/25/26 48/25/26
f 50/26/27 46/22/22 51/26/27
f 51/26/27 42/23/23 50/26/27
f 53/27/28 52/24/25 47/24/25
f 54/28/5 47/24/5 48/25/5
f 55/28/29 48/25/26 49/25/26
f 52/24/25 53/27/28 56/27/28
f 47/24/5 54/28/5 53/27/5
f 48/25/26 55/28/29 54/28/29
f 54/28/29 56/27/28 53/27/28
f 56/27/28 54/28/29 55/28/29
usemtl material_1_0
f 3/29/9 2/30/9 1/31/11
f 4/32/11 1/31/11 2/30/9
f 2/33/9 3/34/9 5/35/8
f 1/36/11 4/37/11 6/38/15
f 4/39/30 2/40/30 7/41/30
f 8/42/8 5/35/8 3/34/9
f 2/40/30 5/43/30 9/44/30
f 10/45/15 6/38/15 4/37/11
f 7/41/30 2/40/30 9/44/30
f 11/46/30 4/39/30 7/41/30
f 8/47/8 12/48/10 5/49/8
f 9/44/30 5/43/30 13/50/30
f 6/51/15 10/52/15 14/53/19
f 10/54/30 4/39/30 11/46/30
f 7/55/3 9/56/2 15/57/3
f 7/58/3 15/59/3 11/60/6
f 16/61/10 5/49/8 12/48/10
f 5/43/30 16/62/30 13/50/30
f 9/63/2 13/64/1 17/65/2
f 18/66/19 14/53/19 10/52/15
f 19/67/30 10/54/30 11/46/30
f 17/68/2 15/57/3 9/56/2
f 20/69/6 11/60/6 15/59/3
f 12/70/10 21/71/14 16/72/10
f 13/50/30 16/62/30 22/73/30
f 23/74/1 17/65/2 13/64/1
f 18/75/19 24/76/24 14/77/19
f 18/78/30 10/54/30 19/67/30
f 11/79/6 20/80/6 19/81/12
f 25/82/14 16/72/10 21/71/14
f 16/62/30 25/83/30 22/73/30
f 13/84/1 22/85/4 23/86/1
f 26/87/24 14/77/19 24/76/24
f 24/88/30 18/78/30 27/89/30
f 27/89/30 18/78/30 19/67/30
f 28/90/12 19/81/12 20/80/6
f 21/91/14 29/92/18 25/93/14
f 22/73/30 25/83/30 30/94/30
f 31/95/4 23/86/1 22/85/4
f 24/96/24 32/97/26 26/98/24
f 33/99/30 24/88/30 27/89/30
f 19/100/12 28/101/12 27/102/16
f 34/103/18 25/93/14 29/92/18
f 25/83/30 34/104/30 30/94/30
f 22/105/4 30/106/7 31/107/4
f 35/108/26 26/98/24 32/97/26
f 32/109/30 24/88/30 33/99/30
f 33/110/21 27/111/16 36/112/21
f 37/113/16 27/102/16 28/101/12
f 34/114/18 29/115/18 38/116/20
f 30/94/30 34/104/30 39/117/30
f 40/118/7 31/107/4 30/106/7
f 32/119/26 41/120/29 35/121/26
f 42/122/30 32/109/30 33/99/30
f 37/123/16 36/112/21 27/111/16
f 36/124/21 43/125/25 33/126/21
f 44/127/20 38/116/20 29/115/18
f 34/104/30 38/128/30 39/117/30
f 39/129/13 45/130/13 30/131/7
f 40/132/7 30/131/7 45/130/13
f 46/133/29 35/121/26 41/120/29
f 41/134/30 32/109/30 42/122/30
f 42/135/25 33/126/21 43/125/25
f 38/136/20 44/137/20 47/138/23
f 39/117/30 38/128/30 48/139/30
f 45/140/13 39/141/13 49/142/17
f 41/143/29 50/144/28 46/145/29
f 50/146/30 41/134/30 42/122/30
f 43/147/25 51/148/28 42/149/25
f 52/150/23 47/138/23 44/137/20
f 38/128/30 47/151/30 48/139/30
f 48/152/17 49/142/17 39/141/13
f 51/153/28 46/145/29 50/144/28
f 50/154/28 42/149/25 51/148/28
f 47/155/23 52/156/23 53/157/27
f 48/139/30 47/151/30 54/158/30
f 49/159/17 48/160/17 55/161/22
f 56/162/27 53/157/27 52/156/23
f 53/163/30 54/158/30 47/151/30
f 54/164/22 55/161/22 48/160/17
f 53/165/27 56/166/27 54/167/22
f 55/168/22 54/167/22 56/166/27
