# SSTK version 0.8.0
# 15
mtllib original-15.mtl
o mesh14/mesh14-geometry#mesh14-geometry
v -0.159678 0.042036 -0.067522
v -0.160986 0.029398 -0.069102
v -0.159678 0.029379 -0.068931
v -0.160986 0.042055 -0.067693
v -0.068699 0.029379 -0.068931
v -0.160986 0.053203 -0.167818
v -0.162205 0.029454 -0.069604
v -0.068699 0.042036 -0.067522
v -0.162205 0.053147 -0.167317
v -0.159678 0.053222 -0.167990
v -0.162205 0.042111 -0.068195
v -0.067391 0.029398 -0.069102
v -0.160986 0.040546 -0.169228
v -0.159678 0.040565 -0.169399
v -0.163252 0.029543 -0.070403
v -0.067391 0.042055 -0.067693
v -0.068699 0.053222 -0.167990
v -0.163252 0.053058 -0.166518
v -0.162205 0.040490 -0.168726
v -0.068699 0.040565 -0.169399
v -0.163252 0.042200 -0.068993
v -0.066172 0.029454 -0.069604
v -0.164055 0.042316 -0.070034
v -0.066172 0.042111 -0.068195
v -0.067391 0.053203 -0.167818
v -0.164055 0.052942 -0.165478
v -0.163252 0.040401 -0.167927
v -0.164055 0.029659 -0.071443
v -0.065125 0.029543 -0.070403
v -0.067391 0.040546 -0.169228
v -0.164055 0.040285 -0.166887
v -0.164560 0.042451 -0.071245
v -0.164560 0.052807 -0.164266
v -0.065125 0.042200 -0.068993
v -0.066172 0.053147 -0.167317
v -0.164560 0.040150 -0.165675
v -0.164560 0.029794 -0.072655
v -0.064322 0.042316 -0.070034
v -0.066172 0.040490 -0.168726
v -0.164733 0.042595 -0.072545
v -0.164733 0.052663 -0.162966
v -0.164733 0.040005 -0.164375
v -0.064322 0.029659 -0.071443
v -0.065125 0.053058 -0.166518
v -0.164733 0.029938 -0.073955
v -0.063817 0.042451 -0.071245
v -0.064322 0.052942 -0.165478
v -0.065125 0.040401 -0.167927
v -0.063817 0.029794 -0.072655
v -0.064322 0.040285 -0.166887
v -0.063644 0.042595 -0.072545
v -0.063817 0.052807 -0.164266
v -0.063817 0.040150 -0.165675
v -0.063644 0.029938 -0.073955
v -0.063644 0.052663 -0.162966
v -0.063644 0.040005 -0.164375
vt 1.423376 0.624716
vt 1.42264 0.624925
vt 1.474512 0.624716
vt 1.42264 0.747206
vt 1.421955 0.625537
vt 1.421955 0.746593
vt 1.423376 0.747415
vt 1.475247 0.624925
vt 1.421367 0.626512
vt 1.474512 0.747415
vt 1.421367 0.745618
vt 1.475932 0.625537
vt 1.420915 0.627783
vt 1.475247 0.747206
vt 1.420915 0.744347
vt 1.476521 0.626512
vt 1.420632 0.629263
vt 1.420632 0.742868
vt 1.475932 0.746593
vt 1.476972 0.627783
vt 1.420535 0.630851
vt 1.420535 0.74128
vt 1.476521 0.745618
vt 1.477256 0.629263
vt 1.476972 0.744347
vt 1.477353 0.630851
vt 1.477256 0.742868
vt 1.477353 0.74128
vt -0.049703 0.153559
vt -0.051295 0.153724
vt -0.04948 0.263069
vt -0.051071 0.263234
vt 0.044639 0.238511
vt 0.044639 0.348032
vt 0.154395 0.238511
vt 0.044639 4.416631
vt 0.043061 4.418112
vt 0.043061 5.284472
vt -0.268377 0.056004
vt -0.269968 0.056487
vt -0.267723 0.165426
vt 0.154395 0.348032
vt 0.04159 5.28013
vt 0.044639 5.285953
vt -0.269314 0.165909
vt 0.2259 0.352063
vt 0.225677 0.461572
vt 0.227492 0.352228
vt 0.154395 4.416631
vt 0.04159 4.422454
vt -1.988512 0.688062
vt -1.986922 0.687579
vt -1.989166 0.57864
vt -1.866734 0.451323
vt -1.865142 0.451158
vt -1.866957 0.341814
vt -0.527814 0.073734
vt -0.529402 0.074501
vt -0.526775 0.183004
vt 0.227269 0.461737
vt 0.154395 5.285953
vt 0.040327 5.273222
vt -1.987576 0.578157
vt -1.865365 0.341649
vt -1.784629 0.238511
vt -1.894386 0.238511
vt -1.784629 0.348032
vt -0.528363 0.183771
vt 0.31256 0.597891
vt 0.311906 0.707313
vt 0.31415 0.598374
vt 0.155973 4.418112
vt -1.894386 0.348032
vt 0.040327 4.429362
vt -2.033307 0.91088
vt -2.031719 0.910113
vt -2.034346 0.80161
vt -0.808427 0.31062
vt -0.809779 0.201524
vt -0.810013 0.311619
vt 0.313496 0.707796
vt 0.155973 5.284472
vt -1.789445 0.25282
vt -1.789222 0.143311
vt -1.791037 0.252655
vt 0.039358 5.26422
vt -2.032757 0.800843
vt -0.811365 0.202522
vt 0.039358 4.438364
vt 0.317807 0.812941
vt 0.316768 0.922211
vt 0.319395 0.813708
vt 0.157444 4.422454
vt -1.790813 0.143146
vt -1.997039 1.059029
vt -1.998391 0.949933
vt -1.998624 1.060027
vt -1.999976 0.950931
vt -1.093367 0.513653
vt -1.094939 0.404707
vt -1.09495 0.514814
vt 0.038749 5.253737
vt 0.318356 0.922978
vt 0.157444 5.28013
vt -1.535651 0.146175
vt -1.534997 0.036754
vt -1.537241 0.145692
vt -1.889105 0.987024
vt -1.887533 1.09597
vt -1.887522 0.985862
vt -1.096522 0.405868
vt 0.038749 4.448847
vt -1.88595 1.094809
vt 0.240564 1.04865
vt 0.24215 1.049648
vt 0.241916 0.939553
vt 0.158707 4.429362
vt -1.536587 0.036271
vt -1.362554 0.737723
vt -1.36424 0.628864
vt -1.364136 0.738968
vt 0.038541 5.242487
vt -1.709726 0.900715
vt -1.70804 1.009574
vt -1.708144 0.89947
vt 0.243502 0.940552
vt 0.159676 4.438364
vt 0.158707 5.273222
vt -1.236668 0.171673
vt -1.235629 0.062403
vt -1.238256 0.170906
vt -1.365822 0.630108
vt 0.038541 4.460097
vt -1.706458 1.008329
vt 0.089193 1.053185
vt 0.090776 1.054346
vt 0.090765 0.944239
vt 0.159676 5.26422
vt -1.237217 0.061636
vt -1.486427 0.839417
vt -1.488127 0.730568
vt -1.595509 0.92599
vt -1.597209 0.817142
vt 0.092348 0.9454
vt 0.160285 4.448847
vt -0.91508 0.320999
vt -0.913494 0.321998
vt -0.913728 0.211903
vt -0.912142 0.212902
vt -0.126662 0.935049
vt -0.12508 0.936294
vt -0.124976 0.826189
vt 0.160285 5.253737
vt -0.586702 0.447492
vt -0.588285 0.446331
vt -0.588274 0.556438
vt -0.123394 0.827434
vt 0.160493 4.460097
vt -0.589857 0.555277
vt -0.253563 0.839417
vt -0.144481 0.92599
vt -0.251863 0.730568
vt 0.160493 5.242487
vt -0.281039 0.703389
vt -0.282621 0.702144
vt -0.282725 0.812249
vt -0.142781 0.817142
vt -0.284307 0.811004
vn -0.06540301236686057 -0.11041602087823633 0.9917311875234928
vn -0.2588190625409164 -0.1068820258269226 0.9599942319725542
vn 0.06540301236686057 -0.11041602087823633 0.9917311875234928
vn 0 0.9938591002356646 0.11065301115991022
vn -0.5000001136417888 -0.09582802178013086 0.8607071956245661
vn 0.2588190625409164 -0.1068820258269226 0.9599942319725542
vn -0.2588190625409164 0.1068820258269226 -0.9599942319725542
vn -0.5000001136417888 0.09582802178013086 -0.8607071956245661
vn -0.06540301236686057 0.11041602087823633 -0.9917311875234928
vn -0.7071066741218326 -0.07824296394083871 0.7027646761228917
vn 0.06540301236686057 0.11041602087823633 -0.9917311875234928
vn 0.5000001136417888 -0.09582802178013086 0.8607071956245661
vn -0.7071066741218326 0.07824296394083871 -0.7027646761228917
vn -0.8660251334540503 -0.05532600852571102 0.4969300765766822
vn 0.2588190625409164 0.1068820258269226 -0.9599942319725542
vn 0.7071066741218326 -0.07824296394083871 0.7027646761228917
vn -0.8660251334540503 0.05532600852571102 -0.4969300765766822
vn -0.9659257572160402 -0.028638992801633078 0.2572299353456497
vn 0.5000001136417888 0.09582802178013086 -0.8607071956245661
vn -0.9659257572160402 0.028638992801633078 -0.2572299353456497
vn 0.8660251334540503 -0.05532600852571102 0.4969300765766822
vn -0.9978589560687615 -0.0072369996813874925 0.06500099713829867
vn -0.9978589560687615 0.0072369996813874925 -0.06500099713829867
vn 0.7071066741218326 0.07824296394083871 -0.7027646761228917
vn 0.9659257572160402 -0.028638992801633078 0.2572299353456497
vn 0.8660251334540503 0.05532600852571102 -0.4969300765766822
vn 0.9978589560687615 -0.0072369996813874925 0.06500099713829867
vn 0.9659257572160402 0.028638992801633078 -0.2572299353456497
vn 0.9978589560687615 0.0072369996813874925 -0.06500099713829867
vn 0 -0.9938591002356646 -0.11065301115991022
usemtl material_0_0
f 1/1/1 2/2/2 3/1/1
f 2/2/2 1/1/1 4/2/2
f 5/3/3 1/1/1 3/1/1
f 6/4/4 4/2/4 1/1/4
f 4/2/2 7/5/5 2/2/2
f 1/1/1 5/3/3 8/3/3
f 9/6/4 4/2/4 6/4/4
f 6/4/4 1/1/4 10/7/4
f 7/5/5 4/2/2 11/5/5
f 12/8/6 8/3/3 5/3/3
f 10/7/4 1/1/4 8/3/4
f 9/6/4 11/5/4 4/2/4
f 13/4/7 9/6/8 6/4/7
f 14/7/9 6/4/7 10/7/9
f 11/5/5 15/9/10 7/5/5
f 8/3/3 12/8/6 16/8/6
f 10/7/4 8/3/4 17/10/4
f 18/11/4 11/5/4 9/6/4
f 9/6/8 13/4/7 19/6/8
f 6/4/7 14/7/9 13/4/7
f 10/7/9 20/10/11 14/7/9
f 15/9/10 11/5/5 21/9/10
f 22/12/12 16/8/6 12/8/6
f 17/10/4 8/3/4 16/8/4
f 20/10/11 10/7/9 17/10/11
f 18/11/4 21/9/4 11/5/4
f 19/6/8 18/11/13 9/6/8
f 23/13/14 15/9/10 21/9/10
f 16/8/6 22/12/12 24/12/12
f 17/10/4 16/8/4 25/14/4
f 25/14/15 20/10/11 17/10/11
f 26/15/4 21/9/4 18/11/4
f 18/11/13 19/6/8 27/11/13
f 15/9/10 23/13/14 28/13/14
f 26/15/4 23/13/4 21/9/4
f 29/16/16 24/12/12 22/12/12
f 25/14/4 16/8/4 24/12/4
f 20/10/11 25/14/15 30/14/15
f 18/11/13 31/15/17 26/15/17
f 31/15/17 18/11/13 27/11/13
f 32/17/18 28/13/14 23/13/14
f 33/18/4 23/13/4 26/15/4
f 24/12/12 29/16/16 34/16/16
f 25/14/4 24/12/4 35/19/4
f 35/19/19 30/14/15 25/14/15
f 36/18/20 26/15/17 31/15/17
f 28/13/14 32/17/18 37/17/18
f 33/18/4 32/17/4 23/13/4
f 26/15/17 36/18/20 33/18/20
f 29/16/16 38/20/21 34/16/16
f 35/19/4 24/12/4 34/16/4
f 30/14/15 35/19/19 39/19/19
f 40/21/22 37/17/18 32/17/18
f 41/22/4 32/17/4 33/18/4
f 42/22/23 33/18/20 36/18/20
f 38/20/21 29/16/16 43/20/21
f 44/23/4 34/16/4 38/20/4
f 35/19/4 34/16/4 44/23/4
f 44/23/24 39/19/19 35/19/19
f 37/17/18 40/21/22 45/21/22
f 32/17/4 41/22/4 40/21/4
f 33/18/20 42/22/23 41/22/23
f 43/20/21 46/24/25 38/20/21
f 44/23/4 38/20/4 47/25/4
f 39/19/19 44/23/24 48/23/24
f 41/22/23 45/21/22 40/21/22
f 45/21/22 41/22/23 42/22/23
f 46/24/25 43/20/21 49/24/25
f 47/25/4 38/20/4 46/24/4
f 50/25/26 44/23/24 47/25/26
f 44/23/24 50/25/26 48/23/24
f 49/24/25 51/26/27 46/24/25
f 47/25/4 46/24/4 52/27/4
f 47/25/26 53/27/28 50/25/26
f 51/26/27 49/24/25 54/26/27
f 52/27/4 46/24/4 51/26/4
f 53/27/28 47/25/26 52/27/28
f 54/26/27 55/28/29 51/26/27
f 52/27/4 51/26/4 55/28/4
f 52/27/28 56/28/29 53/27/28
f 55/28/29 54/26/27 56/28/29
f 56/28/29 52/27/28 55/28/29
usemtl material_1_0
f 3/29/11 2/30/15 1/31/11
f 4/32/15 1/31/11 2/30/15
f 3/33/11 1/34/11 5/35/9
f 1/36/30 4/37/30 6/38/30
f 2/39/15 7/40/19 4/41/15
f 8/42/9 5/35/9 1/34/11
f 6/38/30 4/37/30 9/43/30
f 10/44/30 1/36/30 6/38/30
f 11/45/19 4/41/15 7/40/19
f 5/46/9 8/47/9 12/48/7
f 8/49/30 1/36/30 10/44/30
f 4/37/30 11/50/30 9/43/30
f 6/51/6 9/52/12 13/53/6
f 10/54/3 6/55/6 14/56/3
f 7/57/19 15/58/24 11/59/19
f 16/60/7 12/48/7 8/47/9
f 17/61/30 8/49/30 10/44/30
f 9/43/30 11/50/30 18/62/30
f 19/63/12 13/53/6 9/52/12
f 13/64/6 14/56/3 6/55/6
f 14/65/3 20/66/1 10/67/3
f 21/68/24 11/59/19 15/58/24
f 12/69/7 16/70/7 22/71/8
f 16/72/30 8/49/30 17/61/30
f 17/73/1 10/67/3 20/66/1
f 11/50/30 21/74/30 18/62/30
f 9/75/12 18/76/16 19/77/12
f 21/78/24 15/79/24 23/80/26
f 24/81/8 22/71/8 16/70/7
f 25/82/30 16/72/30 17/61/30
f 17/83/1 20/84/1 25/85/2
f 18/62/30 21/74/30 26/86/30
f 27/87/16 19/77/12 18/76/16
f 28/88/26 23/80/26 15/79/24
f 21/74/30 23/89/30 26/86/30
f 22/90/8 24/91/8 29/92/13
f 24/93/30 16/72/30 25/82/30
f 30/94/2 25/85/2 20/84/1
f 26/95/21 31/96/21 18/97/16
f 27/98/16 18/97/16 31/96/21
f 23/99/26 28/100/26 32/101/28
f 26/86/30 23/89/30 33/102/30
f 34/103/13 29/92/13 24/91/8
f 35/104/30 24/93/30 25/82/30
f 25/105/2 30/106/2 35/107/5
f 31/108/21 26/109/21 36/110/25
f 37/111/28 32/101/28 28/100/26
f 23/89/30 32/112/30 33/102/30
f 33/113/25 36/110/25 26/109/21
f 34/114/13 38/115/17 29/116/13
f 34/117/30 24/93/30 35/104/30
f 39/118/5 35/107/5 30/106/2
f 32/119/28 37/120/28 40/121/29
f 33/102/30 32/112/30 41/122/30
f 36/123/25 33/124/25 42/125/27
f 43/126/17 29/116/13 38/115/17
f 38/127/30 34/117/30 44/128/30
f 44/128/30 34/117/30 35/104/30
f 35/129/5 39/130/5 44/131/10
f 45/132/29 40/121/29 37/120/28
f 40/133/30 41/122/30 32/112/30
f 41/134/27 42/125/27 33/124/25
f 38/135/17 46/136/20 43/137/17
f 47/138/30 38/127/30 44/128/30
f 48/139/10 44/131/10 39/130/5
f 40/140/29 45/141/29 41/142/27
f 42/143/27 41/142/27 45/141/29
f 49/144/20 43/137/17 46/136/20
f 46/145/30 38/127/30 47/138/30
f 47/146/14 44/147/10 50/148/14
f 48/149/10 50/148/14 44/147/10
f 46/150/20 51/151/23 49/152/20
f 52/153/30 46/145/30 47/138/30
f 50/154/14 53/155/18 47/156/14
f 54/157/23 49/152/20 51/151/23
f 51/158/30 46/145/30 52/153/30
f 52/159/18 47/156/14 53/155/18
f 51/160/23 55/161/22 54/162/23
f 55/163/30 51/158/30 52/153/30
f 53/164/18 56/165/22 52/166/18
f 56/167/22 54/162/23 55/161/22
f 55/168/22 52/166/18 56/165/22
