# SSTK version 0.8.0
# 52
mtllib original-52.mtl
o mesh51/mesh51-geometry#mesh51-geometry
v 0.376358 0.029248 0.047342
v 0.375311 0.016679 0.045135
v 0.376358 0.016590 0.045933
v 0.375311 0.029337 0.046544
v 0.377577 0.029192 0.047844
v 0.375311 0.040195 -0.050981
v 0.374508 0.029452 0.045504
v 0.377577 0.016534 0.046435
v 0.376358 0.040283 -0.051779
v 0.374508 0.040079 -0.049940
v 0.374508 0.016795 0.044095
v 0.378885 0.029173 0.048015
v 0.377577 0.040339 -0.052281
v 0.374508 0.027421 -0.051350
v 0.376358 0.027626 -0.053188
v 0.374003 0.029587 0.044292
v 0.374003 0.039944 -0.048729
v 0.378885 0.016515 0.046606
v 0.377577 0.027682 -0.053690
v 0.375311 0.027537 -0.052390
v 0.374003 0.027287 -0.050138
v 0.374003 0.016930 0.042883
v 0.474919 0.016515 0.046606
v 0.378885 0.040358 -0.052452
v 0.378885 0.027701 -0.053861
v 0.373830 0.029732 0.042992
v 0.373830 0.039799 -0.047429
v 0.373830 0.027142 -0.048838
v 0.474919 0.029173 0.048015
v 0.373830 0.017075 0.041583
v 0.476227 0.016534 0.046435
v 0.474919 0.040358 -0.052452
v 0.474919 0.027701 -0.053861
v 0.476227 0.029192 0.047844
v 0.477446 0.016590 0.045933
v 0.476227 0.040339 -0.052281
v 0.477446 0.029248 0.047342
v 0.476227 0.027682 -0.053690
v 0.478493 0.016679 0.045135
v 0.477446 0.040283 -0.051779
v 0.478493 0.029337 0.046544
v 0.477446 0.027626 -0.053188
v 0.479296 0.029452 0.045504
v 0.478493 0.040195 -0.050981
v 0.479296 0.016795 0.044095
v 0.478493 0.027537 -0.052390
v 0.479801 0.029587 0.044292
v 0.479296 0.040079 -0.049940
v 0.479296 0.027421 -0.051350
v 0.479801 0.016930 0.042883
v 0.479973 0.029732 0.042992
v 0.479801 0.039944 -0.048729
v 0.479801 0.027287 -0.050138
v 0.479973 0.017075 0.041583
v 0.479973 0.039799 -0.047429
v 0.479973 0.027142 -0.048838
vt 1.724663 0.484433
vt 1.724074 0.485408
vt 1.725348 0.48382
vt 1.724074 0.604514
vt 1.723623 0.486679
vt 1.724663 0.605489
vt 1.723623 0.603243
vt 1.726083 0.483611
vt 1.725348 0.606102
vt 1.723339 0.488158
vt 1.723339 0.601764
vt 1.780061 0.483611
vt 1.726083 0.606311
vt 1.723242 0.489746
vt 1.723242 0.600176
vt 1.780796 0.48382
vt 1.780061 0.606311
vt 1.781481 0.484433
vt 1.780796 0.606102
vt 1.782069 0.485408
vt 1.781481 0.605489
vt 1.782521 0.486679
vt 1.782069 0.604514
vt 1.782805 0.488158
vt 1.782521 0.603243
vt 1.782902 0.489746
vt 1.782805 0.601764
vt 1.782902 0.600176
vt -0.578075 0.783831
vt -0.579663 0.784598
vt -0.577036 0.893101
vt -0.578624 0.893868
vt -0.265694 0.9672
vt -0.264104 0.966716
vt -0.266348 0.857778
vt 0.035493 4.422454
vt 0.03423 4.429362
vt 0.03423 5.273222
vt -0.953323 0.992482
vt -0.954675 0.883386
vt -0.954908 0.99348
vt -0.264758 0.857295
vt 0.036963 4.418112
vt 0.035493 5.28013
vt 0.033261 5.26422
vt -0.95626 0.884384
vt 0.033261 4.438364
vt -0.038394 1.194335
vt -0.036803 1.19417
vt -0.038617 1.084826
vt 0.036963 5.284472
vt -2.929908 2.237038
vt -2.93126 2.127941
vt -2.931494 2.238036
vt -3.112114 2.117916
vt -3.110526 2.117148
vt -3.113153 2.008645
vt -1.366862 1.237514
vt -1.368434 1.128568
vt -1.368446 1.238675
vt 0.032652 5.253737
vt -0.037026 1.084661
vt 0.038541 4.416631
vt -3.184319 1.853641
vt -3.182729 1.853158
vt -3.184973 1.744219
vt -2.932846 2.12894
vt -2.657261 2.07359
vt -2.655689 2.182536
vt -2.655677 2.072429
vt -3.111565 2.007878
vt -3.183383 1.743736
vt -1.370018 1.129729
vt 0.032652 4.448847
vt -2.654105 2.181375
vt 0.038541 1.238231
vt 0.038541 1.347752
vt 0.154395 1.238231
vt 0.038541 5.285953
vt -3.140863 1.406196
vt -3.142455 1.406361
vt -3.14064 1.515705
vt -1.789771 1.562368
vt -1.791457 1.453508
vt -1.791353 1.563613
vt 0.032444 5.242487
vt -2.305528 1.858014
vt -2.303842 1.966873
vt -2.303946 1.856769
vt 0.154395 1.347752
vt 0.154395 4.416631
vt -3.142232 1.51587
vt -1.793039 1.454753
vt 0.032444 4.460097
vt -2.30226 1.965628
vt 0.20197 1.41661
vt 0.201747 1.526119
vt 0.203562 1.416775
vt 0.154395 5.285953
vt -3.07796 1.238231
vt -3.193814 1.238231
vt -3.07796 1.347752
vt -1.996758 1.728515
vt -1.998458 1.619667
vt -2.105841 1.815089
vt -2.107541 1.70624
vt 0.203339 1.526284
vt 0.155973 4.418112
vt -3.193814 1.347752
vt 0.208939 1.76347
vt 0.208285 1.872892
vt 0.210529 1.763953
vt 0.155973 5.284472
vt -3.10155 1.183921
vt -3.101327 1.074412
vt -3.103142 1.183756
vt 0.209875 1.873375
vt 0.157444 4.422454
vt -3.102919 1.074247
vt 0.097186 2.019976
vt 0.096147 2.129246
vt 0.098774 2.020744
vt 0.157444 5.28013
vt -2.838699 0.947466
vt -2.838045 0.838044
vt -2.840289 0.946983
vt 0.097735 2.130014
vt 0.158707 4.429362
vt -2.839635 0.837561
vt -0.125994 2.226658
vt -0.124409 2.227657
vt -0.124643 2.117562
vt 0.158707 5.273222
vt -2.485834 0.88177
vt -2.484795 0.7725
vt -2.487422 0.881003
vt -0.123057 2.118561
vt 0.159676 4.438364
vt -2.486383 0.771733
vt -0.44208 2.139751
vt -0.440497 2.140912
vt -0.440508 2.030805
vt 0.159676 5.26422
vt -2.066674 0.894763
vt -2.06826 0.893765
vt -2.068026 1.00386
vt -0.438924 2.031966
vt 0.160285 4.448847
vt -2.069612 1.002861
vt -0.830288 1.892348
vt -0.828706 1.893593
vt -0.828602 1.783488
vt 0.160285 5.253737
vt -1.612634 1.171353
vt -1.614218 1.170192
vt -1.614206 1.280299
vt -0.82702 1.784733
vt 0.160493 4.460097
vt -1.61579 1.279138
vt -1.04266 1.728515
vt -0.933578 1.815089
vt -1.04096 1.619667
vt 0.160493 5.242487
vt -1.15325 1.528034
vt -1.154832 1.526789
vt -1.154936 1.636893
vt -0.931878 1.70624
vt -1.156518 1.635648
vn -0.5000001136417888 -0.09582802178013086 0.8607071956245661
vn -0.7071066741218326 -0.07824296394083871 0.7027646761228917
vn -0.2588190625409164 -0.1068820258269226 0.9599942319725542
vn 0 0.9938591002356646 0.11065301115991022
vn -0.8660251334540503 -0.05532600852571102 0.4969300765766822
vn -0.06540301236686057 -0.11041602087823633 0.9917311875234928
vn -0.7071066741218326 0.07824296394083871 -0.7027646761228917
vn -0.8660251334540503 0.05532600852571102 -0.4969300765766822
vn -0.5000001136417888 0.09582802178013086 -0.8607071956245661
vn -0.9659257572160402 -0.028638992801633078 0.2572299353456497
vn -0.2588190625409164 0.1068820258269226 -0.9599942319725542
vn -0.9659257572160402 0.028638992801633078 -0.2572299353456497
vn 0.06540301236686057 -0.11041602087823633 0.9917311875234928
vn -0.06540301236686057 0.11041602087823633 -0.9917311875234928
vn -0.9978589560687615 -0.0072369996813874925 0.06500099713829867
vn -0.9978589560687615 0.0072369996813874925 -0.06500099713829867
vn 0.2588190625409164 -0.1068820258269226 0.9599942319725542
vn 0.06540301236686057 0.11041602087823633 -0.9917311875234928
vn 0.5000001136417888 -0.09582802178013086 0.8607071956245661
vn 0.2588190625409164 0.1068820258269226 -0.9599942319725542
vn 0.7071066741218326 -0.07824296394083871 0.7027646761228917
vn 0.5000001136417888 0.09582802178013086 -0.8607071956245661
vn 0.8660251334540503 -0.05532600852571102 0.4969300765766822
vn 0.7071066741218326 0.07824296394083871 -0.7027646761228917
vn 0.9659257572160402 -0.028638992801633078 0.2572299353456497
vn 0.8660251334540503 0.05532600852571102 -0.4969300765766822
vn 0.9978589560687615 -0.0072369996813874925 0.06500099713829867
vn 0.9659257572160402 0.028638992801633078 -0.2572299353456497
vn 0.9978589560687615 0.0072369996813874925 -0.06500099713829867
vn 0 -0.9938591002356646 -0.11065301115991022
usemtl material_0_0
f 1/1/1 2/2/2 3/1/1
f 2/2/2 1/1/1 4/2/2
f 3/1/1 5/3/3 1/1/1
f 6/4/4 4/2/4 1/1/4
f 7/5/5 2/2/2 4/2/2
f 5/3/3 3/1/1 8/3/3
f 9/6/4 1/1/4 5/3/4
f 10/7/4 4/2/4 6/4/4
f 6/4/4 1/1/4 9/6/4
f 2/2/2 7/5/5 11/5/5
f 10/7/4 7/5/4 4/2/4
f 8/3/3 12/8/6 5/3/3
f 9/6/4 5/3/4 13/9/4
f 6/4/7 14/7/8 10/7/8
f 15/6/9 6/4/7 9/6/9
f 16/10/10 11/5/5 7/5/5
f 17/11/4 7/5/4 10/7/4
f 12/8/6 8/3/3 18/8/6
f 13/9/4 5/3/4 12/8/4
f 19/9/11 9/6/9 13/9/11
f 14/7/8 6/4/7 20/4/7
f 21/11/12 10/7/8 14/7/8
f 6/4/7 15/6/9 20/4/7
f 9/6/9 19/9/11 15/6/9
f 11/5/5 16/10/10 22/10/10
f 17/11/4 16/10/4 7/5/4
f 10/7/8 21/11/12 17/11/12
f 23/12/13 12/8/6 18/8/6
f 13/9/4 12/8/4 24/13/4
f 13/9/11 25/13/14 19/9/11
f 26/14/15 22/10/10 16/10/10
f 27/15/4 16/10/4 17/11/4
f 28/15/16 17/11/12 21/11/12
f 12/8/6 23/12/13 29/12/13
f 24/13/4 12/8/4 29/12/4
f 25/13/14 13/9/11 24/13/14
f 22/10/10 26/14/15 30/14/15
f 16/10/4 27/15/4 26/14/4
f 17/11/12 28/15/16 27/15/16
f 31/16/17 29/12/13 23/12/13
f 24/13/4 29/12/4 32/17/4
f 24/13/14 33/17/18 25/13/14
f 27/15/16 30/14/15 26/14/15
f 30/14/15 27/15/16 28/15/16
f 29/12/13 31/16/17 34/16/17
f 32/17/4 29/12/4 34/16/4
f 33/17/18 24/13/14 32/17/18
f 35/18/19 34/16/17 31/16/17
f 32/17/4 34/16/4 36/19/4
f 36/19/20 33/17/18 32/17/18
f 34/16/17 35/18/19 37/18/19
f 36/19/4 34/16/4 37/18/4
f 33/17/18 36/19/20 38/19/20
f 39/20/21 37/18/19 35/18/19
f 36/19/4 37/18/4 40/21/4
f 40/21/22 38/19/20 36/19/20
f 37/18/19 39/20/21 41/20/21
f 40/21/4 37/18/4 41/20/4
f 38/19/20 40/21/22 42/21/22
f 39/20/21 43/22/23 41/20/21
f 40/21/4 41/20/4 44/23/4
f 44/23/24 42/21/22 40/21/22
f 43/22/23 39/20/21 45/22/23
f 44/23/4 41/20/4 43/22/4
f 42/21/22 44/23/24 46/23/24
f 45/22/23 47/24/25 43/22/23
f 44/23/4 43/22/4 48/25/4
f 44/23/24 49/25/26 46/23/24
f 47/24/25 45/22/23 50/24/25
f 48/25/4 43/22/4 47/24/4
f 49/25/26 44/23/24 48/25/26
f 50/24/25 51/26/27 47/24/25
f 48/25/4 47/24/4 52/27/4
f 48/25/26 53/27/28 49/25/26
f 51/26/27 50/24/25 54/26/27
f 52/27/4 47/24/4 51/26/4
f 53/27/28 48/25/26 52/27/28
f 54/26/27 55/28/29 51/26/27
f 52/27/4 51/26/4 55/28/4
f 52/27/28 56/28/29 53/27/28
f 55/28/29 54/26/27 56/28/29
f 56/28/29 52/27/28 55/28/29
usemtl material_1_0
f 3/29/22 2/30/24 1/31/22
f 4/32/24 1/31/22 2/30/24
f 1/33/22 5/34/20 3/35/22
f 1/36/30 4/37/30 6/38/30
f 4/39/24 2/40/24 7/41/26
f 8/42/20 3/35/22 5/34/20
f 5/43/30 1/36/30 9/44/30
f 6/38/30 4/37/30 10/45/30
f 9/44/30 1/36/30 6/38/30
f 11/46/26 7/41/26 2/40/24
f 4/37/30 7/47/30 10/45/30
f 5/48/20 12/49/18 8/50/20
f 13/51/30 5/43/30 9/44/30
f 10/52/23 14/53/23 6/54/21
f 9/55/19 6/56/21 15/57/19
f 7/58/26 11/59/26 16/60/28
f 10/45/30 7/47/30 17/61/30
f 18/62/18 8/50/20 12/49/18
f 12/63/30 5/43/30 13/51/30
f 13/64/17 9/65/19 19/66/17
f 20/67/21 6/54/21 14/53/23
f 14/68/23 10/69/23 21/70/25
f 20/71/21 15/57/19 6/56/21
f 15/72/19 19/66/17 9/65/19
f 22/73/28 16/60/28 11/59/26
f 7/47/30 16/74/30 17/61/30
f 17/75/25 21/70/25 10/69/23
f 18/76/18 12/77/18 23/78/14
f 24/79/30 12/63/30 13/51/30
f 19/80/17 25/81/13 13/82/17
f 16/83/28 22/84/28 26/85/29
f 17/61/30 16/74/30 27/86/30
f 21/87/25 17/88/25 28/89/27
f 29/90/14 23/78/14 12/77/18
f 29/91/30 12/63/30 24/79/30
f 24/92/13 13/82/17 25/81/13
f 30/93/29 26/85/29 22/84/28
f 26/94/30 27/86/30 16/74/30
f 27/95/27 28/89/27 17/88/25
f 23/96/14 29/97/14 31/98/11
f 32/99/30 29/91/30 24/79/30
f 25/100/13 33/101/6 24/102/13
f 26/103/29 30/104/29 27/105/27
f 28/106/27 27/105/27 30/104/29
f 34/107/11 31/98/11 29/97/14
f 34/108/30 29/91/30 32/99/30
f 32/109/6 24/102/13 33/101/6
f 31/110/11 34/111/11 35/112/9
f 36/113/30 34/108/30 32/99/30
f 32/114/6 33/115/6 36/116/3
f 37/117/9 35/112/9 34/111/11
f 37/118/30 34/108/30 36/113/30
f 38/119/3 36/116/3 33/115/6
f 35/120/9 37/121/9 39/122/7
f 40/123/30 37/118/30 36/113/30
f 36/124/3 38/125/3 40/126/1
f 41/127/7 39/122/7 37/121/9
f 41/128/30 37/118/30 40/123/30
f 42/129/1 40/126/1 38/125/3
f 41/130/7 43/131/8 39/132/7
f 44/133/30 41/128/30 40/123/30
f 40/134/1 42/135/1 44/136/2
f 45/137/8 39/132/7 43/131/8
f 43/138/30 41/128/30 44/133/30
f 46/139/2 44/136/2 42/135/1
f 43/140/8 47/141/12 45/142/8
f 48/143/30 43/138/30 44/133/30
f 46/144/2 49/145/5 44/146/2
f 50/147/12 45/142/8 47/141/12
f 47/148/30 43/138/30 48/143/30
f 48/149/5 44/146/2 49/145/5
f 47/150/12 51/151/16 50/152/12
f 52/153/30 47/148/30 48/143/30
f 49/154/5 53/155/10 48/156/5
f 54/157/16 50/152/12 51/151/16
f 51/158/30 47/148/30 52/153/30
f 52/159/10 48/156/5 53/155/10
f 51/160/16 55/161/15 54/162/16
f 55/163/30 51/158/30 52/153/30
f 53/164/10 56/165/15 52/166/10
f 56/167/15 54/162/16 55/161/15
f 55/168/15 52/166/10 56/165/15
