# SSTK version 0.8.0
# 71
mtllib original-71.mtl
o mesh70/mesh70-geometry#mesh70-geometry
v 0.092365 0.049234 -0.247261
v 0.091562 0.062007 -0.246892
v 0.092365 0.061891 -0.245852
v 0.091562 0.049349 -0.248301
v 0.092365 0.055179 -0.185571
v 0.092870 0.049099 -0.246050
v 0.090515 0.049438 -0.249100
v 0.091562 0.055064 -0.184531
v 0.092870 0.061756 -0.244640
v 0.090515 0.062096 -0.247691
v 0.091562 0.042406 -0.185940
v 0.092870 0.055314 -0.186783
v 0.093042 0.048954 -0.244749
v 0.089296 0.049494 -0.249602
v 0.090515 0.054975 -0.183733
v 0.092365 0.042522 -0.186981
v 0.093042 0.055459 -0.188083
v 0.093042 0.061611 -0.243340
v 0.089296 0.062151 -0.248192
v 0.090515 0.042317 -0.185142
v 0.092870 0.042657 -0.188192
v 0.093042 0.042802 -0.189492
v 0.087988 0.049513 -0.249773
v 0.089296 0.054919 -0.183231
v 0.087988 0.062171 -0.248364
v 0.089296 0.042262 -0.184640
v -0.008046 0.049513 -0.249773
v 0.087988 0.054900 -0.183060
v -0.008046 0.062171 -0.248364
v 0.087988 0.042242 -0.184469
v -0.009354 0.062151 -0.248192
v -0.008046 0.054900 -0.183060
v -0.008046 0.042242 -0.184469
v -0.009354 0.049494 -0.249602
v -0.010573 0.062096 -0.247691
v -0.009354 0.054919 -0.183231
v -0.009354 0.042262 -0.184640
v -0.010573 0.049438 -0.249100
v -0.011620 0.062007 -0.246892
v -0.010573 0.054975 -0.183733
v -0.010573 0.042317 -0.185142
v -0.011620 0.049349 -0.248301
v -0.012423 0.049234 -0.247261
v -0.011620 0.055064 -0.184531
v -0.011620 0.042406 -0.185940
v -0.012423 0.061891 -0.245852
v -0.012928 0.049099 -0.246050
v -0.012423 0.055179 -0.185571
v -0.012928 0.061756 -0.244640
v -0.012423 0.042522 -0.186981
v -0.013100 0.048954 -0.244749
v -0.012928 0.055314 -0.186783
v -0.013100 0.061611 -0.243340
v -0.012928 0.042657 -0.188192
v -0.013100 0.042802 -0.189492
v -0.013100 0.055459 -0.188083
vt 1.565041 0.842507
vt 1.564589 0.843778
vt 1.565041 0.768887
vt 1.565324 0.841027
vt 1.564001 0.844753
vt 1.564589 0.767617
vt 1.565324 0.770367
vt 1.565421 0.839439
vt 1.563315 0.845365
vt 1.564001 0.766642
vt 1.565421 0.771955
vt 1.56258 0.845574
vt 1.563315 0.766029
vt 1.508603 0.845574
vt 1.56258 0.76582
vt 1.507868 0.845365
vt 1.508603 0.76582
vt 1.507182 0.844753
vt 1.507868 0.766029
vt 1.506594 0.843778
vt 1.507182 0.766642
vt 1.506143 0.842507
vt 1.506594 0.767617
vt 1.505859 0.841027
vt 1.506143 0.768887
vt 1.505762 0.839439
vt 1.505859 0.770367
vt 1.505762 0.771955
vn 0.8660251334540503 0.05532600852571102 -0.4969300765766822
vn 0.7071066741218326 0.07824296394083871 -0.7027646761228917
vn 0 0.9938591002356646 0.11065301115991022
vn 0.9659257572160402 0.028638992801633078 -0.2572299353456497
vn 0.5000001136417888 0.09582802178013086 -0.8607071956245661
vn 0.7071066741218326 -0.07824296394083871 0.7027646761228917
vn 0.8660251334540503 -0.05532600852571102 0.4969300765766822
vn 0.9978589560687615 0.0072369996813874925 -0.06500099713829867
vn 0.2588190625409164 0.1068820258269226 -0.9599942319725542
vn 0.5000001136417888 -0.09582802178013086 0.8607071956245661
vn 0.9659257572160402 -0.028638992801633078 0.2572299353456497
vn 0.9978589560687615 -0.0072369996813874925 0.06500099713829867
vn 0.06540301236686057 0.11041602087823633 -0.9917311875234928
vn 0.2588190625409164 -0.1068820258269226 0.9599942319725542
vn -0.06540301236686057 0.11041602087823633 -0.9917311875234928
vn 0.06540301236686057 -0.11041602087823633 0.9917311875234928
vn -0.2588190625409164 0.1068820258269226 -0.9599942319725542
vn -0.06540301236686057 -0.11041602087823633 0.9917311875234928
vn -0.5000001136417888 0.09582802178013086 -0.8607071956245661
vn -0.2588190625409164 -0.1068820258269226 0.9599942319725542
vn -0.7071066741218326 0.07824296394083871 -0.7027646761228917
vn -0.5000001136417888 -0.09582802178013086 0.8607071956245661
vn -0.8660251334540503 0.05532600852571102 -0.4969300765766822
vn -0.7071066741218326 -0.07824296394083871 0.7027646761228917
vn -0.9659257572160402 0.028638992801633078 -0.2572299353456497
vn -0.8660251334540503 -0.05532600852571102 0.4969300765766822
vn -0.9978589560687615 0.0072369996813874925 -0.06500099713829867
vn -0.9659257572160402 -0.028638992801633078 0.2572299353456497
vn -0.9978589560687615 -0.0072369996813874925 0.06500099713829867
vn 0 -0.9938591002356646 -0.11065301115991022
usemtl material_0_0
f 1/1/1 2/2/2 3/1/1
f 2/2/2 1/1/1 4/2/2
f 2/2/3 5/3/3 3/1/3
f 3/1/1 6/4/4 1/1/1
f 7/5/5 2/2/2 4/2/2
f 2/2/3 8/6/3 5/3/3
f 3/1/3 5/3/3 9/4/3
f 6/4/4 3/1/1 9/4/4
f 2/2/2 7/5/5 10/5/5
f 10/5/3 8/6/3 2/2/3
f 11/6/6 5/3/7 8/6/6
f 9/4/3 5/3/3 12/7/3
f 9/4/4 13/8/8 6/4/4
f 14/9/9 10/5/5 7/5/5
f 10/5/3 15/10/3 8/6/3
f 5/3/7 11/6/6 16/3/7
f 15/10/10 11/6/6 8/6/6
f 16/3/7 12/7/11 5/3/7
f 9/4/3 12/7/3 17/11/3
f 13/8/8 9/4/4 18/8/8
f 10/5/5 14/9/9 19/9/9
f 19/9/3 15/10/3 10/5/3
f 11/6/6 15/10/10 20/10/10
f 12/7/11 16/3/7 21/7/11
f 21/7/11 17/11/12 12/7/11
f 9/4/3 17/11/3 18/8/3
f 18/8/8 22/11/12 13/8/8
f 23/12/13 19/9/9 14/9/9
f 19/9/3 24/13/3 15/10/3
f 24/13/14 20/10/10 15/10/10
f 17/11/12 21/7/11 22/11/12
f 22/11/12 18/8/8 17/11/12
f 19/9/9 23/12/13 25/12/13
f 25/12/3 24/13/3 19/9/3
f 20/10/10 24/13/14 26/13/14
f 27/14/15 25/12/13 23/12/13
f 25/12/3 28/15/3 24/13/3
f 28/15/16 26/13/14 24/13/14
f 25/12/13 27/14/15 29/14/15
f 29/14/3 28/15/3 25/12/3
f 26/13/14 28/15/16 30/15/16
f 27/14/15 31/16/17 29/14/15
f 29/14/3 32/17/3 28/15/3
f 28/15/16 33/17/18 30/15/16
f 31/16/17 27/14/15 34/16/17
f 31/16/3 32/17/3 29/14/3
f 33/17/18 28/15/16 32/17/18
f 34/16/17 35/18/19 31/16/17
f 31/16/3 36/19/3 32/17/3
f 32/17/18 37/19/20 33/17/18
f 35/18/19 34/16/17 38/18/19
f 35/18/3 36/19/3 31/16/3
f 37/19/20 32/17/18 36/19/20
f 38/18/19 39/20/21 35/18/19
f 35/18/3 40/21/3 36/19/3
f 36/19/20 41/21/22 37/19/20
f 39/20/21 38/18/19 42/20/21
f 39/20/3 40/21/3 35/18/3
f 41/21/22 36/19/20 40/21/22
f 43/22/23 39/20/21 42/20/21
f 39/20/3 44/23/3 40/21/3
f 40/21/22 45/23/24 41/21/22
f 39/20/21 43/22/23 46/22/23
f 46/22/3 44/23/3 39/20/3
f 45/23/24 40/21/22 44/23/24
f 47/24/25 46/22/23 43/22/23
f 46/22/3 48/25/3 44/23/3
f 48/25/26 45/23/24 44/23/24
f 46/22/23 47/24/25 49/24/25
f 49/24/3 48/25/3 46/22/3
f 45/23/24 48/25/26 50/25/26
f 51/26/27 49/24/25 47/24/25
f 49/24/3 52/27/3 48/25/3
f 52/27/28 50/25/26 48/25/26
f 49/24/25 51/26/27 53/26/27
f 53/26/3 52/27/3 49/24/3
f 50/25/26 52/27/28 54/27/28
f 55/28/29 53/26/27 51/26/27
f 52/27/3 53/26/3 56/28/3
f 56/28/29 54/27/28 52/27/28
f 53/26/27 55/28/29 56/28/29
f 54/27/28 56/28/29 55/28/29
usemtl material_1_0
f 3//26 2//24 1//26
f 4//24 1//26 2//24
f 3//30 5//30 2//30
f 1//26 6//28 3//26
f 4//24 2//24 7//22
f 5//30 8//30 2//30
f 9//30 5//30 3//30
f 9//28 3//26 6//28
f 10//22 7//22 2//24
f 2//30 8//30 10//30
f 8//21 5//23 11//21
f 12//30 5//30 9//30
f 6//28 13//29 9//28
f 7//22 10//22 14//20
f 8//30 15//30 10//30
f 16//23 11//21 5//23
f 8//21 11//21 15//19
f 5//23 12//25 16//23
f 17//30 12//30 9//30
f 18//29 9//28 13//29
f 19//20 14//20 10//22
f 10//30 15//30 19//30
f 20//19 15//19 11//21
f 21//25 16//23 12//25
f 12//25 17//27 21//25
f 18//30 17//30 9//30
f 13//29 22//27 18//29
f 14//20 19//20 23//18
f 15//30 24//30 19//30
f 15//19 20//19 24//17
f 22//27 21//25 17//27
f 17//27 18//29 22//27
f 25//18 23//18 19//20
f 19//30 24//30 25//30
f 26//17 24//17 20//19
f 23//18 25//18 27//16
f 24//30 28//30 25//30
f 24//17 26//17 28//15
f 29//16 27//16 25//18
f 25//30 28//30 29//30
f 30//15 28//15 26//17
f 29//16 31//14 27//16
f 28//30 32//30 29//30
f 30//15 33//13 28//15
f 34//14 27//16 31//14
f 29//30 32//30 31//30
f 32//13 28//15 33//13
f 31//14 35//10 34//14
f 32//30 36//30 31//30
f 33//13 37//9 32//13
f 38//10 34//14 35//10
f 31//30 36//30 35//30
f 36//9 32//13 37//9
f 35//10 39//6 38//10
f 36//30 40//30 35//30
f 37//9 41//5 36//9
f 42//6 38//10 39//6
f 35//30 40//30 39//30
f 40//5 36//9 41//5
f 42//6 39//6 43//7
f 40//30 44//30 39//30
f 41//5 45//2 40//5
f 46//7 43//7 39//6
f 39//30 44//30 46//30
f 44//2 40//5 45//2
f 43//7 46//7 47//11
f 44//30 48//30 46//30
f 44//2 45//2 48//1
f 49//11 47//11 46//7
f 46//30 48//30 49//30
f 50//1 48//1 45//2
f 47//11 49//11 51//12
f 48//30 52//30 49//30
f 48//1 50//1 52//4
f 53//12 51//12 49//11
f 49//30 52//30 53//30
f 54//4 52//4 50//1
f 51//12 53//12 55//8
f 56//30 53//30 52//30
f 52//4 54//4 56//8
f 56//8 55//8 53//12
f 55//8 56//8 54//4
