# SSTK version 0.8.0
# 36
mtllib original-36.mtl
o mesh35/mesh35-geometry#mesh35-geometry
v -0.730827 0.016515 0.046606
v -0.882459 0.029173 0.048015
v -0.882459 0.016515 0.046606
v -0.730827 0.029173 0.048015
v -0.883767 0.016534 0.046435
v -0.729519 0.016534 0.046435
v -0.882459 0.040358 -0.052452
v -0.883767 0.029192 0.047844
v -0.729519 0.029192 0.047844
v -0.883767 0.040339 -0.052281
v -0.730827 0.040358 -0.052452
v -0.884986 0.016590 0.045933
v -0.728299 0.016590 0.045933
v -0.882459 0.027701 -0.053861
v -0.730827 0.027701 -0.053861
v -0.884986 0.040283 -0.051779
v -0.884986 0.029248 0.047342
v -0.728299 0.029248 0.047342
v -0.729519 0.040339 -0.052281
v -0.883767 0.027682 -0.053690
v -0.886033 0.016679 0.045135
v -0.727253 0.016679 0.045135
v -0.729519 0.027682 -0.053690
v -0.886033 0.040195 -0.050981
v -0.884986 0.027626 -0.053188
v -0.886033 0.029337 0.046544
v -0.727253 0.029337 0.046544
v -0.728299 0.040283 -0.051779
v -0.886836 0.029452 0.045504
v -0.726449 0.029452 0.045504
v -0.728299 0.027626 -0.053188
v -0.886836 0.040079 -0.049940
v -0.886033 0.027537 -0.052390
v -0.886836 0.016795 0.044095
v -0.726449 0.016795 0.044095
v -0.727253 0.040195 -0.050981
v -0.886836 0.027421 -0.051350
v -0.887341 0.029587 0.044292
v -0.887341 0.039944 -0.048729
v -0.725945 0.029587 0.044292
v -0.726449 0.040079 -0.049940
v -0.727253 0.027537 -0.052390
v -0.887341 0.027287 -0.050138
v -0.887341 0.016930 0.042883
v -0.725945 0.016930 0.042883
v -0.726449 0.027421 -0.051350
v -0.887513 0.029732 0.042992
v -0.887513 0.039799 -0.047429
v -0.887513 0.027142 -0.048838
v -0.725772 0.029732 0.042992
v -0.725945 0.039944 -0.048729
v -0.725945 0.027287 -0.050138
v -0.887513 0.017075 0.041583
v -0.725772 0.017075 0.041583
v -0.725772 0.039799 -0.047429
v -0.725772 0.027142 -0.048838
vt 1.102353 0.483611
vt 1.017126 0.483611
vt 1.01639 0.48382
vt 1.105929 0.48382
vt 1.105194 0.483611
vt 1.017126 0.606311
vt 1.01639 0.606102
vt 1.102353 0.606311
vt 1.015705 0.484433
vt 1.106614 0.484433
vt 1.103088 0.48382
vt 1.015705 0.605489
vt 1.103088 0.606102
vt 1.105929 0.606102
vt 1.105194 0.606311
vt 1.015117 0.485408
vt 1.107203 0.485408
vt 1.103773 0.484433
vt 1.015117 0.604514
vt 1.103773 0.605489
vt 1.106614 0.605489
vt 1.014665 0.486679
vt 1.107654 0.486679
vt 1.104362 0.485408
vt 1.014665 0.603243
vt 1.104362 0.604514
vt 1.104813 0.486679
vt 1.107203 0.604514
vt 1.014382 0.488158
vt 1.014382 0.601764
vt 1.107938 0.488158
vt 1.104813 0.603243
vt 1.105097 0.488158
vt 1.107654 0.603243
vt 1.014285 0.489746
vt 1.014285 0.600176
vt 1.108035 0.489746
vt 1.105097 0.601764
vt 1.107938 0.601764
vt 1.105194 0.489746
vt 1.108035 0.600176
vt 1.105194 0.600176
vt 0.038541 1.238231
vt 0.038541 1.347752
vt 0.221468 1.238231
vt 0.221468 1.347752
vt -0.023849 1.240929
vt -0.02544 1.241094
vt -0.023625 1.350439
vt 0.287685 1.267856
vt 0.287462 1.377365
vt 0.289277 1.268021
vt 0.221468 4.416631
vt 0.038541 4.416631
vt 0.038541 5.285953
vt -0.025217 1.350603
vt 0.289053 1.37753
vt 0.036963 5.284472
vt 0.221468 5.285953
vt 0.036963 4.418112
vt -0.147653 1.283887
vt -0.149244 1.28437
vt -0.146999 1.393308
vt 0.393582 1.357392
vt 0.392928 1.466813
vt 0.395173 1.357875
vt 0.223046 4.418112
vt -0.112078 1.359602
vt -0.110487 1.359437
vt -0.112302 1.250092
vt -0.217556 1.347752
vt -0.034629 1.347752
vt -0.217556 1.238231
vt 0.035493 5.28013
vt -0.14859 1.393791
vt 0.394519 1.467296
vt 0.223046 5.284472
vt -0.11071 1.249928
vt -0.034629 1.238231
vt -0.143934 1.332675
vt -0.143711 1.223166
vt -0.145526 1.332511
vt 0.035493 4.422454
vt -0.258093 1.427049
vt -0.256503 1.426566
vt -0.258747 1.317628
vt -0.260865 1.365759
vt -0.262453 1.366527
vt -0.259826 1.475029
vt 0.472314 1.46603
vt 0.471275 1.5753
vt 0.473902 1.466798
vt 0.224517 4.422454
vt -0.145303 1.223001
vt 0.03423 5.273222
vt -0.257157 1.317145
vt -0.261414 1.475797
vt 0.472863 1.576068
vt 0.224517 5.28013
vt 0.019988 1.353544
vt 0.020642 1.244123
vt 0.018398 1.353061
vt 0.03423 4.429362
vt -0.385994 1.535987
vt -0.384406 1.53522
vt -0.387033 1.426717
vt -0.354396 1.573484
vt -0.355748 1.464388
vt -0.355982 1.574482
vt 0.517303 1.673595
vt 0.518889 1.674593
vt 0.518655 1.564499
vt 0.22578 4.429362
vt 0.019052 1.24364
vt 0.033261 5.26422
vt -0.385445 1.42595
vt -0.357333 1.465386
vt 0.033261 4.438364
vt 0.520241 1.565497
vt 0.226749 4.438364
vt 0.22578 5.273222
vt 0.182368 1.435716
vt 0.183407 1.326446
vt 0.18078 1.434949
vt -0.485504 1.656036
vt -0.486856 1.54694
vt -0.48709 1.657034
vt -0.488442 1.547938
vt -0.424457 1.662252
vt -0.426029 1.553306
vt -0.42604 1.663413
vt 0.032652 5.253737
vt 0.52818 1.735438
vt 0.529763 1.736599
vt 0.529752 1.626492
vt 0.226749 5.26422
vt 0.181819 1.325679
vt -0.556336 1.648852
vt -0.554764 1.757798
vt -0.554752 1.647691
vt -0.427612 1.554467
vt 0.032652 4.448847
vt -0.55318 1.756637
vt 0.531335 1.627653
vt 0.227358 4.448847
vt 0.330421 1.555925
vt 0.332007 1.556923
vt 0.331773 1.446829
vt 0.333358 1.447827
vt -0.465524 1.717709
vt -0.467209 1.60885
vt -0.467106 1.718954
vt 0.032444 5.242487
vt -0.586445 1.702672
vt -0.584759 1.811532
vt -0.584863 1.701427
vt 0.503452 1.744476
vt 0.505034 1.745721
vt 0.505138 1.635616
vt 0.227358 5.253737
vt 0.460437 1.575667
vt 0.458853 1.574506
vt 0.458864 1.684613
vt -0.468792 1.610095
vt 0.032444 4.460097
vt -0.583177 1.810287
vt 0.50672 1.636861
vt 0.227566 4.460097
vt 0.457281 1.683452
vt -0.475093 1.728515
vt -0.476793 1.619667
vt -0.584175 1.815089
vt -0.585875 1.70624
vt 0.479005 1.728515
vt 0.588087 1.815089
vt 0.480705 1.619667
vt 0.227566 5.242487
vt 0.55634 1.675905
vt 0.554758 1.67466
vt 0.554654 1.784765
vt 0.589787 1.70624
vt 0.553072 1.78352
vn 0.06540301236686057 -0.11041602087823633 0.9917311875234928
vn -0.06540301236686057 -0.11041602087823633 0.9917311875234928
vn -0.2588190625409164 -0.1068820258269226 0.9599942319725542
vn 0.2588190625409164 -0.1068820258269226 0.9599942319725542
vn 0 0.9938591002356646 0.11065301115991022
vn -0.5000001136417888 -0.09582802178013086 0.8607071956245661
vn 0.5000001136417888 -0.09582802178013086 0.8607071956245661
vn -0.06540301236686057 0.11041602087823633 -0.9917311875234928
vn -0.2588190625409164 0.1068820258269226 -0.9599942319725542
vn 0.06540301236686057 0.11041602087823633 -0.9917311875234928
vn 0.2588190625409164 0.1068820258269226 -0.9599942319725542
vn -0.5000001136417888 0.09582802178013086 -0.8607071956245661
vn -0.7071066741218326 -0.07824296394083871 0.7027646761228917
vn 0.7071066741218326 -0.07824296394083871 0.7027646761228917
vn 0.5000001136417888 0.09582802178013086 -0.8607071956245661
vn -0.7071066741218326 0.07824296394083871 -0.7027646761228917
vn -0.8660251334540503 -0.05532600852571102 0.4969300765766822
vn 0.8660251334540503 -0.05532600852571102 0.4969300765766822
vn 0.7071066741218326 0.07824296394083871 -0.7027646761228917
vn -0.8660251334540503 0.05532600852571102 -0.4969300765766822
vn -0.9659257572160402 -0.028638992801633078 0.2572299353456497
vn 0.9659257572160402 -0.028638992801633078 0.2572299353456497
vn -0.9659257572160402 0.028638992801633078 -0.2572299353456497
vn 0.8660251334540503 0.05532600852571102 -0.4969300765766822
vn -0.9978589560687615 -0.0072369996813874925 0.06500099713829867
vn -0.9978589560687615 0.0072369996813874925 -0.06500099713829867
vn 0.9978589560687615 -0.0072369996813874925 0.06500099713829867
vn 0.9659257572160402 0.028638992801633078 -0.2572299353456497
vn 0.9978589560687615 0.0072369996813874925 -0.06500099713829867
vn 0 -0.9938591002356646 -0.11065301115991022
usemtl material_0_0
f 1/1/1 2/2/2 3/2/2
f 2/2/2 1/1/1 4/1/1
f 2/2/2 5/3/3 3/2/2
f 6/4/4 4/5/1 1/5/1
f 7/6/5 2/2/5 4/1/5
f 5/3/3 2/2/2 8/3/3
f 4/5/1 6/4/4 9/4/4
f 10/7/5 2/2/5 7/6/5
f 7/6/5 4/1/5 11/8/5
f 10/7/5 8/3/5 2/2/5
f 8/3/3 12/9/6 5/3/3
f 13/10/7 9/4/4 6/4/4
f 11/8/5 4/1/5 9/11/5
f 14/6/8 10/7/9 7/6/8
f 15/8/10 7/6/8 11/8/10
f 16/12/5 8/3/5 10/7/5
f 12/9/6 8/3/3 17/9/6
f 9/4/4 13/10/7 18/10/7
f 11/8/5 9/11/5 19/13/5
f 10/7/9 14/6/8 20/7/9
f 7/6/8 15/8/10 14/6/8
f 19/14/11 15/15/10 11/15/10
f 16/12/5 17/9/5 8/3/5
f 20/7/9 16/12/12 10/7/9
f 17/9/6 21/16/13 12/9/6
f 22/17/14 18/10/7 13/10/7
f 19/13/5 9/11/5 18/18/5
f 15/15/10 19/14/11 23/14/11
f 24/19/5 17/9/5 16/12/5
f 16/12/12 20/7/9 25/12/12
f 21/16/13 17/9/6 26/16/13
f 18/10/7 22/17/14 27/17/14
f 19/13/5 18/18/5 28/20/5
f 28/21/15 23/14/11 19/14/11
f 24/19/5 26/16/5 17/9/5
f 25/12/12 24/19/16 16/12/12
f 29/22/17 21/16/13 26/16/13
f 22/17/14 30/23/18 27/17/14
f 28/20/5 18/18/5 27/24/5
f 23/14/11 28/21/15 31/21/15
f 32/25/5 26/16/5 24/19/5
f 24/19/16 25/12/12 33/19/16
f 21/16/13 29/22/17 34/22/17
f 32/25/5 29/22/5 26/16/5
f 30/23/18 22/17/14 35/23/18
f 36/26/5 27/24/5 30/27/5
f 28/20/5 27/24/5 36/26/5
f 36/28/19 31/21/15 28/21/15
f 24/19/16 37/25/20 32/25/20
f 37/25/20 24/19/16 33/19/16
f 38/29/21 34/22/17 29/22/17
f 39/30/5 29/22/5 32/25/5
f 35/23/18 40/31/22 30/23/18
f 36/26/5 30/27/5 41/32/5
f 31/21/15 36/28/19 42/28/19
f 43/30/23 32/25/20 37/25/20
f 34/22/17 38/29/21 44/29/21
f 39/30/5 38/29/5 29/22/5
f 32/25/20 43/30/23 39/30/23
f 40/31/22 35/23/18 45/31/22
f 41/32/5 30/27/5 40/33/5
f 46/34/24 36/28/19 41/34/24
f 36/28/19 46/34/24 42/28/19
f 47/35/25 44/29/21 38/29/21
f 48/36/5 38/29/5 39/30/5
f 49/36/26 39/30/23 43/30/23
f 45/31/22 50/37/27 40/31/22
f 41/32/5 40/33/5 51/38/5
f 41/34/24 52/39/28 46/34/24
f 44/29/21 47/35/25 53/35/25
f 38/29/5 48/36/5 47/35/5
f 39/30/23 49/36/26 48/36/26
f 50/37/27 45/31/22 54/37/27
f 51/38/5 40/33/5 50/40/5
f 52/39/28 41/34/24 51/39/28
f 48/36/26 53/35/25 47/35/25
f 53/35/25 48/36/26 49/36/26
f 54/37/27 55/41/29 50/37/27
f 51/38/5 50/40/5 55/42/5
f 51/39/28 56/41/29 52/39/28
f 55/41/29 54/37/27 56/41/29
f 56/41/29 51/39/28 55/41/29
usemtl material_1_0
f 3/43/10 2/44/10 1/45/8
f 4/46/8 1/45/8 2/44/10
f 3/47/10 5/48/11 2/49/10
f 1/50/8 4/51/8 6/52/9
f 4/53/30 2/54/30 7/55/30
f 8/56/11 2/49/10 5/48/11
f 9/57/9 6/52/9 4/51/8
f 7/55/30 2/54/30 10/58/30
f 11/59/30 4/53/30 7/55/30
f 2/54/30 8/60/30 10/58/30
f 5/61/11 12/62/15 8/63/11
f 6/64/9 9/65/9 13/66/12
f 9/67/30 4/53/30 11/59/30
f 7/68/1 10/69/4 14/70/1
f 11/71/2 7/72/1 15/73/2
f 10/58/30 8/60/30 16/74/30
f 17/75/15 8/63/11 12/62/15
f 18/76/12 13/66/12 9/65/9
f 19/77/30 9/67/30 11/59/30
f 20/78/4 14/70/1 10/69/4
f 14/79/1 15/73/2 7/72/1
f 11/80/2 15/81/2 19/82/3
f 8/60/30 17/83/30 16/74/30
f 10/84/4 16/85/7 20/86/4
f 12/87/15 21/88/19 17/89/15
f 13/90/12 18/91/12 22/92/16
f 18/93/30 9/67/30 19/77/30
f 23/94/3 19/82/3 15/81/2
f 16/74/30 17/83/30 24/95/30
f 25/96/7 20/86/4 16/85/7
f 26/97/19 17/89/15 21/88/19
f 27/98/16 22/92/16 18/91/12
f 28/99/30 18/93/30 19/77/30
f 19/100/3 23/101/3 28/102/6
f 17/83/30 26/103/30 24/95/30
f 16/104/7 24/105/14 25/106/7
f 26/107/19 21/108/19 29/109/24
f 27/110/16 30/111/20 22/112/16
f 27/113/30 18/93/30 28/99/30
f 31/114/6 28/102/6 23/101/3
f 24/95/30 26/103/30 32/115/30
f 33/116/14 25/106/7 24/105/14
f 34/117/24 29/109/24 21/108/19
f 26/103/30 29/118/30 32/115/30
f 35/119/20 22/112/16 30/111/20
f 30/120/30 27/113/30 36/121/30
f 36/121/30 27/113/30 28/99/30
f 28/122/6 31/123/6 36/124/13
f 32/125/18 37/126/18 24/127/14
f 33/128/14 24/127/14 37/126/18
f 29/129/24 34/130/24 38/131/28
f 32/115/30 29/118/30 39/132/30
f 30/133/20 40/134/23 35/135/20
f 41/136/30 30/120/30 36/121/30
f 42/137/13 36/124/13 31/123/6
f 37/138/18 32/139/18 43/140/22
f 44/141/28 38/131/28 34/130/24
f 29/118/30 38/142/30 39/132/30
f 39/143/22 43/140/22 32/139/18
f 45/144/23 35/135/20 40/134/23
f 40/145/30 30/120/30 41/136/30
f 41/146/17 36/147/13 46/148/17
f 42/149/13 46/148/17 36/147/13
f 38/150/28 44/151/28 47/152/29
f 39/132/30 38/142/30 48/153/30
f 43/154/22 39/155/22 49/156/27
f 40/157/23 50/158/26 45/159/23
f 51/160/30 40/145/30 41/136/30
f 46/161/17 52/162/21 41/163/17
f 53/164/29 47/152/29 44/151/28
f 47/165/30 48/153/30 38/142/30
f 48/166/27 49/156/27 39/155/22
f 54/167/26 45/159/23 50/158/26
f 50/168/30 40/145/30 51/160/30
f 51/169/21 41/163/17 52/162/21
f 47/170/29 53/171/29 48/172/27
f 49/173/27 48/172/27 53/171/29
f 50/174/26 55/175/25 54/176/26
f 55/177/30 50/168/30 51/160/30
f 52/178/21 56/179/25 51/180/21
f 56/181/25 54/176/26 55/175/25
f 55/182/25 51/180/21 56/179/25
