# SSTK version 0.8.0
# 5
mtllib original-5.mtl
o mesh4/mesh4-geometry#mesh4-geometry
v -0.512883 0.001340 0.182910
v -0.511836 0.013908 0.185118
v -0.511836 0.001251 0.183709
v -0.512883 0.013997 0.184320
v -0.511033 0.001135 0.184749
v -0.514102 0.001396 0.182408
v -0.511836 0.003050 0.282643
v -0.511033 0.013792 0.186158
v -0.514102 0.014053 0.183818
v -0.512883 0.002961 0.283441
v -0.511033 0.003166 0.281602
v -0.510528 0.001000 0.185961
v -0.515410 0.001415 0.182237
v -0.511836 -0.009607 0.281233
v -0.510528 0.003301 0.280391
v -0.510528 0.013658 0.187370
v -0.515410 0.014072 0.183647
v -0.514102 0.002905 0.283943
v -0.512883 -0.009696 0.282032
v -0.511033 -0.009491 0.280193
v -0.510356 0.000855 0.187261
v -0.611444 0.014072 0.183647
v -0.510528 -0.009356 0.278981
v -0.510356 0.003446 0.279091
v -0.510356 0.013513 0.188670
v -0.611444 0.001415 0.182237
v -0.515410 0.002886 0.284114
v -0.514102 -0.009752 0.282534
v -0.510356 -0.009212 0.277681
v -0.612752 0.014053 0.183818
v -0.611444 0.002886 0.284114
v -0.612752 0.001396 0.182408
v -0.515410 -0.009771 0.282705
v -0.613971 0.013997 0.184320
v -0.612752 0.002905 0.283943
v -0.611444 -0.009771 0.282705
v -0.613971 0.001340 0.182910
v -0.612752 -0.009752 0.282534
v -0.615018 0.013908 0.185118
v -0.613971 0.002961 0.283441
v -0.613971 -0.009696 0.282032
v -0.615018 0.001251 0.183709
v -0.615821 0.001135 0.184749
v -0.615018 0.003050 0.282643
v -0.615018 -0.009607 0.281233
v -0.615821 0.013792 0.186158
v -0.616326 0.001000 0.185961
v -0.615821 0.003166 0.281602
v -0.616326 0.013658 0.187370
v -0.615821 -0.009491 0.280193
v -0.616498 0.000855 0.187261
v -0.616326 0.003301 0.280391
v -0.616498 0.013513 0.188670
v -0.616326 -0.009356 0.278981
v -0.616498 -0.009212 0.277681
v -0.616498 0.003446 0.279091
vt 1.224852 0.317145
vt 1.22544 0.31617
vt 1.225891 0.3149
vt 1.224166 0.317758
vt 1.22544 0.197065
vt 1.224852 0.19609
vt 1.225891 0.198335
vt 1.226175 0.31342
vt 1.223431 0.317967
vt 1.226175 0.199815
vt 1.224166 0.195477
vt 1.226272 0.311832
vt 1.169454 0.317967
vt 1.226272 0.201403
vt 1.223431 0.195268
vt 1.168719 0.317758
vt 1.169454 0.195268
vt 1.168033 0.317145
vt 1.168719 0.195477
vt 1.167445 0.31617
vt 1.168033 0.19609
vt 1.166994 0.3149
vt 1.167445 0.197065
vt 1.16671 0.31342
vt 1.166994 0.198335
vt 1.166613 0.311832
vt 1.16671 0.199815
vt 1.166613 0.201403
vt -0.520066 3.187436
vt -0.521105 3.296706
vt -0.518478 3.188203
vt -0.519517 3.297473
vt -0.373962 3.251232
vt -0.375548 3.250234
vt -0.375314 3.360329
vt -0.651716 3.182122
vt -0.65237 3.291544
vt -0.650126 3.182605
vt 0.158707 5.273222
vt 0.158707 4.429362
vt 0.157444 5.28013
vt -0.3769 3.35933
vt -0.65078 3.292027
vt 0.157444 4.422454
vt 0.159676 4.438364
vt 0.159676 5.26422
vt -0.226499 3.354616
vt -0.228082 3.353454
vt -0.228071 3.463562
vt -0.761234 3.235971
vt -0.761457 3.345481
vt -0.759642 3.236136
vt 0.155973 5.284472
vt 0.172727 3.631928
vt 0.173766 3.522658
vt 0.171138 3.631161
vt 0.117764 3.670795
vt 0.11935 3.671793
vt 0.119116 3.561699
vt 0.160285 4.448847
vt -0.229655 3.462401
vt -0.759865 3.345646
vt 0.155973 4.418112
vt 0.172177 3.521891
vt 0.120701 3.562697
vt 0.034458 3.656059
vt 0.036041 3.65722
vt 0.03603 3.547113
vt 0.160285 5.253737
vt -0.085951 3.47068
vt -0.087533 3.469435
vt -0.087637 3.579539
vt -0.80438 3.390659
vt -0.688526 3.390659
vt -0.80438 3.281138
vt 0.154395 5.285953
vt 0.192246 3.548069
vt 0.1929 3.438648
vt 0.190655 3.547586
vt 0.037613 3.548274
vt 0.160493 4.460097
vt -0.089219 3.578294
vt -0.688526 3.281138
vt 0.154395 4.416631
vt 0.038541 5.285953
vt 0.191309 3.438165
vt -0.072989 3.591065
vt -0.071407 3.59231
vt -0.071304 3.482205
vt 0.160493 5.242487
vt -0.021986 3.523094
vt -0.131069 3.43652
vt -0.023687 3.631942
vt -0.725741 3.43221
vt -0.724149 3.432045
vt -0.725964 3.322701
vt 0.038541 4.416631
vt 0.176282 3.442624
vt 0.176505 3.333114
vt 0.17469 3.442459
vt -0.069722 3.48345
vt -0.132769 3.545368
vt -0.724372 3.322536
vt 0.036963 5.284472
vt 0.154395 3.390659
vt 0.154395 3.281138
vt 0.038541 3.390659
vt 0.174914 3.33295
vt -0.777256 3.528335
vt -0.775666 3.527852
vt -0.77791 3.418914
vt 0.036963 4.418112
vt 0.038541 3.281138
vt -0.77632 3.418431
vt 0.035493 5.28013
vt 0.009355 3.356059
vt 0.010946 3.355894
vt 0.009132 3.24655
vt 0.010723 3.246385
vt -0.797671 3.61983
vt -0.796083 3.619063
vt -0.79871 3.51056
vt 0.035493 4.422454
vt -0.063243 3.201856
vt -0.064833 3.202339
vt -0.062589 3.311277
vt -0.797122 3.509793
vt 0.03423 5.273222
vt -0.064179 3.31176
vt -0.78717 3.573076
vt -0.785818 3.682172
vt -0.785584 3.572078
vt 0.03423 4.429362
vt -0.154959 3.199534
vt -0.156547 3.200301
vt -0.15392 3.308804
vt -0.784233 3.681174
vt 0.033261 5.26422
vt -0.155508 3.309571
vt -0.744364 3.589897
vt -0.742792 3.698843
vt -0.742781 3.588736
vt 0.033261 4.438364
vt -0.256601 3.348951
vt -0.257953 3.239855
vt -0.258187 3.349949
vt -0.741209 3.697682
vt 0.032652 5.253737
vt -0.259538 3.240853
vt -0.673392 3.55673
vt -0.671707 3.66559
vt -0.67181 3.555486
vt 0.032652 4.448847
vt -0.363563 3.420777
vt -0.365135 3.311831
vt -0.365147 3.421938
vt -0.670125 3.664345
vt 0.032444 5.242487
vt -0.366719 3.312992
vt -0.627998 3.523094
vt -0.626298 3.631942
vt -0.518916 3.43652
vt 0.032444 4.460097
vt -0.467636 3.505014
vt -0.469322 3.396154
vt -0.469218 3.506259
vt -0.517216 3.545368
vt -0.470904 3.397399
vn 0.5000001136417888 0.09582802178013086 -0.8607071956245661
vn 0.7071066741218326 0.07824296394083871 -0.7027646761228917
vn 0.8660251334540503 0.05532600852571102 -0.4969300765766822
vn 0.2588190625409164 0.1068820258269226 -0.9599942319725542
vn 0 0.9938591002356646 0.11065301115991022
vn 0.9659257572160402 0.028638992801633078 -0.2572299353456497
vn 0.06540301236686057 0.11041602087823633 -0.9917311875234928
vn 0.5000001136417888 -0.09582802178013086 0.8607071956245661
vn 0.7071066741218326 -0.07824296394083871 0.7027646761228917
vn 0.8660251334540503 -0.05532600852571102 0.4969300765766822
vn 0.9659257572160402 -0.028638992801633078 0.2572299353456497
vn 0.9978589560687615 0.0072369996813874925 -0.06500099713829867
vn -0.06540301236686057 0.11041602087823633 -0.9917311875234928
vn 0.2588190625409164 -0.1068820258269226 0.9599942319725542
vn 0.9978589560687615 -0.0072369996813874925 0.06500099713829867
vn -0.2588190625409164 0.1068820258269226 -0.9599942319725542
vn 0.06540301236686057 -0.11041602087823633 0.9917311875234928
vn -0.06540301236686057 -0.11041602087823633 0.9917311875234928
vn -0.5000001136417888 0.09582802178013086 -0.8607071956245661
vn -0.2588190625409164 -0.1068820258269226 0.9599942319725542
vn -0.7071066741218326 0.07824296394083871 -0.7027646761228917
vn -0.5000001136417888 -0.09582802178013086 0.8607071956245661
vn -0.8660251334540503 0.05532600852571102 -0.4969300765766822
vn -0.7071066741218326 -0.07824296394083871 0.7027646761228917
vn -0.9659257572160402 0.028638992801633078 -0.2572299353456497
vn -0.8660251334540503 -0.05532600852571102 0.4969300765766822
vn -0.9978589560687615 0.0072369996813874925 -0.06500099713829867
vn -0.9659257572160402 -0.028638992801633078 0.2572299353456497
vn -0.9978589560687615 -0.0072369996813874925 0.06500099713829867
vn 0 -0.9938591002356646 -0.11065301115991022
usemtl material_0_0
f 1/1/1 2/2/2 3/2/2
f 2/2/2 1/1/1 4/1/1
f 2/2/2 5/3/3 3/2/2
f 6/4/4 4/1/1 1/1/1
f 4/1/5 7/5/5 2/2/5
f 5/3/3 2/2/2 8/3/3
f 4/1/1 6/4/4 9/4/4
f 4/1/5 10/6/5 7/5/5
f 2/2/5 7/5/5 11/7/5
f 2/2/5 11/7/5 8/3/5
f 8/3/3 12/8/6 5/3/3
f 13/9/7 9/4/4 6/4/4
f 9/4/5 10/6/5 4/1/5
f 10/6/8 14/5/9 7/5/9
f 14/5/9 11/7/10 7/5/9
f 8/3/5 11/7/5 15/10/5
f 12/8/6 8/3/3 16/8/6
f 9/4/4 13/9/7 17/9/7
f 9/4/5 18/11/5 10/6/5
f 14/5/9 10/6/8 19/6/8
f 11/7/10 14/5/9 20/7/10
f 20/7/10 15/10/11 11/7/10
f 8/3/5 15/10/5 16/8/5
f 16/8/6 21/12/12 12/8/6
f 13/9/7 22/13/13 17/9/7
f 17/9/5 18/11/5 9/4/5
f 18/11/14 19/6/8 10/6/8
f 15/10/11 20/7/10 23/10/11
f 16/8/5 15/10/5 24/14/5
f 21/12/12 16/8/6 25/12/12
f 22/13/13 13/9/7 26/13/13
f 22/13/5 27/15/5 17/9/5
f 17/9/5 27/15/5 18/11/5
f 19/6/8 18/11/14 28/11/14
f 23/10/11 24/14/15 15/10/11
f 16/8/5 24/14/5 25/12/5
f 25/12/12 29/14/15 21/12/12
f 26/13/13 30/16/16 22/13/13
f 22/13/5 31/17/5 27/15/5
f 27/15/17 28/11/14 18/11/14
f 24/14/15 23/10/11 29/14/15
f 29/14/15 25/12/12 24/14/15
f 30/16/16 26/13/13 32/16/16
f 30/16/5 31/17/5 22/13/5
f 31/17/18 33/15/17 27/15/17
f 28/11/14 27/15/17 33/15/17
f 32/16/16 34/18/19 30/16/16
f 30/16/5 35/19/5 31/17/5
f 33/15/17 31/17/18 36/17/18
f 34/18/19 32/16/16 37/18/19
f 34/18/5 35/19/5 30/16/5
f 38/19/20 31/17/18 35/19/20
f 31/17/18 38/19/20 36/17/18
f 37/18/19 39/20/21 34/18/19
f 34/18/5 40/21/5 35/19/5
f 35/19/20 41/21/22 38/19/20
f 39/20/21 37/18/19 42/20/21
f 39/20/5 40/21/5 34/18/5
f 41/21/22 35/19/20 40/21/22
f 43/22/23 39/20/21 42/20/21
f 39/20/5 44/23/5 40/21/5
f 40/21/22 45/23/24 41/21/22
f 39/20/21 43/22/23 46/22/23
f 46/22/5 44/23/5 39/20/5
f 45/23/24 40/21/22 44/23/24
f 47/24/25 46/22/23 43/22/23
f 46/22/5 48/25/5 44/23/5
f 48/25/26 45/23/24 44/23/24
f 46/22/23 47/24/25 49/24/25
f 49/24/5 48/25/5 46/22/5
f 45/23/24 48/25/26 50/25/26
f 51/26/27 49/24/25 47/24/25
f 49/24/5 52/27/5 48/25/5
f 52/27/28 50/25/26 48/25/26
f 49/24/25 51/26/27 53/26/27
f 53/26/5 52/27/5 49/24/5
f 50/25/26 52/27/28 54/27/28
f 55/28/29 53/26/27 51/26/27
f 52/27/5 53/26/5 56/28/5
f 56/28/29 54/27/28 52/27/28
f 53/26/27 55/28/29 56/28/29
f 54/27/28 56/28/29 55/28/29
usemtl material_1_0
f 3/29/24 2/30/24 1/31/22
f 4/32/22 1/31/22 2/30/24
f 3/33/24 5/34/26 2/35/24
f 1/36/22 4/37/22 6/38/20
f 2/39/30 7/40/30 4/41/30
f 8/42/26 2/35/24 5/34/26
f 9/43/20 6/38/20 4/37/22
f 7/40/30 10/44/30 4/41/30
f 11/45/30 7/40/30 2/39/30
f 8/46/30 11/45/30 2/39/30
f 5/47/26 12/48/28 8/49/26
f 6/50/20 9/51/20 13/52/18
f 4/41/30 10/44/30 9/53/30
f 7/54/21 14/55/21 10/56/19
f 7/57/21 11/58/23 14/59/21
f 15/60/30 11/45/30 8/46/30
f 16/61/28 8/49/26 12/48/28
f 17/62/18 13/52/18 9/51/20
f 10/44/30 18/63/30 9/53/30
f 19/64/19 10/56/19 14/55/21
f 20/65/23 14/59/21 11/58/23
f 11/66/23 15/67/25 20/68/23
f 16/69/30 15/60/30 8/46/30
f 12/70/28 21/71/29 16/72/28
f 17/73/18 22/74/17 13/75/18
f 9/53/30 18/63/30 17/76/30
f 10/77/19 19/78/19 18/79/16
f 23/80/25 20/68/23 15/67/25
f 24/81/30 15/60/30 16/69/30
f 25/82/29 16/72/28 21/71/29
f 26/83/17 13/75/18 22/74/17
f 17/76/30 27/84/30 22/85/30
f 18/63/30 27/84/30 17/76/30
f 28/86/16 18/79/16 19/78/19
f 15/87/25 24/88/27 23/89/25
f 25/90/30 24/81/30 16/69/30
f 21/91/29 29/92/27 25/93/29
f 22/94/17 30/95/14 26/96/17
f 27/84/30 31/97/30 22/85/30
f 18/98/16 28/99/16 27/100/13
f 29/101/27 23/89/25 24/88/27
f 24/102/27 25/93/29 29/92/27
f 32/103/14 26/96/17 30/95/14
f 22/85/30 31/97/30 30/104/30
f 27/105/13 33/106/13 31/107/7
f 33/108/13 27/100/13 28/99/16
f 30/109/14 34/110/8 32/111/14
f 31/97/30 35/112/30 30/104/30
f 36/113/7 31/107/7 33/106/13
f 37/114/8 32/111/14 34/110/8
f 30/104/30 35/112/30 34/115/30
f 35/116/4 31/117/7 38/118/4
f 36/119/7 38/118/4 31/117/7
f 34/120/8 39/121/9 37/122/8
f 35/112/30 40/123/30 34/115/30
f 38/124/4 41/125/1 35/126/4
f 42/127/9 37/122/8 39/121/9
f 34/115/30 40/123/30 39/128/30
f 40/129/1 35/126/4 41/125/1
f 42/130/9 39/131/9 43/132/10
f 40/123/30 44/133/30 39/128/30
f 41/134/1 45/135/2 40/136/1
f 46/137/10 43/132/10 39/131/9
f 39/128/30 44/133/30 46/138/30
f 44/139/2 40/136/1 45/135/2
f 43/140/10 46/141/10 47/142/11
f 44/133/30 48/143/30 46/138/30
f 44/144/2 45/145/2 48/146/3
f 49/147/11 47/142/11 46/141/10
f 46/138/30 48/143/30 49/148/30
f 50/149/3 48/146/3 45/145/2
f 47/150/11 49/151/11 51/152/15
f 48/143/30 52/153/30 49/148/30
f 48/154/3 50/155/3 52/156/6
f 53/157/15 51/152/15 49/151/11
f 49/148/30 52/153/30 53/158/30
f 54/159/6 52/156/6 50/155/3
f 51/160/15 53/161/15 55/162/12
f 56/163/30 53/158/30 52/153/30
f 52/164/6 54/165/6 56/166/12
f 56/167/12 55/162/12 53/161/15
f 55/168/12 56/166/12 54/165/6
