# SSTK version 0.8.0
# 32
mtllib original-32.mtl
o mesh31/mesh31-geometry#mesh31-geometry
v 0.525635 0.016444 0.162342
v 0.525463 0.026656 0.070621
v 0.525463 0.016589 0.161041
v 0.525635 0.026801 0.069320
v 0.525463 0.003931 0.159632
v 0.525635 0.003787 0.160932
v 0.526140 0.016309 0.163553
v 0.525463 0.013999 0.069211
v 0.526140 0.003652 0.162144
v 0.526140 0.026936 0.068109
v 0.525635 0.014143 0.067911
v 0.526943 0.003536 0.163184
v 0.526943 0.016193 0.164593
v 0.526943 0.027051 0.067069
v 0.526140 0.014278 0.066700
v 0.527990 0.016104 0.165392
v 0.527990 0.003447 0.163983
v 0.527990 0.027140 0.066270
v 0.526943 0.014394 0.065659
v 0.529209 0.016049 0.165894
v 0.527990 0.014483 0.064861
v 0.529209 0.003391 0.164484
v 0.529209 0.027196 0.065768
v 0.529209 0.014539 0.064359
v 0.530517 0.016030 0.166065
v 0.530517 0.003372 0.164656
v 0.530517 0.027215 0.065597
v 0.530517 0.014558 0.064188
v 0.626551 0.003372 0.164656
v 0.626551 0.016030 0.166065
v 0.626551 0.027215 0.065597
v 0.626551 0.014558 0.064188
v 0.627859 0.003391 0.164484
v 0.627859 0.016049 0.165894
v 0.627859 0.027196 0.065768
v 0.629078 0.003447 0.163983
v 0.629078 0.016104 0.165392
v 0.627859 0.014539 0.064359
v 0.629078 0.027140 0.066270
v 0.630125 0.003536 0.163184
v 0.630125 0.016193 0.164593
v 0.629078 0.014483 0.064861
v 0.630125 0.027051 0.067069
v 0.630928 0.016309 0.163553
v 0.630125 0.014394 0.065659
v 0.630928 0.003652 0.162144
v 0.630928 0.026936 0.068109
v 0.630928 0.014278 0.066700
v 0.631433 0.016444 0.162342
v 0.631433 0.003787 0.160932
v 0.631433 0.026801 0.069320
v 0.631433 0.014143 0.067911
v 0.631605 0.016589 0.161041
v 0.631605 0.003931 0.159632
v 0.631605 0.026656 0.070621
v 0.631605 0.013999 0.069211
vt 1.808566 0.343987
vt 1.80847 0.456004
vt 1.80847 0.345574
vt 1.808566 0.457592
vt 1.80885 0.342507
vt 1.80885 0.459071
vt 1.809302 0.341236
vt 1.809302 0.460342
vt 1.80989 0.340261
vt 1.80989 0.461317
vt 1.810575 0.339649
vt 1.810575 0.46193
vt 1.811311 0.339439
vt 1.811311 0.462139
vt 1.865288 0.339439
vt 1.865288 0.462139
vt 1.866023 0.339649
vt 1.866023 0.46193
vt 1.866708 0.340261
vt 1.866708 0.461317
vt 1.867297 0.341236
vt 1.867297 0.460342
vt 1.867748 0.342507
vt 1.867748 0.459071
vt 1.868032 0.343987
vt 1.868032 0.457592
vt 1.868129 0.345574
vt 1.868129 0.456004
vt 0.032444 4.460097
vt 0.032444 5.242487
vt 0.032652 4.448847
vt 0.032652 5.253737
vt -2.037273 2.636942
vt -2.038973 2.528093
vt -2.146355 2.723515
vt -1.807756 2.454034
vt -1.809442 2.345175
vt -1.809338 2.455279
vt 0.033261 4.438364
vt -2.367711 2.894643
vt -2.369396 2.785784
vt -2.369293 2.895888
vt -2.148055 2.614667
vt -1.811024 2.34642
vt -1.351619 2.003562
vt -1.350047 2.112508
vt -1.350035 2.002401
vt -1.348463 2.111347
vt 0.033261 5.26422
vt -2.370978 2.787029
vt -0.915019 1.764691
vt -0.913667 1.873787
vt -0.913434 1.763692
vt 0.03423 4.429362
vt -2.774977 3.157327
vt -2.776549 3.048381
vt -2.776561 3.158488
vt -0.912082 1.872788
vt 0.03423 5.273222
vt -2.778133 3.049542
vt -0.529726 1.803316
vt -0.528138 1.802549
vt -0.530765 1.694046
vt 0.035493 4.422454
vt -3.110521 3.257034
vt -3.111873 3.147938
vt -3.112107 3.258032
vt -0.529177 1.693279
vt 0.035493 5.28013
vt -3.113458 3.148936
vt -0.224986 1.920731
vt -0.223395 1.920248
vt -0.22564 1.811309
vt 0.036963 4.418112
vt -3.352803 3.167277
vt -3.351215 3.166509
vt -3.353842 3.058006
vt -3.352254 3.057239
vt -0.224049 1.810826
vt 0.036963 5.284472
vt -3.480373 2.799833
vt -3.481963 2.800316
vt -3.479719 2.909254
vt -0.021277 2.195065
vt -0.019685 2.1949
vt -0.0215 2.085556
vt 0.038541 4.416631
vt -3.481309 2.909738
vt -0.019908 2.085391
vt 0.038541 5.285953
vt -3.486431 2.444498
vt -3.488023 2.444663
vt -3.486208 2.554007
vt 0.038541 2.259684
vt 0.038541 2.369205
vt 0.154395 2.259684
vt 0.154395 4.416631
vt -3.4878 2.554172
vt 0.154395 2.369205
vt 0.154395 5.285953
vt -3.443814 2.259684
vt -3.559667 2.259684
vt -3.443814 2.369205
vt 0.181685 2.454912
vt 0.181462 2.564421
vt 0.183277 2.455077
vt 0.155973 4.418112
vt -3.559667 2.369205
vt 0.183053 2.564586
vt 0.155973 5.284472
vt -3.484521 2.184651
vt -3.484298 2.075142
vt -3.486113 2.184487
vt 0.140075 2.819567
vt 0.139421 2.928988
vt 0.141665 2.82005
vt 0.157444 4.422454
vt -3.48589 2.074977
vt 0.141011 2.929471
vt 0.157444 5.28013
vt -3.245261 1.900997
vt -3.244607 1.791575
vt -3.246851 1.900514
vt -0.027979 3.069337
vt -0.029017 3.178607
vt -0.02639 3.070104
vt 0.158707 4.429362
vt -3.246197 1.791092
vt -0.027429 3.179375
vt 0.158707 5.273222
vt -2.900586 1.791218
vt -2.899547 1.681948
vt -2.902174 1.790451
vt -0.311235 3.246655
vt -0.30965 3.247653
vt -0.309883 3.137559
vt 0.159676 4.438364
vt -2.901135 1.68118
vt -0.308298 3.138557
vt 0.159676 5.26422
vt -2.473769 1.77507
vt -2.475355 1.774071
vt -2.475121 1.884166
vt -0.687061 3.115704
vt -0.685478 3.116865
vt -0.685489 3.006758
vt 0.160285 4.448847
vt -2.476706 1.883167
vt -0.683906 3.007919
vt 0.160285 5.253737
vt -1.996887 2.045186
vt -1.99847 2.044025
vt -1.998459 2.154132
vt -1.130691 2.821363
vt -1.129109 2.822608
vt -1.129006 2.712503
vt 0.160493 4.460097
vt -2.000042 2.152971
vt -1.127423 2.713748
vt 0.160493 5.242487
vt -1.501119 2.4197
vt -1.502701 2.418455
vt -1.502805 2.52856
vt -1.368 2.636942
vt -1.258918 2.723515
vt -1.3663 2.528093
vt -1.504387 2.527315
vt -1.257218 2.614667
vn 0 0.9938591002356646 0.11065301115991022
vn -0.9978589560687615 0.0072369996813874925 -0.06500099713829867
vn -0.9978589560687615 -0.0072369996813874925 0.06500099713829867
vn -0.9659257572160402 -0.028638992801633078 0.2572299353456497
vn -0.9659257572160402 0.028638992801633078 -0.2572299353456497
vn -0.8660251334540503 -0.05532600852571102 0.4969300765766822
vn -0.7071066741218326 -0.07824296394083871 0.7027646761228917
vn -0.8660251334540503 0.05532600852571102 -0.4969300765766822
vn -0.5000001136417888 -0.09582802178013086 0.8607071956245661
vn -0.7071066741218326 0.07824296394083871 -0.7027646761228917
vn -0.2588190625409164 -0.1068820258269226 0.9599942319725542
vn -0.5000001136417888 0.09582802178013086 -0.8607071956245661
vn -0.2588190625409164 0.1068820258269226 -0.9599942319725542
vn -0.06540301236686057 -0.11041602087823633 0.9917311875234928
vn -0.06540301236686057 0.11041602087823633 -0.9917311875234928
vn 0.06540301236686057 -0.11041602087823633 0.9917311875234928
vn 0.06540301236686057 0.11041602087823633 -0.9917311875234928
vn 0.2588190625409164 -0.1068820258269226 0.9599942319725542
vn 0.2588190625409164 0.1068820258269226 -0.9599942319725542
vn 0.5000001136417888 -0.09582802178013086 0.8607071956245661
vn 0.5000001136417888 0.09582802178013086 -0.8607071956245661
vn 0.7071066741218326 -0.07824296394083871 0.7027646761228917
vn 0.7071066741218326 0.07824296394083871 -0.7027646761228917
vn 0.8660251334540503 -0.05532600852571102 0.4969300765766822
vn 0.8660251334540503 0.05532600852571102 -0.4969300765766822
vn 0.9659257572160402 -0.028638992801633078 0.2572299353456497
vn 0.9659257572160402 0.028638992801633078 -0.2572299353456497
vn 0.9978589560687615 -0.0072369996813874925 0.06500099713829867
vn 0.9978589560687615 0.0072369996813874925 -0.06500099713829867
vn 0 -0.9938591002356646 -0.11065301115991022
usemtl material_0_0
f 1/1/1 2/2/1 3/3/1
f 2/2/1 1/1/1 4/4/1
f 2/2/2 5/3/3 3/3/3
f 3/3/3 6/1/4 1/1/4
f 4/4/1 1/1/1 7/5/1
f 4/4/5 8/2/2 2/2/2
f 5/3/3 2/2/2 8/2/2
f 6/1/4 3/3/3 5/3/3
f 9/5/6 1/1/4 6/1/4
f 1/1/4 9/5/6 7/5/6
f 4/4/1 7/5/1 10/6/1
f 8/2/2 4/4/5 11/4/5
f 12/7/7 7/5/6 9/5/6
f 10/6/1 7/5/1 13/7/1
f 10/6/8 11/4/5 4/4/5
f 7/5/6 12/7/7 13/7/7
f 10/6/1 13/7/1 14/8/1
f 11/4/5 10/6/8 15/6/8
f 12/7/7 16/9/9 13/7/7
f 14/8/1 13/7/1 16/9/1
f 14/8/10 15/6/8 10/6/8
f 16/9/9 12/7/7 17/9/9
f 14/8/1 16/9/1 18/10/1
f 15/6/8 14/8/10 19/8/10
f 17/9/9 20/11/11 16/9/9
f 18/10/1 16/9/1 20/11/1
f 21/10/12 14/8/10 18/10/12
f 14/8/10 21/10/12 19/8/10
f 20/11/11 17/9/9 22/11/11
f 18/10/1 20/11/1 23/12/1
f 18/10/12 24/12/13 21/10/12
f 22/11/11 25/13/14 20/11/11
f 23/12/1 20/11/1 25/13/1
f 24/12/13 18/10/12 23/12/13
f 25/13/14 22/11/11 26/13/14
f 23/12/1 25/13/1 27/14/1
f 23/12/13 28/14/15 24/12/13
f 29/15/16 25/13/14 26/13/14
f 27/14/1 25/13/1 30/15/1
f 28/14/15 23/12/13 27/14/15
f 25/13/14 29/15/16 30/15/16
f 27/14/1 30/15/1 31/16/1
f 27/14/15 32/16/17 28/14/15
f 33/17/18 30/15/16 29/15/16
f 31/16/1 30/15/1 34/17/1
f 32/16/17 27/14/15 31/16/17
f 30/15/16 33/17/18 34/17/18
f 31/16/1 34/17/1 35/18/1
f 35/18/19 32/16/17 31/16/17
f 36/19/20 34/17/18 33/17/18
f 35/18/1 34/17/1 37/19/1
f 32/16/17 35/18/19 38/18/19
f 34/17/18 36/19/20 37/19/20
f 35/18/1 37/19/1 39/20/1
f 39/20/21 38/18/19 35/18/19
f 40/21/22 37/19/20 36/19/20
f 39/20/1 37/19/1 41/21/1
f 38/18/19 39/20/21 42/20/21
f 37/19/20 40/21/22 41/21/22
f 39/20/1 41/21/1 43/22/1
f 43/22/23 42/20/21 39/20/21
f 40/21/22 44/23/24 41/21/22
f 43/22/1 41/21/1 44/23/1
f 42/20/21 43/22/23 45/22/23
f 44/23/24 40/21/22 46/23/24
f 43/22/1 44/23/1 47/24/1
f 43/22/23 48/24/25 45/22/23
f 46/23/24 49/25/26 44/23/24
f 47/24/1 44/23/1 49/25/1
f 48/24/25 43/22/23 47/24/25
f 49/25/26 46/23/24 50/25/26
f 47/24/1 49/25/1 51/26/1
f 47/24/25 52/26/27 48/24/25
f 50/25/26 53/27/28 49/25/26
f 51/26/1 49/25/1 53/27/1
f 52/26/27 47/24/25 51/26/27
f 53/27/28 50/25/26 54/27/28
f 51/26/1 53/27/1 55/28/1
f 51/26/27 56/28/29 52/26/27
f 54/27/28 55/28/29 53/27/28
f 56/28/29 51/26/27 55/28/29
f 55/28/29 54/27/28 56/28/29
usemtl material_1_0
f 3/29/30 2/30/30 1/31/30
f 4/32/30 1/31/30 2/30/30
f 3/33/29 5/34/29 2/35/28
f 1/36/27 6/37/27 3/38/29
f 7/39/30 1/31/30 4/32/30
f 2/40/28 8/41/28 4/42/26
f 8/43/28 2/35/28 5/34/29
f 5/44/29 3/38/29 6/37/27
f 6/45/27 1/46/27 9/47/25
f 7/48/25 9/47/25 1/46/27
f 10/49/30 7/39/30 4/32/30
f 11/50/26 4/42/26 8/41/28
f 9/51/25 7/52/25 12/53/23
f 13/54/30 7/39/30 10/49/30
f 4/55/26 11/56/26 10/57/24
f 13/58/23 12/53/23 7/52/25
f 14/59/30 13/54/30 10/49/30
f 15/60/24 10/57/24 11/56/26
f 13/61/23 16/62/21 12/63/23
f 16/64/30 13/54/30 14/59/30
f 10/65/24 15/66/24 14/67/22
f 17/68/21 12/63/23 16/62/21
f 18/69/30 16/64/30 14/59/30
f 19/70/22 14/67/22 15/66/24
f 16/71/21 20/72/19 17/73/21
f 20/74/30 16/64/30 18/69/30
f 18/75/20 14/76/22 21/77/20
f 19/78/22 21/77/20 14/76/22
f 22/79/19 17/73/21 20/72/19
f 23/80/30 20/74/30 18/69/30
f 21/81/20 24/82/18 18/83/20
f 20/84/19 25/85/17 22/86/19
f 25/87/30 20/74/30 23/80/30
f 23/88/18 18/83/20 24/82/18
f 26/89/17 22/86/19 25/85/17
f 27/90/30 25/87/30 23/80/30
f 24/91/18 28/92/16 23/93/18
f 26/94/17 25/95/17 29/96/15
f 30/97/30 25/87/30 27/90/30
f 27/98/16 23/93/18 28/92/16
f 30/99/15 29/96/15 25/95/17
f 31/100/30 30/97/30 27/90/30
f 28/101/16 32/102/14 27/103/16
f 29/104/15 30/105/15 33/106/13
f 34/107/30 30/97/30 31/100/30
f 31/108/14 27/103/16 32/102/14
f 34/109/13 33/106/13 30/105/15
f 35/110/30 34/107/30 31/100/30
f 31/111/14 32/112/14 35/113/11
f 33/114/13 34/115/13 36/116/12
f 37/117/30 34/107/30 35/110/30
f 38/118/11 35/113/11 32/112/14
f 37/119/12 36/116/12 34/115/13
f 39/120/30 37/117/30 35/110/30
f 35/121/11 38/122/11 39/123/9
f 36/124/12 37/125/12 40/126/10
f 41/127/30 37/117/30 39/120/30
f 42/128/9 39/123/9 38/122/11
f 41/129/10 40/126/10 37/125/12
f 43/130/30 41/127/30 39/120/30
f 39/131/9 42/132/9 43/133/7
f 41/134/10 44/135/8 40/136/10
f 44/137/30 41/127/30 43/130/30
f 45/138/7 43/133/7 42/132/9
f 46/139/8 40/136/10 44/135/8
f 47/140/30 44/137/30 43/130/30
f 45/141/7 48/142/6 43/143/7
f 44/144/8 49/145/5 46/146/8
f 49/147/30 44/137/30 47/140/30
f 47/148/6 43/143/7 48/142/6
f 50/149/5 46/146/8 49/145/5
f 51/150/30 49/147/30 47/140/30
f 48/151/6 52/152/4 47/153/6
f 49/154/5 53/155/2 50/156/5
f 53/157/30 49/147/30 51/150/30
f 51/158/4 47/153/6 52/152/4
f 54/159/2 50/156/5 53/155/2
f 55/160/30 53/157/30 51/150/30
f 52/161/4 56/162/3 51/163/4
f 53/164/2 55/165/3 54/166/2
f 55/167/3 51/163/4 56/162/3
f 56/168/3 54/166/2 55/165/3
