# SSTK version 0.8.0
# 3
mtllib original-3.mtl
o mesh2/mesh2-geometry#mesh2-geometry
v -0.634189 -0.009696 0.282032
v -0.635408 0.002905 0.283943
v -0.635408 -0.009752 0.282534
v -0.634189 0.002961 0.283441
v -0.636716 0.002886 0.284114
v -0.633142 -0.009607 0.281233
v -0.635408 0.014053 0.183818
v -0.636716 -0.009771 0.282705
v -0.636716 0.014072 0.183647
v -0.633142 0.003050 0.282643
v -0.634189 0.013997 0.184320
v -0.732750 0.002886 0.284114
v -0.732750 0.014072 0.183647
v -0.632339 0.003166 0.281602
v -0.636716 0.001415 0.182237
v -0.635408 0.001396 0.182408
v -0.732750 -0.009771 0.282705
v -0.632339 -0.009491 0.280193
v -0.633142 0.013908 0.185118
v -0.634189 0.001340 0.182910
v -0.734058 -0.009752 0.282534
v -0.734058 0.014053 0.183818
v -0.732750 0.001415 0.182237
v -0.631834 0.003301 0.280391
v -0.632339 0.013792 0.186158
v -0.734058 0.002905 0.283943
v -0.631834 -0.009356 0.278981
v -0.632339 0.001135 0.184749
v -0.633142 0.001251 0.183709
v -0.735277 -0.009696 0.282032
v -0.735277 0.013997 0.184320
v -0.734058 0.001396 0.182408
v -0.631662 0.003446 0.279091
v -0.631834 0.013658 0.187370
v -0.631834 0.001000 0.185961
v -0.735277 0.002961 0.283441
v -0.631662 -0.009212 0.277681
v -0.736324 -0.009607 0.281233
v -0.736324 0.013908 0.185118
v -0.735277 0.001340 0.182910
v -0.631662 0.013513 0.188670
v -0.631662 0.000855 0.187261
v -0.736324 0.003050 0.282643
v -0.737127 0.003166 0.281602
v -0.737127 0.013792 0.186158
v -0.736324 0.001251 0.183709
v -0.737127 -0.009491 0.280193
v -0.737127 0.001135 0.184749
v -0.737632 0.003301 0.280391
v -0.737632 0.013658 0.187370
v -0.737632 0.001000 0.185961
v -0.737632 -0.009356 0.278981
v -0.737804 0.003446 0.279091
v -0.737804 0.013513 0.188670
v -0.737804 0.000855 0.187261
v -0.737804 -0.009212 0.277681
vt 1.15667 0.19609
vt 1.155985 0.195477
vt 1.155249 0.195268
vt 1.157258 0.197065
vt 1.155985 0.317758
vt 1.155249 0.317967
vt 1.15667 0.317145
vt 1.101272 0.195268
vt 1.101272 0.317967
vt 1.15771 0.198335
vt 1.157258 0.31617
vt 1.100537 0.195477
vt 1.100537 0.317758
vt 1.157993 0.199815
vt 1.15771 0.3149
vt 1.099852 0.19609
vt 1.099852 0.317145
vt 1.15809 0.201403
vt 1.157993 0.31342
vt 1.099263 0.197065
vt 1.099263 0.31617
vt 1.15809 0.311832
vt 1.098812 0.198335
vt 1.098812 0.3149
vt 1.098528 0.199815
vt 1.098528 0.31342
vt 1.098431 0.201403
vt 1.098431 0.311832
vt 0.191309 3.438165
vt 0.190655 3.547586
vt 0.1929 3.438648
vt 0.192246 3.548069
vt 0.176282 3.442624
vt 0.176505 3.333114
vt 0.17469 3.442459
vt 0.172177 3.521891
vt 0.171138 3.631161
vt 0.173766 3.522658
vt 0.157444 4.422454
vt 0.155973 4.418112
vt 0.155973 5.284472
vt 0.174914 3.33295
vt 0.154395 4.416631
vt 0.154395 5.285953
vt 0.172727 3.631928
vt 0.157444 5.28013
vt 0.154395 3.390659
vt 0.154395 3.281138
vt 0.038541 3.390659
vt 0.038541 5.285953
vt 0.117764 3.670795
vt 0.11935 3.671793
vt 0.119116 3.561699
vt 0.158707 4.429362
vt -0.759865 3.345646
vt -0.759642 3.236136
vt -0.761457 3.345481
vt -0.65078 3.292027
vt -0.650126 3.182605
vt -0.65237 3.291544
vt 0.038541 3.281138
vt 0.038541 4.416631
vt -0.80438 3.390659
vt -0.688526 3.390659
vt -0.80438 3.281138
vt 0.120701 3.562697
vt 0.159676 4.438364
vt 0.158707 5.273222
vt -0.761234 3.235971
vt -0.651716 3.182122
vt 0.010723 3.246385
vt 0.009132 3.24655
vt 0.010946 3.355894
vt 0.036963 5.284472
vt -0.688526 3.281138
vt 0.034458 3.656059
vt 0.036041 3.65722
vt 0.03603 3.547113
vt 0.159676 5.26422
vt -0.519517 3.297473
vt -0.518478 3.188203
vt -0.521105 3.296706
vt 0.009355 3.356059
vt 0.036963 4.418112
vt -0.725741 3.43221
vt -0.724149 3.432045
vt -0.725964 3.322701
vt 0.037613 3.548274
vt 0.160285 4.448847
vt -0.3769 3.35933
vt -0.375314 3.360329
vt -0.375548 3.250234
vt -0.520066 3.187436
vt -0.063243 3.201856
vt -0.064833 3.202339
vt -0.062589 3.311277
vt 0.035493 5.28013
vt -0.724372 3.322536
vt -0.072989 3.591065
vt -0.071407 3.59231
vt -0.071304 3.482205
vt 0.160285 5.253737
vt -0.373962 3.251232
vt -0.226499 3.354616
vt -0.228082 3.353454
vt -0.228071 3.463562
vt -0.064179 3.31176
vt 0.035493 4.422454
vt -0.777256 3.528335
vt -0.775666 3.527852
vt -0.77791 3.418914
vt -0.069722 3.48345
vt 0.160493 4.460097
vt -0.229655 3.462401
vt -0.154959 3.199534
vt -0.156547 3.200301
vt -0.15392 3.308804
vt 0.03423 5.273222
vt -0.77632 3.418431
vt -0.132769 3.545368
vt -0.023687 3.631942
vt -0.131069 3.43652
vt 0.160493 5.242487
vt -0.085951 3.47068
vt -0.087533 3.469435
vt -0.087637 3.579539
vt -0.155508 3.309571
vt 0.03423 4.429362
vt -0.797671 3.61983
vt -0.796083 3.619063
vt -0.79871 3.51056
vt -0.021986 3.523094
vt -0.089219 3.578294
vt -0.256601 3.348951
vt -0.257953 3.239855
vt -0.258187 3.349949
vt 0.033261 5.26422
vt -0.797122 3.509793
vt -0.259538 3.240853
vt 0.033261 4.438364
vt -0.784233 3.681174
vt -0.785584 3.572078
vt -0.785818 3.682172
vt -0.78717 3.573076
vt -0.363563 3.420777
vt -0.365135 3.311831
vt -0.365147 3.421938
vt 0.032652 5.253737
vt -0.744364 3.589897
vt -0.742792 3.698843
vt -0.742781 3.588736
vt -0.366719 3.312992
vt 0.032652 4.448847
vt -0.741209 3.697682
vt -0.467636 3.505014
vt -0.469322 3.396154
vt -0.469218 3.506259
vt 0.032444 5.242487
vt -0.673392 3.55673
vt -0.671707 3.66559
vt -0.67181 3.555486
vt -0.470904 3.397399
vt 0.032444 4.460097
vt -0.670125 3.664345
vt -0.517216 3.545368
vt -0.518916 3.43652
vt -0.626298 3.631942
vt -0.627998 3.523094
vn 0.5000001136417888 -0.09582802178013086 0.8607071956245661
vn 0.2588190625409164 -0.1068820258269226 0.9599942319725542
vn 0.06540301236686057 -0.11041602087823633 0.9917311875234928
vn 0.7071066741218326 -0.07824296394083871 0.7027646761228917
vn 0 0.9938591002356646 0.11065301115991022
vn -0.06540301236686057 -0.11041602087823633 0.9917311875234928
vn 0.8660251334540503 -0.05532600852571102 0.4969300765766822
vn 0.2588190625409164 0.1068820258269226 -0.9599942319725542
vn 0.06540301236686057 0.11041602087823633 -0.9917311875234928
vn 0.5000001136417888 0.09582802178013086 -0.8607071956245661
vn -0.06540301236686057 0.11041602087823633 -0.9917311875234928
vn -0.2588190625409164 -0.1068820258269226 0.9599942319725542
vn 0.9659257572160402 -0.028638992801633078 0.2572299353456497
vn 0.7071066741218326 0.07824296394083871 -0.7027646761228917
vn -0.2588190625409164 0.1068820258269226 -0.9599942319725542
vn 0.8660251334540503 0.05532600852571102 -0.4969300765766822
vn -0.5000001136417888 -0.09582802178013086 0.8607071956245661
vn 0.9978589560687615 -0.0072369996813874925 0.06500099713829867
vn 0.9659257572160402 0.028638992801633078 -0.2572299353456497
vn -0.5000001136417888 0.09582802178013086 -0.8607071956245661
vn -0.7071066741218326 -0.07824296394083871 0.7027646761228917
vn 0.9978589560687615 0.0072369996813874925 -0.06500099713829867
vn -0.7071066741218326 0.07824296394083871 -0.7027646761228917
vn -0.8660251334540503 -0.05532600852571102 0.4969300765766822
vn -0.8660251334540503 0.05532600852571102 -0.4969300765766822
vn -0.9659257572160402 -0.028638992801633078 0.2572299353456497
vn -0.9659257572160402 0.028638992801633078 -0.2572299353456497
vn -0.9978589560687615 -0.0072369996813874925 0.06500099713829867
vn -0.9978589560687615 0.0072369996813874925 -0.06500099713829867
vn 0 -0.9938591002356646 -0.11065301115991022
usemtl material_0_0
f 1/1/1 2/2/2 3/2/2
f 2/2/2 1/1/1 4/1/1
f 5/3/3 3/2/2 2/2/2
f 6/4/4 4/1/1 1/1/1
f 7/5/5 2/2/5 4/1/5
f 3/2/2 5/3/3 8/3/3
f 9/6/5 5/3/5 2/2/5
f 4/1/1 6/4/4 10/4/4
f 9/6/5 2/2/5 7/5/5
f 7/5/5 4/1/5 11/7/5
f 12/8/6 8/3/3 5/3/3
f 13/9/5 5/3/5 9/6/5
f 6/4/4 14/10/7 10/4/4
f 11/7/5 4/1/5 10/4/5
f 7/5/8 15/6/9 9/6/9
f 11/7/10 16/5/8 7/5/8
f 8/3/3 12/8/6 17/8/6
f 13/9/5 12/8/5 5/3/5
f 15/6/9 13/9/11 9/6/9
f 14/10/7 6/4/4 18/10/7
f 19/11/5 10/4/5 14/10/5
f 11/7/5 10/4/5 19/11/5
f 15/6/9 7/5/8 16/5/8
f 16/5/8 11/7/10 20/7/10
f 12/8/6 21/12/12 17/8/6
f 22/13/5 12/8/5 13/9/5
f 13/9/11 15/6/9 23/9/11
f 18/10/7 24/14/13 14/10/7
f 19/11/5 14/10/5 25/15/5
f 19/11/14 20/7/10 11/7/10
f 21/12/12 12/8/6 26/12/12
f 22/13/5 26/12/5 12/8/5
f 23/9/11 22/13/15 13/9/11
f 24/14/13 18/10/7 27/14/13
f 25/15/5 14/10/5 24/14/5
f 28/15/16 19/11/14 25/15/16
f 20/7/10 19/11/14 29/11/14
f 26/12/12 30/16/17 21/12/12
f 31/17/5 26/12/5 22/13/5
f 22/13/15 23/9/11 32/13/15
f 27/14/13 33/18/18 24/14/13
f 25/15/5 24/14/5 34/19/5
f 19/11/14 28/15/16 29/11/14
f 25/15/16 35/19/19 28/15/16
f 30/16/17 26/12/12 36/16/17
f 31/17/5 36/16/5 26/12/5
f 32/13/15 31/17/20 22/13/15
f 33/18/18 27/14/13 37/18/18
f 34/19/5 24/14/5 33/18/5
f 35/19/19 25/15/16 34/19/19
f 36/16/17 38/20/21 30/16/17
f 39/21/5 36/16/5 31/17/5
f 31/17/20 32/13/15 40/17/20
f 37/18/18 41/22/22 33/18/18
f 34/19/5 33/18/5 41/22/5
f 34/19/19 42/22/22 35/19/19
f 38/20/21 36/16/17 43/20/21
f 39/21/5 43/20/5 36/16/5
f 40/17/20 39/21/23 31/17/20
f 41/22/22 37/18/18 42/22/22
f 42/22/22 34/19/19 41/22/22
f 44/23/24 38/20/21 43/20/21
f 45/24/5 43/20/5 39/21/5
f 39/21/23 40/17/20 46/21/23
f 38/20/21 44/23/24 47/23/24
f 45/24/5 44/23/5 43/20/5
f 39/21/23 48/24/25 45/24/25
f 48/24/25 39/21/23 46/21/23
f 49/25/26 47/23/24 44/23/24
f 50/26/5 44/23/5 45/24/5
f 51/26/27 45/24/25 48/24/25
f 47/23/24 49/25/26 52/25/26
f 50/26/5 49/25/5 44/23/5
f 45/24/25 51/26/27 50/26/27
f 53/27/28 52/25/26 49/25/26
f 54/28/5 49/25/5 50/26/5
f 55/28/29 50/26/27 51/26/27
f 52/25/26 53/27/28 56/27/28
f 49/25/5 54/28/5 53/27/5
f 50/26/27 55/28/29 54/28/29
f 54/28/29 56/27/28 53/27/28
f 56/27/28 54/28/29 55/28/29
usemtl material_1_0
f 3/29/15 2/30/15 1/31/20
f 4/32/20 1/31/20 2/30/15
f 2/33/15 3/34/15 5/35/11
f 1/36/20 4/37/20 6/38/23
f 4/39/30 2/40/30 7/41/30
f 8/42/11 5/35/11 3/34/15
f 2/40/30 5/43/30 9/44/30
f 10/45/23 6/38/23 4/37/20
f 7/41/30 2/40/30 9/44/30
f 11/46/30 4/39/30 7/41/30
f 5/47/11 8/48/11 12/49/9
f 9/44/30 5/43/30 13/50/30
f 10/51/23 14/52/25 6/53/23
f 10/54/30 4/39/30 11/46/30
f 9/55/6 15/56/6 7/57/12
f 7/58/12 16/59/12 11/60/17
f 17/61/9 12/49/9 8/48/11
f 5/43/30 12/62/30 13/50/30
f 9/63/6 13/64/3 15/65/6
f 18/66/25 6/53/23 14/52/25
f 14/67/30 10/54/30 19/68/30
f 19/68/30 10/54/30 11/46/30
f 16/69/12 7/57/12 15/56/6
f 20/70/17 11/60/17 16/59/12
f 17/71/9 21/72/8 12/73/9
f 13/50/30 12/62/30 22/74/30
f 23/75/3 15/65/6 13/64/3
f 14/76/25 24/77/27 18/78/25
f 25/79/30 14/67/30 19/68/30
f 11/80/17 20/81/17 19/82/21
f 26/83/8 12/73/9 21/72/8
f 12/62/30 26/84/30 22/74/30
f 13/85/3 22/86/2 23/87/3
f 27/88/27 18/78/25 24/77/27
f 24/89/30 14/67/30 25/79/30
f 25/90/24 19/91/21 28/92/24
f 29/93/21 19/82/21 20/81/17
f 21/94/8 30/95/10 26/96/8
f 22/74/30 26/84/30 31/97/30
f 32/98/2 23/87/3 22/86/2
f 24/99/27 33/100/29 27/101/27
f 34/102/30 24/89/30 25/79/30
f 29/103/21 28/92/24 19/91/21
f 28/104/24 35/105/26 25/106/24
f 36/107/10 26/96/8 30/95/10
f 26/84/30 36/108/30 31/97/30
f 22/109/2 31/110/1 32/111/2
f 37/112/29 27/101/27 33/100/29
f 33/113/30 24/89/30 34/102/30
f 34/114/26 25/106/24 35/105/26
f 30/115/10 38/116/14 36/117/10
f 31/97/30 36/108/30 39/118/30
f 40/119/1 32/111/2 31/110/1
f 33/120/29 41/121/28 37/122/29
f 41/123/30 33/113/30 34/102/30
f 35/124/26 42/125/28 34/126/26
f 43/127/14 36/117/10 38/116/14
f 36/108/30 43/128/30 39/118/30
f 31/129/1 39/130/4 40/131/1
f 42/132/28 37/122/29 41/121/28
f 41/133/28 34/126/26 42/125/28
f 43/134/14 38/135/14 44/136/16
f 39/118/30 43/128/30 45/137/30
f 46/138/4 40/131/1 39/130/4
f 47/139/16 44/136/16 38/135/14
f 43/128/30 44/140/30 45/137/30
f 45/141/7 48/142/7 39/143/4
f 46/144/4 39/143/4 48/142/7
f 44/145/16 47/146/16 49/147/19
f 45/137/30 44/140/30 50/148/30
f 48/149/7 45/150/7 51/151/13
f 52/152/19 49/147/19 47/146/16
f 44/140/30 49/153/30 50/148/30
f 50/154/13 51/151/13 45/150/7
f 49/155/19 52/156/19 53/157/22
f 50/148/30 49/153/30 54/158/30
f 51/159/13 50/160/13 55/161/18
f 56/162/22 53/157/22 52/156/19
f 53/163/30 54/158/30 49/153/30
f 54/164/18 55/161/18 50/160/13
f 53/165/22 56/166/22 54/167/18
f 55/168/18 54/167/18 56/166/22
