# SSTK version 0.8.0
# 68
mtllib original-68.mtl
o mesh67/mesh67-geometry#mesh67-geometry
v -0.371964 -0.012214 0.419745
v -0.373272 -0.024853 0.418165
v -0.371964 -0.024872 0.418336
v -0.373272 -0.012195 0.419574
v 0.204239 -0.024872 0.418336
v -0.373272 0.000630 0.304379
v -0.374491 -0.024797 0.417663
v 0.204239 -0.012214 0.419745
v -0.374491 0.000574 0.304880
v -0.371964 0.000649 0.304207
v -0.374491 -0.012139 0.419072
v 0.205547 -0.024853 0.418165
v -0.373272 -0.012027 0.302969
v -0.371964 -0.012008 0.302798
v -0.375538 -0.024708 0.416864
v 0.205547 -0.012195 0.419574
v 0.204239 0.000649 0.304207
v -0.375538 0.000485 0.305679
v -0.374491 -0.012083 0.303471
v 0.204239 -0.012008 0.302798
v -0.375538 -0.012051 0.418274
v 0.206766 -0.024797 0.417663
v -0.376341 -0.011935 0.417233
v 0.206766 -0.012139 0.419072
v 0.205547 0.000630 0.304379
v -0.376341 0.000370 0.306719
v -0.375538 -0.012172 0.304270
v -0.376341 -0.024592 0.415824
v 0.207813 -0.024708 0.416864
v 0.205547 -0.012027 0.302969
v -0.376341 -0.012288 0.305310
v -0.376846 -0.011800 0.416022
v -0.376846 0.000235 0.307931
v 0.207813 -0.012051 0.418274
v 0.206766 0.000574 0.304880
v -0.376846 -0.012423 0.306521
v -0.376846 -0.024457 0.414613
v 0.208616 -0.011935 0.417233
v 0.206766 -0.012083 0.303471
v -0.377018 -0.011655 0.414722
v -0.377018 0.000090 0.309231
v -0.377018 -0.012567 0.307822
v 0.208616 -0.024592 0.415824
v 0.207813 0.000485 0.305679
v -0.377018 -0.024312 0.413312
v 0.209121 -0.011800 0.416022
v 0.208616 0.000370 0.306719
v 0.207813 -0.012172 0.304270
v 0.209121 -0.024457 0.414613
v 0.208616 -0.012288 0.305310
v 0.209294 -0.011655 0.414722
v 0.209121 0.000235 0.307931
v 0.209121 -0.012423 0.306521
v 0.209294 -0.024312 0.413312
v 0.209294 0.000090 0.309231
v 0.209294 -0.012567 0.307822
vt 1.304057 0.029624
vt 1.303322 0.029833
vt 1.627921 0.029624
vt 1.303322 0.170519
vt 1.302637 0.030445
vt 1.302637 0.169906
vt 1.304057 0.170728
vt 1.628656 0.029833
vt 1.302049 0.03142
vt 1.627921 0.170728
vt 1.302049 0.168931
vt 1.629342 0.030445
vt 1.301597 0.032691
vt 1.628656 0.170519
vt 1.301597 0.16766
vt 1.62993 0.03142
vt 1.301313 0.034171
vt 1.301313 0.166181
vt 1.629342 0.169906
vt 1.630381 0.032691
vt 1.301217 0.035758
vt 1.301217 0.164593
vt 1.62993 0.168931
vt 1.630665 0.034171
vt 1.630381 0.16766
vt 1.630762 0.035758
vt 1.630665 0.166181
vt 1.630762 0.164593
vt 0.028912 4.344691
vt 0.027321 4.344856
vt 0.029136 4.4542
vt 0.027544 4.454365
vt 0.038541 4.411256
vt 0.038541 4.520777
vt 0.733663 4.411256
vt 0.038541 4.416631
vt 0.036963 4.418112
vt 0.036963 5.41487
vt -0.024862 4.232571
vt -0.026452 4.233054
vt -0.024208 4.341993
vt 0.733663 4.520777
vt 0.035493 5.410528
vt 0.038541 5.416351
vt -0.025798 4.342476
vt 0.725973 4.550082
vt 0.725749 4.659592
vt 0.727564 4.550247
vt 0.733663 4.416631
vt 0.035493 4.422454
vt -1.279213 4.723162
vt -1.277623 4.722679
vt -1.279867 4.61374
vt -1.282746 4.590102
vt -1.281154 4.589937
vt -1.282969 4.480592
vt -0.118895 4.172644
vt -0.120483 4.173412
vt -0.117856 4.281914
vt 0.727341 4.659757
vt 0.733663 5.416351
vt 0.03423 5.40362
vt -1.278277 4.613257
vt -1.281378 4.480428
vt -1.266337 4.411256
vt -1.961459 4.411256
vt -1.266337 4.520777
vt -0.119444 4.282682
vt 0.643151 4.793262
vt 0.642497 4.902683
vt 0.644741 4.793745
vt 0.735241 4.418112
vt -1.961459 4.520777
vt 0.03423 4.429362
vt -1.230076 4.81928
vt -1.228488 4.818513
vt -1.231115 4.71001
vt -0.245026 4.289873
vt -0.246378 4.180776
vt -0.246612 4.290871
vt 0.644087 4.903166
vt 0.735241 5.41487
vt -1.92773 4.38471
vt -1.927506 4.275201
vt -1.929321 4.384545
vt 0.033261 5.394618
vt -1.229527 4.709243
vt -0.247964 4.181775
vt 0.033261 4.438364
vt 0.474174 4.937502
vt 0.473135 5.046772
vt 0.475762 4.938269
vt 0.736712 4.422454
vt -1.929098 4.275036
vt -1.137499 4.851817
vt -1.138851 4.742721
vt -1.139085 4.852816
vt -1.140436 4.74372
vt -0.39679 4.363421
vt -0.398362 4.254475
vt -0.398373 4.364582
vt 0.032652 5.384135
vt 0.474723 5.047539
vt 0.736712 5.410528
vt -1.794666 4.162471
vt -1.794012 4.05305
vt -1.796257 4.161988
vt -1.01436 4.706151
vt -1.012788 4.815097
vt -1.012777 4.70499
vt -0.399945 4.255636
vt 0.032652 4.448847
vt -1.011205 4.813936
vt 0.230032 5.053512
vt 0.231617 5.05451
vt 0.231384 4.944416
vt 0.737975 4.429362
vt -1.795603 4.052567
vt -0.562828 4.482706
vt -0.564514 4.373846
vt -0.56441 4.483951
vt 0.032444 5.372885
vt -0.861575 4.607594
vt -0.85989 4.716454
vt -0.859993 4.606349
vt 0.232969 4.945414
vt 0.738944 4.438364
vt 0.737975 5.40362
vt -1.580794 4.054423
vt -1.579755 3.945153
vt -1.582382 4.053655
vt -0.566096 4.375091
vt 0.032444 4.460097
vt -0.858307 4.715209
vt -0.069656 4.921675
vt -0.068072 4.922836
vt -0.068084 4.812728
vt 0.738944 5.394618
vt -1.581343 3.944385
vt -0.648558 4.550436
vt -0.650258 4.441588
vt -0.775821 4.651439
vt -0.777521 4.54259
vt -0.0665 4.81389
vt 0.739553 4.448847
vt -1.303097 4.088178
vt -1.301512 4.089176
vt -1.301746 3.979082
vt -1.30016 3.98008
vt -0.405491 4.686879
vt -0.403909 4.688124
vt -0.403805 4.578019
vt 0.739553 5.384135
vt -0.974785 4.147897
vt -0.976368 4.146736
vt -0.976357 4.256843
vt -0.402223 4.579264
vt 0.739761 4.460097
vt -0.97794 4.255682
vt -0.579237 4.550436
vt -0.451975 4.651439
vt -0.577537 4.441588
vt 0.739761 5.372885
vt -0.625697 4.403421
vt -0.627279 4.402176
vt -0.627382 4.512281
vt -0.450275 4.54259
vt -0.628964 4.511036
vn -0.06540301236686057 -0.11041602087823633 0.9917311875234928
vn -0.2588190625409164 -0.1068820258269226 0.9599942319725542
vn 0.06540301236686057 -0.11041602087823633 0.9917311875234928
vn 0 0.9938591002356646 0.11065301115991022
vn -0.5000001136417888 -0.09582802178013086 0.8607071956245661
vn 0.2588190625409164 -0.1068820258269226 0.9599942319725542
vn -0.2588190625409164 0.1068820258269226 -0.9599942319725542
vn -0.5000001136417888 0.09582802178013086 -0.8607071956245661
vn -0.06540301236686057 0.11041602087823633 -0.9917311875234928
vn -0.7071066741218326 -0.07824296394083871 0.7027646761228917
vn 0.06540301236686057 0.11041602087823633 -0.9917311875234928
vn 0.5000001136417888 -0.09582802178013086 0.8607071956245661
vn -0.7071066741218326 0.07824296394083871 -0.7027646761228917
vn -0.8660251334540503 -0.05532600852571102 0.4969300765766822
vn 0.2588190625409164 0.1068820258269226 -0.9599942319725542
vn 0.7071066741218326 -0.07824296394083871 0.7027646761228917
vn -0.8660251334540503 0.05532600852571102 -0.4969300765766822
vn -0.9659257572160402 -0.028638992801633078 0.2572299353456497
vn 0.5000001136417888 0.09582802178013086 -0.8607071956245661
vn -0.9659257572160402 0.028638992801633078 -0.2572299353456497
vn 0.8660251334540503 -0.05532600852571102 0.4969300765766822
vn -0.9978589560687615 -0.0072369996813874925 0.06500099713829867
vn -0.9978589560687615 0.0072369996813874925 -0.06500099713829867
vn 0.7071066741218326 0.07824296394083871 -0.7027646761228917
vn 0.9659257572160402 -0.028638992801633078 0.2572299353456497
vn 0.8660251334540503 0.05532600852571102 -0.4969300765766822
vn 0.9978589560687615 -0.0072369996813874925 0.06500099713829867
vn 0.9659257572160402 0.028638992801633078 -0.2572299353456497
vn 0.9978589560687615 0.0072369996813874925 -0.06500099713829867
vn 0 -0.9938591002356646 -0.11065301115991022
usemtl material_0_0
f 1/1/1 2/2/2 3/1/1
f 2/2/2 1/1/1 4/2/2
f 5/3/3 1/1/1 3/1/1
f 6/4/4 4/2/4 1/1/4
f 4/2/2 7/5/5 2/2/2
f 1/1/1 5/3/3 8/3/3
f 9/6/4 4/2/4 6/4/4
f 6/4/4 1/1/4 10/7/4
f 7/5/5 4/2/2 11/5/5
f 12/8/6 8/3/3 5/3/3
f 10/7/4 1/1/4 8/3/4
f 9/6/4 11/5/4 4/2/4
f 13/4/7 9/6/8 6/4/7
f 14/7/9 6/4/7 10/7/9
f 11/5/5 15/9/10 7/5/5
f 8/3/3 12/8/6 16/8/6
f 10/7/4 8/3/4 17/10/4
f 18/11/4 11/5/4 9/6/4
f 9/6/8 13/4/7 19/6/8
f 6/4/7 14/7/9 13/4/7
f 10/7/9 20/10/11 14/7/9
f 15/9/10 11/5/5 21/9/10
f 22/12/12 16/8/6 12/8/6
f 17/10/4 8/3/4 16/8/4
f 20/10/11 10/7/9 17/10/11
f 18/11/4 21/9/4 11/5/4
f 19/6/8 18/11/13 9/6/8
f 23/13/14 15/9/10 21/9/10
f 16/8/6 22/12/12 24/12/12
f 17/10/4 16/8/4 25/14/4
f 25/14/15 20/10/11 17/10/11
f 26/15/4 21/9/4 18/11/4
f 18/11/13 19/6/8 27/11/13
f 15/9/10 23/13/14 28/13/14
f 26/15/4 23/13/4 21/9/4
f 29/16/16 24/12/12 22/12/12
f 25/14/4 16/8/4 24/12/4
f 20/10/11 25/14/15 30/14/15
f 18/11/13 31/15/17 26/15/17
f 31/15/17 18/11/13 27/11/13
f 32/17/18 28/13/14 23/13/14
f 33/18/4 23/13/4 26/15/4
f 24/12/12 29/16/16 34/16/16
f 25/14/4 24/12/4 35/19/4
f 35/19/19 30/14/15 25/14/15
f 36/18/20 26/15/17 31/15/17
f 28/13/14 32/17/18 37/17/18
f 33/18/4 32/17/4 23/13/4
f 26/15/17 36/18/20 33/18/20
f 29/16/16 38/20/21 34/16/16
f 35/19/4 24/12/4 34/16/4
f 30/14/15 35/19/19 39/19/19
f 40/21/22 37/17/18 32/17/18
f 41/22/4 32/17/4 33/18/4
f 42/22/23 33/18/20 36/18/20
f 38/20/21 29/16/16 43/20/21
f 44/23/4 34/16/4 38/20/4
f 35/19/4 34/16/4 44/23/4
f 44/23/24 39/19/19 35/19/19
f 37/17/18 40/21/22 45/21/22
f 32/17/4 41/22/4 40/21/4
f 33/18/20 42/22/23 41/22/23
f 43/20/21 46/24/25 38/20/21
f 44/23/4 38/20/4 47/25/4
f 39/19/19 44/23/24 48/23/24
f 41/22/23 45/21/22 40/21/22
f 45/21/22 41/22/23 42/22/23
f 46/24/25 43/20/21 49/24/25
f 47/25/4 38/20/4 46/24/4
f 50/25/26 44/23/24 47/25/26
f 44/23/24 50/25/26 48/23/24
f 49/24/25 51/26/27 46/24/25
f 47/25/4 46/24/4 52/27/4
f 47/25/26 53/27/28 50/25/26
f 51/26/27 49/24/25 54/26/27
f 52/27/4 46/24/4 51/26/4
f 53/27/28 47/25/26 52/27/28
f 54/26/27 55/28/29 51/26/27
f 52/27/4 51/26/4 55/28/4
f 52/27/28 56/28/29 53/27/28
f 55/28/29 54/26/27 56/28/29
f 56/28/29 52/27/28 55/28/29
usemtl material_1_0
f 3/29/11 2/30/15 1/31/11
f 4/32/15 1/31/11 2/30/15
f 3/33/11 1/34/11 5/35/9
f 1/36/30 4/37/30 6/38/30
f 2/39/15 7/40/19 4/41/15
f 8/42/9 5/35/9 1/34/11
f 6/38/30 4/37/30 9/43/30
f 10/44/30 1/36/30 6/38/30
f 11/45/19 4/41/15 7/40/19
f 5/46/9 8/47/9 12/48/7
f 8/49/30 1/36/30 10/44/30
f 4/37/30 11/50/30 9/43/30
f 6/51/6 9/52/12 13/53/6
f 10/54/3 6/55/6 14/56/3
f 7/57/19 15/58/24 11/59/19
f 16/60/7 12/48/7 8/47/9
f 17/61/30 8/49/30 10/44/30
f 9/43/30 11/50/30 18/62/30
f 19/63/12 13/53/6 9/52/12
f 13/64/6 14/56/3 6/55/6
f 14/65/3 20/66/1 10/67/3
f 21/68/24 11/59/19 15/58/24
f 12/69/7 16/70/7 22/71/8
f 16/72/30 8/49/30 17/61/30
f 17/73/1 10/67/3 20/66/1
f 11/50/30 21/74/30 18/62/30
f 9/75/12 18/76/16 19/77/12
f 21/78/24 15/79/24 23/80/26
f 24/81/8 22/71/8 16/70/7
f 25/82/30 16/72/30 17/61/30
f 17/83/1 20/84/1 25/85/2
f 18/62/30 21/74/30 26/86/30
f 27/87/16 19/77/12 18/76/16
f 28/88/26 23/80/26 15/79/24
f 21/74/30 23/89/30 26/86/30
f 22/90/8 24/91/8 29/92/13
f 24/93/30 16/72/30 25/82/30
f 30/94/2 25/85/2 20/84/1
f 26/95/21 31/96/21 18/97/16
f 27/98/16 18/97/16 31/96/21
f 23/99/26 28/100/26 32/101/28
f 26/86/30 23/89/30 33/102/30
f 34/103/13 29/92/13 24/91/8
f 35/104/30 24/93/30 25/82/30
f 25/105/2 30/106/2 35/107/5
f 31/108/21 26/109/21 36/110/25
f 37/111/28 32/101/28 28/100/26
f 23/89/30 32/112/30 33/102/30
f 33/113/25 36/110/25 26/109/21
f 34/114/13 38/115/17 29/116/13
f 34/117/30 24/93/30 35/104/30
f 39/118/5 35/107/5 30/106/2
f 32/119/28 37/120/28 40/121/29
f 33/102/30 32/112/30 41/122/30
f 36/123/25 33/124/25 42/125/27
f 43/126/17 29/116/13 38/115/17
f 38/127/30 34/117/30 44/128/30
f 44/128/30 34/117/30 35/104/30
f 35/129/5 39/130/5 44/131/10
f 45/132/29 40/121/29 37/120/28
f 40/133/30 41/122/30 32/112/30
f 41/134/27 42/125/27 33/124/25
f 38/135/17 46/136/20 43/137/17
f 47/138/30 38/127/30 44/128/30
f 48/139/10 44/131/10 39/130/5
f 40/140/29 45/141/29 41/142/27
f 42/143/27 41/142/27 45/141/29
f 49/144/20 43/137/17 46/136/20
f 46/145/30 38/127/30 47/138/30
f 47/146/14 44/147/10 50/148/14
f 48/149/10 50/148/14 44/147/10
f 46/150/20 51/151/23 49/152/20
f 52/153/30 46/145/30 47/138/30
f 50/154/14 53/155/18 47/156/14
f 54/157/23 49/152/20 51/151/23
f 51/158/30 46/145/30 52/153/30
f 52/159/18 47/156/14 53/155/18
f 51/160/23 55/161/22 54/162/23
f 55/163/30 51/158/30 52/153/30
f 53/164/18 56/165/22 52/166/18
f 56/167/22 54/162/23 55/161/22
f 55/168/22 52/166/18 56/165/22
