# SSTK version 0.8.0
# 12
mtllib original-12.mtl
o mesh11/mesh11-geometry#mesh11-geometry
v 0.219402 0.048954 -0.244749
v 0.219230 0.061756 -0.244640
v 0.219402 0.061611 -0.243340
v 0.219230 0.049099 -0.246050
v 0.219402 0.055459 -0.188083
v 0.219402 0.042802 -0.189492
v 0.218725 0.061891 -0.245852
v 0.219230 0.055314 -0.186783
v 0.218725 0.049234 -0.247261
v 0.218725 0.055179 -0.185571
v 0.219230 0.042657 -0.188192
v 0.217922 0.062007 -0.246892
v 0.218725 0.042522 -0.186981
v 0.217922 0.049349 -0.248301
v 0.217922 0.055064 -0.184531
v 0.217922 0.042406 -0.185940
v 0.216875 0.049438 -0.249100
v 0.216875 0.062096 -0.247691
v 0.216875 0.054975 -0.183733
v 0.215656 0.049494 -0.249602
v 0.215656 0.062151 -0.248192
v 0.216875 0.042317 -0.185142
v 0.215656 0.054919 -0.183231
v 0.214348 0.049513 -0.249773
v 0.214348 0.062171 -0.248364
v 0.215656 0.042262 -0.184640
v 0.214348 0.054900 -0.183060
v 0.113260 0.049513 -0.249773
v 0.113260 0.062171 -0.248364
v 0.214348 0.042242 -0.184469
v 0.113260 0.054900 -0.183060
v 0.113260 0.042242 -0.184469
v 0.111952 0.062151 -0.248192
v 0.111952 0.049494 -0.249602
v 0.111952 0.054919 -0.183231
v 0.111952 0.042262 -0.184640
v 0.110733 0.062096 -0.247691
v 0.110733 0.049438 -0.249100
v 0.110733 0.054975 -0.183733
v 0.110733 0.042317 -0.185142
v 0.109686 0.062007 -0.246892
v 0.109686 0.049349 -0.248301
v 0.109686 0.055064 -0.184531
v 0.109686 0.042406 -0.185940
v 0.108883 0.049234 -0.247261
v 0.108883 0.061891 -0.245852
v 0.108883 0.055179 -0.185571
v 0.108378 0.049099 -0.246050
v 0.108378 0.061756 -0.244640
v 0.108883 0.042522 -0.186981
v 0.108378 0.055314 -0.186783
v 0.108205 0.048954 -0.244749
v 0.108205 0.061611 -0.243340
v 0.108378 0.042657 -0.188192
v 0.108205 0.055459 -0.188083
v 0.108205 0.042802 -0.189492
vt 1.636444 0.839439
vt 1.636347 0.841027
vt 1.636444 0.771955
vt 1.636063 0.842507
vt 1.636347 0.770367
vt 1.636063 0.768887
vt 1.635612 0.843778
vt 1.635612 0.767617
vt 1.635023 0.844753
vt 1.635023 0.766642
vt 1.634338 0.845365
vt 1.634338 0.766029
vt 1.633603 0.845574
vt 1.633603 0.76582
vt 1.576785 0.845574
vt 1.576785 0.76582
vt 1.576049 0.845365
vt 1.576049 0.766029
vt 1.575364 0.844753
vt 1.575364 0.766642
vt 1.574776 0.843778
vt 1.574776 0.767617
vt 1.574324 0.842507
vt 1.574324 0.768887
vt 1.574041 0.841027
vt 1.574041 0.770367
vt 1.573944 0.839439
vt 1.573944 0.771955
vn 0.9978589560687615 0.0072369996813874925 -0.06500099713829867
vn 0.9659257572160402 0.028638992801633078 -0.2572299353456497
vn 0 0.9938591002356646 0.11065301115991022
vn 0.9978589560687615 -0.0072369996813874925 0.06500099713829867
vn 0.8660251334540503 0.05532600852571102 -0.4969300765766822
vn 0.9659257572160402 -0.028638992801633078 0.2572299353456497
vn 0.7071066741218326 0.07824296394083871 -0.7027646761228917
vn 0.8660251334540503 -0.05532600852571102 0.4969300765766822
vn 0.7071066741218326 -0.07824296394083871 0.7027646761228917
vn 0.5000001136417888 0.09582802178013086 -0.8607071956245661
vn 0.5000001136417888 -0.09582802178013086 0.8607071956245661
vn 0.2588190625409164 0.1068820258269226 -0.9599942319725542
vn 0.2588190625409164 -0.1068820258269226 0.9599942319725542
vn 0.06540301236686057 0.11041602087823633 -0.9917311875234928
vn 0.06540301236686057 -0.11041602087823633 0.9917311875234928
vn -0.06540301236686057 0.11041602087823633 -0.9917311875234928
vn -0.06540301236686057 -0.11041602087823633 0.9917311875234928
vn -0.2588190625409164 0.1068820258269226 -0.9599942319725542
vn -0.2588190625409164 -0.1068820258269226 0.9599942319725542
vn -0.5000001136417888 0.09582802178013086 -0.8607071956245661
vn -0.5000001136417888 -0.09582802178013086 0.8607071956245661
vn -0.7071066741218326 0.07824296394083871 -0.7027646761228917
vn -0.7071066741218326 -0.07824296394083871 0.7027646761228917
vn -0.8660251334540503 0.05532600852571102 -0.4969300765766822
vn -0.8660251334540503 -0.05532600852571102 0.4969300765766822
vn -0.9659257572160402 0.028638992801633078 -0.2572299353456497
vn -0.9659257572160402 -0.028638992801633078 0.2572299353456497
vn -0.9978589560687615 0.0072369996813874925 -0.06500099713829867
vn -0.9978589560687615 -0.0072369996813874925 0.06500099713829867
vn 0 -0.9938591002356646 -0.11065301115991022
usemtl material_0_0
f 1/1/1 2/2/2 3/1/1
f 2/2/2 1/1/1 4/2/2
f 2/2/3 5/3/3 3/1/3
f 3/1/1 6/3/4 1/1/1
f 4/2/2 7/4/5 2/2/2
f 2/2/3 8/5/3 5/3/3
f 6/3/4 3/1/1 5/3/4
f 7/4/5 4/2/2 9/4/5
f 7/4/3 10/6/3 2/2/3
f 2/2/3 10/6/3 8/5/3
f 11/5/6 5/3/4 8/5/6
f 5/3/4 11/5/6 6/3/4
f 9/4/5 12/7/7 7/4/5
f 12/7/3 10/6/3 7/4/3
f 13/6/8 8/5/6 10/6/8
f 8/5/6 13/6/8 11/5/6
f 12/7/7 9/4/5 14/7/7
f 12/7/3 15/8/3 10/6/3
f 10/6/8 16/8/9 13/6/8
f 17/9/10 12/7/7 14/7/7
f 18/9/3 15/8/3 12/7/3
f 16/8/9 10/6/8 15/8/9
f 12/7/7 17/9/10 18/9/10
f 18/9/3 19/10/3 15/8/3
f 19/10/11 16/8/9 15/8/9
f 20/11/12 18/9/10 17/9/10
f 21/11/3 19/10/3 18/9/3
f 16/8/9 19/10/11 22/10/11
f 18/9/10 20/11/12 21/11/12
f 21/11/3 23/12/3 19/10/3
f 23/12/13 22/10/11 19/10/11
f 24/13/14 21/11/12 20/11/12
f 25/13/3 23/12/3 21/11/3
f 22/10/11 23/12/13 26/12/13
f 21/11/12 24/13/14 25/13/14
f 25/13/3 27/14/3 23/12/3
f 27/14/15 26/12/13 23/12/13
f 28/15/16 25/13/14 24/13/14
f 29/15/3 27/14/3 25/13/3
f 26/12/13 27/14/15 30/14/15
f 25/13/14 28/15/16 29/15/16
f 29/15/3 31/16/3 27/14/3
f 27/14/15 32/16/17 30/14/15
f 28/15/16 33/17/18 29/15/16
f 33/17/3 31/16/3 29/15/3
f 32/16/17 27/14/15 31/16/17
f 33/17/18 28/15/16 34/17/18
f 33/17/3 35/18/3 31/16/3
f 31/16/17 36/18/19 32/16/17
f 34/17/18 37/19/20 33/17/18
f 37/19/3 35/18/3 33/17/3
f 36/18/19 31/16/17 35/18/19
f 37/19/20 34/17/18 38/19/20
f 37/19/3 39/20/3 35/18/3
f 35/18/19 40/20/21 36/18/19
f 38/19/20 41/21/22 37/19/20
f 41/21/3 39/20/3 37/19/3
f 40/20/21 35/18/19 39/20/21
f 41/21/22 38/19/20 42/21/22
f 41/21/3 43/22/3 39/20/3
f 39/20/21 44/22/23 40/20/21
f 45/23/24 41/21/22 42/21/22
f 46/23/3 43/22/3 41/21/3
f 44/22/23 39/20/21 43/22/23
f 41/21/22 45/23/24 46/23/24
f 46/23/3 47/24/3 43/22/3
f 47/24/25 44/22/23 43/22/23
f 48/25/26 46/23/24 45/23/24
f 49/25/3 47/24/3 46/23/3
f 44/22/23 47/24/25 50/24/25
f 46/23/24 48/25/26 49/25/26
f 49/25/3 51/26/3 47/24/3
f 51/26/27 50/24/25 47/24/25
f 52/27/28 49/25/26 48/25/26
f 53/27/3 51/26/3 49/25/3
f 50/24/25 51/26/27 54/26/27
f 49/25/26 52/27/28 53/27/28
f 51/26/3 53/27/3 55/28/3
f 55/28/29 54/26/27 51/26/27
f 56/28/29 53/27/28 52/27/28
f 53/27/28 56/28/29 55/28/29
f 54/26/27 55/28/29 56/28/29
usemtl material_1_0
f 3//29 2//27 1//29
f 4//27 1//29 2//27
f 3//30 5//30 2//30
f 1//29 6//28 3//29
f 2//27 7//25 4//27
f 5//30 8//30 2//30
f 5//28 3//29 6//28
f 9//25 4//27 7//25
f 2//30 10//30 7//30
f 8//30 10//30 2//30
f 8//26 5//28 11//26
f 6//28 11//26 5//28
f 7//25 12//23 9//25
f 7//30 10//30 12//30
f 10//24 8//26 13//24
f 11//26 13//24 8//26
f 14//23 9//25 12//23
f 10//30 15//30 12//30
f 13//24 16//22 10//24
f 14//23 12//23 17//21
f 12//30 15//30 18//30
f 15//22 10//24 16//22
f 18//21 17//21 12//23
f 15//30 19//30 18//30
f 15//22 16//22 19//20
f 17//21 18//21 20//19
f 18//30 19//30 21//30
f 22//20 19//20 16//22
f 21//19 20//19 18//21
f 19//30 23//30 21//30
f 19//20 22//20 23//18
f 20//19 21//19 24//17
f 21//30 23//30 25//30
f 26//18 23//18 22//20
f 25//17 24//17 21//19
f 23//30 27//30 25//30
f 23//18 26//18 27//16
f 24//17 25//17 28//15
f 25//30 27//30 29//30
f 30//16 27//16 26//18
f 29//15 28//15 25//17
f 27//30 31//30 29//30
f 30//16 32//14 27//16
f 29//15 33//13 28//15
f 29//30 31//30 33//30
f 31//14 27//16 32//14
f 34//13 28//15 33//13
f 31//30 35//30 33//30
f 32//14 36//12 31//14
f 33//13 37//11 34//13
f 33//30 35//30 37//30
f 35//12 31//14 36//12
f 38//11 34//13 37//11
f 35//30 39//30 37//30
f 36//12 40//10 35//12
f 37//11 41//9 38//11
f 37//30 39//30 41//30
f 39//10 35//12 40//10
f 42//9 38//11 41//9
f 39//30 43//30 41//30
f 40//10 44//7 39//10
f 42//9 41//9 45//8
f 41//30 43//30 46//30
f 43//7 39//10 44//7
f 46//8 45//8 41//9
f 43//30 47//30 46//30
f 43//7 44//7 47//5
f 45//8 46//8 48//6
f 46//30 47//30 49//30
f 50//5 47//5 44//7
f 49//6 48//6 46//8
f 47//30 51//30 49//30
f 47//5 50//5 51//2
f 48//6 49//6 52//4
f 49//30 51//30 53//30
f 54//2 51//2 50//5
f 53//4 52//4 49//6
f 55//30 53//30 51//30
f 51//2 54//2 55//1
f 52//4 53//4 56//1
f 55//1 56//1 53//4
f 56//1 55//1 54//2
