# SSTK version 0.8.0
# 35
mtllib original-35.mtl
o mesh34/mesh34-geometry#mesh34-geometry
v -0.125248 0.016534 0.046435
v -0.126556 0.029173 0.048015
v -0.126556 0.016515 0.046606
v -0.125248 0.029192 0.047844
v -0.222590 0.029173 0.048015
v -0.124029 0.016590 0.045933
v -0.126556 0.040358 -0.052452
v -0.222590 0.016515 0.046606
v -0.222590 0.040358 -0.052452
v -0.124029 0.029248 0.047342
v -0.125248 0.040339 -0.052281
v -0.223898 0.016534 0.046435
v -0.223898 0.040339 -0.052281
v -0.122982 0.016679 0.045135
v -0.126556 0.027701 -0.053861
v -0.223898 0.029192 0.047844
v -0.222590 0.027701 -0.053861
v -0.122982 0.029337 0.046544
v -0.124029 0.040283 -0.051779
v -0.125248 0.027682 -0.053690
v -0.225117 0.016590 0.045933
v -0.225117 0.040283 -0.051779
v -0.223898 0.027682 -0.053690
v -0.122179 0.029452 0.045504
v -0.225117 0.029248 0.047342
v -0.122179 0.016795 0.044095
v -0.122982 0.040195 -0.050981
v -0.124029 0.027626 -0.053188
v -0.226164 0.016679 0.045135
v -0.226164 0.040195 -0.050981
v -0.225117 0.027626 -0.053188
v -0.121674 0.029587 0.044292
v -0.122179 0.040079 -0.049940
v -0.226164 0.029337 0.046544
v -0.121674 0.016930 0.042883
v -0.122179 0.027421 -0.051350
v -0.122982 0.027537 -0.052390
v -0.226967 0.029452 0.045504
v -0.226967 0.040079 -0.049940
v -0.226164 0.027537 -0.052390
v -0.121502 0.029732 0.042992
v -0.121674 0.039944 -0.048729
v -0.121674 0.027287 -0.050138
v -0.226967 0.016795 0.044095
v -0.226967 0.027421 -0.051350
v -0.121502 0.017075 0.041583
v -0.227472 0.029587 0.044292
v -0.227472 0.039944 -0.048729
v -0.227472 0.027287 -0.050138
v -0.121502 0.039799 -0.047429
v -0.121502 0.027142 -0.048838
v -0.227472 0.016930 0.042883
v -0.227645 0.029732 0.042992
v -0.227645 0.039799 -0.047429
v -0.227645 0.027142 -0.048838
v -0.227645 0.017075 0.041583
vt 1.442728 0.48382
vt 1.441992 0.483611
vt 1.388015 0.483611
vt 1.443413 0.484433
vt 1.441992 0.606311
vt 1.388015 0.606311
vt 1.442728 0.606102
vt 1.38728 0.48382
vt 1.38728 0.606102
vt 1.444001 0.485408
vt 1.443413 0.605489
vt 1.386595 0.484433
vt 1.386595 0.605489
vt 1.444453 0.486679
vt 1.444001 0.604514
vt 1.386006 0.485408
vt 1.386006 0.604514
vt 1.444737 0.488158
vt 1.444453 0.603243
vt 1.385555 0.486679
vt 1.385555 0.603243
vt 1.444833 0.489746
vt 1.444737 0.601764
vt 1.385271 0.488158
vt 1.385271 0.601764
vt 1.444833 0.600176
vt 1.385174 0.489746
vt 1.385174 0.600176
vt 0.208254 1.342093
vt 0.208031 1.451602
vt 0.209846 1.342258
vt 0.209623 1.451767
vt 0.154395 1.347752
vt 0.154395 1.238231
vt 0.038541 1.347752
vt 0.26478 1.560049
vt 0.264126 1.669471
vt 0.26637 1.560532
vt 0.155973 4.418112
vt 0.154395 4.416631
vt 0.154395 5.285953
vt 0.038541 1.238231
vt 0.038541 4.416631
vt 0.038541 5.285953
vt 0.265716 1.669954
vt 0.155973 5.284472
vt -0.030742 1.159178
vt -0.032334 1.159343
vt -0.030519 1.268687
vt 0.036963 5.284472
vt 0.248449 1.742482
vt 0.24741 1.851752
vt 0.250037 1.743249
vt 0.157444 4.422454
vt -1.742594 1.347752
vt -1.62674 1.347752
vt -1.742594 1.238231
vt -1.656614 1.258438
vt -1.656391 1.148929
vt -1.658206 1.258273
vt -0.032111 1.268852
vt 0.036963 4.418112
vt -1.697296 1.441353
vt -1.695704 1.441188
vt -1.697519 1.331844
vt 0.248998 1.85252
vt 0.157444 5.28013
vt -1.62674 1.238231
vt -1.657983 1.148764
vt -0.208916 1.060716
vt -0.210506 1.061199
vt -0.208262 1.170138
vt 0.035493 5.28013
vt -1.695927 1.331679
vt 0.159605 1.949606
vt 0.161191 1.950605
vt 0.160957 1.84051
vt 0.158707 4.429362
vt -1.443321 1.150887
vt -1.442667 1.041465
vt -1.444911 1.150404
vt -0.209852 1.170621
vt 0.035493 4.422454
vt -1.788941 1.65022
vt -1.787351 1.649737
vt -1.789595 1.540798
vt 0.162543 1.841509
vt 0.159676 4.438364
vt 0.158707 5.273222
vt -1.444257 1.040982
vt -0.426813 1.061325
vt -0.428401 1.062092
vt -0.425774 1.170595
vt 0.03423 5.273222
vt -1.788005 1.540315
vt 0.007308 1.937214
vt 0.008892 1.938375
vt 0.00888 1.828268
vt 0.159676 5.26422
vt -1.185877 1.159264
vt -1.184838 1.049994
vt -1.187465 1.158497
vt -0.427362 1.171362
vt 0.03423 4.429362
vt -1.812157 1.840422
vt -1.810569 1.839654
vt -1.813196 1.731151
vt 0.010464 1.829429
vt 0.160285 4.448847
vt -0.903992 1.279913
vt -0.902406 1.280912
vt -0.90264 1.170817
vt -1.186426 1.049227
vt -0.667723 1.269534
vt -0.669075 1.160438
vt -0.669309 1.270532
vt 0.033261 5.26422
vt -1.811608 1.730384
vt -0.198817 1.818273
vt -0.197235 1.819518
vt -0.197132 1.709413
vt 0.160285 5.253737
vt -0.901055 1.171815
vt -0.610803 1.37389
vt -0.612386 1.372729
vt -0.612375 1.482836
vt -0.670661 1.161436
vt 0.033261 4.438364
vt -1.764288 1.959986
vt -1.76564 1.850889
vt -1.765874 1.960984
vt -1.767226 1.851888
vt -0.19555 1.710658
vt 0.160493 4.460097
vt -0.613958 1.481675
vt -0.917474 1.440052
vt -0.919046 1.331105
vt -0.919057 1.441213
vt 0.032652 5.253737
vt -1.65543 1.871053
vt -1.653857 1.979999
vt -1.653846 1.869892
vt -0.31705 1.728515
vt -0.207968 1.815089
vt -0.31535 1.619667
vt 0.160493 5.242487
vt -0.333501 1.602109
vt -0.335083 1.600864
vt -0.335187 1.710968
vt -0.920629 1.332267
vt 0.032652 4.448847
vt -1.652274 1.978838
vt -0.206268 1.70624
vt -0.336769 1.709723
vt -1.1583 1.636443
vt -1.159986 1.527583
vt -1.159883 1.637688
vt 0.032444 5.242487
vt -1.485779 1.783939
vt -1.484093 1.892798
vt -1.484197 1.782694
vt -1.161568 1.528828
vt 0.032444 4.460097
vt -1.482511 1.891553
vt -1.271149 1.728515
vt -1.272849 1.619667
vt -1.380231 1.815089
vt -1.381931 1.70624
vn 0.2588190625409164 -0.1068820258269226 0.9599942319725542
vn 0.06540301236686057 -0.11041602087823633 0.9917311875234928
vn -0.06540301236686057 -0.11041602087823633 0.9917311875234928
vn 0.5000001136417888 -0.09582802178013086 0.8607071956245661
vn 0 0.9938591002356646 0.11065301115991022
vn -0.2588190625409164 -0.1068820258269226 0.9599942319725542
vn 0.7071066741218326 -0.07824296394083871 0.7027646761228917
vn 0.06540301236686057 0.11041602087823633 -0.9917311875234928
vn -0.06540301236686057 0.11041602087823633 -0.9917311875234928
vn 0.2588190625409164 0.1068820258269226 -0.9599942319725542
vn -0.2588190625409164 0.1068820258269226 -0.9599942319725542
vn -0.5000001136417888 -0.09582802178013086 0.8607071956245661
vn 0.8660251334540503 -0.05532600852571102 0.4969300765766822
vn 0.5000001136417888 0.09582802178013086 -0.8607071956245661
vn -0.5000001136417888 0.09582802178013086 -0.8607071956245661
vn -0.7071066741218326 -0.07824296394083871 0.7027646761228917
vn 0.9659257572160402 -0.028638992801633078 0.2572299353456497
vn 0.7071066741218326 0.07824296394083871 -0.7027646761228917
vn -0.7071066741218326 0.07824296394083871 -0.7027646761228917
vn 0.8660251334540503 0.05532600852571102 -0.4969300765766822
vn -0.8660251334540503 -0.05532600852571102 0.4969300765766822
vn 0.9978589560687615 -0.0072369996813874925 0.06500099713829867
vn 0.9659257572160402 0.028638992801633078 -0.2572299353456497
vn -0.8660251334540503 0.05532600852571102 -0.4969300765766822
vn -0.9659257572160402 -0.028638992801633078 0.2572299353456497
vn -0.9659257572160402 0.028638992801633078 -0.2572299353456497
vn 0.9978589560687615 0.0072369996813874925 -0.06500099713829867
vn -0.9978589560687615 -0.0072369996813874925 0.06500099713829867
vn -0.9978589560687615 0.0072369996813874925 -0.06500099713829867
vn 0 -0.9938591002356646 -0.11065301115991022
usemtl material_0_0
f 1/1/1 2/2/2 3/2/2
f 2/2/2 1/1/1 4/1/1
f 5/3/3 3/2/2 2/2/2
f 6/4/4 4/1/1 1/1/1
f 7/5/5 2/2/5 4/1/5
f 3/2/2 5/3/3 8/3/3
f 9/6/5 5/3/5 2/2/5
f 4/1/1 6/4/4 10/4/4
f 9/6/5 2/2/5 7/5/5
f 7/5/5 4/1/5 11/7/5
f 5/3/3 12/8/6 8/3/3
f 13/9/5 5/3/5 9/6/5
f 14/10/7 10/4/4 6/4/4
f 11/7/5 4/1/5 10/4/5
f 15/5/8 9/6/9 7/5/8
f 11/7/10 15/5/8 7/5/8
f 12/8/6 5/3/3 16/8/6
f 13/9/5 16/8/5 5/3/5
f 17/6/9 13/9/11 9/6/9
f 10/4/4 14/10/7 18/10/7
f 11/7/5 10/4/5 19/11/5
f 9/6/9 15/5/8 17/6/9
f 15/5/8 11/7/10 20/7/10
f 16/8/6 21/12/12 12/8/6
f 22/13/5 16/8/5 13/9/5
f 13/9/11 17/6/9 23/9/11
f 14/10/7 24/14/13 18/10/7
f 19/11/5 10/4/5 18/10/5
f 19/11/14 20/7/10 11/7/10
f 21/12/12 16/8/6 25/12/12
f 22/13/5 25/12/5 16/8/5
f 23/9/11 22/13/15 13/9/11
f 24/14/13 14/10/7 26/14/13
f 27/15/5 18/10/5 24/14/5
f 19/11/5 18/10/5 27/15/5
f 20/7/10 19/11/14 28/11/14
f 25/12/12 29/16/16 21/12/12
f 30/17/5 25/12/5 22/13/5
f 22/13/15 23/9/11 31/13/15
f 26/14/13 32/18/17 24/14/13
f 27/15/5 24/14/5 33/19/5
f 27/15/18 28/11/14 19/11/14
f 29/16/16 25/12/12 34/16/16
f 30/17/5 34/16/5 25/12/5
f 31/13/15 30/17/19 22/13/15
f 32/18/17 26/14/13 35/18/17
f 33/19/5 24/14/5 32/18/5
f 36/19/20 27/15/18 33/19/20
f 28/11/14 27/15/18 37/15/18
f 38/20/21 29/16/16 34/16/16
f 39/21/5 34/16/5 30/17/5
f 30/17/19 31/13/15 40/17/19
f 35/18/17 41/22/22 32/18/17
f 33/19/5 32/18/5 42/23/5
f 27/15/18 36/19/20 37/15/18
f 33/19/20 43/23/23 36/19/20
f 29/16/16 38/20/21 44/20/21
f 39/21/5 38/20/5 34/16/5
f 30/17/19 45/21/24 39/21/24
f 45/21/24 30/17/19 40/17/19
f 41/22/22 35/18/17 46/22/22
f 42/23/5 32/18/5 41/22/5
f 43/23/23 33/19/20 42/23/23
f 47/24/25 44/20/21 38/20/21
f 48/25/5 38/20/5 39/21/5
f 49/25/26 39/21/24 45/21/24
f 46/22/22 50/26/27 41/22/22
f 42/23/5 41/22/5 50/26/5
f 42/23/23 51/26/27 43/23/23
f 44/20/21 47/24/25 52/24/25
f 48/25/5 47/24/5 38/20/5
f 39/21/24 49/25/26 48/25/26
f 50/26/27 46/22/22 51/26/27
f 51/26/27 42/23/23 50/26/27
f 53/27/28 52/24/25 47/24/25
f 54/28/5 47/24/5 48/25/5
f 55/28/29 48/25/26 49/25/26
f 52/24/25 53/27/28 56/27/28
f 47/24/5 54/28/5 53/27/5
f 48/25/26 55/28/29 54/28/29
f 54/28/29 56/27/28 53/27/28
f 56/27/28 54/28/29 55/28/29
usemtl material_1_0
f 3/29/9 2/30/9 1/31/11
f 4/32/11 1/31/11 2/30/9
f 2/33/9 3/34/9 5/35/8
f 1/36/11 4/37/11 6/38/15
f 4/39/30 2/40/30 7/41/30
f 8/42/8 5/35/8 3/34/9
f 2/40/30 5/43/30 9/44/30
f 10/45/15 6/38/15 4/37/11
f 7/41/30 2/40/30 9/44/30
f 11/46/30 4/39/30 7/41/30
f 8/47/8 12/48/10 5/49/8
f 9/44/30 5/43/30 13/50/30
f 6/51/15 10/52/15 14/53/19
f 10/54/30 4/39/30 11/46/30
f 7/55/3 9/56/2 15/57/3
f 7/58/3 15/59/3 11/60/6
f 16/61/10 5/49/8 12/48/10
f 5/43/30 16/62/30 13/50/30
f 9/63/2 13/64/1 17/65/2
f 18/66/19 14/53/19 10/52/15
f 19/67/30 10/54/30 11/46/30
f 17/68/2 15/57/3 9/56/2
f 20/69/6 11/60/6 15/59/3
f 12/70/10 21/71/14 16/72/10
f 13/50/30 16/62/30 22/73/30
f 23/74/1 17/65/2 13/64/1
f 18/75/19 24/76/24 14/77/19
f 18/78/30 10/54/30 19/67/30
f 11/79/6 20/80/6 19/81/12
f 25/82/14 16/72/10 21/71/14
f 16/62/30 25/83/30 22/73/30
f 13/84/1 22/85/4 23/86/1
f 26/87/24 14/77/19 24/76/24
f 24/88/30 18/78/30 27/89/30
f 27/89/30 18/78/30 19/67/30
f 28/90/12 19/81/12 20/80/6
f 21/91/14 29/92/18 25/93/14
f 22/73/30 25/83/30 30/94/30
f 31/95/4 23/86/1 22/85/4
f 24/96/24 32/97/26 26/98/24
f 33/99/30 24/88/30 27/89/30
f 19/100/12 28/101/12 27/102/16
f 34/103/18 25/93/14 29/92/18
f 25/83/30 34/104/30 30/94/30
f 22/105/4 30/106/7 31/107/4
f 35/108/26 26/98/24 32/97/26
f 32/109/30 24/88/30 33/99/30
f 33/110/21 27/111/16 36/112/21
f 37/113/16 27/102/16 28/101/12
f 34/114/18 29/115/18 38/116/20
f 30/94/30 34/104/30 39/117/30
f 40/118/7 31/107/4 30/106/7
f 32/119/26 41/120/29 35/121/26
f 42/122/30 32/109/30 33/99/30
f 37/123/16 36/112/21 27/111/16
f 36/124/21 43/125/25 33/126/21
f 44/127/20 38/116/20 29/115/18
f 34/104/30 38/128/30 39/117/30
f 39/129/13 45/130/13 30/131/7
f 40/132/7 30/131/7 45/130/13
f 46/133/29 35/121/26 41/120/29
f 41/134/30 32/109/30 42/122/30
f 42/135/25 33/126/21 43/125/25
f 38/136/20 44/137/20 47/138/23
f 39/117/30 38/128/30 48/139/30
f 45/140/13 39/141/13 49/142/17
f 41/143/29 50/144/28 46/145/29
f 50/146/30 41/134/30 42/122/30
f 43/147/25 51/148/28 42/149/25
f 52/150/23 47/138/23 44/137/20
f 38/128/30 47/151/30 48/139/30
f 48/152/17 49/142/17 39/141/13
f 51/153/28 46/145/29 50/144/28
f 50/154/28 42/149/25 51/148/28
f 47/155/23 52/156/23 53/157/27
f 48/139/30 47/151/30 54/158/30
f 49/159/17 48/160/17 55/161/22
f 56/162/27 53/157/27 52/156/23
f 53/163/30 54/158/30 47/151/30
f 54/164/22 55/161/22 48/160/17
f 53/165/27 56/166/27 54/167/22
f 55/168/22 54/167/22 56/166/27
