# SSTK version 0.8.0
# 23
mtllib original-23.mtl
o mesh22/mesh22-geometry#mesh22-geometry
v -0.644729 0.042451 -0.071245
v -0.644902 0.052663 -0.162966
v -0.644902 0.042595 -0.072545
v -0.644729 0.052807 -0.164266
v -0.644902 0.029938 -0.073955
v -0.644729 0.029794 -0.072655
v -0.644224 0.042316 -0.070034
v -0.644902 0.040005 -0.164375
v -0.644224 0.029659 -0.071443
v -0.644224 0.052942 -0.165478
v -0.644729 0.040150 -0.165675
v -0.643421 0.029543 -0.070403
v -0.643421 0.042200 -0.068993
v -0.643421 0.053058 -0.166518
v -0.644224 0.040285 -0.166887
v -0.642374 0.042111 -0.068195
v -0.642374 0.029454 -0.069604
v -0.642374 0.053147 -0.167317
v -0.643421 0.040401 -0.167927
v -0.641155 0.042055 -0.067693
v -0.642374 0.040490 -0.168726
v -0.641155 0.029398 -0.069102
v -0.641155 0.053203 -0.167818
v -0.641155 0.040546 -0.169228
v -0.639847 0.042036 -0.067522
v -0.639847 0.029379 -0.068931
v -0.639847 0.053222 -0.167990
v -0.639847 0.040565 -0.169399
v -0.548868 0.029379 -0.068931
v -0.548868 0.042036 -0.067522
v -0.548868 0.053222 -0.167990
v -0.548868 0.040565 -0.169399
v -0.547560 0.029398 -0.069102
v -0.547560 0.042055 -0.067693
v -0.547560 0.053203 -0.167818
v -0.546341 0.029454 -0.069604
v -0.546341 0.042111 -0.068195
v -0.547560 0.040546 -0.169228
v -0.546341 0.053147 -0.167317
v -0.545294 0.029543 -0.070403
v -0.545294 0.042200 -0.068993
v -0.546341 0.040490 -0.168726
v -0.545294 0.053058 -0.166518
v -0.544491 0.042316 -0.070034
v -0.545294 0.040401 -0.167927
v -0.544491 0.029659 -0.071443
v -0.544491 0.052942 -0.165478
v -0.544491 0.040285 -0.166887
v -0.543986 0.042451 -0.071245
v -0.543986 0.029794 -0.072655
v -0.543986 0.052807 -0.164266
v -0.543986 0.040150 -0.165675
v -0.543813 0.042595 -0.072545
v -0.543813 0.029938 -0.073955
v -0.543813 0.052663 -0.162966
v -0.543813 0.040005 -0.164375
vt 1.150745 0.629263
vt 1.150648 0.74128
vt 1.150648 0.630851
vt 1.150745 0.742868
vt 1.151029 0.627783
vt 1.151029 0.744347
vt 1.15148 0.626512
vt 1.15148 0.745618
vt 1.152069 0.625537
vt 1.152069 0.746593
vt 1.152754 0.624925
vt 1.152754 0.747206
vt 1.153489 0.624716
vt 1.153489 0.747415
vt 1.204626 0.624716
vt 1.204626 0.747415
vt 1.205361 0.624925
vt 1.205361 0.747206
vt 1.206046 0.625537
vt 1.206046 0.746593
vt 1.206634 0.626512
vt 1.206634 0.745618
vt 1.207086 0.627783
vt 1.207086 0.744347
vt 1.20737 0.629263
vt 1.20737 0.742868
vt 1.207467 0.630851
vt 1.207467 0.74128
vt 0.038541 4.460097
vt 0.038541 5.242487
vt 0.038749 4.448847
vt 0.038749 5.253737
vt -0.907159 0.839417
vt -0.908859 0.730568
vt -1.016241 0.92599
vt -0.858439 0.796859
vt -0.860125 0.687999
vt -0.860021 0.798104
vt 0.039358 4.438364
vt -1.052037 0.949194
vt -1.053722 0.840334
vt -1.053619 0.950439
vt -1.017941 0.817142
vt -0.861707 0.689244
vt -0.737767 0.567557
vt -0.736195 0.676503
vt -0.736183 0.566396
vt -0.734611 0.675342
vt 0.039358 5.26422
vt -1.055305 0.841579
vt -0.583365 0.423698
vt -0.582013 0.532795
vt -0.581779 0.4227
vt 0.040327 4.429362
vt -1.086169 0.933119
vt -1.087741 0.824173
vt -1.087752 0.93428
vt -0.580427 0.531796
vt 0.040327 5.273222
vt -1.089324 0.825334
vt -0.407607 0.4053
vt -0.406019 0.404533
vt -0.408646 0.29603
vt 0.04159 4.422454
vt -1.066502 0.837853
vt -1.067854 0.728757
vt -1.068087 0.838851
vt -0.407058 0.295263
vt 0.04159 5.28013
vt -1.069439 0.729755
vt -0.224734 0.328304
vt -0.223144 0.327821
vt -0.225388 0.218882
vt 0.043061 4.418112
vt -0.995526 0.689351
vt -0.993938 0.688584
vt -0.996565 0.580081
vt -0.994977 0.579314
vt -0.223798 0.218399
vt 0.043061 5.284472
vt -0.873619 0.415762
vt -0.875209 0.416245
vt -0.872965 0.525184
vt -0.046055 0.322722
vt -0.044463 0.322557
vt -0.046278 0.213213
vt 0.044639 4.416631
vt -0.874555 0.525667
vt -0.044687 0.213048
vt 0.044639 5.285953
vt -0.711845 0.282161
vt -0.713437 0.282326
vt -0.711622 0.39167
vt 0.044639 0.238511
vt 0.044639 0.348032
vt 0.154395 0.238511
vt 0.154395 4.416631
vt -0.713213 0.391835
vt 0.154395 0.348032
vt 0.154395 5.285953
vt -0.626093 0.238511
vt -0.735849 0.238511
vt -0.626093 0.348032
vt 0.230917 0.292574
vt 0.230694 0.402084
vt 0.232508 0.292739
vt 0.155973 4.418112
vt -0.735849 0.348032
vt 0.232285 0.402249
vt 0.155973 5.284472
vt -0.635925 0.312308
vt -0.635702 0.202799
vt -0.637516 0.312143
vt 0.357139 0.435496
vt 0.356485 0.544918
vt 0.358729 0.435979
vt 0.157444 4.422454
vt -0.637293 0.202634
vt 0.358075 0.545401
vt 0.157444 5.28013
vt -0.421694 0.30857
vt -0.42104 0.199149
vt -0.423284 0.308087
vt 0.438563 0.591412
vt 0.437524 0.700682
vt 0.440151 0.592179
vt 0.158707 4.429362
vt -0.42263 0.198666
vt 0.439112 0.701449
vt 0.158707 5.273222
vt -0.198887 0.393202
vt -0.197848 0.283932
vt -0.200475 0.392435
vt 0.468564 0.827474
vt 0.47015 0.828472
vt 0.469916 0.718377
vt 0.159676 4.438364
vt -0.199436 0.283165
vt 0.471501 0.719376
vt 0.159676 5.26422
vt 0.018395 0.434078
vt 0.016809 0.433079
vt 0.017043 0.543174
vt 0.447948 0.891496
vt 0.449531 0.892657
vt 0.44952 0.782549
vt 0.160285 4.448847
vt 0.015457 0.542175
vt 0.451104 0.783711
vt 0.160285 5.253737
vt 0.213079 0.609181
vt 0.211496 0.60802
vt 0.211507 0.718127
vt 0.377453 0.875913
vt 0.379035 0.877158
vt 0.379139 0.767054
vt 0.160493 4.460097
vt 0.209924 0.716966
vt 0.380721 0.768299
vt 0.160493 5.242487
vt 0.373383 0.762524
vt 0.3718 0.761279
vt 0.371697 0.871384
vt 0.325705 0.839417
vt 0.434787 0.92599
vt 0.327405 0.730568
vt 0.370115 0.870139
vt 0.436487 0.817142
vn 0 0.9938591002356646 0.11065301115991022
vn -0.9978589560687615 0.0072369996813874925 -0.06500099713829867
vn -0.9978589560687615 -0.0072369996813874925 0.06500099713829867
vn -0.9659257572160402 -0.028638992801633078 0.2572299353456497
vn -0.9659257572160402 0.028638992801633078 -0.2572299353456497
vn -0.8660251334540503 -0.05532600852571102 0.4969300765766822
vn -0.7071066741218326 -0.07824296394083871 0.7027646761228917
vn -0.8660251334540503 0.05532600852571102 -0.4969300765766822
vn -0.5000001136417888 -0.09582802178013086 0.8607071956245661
vn -0.7071066741218326 0.07824296394083871 -0.7027646761228917
vn -0.2588190625409164 -0.1068820258269226 0.9599942319725542
vn -0.5000001136417888 0.09582802178013086 -0.8607071956245661
vn -0.2588190625409164 0.1068820258269226 -0.9599942319725542
vn -0.06540301236686057 -0.11041602087823633 0.9917311875234928
vn -0.06540301236686057 0.11041602087823633 -0.9917311875234928
vn 0.06540301236686057 -0.11041602087823633 0.9917311875234928
vn 0.06540301236686057 0.11041602087823633 -0.9917311875234928
vn 0.2588190625409164 -0.1068820258269226 0.9599942319725542
vn 0.2588190625409164 0.1068820258269226 -0.9599942319725542
vn 0.5000001136417888 -0.09582802178013086 0.8607071956245661
vn 0.5000001136417888 0.09582802178013086 -0.8607071956245661
vn 0.7071066741218326 -0.07824296394083871 0.7027646761228917
vn 0.7071066741218326 0.07824296394083871 -0.7027646761228917
vn 0.8660251334540503 -0.05532600852571102 0.4969300765766822
vn 0.8660251334540503 0.05532600852571102 -0.4969300765766822
vn 0.9659257572160402 -0.028638992801633078 0.2572299353456497
vn 0.9659257572160402 0.028638992801633078 -0.2572299353456497
vn 0.9978589560687615 -0.0072369996813874925 0.06500099713829867
vn 0.9978589560687615 0.0072369996813874925 -0.06500099713829867
vn 0 -0.9938591002356646 -0.11065301115991022
usemtl material_0_0
f 1/1/1 2/2/1 3/3/1
f 2/2/1 1/1/1 4/4/1
f 2/2/2 5/3/3 3/3/3
f 3/3/3 6/1/4 1/1/4
f 4/4/1 1/1/1 7/5/1
f 4/4/5 8/2/2 2/2/2
f 5/3/3 2/2/2 8/2/2
f 6/1/4 3/3/3 5/3/3
f 9/5/6 1/1/4 6/1/4
f 1/1/4 9/5/6 7/5/6
f 4/4/1 7/5/1 10/6/1
f 8/2/2 4/4/5 11/4/5
f 12/7/7 7/5/6 9/5/6
f 10/6/1 7/5/1 13/7/1
f 10/6/8 11/4/5 4/4/5
f 7/5/6 12/7/7 13/7/7
f 10/6/1 13/7/1 14/8/1
f 11/4/5 10/6/8 15/6/8
f 12/7/7 16/9/9 13/7/7
f 14/8/1 13/7/1 16/9/1
f 14/8/10 15/6/8 10/6/8
f 16/9/9 12/7/7 17/9/9
f 14/8/1 16/9/1 18/10/1
f 15/6/8 14/8/10 19/8/10
f 17/9/9 20/11/11 16/9/9
f 18/10/1 16/9/1 20/11/1
f 21/10/12 14/8/10 18/10/12
f 14/8/10 21/10/12 19/8/10
f 20/11/11 17/9/9 22/11/11
f 18/10/1 20/11/1 23/12/1
f 18/10/12 24/12/13 21/10/12
f 22/11/11 25/13/14 20/11/11
f 23/12/1 20/11/1 25/13/1
f 24/12/13 18/10/12 23/12/13
f 25/13/14 22/11/11 26/13/14
f 23/12/1 25/13/1 27/14/1
f 23/12/13 28/14/15 24/12/13
f 29/15/16 25/13/14 26/13/14
f 27/14/1 25/13/1 30/15/1
f 28/14/15 23/12/13 27/14/15
f 25/13/14 29/15/16 30/15/16
f 27/14/1 30/15/1 31/16/1
f 27/14/15 32/16/17 28/14/15
f 33/17/18 30/15/16 29/15/16
f 31/16/1 30/15/1 34/17/1
f 32/16/17 27/14/15 31/16/17
f 30/15/16 33/17/18 34/17/18
f 31/16/1 34/17/1 35/18/1
f 35/18/19 32/16/17 31/16/17
f 36/19/20 34/17/18 33/17/18
f 35/18/1 34/17/1 37/19/1
f 32/16/17 35/18/19 38/18/19
f 34/17/18 36/19/20 37/19/20
f 35/18/1 37/19/1 39/20/1
f 39/20/21 38/18/19 35/18/19
f 40/21/22 37/19/20 36/19/20
f 39/20/1 37/19/1 41/21/1
f 38/18/19 39/20/21 42/20/21
f 37/19/20 40/21/22 41/21/22
f 39/20/1 41/21/1 43/22/1
f 43/22/23 42/20/21 39/20/21
f 40/21/22 44/23/24 41/21/22
f 43/22/1 41/21/1 44/23/1
f 42/20/21 43/22/23 45/22/23
f 44/23/24 40/21/22 46/23/24
f 43/22/1 44/23/1 47/24/1
f 43/22/23 48/24/25 45/22/23
f 46/23/24 49/25/26 44/23/24
f 47/24/1 44/23/1 49/25/1
f 48/24/25 43/22/23 47/24/25
f 49/25/26 46/23/24 50/25/26
f 47/24/1 49/25/1 51/26/1
f 47/24/25 52/26/27 48/24/25
f 50/25/26 53/27/28 49/25/26
f 51/26/1 49/25/1 53/27/1
f 52/26/27 47/24/25 51/26/27
f 53/27/28 50/25/26 54/27/28
f 51/26/1 53/27/1 55/28/1
f 51/26/27 56/28/29 52/26/27
f 54/27/28 55/28/29 53/27/28
f 56/28/29 51/26/27 55/28/29
f 55/28/29 54/27/28 56/28/29
usemtl material_1_0
f 3/29/30 2/30/30 1/31/30
f 4/32/30 1/31/30 2/30/30
f 3/33/29 5/34/29 2/35/28
f 1/36/27 6/37/27 3/38/29
f 7/39/30 1/31/30 4/32/30
f 2/40/28 8/41/28 4/42/26
f 8/43/28 2/35/28 5/34/29
f 5/44/29 3/38/29 6/37/27
f 6/45/27 1/46/27 9/47/25
f 7/48/25 9/47/25 1/46/27
f 10/49/30 7/39/30 4/32/30
f 11/50/26 4/42/26 8/41/28
f 9/51/25 7/52/25 12/53/23
f 13/54/30 7/39/30 10/49/30
f 4/55/26 11/56/26 10/57/24
f 13/58/23 12/53/23 7/52/25
f 14/59/30 13/54/30 10/49/30
f 15/60/24 10/57/24 11/56/26
f 13/61/23 16/62/21 12/63/23
f 16/64/30 13/54/30 14/59/30
f 10/65/24 15/66/24 14/67/22
f 17/68/21 12/63/23 16/62/21
f 18/69/30 16/64/30 14/59/30
f 19/70/22 14/67/22 15/66/24
f 16/71/21 20/72/19 17/73/21
f 20/74/30 16/64/30 18/69/30
f 18/75/20 14/76/22 21/77/20
f 19/78/22 21/77/20 14/76/22
f 22/79/19 17/73/21 20/72/19
f 23/80/30 20/74/30 18/69/30
f 21/81/20 24/82/18 18/83/20
f 20/84/19 25/85/17 22/86/19
f 25/87/30 20/74/30 23/80/30
f 23/88/18 18/83/20 24/82/18
f 26/89/17 22/86/19 25/85/17
f 27/90/30 25/87/30 23/80/30
f 24/91/18 28/92/16 23/93/18
f 26/94/17 25/95/17 29/96/15
f 30/97/30 25/87/30 27/90/30
f 27/98/16 23/93/18 28/92/16
f 30/99/15 29/96/15 25/95/17
f 31/100/30 30/97/30 27/90/30
f 28/101/16 32/102/14 27/103/16
f 29/104/15 30/105/15 33/106/13
f 34/107/30 30/97/30 31/100/30
f 31/108/14 27/103/16 32/102/14
f 34/109/13 33/106/13 30/105/15
f 35/110/30 34/107/30 31/100/30
f 31/111/14 32/112/14 35/113/11
f 33/114/13 34/115/13 36/116/12
f 37/117/30 34/107/30 35/110/30
f 38/118/11 35/113/11 32/112/14
f 37/119/12 36/116/12 34/115/13
f 39/120/30 37/117/30 35/110/30
f 35/121/11 38/122/11 39/123/9
f 36/124/12 37/125/12 40/126/10
f 41/127/30 37/117/30 39/120/30
f 42/128/9 39/123/9 38/122/11
f 41/129/10 40/126/10 37/125/12
f 43/130/30 41/127/30 39/120/30
f 39/131/9 42/132/9 43/133/7
f 41/134/10 44/135/8 40/136/10
f 44/137/30 41/127/30 43/130/30
f 45/138/7 43/133/7 42/132/9
f 46/139/8 40/136/10 44/135/8
f 47/140/30 44/137/30 43/130/30
f 45/141/7 48/142/6 43/143/7
f 44/144/8 49/145/5 46/146/8
f 49/147/30 44/137/30 47/140/30
f 47/148/6 43/143/7 48/142/6
f 50/149/5 46/146/8 49/145/5
f 51/150/30 49/147/30 47/140/30
f 48/151/6 52/152/4 47/153/6
f 49/154/5 53/155/2 50/156/5
f 53/157/30 49/147/30 51/150/30
f 51/158/4 47/153/6 52/152/4
f 54/159/2 50/156/5 53/155/2
f 55/160/30 53/157/30 51/150/30
f 52/161/4 56/162/3 51/163/4
f 53/164/2 55/165/3 54/166/2
f 55/167/3 51/163/4 56/162/3
f 56/168/3 54/166/2 55/165/3
