# SSTK version 0.8.0
# 75
mtllib original-75.mtl
o mesh74/mesh74-geometry#mesh74-geometry
v -0.883767 -0.012195 0.419574
v -0.884986 -0.024797 0.417663
v -0.883767 -0.024853 0.418165
v -0.884986 -0.012139 0.419072
v -0.882459 -0.012214 0.419745
v -0.884986 0.000574 0.304880
v -0.886033 -0.024708 0.416864
v -0.882459 -0.024872 0.418336
v -0.883767 0.000630 0.304379
v -0.886033 0.000485 0.305679
v -0.886033 -0.012051 0.418274
v -0.786425 -0.024872 0.418336
v -0.882459 0.000649 0.304207
v -0.884986 -0.012083 0.303471
v -0.883767 -0.012027 0.302969
v -0.886836 -0.011935 0.417233
v -0.786425 -0.012214 0.419745
v -0.882459 -0.012008 0.302798
v -0.886836 0.000370 0.306719
v -0.886033 -0.012172 0.304270
v -0.886836 -0.024592 0.415824
v -0.785117 -0.024853 0.418165
v -0.786425 0.000649 0.304207
v -0.786425 -0.012008 0.302798
v -0.886836 -0.012288 0.305310
v -0.887341 -0.011800 0.416022
v -0.887341 0.000235 0.307931
v -0.785117 -0.012195 0.419574
v -0.887341 -0.012423 0.306521
v -0.887341 -0.024457 0.414613
v -0.783898 -0.024797 0.417663
v -0.785117 0.000630 0.304379
v -0.887513 -0.011655 0.414722
v -0.887513 0.000090 0.309231
v -0.887513 -0.012567 0.307822
v -0.783898 -0.012139 0.419072
v -0.785117 -0.012027 0.302969
v -0.887513 -0.024312 0.413312
v -0.782851 -0.024708 0.416864
v -0.783898 0.000574 0.304880
v -0.782851 -0.012051 0.418274
v -0.783898 -0.012083 0.303471
v -0.782048 -0.011935 0.417233
v -0.782851 0.000485 0.305679
v -0.782048 -0.024592 0.415824
v -0.782851 -0.012172 0.304270
v -0.781543 -0.011800 0.416022
v -0.782048 0.000370 0.306719
v -0.782048 -0.012288 0.305310
v -0.781543 -0.024457 0.414613
v -0.781371 -0.011655 0.414722
v -0.781543 0.000235 0.307931
v -0.781543 -0.012423 0.306521
v -0.781371 -0.024312 0.413312
v -0.781371 0.000090 0.309231
v -0.781371 -0.012567 0.307822
vt 1.01639 0.029833
vt 1.015705 0.030445
vt 1.017126 0.029624
vt 1.015705 0.169906
vt 1.015117 0.03142
vt 1.01639 0.170519
vt 1.015117 0.168931
vt 1.071103 0.029624
vt 1.017126 0.170728
vt 1.014665 0.032691
vt 1.014665 0.16766
vt 1.071838 0.029833
vt 1.071103 0.170728
vt 1.014382 0.034171
vt 1.014382 0.166181
vt 1.072523 0.030445
vt 1.071838 0.170519
vt 1.014285 0.035758
vt 1.014285 0.164593
vt 1.073112 0.03142
vt 1.072523 0.169906
vt 1.073563 0.032691
vt 1.073112 0.168931
vt 1.073847 0.034171
vt 1.073563 0.16766
vt 1.073944 0.035758
vt 1.073847 0.166181
vt 1.073944 0.164593
vt 0.022533 4.405223
vt 0.020943 4.405706
vt 0.023187 4.514645
vt 0.021597 4.515128
vt 0.032877 4.517611
vt 0.034469 4.517446
vt 0.032654 4.408101
vt 0.036963 4.418112
vt 0.035493 4.422454
vt 0.035493 5.410528
vt 0.009488 4.408164
vt 0.0079 4.408932
vt 0.010527 4.517435
vt 0.034245 4.407936
vt 0.038541 4.416631
vt 0.036963 5.41487
vt 0.03423 5.40362
vt 0.008939 4.518202
vt 0.038541 4.411256
vt 0.038541 4.520777
vt 0.154395 4.411256
vt 0.038541 5.416351
vt 0.03423 4.429362
vt -0.126751 4.58376
vt -0.125163 4.582993
vt -0.12779 4.47449
vt -0.094901 4.55051
vt -0.09331 4.550027
vt -0.095555 4.441088
vt -0.002627 4.525018
vt -0.003978 4.415921
vt -0.004212 4.526016
vt 0.154395 4.520777
vt 0.154395 4.416631
vt -0.056372 4.526856
vt -0.05478 4.526691
vt -0.056595 4.417347
vt 0.033261 5.394618
vt -0.126202 4.473723
vt -0.093964 4.440605
vt -0.055004 4.417182
vt -0.005564 4.41692
vt 0.033261 4.438364
vt 0.157054 4.427348
vt 0.156831 4.536858
vt 0.158646 4.427513
vt 0.154395 5.416351
vt -0.034629 4.411256
vt -0.150483 4.411256
vt -0.034629 4.520777
vt -0.148191 4.616672
vt -0.149543 4.507576
vt -0.149777 4.617671
vt -0.151129 4.508575
vt -0.015376 4.535322
vt -0.016948 4.426376
vt -0.01696 4.536483
vt 0.032652 5.384135
vt 0.158422 4.537023
vt 0.155973 4.418112
vt -0.150483 4.520777
vt -0.164067 4.53425
vt -0.162495 4.643196
vt -0.162483 4.533088
vt -0.018532 4.427537
vt 0.032652 4.448847
vt -0.160911 4.642035
vt 0.155856 4.458215
vt 0.155202 4.567637
vt 0.157447 4.458698
vt 0.155973 5.41487
vt -0.127104 4.507444
vt -0.12688 4.397935
vt -0.128695 4.507279
vt -0.026874 4.545576
vt -0.02856 4.436717
vt -0.028456 4.546821
vt 0.032444 5.372885
vt -0.165822 4.544724
vt -0.164136 4.653583
vt -0.16424 4.543479
vt 0.156793 4.56812
vt 0.157444 4.422454
vt -0.128472 4.39777
vt -0.030142 4.437962
vt 0.032444 4.460097
vt -0.162554 4.652338
vt 0.144044 4.480453
vt 0.143005 4.589723
vt 0.145632 4.48122
vt 0.157444 5.410528
vt -0.075665 4.497518
vt -0.075011 4.388096
vt -0.077255 4.497035
vt -0.032705 4.550436
vt -0.034405 4.441588
vt -0.159967 4.651439
vt -0.161667 4.54259
vt 0.144593 4.59049
vt 0.158707 4.429362
vt -0.076601 4.387613
vt 0.121163 4.597191
vt 0.122749 4.598189
vt 0.122515 4.488095
vt 0.158707 5.40362
vt -0.018957 4.511472
vt -0.017918 4.402202
vt -0.020545 4.510704
vt 0.1241 4.489093
vt 0.159676 4.438364
vt -0.019506 4.401434
vt 0.091245 4.588084
vt 0.092828 4.589245
vt 0.092817 4.479138
vt 0.159676 5.394618
vt 0.040416 4.436401
vt 0.038831 4.435403
vt 0.039064 4.545497
vt 0.0944 4.480299
vt 0.160285 4.448847
vt 0.037479 4.544499
vt 0.05531 4.564873
vt 0.056892 4.566118
vt 0.056995 4.456014
vt 0.160285 5.384135
vt 0.096022 4.481488
vt 0.094438 4.480327
vt 0.09445 4.590434
vt 0.058578 4.457259
vt 0.160493 4.460097
vt 0.092866 4.589273
vt 0.036617 4.550436
vt 0.163879 4.651439
vt 0.038317 4.441588
vt 0.160493 5.372885
vt 0.14521 4.525427
vt 0.143628 4.524182
vt 0.143524 4.634286
vt 0.165579 4.54259
vt 0.141942 4.633041
vn -0.2588190625409164 -0.1068820258269226 0.9599942319725542
vn -0.5000001136417888 -0.09582802178013086 0.8607071956245661
vn -0.06540301236686057 -0.11041602087823633 0.9917311875234928
vn 0 0.9938591002356646 0.11065301115991022
vn -0.7071066741218326 -0.07824296394083871 0.7027646761228917
vn 0.06540301236686057 -0.11041602087823633 0.9917311875234928
vn -0.5000001136417888 0.09582802178013086 -0.8607071956245661
vn -0.7071066741218326 0.07824296394083871 -0.7027646761228917
vn -0.2588190625409164 0.1068820258269226 -0.9599942319725542
vn -0.8660251334540503 -0.05532600852571102 0.4969300765766822
vn -0.06540301236686057 0.11041602087823633 -0.9917311875234928
vn 0.2588190625409164 -0.1068820258269226 0.9599942319725542
vn 0.06540301236686057 0.11041602087823633 -0.9917311875234928
vn -0.8660251334540503 0.05532600852571102 -0.4969300765766822
vn -0.9659257572160402 -0.028638992801633078 0.2572299353456497
vn -0.9659257572160402 0.028638992801633078 -0.2572299353456497
vn 0.5000001136417888 -0.09582802178013086 0.8607071956245661
vn 0.2588190625409164 0.1068820258269226 -0.9599942319725542
vn -0.9978589560687615 -0.0072369996813874925 0.06500099713829867
vn -0.9978589560687615 0.0072369996813874925 -0.06500099713829867
vn 0.7071066741218326 -0.07824296394083871 0.7027646761228917
vn 0.5000001136417888 0.09582802178013086 -0.8607071956245661
vn 0.8660251334540503 -0.05532600852571102 0.4969300765766822
vn 0.7071066741218326 0.07824296394083871 -0.7027646761228917
vn 0.9659257572160402 -0.028638992801633078 0.2572299353456497
vn 0.8660251334540503 0.05532600852571102 -0.4969300765766822
vn 0.9978589560687615 -0.0072369996813874925 0.06500099713829867
vn 0.9659257572160402 0.028638992801633078 -0.2572299353456497
vn 0.9978589560687615 0.0072369996813874925 -0.06500099713829867
vn 0 -0.9938591002356646 -0.11065301115991022
usemtl material_0_0
f 1/1/1 2/2/2 3/1/1
f 2/2/2 1/1/1 4/2/2
f 3/1/1 5/3/3 1/1/1
f 6/4/4 4/2/4 1/1/4
f 4/2/2 7/5/5 2/2/2
f 5/3/3 3/1/1 8/3/3
f 9/6/4 1/1/4 5/3/4
f 10/7/4 4/2/4 6/4/4
f 6/4/4 1/1/4 9/6/4
f 7/5/5 4/2/2 11/5/5
f 12/8/6 5/3/3 8/3/3
f 9/6/4 5/3/4 13/9/4
f 10/7/4 11/5/4 4/2/4
f 14/4/7 10/7/8 6/4/7
f 15/6/9 6/4/7 9/6/9
f 16/10/10 7/5/5 11/5/5
f 5/3/3 12/8/6 17/8/6
f 13/9/4 5/3/4 17/8/4
f 18/9/11 9/6/9 13/9/11
f 19/11/4 11/5/4 10/7/4
f 10/7/8 14/4/7 20/7/8
f 6/4/7 15/6/9 14/4/7
f 9/6/9 18/9/11 15/6/9
f 7/5/5 16/10/10 21/10/10
f 19/11/4 16/10/4 11/5/4
f 22/12/12 17/8/6 12/8/6
f 13/9/4 17/8/4 23/13/4
f 13/9/11 24/13/13 18/9/11
f 10/7/8 25/11/14 19/11/14
f 25/11/14 10/7/8 20/7/8
f 26/14/15 21/10/10 16/10/10
f 27/15/4 16/10/4 19/11/4
f 17/8/6 22/12/12 28/12/12
f 23/13/4 17/8/4 28/12/4
f 24/13/13 13/9/11 23/13/13
f 29/15/16 19/11/14 25/11/14
f 21/10/10 26/14/15 30/14/15
f 27/15/4 26/14/4 16/10/4
f 19/11/14 29/15/16 27/15/16
f 31/16/17 28/12/12 22/12/12
f 23/13/4 28/12/4 32/17/4
f 32/17/18 24/13/13 23/13/13
f 33/18/19 30/14/15 26/14/15
f 34/19/4 26/14/4 27/15/4
f 35/19/20 27/15/16 29/15/16
f 28/12/12 31/16/17 36/16/17
f 32/17/4 28/12/4 36/16/4
f 24/13/13 32/17/18 37/17/18
f 30/14/15 33/18/19 38/18/19
f 26/14/4 34/19/4 33/18/4
f 27/15/16 35/19/20 34/19/20
f 39/20/21 36/16/17 31/16/17
f 32/17/4 36/16/4 40/21/4
f 40/21/22 37/17/18 32/17/18
f 34/19/20 38/18/19 33/18/19
f 38/18/19 34/19/20 35/19/20
f 36/16/17 39/20/21 41/20/21
f 40/21/4 36/16/4 41/20/4
f 37/17/18 40/21/22 42/21/22
f 39/20/21 43/22/23 41/20/21
f 40/21/4 41/20/4 44/23/4
f 44/23/24 42/21/22 40/21/22
f 43/22/23 39/20/21 45/22/23
f 44/23/4 41/20/4 43/22/4
f 42/21/22 44/23/24 46/23/24
f 45/22/23 47/24/25 43/22/23
f 44/23/4 43/22/4 48/25/4
f 44/23/24 49/25/26 46/23/24
f 47/24/25 45/22/23 50/24/25
f 48/25/4 43/22/4 47/24/4
f 49/25/26 44/23/24 48/25/26
f 50/24/25 51/26/27 47/24/25
f 48/25/4 47/24/4 52/27/4
f 48/25/26 53/27/28 49/25/26
f 51/26/27 50/24/25 54/26/27
f 52/27/4 47/24/4 51/26/4
f 53/27/28 48/25/26 52/27/28
f 54/26/27 55/28/29 51/26/27
f 52/27/4 51/26/4 55/28/4
f 52/27/28 56/28/29 53/27/28
f 55/28/29 54/26/27 56/28/29
f 56/28/29 52/27/28 55/28/29
usemtl material_1_0
f 3/29/18 2/30/22 1/31/18
f 4/32/22 1/31/18 2/30/22
f 1/33/18 5/34/13 3/35/18
f 1/36/30 4/37/30 6/38/30
f 2/39/22 7/40/24 4/41/22
f 8/42/13 3/35/18 5/34/13
f 5/43/30 1/36/30 9/44/30
f 6/38/30 4/37/30 10/45/30
f 9/44/30 1/36/30 6/38/30
f 11/46/24 4/41/22 7/40/24
f 8/47/13 5/48/13 12/49/11
f 13/50/30 5/43/30 9/44/30
f 4/37/30 11/51/30 10/45/30
f 6/52/17 10/53/21 14/54/17
f 9/55/12 6/56/17 15/57/12
f 11/58/24 7/59/24 16/60/26
f 17/61/11 12/49/11 5/48/13
f 17/62/30 5/43/30 13/50/30
f 13/63/6 9/64/12 18/65/6
f 10/45/30 11/51/30 19/66/30
f 20/67/21 14/54/17 10/53/21
f 14/68/17 15/57/12 6/56/17
f 15/69/12 18/65/6 9/64/12
f 21/70/26 16/60/26 7/59/24
f 11/51/30 16/71/30 19/66/30
f 12/72/11 17/73/11 22/74/9
f 23/75/30 17/62/30 13/50/30
f 18/76/6 24/77/3 13/78/6
f 19/79/23 25/80/23 10/81/21
f 20/82/21 10/81/21 25/80/23
f 16/83/26 21/84/26 26/85/28
f 19/66/30 16/71/30 27/86/30
f 28/87/9 22/74/9 17/73/11
f 28/88/30 17/62/30 23/75/30
f 23/89/3 13/78/6 24/77/3
f 25/90/23 19/91/23 29/92/25
f 30/93/28 26/85/28 21/84/26
f 16/71/30 26/94/30 27/86/30
f 27/95/25 29/92/25 19/91/23
f 22/96/9 28/97/9 31/98/7
f 32/99/30 28/88/30 23/75/30
f 23/100/3 24/101/3 32/102/1
f 26/103/28 30/104/28 33/105/29
f 27/86/30 26/94/30 34/106/30
f 29/107/25 27/108/25 35/109/27
f 36/110/7 31/98/7 28/97/9
f 36/111/30 28/88/30 32/99/30
f 37/112/1 32/102/1 24/101/3
f 38/113/29 33/105/29 30/104/28
f 33/114/30 34/106/30 26/94/30
f 34/115/27 35/109/27 27/108/25
f 31/116/7 36/117/7 39/118/8
f 40/119/30 36/111/30 32/99/30
f 32/120/1 37/121/1 40/122/2
f 33/123/29 38/124/29 34/125/27
f 35/126/27 34/125/27 38/124/29
f 41/127/8 39/118/8 36/117/7
f 41/128/30 36/111/30 40/119/30
f 42/129/2 40/122/2 37/121/1
f 41/130/8 43/131/14 39/132/8
f 44/133/30 41/128/30 40/119/30
f 40/134/2 42/135/2 44/136/5
f 45/137/14 39/132/8 43/131/14
f 43/138/30 41/128/30 44/133/30
f 46/139/5 44/136/5 42/135/2
f 43/140/14 47/141/16 45/142/14
f 48/143/30 43/138/30 44/133/30
f 46/144/5 49/145/10 44/146/5
f 50/147/16 45/142/14 47/141/16
f 47/148/30 43/138/30 48/143/30
f 48/149/10 44/146/5 49/145/10
f 47/150/16 51/151/20 50/152/16
f 52/153/30 47/148/30 48/143/30
f 49/154/10 53/155/15 48/156/10
f 54/157/20 50/152/16 51/151/20
f 51/158/30 47/148/30 52/153/30
f 52/159/15 48/156/10 53/155/15
f 51/160/20 55/161/19 54/162/20
f 55/163/30 51/158/30 52/153/30
f 53/164/15 56/165/19 52/166/15
f 56/167/19 54/162/20 55/161/19
f 55/168/19 52/166/15 56/165/19
