# SSTK version 0.8.0
# 57
mtllib original-57.mtl
o mesh56/mesh56-geometry#mesh56-geometry
v -0.556009 0.016444 0.162342
v -0.556181 0.026656 0.070621
v -0.556181 0.016589 0.161041
v -0.556009 0.026801 0.069320
v -0.556181 0.003931 0.159632
v -0.556009 0.003787 0.160932
v -0.555504 0.016309 0.163553
v -0.556181 0.013999 0.069211
v -0.555504 0.003652 0.162144
v -0.555504 0.026936 0.068109
v -0.556009 0.014143 0.067911
v -0.554701 0.003536 0.163184
v -0.554701 0.016193 0.164593
v -0.554701 0.027051 0.067069
v -0.555504 0.014278 0.066700
v -0.553654 0.016104 0.165392
v -0.553654 0.003447 0.163983
v -0.553654 0.027140 0.066270
v -0.554701 0.014394 0.065659
v -0.552435 0.016049 0.165894
v -0.553654 0.014483 0.064861
v -0.552435 0.003391 0.164484
v -0.552435 0.027196 0.065768
v -0.552435 0.014539 0.064359
v -0.551127 0.016030 0.166065
v -0.551127 0.003372 0.164656
v -0.551127 0.027215 0.065597
v -0.551127 0.014558 0.064188
v -0.455093 0.003372 0.164656
v -0.455093 0.016030 0.166065
v -0.455093 0.027215 0.065597
v -0.455093 0.014558 0.064188
v -0.453785 0.003391 0.164484
v -0.453785 0.016049 0.165894
v -0.453785 0.027196 0.065768
v -0.452566 0.003447 0.163983
v -0.452566 0.016104 0.165392
v -0.453785 0.014539 0.064359
v -0.452566 0.027140 0.066270
v -0.451519 0.003536 0.163184
v -0.451519 0.016193 0.164593
v -0.452566 0.014483 0.064861
v -0.451519 0.027051 0.067069
v -0.450716 0.016309 0.163553
v -0.451519 0.014394 0.065659
v -0.450716 0.003652 0.162144
v -0.450716 0.026936 0.068109
v -0.450716 0.014278 0.066700
v -0.450211 0.016444 0.162342
v -0.450211 0.003787 0.160932
v -0.450211 0.026801 0.069320
v -0.450211 0.014143 0.067911
v -0.450039 0.016589 0.161041
v -0.450039 0.003931 0.159632
v -0.450039 0.026656 0.070621
v -0.450039 0.013999 0.069211
vt 1.200612 0.343987
vt 1.200515 0.456004
vt 1.200515 0.345574
vt 1.200612 0.457592
vt 1.200896 0.342507
vt 1.200896 0.459071
vt 1.201347 0.341236
vt 1.201347 0.460342
vt 1.201936 0.340261
vt 1.201936 0.461317
vt 1.202621 0.339649
vt 1.202621 0.46193
vt 1.203356 0.339439
vt 1.203356 0.462139
vt 1.257333 0.339439
vt 1.257333 0.462139
vt 1.258069 0.339649
vt 1.258069 0.46193
vt 1.258754 0.340261
vt 1.258754 0.461317
vt 1.259342 0.341236
vt 1.259342 0.460342
vt 1.259794 0.342507
vt 1.259794 0.459071
vt 1.260077 0.343987
vt 1.260077 0.457592
vt 1.260174 0.345574
vt 1.260174 0.456004
vt 0.032444 4.460097
vt 0.032444 5.242487
vt 0.032652 4.448847
vt 0.032652 5.253737
vt -0.732394 2.636942
vt -0.734095 2.528093
vt -0.841477 2.723515
vt -0.67217 2.587245
vt -0.673856 2.478385
vt -0.673753 2.58849
vt 0.033261 4.438364
vt -0.89354 2.761433
vt -0.895226 2.652573
vt -0.895122 2.762678
vt -0.843177 2.614667
vt -0.675438 2.47963
vt -0.543475 2.367789
vt -0.541903 2.476735
vt -0.541891 2.366627
vt -0.540319 2.475574
vt 0.033261 5.26422
vt -0.896808 2.653818
vt -0.40142 2.262919
vt -0.400068 2.372015
vt -0.399834 2.26192
vt 0.03423 4.429362
vt -0.973365 2.793101
vt -0.974937 2.684155
vt -0.974948 2.794262
vt -0.398482 2.371016
vt 0.03423 5.273222
vt -0.976521 2.685316
vt -0.257708 2.302339
vt -0.25612 2.301572
vt -0.258747 2.193069
vt 0.035493 4.422454
vt -1.014364 2.758806
vt -1.015716 2.64971
vt -1.01595 2.759804
vt -0.257159 2.192301
vt 0.035493 5.28013
vt -1.017302 2.650708
vt -0.124565 2.286547
vt -0.122974 2.286064
vt -0.125219 2.177125
vt 0.036963 4.418112
vt -1.015065 2.668254
vt -1.013477 2.667486
vt -1.016104 2.558983
vt -1.014516 2.558216
vt -0.123629 2.176642
vt 0.036963 5.284472
vt -0.971038 2.434016
vt -0.972628 2.4345
vt -0.970384 2.543438
vt -0.009977 2.329071
vt -0.008385 2.328906
vt -0.0102 2.219561
vt 0.038541 4.416631
vt -0.971974 2.543921
vt -0.008608 2.219396
vt 0.038541 5.285953
vt -0.887975 2.310492
vt -0.889567 2.310657
vt -0.887752 2.420002
vt 0.038541 2.259684
vt 0.038541 2.369205
vt 0.154395 2.259684
vt 0.154395 4.416631
vt -0.889344 2.420167
vt 0.154395 2.369205
vt 0.154395 5.285953
vt -0.834057 2.259684
vt -0.949911 2.259684
vt -0.834057 2.369205
vt 0.192985 2.320906
vt 0.192762 2.430416
vt 0.194577 2.321071
vt 0.155973 4.418112
vt -0.949911 2.369205
vt 0.194353 2.43058
vt 0.155973 5.284472
vt -0.886065 2.318657
vt -0.885842 2.209148
vt -0.887657 2.318492
vt 0.240496 2.45375
vt 0.239842 2.563172
vt 0.242086 2.454233
vt 0.157444 4.422454
vt -0.887434 2.208983
vt 0.241432 2.563655
vt 0.157444 5.28013
vt -0.735925 2.266813
vt -0.735271 2.157392
vt -0.737516 2.26633
vt 0.24404 2.570314
vt 0.243001 2.679584
vt 0.245628 2.571081
vt 0.158707 4.429362
vt -0.736862 2.156909
vt 0.244589 2.680352
vt 0.158707 5.273222
vt -0.562848 2.290241
vt -0.561809 2.180971
vt -0.564436 2.289474
vt 0.202364 2.748427
vt 0.20395 2.749425
vt 0.203716 2.639331
vt 0.159676 4.438364
vt -0.563397 2.180203
vt 0.205302 2.640329
vt 0.159676 5.26422
vt -0.377612 2.273298
vt -0.379198 2.272299
vt -0.378964 2.382394
vt 0.121082 2.751477
vt 0.122666 2.752638
vt 0.122654 2.642531
vt 0.160285 4.448847
vt -0.38055 2.381395
vt 0.124238 2.643692
vt 0.160285 5.253737
vt -0.195275 2.409412
vt -0.196858 2.408251
vt -0.196847 2.518358
vt 0.004894 2.688152
vt 0.006477 2.689397
vt 0.00658 2.579293
vt 0.160493 4.460097
vt -0.19843 2.517197
vt 0.008162 2.580538
vt 0.160493 5.242487
vt -0.026948 2.55291
vt -0.02853 2.551666
vt -0.028634 2.66177
vt -0.063122 2.636942
vt 0.04596 2.723515
vt -0.061422 2.528093
vt -0.030216 2.660525
vt 0.047661 2.614667
vn 0 0.9938591002356646 0.11065301115991022
vn -0.9978589560687615 0.0072369996813874925 -0.06500099713829867
vn -0.9978589560687615 -0.0072369996813874925 0.06500099713829867
vn -0.9659257572160402 -0.028638992801633078 0.2572299353456497
vn -0.9659257572160402 0.028638992801633078 -0.2572299353456497
vn -0.8660251334540503 -0.05532600852571102 0.4969300765766822
vn -0.7071066741218326 -0.07824296394083871 0.7027646761228917
vn -0.8660251334540503 0.05532600852571102 -0.4969300765766822
vn -0.5000001136417888 -0.09582802178013086 0.8607071956245661
vn -0.7071066741218326 0.07824296394083871 -0.7027646761228917
vn -0.2588190625409164 -0.1068820258269226 0.9599942319725542
vn -0.5000001136417888 0.09582802178013086 -0.8607071956245661
vn -0.2588190625409164 0.1068820258269226 -0.9599942319725542
vn -0.06540301236686057 -0.11041602087823633 0.9917311875234928
vn -0.06540301236686057 0.11041602087823633 -0.9917311875234928
vn 0.06540301236686057 -0.11041602087823633 0.9917311875234928
vn 0.06540301236686057 0.11041602087823633 -0.9917311875234928
vn 0.2588190625409164 -0.1068820258269226 0.9599942319725542
vn 0.2588190625409164 0.1068820258269226 -0.9599942319725542
vn 0.5000001136417888 -0.09582802178013086 0.8607071956245661
vn 0.5000001136417888 0.09582802178013086 -0.8607071956245661
vn 0.7071066741218326 -0.07824296394083871 0.7027646761228917
vn 0.7071066741218326 0.07824296394083871 -0.7027646761228917
vn 0.8660251334540503 -0.05532600852571102 0.4969300765766822
vn 0.8660251334540503 0.05532600852571102 -0.4969300765766822
vn 0.9659257572160402 -0.028638992801633078 0.2572299353456497
vn 0.9659257572160402 0.028638992801633078 -0.2572299353456497
vn 0.9978589560687615 -0.0072369996813874925 0.06500099713829867
vn 0.9978589560687615 0.0072369996813874925 -0.06500099713829867
vn 0 -0.9938591002356646 -0.11065301115991022
usemtl material_0_0
f 1/1/1 2/2/1 3/3/1
f 2/2/1 1/1/1 4/4/1
f 2/2/2 5/3/3 3/3/3
f 3/3/3 6/1/4 1/1/4
f 4/4/1 1/1/1 7/5/1
f 4/4/5 8/2/2 2/2/2
f 5/3/3 2/2/2 8/2/2
f 6/1/4 3/3/3 5/3/3
f 9/5/6 1/1/4 6/1/4
f 1/1/4 9/5/6 7/5/6
f 4/4/1 7/5/1 10/6/1
f 8/2/2 4/4/5 11/4/5
f 12/7/7 7/5/6 9/5/6
f 10/6/1 7/5/1 13/7/1
f 10/6/8 11/4/5 4/4/5
f 7/5/6 12/7/7 13/7/7
f 10/6/1 13/7/1 14/8/1
f 11/4/5 10/6/8 15/6/8
f 12/7/7 16/9/9 13/7/7
f 14/8/1 13/7/1 16/9/1
f 14/8/10 15/6/8 10/6/8
f 16/9/9 12/7/7 17/9/9
f 14/8/1 16/9/1 18/10/1
f 15/6/8 14/8/10 19/8/10
f 17/9/9 20/11/11 16/9/9
f 18/10/1 16/9/1 20/11/1
f 21/10/12 14/8/10 18/10/12
f 14/8/10 21/10/12 19/8/10
f 20/11/11 17/9/9 22/11/11
f 18/10/1 20/11/1 23/12/1
f 18/10/12 24/12/13 21/10/12
f 22/11/11 25/13/14 20/11/11
f 23/12/1 20/11/1 25/13/1
f 24/12/13 18/10/12 23/12/13
f 25/13/14 22/11/11 26/13/14
f 23/12/1 25/13/1 27/14/1
f 23/12/13 28/14/15 24/12/13
f 29/15/16 25/13/14 26/13/14
f 27/14/1 25/13/1 30/15/1
f 28/14/15 23/12/13 27/14/15
f 25/13/14 29/15/16 30/15/16
f 27/14/1 30/15/1 31/16/1
f 27/14/15 32/16/17 28/14/15
f 33/17/18 30/15/16 29/15/16
f 31/16/1 30/15/1 34/17/1
f 32/16/17 27/14/15 31/16/17
f 30/15/16 33/17/18 34/17/18
f 31/16/1 34/17/1 35/18/1
f 35/18/19 32/16/17 31/16/17
f 36/19/20 34/17/18 33/17/18
f 35/18/1 34/17/1 37/19/1
f 32/16/17 35/18/19 38/18/19
f 34/17/18 36/19/20 37/19/20
f 35/18/1 37/19/1 39/20/1
f 39/20/21 38/18/19 35/18/19
f 40/21/22 37/19/20 36/19/20
f 39/20/1 37/19/1 41/21/1
f 38/18/19 39/20/21 42/20/21
f 37/19/20 40/21/22 41/21/22
f 39/20/1 41/21/1 43/22/1
f 43/22/23 42/20/21 39/20/21
f 40/21/22 44/23/24 41/21/22
f 43/22/1 41/21/1 44/23/1
f 42/20/21 43/22/23 45/22/23
f 44/23/24 40/21/22 46/23/24
f 43/22/1 44/23/1 47/24/1
f 43/22/23 48/24/25 45/22/23
f 46/23/24 49/25/26 44/23/24
f 47/24/1 44/23/1 49/25/1
f 48/24/25 43/22/23 47/24/25
f 49/25/26 46/23/24 50/25/26
f 47/24/1 49/25/1 51/26/1
f 47/24/25 52/26/27 48/24/25
f 50/25/26 53/27/28 49/25/26
f 51/26/1 49/25/1 53/27/1
f 52/26/27 47/24/25 51/26/27
f 53/27/28 50/25/26 54/27/28
f 51/26/1 53/27/1 55/28/1
f 51/26/27 56/28/29 52/26/27
f 54/27/28 55/28/29 53/27/28
f 56/28/29 51/26/27 55/28/29
f 55/28/29 54/27/28 56/28/29
usemtl material_1_0
f 3/29/30 2/30/30 1/31/30
f 4/32/30 1/31/30 2/30/30
f 3/33/29 5/34/29 2/35/28
f 1/36/27 6/37/27 3/38/29
f 7/39/30 1/31/30 4/32/30
f 2/40/28 8/41/28 4/42/26
f 8/43/28 2/35/28 5/34/29
f 5/44/29 3/38/29 6/37/27
f 6/45/27 1/46/27 9/47/25
f 7/48/25 9/47/25 1/46/27
f 10/49/30 7/39/30 4/32/30
f 11/50/26 4/42/26 8/41/28
f 9/51/25 7/52/25 12/53/23
f 13/54/30 7/39/30 10/49/30
f 4/55/26 11/56/26 10/57/24
f 13/58/23 12/53/23 7/52/25
f 14/59/30 13/54/30 10/49/30
f 15/60/24 10/57/24 11/56/26
f 13/61/23 16/62/21 12/63/23
f 16/64/30 13/54/30 14/59/30
f 10/65/24 15/66/24 14/67/22
f 17/68/21 12/63/23 16/62/21
f 18/69/30 16/64/30 14/59/30
f 19/70/22 14/67/22 15/66/24
f 16/71/21 20/72/19 17/73/21
f 20/74/30 16/64/30 18/69/30
f 18/75/20 14/76/22 21/77/20
f 19/78/22 21/77/20 14/76/22
f 22/79/19 17/73/21 20/72/19
f 23/80/30 20/74/30 18/69/30
f 21/81/20 24/82/18 18/83/20
f 20/84/19 25/85/17 22/86/19
f 25/87/30 20/74/30 23/80/30
f 23/88/18 18/83/20 24/82/18
f 26/89/17 22/86/19 25/85/17
f 27/90/30 25/87/30 23/80/30
f 24/91/18 28/92/16 23/93/18
f 26/94/17 25/95/17 29/96/15
f 30/97/30 25/87/30 27/90/30
f 27/98/16 23/93/18 28/92/16
f 30/99/15 29/96/15 25/95/17
f 31/100/30 30/97/30 27/90/30
f 28/101/16 32/102/14 27/103/16
f 29/104/15 30/105/15 33/106/13
f 34/107/30 30/97/30 31/100/30
f 31/108/14 27/103/16 32/102/14
f 34/109/13 33/106/13 30/105/15
f 35/110/30 34/107/30 31/100/30
f 31/111/14 32/112/14 35/113/11
f 33/114/13 34/115/13 36/116/12
f 37/117/30 34/107/30 35/110/30
f 38/118/11 35/113/11 32/112/14
f 37/119/12 36/116/12 34/115/13
f 39/120/30 37/117/30 35/110/30
f 35/121/11 38/122/11 39/123/9
f 36/124/12 37/125/12 40/126/10
f 41/127/30 37/117/30 39/120/30
f 42/128/9 39/123/9 38/122/11
f 41/129/10 40/126/10 37/125/12
f 43/130/30 41/127/30 39/120/30
f 39/131/9 42/132/9 43/133/7
f 41/134/10 44/135/8 40/136/10
f 44/137/30 41/127/30 43/130/30
f 45/138/7 43/133/7 42/132/9
f 46/139/8 40/136/10 44/135/8
f 47/140/30 44/137/30 43/130/30
f 45/141/7 48/142/6 43/143/7
f 44/144/8 49/145/5 46/146/8
f 49/147/30 44/137/30 47/140/30
f 47/148/6 43/143/7 48/142/6
f 50/149/5 46/146/8 49/145/5
f 51/150/30 49/147/30 47/140/30
f 48/151/6 52/152/4 47/153/6
f 49/154/5 53/155/2 50/156/5
f 53/157/30 49/147/30 51/150/30
f 51/158/4 47/153/6 52/152/4
f 54/159/2 50/156/5 53/155/2
f 55/160/30 53/157/30 51/150/30
f 52/161/4 56/162/3 51/163/4
f 53/164/2 55/165/3 54/166/2
f 55/167/3 51/163/4 56/162/3
f 56/168/3 54/166/2 55/165/3
