# SSTK version 0.8.0
# 21
mtllib original-21.mtl
o mesh20/mesh20-geometry#mesh20-geometry
v -0.492665 0.002961 0.283441
v -0.493712 -0.009607 0.281233
v -0.492665 -0.009696 0.282032
v -0.493712 0.003050 0.282643
v -0.491446 0.002905 0.283943
v -0.493712 0.013908 0.185118
v -0.494515 0.003166 0.281602
v -0.491446 -0.009752 0.282534
v -0.492665 0.013997 0.184320
v -0.494515 0.013792 0.186158
v -0.494515 -0.009491 0.280193
v -0.490138 0.002886 0.284114
v -0.491446 0.014053 0.183818
v -0.494515 0.001135 0.184749
v -0.492665 0.001340 0.182910
v -0.495020 0.003301 0.280391
v -0.495020 0.013658 0.187370
v -0.490138 -0.009771 0.282705
v -0.491446 0.001396 0.182408
v -0.493712 0.001251 0.183709
v -0.495020 0.001000 0.185961
v -0.495020 -0.009356 0.278981
v -0.394104 -0.009771 0.282705
v -0.490138 0.014072 0.183647
v -0.490138 0.001415 0.182237
v -0.495192 0.003446 0.279091
v -0.495192 0.013513 0.188670
v -0.495192 0.000855 0.187261
v -0.394104 0.002886 0.284114
v -0.495192 -0.009212 0.277681
v -0.392796 -0.009752 0.282534
v -0.394104 0.014072 0.183647
v -0.394104 0.001415 0.182237
v -0.392796 0.002905 0.283943
v -0.391577 -0.009696 0.282032
v -0.392796 0.014053 0.183818
v -0.391577 0.002961 0.283441
v -0.392796 0.001396 0.182408
v -0.390530 -0.009607 0.281233
v -0.391577 0.013997 0.184320
v -0.390530 0.003050 0.282643
v -0.391577 0.001340 0.182910
v -0.389727 0.003166 0.281602
v -0.390530 0.013908 0.185118
v -0.389727 -0.009491 0.280193
v -0.390530 0.001251 0.183709
v -0.389222 0.003301 0.280391
v -0.389727 0.013792 0.186158
v -0.389727 0.001135 0.184749
v -0.389222 -0.009356 0.278981
v -0.389050 0.003446 0.279091
v -0.389222 0.013658 0.187370
v -0.389222 0.001000 0.185961
v -0.389050 -0.009212 0.277681
v -0.389050 0.013513 0.188670
v -0.389050 0.000855 0.187261
vt 1.236215 0.19609
vt 1.235627 0.197065
vt 1.2369 0.195477
vt 1.235627 0.31617
vt 1.235175 0.198335
vt 1.236215 0.317145
vt 1.235175 0.3149
vt 1.237636 0.195268
vt 1.2369 0.317758
vt 1.234892 0.199815
vt 1.234892 0.31342
vt 1.291613 0.195268
vt 1.237636 0.317967
vt 1.234795 0.201403
vt 1.234795 0.311832
vt 1.292348 0.195477
vt 1.291613 0.317967
vt 1.293033 0.19609
vt 1.292348 0.317758
vt 1.293622 0.197065
vt 1.293033 0.317145
vt 1.294073 0.198335
vt 1.293622 0.31617
vt 1.294357 0.199815
vt 1.294073 0.3149
vt 1.294454 0.201403
vt 1.294357 0.31342
vt 1.294454 0.311832
vt -0.185465 3.143568
vt -0.187054 3.144336
vt -0.184426 3.252839
vt -0.186015 3.253606
vt -0.075441 3.270734
vt -0.073851 3.270251
vt -0.076095 3.161313
vt 0.035493 4.422454
vt 0.03423 4.429362
vt 0.03423 5.273222
vt -0.314201 3.293075
vt -0.315553 3.183979
vt -0.315787 3.294073
vt -0.074505 3.16083
vt 0.036963 4.418112
vt 0.035493 5.28013
vt 0.033261 5.26422
vt -0.317138 3.184977
vt 0.033261 4.438364
vt 0.008087 3.341031
vt 0.009679 3.340866
vt 0.007864 3.231521
vt 0.036963 5.284472
vt -1.019315 3.73705
vt -1.020667 3.627954
vt -1.020901 3.738048
vt -1.059847 3.675795
vt -1.058259 3.675028
vt -1.060886 3.566525
vt -0.454196 3.379929
vt -0.455768 3.270983
vt -0.45578 3.38109
vt 0.032652 5.253737
vt 0.009456 3.231356
vt 0.038541 4.416631
vt -1.058677 3.569362
vt -1.057087 3.568878
vt -1.059331 3.45994
vt -1.022253 3.628952
vt -0.946414 3.630745
vt -0.944842 3.739691
vt -0.944831 3.629584
vt -1.059298 3.565758
vt -1.057741 3.459457
vt -0.457352 3.272144
vt 0.032652 4.448847
vt -0.943259 3.73853
vt 0.038541 3.281138
vt 0.038541 3.390659
vt 0.154395 3.281138
vt 0.038541 5.285953
vt -1.015788 3.337564
vt -1.01738 3.337729
vt -1.015565 3.447074
vt -0.594991 3.490074
vt -0.596677 3.381215
vt -0.596574 3.491319
vt 0.032444 5.242487
vt -0.83872 3.57167
vt -0.837034 3.68053
vt -0.837138 3.570425
vt 0.154395 3.390659
vt 0.154395 4.416631
vt -1.017156 3.447239
vt -0.598259 3.38246
vt 0.032444 4.460097
vt -0.835452 3.679285
vt 0.173646 3.347978
vt 0.173423 3.457487
vt 0.175238 3.348143
vt 0.154395 5.285953
vt -0.981209 3.281138
vt -1.097062 3.281138
vt -0.981209 3.390659
vt -0.663557 3.545368
vt -0.665257 3.43652
vt -0.77264 3.631942
vt -0.77434 3.523094
vt 0.175015 3.457652
vt 0.155973 4.418112
vt -1.097062 3.390659
vt 0.180047 3.479191
vt 0.179393 3.588612
vt 0.181638 3.479674
vt 0.155973 5.284472
vt -1.051281 3.330617
vt -1.051058 3.221108
vt -1.052872 3.330452
vt 0.180984 3.589095
vt 0.157444 4.422454
vt -1.052649 3.220943
vt 0.141671 3.577856
vt 0.140632 3.687126
vt 0.143259 3.578623
vt 0.157444 5.28013
vt -0.9322 3.251
vt -0.931546 3.141579
vt -0.933791 3.250517
vt 0.14222 3.687894
vt 0.158707 4.429362
vt -0.933137 3.141096
vt 0.060164 3.726671
vt 0.06175 3.727669
vt 0.061516 3.617575
vt 0.158707 5.273222
vt -0.781693 3.241508
vt -0.780654 3.132238
vt -0.783281 3.240741
vt 0.063102 3.618573
vt 0.159676 4.438364
vt -0.782242 3.13147
vt -0.056175 3.696907
vt -0.054592 3.698068
vt -0.054603 3.58796
vt 0.159676 5.26422
vt -0.609045 3.195356
vt -0.610631 3.194358
vt -0.610397 3.304453
vt -0.05302 3.589121
vt 0.160285 4.448847
vt -0.611983 3.303454
vt -0.200345 3.606004
vt -0.198763 3.607249
vt -0.198659 3.497145
vt 0.160285 5.253737
vt -0.428549 3.313768
vt -0.430132 3.312607
vt -0.430121 3.422714
vt -0.197077 3.49839
vt 0.160493 4.460097
vt -0.431704 3.421553
vt -0.27911 3.545368
vt -0.170028 3.631942
vt -0.27741 3.43652
vt 0.160493 5.242487
vt -0.251279 3.45574
vt -0.252861 3.454495
vt -0.252964 3.5646
vt -0.168328 3.523094
vt -0.254547 3.563355
vn -0.5000001136417888 -0.09582802178013086 0.8607071956245661
vn -0.7071066741218326 -0.07824296394083871 0.7027646761228917
vn -0.2588190625409164 -0.1068820258269226 0.9599942319725542
vn 0 0.9938591002356646 0.11065301115991022
vn -0.8660251334540503 -0.05532600852571102 0.4969300765766822
vn -0.06540301236686057 -0.11041602087823633 0.9917311875234928
vn -0.7071066741218326 0.07824296394083871 -0.7027646761228917
vn -0.8660251334540503 0.05532600852571102 -0.4969300765766822
vn -0.5000001136417888 0.09582802178013086 -0.8607071956245661
vn -0.9659257572160402 -0.028638992801633078 0.2572299353456497
vn -0.2588190625409164 0.1068820258269226 -0.9599942319725542
vn -0.9659257572160402 0.028638992801633078 -0.2572299353456497
vn 0.06540301236686057 -0.11041602087823633 0.9917311875234928
vn -0.06540301236686057 0.11041602087823633 -0.9917311875234928
vn -0.9978589560687615 -0.0072369996813874925 0.06500099713829867
vn -0.9978589560687615 0.0072369996813874925 -0.06500099713829867
vn 0.2588190625409164 -0.1068820258269226 0.9599942319725542
vn 0.06540301236686057 0.11041602087823633 -0.9917311875234928
vn 0.5000001136417888 -0.09582802178013086 0.8607071956245661
vn 0.2588190625409164 0.1068820258269226 -0.9599942319725542
vn 0.7071066741218326 -0.07824296394083871 0.7027646761228917
vn 0.5000001136417888 0.09582802178013086 -0.8607071956245661
vn 0.8660251334540503 -0.05532600852571102 0.4969300765766822
vn 0.7071066741218326 0.07824296394083871 -0.7027646761228917
vn 0.9659257572160402 -0.028638992801633078 0.2572299353456497
vn 0.8660251334540503 0.05532600852571102 -0.4969300765766822
vn 0.9978589560687615 -0.0072369996813874925 0.06500099713829867
vn 0.9659257572160402 0.028638992801633078 -0.2572299353456497
vn 0.9978589560687615 0.0072369996813874925 -0.06500099713829867
vn 0 -0.9938591002356646 -0.11065301115991022
usemtl material_0_0
f 1/1/1 2/2/2 3/1/1
f 2/2/2 1/1/1 4/2/2
f 3/1/1 5/3/3 1/1/1
f 6/4/4 4/2/4 1/1/4
f 7/5/5 2/2/2 4/2/2
f 5/3/3 3/1/1 8/3/3
f 9/6/4 1/1/4 5/3/4
f 10/7/4 4/2/4 6/4/4
f 6/4/4 1/1/4 9/6/4
f 2/2/2 7/5/5 11/5/5
f 10/7/4 7/5/4 4/2/4
f 8/3/3 12/8/6 5/3/3
f 9/6/4 5/3/4 13/9/4
f 6/4/7 14/7/8 10/7/8
f 15/6/9 6/4/7 9/6/9
f 16/10/10 11/5/5 7/5/5
f 17/11/4 7/5/4 10/7/4
f 12/8/6 8/3/3 18/8/6
f 13/9/4 5/3/4 12/8/4
f 19/9/11 9/6/9 13/9/11
f 14/7/8 6/4/7 20/4/7
f 21/11/12 10/7/8 14/7/8
f 6/4/7 15/6/9 20/4/7
f 9/6/9 19/9/11 15/6/9
f 11/5/5 16/10/10 22/10/10
f 17/11/4 16/10/4 7/5/4
f 10/7/8 21/11/12 17/11/12
f 23/12/13 12/8/6 18/8/6
f 13/9/4 12/8/4 24/13/4
f 13/9/11 25/13/14 19/9/11
f 26/14/15 22/10/10 16/10/10
f 27/15/4 16/10/4 17/11/4
f 28/15/16 17/11/12 21/11/12
f 12/8/6 23/12/13 29/12/13
f 24/13/4 12/8/4 29/12/4
f 25/13/14 13/9/11 24/13/14
f 22/10/10 26/14/15 30/14/15
f 16/10/4 27/15/4 26/14/4
f 17/11/12 28/15/16 27/15/16
f 31/16/17 29/12/13 23/12/13
f 24/13/4 29/12/4 32/17/4
f 24/13/14 33/17/18 25/13/14
f 27/15/16 30/14/15 26/14/15
f 30/14/15 27/15/16 28/15/16
f 29/12/13 31/16/17 34/16/17
f 32/17/4 29/12/4 34/16/4
f 33/17/18 24/13/14 32/17/18
f 35/18/19 34/16/17 31/16/17
f 32/17/4 34/16/4 36/19/4
f 36/19/20 33/17/18 32/17/18
f 34/16/17 35/18/19 37/18/19
f 36/19/4 34/16/4 37/18/4
f 33/17/18 36/19/20 38/19/20
f 39/20/21 37/18/19 35/18/19
f 36/19/4 37/18/4 40/21/4
f 40/21/22 38/19/20 36/19/20
f 37/18/19 39/20/21 41/20/21
f 40/21/4 37/18/4 41/20/4
f 38/19/20 40/21/22 42/21/22
f 39/20/21 43/22/23 41/20/21
f 40/21/4 41/20/4 44/23/4
f 44/23/24 42/21/22 40/21/22
f 43/22/23 39/20/21 45/22/23
f 44/23/4 41/20/4 43/22/4
f 42/21/22 44/23/24 46/23/24
f 45/22/23 47/24/25 43/22/23
f 44/23/4 43/22/4 48/25/4
f 44/23/24 49/25/26 46/23/24
f 47/24/25 45/22/23 50/24/25
f 48/25/4 43/22/4 47/24/4
f 49/25/26 44/23/24 48/25/26
f 50/24/25 51/26/27 47/24/25
f 48/25/4 47/24/4 52/27/4
f 48/25/26 53/27/28 49/25/26
f 51/26/27 50/24/25 54/26/27
f 52/27/4 47/24/4 51/26/4
f 53/27/28 48/25/26 52/27/28
f 54/26/27 55/28/29 51/26/27
f 52/27/4 51/26/4 55/28/4
f 52/27/28 56/28/29 53/27/28
f 55/28/29 54/26/27 56/28/29
f 56/28/29 52/27/28 55/28/29
usemtl material_1_0
f 3/29/22 2/30/24 1/31/22
f 4/32/24 1/31/22 2/30/24
f 1/33/22 5/34/20 3/35/22
f 1/36/30 4/37/30 6/38/30
f 4/39/24 2/40/24 7/41/26
f 8/42/20 3/35/22 5/34/20
f 5/43/30 1/36/30 9/44/30
f 6/38/30 4/37/30 10/45/30
f 9/44/30 1/36/30 6/38/30
f 11/46/26 7/41/26 2/40/24
f 4/37/30 7/47/30 10/45/30
f 5/48/20 12/49/18 8/50/20
f 13/51/30 5/43/30 9/44/30
f 10/52/23 14/53/23 6/54/21
f 9/55/19 6/56/21 15/57/19
f 7/58/26 11/59/26 16/60/28
f 10/45/30 7/47/30 17/61/30
f 18/62/18 8/50/20 12/49/18
f 12/63/30 5/43/30 13/51/30
f 13/64/17 9/65/19 19/66/17
f 20/67/21 6/54/21 14/53/23
f 14/68/23 10/69/23 21/70/25
f 20/71/21 15/57/19 6/56/21
f 15/72/19 19/66/17 9/65/19
f 22/73/28 16/60/28 11/59/26
f 7/47/30 16/74/30 17/61/30
f 17/75/25 21/70/25 10/69/23
f 18/76/18 12/77/18 23/78/14
f 24/79/30 12/63/30 13/51/30
f 19/80/17 25/81/13 13/82/17
f 16/83/28 22/84/28 26/85/29
f 17/61/30 16/74/30 27/86/30
f 21/87/25 17/88/25 28/89/27
f 29/90/14 23/78/14 12/77/18
f 29/91/30 12/63/30 24/79/30
f 24/92/13 13/82/17 25/81/13
f 30/93/29 26/85/29 22/84/28
f 26/94/30 27/86/30 16/74/30
f 27/95/27 28/89/27 17/88/25
f 23/96/14 29/97/14 31/98/11
f 32/99/30 29/91/30 24/79/30
f 25/100/13 33/101/6 24/102/13
f 26/103/29 30/104/29 27/105/27
f 28/106/27 27/105/27 30/104/29
f 34/107/11 31/98/11 29/97/14
f 34/108/30 29/91/30 32/99/30
f 32/109/6 24/102/13 33/101/6
f 31/110/11 34/111/11 35/112/9
f 36/113/30 34/108/30 32/99/30
f 32/114/6 33/115/6 36/116/3
f 37/117/9 35/112/9 34/111/11
f 37/118/30 34/108/30 36/113/30
f 38/119/3 36/116/3 33/115/6
f 35/120/9 37/121/9 39/122/7
f 40/123/30 37/118/30 36/113/30
f 36/124/3 38/125/3 40/126/1
f 41/127/7 39/122/7 37/121/9
f 41/128/30 37/118/30 40/123/30
f 42/129/1 40/126/1 38/125/3
f 41/130/7 43/131/8 39/132/7
f 44/133/30 41/128/30 40/123/30
f 40/134/1 42/135/1 44/136/2
f 45/137/8 39/132/7 43/131/8
f 43/138/30 41/128/30 44/133/30
f 46/139/2 44/136/2 42/135/1
f 43/140/8 47/141/12 45/142/8
f 48/143/30 43/138/30 44/133/30
f 46/144/2 49/145/5 44/146/2
f 50/147/12 45/142/8 47/141/12
f 47/148/30 43/138/30 48/143/30
f 48/149/5 44/146/2 49/145/5
f 47/150/12 51/151/16 50/152/12
f 52/153/30 47/148/30 48/143/30
f 49/154/5 53/155/10 48/156/5
f 54/157/16 50/152/12 51/151/16
f 51/158/30 47/148/30 52/153/30
f 52/159/10 48/156/5 53/155/10
f 51/160/16 55/161/15 54/162/16
f 55/163/30 51/158/30 52/153/30
f 53/164/10 56/165/15 52/166/10
f 56/167/15 54/162/16 55/161/15
f 55/168/15 52/166/10 56/165/15
