# SSTK version 0.8.0
# 54
mtllib original-54.mtl
o mesh53/mesh53-geometry#mesh53-geometry
v 0.018713 0.029192 0.047844
v 0.017494 0.016590 0.045933
v 0.018713 0.016534 0.046435
v 0.017494 0.029248 0.047342
v 0.020022 0.029173 0.048015
v 0.017494 0.040283 -0.051779
v 0.016448 0.016679 0.045135
v 0.020022 0.016515 0.046606
v 0.018713 0.040339 -0.052281
v 0.016448 0.040195 -0.050981
v 0.016448 0.029337 0.046544
v 0.116055 0.016515 0.046606
v 0.020022 0.040358 -0.052452
v 0.017494 0.027626 -0.053188
v 0.018713 0.027682 -0.053690
v 0.015644 0.029452 0.045504
v 0.116055 0.029173 0.048015
v 0.020022 0.027701 -0.053861
v 0.015644 0.040079 -0.049940
v 0.016448 0.027537 -0.052390
v 0.015644 0.016795 0.044095
v 0.117364 0.016534 0.046435
v 0.116055 0.040358 -0.052452
v 0.116055 0.027701 -0.053861
v 0.015644 0.027421 -0.051350
v 0.015139 0.029587 0.044292
v 0.015139 0.039944 -0.048729
v 0.117364 0.029192 0.047844
v 0.015139 0.027287 -0.050138
v 0.015139 0.016930 0.042883
v 0.118583 0.016590 0.045933
v 0.117364 0.040339 -0.052281
v 0.014967 0.029732 0.042992
v 0.014967 0.039799 -0.047429
v 0.014967 0.027142 -0.048838
v 0.118583 0.029248 0.047342
v 0.117364 0.027682 -0.053690
v 0.014967 0.017075 0.041583
v 0.119629 0.016679 0.045135
v 0.118583 0.040283 -0.051779
v 0.119629 0.029337 0.046544
v 0.118583 0.027626 -0.053188
v 0.120433 0.029452 0.045504
v 0.119629 0.040195 -0.050981
v 0.120433 0.016795 0.044095
v 0.119629 0.027537 -0.052390
v 0.120938 0.029587 0.044292
v 0.120433 0.040079 -0.049940
v 0.120433 0.027421 -0.051350
v 0.120938 0.016930 0.042883
v 0.121110 0.029732 0.042992
v 0.120938 0.039944 -0.048729
v 0.120938 0.027287 -0.050138
v 0.121110 0.017075 0.041583
v 0.121110 0.039799 -0.047429
v 0.121110 0.027142 -0.048838
vt 1.523643 0.48382
vt 1.522958 0.484433
vt 1.524379 0.483611
vt 1.522958 0.605489
vt 1.52237 0.485408
vt 1.523643 0.606102
vt 1.52237 0.604514
vt 1.578356 0.483611
vt 1.524379 0.606311
vt 1.521918 0.486679
vt 1.521918 0.603243
vt 1.579091 0.48382
vt 1.578356 0.606311
vt 1.521635 0.488158
vt 1.521635 0.601764
vt 1.579777 0.484433
vt 1.579091 0.606102
vt 1.521538 0.489746
vt 1.521538 0.600176
vt 1.580365 0.485408
vt 1.579777 0.605489
vt 1.580816 0.486679
vt 1.580365 0.604514
vt 1.5811 0.488158
vt 1.580816 0.603243
vt 1.581197 0.489746
vt 1.5811 0.601764
vt 1.581197 0.600176
vt -0.23144 0.978664
vt -0.233031 0.979147
vt -0.230786 1.088085
vt -0.232377 1.088568
vt -0.034645 1.238795
vt -0.033054 1.23863
vt -0.034868 1.129285
vt 0.036963 4.418112
vt 0.035493 4.422454
vt 0.035493 5.28013
vt -0.487826 0.949394
vt -0.489414 0.950162
vt -0.486787 1.058665
vt -0.033277 1.129121
vt 0.038541 4.416631
vt 0.036963 5.284472
vt 0.03423 5.273222
vt -0.488375 1.059432
vt 0.038541 1.238231
vt 0.038541 1.347752
vt 0.154395 1.238231
vt 0.038541 5.285953
vt 0.03423 4.429362
vt -2.336509 1.952352
vt -2.334921 1.951585
vt -2.337548 1.843082
vt -2.351783 1.732272
vt -2.350193 1.731789
vt -2.352437 1.62285
vt -0.782923 1.157782
vt -0.784275 1.048686
vt -0.784509 1.15878
vt 0.154395 1.347752
vt 0.154395 4.416631
vt -2.280127 1.471411
vt -2.278535 1.471246
vt -2.28035 1.361901
vt 0.033261 5.26422
vt -2.33596 1.842314
vt -2.350847 1.622367
vt -2.278759 1.361736
vt -0.78586 1.049684
vt 0.033261 4.438364
vt 0.20572 1.37215
vt 0.205496 1.481659
vt 0.207311 1.372315
vt 0.154395 5.285953
vt -2.212106 1.238231
vt -2.32796 1.238231
vt -2.212106 1.347752
vt -2.234454 2.071738
vt -2.235806 1.962641
vt -2.23604 2.072736
vt -2.237392 1.96364
vt -1.09874 1.358356
vt -1.100312 1.24941
vt -1.100323 1.359517
vt 0.032652 5.253737
vt 0.207088 1.481824
vt 0.155973 4.418112
vt -2.32796 1.347752
vt -2.05953 1.952749
vt -2.057957 2.061695
vt -2.057946 1.951587
vt -1.101895 1.250571
vt 0.032652 4.448847
vt -2.056374 2.060534
vt 0.242256 1.642101
vt 0.241602 1.751523
vt 0.243846 1.642584
vt 0.155973 5.284472
vt -2.239446 1.228381
vt -2.239222 1.118872
vt -2.241037 1.228216
vt -1.413011 1.606564
vt -1.414697 1.497704
vt -1.414593 1.607809
vt 0.032444 5.242487
vt -1.816434 1.813818
vt -1.814748 1.922677
vt -1.814852 1.812573
vt 0.243192 1.752006
vt 0.157444 4.422454
vt -2.240814 1.118707
vt -1.416279 1.498949
vt 0.032444 4.460097
vt -1.813166 1.921432
vt 0.187435 1.854413
vt 0.186396 1.963683
vt 0.189023 1.85518
vt 0.157444 5.28013
vt -2.006162 1.068835
vt -2.005508 0.959413
vt -2.007753 1.068352
vt -1.563832 1.728515
vt -1.565532 1.619667
vt -1.672914 1.815089
vt -1.674614 1.70624
vt 0.187985 1.96445
vt 0.158707 4.429362
vt -2.007099 0.95893
vt 0.044405 2.061358
vt 0.045991 2.062357
vt 0.045757 1.952262
vt 0.158707 5.273222
vt -1.71023 1.047334
vt -1.709191 0.938064
vt -1.711818 1.046566
vt 0.047343 1.953261
vt 0.159676 4.438364
vt -1.710779 0.937296
vt -0.173958 2.01891
vt -0.172374 2.020071
vt -0.172385 1.909964
vt 0.159676 5.26422
vt -1.371221 1.060063
vt -1.372806 1.059065
vt -1.372572 1.169159
vt -0.170802 1.911125
vt 0.160285 4.448847
vt -1.374158 1.168161
vt -0.453528 1.848152
vt -0.451946 1.849397
vt -0.451842 1.739292
vt 0.160285 5.253737
vt -1.014903 1.292195
vt -1.016486 1.291033
vt -1.016475 1.401141
vt -0.45026 1.740537
vt 0.160493 4.460097
vt -1.018058 1.39998
vt -0.609733 1.728515
vt -0.500651 1.815089
vt -0.608033 1.619667
vt 0.160493 5.242487
vt -0.664156 1.57223
vt -0.665739 1.570985
vt -0.665842 1.681089
vt -0.498951 1.70624
vt -0.667424 1.679844
vn -0.2588190625409164 -0.1068820258269226 0.9599942319725542
vn -0.5000001136417888 -0.09582802178013086 0.8607071956245661
vn -0.06540301236686057 -0.11041602087823633 0.9917311875234928
vn 0 0.9938591002356646 0.11065301115991022
vn -0.7071066741218326 -0.07824296394083871 0.7027646761228917
vn 0.06540301236686057 -0.11041602087823633 0.9917311875234928
vn -0.5000001136417888 0.09582802178013086 -0.8607071956245661
vn -0.7071066741218326 0.07824296394083871 -0.7027646761228917
vn -0.2588190625409164 0.1068820258269226 -0.9599942319725542
vn -0.8660251334540503 -0.05532600852571102 0.4969300765766822
vn -0.06540301236686057 0.11041602087823633 -0.9917311875234928
vn 0.2588190625409164 -0.1068820258269226 0.9599942319725542
vn 0.06540301236686057 0.11041602087823633 -0.9917311875234928
vn -0.8660251334540503 0.05532600852571102 -0.4969300765766822
vn -0.9659257572160402 -0.028638992801633078 0.2572299353456497
vn -0.9659257572160402 0.028638992801633078 -0.2572299353456497
vn 0.5000001136417888 -0.09582802178013086 0.8607071956245661
vn 0.2588190625409164 0.1068820258269226 -0.9599942319725542
vn -0.9978589560687615 -0.0072369996813874925 0.06500099713829867
vn -0.9978589560687615 0.0072369996813874925 -0.06500099713829867
vn 0.7071066741218326 -0.07824296394083871 0.7027646761228917
vn 0.5000001136417888 0.09582802178013086 -0.8607071956245661
vn 0.8660251334540503 -0.05532600852571102 0.4969300765766822
vn 0.7071066741218326 0.07824296394083871 -0.7027646761228917
vn 0.9659257572160402 -0.028638992801633078 0.2572299353456497
vn 0.8660251334540503 0.05532600852571102 -0.4969300765766822
vn 0.9978589560687615 -0.0072369996813874925 0.06500099713829867
vn 0.9659257572160402 0.028638992801633078 -0.2572299353456497
vn 0.9978589560687615 0.0072369996813874925 -0.06500099713829867
vn 0 -0.9938591002356646 -0.11065301115991022
usemtl material_0_0
f 1/1/1 2/2/2 3/1/1
f 2/2/2 1/1/1 4/2/2
f 3/1/1 5/3/3 1/1/1
f 6/4/4 4/2/4 1/1/4
f 4/2/2 7/5/5 2/2/2
f 5/3/3 3/1/1 8/3/3
f 9/6/4 1/1/4 5/3/4
f 10/7/4 4/2/4 6/4/4
f 6/4/4 1/1/4 9/6/4
f 7/5/5 4/2/2 11/5/5
f 12/8/6 5/3/3 8/3/3
f 9/6/4 5/3/4 13/9/4
f 10/7/4 11/5/4 4/2/4
f 14/4/7 10/7/8 6/4/7
f 15/6/9 6/4/7 9/6/9
f 16/10/10 7/5/5 11/5/5
f 5/3/3 12/8/6 17/8/6
f 13/9/4 5/3/4 17/8/4
f 18/9/11 9/6/9 13/9/11
f 19/11/4 11/5/4 10/7/4
f 10/7/8 14/4/7 20/7/8
f 6/4/7 15/6/9 14/4/7
f 9/6/9 18/9/11 15/6/9
f 7/5/5 16/10/10 21/10/10
f 19/11/4 16/10/4 11/5/4
f 22/12/12 17/8/6 12/8/6
f 13/9/4 17/8/4 23/13/4
f 13/9/11 24/13/13 18/9/11
f 10/7/8 25/11/14 19/11/14
f 25/11/14 10/7/8 20/7/8
f 26/14/15 21/10/10 16/10/10
f 27/15/4 16/10/4 19/11/4
f 17/8/6 22/12/12 28/12/12
f 23/13/4 17/8/4 28/12/4
f 24/13/13 13/9/11 23/13/13
f 29/15/16 19/11/14 25/11/14
f 21/10/10 26/14/15 30/14/15
f 27/15/4 26/14/4 16/10/4
f 19/11/14 29/15/16 27/15/16
f 31/16/17 28/12/12 22/12/12
f 23/13/4 28/12/4 32/17/4
f 32/17/18 24/13/13 23/13/13
f 33/18/19 30/14/15 26/14/15
f 34/19/4 26/14/4 27/15/4
f 35/19/20 27/15/16 29/15/16
f 28/12/12 31/16/17 36/16/17
f 32/17/4 28/12/4 36/16/4
f 24/13/13 32/17/18 37/17/18
f 30/14/15 33/18/19 38/18/19
f 26/14/4 34/19/4 33/18/4
f 27/15/16 35/19/20 34/19/20
f 39/20/21 36/16/17 31/16/17
f 32/17/4 36/16/4 40/21/4
f 40/21/22 37/17/18 32/17/18
f 34/19/20 38/18/19 33/18/19
f 38/18/19 34/19/20 35/19/20
f 36/16/17 39/20/21 41/20/21
f 40/21/4 36/16/4 41/20/4
f 37/17/18 40/21/22 42/21/22
f 39/20/21 43/22/23 41/20/21
f 40/21/4 41/20/4 44/23/4
f 44/23/24 42/21/22 40/21/22
f 43/22/23 39/20/21 45/22/23
f 44/23/4 41/20/4 43/22/4
f 42/21/22 44/23/24 46/23/24
f 45/22/23 47/24/25 43/22/23
f 44/23/4 43/22/4 48/25/4
f 44/23/24 49/25/26 46/23/24
f 47/24/25 45/22/23 50/24/25
f 48/25/4 43/22/4 47/24/4
f 49/25/26 44/23/24 48/25/26
f 50/24/25 51/26/27 47/24/25
f 48/25/4 47/24/4 52/27/4
f 48/25/26 53/27/28 49/25/26
f 51/26/27 50/24/25 54/26/27
f 52/27/4 47/24/4 51/26/4
f 53/27/28 48/25/26 52/27/28
f 54/26/27 55/28/29 51/26/27
f 52/27/4 51/26/4 55/28/4
f 52/27/28 56/28/29 53/27/28
f 55/28/29 54/26/27 56/28/29
f 56/28/29 52/27/28 55/28/29
usemtl material_1_0
f 3/29/18 2/30/22 1/31/18
f 4/32/22 1/31/18 2/30/22
f 1/33/18 5/34/13 3/35/18
f 1/36/30 4/37/30 6/38/30
f 2/39/22 7/40/24 4/41/22
f 8/42/13 3/35/18 5/34/13
f 5/43/30 1/36/30 9/44/30
f 6/38/30 4/37/30 10/45/30
f 9/44/30 1/36/30 6/38/30
f 11/46/24 4/41/22 7/40/24
f 8/47/13 5/48/13 12/49/11
f 13/50/30 5/43/30 9/44/30
f 4/37/30 11/51/30 10/45/30
f 6/52/17 10/53/21 14/54/17
f 9/55/12 6/56/17 15/57/12
f 11/58/24 7/59/24 16/60/26
f 17/61/11 12/49/11 5/48/13
f 17/62/30 5/43/30 13/50/30
f 13/63/6 9/64/12 18/65/6
f 10/45/30 11/51/30 19/66/30
f 20/67/21 14/54/17 10/53/21
f 14/68/17 15/57/12 6/56/17
f 15/69/12 18/65/6 9/64/12
f 21/70/26 16/60/26 7/59/24
f 11/51/30 16/71/30 19/66/30
f 12/72/11 17/73/11 22/74/9
f 23/75/30 17/62/30 13/50/30
f 18/76/6 24/77/3 13/78/6
f 19/79/23 25/80/23 10/81/21
f 20/82/21 10/81/21 25/80/23
f 16/83/26 21/84/26 26/85/28
f 19/66/30 16/71/30 27/86/30
f 28/87/9 22/74/9 17/73/11
f 28/88/30 17/62/30 23/75/30
f 23/89/3 13/78/6 24/77/3
f 25/90/23 19/91/23 29/92/25
f 30/93/28 26/85/28 21/84/26
f 16/71/30 26/94/30 27/86/30
f 27/95/25 29/92/25 19/91/23
f 22/96/9 28/97/9 31/98/7
f 32/99/30 28/88/30 23/75/30
f 23/100/3 24/101/3 32/102/1
f 26/103/28 30/104/28 33/105/29
f 27/86/30 26/94/30 34/106/30
f 29/107/25 27/108/25 35/109/27
f 36/110/7 31/98/7 28/97/9
f 36/111/30 28/88/30 32/99/30
f 37/112/1 32/102/1 24/101/3
f 38/113/29 33/105/29 30/104/28
f 33/114/30 34/106/30 26/94/30
f 34/115/27 35/109/27 27/108/25
f 31/116/7 36/117/7 39/118/8
f 40/119/30 36/111/30 32/99/30
f 32/120/1 37/121/1 40/122/2
f 33/123/29 38/124/29 34/125/27
f 35/126/27 34/125/27 38/124/29
f 41/127/8 39/118/8 36/117/7
f 41/128/30 36/111/30 40/119/30
f 42/129/2 40/122/2 37/121/1
f 41/130/8 43/131/14 39/132/8
f 44/133/30 41/128/30 40/119/30
f 40/134/2 42/135/2 44/136/5
f 45/137/14 39/132/8 43/131/14
f 43/138/30 41/128/30 44/133/30
f 46/139/5 44/136/5 42/135/2
f 43/140/14 47/141/16 45/142/14
f 48/143/30 43/138/30 44/133/30
f 46/144/5 49/145/10 44/146/5
f 50/147/16 45/142/14 47/141/16
f 47/148/30 43/138/30 48/143/30
f 48/149/10 44/146/5 49/145/10
f 47/150/16 51/151/20 50/152/16
f 52/153/30 47/148/30 48/143/30
f 49/154/10 53/155/15 48/156/10
f 54/157/20 50/152/16 51/151/20
f 51/158/30 47/148/30 52/153/30
f 52/159/15 48/156/10 53/155/15
f 51/160/20 55/161/19 54/162/20
f 55/163/30 51/158/30 52/153/30
f 53/164/15 56/165/19 52/166/15
f 56/167/19 54/162/20 55/161/19
f 55/168/19 52/166/15 56/165/19
