# SSTK version 0.8.0
# 17
mtllib original-17.mtl
o mesh16/mesh16-geometry#mesh16-geometry
v -0.665797 0.029659 -0.071443
v -0.665292 0.042451 -0.071245
v -0.665797 0.042316 -0.070034
v -0.665292 0.029794 -0.072655
v -0.665797 0.052942 -0.165478
v -0.666600 0.029543 -0.070403
v -0.665119 0.042595 -0.072545
v -0.666600 0.053058 -0.166518
v -0.665292 0.052807 -0.164266
v -0.666600 0.042200 -0.068993
v -0.665119 0.029938 -0.073955
v -0.665797 0.040285 -0.166887
v -0.665292 0.040150 -0.165675
v -0.667647 0.042111 -0.068195
v -0.665119 0.052663 -0.162966
v -0.667647 0.053147 -0.167317
v -0.666600 0.040401 -0.167927
v -0.665119 0.040005 -0.164375
v -0.667647 0.029454 -0.069604
v -0.667647 0.040490 -0.168726
v -0.668866 0.042055 -0.067693
v -0.668866 0.053203 -0.167818
v -0.668866 0.040546 -0.169228
v -0.668866 0.029398 -0.069102
v -0.670174 0.042036 -0.067522
v -0.670174 0.053222 -0.167990
v -0.670174 0.040565 -0.169399
v -0.670174 0.029379 -0.068931
v -0.766208 0.042036 -0.067522
v -0.766208 0.053222 -0.167990
v -0.766208 0.029379 -0.068931
v -0.766208 0.040565 -0.169399
v -0.767516 0.029398 -0.069102
v -0.767516 0.053203 -0.167818
v -0.767516 0.042055 -0.067693
v -0.767516 0.040546 -0.169228
v -0.768735 0.029454 -0.069604
v -0.768735 0.053147 -0.167317
v -0.768735 0.042111 -0.068195
v -0.768735 0.040490 -0.168726
v -0.769782 0.029543 -0.070403
v -0.769782 0.053058 -0.166518
v -0.769782 0.042200 -0.068993
v -0.769782 0.040401 -0.167927
v -0.770585 0.042316 -0.070034
v -0.770585 0.052942 -0.165478
v -0.770585 0.040285 -0.166887
v -0.770585 0.029659 -0.071443
v -0.771090 0.042451 -0.071245
v -0.771090 0.052807 -0.164266
v -0.771090 0.040150 -0.165675
v -0.771090 0.029794 -0.072655
v -0.771262 0.042595 -0.072545
v -0.771262 0.052663 -0.162966
v -0.771262 0.040005 -0.164375
v -0.771262 0.029938 -0.073955
vt 1.138904 0.627783
vt 1.139188 0.629263
vt 1.138904 0.744347
vt 1.138453 0.626512
vt 1.139285 0.630851
vt 1.138453 0.745618
vt 1.139188 0.742868
vt 1.137864 0.625537
vt 1.139285 0.74128
vt 1.137864 0.746593
vt 1.137179 0.624925
vt 1.137179 0.747206
vt 1.136444 0.624716
vt 1.136444 0.747415
vt 1.082467 0.624716
vt 1.082467 0.747415
vt 1.081731 0.624925
vt 1.081731 0.747206
vt 1.081046 0.625537
vt 1.081046 0.746593
vt 1.080458 0.626512
vt 1.080458 0.745618
vt 1.080006 0.627783
vt 1.080006 0.744347
vt 1.079722 0.629263
vt 1.079722 0.742868
vt 1.079626 0.630851
vt 1.079626 0.74128
vt 0.538581 0.850648
vt 0.540164 0.851809
vt 0.540153 0.741702
vt 0.541736 0.742863
vt 0.160285 4.448847
vt 0.159676 4.438364
vt 0.159676 5.26422
vt 0.529101 0.6635
vt 0.527516 0.662501
vt 0.527749 0.772596
vt 0.504809 0.860974
vt 0.506391 0.862219
vt 0.506494 0.752114
vt 0.158707 5.273222
vt 0.160285 5.253737
vt 0.526164 0.771598
vt 0.508076 0.753359
vt 0.160493 4.460097
vt 0.158707 4.429362
vt 0.25054 0.598051
vt 0.252126 0.59905
vt 0.251892 0.488955
vt 0.411974 0.757814
vt 0.413557 0.758975
vt 0.413546 0.648868
vt 0.469619 0.645484
vt 0.470658 0.536214
vt 0.468031 0.644717
vt 0.472046 0.839417
vt 0.581128 0.92599
vt 0.473746 0.730568
vt 0.160493 5.242487
vt 0.157444 5.28013
vt 0.253478 0.489954
vt 0.415129 0.650029
vt 0.53871 0.777464
vt 0.537128 0.776219
vt 0.537024 0.886324
vt 0.46907 0.535447
vt 0.157444 4.422454
vt 0.582828 0.817142
vt 0.535442 0.885079
vt 0.063289 0.449167
vt 0.064328 0.339897
vt 0.061701 0.4484
vt 0.06274 0.33913
vt 0.369337 0.504375
vt 0.369991 0.394953
vt 0.367747 0.503892
vt 0.155973 5.284472
vt -0.141209 0.239692
vt -0.141863 0.349113
vt -0.139619 0.240175
vt 0.368401 0.39447
vt 0.155973 4.418112
vt -0.140273 0.349596
vt 0.233552 0.38722
vt 0.233776 0.277711
vt 0.231961 0.387055
vt 0.154395 5.285953
vt -0.345878 0.217663
vt -0.346101 0.327172
vt -0.344286 0.217828
vt 0.232184 0.277546
vt 0.154395 4.416631
vt -0.344509 0.327337
vt 0.154395 0.348032
vt 0.154395 0.238511
vt 0.038541 0.348032
vt 0.038541 5.285953
vt -0.443166 0.348032
vt -0.327312 0.348032
vt -0.443166 0.238511
vt 0.038541 0.238511
vt 0.038541 4.416631
vt -0.327312 0.238511
vt -0.043419 0.228076
vt -0.045011 0.228241
vt -0.043196 0.337586
vt 0.036963 5.284472
vt -0.421798 0.376806
vt -0.420206 0.376641
vt -0.422021 0.267297
vt -0.044788 0.337751
vt 0.036963 4.418112
vt -0.420429 0.267132
vt -0.212536 0.259426
vt -0.214126 0.259909
vt -0.211882 0.368847
vt 0.035493 5.28013
vt -0.593134 0.484641
vt -0.591544 0.484158
vt -0.593788 0.375219
vt -0.213472 0.36933
vt 0.035493 4.422454
vt -0.592198 0.374736
vt -0.376551 0.351228
vt -0.378139 0.351995
vt -0.375512 0.460498
vt 0.03423 5.273222
vt -0.73335 0.633386
vt -0.731762 0.632619
vt -0.734389 0.524116
vt -0.3771 0.461266
vt 0.03423 4.429362
vt -0.7328 0.523349
vt -0.522827 0.587672
vt -0.524179 0.478576
vt -0.524413 0.588671
vt 0.033261 5.26422
vt -0.834356 0.673879
vt -0.833004 0.782975
vt -0.832771 0.672881
vt -0.525765 0.479574
vt 0.033261 4.438364
vt -0.831419 0.781977
vt -0.643978 0.71619
vt -0.64555 0.607244
vt -0.645562 0.717351
vt 0.032652 5.253737
vt -0.887274 0.784486
vt -0.885702 0.893432
vt -0.885691 0.783325
vt -0.647134 0.608405
vt 0.032652 4.448847
vt -0.884119 0.892271
vt -0.731084 0.811798
vt -0.732769 0.702938
vt -0.732666 0.813043
vt 0.032444 5.242487
vt -0.889977 0.82664
vt -0.888291 0.935499
vt -0.888395 0.825395
vt -0.734352 0.704183
vt 0.032444 4.460097
vt -0.886709 0.934254
vt -0.760817 0.839417
vt -0.762517 0.730568
vt -0.869899 0.92599
vt -0.8716 0.817142
vn 0.8660251334540503 -0.05532600852571102 0.4969300765766822
vn 0.9659257572160402 -0.028638992801633078 0.2572299353456497
vn 0 0.9938591002356646 0.11065301115991022
vn 0.7071066741218326 -0.07824296394083871 0.7027646761228917
vn 0.9978589560687615 -0.0072369996813874925 0.06500099713829867
vn 0.8660251334540503 0.05532600852571102 -0.4969300765766822
vn 0.7071066741218326 0.07824296394083871 -0.7027646761228917
vn 0.9659257572160402 0.028638992801633078 -0.2572299353456497
vn 0.5000001136417888 -0.09582802178013086 0.8607071956245661
vn 0.9978589560687615 0.0072369996813874925 -0.06500099713829867
vn 0.5000001136417888 0.09582802178013086 -0.8607071956245661
vn 0.2588190625409164 -0.1068820258269226 0.9599942319725542
vn 0.2588190625409164 0.1068820258269226 -0.9599942319725542
vn 0.06540301236686057 -0.11041602087823633 0.9917311875234928
vn 0.06540301236686057 0.11041602087823633 -0.9917311875234928
vn -0.06540301236686057 -0.11041602087823633 0.9917311875234928
vn -0.06540301236686057 0.11041602087823633 -0.9917311875234928
vn -0.2588190625409164 -0.1068820258269226 0.9599942319725542
vn -0.2588190625409164 0.1068820258269226 -0.9599942319725542
vn -0.5000001136417888 -0.09582802178013086 0.8607071956245661
vn -0.5000001136417888 0.09582802178013086 -0.8607071956245661
vn -0.7071066741218326 -0.07824296394083871 0.7027646761228917
vn -0.7071066741218326 0.07824296394083871 -0.7027646761228917
vn -0.8660251334540503 -0.05532600852571102 0.4969300765766822
vn -0.8660251334540503 0.05532600852571102 -0.4969300765766822
vn -0.9659257572160402 -0.028638992801633078 0.2572299353456497
vn -0.9659257572160402 0.028638992801633078 -0.2572299353456497
vn -0.9978589560687615 -0.0072369996813874925 0.06500099713829867
vn -0.9978589560687615 0.0072369996813874925 -0.06500099713829867
vn 0 -0.9938591002356646 -0.11065301115991022
usemtl material_0_0
f 1/1/1 2/2/2 3/1/1
f 2/2/2 1/1/1 4/2/2
f 5/3/3 3/1/3 2/2/3
f 3/1/1 6/4/4 1/1/1
f 4/2/2 7/5/5 2/2/2
f 8/6/3 3/1/3 5/3/3
f 5/3/3 2/2/3 9/7/3
f 6/4/4 3/1/1 10/4/4
f 7/5/5 4/2/2 11/5/5
f 9/7/3 2/2/3 7/5/3
f 8/6/3 10/4/3 3/1/3
f 12/3/6 8/6/7 5/3/6
f 13/7/8 5/3/6 9/7/8
f 14/8/9 6/4/4 10/4/4
f 11/5/5 15/9/10 7/5/5
f 9/7/3 7/5/3 15/9/3
f 16/10/3 10/4/3 8/6/3
f 8/6/7 12/3/6 17/6/7
f 5/3/6 13/7/8 12/3/6
f 9/7/8 18/9/10 13/7/8
f 6/4/4 14/8/9 19/8/9
f 16/10/3 14/8/3 10/4/3
f 15/9/10 11/5/5 18/9/10
f 18/9/10 9/7/8 15/9/10
f 8/6/7 20/10/11 16/10/11
f 20/10/11 8/6/7 17/6/7
f 21/11/12 19/8/9 14/8/9
f 22/12/3 14/8/3 16/10/3
f 23/12/13 16/10/11 20/10/11
f 19/8/9 21/11/12 24/11/12
f 22/12/3 21/11/3 14/8/3
f 16/10/11 23/12/13 22/12/13
f 25/13/14 24/11/12 21/11/12
f 26/14/3 21/11/3 22/12/3
f 27/14/15 22/12/13 23/12/13
f 24/11/12 25/13/14 28/13/14
f 26/14/3 25/13/3 21/11/3
f 22/12/13 27/14/15 26/14/15
f 29/15/16 28/13/14 25/13/14
f 30/16/3 25/13/3 26/14/3
f 27/14/15 30/16/17 26/14/15
f 28/13/14 29/15/16 31/15/16
f 30/16/3 29/15/3 25/13/3
f 30/16/17 27/14/15 32/16/17
f 29/15/16 33/17/18 31/15/16
f 34/18/3 29/15/3 30/16/3
f 32/16/17 34/18/19 30/16/17
f 33/17/18 29/15/16 35/17/18
f 34/18/3 35/17/3 29/15/3
f 34/18/19 32/16/17 36/18/19
f 35/17/18 37/19/20 33/17/18
f 38/20/3 35/17/3 34/18/3
f 36/18/19 38/20/21 34/18/19
f 37/19/20 35/17/18 39/19/20
f 38/20/3 39/19/3 35/17/3
f 38/20/21 36/18/19 40/20/21
f 39/19/20 41/21/22 37/19/20
f 42/22/3 39/19/3 38/20/3
f 40/20/21 42/22/23 38/20/21
f 41/21/22 39/19/20 43/21/22
f 42/22/3 43/21/3 39/19/3
f 42/22/23 40/20/21 44/22/23
f 45/23/24 41/21/22 43/21/22
f 46/24/3 43/21/3 42/22/3
f 47/24/25 42/22/23 44/22/23
f 41/21/22 45/23/24 48/23/24
f 46/24/3 45/23/3 43/21/3
f 42/22/23 47/24/25 46/24/25
f 49/25/26 48/23/24 45/23/24
f 50/26/3 45/23/3 46/24/3
f 51/26/27 46/24/25 47/24/25
f 48/23/24 49/25/26 52/25/26
f 50/26/3 49/25/3 45/23/3
f 46/24/25 51/26/27 50/26/27
f 53/27/28 52/25/26 49/25/26
f 54/28/3 49/25/3 50/26/3
f 55/28/29 50/26/27 51/26/27
f 52/25/26 53/27/28 56/27/28
f 49/25/3 54/28/3 53/27/3
f 50/26/27 55/28/29 54/28/29
f 54/28/29 56/27/28 53/27/28
f 56/27/28 54/28/29 55/28/29
usemtl material_1_0
f 3/29/25 2/30/27 1/31/25
f 4/32/27 1/31/25 2/30/27
f 2/33/30 3/34/30 5/35/30
f 1/36/25 6/37/23 3/38/25
f 2/39/27 7/40/29 4/41/27
f 5/35/30 3/34/30 8/42/30
f 9/43/30 2/33/30 5/35/30
f 10/44/23 3/38/25 6/37/23
f 11/45/29 4/41/27 7/40/29
f 7/46/30 2/33/30 9/43/30
f 3/34/30 10/47/30 8/42/30
f 5/48/24 8/49/22 12/50/24
f 9/51/26 5/52/24 13/53/26
f 10/54/23 6/55/23 14/56/21
f 7/57/29 15/58/28 11/59/29
f 15/60/30 7/46/30 9/43/30
f 8/42/30 10/47/30 16/61/30
f 17/62/22 12/50/24 8/49/22
f 12/63/24 13/53/26 5/52/24
f 13/64/26 18/65/28 9/66/26
f 19/67/21 14/56/21 6/55/23
f 10/47/30 14/68/30 16/61/30
f 18/69/28 11/59/29 15/58/28
f 15/70/28 9/66/26 18/65/28
f 16/71/20 20/72/20 8/73/22
f 17/74/22 8/73/22 20/72/20
f 14/75/21 19/76/21 21/77/19
f 16/61/30 14/68/30 22/78/30
f 20/79/20 16/80/20 23/81/18
f 24/82/19 21/77/19 19/76/21
f 14/68/30 21/83/30 22/78/30
f 22/84/18 23/81/18 16/80/20
f 21/85/19 24/86/19 25/87/17
f 22/78/30 21/83/30 26/88/30
f 23/89/18 22/90/18 27/91/16
f 28/92/17 25/87/17 24/86/19
f 21/83/30 25/93/30 26/88/30
f 26/94/16 27/91/16 22/90/18
f 25/95/17 28/96/17 29/97/15
f 26/88/30 25/93/30 30/98/30
f 26/99/16 30/100/14 27/101/16
f 31/102/15 29/97/15 28/96/17
f 25/93/30 29/103/30 30/98/30
f 32/104/14 27/101/16 30/100/14
f 31/105/15 33/106/13 29/107/15
f 30/98/30 29/103/30 34/108/30
f 30/109/14 34/110/12 32/111/14
f 35/112/13 29/107/15 33/106/13
f 29/103/30 35/113/30 34/108/30
f 36/114/12 32/111/14 34/110/12
f 33/115/13 37/116/11 35/117/13
f 34/108/30 35/113/30 38/118/30
f 34/119/12 38/120/9 36/121/12
f 39/122/11 35/117/13 37/116/11
f 35/113/30 39/123/30 38/118/30
f 40/124/9 36/121/12 38/120/9
f 37/125/11 41/126/7 39/127/11
f 38/118/30 39/123/30 42/128/30
f 38/129/9 42/130/4 40/131/9
f 43/132/7 39/127/11 41/126/7
f 39/123/30 43/133/30 42/128/30
f 44/134/4 40/131/9 42/130/4
f 43/135/7 41/136/7 45/137/6
f 42/128/30 43/133/30 46/138/30
f 44/139/4 42/140/4 47/141/1
f 48/142/6 45/137/6 41/136/7
f 43/133/30 45/143/30 46/138/30
f 46/144/1 47/141/1 42/140/4
f 45/145/6 48/146/6 49/147/8
f 46/138/30 45/143/30 50/148/30
f 47/149/1 46/150/1 51/151/2
f 52/152/8 49/147/8 48/146/6
f 45/143/30 49/153/30 50/148/30
f 50/154/2 51/151/2 46/150/1
f 49/155/8 52/156/8 53/157/10
f 50/148/30 49/153/30 54/158/30
f 51/159/2 50/160/2 55/161/5
f 56/162/10 53/157/10 52/156/8
f 53/163/30 54/158/30 49/153/30
f 54/164/5 55/161/5 50/160/2
f 53/165/10 56/166/10 54/167/5
f 55/168/5 54/167/5 56/166/10
