# SSTK version 0.8.0
# 45
mtllib original-45.mtl
o mesh44/mesh44-geometry#mesh44-geometry
v 0.570611 -0.009491 0.280193
v 0.571116 0.003301 0.280391
v 0.570611 0.003166 0.281602
v 0.571116 -0.009356 0.278981
v 0.570611 0.013792 0.186158
v 0.569808 -0.009607 0.281233
v 0.571288 0.003446 0.279091
v 0.569808 0.013908 0.185118
v 0.571116 0.013658 0.187370
v 0.569808 0.003050 0.282643
v 0.571288 -0.009212 0.277681
v 0.570611 0.001135 0.184749
v 0.571116 0.001000 0.185961
v 0.568761 0.002961 0.283441
v 0.571288 0.013513 0.188670
v 0.568761 0.013997 0.184320
v 0.569808 0.001251 0.183709
v 0.571288 0.000855 0.187261
v 0.568761 -0.009696 0.282032
v 0.568761 0.001340 0.182910
v 0.567542 0.002905 0.283943
v 0.567542 0.014053 0.183818
v 0.567542 0.001396 0.182408
v 0.567542 -0.009752 0.282534
v 0.566234 0.002886 0.284114
v 0.566234 0.014072 0.183647
v 0.566234 0.001415 0.182237
v 0.566234 -0.009771 0.282705
v 0.470200 0.002886 0.284114
v 0.470200 0.014072 0.183647
v 0.470200 -0.009771 0.282705
v 0.470200 0.001415 0.182237
v 0.468892 -0.009752 0.282534
v 0.468892 0.014053 0.183818
v 0.468892 0.002905 0.283943
v 0.468892 0.001396 0.182408
v 0.467673 -0.009696 0.282032
v 0.467673 0.013997 0.184320
v 0.467673 0.002961 0.283441
v 0.467673 0.001340 0.182910
v 0.466626 -0.009607 0.281233
v 0.466626 0.013908 0.185118
v 0.466626 0.003050 0.282643
v 0.466626 0.001251 0.183709
v 0.465823 0.003166 0.281602
v 0.465823 0.013792 0.186158
v 0.465823 0.001135 0.184749
v 0.465823 -0.009491 0.280193
v 0.465318 0.003301 0.280391
v 0.465318 0.013658 0.187370
v 0.465318 0.001000 0.185961
v 0.465318 -0.009356 0.278981
v 0.465146 0.003446 0.279091
v 0.465146 0.013513 0.188670
v 0.465146 0.000855 0.187261
v 0.465146 -0.009212 0.277681
vt 1.833846 0.198335
vt 1.83413 0.199815
vt 1.833846 0.3149
vt 1.833394 0.197065
vt 1.834227 0.201403
vt 1.833394 0.31617
vt 1.83413 0.31342
vt 1.832806 0.19609
vt 1.834227 0.311832
vt 1.832806 0.317145
vt 1.832121 0.195477
vt 1.832121 0.317758
vt 1.831386 0.195268
vt 1.831386 0.317967
vt 1.777408 0.195268
vt 1.777408 0.317967
vt 1.776673 0.195477
vt 1.776673 0.317758
vt 1.775988 0.19609
vt 1.775988 0.317145
vt 1.7754 0.197065
vt 1.7754 0.31617
vt 1.774948 0.198335
vt 1.774948 0.3149
vt 1.774664 0.199815
vt 1.774664 0.31342
vt 1.774567 0.201403
vt 1.774567 0.311832
vt -0.773686 4.020285
vt -0.772103 4.021446
vt -0.772114 3.911339
vt -0.770531 3.9125
vt 0.160285 4.448847
vt 0.159676 4.438364
vt 0.159676 5.26422
vt -0.392898 4.060925
vt -0.394484 4.059927
vt -0.39425 4.170021
vt -1.208575 3.724275
vt -1.206993 3.72552
vt -1.206889 3.615416
vt 0.158707 5.273222
vt 0.160285 5.253737
vt -0.395835 4.169023
vt -1.205307 3.616661
vt 0.160493 4.460097
vt 0.158707 4.429362
vt -2.473056 2.861102
vt -2.471471 2.862101
vt -2.471704 2.752006
vt -2.031267 3.098174
vt -2.029683 3.099335
vt -2.029695 2.989228
vt -0.099292 4.130951
vt -0.098253 4.021681
vt -0.10088 4.130184
vt -1.437647 3.545368
vt -1.328565 3.631942
vt -1.435947 3.43652
vt 0.160493 5.242487
vt 0.157444 5.28013
vt -2.470119 2.753004
vt -2.028111 2.990389
vt -1.560122 3.337469
vt -1.561704 3.336224
vt -1.561807 3.446329
vt -0.099841 4.020914
vt 0.157444 4.422454
vt -1.326864 3.523094
vt -1.56339 3.445084
vt -2.857255 2.79845
vt -2.856216 2.68918
vt -2.858843 2.797683
vt -2.857804 2.688413
vt 0.091825 3.913886
vt 0.092479 3.804464
vt 0.090235 3.913403
vt 0.155973 5.284472
vt -3.161051 2.816306
vt -3.161705 2.925727
vt -3.159461 2.816789
vt 0.090889 3.803981
vt 0.155973 4.418112
vt -3.160115 2.92621
vt 0.164982 3.576629
vt 0.165205 3.46712
vt 0.16339 3.576464
vt 0.154395 5.285953
vt -3.35969 3.101966
vt -3.359913 3.211475
vt -3.358098 3.102131
vt 0.163614 3.466955
vt 0.154395 4.416631
vt -3.358321 3.21164
vt 0.154395 3.390659
vt 0.154395 3.281138
vt 0.038541 3.390659
vt 0.038541 5.285953
vt -3.414136 3.390659
vt -3.298282 3.390659
vt -3.414136 3.281138
vt 0.038541 3.281138
vt 0.038541 4.416631
vt -3.298282 3.281138
vt -0.000577 3.11238
vt -0.002168 3.112545
vt -0.000354 3.221889
vt 0.036963 5.284472
vt -3.324197 3.566215
vt -3.322605 3.56605
vt -3.32442 3.456706
vt -0.001945 3.222054
vt 0.036963 4.418112
vt -3.322828 3.456541
vt -0.163663 2.836039
vt -0.165254 2.836522
vt -0.163009 2.945461
vt 0.035493 5.28013
vt -3.286592 3.894152
vt -3.285001 3.893669
vt -3.287246 3.78473
vt -0.1646 2.945944
vt 0.035493 4.422454
vt -3.285655 3.784247
vt -0.426977 2.700511
vt -0.428565 2.701278
vt -0.425938 2.809781
vt 0.03423 5.273222
vt -3.135409 4.118853
vt -3.133821 4.118086
vt -3.136448 4.009583
vt -0.427526 2.810548
vt 0.03423 4.429362
vt -3.13486 4.008816
vt -0.7702 2.850723
vt -0.771552 2.741627
vt -0.771786 2.851721
vt 0.033261 5.26422
vt -2.883327 4.071304
vt -2.881975 4.1804
vt -2.881741 4.070306
vt -0.773138 2.742625
vt 0.033261 4.438364
vt -2.880389 4.179402
vt -1.171707 3.05655
vt -1.173279 2.947604
vt -1.173291 3.057711
vt 0.032652 5.253737
vt -2.545977 3.954124
vt -2.544405 4.06307
vt -2.544393 3.952963
vt -1.174863 2.948765
vt 0.032652 4.448847
vt -2.542821 4.061909
vt -1.603222 3.371803
vt -1.604907 3.262944
vt -1.604804 3.373048
vt 0.032444 5.242487
vt -2.147563 3.689941
vt -2.145877 3.798801
vt -2.145981 3.688696
vt -1.606489 3.264189
vt 0.032444 4.460097
vt -2.144295 3.797556
vt -1.822094 3.545368
vt -1.823794 3.43652
vt -1.931176 3.631942
vt -1.932876 3.523094
vn 0.8660251334540503 -0.05532600852571102 0.4969300765766822
vn 0.9659257572160402 -0.028638992801633078 0.2572299353456497
vn 0 0.9938591002356646 0.11065301115991022
vn 0.7071066741218326 -0.07824296394083871 0.7027646761228917
vn 0.9978589560687615 -0.0072369996813874925 0.06500099713829867
vn 0.8660251334540503 0.05532600852571102 -0.4969300765766822
vn 0.7071066741218326 0.07824296394083871 -0.7027646761228917
vn 0.9659257572160402 0.028638992801633078 -0.2572299353456497
vn 0.5000001136417888 -0.09582802178013086 0.8607071956245661
vn 0.9978589560687615 0.0072369996813874925 -0.06500099713829867
vn 0.5000001136417888 0.09582802178013086 -0.8607071956245661
vn 0.2588190625409164 -0.1068820258269226 0.9599942319725542
vn 0.2588190625409164 0.1068820258269226 -0.9599942319725542
vn 0.06540301236686057 -0.11041602087823633 0.9917311875234928
vn 0.06540301236686057 0.11041602087823633 -0.9917311875234928
vn -0.06540301236686057 -0.11041602087823633 0.9917311875234928
vn -0.06540301236686057 0.11041602087823633 -0.9917311875234928
vn -0.2588190625409164 -0.1068820258269226 0.9599942319725542
vn -0.2588190625409164 0.1068820258269226 -0.9599942319725542
vn -0.5000001136417888 -0.09582802178013086 0.8607071956245661
vn -0.5000001136417888 0.09582802178013086 -0.8607071956245661
vn -0.7071066741218326 -0.07824296394083871 0.7027646761228917
vn -0.7071066741218326 0.07824296394083871 -0.7027646761228917
vn -0.8660251334540503 -0.05532600852571102 0.4969300765766822
vn -0.8660251334540503 0.05532600852571102 -0.4969300765766822
vn -0.9659257572160402 -0.028638992801633078 0.2572299353456497
vn -0.9659257572160402 0.028638992801633078 -0.2572299353456497
vn -0.9978589560687615 -0.0072369996813874925 0.06500099713829867
vn -0.9978589560687615 0.0072369996813874925 -0.06500099713829867
vn 0 -0.9938591002356646 -0.11065301115991022
usemtl material_0_0
f 1/1/1 2/2/2 3/1/1
f 2/2/2 1/1/1 4/2/2
f 5/3/3 3/1/3 2/2/3
f 3/1/1 6/4/4 1/1/1
f 4/2/2 7/5/5 2/2/2
f 8/6/3 3/1/3 5/3/3
f 5/3/3 2/2/3 9/7/3
f 6/4/4 3/1/1 10/4/4
f 7/5/5 4/2/2 11/5/5
f 9/7/3 2/2/3 7/5/3
f 8/6/3 10/4/3 3/1/3
f 12/3/6 8/6/7 5/3/6
f 13/7/8 5/3/6 9/7/8
f 14/8/9 6/4/4 10/4/4
f 11/5/5 15/9/10 7/5/5
f 9/7/3 7/5/3 15/9/3
f 16/10/3 10/4/3 8/6/3
f 8/6/7 12/3/6 17/6/7
f 5/3/6 13/7/8 12/3/6
f 9/7/8 18/9/10 13/7/8
f 6/4/4 14/8/9 19/8/9
f 16/10/3 14/8/3 10/4/3
f 15/9/10 11/5/5 18/9/10
f 18/9/10 9/7/8 15/9/10
f 8/6/7 20/10/11 16/10/11
f 20/10/11 8/6/7 17/6/7
f 21/11/12 19/8/9 14/8/9
f 22/12/3 14/8/3 16/10/3
f 23/12/13 16/10/11 20/10/11
f 19/8/9 21/11/12 24/11/12
f 22/12/3 21/11/3 14/8/3
f 16/10/11 23/12/13 22/12/13
f 25/13/14 24/11/12 21/11/12
f 26/14/3 21/11/3 22/12/3
f 27/14/15 22/12/13 23/12/13
f 24/11/12 25/13/14 28/13/14
f 26/14/3 25/13/3 21/11/3
f 22/12/13 27/14/15 26/14/15
f 29/15/16 28/13/14 25/13/14
f 30/16/3 25/13/3 26/14/3
f 27/14/15 30/16/17 26/14/15
f 28/13/14 29/15/16 31/15/16
f 30/16/3 29/15/3 25/13/3
f 30/16/17 27/14/15 32/16/17
f 29/15/16 33/17/18 31/15/16
f 34/18/3 29/15/3 30/16/3
f 32/16/17 34/18/19 30/16/17
f 33/17/18 29/15/16 35/17/18
f 34/18/3 35/17/3 29/15/3
f 34/18/19 32/16/17 36/18/19
f 35/17/18 37/19/20 33/17/18
f 38/20/3 35/17/3 34/18/3
f 36/18/19 38/20/21 34/18/19
f 37/19/20 35/17/18 39/19/20
f 38/20/3 39/19/3 35/17/3
f 38/20/21 36/18/19 40/20/21
f 39/19/20 41/21/22 37/19/20
f 42/22/3 39/19/3 38/20/3
f 40/20/21 42/22/23 38/20/21
f 41/21/22 39/19/20 43/21/22
f 42/22/3 43/21/3 39/19/3
f 42/22/23 40/20/21 44/22/23
f 45/23/24 41/21/22 43/21/22
f 46/24/3 43/21/3 42/22/3
f 47/24/25 42/22/23 44/22/23
f 41/21/22 45/23/24 48/23/24
f 46/24/3 45/23/3 43/21/3
f 42/22/23 47/24/25 46/24/25
f 49/25/26 48/23/24 45/23/24
f 50/26/3 45/23/3 46/24/3
f 51/26/27 46/24/25 47/24/25
f 48/23/24 49/25/26 52/25/26
f 50/26/3 49/25/3 45/23/3
f 46/24/25 51/26/27 50/26/27
f 53/27/28 52/25/26 49/25/26
f 54/28/3 49/25/3 50/26/3
f 55/28/29 50/26/27 51/26/27
f 52/25/26 53/27/28 56/27/28
f 49/25/3 54/28/3 53/27/3
f 50/26/27 55/28/29 54/28/29
f 54/28/29 56/27/28 53/27/28
f 56/27/28 54/28/29 55/28/29
usemtl material_1_0
f 3/29/25 2/30/27 1/31/25
f 4/32/27 1/31/25 2/30/27
f 2/33/30 3/34/30 5/35/30
f 1/36/25 6/37/23 3/38/25
f 2/39/27 7/40/29 4/41/27
f 5/35/30 3/34/30 8/42/30
f 9/43/30 2/33/30 5/35/30
f 10/44/23 3/38/25 6/37/23
f 11/45/29 4/41/27 7/40/29
f 7/46/30 2/33/30 9/43/30
f 3/34/30 10/47/30 8/42/30
f 5/48/24 8/49/22 12/50/24
f 9/51/26 5/52/24 13/53/26
f 10/54/23 6/55/23 14/56/21
f 7/57/29 15/58/28 11/59/29
f 15/60/30 7/46/30 9/43/30
f 8/42/30 10/47/30 16/61/30
f 17/62/22 12/50/24 8/49/22
f 12/63/24 13/53/26 5/52/24
f 13/64/26 18/65/28 9/66/26
f 19/67/21 14/56/21 6/55/23
f 10/47/30 14/68/30 16/61/30
f 18/69/28 11/59/29 15/58/28
f 15/70/28 9/66/26 18/65/28
f 16/71/20 20/72/20 8/73/22
f 17/74/22 8/73/22 20/72/20
f 14/75/21 19/76/21 21/77/19
f 16/61/30 14/68/30 22/78/30
f 20/79/20 16/80/20 23/81/18
f 24/82/19 21/77/19 19/76/21
f 14/68/30 21/83/30 22/78/30
f 22/84/18 23/81/18 16/80/20
f 21/85/19 24/86/19 25/87/17
f 22/78/30 21/83/30 26/88/30
f 23/89/18 22/90/18 27/91/16
f 28/92/17 25/87/17 24/86/19
f 21/83/30 25/93/30 26/88/30
f 26/94/16 27/91/16 22/90/18
f 25/95/17 28/96/17 29/97/15
f 26/88/30 25/93/30 30/98/30
f 26/99/16 30/100/14 27/101/16
f 31/102/15 29/97/15 28/96/17
f 25/93/30 29/103/30 30/98/30
f 32/104/14 27/101/16 30/100/14
f 31/105/15 33/106/13 29/107/15
f 30/98/30 29/103/30 34/108/30
f 30/109/14 34/110/12 32/111/14
f 35/112/13 29/107/15 33/106/13
f 29/103/30 35/113/30 34/108/30
f 36/114/12 32/111/14 34/110/12
f 33/115/13 37/116/11 35/117/13
f 34/108/30 35/113/30 38/118/30
f 34/119/12 38/120/9 36/121/12
f 39/122/11 35/117/13 37/116/11
f 35/113/30 39/123/30 38/118/30
f 40/124/9 36/121/12 38/120/9
f 37/125/11 41/126/7 39/127/11
f 38/118/30 39/123/30 42/128/30
f 38/129/9 42/130/4 40/131/9
f 43/132/7 39/127/11 41/126/7
f 39/123/30 43/133/30 42/128/30
f 44/134/4 40/131/9 42/130/4
f 43/135/7 41/136/7 45/137/6
f 42/128/30 43/133/30 46/138/30
f 44/139/4 42/140/4 47/141/1
f 48/142/6 45/137/6 41/136/7
f 43/133/30 45/143/30 46/138/30
f 46/144/1 47/141/1 42/140/4
f 45/145/6 48/146/6 49/147/8
f 46/138/30 45/143/30 50/148/30
f 47/149/1 46/150/1 51/151/2
f 52/152/8 49/147/8 48/146/6
f 45/143/30 49/153/30 50/148/30
f 50/154/2 51/151/2 46/150/1
f 49/155/8 52/156/8 53/157/10
f 50/148/30 49/153/30 54/158/30
f 51/159/2 50/160/2 55/161/5
f 56/162/10 53/157/10 52/156/8
f 53/163/30 54/158/30 49/153/30
f 54/164/5 55/161/5 50/160/2
f 53/165/10 56/166/10 54/167/5
f 55/168/5 54/167/5 56/166/10
