# SSTK version 0.8.0
# 42
mtllib original-42.mtl
o mesh41/mesh41-geometry#mesh41-geometry
v 0.479705 -0.024797 0.417663
v 0.478486 -0.012195 0.419574
v 0.478486 -0.024853 0.418165
v 0.479705 -0.012139 0.419072
v 0.477177 -0.012214 0.419745
v 0.480751 -0.024708 0.416864
v 0.478486 0.000630 0.304379
v 0.477177 -0.024872 0.418336
v 0.477177 0.000649 0.304207
v 0.480751 -0.012051 0.418274
v 0.479705 0.000574 0.304880
v 0.381144 -0.012214 0.419745
v 0.381144 0.000649 0.304207
v 0.481555 -0.011935 0.417233
v 0.477177 -0.012008 0.302798
v 0.478486 -0.012027 0.302969
v 0.381144 -0.024872 0.418336
v 0.481555 -0.024592 0.415824
v 0.480751 0.000485 0.305679
v 0.479705 -0.012083 0.303471
v 0.379835 -0.024853 0.418165
v 0.379835 0.000630 0.304379
v 0.381144 -0.012008 0.302798
v 0.482060 -0.011800 0.416022
v 0.481555 0.000370 0.306719
v 0.379835 -0.012195 0.419574
v 0.482060 -0.024457 0.414613
v 0.481555 -0.012288 0.305310
v 0.480751 -0.012172 0.304270
v 0.378616 -0.024797 0.417663
v 0.378616 0.000574 0.304880
v 0.379835 -0.012027 0.302969
v 0.482232 -0.011655 0.414722
v 0.482060 0.000235 0.307931
v 0.482060 -0.012423 0.306521
v 0.378616 -0.012139 0.419072
v 0.482232 -0.024312 0.413312
v 0.377570 -0.024708 0.416864
v 0.377570 0.000485 0.305679
v 0.378616 -0.012083 0.303471
v 0.482232 0.000090 0.309231
v 0.482232 -0.012567 0.307822
v 0.377570 -0.012051 0.418274
v 0.376766 -0.011935 0.417233
v 0.376766 0.000370 0.306719
v 0.377570 -0.012172 0.304270
v 0.376766 -0.024592 0.415824
v 0.376766 -0.012288 0.305310
v 0.376261 -0.011800 0.416022
v 0.376261 0.000235 0.307931
v 0.376261 -0.012423 0.306521
v 0.376261 -0.024457 0.414613
v 0.376089 -0.011655 0.414722
v 0.376089 0.000090 0.309231
v 0.376089 -0.012567 0.307822
v 0.376089 -0.024312 0.413312
vt 1.782751 0.030445
vt 1.782065 0.029833
vt 1.78133 0.029624
vt 1.783339 0.03142
vt 1.782065 0.170519
vt 1.78133 0.170728
vt 1.782751 0.169906
vt 1.727353 0.029624
vt 1.727353 0.170728
vt 1.783791 0.032691
vt 1.783339 0.168931
vt 1.726618 0.029833
vt 1.726618 0.170519
vt 1.784074 0.034171
vt 1.783791 0.16766
vt 1.725932 0.030445
vt 1.725932 0.169906
vt 1.784171 0.035758
vt 1.784074 0.166181
vt 1.725344 0.03142
vt 1.725344 0.168931
vt 1.784171 0.164593
vt 1.724893 0.032691
vt 1.724893 0.16766
vt 1.724609 0.034171
vt 1.724609 0.166181
vt 1.724512 0.035758
vt 1.724512 0.164593
vt 0.038542 4.885571
vt 0.037888 4.994992
vt 0.040133 4.886054
vt 0.039479 4.995475
vt 0.145221 4.693571
vt 0.145445 4.584062
vt 0.14363 4.693406
vt -0.173735 5.063424
vt -0.174774 5.172694
vt -0.172146 5.064191
vt 0.157444 4.422454
vt 0.155973 4.418112
vt 0.155973 5.41487
vt 0.143853 4.583897
vt 0.154395 4.416631
vt 0.154395 5.416351
vt -0.173185 5.173461
vt 0.157444 5.410528
vt 0.154395 4.520777
vt 0.154395 4.411256
vt 0.038541 4.520777
vt 0.038541 5.416351
vt -0.478836 5.179233
vt -0.477251 5.180231
vt -0.477485 5.070137
vt 0.158707 4.429362
vt -3.162683 4.350896
vt -3.16246 4.241387
vt -3.164275 4.350731
vt -3.007132 4.070162
vt -3.006478 3.960741
vt -3.008722 4.069679
vt 0.038541 4.411256
vt 0.038541 4.416631
vt -3.199264 4.520777
vt -3.08341 4.520777
vt -3.199264 4.411256
vt -0.475899 5.071135
vt 0.159676 4.438364
vt 0.158707 5.40362
vt -3.164052 4.241222
vt -3.008068 3.960258
vt 0.021044 4.251388
vt 0.019453 4.251553
vt 0.021268 4.360897
vt 0.036963 5.41487
vt -3.08341 4.411256
vt -0.852848 5.013582
vt -0.851265 5.014743
vt -0.851276 4.904636
vt 0.159676 5.394618
vt -2.749959 3.928501
vt -2.74892 3.819231
vt -2.751547 3.927734
vt 0.019676 4.361062
vt 0.036963 4.418112
vt -3.091952 4.683405
vt -3.09036 4.68324
vt -3.092175 4.573895
vt -0.849693 4.905797
vt 0.160285 4.448847
vt -2.411302 3.962457
vt -2.409717 3.963455
vt -2.409951 3.853361
vt -2.750508 3.818464
vt -0.094781 3.977867
vt -0.096371 3.97835
vt -0.094127 4.087289
vt 0.035493 5.410528
vt -3.090583 4.57373
vt -1.271309 4.720493
vt -1.269727 4.721738
vt -1.269623 4.611633
vt 0.160285 5.384135
vt -2.408365 3.854359
vt -2.008666 4.055989
vt -2.010249 4.054828
vt -2.010238 4.164936
vt -0.095717 4.087772
vt 0.035493 4.422454
vt -3.026367 4.977866
vt -3.024777 4.977383
vt -3.027021 4.868444
vt -1.268041 4.612878
vt 0.160493 4.460097
vt -2.011821 4.163774
vt -0.308291 3.825194
vt -0.309879 3.825961
vt -0.307252 3.934464
vt 0.03423 5.40362
vt -3.025431 4.867961
vt -1.487774 4.550436
vt -1.360511 4.651439
vt -1.486074 4.441588
vt 0.160493 5.372885
vt -1.576952 4.369807
vt -1.578534 4.368562
vt -1.578637 4.478667
vt -0.30884 3.935231
vt 0.03423 4.429362
vt -2.857753 5.166731
vt -2.856165 5.165964
vt -2.858792 5.057461
vt -1.358811 4.54259
vt -1.58022 4.477422
vt -0.602626 3.942975
vt -0.603978 3.833879
vt -0.604212 3.943974
vt 0.033261 5.394618
vt -2.857204 5.056693
vt -0.605563 3.834878
vt 0.033261 4.438364
vt -2.596972 5.198714
vt -2.598324 5.089618
vt -2.598558 5.199713
vt -2.59991 5.090617
vt -0.959469 4.109824
vt -0.961041 4.000878
vt -0.961053 4.110985
vt 0.032652 5.384135
vt -2.268754 4.959748
vt -2.267182 5.068694
vt -2.267171 4.958587
vt -0.962625 4.002039
vt 0.032652 4.448847
vt -2.265599 5.067533
vt -1.353493 4.389957
vt -1.355178 4.281097
vt -1.355075 4.391202
vt 0.032444 5.372885
vt -1.887984 4.700343
vt -1.886298 4.809203
vt -1.886402 4.699098
vt -1.356761 4.282342
vt 0.032444 4.460097
vt -1.884716 4.807958
vt -1.557095 4.550436
vt -1.558795 4.441588
vt -1.684357 4.651439
vt -1.686057 4.54259
vn 0.5000001136417888 -0.09582802178013086 0.8607071956245661
vn 0.2588190625409164 -0.1068820258269226 0.9599942319725542
vn 0.06540301236686057 -0.11041602087823633 0.9917311875234928
vn 0.7071066741218326 -0.07824296394083871 0.7027646761228917
vn 0 0.9938591002356646 0.11065301115991022
vn -0.06540301236686057 -0.11041602087823633 0.9917311875234928
vn 0.8660251334540503 -0.05532600852571102 0.4969300765766822
vn 0.2588190625409164 0.1068820258269226 -0.9599942319725542
vn 0.06540301236686057 0.11041602087823633 -0.9917311875234928
vn 0.5000001136417888 0.09582802178013086 -0.8607071956245661
vn -0.06540301236686057 0.11041602087823633 -0.9917311875234928
vn -0.2588190625409164 -0.1068820258269226 0.9599942319725542
vn 0.9659257572160402 -0.028638992801633078 0.2572299353456497
vn 0.7071066741218326 0.07824296394083871 -0.7027646761228917
vn -0.2588190625409164 0.1068820258269226 -0.9599942319725542
vn 0.8660251334540503 0.05532600852571102 -0.4969300765766822
vn -0.5000001136417888 -0.09582802178013086 0.8607071956245661
vn 0.9978589560687615 -0.0072369996813874925 0.06500099713829867
vn 0.9659257572160402 0.028638992801633078 -0.2572299353456497
vn -0.5000001136417888 0.09582802178013086 -0.8607071956245661
vn -0.7071066741218326 -0.07824296394083871 0.7027646761228917
vn 0.9978589560687615 0.0072369996813874925 -0.06500099713829867
vn -0.7071066741218326 0.07824296394083871 -0.7027646761228917
vn -0.8660251334540503 -0.05532600852571102 0.4969300765766822
vn -0.8660251334540503 0.05532600852571102 -0.4969300765766822
vn -0.9659257572160402 -0.028638992801633078 0.2572299353456497
vn -0.9659257572160402 0.028638992801633078 -0.2572299353456497
vn -0.9978589560687615 -0.0072369996813874925 0.06500099713829867
vn -0.9978589560687615 0.0072369996813874925 -0.06500099713829867
vn 0 -0.9938591002356646 -0.11065301115991022
usemtl material_0_0
f 1/1/1 2/2/2 3/2/2
f 2/2/2 1/1/1 4/1/1
f 5/3/3 3/2/2 2/2/2
f 6/4/4 4/1/1 1/1/1
f 7/5/5 2/2/5 4/1/5
f 3/2/2 5/3/3 8/3/3
f 9/6/5 5/3/5 2/2/5
f 4/1/1 6/4/4 10/4/4
f 9/6/5 2/2/5 7/5/5
f 7/5/5 4/1/5 11/7/5
f 12/8/6 8/3/3 5/3/3
f 13/9/5 5/3/5 9/6/5
f 6/4/4 14/10/7 10/4/4
f 11/7/5 4/1/5 10/4/5
f 7/5/8 15/6/9 9/6/9
f 11/7/10 16/5/8 7/5/8
f 8/3/3 12/8/6 17/8/6
f 13/9/5 12/8/5 5/3/5
f 15/6/9 13/9/11 9/6/9
f 14/10/7 6/4/4 18/10/7
f 19/11/5 10/4/5 14/10/5
f 11/7/5 10/4/5 19/11/5
f 15/6/9 7/5/8 16/5/8
f 16/5/8 11/7/10 20/7/10
f 12/8/6 21/12/12 17/8/6
f 22/13/5 12/8/5 13/9/5
f 13/9/11 15/6/9 23/9/11
f 18/10/7 24/14/13 14/10/7
f 19/11/5 14/10/5 25/15/5
f 19/11/14 20/7/10 11/7/10
f 21/12/12 12/8/6 26/12/12
f 22/13/5 26/12/5 12/8/5
f 23/9/11 22/13/15 13/9/11
f 24/14/13 18/10/7 27/14/13
f 25/15/5 14/10/5 24/14/5
f 28/15/16 19/11/14 25/15/16
f 20/7/10 19/11/14 29/11/14
f 26/12/12 30/16/17 21/12/12
f 31/17/5 26/12/5 22/13/5
f 22/13/15 23/9/11 32/13/15
f 27/14/13 33/18/18 24/14/13
f 25/15/5 24/14/5 34/19/5
f 19/11/14 28/15/16 29/11/14
f 25/15/16 35/19/19 28/15/16
f 30/16/17 26/12/12 36/16/17
f 31/17/5 36/16/5 26/12/5
f 32/13/15 31/17/20 22/13/15
f 33/18/18 27/14/13 37/18/18
f 34/19/5 24/14/5 33/18/5
f 35/19/19 25/15/16 34/19/19
f 36/16/17 38/20/21 30/16/17
f 39/21/5 36/16/5 31/17/5
f 31/17/20 32/13/15 40/17/20
f 37/18/18 41/22/22 33/18/18
f 34/19/5 33/18/5 41/22/5
f 34/19/19 42/22/22 35/19/19
f 38/20/21 36/16/17 43/20/21
f 39/21/5 43/20/5 36/16/5
f 40/17/20 39/21/23 31/17/20
f 41/22/22 37/18/18 42/22/22
f 42/22/22 34/19/19 41/22/22
f 44/23/24 38/20/21 43/20/21
f 45/24/5 43/20/5 39/21/5
f 39/21/23 40/17/20 46/21/23
f 38/20/21 44/23/24 47/23/24
f 45/24/5 44/23/5 43/20/5
f 39/21/23 48/24/25 45/24/25
f 48/24/25 39/21/23 46/21/23
f 49/25/26 47/23/24 44/23/24
f 50/26/5 44/23/5 45/24/5
f 51/26/27 45/24/25 48/24/25
f 47/23/24 49/25/26 52/25/26
f 50/26/5 49/25/5 44/23/5
f 45/24/25 51/26/27 50/26/27
f 53/27/28 52/25/26 49/25/26
f 54/28/5 49/25/5 50/26/5
f 55/28/29 50/26/27 51/26/27
f 52/25/26 53/27/28 56/27/28
f 49/25/5 54/28/5 53/27/5
f 50/26/27 55/28/29 54/28/29
f 54/28/29 56/27/28 53/27/28
f 56/27/28 54/28/29 55/28/29
usemtl material_1_0
f 3/29/15 2/30/15 1/31/20
f 4/32/20 1/31/20 2/30/15
f 2/33/15 3/34/15 5/35/11
f 1/36/20 4/37/20 6/38/23
f 4/39/30 2/40/30 7/41/30
f 8/42/11 5/35/11 3/34/15
f 2/40/30 5/43/30 9/44/30
f 10/45/23 6/38/23 4/37/20
f 7/41/30 2/40/30 9/44/30
f 11/46/30 4/39/30 7/41/30
f 5/47/11 8/48/11 12/49/9
f 9/44/30 5/43/30 13/50/30
f 10/51/23 14/52/25 6/53/23
f 10/54/30 4/39/30 11/46/30
f 9/55/6 15/56/6 7/57/12
f 7/58/12 16/59/12 11/60/17
f 17/61/9 12/49/9 8/48/11
f 5/43/30 12/62/30 13/50/30
f 9/63/6 13/64/3 15/65/6
f 18/66/25 6/53/23 14/52/25
f 14/67/30 10/54/30 19/68/30
f 19/68/30 10/54/30 11/46/30
f 16/69/12 7/57/12 15/56/6
f 20/70/17 11/60/17 16/59/12
f 17/71/9 21/72/8 12/73/9
f 13/50/30 12/62/30 22/74/30
f 23/75/3 15/65/6 13/64/3
f 14/76/25 24/77/27 18/78/25
f 25/79/30 14/67/30 19/68/30
f 11/80/17 20/81/17 19/82/21
f 26/83/8 12/73/9 21/72/8
f 12/62/30 26/84/30 22/74/30
f 13/85/3 22/86/2 23/87/3
f 27/88/27 18/78/25 24/77/27
f 24/89/30 14/67/30 25/79/30
f 25/90/24 19/91/21 28/92/24
f 29/93/21 19/82/21 20/81/17
f 21/94/8 30/95/10 26/96/8
f 22/74/30 26/84/30 31/97/30
f 32/98/2 23/87/3 22/86/2
f 24/99/27 33/100/29 27/101/27
f 34/102/30 24/89/30 25/79/30
f 29/103/21 28/92/24 19/91/21
f 28/104/24 35/105/26 25/106/24
f 36/107/10 26/96/8 30/95/10
f 26/84/30 36/108/30 31/97/30
f 22/109/2 31/110/1 32/111/2
f 37/112/29 27/101/27 33/100/29
f 33/113/30 24/89/30 34/102/30
f 34/114/26 25/106/24 35/105/26
f 30/115/10 38/116/14 36/117/10
f 31/97/30 36/108/30 39/118/30
f 40/119/1 32/111/2 31/110/1
f 33/120/29 41/121/28 37/122/29
f 41/123/30 33/113/30 34/102/30
f 35/124/26 42/125/28 34/126/26
f 43/127/14 36/117/10 38/116/14
f 36/108/30 43/128/30 39/118/30
f 31/129/1 39/130/4 40/131/1
f 42/132/28 37/122/29 41/121/28
f 41/133/28 34/126/26 42/125/28
f 43/134/14 38/135/14 44/136/16
f 39/118/30 43/128/30 45/137/30
f 46/138/4 40/131/1 39/130/4
f 47/139/16 44/136/16 38/135/14
f 43/128/30 44/140/30 45/137/30
f 45/141/7 48/142/7 39/143/4
f 46/144/4 39/143/4 48/142/7
f 44/145/16 47/146/16 49/147/19
f 45/137/30 44/140/30 50/148/30
f 48/149/7 45/150/7 51/151/13
f 52/152/19 49/147/19 47/146/16
f 44/140/30 49/153/30 50/148/30
f 50/154/13 51/151/13 45/150/7
f 49/155/19 52/156/19 53/157/22
f 50/148/30 49/153/30 54/158/30
f 51/159/13 50/160/13 55/161/18
f 56/162/22 53/157/22 52/156/19
f 53/163/30 54/158/30 49/153/30
f 54/164/18 55/161/18 50/160/13
f 53/165/22 56/166/22 54/167/18
f 55/168/18 54/167/18 56/166/22
