# SSTK version 0.8.0
# 16
mtllib original-16.mtl
o mesh15/mesh15-geometry#mesh15-geometry
v -0.887341 0.003301 0.280391
v -0.886836 -0.009491 0.280193
v -0.886836 0.003166 0.281602
v -0.887341 -0.009356 0.278981
v -0.886033 -0.009607 0.281233
v -0.887341 0.013658 0.187370
v -0.887513 0.003446 0.279091
v -0.886033 0.003050 0.282643
v -0.887513 0.013513 0.188670
v -0.886836 0.013792 0.186158
v -0.887513 -0.009212 0.277681
v -0.884986 0.002961 0.283441
v -0.887513 0.000855 0.187261
v -0.887341 0.001000 0.185961
v -0.884986 -0.009696 0.282032
v -0.886033 0.013908 0.185118
v -0.886836 0.001135 0.184749
v -0.883767 0.002905 0.283943
v -0.884986 0.013997 0.184320
v -0.883767 -0.009752 0.282534
v -0.884986 0.001340 0.182910
v -0.886033 0.001251 0.183709
v -0.882459 0.002886 0.284114
v -0.883767 0.014053 0.183818
v -0.883767 0.001396 0.182408
v -0.882459 -0.009771 0.282705
v -0.764284 -0.009771 0.282705
v -0.882459 0.014072 0.183647
v -0.882459 0.001415 0.182237
v -0.764284 0.002886 0.284114
v -0.762976 -0.009752 0.282534
v -0.764284 0.014072 0.183647
v -0.764284 0.001415 0.182237
v -0.762976 0.002905 0.283943
v -0.761757 -0.009696 0.282032
v -0.762976 0.014053 0.183818
v -0.761757 0.002961 0.283441
v -0.762976 0.001396 0.182408
v -0.760710 -0.009607 0.281233
v -0.761757 0.013997 0.184320
v -0.760710 0.003050 0.282643
v -0.761757 0.001340 0.182910
v -0.759907 0.003166 0.281602
v -0.760710 0.013908 0.185118
v -0.759907 -0.009491 0.280193
v -0.760710 0.001251 0.183709
v -0.759402 0.003301 0.280391
v -0.759907 0.013792 0.186158
v -0.759907 0.001135 0.184749
v -0.759402 -0.009356 0.278981
v -0.759230 0.003446 0.279091
v -0.759402 0.013658 0.187370
v -0.759402 0.001000 0.185961
v -0.759230 -0.009212 0.277681
v -0.759230 0.013513 0.188670
v -0.759230 0.000855 0.187261
vt 1.014382 0.199815
vt 1.014665 0.198335
vt 1.015117 0.197065
vt 1.014382 0.31342
vt 1.014285 0.201403
vt 1.014285 0.311832
vt 1.014665 0.3149
vt 1.015705 0.19609
vt 1.015117 0.31617
vt 1.01639 0.195477
vt 1.015705 0.317145
vt 1.017126 0.195268
vt 1.01639 0.317758
vt 1.083548 0.195268
vt 1.017126 0.317967
vt 1.155306 0.195477
vt 1.15457 0.195268
vt 1.083548 0.317967
vt 1.084283 0.195477
vt 1.155991 0.19609
vt 1.084283 0.317758
vt 1.155306 0.317758
vt 1.15457 0.317967
vt 1.084968 0.19609
vt 1.156579 0.197065
vt 1.084968 0.317145
vt 1.155991 0.317145
vt 1.085556 0.197065
vt 1.157031 0.198335
vt 1.085556 0.31617
vt 1.156579 0.31617
vt 1.086008 0.198335
vt 1.157314 0.199815
vt 1.086008 0.3149
vt 1.157031 0.3149
vt 1.086292 0.199815
vt 1.157411 0.201403
vt 1.086292 0.31342
vt 1.157314 0.31342
vt 1.086388 0.311832
vt 1.086388 0.201403
vt 1.157411 0.311832
vt -0.161076 3.512037
vt -0.162648 3.403091
vt -0.16266 3.513198
vt -0.164232 3.404252
vt -0.130852 3.365689
vt -0.1295 3.474785
vt -0.129266 3.36469
vt 0.033261 4.438364
vt 0.032652 4.448847
vt 0.032652 5.253737
vt -0.183106 3.538391
vt -0.184791 3.429531
vt -0.184688 3.539636
vt -0.127914 3.473786
vt 0.032444 5.242487
vt 0.033261 5.26422
vt -0.186373 3.430776
vt 0.032444 4.460097
vt -0.087351 3.434606
vt -0.085763 3.433838
vt -0.08839 3.325335
vt 0.03423 4.429362
vt -0.300759 3.630968
vt -0.302444 3.522109
vt -0.302341 3.632213
vt -0.2898 3.606422
vt -0.291372 3.497476
vt -0.291383 3.607583
vt -0.190268 3.545368
vt -0.191968 3.43652
vt -0.29935 3.631942
vt -0.086802 3.324568
vt 0.035493 4.422454
vt 0.03423 5.273222
vt -0.304027 3.523353
vt -0.30105 3.523094
vt -0.292955 3.498637
vt -0.039018 3.403419
vt -0.037427 3.402936
vt -0.039672 3.293997
vt 0.035493 5.28013
vt -0.259023 3.556339
vt -0.260375 3.447243
vt -0.260608 3.557337
vt -0.038081 3.293514
vt 0.036963 4.418112
vt -0.211931 3.494796
vt -0.210343 3.494029
vt -0.21297 3.385526
vt -0.26196 3.448241
vt 0.012186 3.389636
vt 0.013778 3.389471
vt 0.011963 3.280126
vt 0.036963 5.284472
vt -0.211382 3.384758
vt -0.147585 3.326772
vt -0.149175 3.327255
vt -0.146931 3.436194
vt 0.013554 3.279961
vt 0.038541 4.416631
vt -0.148521 3.436677
vt 0.038541 3.281138
vt 0.038541 3.390659
vt 0.181105 3.281138
vt 0.038541 5.285953
vt -0.073307 3.28896
vt -0.074899 3.289124
vt -0.073084 3.398469
vt 0.181105 3.390659
vt 0.181105 4.416631
vt -0.074676 3.398634
vt 0.355343 3.317771
vt 0.35512 3.427281
vt 0.356934 3.317936
vt 0.181105 5.285953
vt -0.034629 3.281138
vt -0.177193 3.281138
vt -0.034629 3.390659
vt 0.356711 3.427445
vt 0.182683 4.418112
vt -0.177193 3.390659
vt 0.381833 3.39673
vt 0.381179 3.506151
vt 0.383423 3.397213
vt 0.182683 5.284472
vt -0.286398 3.360824
vt -0.286175 3.251315
vt -0.28799 3.360659
vt 0.382769 3.506635
vt 0.184154 4.422454
vt -0.287766 3.25115
vt 0.382137 3.465368
vt 0.381098 3.574638
vt 0.383725 3.466136
vt 0.184154 5.28013
vt -0.187407 3.333461
vt -0.186753 3.22404
vt -0.188997 3.332978
vt 0.382686 3.575406
vt 0.185417 4.429362
vt -0.188343 3.223557
vt 0.355087 3.614362
vt 0.356673 3.615361
vt 0.356439 3.505266
vt 0.185417 5.273222
vt -0.07558 3.353996
vt -0.074541 3.244725
vt -0.077169 3.353228
vt 0.358024 3.506265
vt 0.186386 4.438364
vt -0.07613 3.243958
vt 0.305143 3.614804
vt 0.306726 3.615965
vt 0.306715 3.505858
vt 0.186386 5.26422
vt 0.042611 3.307665
vt 0.041026 3.306667
vt 0.04126 3.416761
vt 0.308298 3.507019
vt 0.186995 4.448847
vt 0.039674 3.415763
vt 0.234784 3.575977
vt 0.236366 3.577221
vt 0.236469 3.467117
vt 0.186995 5.253737
vt 0.156712 3.39587
vt 0.155129 3.394709
vt 0.15514 3.504816
vt 0.238051 3.468362
vt 0.187203 4.460097
vt 0.187203 5.242487
vt 0.153557 3.503655
vt 0.19418 3.545368
vt 0.303262 3.631942
vt 0.19588 3.43652
vt 0.256904 3.593383
vt 0.258487 3.594628
vt 0.25859 3.484523
vt 0.260172 3.485768
vt 0.304962 3.523094
vn -0.9659257572160402 -0.028638992801633078 0.2572299353456497
vn -0.8660251334540503 -0.05532600852571102 0.4969300765766822
vn -0.7071066741218326 -0.07824296394083871 0.7027646761228917
vn 0 0.9938591002356646 0.11065301115991022
vn -0.9978589560687615 -0.0072369996813874925 0.06500099713829867
vn -0.5000001136417888 -0.09582802178013086 0.8607071956245661
vn -0.9659257572160402 0.028638992801633078 -0.2572299353456497
vn -0.9978589560687615 0.0072369996813874925 -0.06500099713829867
vn -0.8660251334540503 0.05532600852571102 -0.4969300765766822
vn -0.2588190625409164 -0.1068820258269226 0.9599942319725542
vn -0.7071066741218326 0.07824296394083871 -0.7027646761228917
vn -0.5000001136417888 0.09582802178013086 -0.8607071956245661
vn -0.06540301236686057 -0.11041602087823633 0.9917311875234928
vn -0.2588190625409164 0.1068820258269226 -0.9599942319725542
vn 0.06540301236686057 -0.11041602087823633 0.9917311875234928
vn -0.06540301236686057 0.11041602087823633 -0.9917311875234928
vn 0.2588190625409164 -0.1068820258269226 0.9599942319725542
vn 0.06540301236686057 0.11041602087823633 -0.9917311875234928
vn 0.5000001136417888 -0.09582802178013086 0.8607071956245661
vn 0.2588190625409164 0.1068820258269226 -0.9599942319725542
vn 0.7071066741218326 -0.07824296394083871 0.7027646761228917
vn 0.5000001136417888 0.09582802178013086 -0.8607071956245661
vn 0.8660251334540503 -0.05532600852571102 0.4969300765766822
vn 0.7071066741218326 0.07824296394083871 -0.7027646761228917
vn 0.9659257572160402 -0.028638992801633078 0.2572299353456497
vn 0.8660251334540503 0.05532600852571102 -0.4969300765766822
vn 0.9978589560687615 -0.0072369996813874925 0.06500099713829867
vn 0.9659257572160402 0.028638992801633078 -0.2572299353456497
vn 0.9978589560687615 0.0072369996813874925 -0.06500099713829867
vn 0 -0.9938591002356646 -0.11065301115991022
usemtl material_0_0
f 1/1/1 2/2/2 3/2/2
f 2/2/2 1/1/1 4/1/1
f 5/3/3 3/2/2 2/2/2
f 6/4/4 1/1/4 3/2/4
f 7/5/5 4/1/1 1/1/1
f 3/2/2 5/3/3 8/3/3
f 9/6/4 1/1/4 6/4/4
f 6/4/4 3/2/4 10/7/4
f 4/1/1 7/5/5 11/5/5
f 1/1/4 9/6/4 7/5/4
f 5/3/3 12/8/6 8/3/3
f 10/7/4 3/2/4 8/3/4
f 6/4/7 13/6/8 9/6/8
f 10/7/9 14/4/7 6/4/7
f 9/6/8 11/5/5 7/5/5
f 12/8/6 5/3/3 15/8/6
f 16/9/4 8/3/4 12/8/4
f 10/7/4 8/3/4 16/9/4
f 13/6/8 6/4/7 14/4/7
f 11/5/5 9/6/8 13/6/8
f 14/4/7 10/7/9 17/7/9
f 15/8/6 18/10/10 12/8/6
f 16/9/4 12/8/4 19/11/4
f 16/9/11 17/7/9 10/7/9
f 18/10/10 15/8/6 20/10/10
f 19/11/4 12/8/4 18/10/4
f 21/11/12 16/9/11 19/11/12
f 17/7/9 16/9/11 22/9/11
f 20/10/10 23/12/13 18/10/10
f 19/11/4 18/10/4 24/13/4
f 16/9/11 21/11/12 22/9/11
f 19/11/12 25/13/14 21/11/12
f 23/12/13 20/10/10 26/12/13
f 24/13/4 18/10/4 23/12/4
f 25/13/14 19/11/12 24/13/14
f 27/14/15 23/12/13 26/12/13
f 24/13/4 23/12/4 28/15/4
f 24/13/14 29/15/16 25/13/14
f 23/12/13 27/14/15 30/14/15
f 28/15/4 23/12/4 30/14/4
f 29/15/16 24/13/14 28/15/16
f 31/16/17 30/17/15 27/17/15
f 28/15/4 30/14/4 32/18/4
f 28/15/16 33/18/18 29/15/16
f 30/17/15 31/16/17 34/16/17
f 32/18/4 30/14/4 34/19/4
f 33/18/18 28/15/16 32/18/18
f 35/20/19 34/16/17 31/16/17
f 32/18/4 34/19/4 36/21/4
f 36/22/20 33/23/18 32/23/18
f 34/16/17 35/20/19 37/20/19
f 36/21/4 34/19/4 37/24/4
f 33/23/18 36/22/20 38/22/20
f 39/25/21 37/20/19 35/20/19
f 36/21/4 37/24/4 40/26/4
f 40/27/22 38/22/20 36/22/20
f 37/20/19 39/25/21 41/25/21
f 40/26/4 37/24/4 41/28/4
f 38/22/20 40/27/22 42/27/22
f 39/25/21 43/29/23 41/25/21
f 40/26/4 41/28/4 44/30/4
f 44/31/24 42/27/22 40/27/22
f 43/29/23 39/25/21 45/29/23
f 44/30/4 41/28/4 43/32/4
f 42/27/22 44/31/24 46/31/24
f 45/29/23 47/33/25 43/29/23
f 44/30/4 43/32/4 48/34/4
f 44/31/24 49/35/26 46/31/24
f 47/33/25 45/29/23 50/33/25
f 48/34/4 43/32/4 47/36/4
f 49/35/26 44/31/24 48/35/26
f 50/33/25 51/37/27 47/33/25
f 48/34/4 47/36/4 52/38/4
f 48/35/26 53/39/28 49/35/26
f 51/37/27 50/33/25 54/37/27
f 55/40/4 47/36/4 51/41/4
f 52/38/4 47/36/4 55/40/4
f 53/39/28 48/35/26 52/39/28
f 54/37/27 55/42/29 51/37/27
f 56/42/29 52/39/28 55/42/29
f 52/39/28 56/42/29 53/39/28
f 55/42/29 54/37/27 56/42/29
usemtl material_1_0
f 3/43/26 2/44/26 1/45/28
f 4/46/28 1/45/28 2/44/26
f 2/47/26 3/48/26 5/49/24
f 3/50/30 1/51/30 6/52/30
f 1/53/28 4/54/28 7/55/29
f 8/56/24 5/49/24 3/48/26
f 6/52/30 1/51/30 9/57/30
f 10/58/30 3/50/30 6/52/30
f 11/59/29 7/55/29 4/54/28
f 7/60/30 9/57/30 1/51/30
f 8/61/24 12/62/22 5/63/24
f 8/64/30 3/50/30 10/58/30
f 9/65/27 13/66/27 6/67/25
f 6/68/25 14/69/25 10/70/23
f 7/71/29 11/72/29 9/73/27
f 15/74/22 5/63/24 12/62/22
f 12/75/30 8/64/30 16/76/30
f 16/76/30 8/64/30 10/58/30
f 14/77/25 6/67/25 13/66/27
f 13/78/27 9/73/27 11/72/29
f 17/79/23 10/70/23 14/69/25
f 12/80/22 18/81/20 15/82/22
f 19/83/30 12/75/30 16/76/30
f 10/84/23 17/85/23 16/86/21
f 20/87/20 15/82/22 18/81/20
f 18/88/30 12/75/30 19/83/30
f 19/89/19 16/90/21 21/91/19
f 22/92/21 16/86/21 17/85/23
f 18/93/20 23/94/18 20/95/20
f 24/96/30 18/88/30 19/83/30
f 22/97/21 21/91/19 16/90/21
f 21/98/19 25/99/17 19/100/19
f 26/101/18 20/95/20 23/94/18
f 23/102/30 18/88/30 24/96/30
f 24/103/17 19/100/19 25/99/17
f 26/104/18 23/105/18 27/106/16
f 28/107/30 23/102/30 24/96/30
f 25/108/17 29/109/15 24/110/17
f 30/111/16 27/106/16 23/105/18
f 30/112/30 23/102/30 28/107/30
f 28/113/15 24/110/17 29/109/15
f 27/114/16 30/115/16 31/116/14
f 32/117/30 30/112/30 28/107/30
f 29/118/15 33/119/13 28/120/15
f 34/121/14 31/116/14 30/115/16
f 34/122/30 30/112/30 32/117/30
f 32/123/13 28/120/15 33/119/13
f 31/124/14 34/125/14 35/126/12
f 36/127/30 34/122/30 32/117/30
f 32/128/13 33/129/13 36/130/10
f 37/131/12 35/126/12 34/125/14
f 37/132/30 34/122/30 36/127/30
f 38/133/10 36/130/10 33/129/13
f 35/134/12 37/135/12 39/136/11
f 40/137/30 37/132/30 36/127/30
f 36/138/10 38/139/10 40/140/6
f 41/141/11 39/136/11 37/135/12
f 41/142/30 37/132/30 40/137/30
f 42/143/6 40/140/6 38/139/10
f 41/144/11 43/145/9 39/146/11
f 44/147/30 41/142/30 40/137/30
f 40/148/6 42/149/6 44/150/3
f 45/151/9 39/146/11 43/145/9
f 43/152/30 41/142/30 44/147/30
f 46/153/3 44/150/3 42/149/6
f 43/154/9 47/155/7 45/156/9
f 48/157/30 43/152/30 44/147/30
f 46/158/3 49/159/2 44/160/3
f 50/161/7 45/156/9 47/155/7
f 47/162/30 43/152/30 48/157/30
f 48/163/2 44/160/3 49/159/2
f 47/164/7 51/165/8 50/166/7
f 52/167/30 47/162/30 48/157/30
f 49/168/2 53/169/1 48/170/2
f 54/171/8 50/166/7 51/165/8
f 51/172/30 47/162/30 55/173/30
f 55/173/30 47/162/30 52/167/30
f 52/174/1 48/170/2 53/169/1
f 51/175/8 55/176/5 54/177/8
f 55/178/5 52/179/1 56/180/5
f 53/181/1 56/180/5 52/179/1
f 56/182/5 54/177/8 55/176/5
