# SSTK version 0.8.0
# 24
mtllib original-24.mtl
o mesh23/mesh23-geometry#mesh23-geometry
v 0.089639 -0.009607 0.281233
v 0.090442 0.003166 0.281602
v 0.089639 0.003050 0.282643
v 0.090442 -0.009491 0.280193
v 0.089639 0.013908 0.185118
v 0.088592 0.002961 0.283441
v 0.090947 0.003301 0.280391
v 0.088592 0.013997 0.184320
v 0.090442 0.013792 0.186158
v 0.088592 -0.009696 0.282032
v 0.090947 -0.009356 0.278981
v 0.088592 0.001340 0.182910
v 0.090442 0.001135 0.184749
v 0.087373 0.002905 0.283943
v 0.087373 0.014053 0.183818
v 0.091119 0.003446 0.279091
v 0.090947 0.013658 0.187370
v 0.089639 0.001251 0.183709
v 0.087373 0.001396 0.182408
v 0.090947 0.001000 0.185961
v 0.087373 -0.009752 0.282534
v 0.091119 -0.009212 0.277681
v 0.086065 0.002886 0.284114
v 0.086065 0.014072 0.183647
v 0.086065 0.001415 0.182237
v 0.091119 0.013513 0.188670
v 0.091119 0.000855 0.187261
v 0.086065 -0.009771 0.282705
v -0.009969 0.002886 0.284114
v -0.009969 0.014072 0.183647
v -0.009969 -0.009771 0.282705
v -0.009969 0.001415 0.182237
v -0.011277 -0.009752 0.282534
v -0.011277 0.014053 0.183818
v -0.011277 0.002905 0.283943
v -0.011277 0.001396 0.182408
v -0.012496 -0.009696 0.282032
v -0.012496 0.013997 0.184320
v -0.012496 0.002961 0.283441
v -0.012496 0.001340 0.182910
v -0.013543 -0.009607 0.281233
v -0.013543 0.013908 0.185118
v -0.013543 0.003050 0.282643
v -0.013543 0.001251 0.183709
v -0.014346 0.003166 0.281602
v -0.014346 0.013792 0.186158
v -0.014346 0.001135 0.184749
v -0.014346 -0.009491 0.280193
v -0.014851 0.003301 0.280391
v -0.014851 0.013658 0.187370
v -0.014851 0.001000 0.185961
v -0.014851 -0.009356 0.278981
v -0.015023 0.003446 0.279091
v -0.015023 0.013513 0.188670
v -0.015023 0.000855 0.187261
v -0.015023 -0.009212 0.277681
vt 1.563508 0.197065
vt 1.56396 0.198335
vt 1.563508 0.31617
vt 1.56292 0.19609
vt 1.564243 0.199815
vt 1.56292 0.317145
vt 1.56396 0.3149
vt 1.562235 0.195477
vt 1.562235 0.317758
vt 1.56434 0.201403
vt 1.564243 0.31342
vt 1.561499 0.195268
vt 1.561499 0.317967
vt 1.56434 0.311832
vt 1.507522 0.195268
vt 1.507522 0.317967
vt 1.506787 0.195477
vt 1.506787 0.317758
vt 1.506102 0.19609
vt 1.506102 0.317145
vt 1.505513 0.197065
vt 1.505513 0.31617
vt 1.505062 0.198335
vt 1.505062 0.3149
vt 1.504778 0.199815
vt 1.504778 0.31342
vt 1.504681 0.201403
vt 1.504681 0.311832
vt -0.167836 3.947847
vt -0.16625 3.948845
vt -0.166484 3.838751
vt -0.164898 3.839749
vt 0.159676 4.438364
vt 0.158707 4.429362
vt 0.158707 5.273222
vt 0.021464 3.909422
vt 0.022503 3.800152
vt 0.019876 3.908655
vt -0.414931 3.858596
vt -0.413347 3.859757
vt -0.413359 3.74965
vt 0.157444 5.28013
vt 0.159676 5.26422
vt 0.020915 3.799385
vt 0.157444 4.422454
vt -0.411775 3.750811
vt 0.160285 4.448847
vt -1.819474 3.019979
vt -1.818435 2.910709
vt -1.821062 3.019212
vt -1.542519 3.082278
vt -1.540934 3.083277
vt -1.541168 2.973182
vt 0.136404 3.75149
vt 0.137058 3.642069
vt 0.134814 3.751007
vt 0.155973 5.284472
vt -0.70446 3.66514
vt -0.702878 3.666385
vt -0.702774 3.55628
vt 0.160285 5.253737
vt -1.820023 2.909941
vt -2.047094 2.978701
vt -2.047748 3.088122
vt -2.045504 2.979184
vt -1.539582 2.97418
vt -1.22833 3.152078
vt -1.229914 3.150917
vt -1.229902 3.261024
vt 0.135468 3.641586
vt 0.155973 4.418112
vt -2.046158 3.088605
vt -0.701192 3.557525
vt 0.160493 4.460097
vt -1.231486 3.259863
vt 0.169998 3.517141
vt 0.170222 3.407631
vt 0.168407 3.516976
vt 0.154395 5.285953
vt -2.206169 3.161454
vt -2.206393 3.270964
vt -2.204578 3.161619
vt -0.858378 3.545368
vt -0.749296 3.631942
vt -0.856678 3.43652
vt 0.160493 5.242487
vt -0.9057 3.396605
vt -0.907282 3.39536
vt -0.907386 3.505464
vt 0.16863 3.407467
vt 0.154395 4.416631
vt -2.204801 3.271129
vt -0.747596 3.523094
vt -0.908968 3.504219
vt 0.154395 3.390659
vt 0.154395 3.281138
vt 0.038541 3.390659
vt 0.038541 5.285953
vt -2.255599 3.390659
vt -2.139745 3.390659
vt -2.255599 3.281138
vt 0.038541 3.281138
vt 0.038541 4.416631
vt -2.139745 3.281138
vt 0.004439 3.171868
vt 0.002848 3.172033
vt 0.004663 3.281377
vt 0.036963 5.284472
vt -2.170677 3.506727
vt -2.169085 3.506562
vt -2.1709 3.397218
vt 0.003071 3.281542
vt 0.036963 4.418112
vt -2.169308 3.397053
vt -0.119084 2.998434
vt -0.120674 2.998917
vt -0.11843 3.107856
vt 0.035493 5.28013
vt -2.172634 3.731757
vt -2.171044 3.731274
vt -2.173288 3.622335
vt -0.12002 3.108339
vt 0.035493 4.422454
vt -2.171698 3.621852
vt -0.306221 2.92204
vt -0.307809 2.922807
vt -0.305182 3.03131
vt 0.03423 5.273222
vt -2.097628 3.897324
vt -2.09604 3.896557
vt -2.098667 3.788054
vt -0.30677 3.032077
vt 0.03423 4.429362
vt -2.097079 3.787287
vt -0.542201 3.071899
vt -0.543553 2.962803
vt -0.543786 3.072897
vt 0.033261 5.26422
vt -1.95279 3.850128
vt -1.951438 3.959224
vt -1.951204 3.84913
vt -0.545138 2.963801
vt 0.033261 4.438364
vt -1.949852 3.958226
vt -0.812952 3.21824
vt -0.814524 3.109294
vt -0.814535 3.219401
vt 0.032652 5.253737
vt -1.746195 3.792434
vt -1.744623 3.901381
vt -1.744612 3.791273
vt -0.816107 3.110455
vt 0.032652 4.448847
vt -1.74304 3.90022
vt -1.099107 3.430939
vt -1.100792 3.322079
vt -1.100689 3.432184
vt 0.032444 5.242487
vt -1.493142 3.630805
vt -1.491456 3.739665
vt -1.491559 3.629561
vt -1.102374 3.323324
vt 0.032444 4.460097
vt -1.489874 3.73842
vt -1.242826 3.545368
vt -1.244526 3.43652
vt -1.351908 3.631942
vt -1.353608 3.523094
vn 0.7071066741218326 -0.07824296394083871 0.7027646761228917
vn 0.8660251334540503 -0.05532600852571102 0.4969300765766822
vn 0 0.9938591002356646 0.11065301115991022
vn 0.5000001136417888 -0.09582802178013086 0.8607071956245661
vn 0.9659257572160402 -0.028638992801633078 0.2572299353456497
vn 0.7071066741218326 0.07824296394083871 -0.7027646761228917
vn 0.5000001136417888 0.09582802178013086 -0.8607071956245661
vn 0.8660251334540503 0.05532600852571102 -0.4969300765766822
vn 0.2588190625409164 -0.1068820258269226 0.9599942319725542
vn 0.9978589560687615 -0.0072369996813874925 0.06500099713829867
vn 0.2588190625409164 0.1068820258269226 -0.9599942319725542
vn 0.9659257572160402 0.028638992801633078 -0.2572299353456497
vn 0.06540301236686057 -0.11041602087823633 0.9917311875234928
vn 0.06540301236686057 0.11041602087823633 -0.9917311875234928
vn 0.9978589560687615 0.0072369996813874925 -0.06500099713829867
vn -0.06540301236686057 -0.11041602087823633 0.9917311875234928
vn -0.06540301236686057 0.11041602087823633 -0.9917311875234928
vn -0.2588190625409164 -0.1068820258269226 0.9599942319725542
vn -0.2588190625409164 0.1068820258269226 -0.9599942319725542
vn -0.5000001136417888 -0.09582802178013086 0.8607071956245661
vn -0.5000001136417888 0.09582802178013086 -0.8607071956245661
vn -0.7071066741218326 -0.07824296394083871 0.7027646761228917
vn -0.7071066741218326 0.07824296394083871 -0.7027646761228917
vn -0.8660251334540503 -0.05532600852571102 0.4969300765766822
vn -0.8660251334540503 0.05532600852571102 -0.4969300765766822
vn -0.9659257572160402 -0.028638992801633078 0.2572299353456497
vn -0.9659257572160402 0.028638992801633078 -0.2572299353456497
vn -0.9978589560687615 -0.0072369996813874925 0.06500099713829867
vn -0.9978589560687615 0.0072369996813874925 -0.06500099713829867
vn 0 -0.9938591002356646 -0.11065301115991022
usemtl material_0_0
f 1/1/1 2/2/2 3/1/1
f 2/2/2 1/1/1 4/2/2
f 5/3/3 3/1/3 2/2/3
f 6/4/4 1/1/1 3/1/1
f 4/2/2 7/5/5 2/2/2
f 8/6/3 3/1/3 5/3/3
f 5/3/3 2/2/3 9/7/3
f 1/1/1 6/4/4 10/4/4
f 8/6/3 6/4/3 3/1/3
f 7/5/5 4/2/2 11/5/5
f 9/7/3 2/2/3 7/5/3
f 5/3/6 12/6/7 8/6/7
f 13/7/8 5/3/6 9/7/8
f 14/8/9 10/4/4 6/4/4
f 15/9/3 6/4/3 8/6/3
f 11/5/5 16/10/10 7/5/5
f 9/7/3 7/5/3 17/11/3
f 12/6/7 5/3/6 18/3/6
f 19/9/11 8/6/7 12/6/7
f 5/3/6 13/7/8 18/3/6
f 9/7/8 20/11/12 13/7/8
f 10/4/4 14/8/9 21/8/9
f 15/9/3 14/8/3 6/4/3
f 8/6/7 19/9/11 15/9/11
f 16/10/10 11/5/5 22/10/10
f 17/11/3 7/5/3 16/10/3
f 20/11/12 9/7/8 17/11/12
f 23/12/13 21/8/9 14/8/9
f 24/13/3 14/8/3 15/9/3
f 25/13/14 15/9/11 19/9/11
f 22/10/10 26/14/15 16/10/10
f 17/11/3 16/10/3 26/14/3
f 17/11/12 27/14/15 20/11/12
f 21/8/9 23/12/13 28/12/13
f 24/13/3 23/12/3 14/8/3
f 15/9/11 25/13/14 24/13/14
f 26/14/15 22/10/10 27/14/15
f 27/14/15 17/11/12 26/14/15
f 29/15/16 28/12/13 23/12/13
f 30/16/3 23/12/3 24/13/3
f 25/13/14 30/16/17 24/13/14
f 28/12/13 29/15/16 31/15/16
f 30/16/3 29/15/3 23/12/3
f 30/16/17 25/13/14 32/16/17
f 29/15/16 33/17/18 31/15/16
f 34/18/3 29/15/3 30/16/3
f 32/16/17 34/18/19 30/16/17
f 33/17/18 29/15/16 35/17/18
f 34/18/3 35/17/3 29/15/3
f 34/18/19 32/16/17 36/18/19
f 35/17/18 37/19/20 33/17/18
f 38/20/3 35/17/3 34/18/3
f 36/18/19 38/20/21 34/18/19
f 37/19/20 35/17/18 39/19/20
f 38/20/3 39/19/3 35/17/3
f 38/20/21 36/18/19 40/20/21
f 39/19/20 41/21/22 37/19/20
f 42/22/3 39/19/3 38/20/3
f 40/20/21 42/22/23 38/20/21
f 41/21/22 39/19/20 43/21/22
f 42/22/3 43/21/3 39/19/3
f 42/22/23 40/20/21 44/22/23
f 45/23/24 41/21/22 43/21/22
f 46/24/3 43/21/3 42/22/3
f 47/24/25 42/22/23 44/22/23
f 41/21/22 45/23/24 48/23/24
f 46/24/3 45/23/3 43/21/3
f 42/22/23 47/24/25 46/24/25
f 49/25/26 48/23/24 45/23/24
f 50/26/3 45/23/3 46/24/3
f 51/26/27 46/24/25 47/24/25
f 48/23/24 49/25/26 52/25/26
f 50/26/3 49/25/3 45/23/3
f 46/24/25 51/26/27 50/26/27
f 53/27/28 52/25/26 49/25/26
f 54/28/3 49/25/3 50/26/3
f 55/28/29 50/26/27 51/26/27
f 52/25/26 53/27/28 56/27/28
f 49/25/3 54/28/3 53/27/3
f 50/26/27 55/28/29 54/28/29
f 54/28/29 56/27/28 53/27/28
f 56/27/28 54/28/29 55/28/29
usemtl material_1_0
f 3/29/23 2/30/25 1/31/23
f 4/32/25 1/31/23 2/30/25
f 2/33/30 3/34/30 5/35/30
f 3/36/23 1/37/23 6/38/21
f 2/39/25 7/40/27 4/41/25
f 5/35/30 3/34/30 8/42/30
f 9/43/30 2/33/30 5/35/30
f 10/44/21 6/38/21 1/37/23
f 3/34/30 6/45/30 8/42/30
f 11/46/27 4/41/25 7/40/27
f 7/47/30 2/33/30 9/43/30
f 8/48/20 12/49/20 5/50/22
f 9/51/24 5/52/22 13/53/24
f 6/54/21 10/55/21 14/56/19
f 8/42/30 6/45/30 15/57/30
f 7/58/27 16/59/29 11/60/27
f 17/61/30 7/47/30 9/43/30
f 18/62/22 5/50/22 12/49/20
f 12/63/20 8/64/20 19/65/18
f 18/66/22 13/53/24 5/52/22
f 13/67/24 20/68/26 9/69/24
f 21/70/19 14/56/19 10/55/21
f 6/45/30 14/71/30 15/57/30
f 15/72/18 19/65/18 8/64/20
f 22/73/29 11/60/27 16/59/29
f 16/74/30 7/47/30 17/61/30
f 17/75/26 9/69/24 20/68/26
f 14/76/19 21/77/19 23/78/17
f 15/57/30 14/71/30 24/79/30
f 19/80/18 15/81/18 25/82/16
f 16/83/29 26/84/28 22/85/29
f 26/86/30 16/74/30 17/61/30
f 20/87/26 27/88/28 17/89/26
f 28/90/17 23/78/17 21/77/19
f 14/71/30 23/91/30 24/79/30
f 24/92/16 25/82/16 15/81/18
f 27/93/28 22/85/29 26/84/28
f 26/94/28 17/89/26 27/88/28
f 23/95/17 28/96/17 29/97/14
f 24/79/30 23/91/30 30/98/30
f 24/99/16 30/100/13 25/101/16
f 31/102/14 29/97/14 28/96/17
f 23/91/30 29/103/30 30/98/30
f 32/104/13 25/101/16 30/100/13
f 31/105/14 33/106/11 29/107/14
f 30/98/30 29/103/30 34/108/30
f 30/109/13 34/110/9 32/111/13
f 35/112/11 29/107/14 33/106/11
f 29/103/30 35/113/30 34/108/30
f 36/114/9 32/111/13 34/110/9
f 33/115/11 37/116/7 35/117/11
f 34/108/30 35/113/30 38/118/30
f 34/119/9 38/120/4 36/121/9
f 39/122/7 35/117/11 37/116/7
f 35/113/30 39/123/30 38/118/30
f 40/124/4 36/121/9 38/120/4
f 37/125/7 41/126/6 39/127/7
f 38/118/30 39/123/30 42/128/30
f 38/129/4 42/130/1 40/131/4
f 43/132/6 39/127/7 41/126/6
f 39/123/30 43/133/30 42/128/30
f 44/134/1 40/131/4 42/130/1
f 43/135/6 41/136/6 45/137/8
f 42/128/30 43/133/30 46/138/30
f 44/139/1 42/140/1 47/141/2
f 48/142/8 45/137/8 41/136/6
f 43/133/30 45/143/30 46/138/30
f 46/144/2 47/141/2 42/140/1
f 45/145/8 48/146/8 49/147/12
f 46/138/30 45/143/30 50/148/30
f 47/149/2 46/150/2 51/151/5
f 52/152/12 49/147/12 48/146/8
f 45/143/30 49/153/30 50/148/30
f 50/154/5 51/151/5 46/150/2
f 49/155/12 52/156/12 53/157/15
f 50/148/30 49/153/30 54/158/30
f 51/159/5 50/160/5 55/161/10
f 56/162/15 53/157/15 52/156/12
f 53/163/30 54/158/30 49/153/30
f 54/164/10 55/161/10 50/160/5
f 53/165/15 56/166/15 54/167/10
f 55/168/10 54/167/10 56/166/15
