# SSTK version 0.8.0
# 79
mtllib original-79.mtl
o mesh78/mesh78-geometry#mesh78-geometry
v -0.677315 0.016444 0.162342
v -0.677487 0.026656 0.070621
v -0.677487 0.016589 0.161041
v -0.677315 0.026801 0.069320
v -0.677487 0.003931 0.159632
v -0.677315 0.003787 0.160932
v -0.676810 0.016309 0.163553
v -0.677487 0.013999 0.069211
v -0.676810 0.003652 0.162144
v -0.676810 0.026936 0.068109
v -0.677315 0.014143 0.067911
v -0.676007 0.003536 0.163184
v -0.676007 0.016193 0.164593
v -0.676007 0.027051 0.067069
v -0.676810 0.014278 0.066700
v -0.674960 0.016104 0.165392
v -0.674960 0.003447 0.163983
v -0.674960 0.027140 0.066270
v -0.676007 0.014394 0.065659
v -0.673741 0.016049 0.165894
v -0.674960 0.014483 0.064861
v -0.673741 0.003391 0.164484
v -0.673741 0.027196 0.065768
v -0.673741 0.014539 0.064359
v -0.672433 0.016030 0.166065
v -0.672433 0.003372 0.164656
v -0.672433 0.027215 0.065597
v -0.672433 0.014558 0.064188
v -0.576399 0.003372 0.164656
v -0.576399 0.016030 0.166065
v -0.576399 0.027215 0.065597
v -0.576399 0.014558 0.064188
v -0.575091 0.003391 0.164484
v -0.575091 0.016049 0.165894
v -0.575091 0.027196 0.065768
v -0.573872 0.003447 0.163983
v -0.573872 0.016104 0.165392
v -0.575091 0.014539 0.064359
v -0.573872 0.027140 0.066270
v -0.572825 0.003536 0.163184
v -0.572825 0.016193 0.164593
v -0.573872 0.014483 0.064861
v -0.572825 0.027051 0.067069
v -0.572022 0.016309 0.163553
v -0.572825 0.014394 0.065659
v -0.572022 0.003652 0.162144
v -0.572022 0.026936 0.068109
v -0.572022 0.014278 0.066700
v -0.571517 0.016444 0.162342
v -0.571517 0.003787 0.160932
v -0.571517 0.026801 0.069320
v -0.571517 0.014143 0.067911
v -0.571344 0.016589 0.161041
v -0.571344 0.003931 0.159632
v -0.571344 0.026656 0.070621
v -0.571344 0.013999 0.069211
vt 1.13243 0.343987
vt 1.132333 0.456004
vt 1.132333 0.345574
vt 1.13243 0.457592
vt 1.132714 0.342507
vt 1.132714 0.459071
vt 1.133165 0.341236
vt 1.133165 0.460342
vt 1.133754 0.340261
vt 1.133754 0.461317
vt 1.134439 0.339649
vt 1.134439 0.46193
vt 1.135174 0.339439
vt 1.135174 0.462139
vt 1.189152 0.339439
vt 1.189152 0.462139
vt 1.189887 0.339649
vt 1.189887 0.46193
vt 1.190572 0.340261
vt 1.190572 0.461317
vt 1.19116 0.341236
vt 1.19116 0.460342
vt 1.191612 0.342507
vt 1.191612 0.459071
vt 1.191896 0.343987
vt 1.191896 0.457592
vt 1.191992 0.345574
vt 1.191992 0.456004
vt 0.032444 4.460097
vt 0.032444 5.242487
vt 0.032652 4.448847
vt 0.032652 5.253737
vt -0.586053 2.636942
vt -0.587753 2.528093
vt -0.695135 2.723515
vt -0.544815 2.602184
vt -0.546501 2.493325
vt -0.546397 2.603429
vt 0.033261 4.438364
vt -0.728212 2.746493
vt -0.729898 2.637634
vt -0.729795 2.747738
vt -0.696835 2.614667
vt -0.548083 2.49457
vt -0.452842 2.408636
vt -0.45127 2.517582
vt -0.451259 2.407475
vt -0.449686 2.516421
vt 0.033261 5.26422
vt -0.73148 2.638879
vt -0.34382 2.318795
vt -0.342468 2.427891
vt -0.342234 2.317796
vt 0.03423 4.429362
vt -0.771315 2.752253
vt -0.772887 2.643307
vt -0.772898 2.753414
vt -0.340882 2.426892
vt 0.03423 5.273222
vt -0.774471 2.644468
vt -0.227201 2.358304
vt -0.225613 2.357537
vt -0.22824 2.249034
vt 0.035493 4.422454
vt -0.779281 2.70293
vt -0.780633 2.593834
vt -0.780867 2.703928
vt -0.226652 2.248267
vt 0.035493 5.28013
vt -0.782219 2.594832
vt -0.113303 2.327573
vt -0.111712 2.32709
vt -0.113957 2.218152
vt 0.036963 4.418112
vt -0.752889 2.612288
vt -0.751301 2.611521
vt -0.753928 2.503018
vt -0.75234 2.502251
vt -0.112366 2.217669
vt 0.036963 5.284472
vt -0.689617 2.39299
vt -0.691207 2.393473
vt -0.688963 2.502412
vt -0.00871 2.344099
vt -0.007118 2.343934
vt -0.008933 2.23459
vt 0.038541 4.416631
vt -0.690553 2.502895
vt -0.007341 2.234425
vt 0.038541 5.285953
vt -0.59656 2.295464
vt -0.598151 2.295629
vt -0.596336 2.404973
vt 0.038541 2.259684
vt 0.038541 2.369205
vt 0.154395 2.259684
vt 0.154395 4.416631
vt -0.597928 2.405138
vt 0.154395 2.369205
vt 0.154395 5.285953
vt -0.541374 2.259684
vt -0.657228 2.259684
vt -0.541374 2.369205
vt 0.194252 2.305878
vt 0.194029 2.415387
vt 0.195844 2.306042
vt 0.155973 4.418112
vt -0.657228 2.369205
vt 0.195621 2.415552
vt 0.155973 5.284472
vt -0.59465 2.333685
vt -0.594426 2.224176
vt -0.596241 2.333521
vt 0.251758 2.412724
vt 0.251104 2.522146
vt 0.253348 2.413207
vt 0.157444 4.422454
vt -0.596018 2.224011
vt 0.252694 2.522629
vt 0.157444 5.28013
vt -0.454505 2.307839
vt -0.453851 2.198418
vt -0.456095 2.307356
vt 0.274547 2.514349
vt 0.273508 2.623619
vt 0.276135 2.515116
vt 0.158707 4.429362
vt -0.455441 2.197935
vt 0.275096 2.624386
vt 0.158707 5.273222
vt -0.300672 2.346206
vt -0.299633 2.236936
vt -0.30226 2.345439
vt 0.259964 2.692551
vt 0.26155 2.693549
vt 0.261316 2.583455
vt 0.159676 4.438364
vt -0.301221 2.236169
vt 0.262902 2.584453
vt 0.159676 5.26422
vt -0.142529 2.329174
vt -0.144115 2.328175
vt -0.143881 2.43827
vt 0.211715 2.710629
vt 0.213299 2.71179
vt 0.213287 2.601683
vt 0.160285 4.448847
vt -0.145467 2.437271
vt 0.214871 2.602844
vt 0.160285 5.253737
vt 0.006775 2.45026
vt 0.005192 2.449099
vt 0.005203 2.559206
vt 0.13225 2.673213
vt 0.133832 2.674458
vt 0.133935 2.564353
vt 0.160493 4.460097
vt 0.00362 2.558045
vt 0.135518 2.565598
vt 0.160493 5.242487
vt 0.138379 2.56785
vt 0.136797 2.566605
vt 0.136694 2.67671
vt 0.08322 2.636942
vt 0.192302 2.723515
vt 0.08492 2.528093
vt 0.135111 2.675465
vt 0.194002 2.614667
vn 0 0.9938591002356646 0.11065301115991022
vn -0.9978589560687615 0.0072369996813874925 -0.06500099713829867
vn -0.9978589560687615 -0.0072369996813874925 0.06500099713829867
vn -0.9659257572160402 -0.028638992801633078 0.2572299353456497
vn -0.9659257572160402 0.028638992801633078 -0.2572299353456497
vn -0.8660251334540503 -0.05532600852571102 0.4969300765766822
vn -0.7071066741218326 -0.07824296394083871 0.7027646761228917
vn -0.8660251334540503 0.05532600852571102 -0.4969300765766822
vn -0.5000001136417888 -0.09582802178013086 0.8607071956245661
vn -0.7071066741218326 0.07824296394083871 -0.7027646761228917
vn -0.2588190625409164 -0.1068820258269226 0.9599942319725542
vn -0.5000001136417888 0.09582802178013086 -0.8607071956245661
vn -0.2588190625409164 0.1068820258269226 -0.9599942319725542
vn -0.06540301236686057 -0.11041602087823633 0.9917311875234928
vn -0.06540301236686057 0.11041602087823633 -0.9917311875234928
vn 0.06540301236686057 -0.11041602087823633 0.9917311875234928
vn 0.06540301236686057 0.11041602087823633 -0.9917311875234928
vn 0.2588190625409164 -0.1068820258269226 0.9599942319725542
vn 0.2588190625409164 0.1068820258269226 -0.9599942319725542
vn 0.5000001136417888 -0.09582802178013086 0.8607071956245661
vn 0.5000001136417888 0.09582802178013086 -0.8607071956245661
vn 0.7071066741218326 -0.07824296394083871 0.7027646761228917
vn 0.7071066741218326 0.07824296394083871 -0.7027646761228917
vn 0.8660251334540503 -0.05532600852571102 0.4969300765766822
vn 0.8660251334540503 0.05532600852571102 -0.4969300765766822
vn 0.9659257572160402 -0.028638992801633078 0.2572299353456497
vn 0.9659257572160402 0.028638992801633078 -0.2572299353456497
vn 0.9978589560687615 -0.0072369996813874925 0.06500099713829867
vn 0.9978589560687615 0.0072369996813874925 -0.06500099713829867
vn 0 -0.9938591002356646 -0.11065301115991022
usemtl material_0_0
f 1/1/1 2/2/1 3/3/1
f 2/2/1 1/1/1 4/4/1
f 2/2/2 5/3/3 3/3/3
f 3/3/3 6/1/4 1/1/4
f 4/4/1 1/1/1 7/5/1
f 4/4/5 8/2/2 2/2/2
f 5/3/3 2/2/2 8/2/2
f 6/1/4 3/3/3 5/3/3
f 9/5/6 1/1/4 6/1/4
f 1/1/4 9/5/6 7/5/6
f 4/4/1 7/5/1 10/6/1
f 8/2/2 4/4/5 11/4/5
f 12/7/7 7/5/6 9/5/6
f 10/6/1 7/5/1 13/7/1
f 10/6/8 11/4/5 4/4/5
f 7/5/6 12/7/7 13/7/7
f 10/6/1 13/7/1 14/8/1
f 11/4/5 10/6/8 15/6/8
f 12/7/7 16/9/9 13/7/7
f 14/8/1 13/7/1 16/9/1
f 14/8/10 15/6/8 10/6/8
f 16/9/9 12/7/7 17/9/9
f 14/8/1 16/9/1 18/10/1
f 15/6/8 14/8/10 19/8/10
f 17/9/9 20/11/11 16/9/9
f 18/10/1 16/9/1 20/11/1
f 21/10/12 14/8/10 18/10/12
f 14/8/10 21/10/12 19/8/10
f 20/11/11 17/9/9 22/11/11
f 18/10/1 20/11/1 23/12/1
f 18/10/12 24/12/13 21/10/12
f 22/11/11 25/13/14 20/11/11
f 23/12/1 20/11/1 25/13/1
f 24/12/13 18/10/12 23/12/13
f 25/13/14 22/11/11 26/13/14
f 23/12/1 25/13/1 27/14/1
f 23/12/13 28/14/15 24/12/13
f 29/15/16 25/13/14 26/13/14
f 27/14/1 25/13/1 30/15/1
f 28/14/15 23/12/13 27/14/15
f 25/13/14 29/15/16 30/15/16
f 27/14/1 30/15/1 31/16/1
f 27/14/15 32/16/17 28/14/15
f 33/17/18 30/15/16 29/15/16
f 31/16/1 30/15/1 34/17/1
f 32/16/17 27/14/15 31/16/17
f 30/15/16 33/17/18 34/17/18
f 31/16/1 34/17/1 35/18/1
f 35/18/19 32/16/17 31/16/17
f 36/19/20 34/17/18 33/17/18
f 35/18/1 34/17/1 37/19/1
f 32/16/17 35/18/19 38/18/19
f 34/17/18 36/19/20 37/19/20
f 35/18/1 37/19/1 39/20/1
f 39/20/21 38/18/19 35/18/19
f 40/21/22 37/19/20 36/19/20
f 39/20/1 37/19/1 41/21/1
f 38/18/19 39/20/21 42/20/21
f 37/19/20 40/21/22 41/21/22
f 39/20/1 41/21/1 43/22/1
f 43/22/23 42/20/21 39/20/21
f 40/21/22 44/23/24 41/21/22
f 43/22/1 41/21/1 44/23/1
f 42/20/21 43/22/23 45/22/23
f 44/23/24 40/21/22 46/23/24
f 43/22/1 44/23/1 47/24/1
f 43/22/23 48/24/25 45/22/23
f 46/23/24 49/25/26 44/23/24
f 47/24/1 44/23/1 49/25/1
f 48/24/25 43/22/23 47/24/25
f 49/25/26 46/23/24 50/25/26
f 47/24/1 49/25/1 51/26/1
f 47/24/25 52/26/27 48/24/25
f 50/25/26 53/27/28 49/25/26
f 51/26/1 49/25/1 53/27/1
f 52/26/27 47/24/25 51/26/27
f 53/27/28 50/25/26 54/27/28
f 51/26/1 53/27/1 55/28/1
f 51/26/27 56/28/29 52/26/27
f 54/27/28 55/28/29 53/27/28
f 56/28/29 51/26/27 55/28/29
f 55/28/29 54/27/28 56/28/29
usemtl material_1_0
f 3/29/30 2/30/30 1/31/30
f 4/32/30 1/31/30 2/30/30
f 3/33/29 5/34/29 2/35/28
f 1/36/27 6/37/27 3/38/29
f 7/39/30 1/31/30 4/32/30
f 2/40/28 8/41/28 4/42/26
f 8/43/28 2/35/28 5/34/29
f 5/44/29 3/38/29 6/37/27
f 6/45/27 1/46/27 9/47/25
f 7/48/25 9/47/25 1/46/27
f 10/49/30 7/39/30 4/32/30
f 11/50/26 4/42/26 8/41/28
f 9/51/25 7/52/25 12/53/23
f 13/54/30 7/39/30 10/49/30
f 4/55/26 11/56/26 10/57/24
f 13/58/23 12/53/23 7/52/25
f 14/59/30 13/54/30 10/49/30
f 15/60/24 10/57/24 11/56/26
f 13/61/23 16/62/21 12/63/23
f 16/64/30 13/54/30 14/59/30
f 10/65/24 15/66/24 14/67/22
f 17/68/21 12/63/23 16/62/21
f 18/69/30 16/64/30 14/59/30
f 19/70/22 14/67/22 15/66/24
f 16/71/21 20/72/19 17/73/21
f 20/74/30 16/64/30 18/69/30
f 18/75/20 14/76/22 21/77/20
f 19/78/22 21/77/20 14/76/22
f 22/79/19 17/73/21 20/72/19
f 23/80/30 20/74/30 18/69/30
f 21/81/20 24/82/18 18/83/20
f 20/84/19 25/85/17 22/86/19
f 25/87/30 20/74/30 23/80/30
f 23/88/18 18/83/20 24/82/18
f 26/89/17 22/86/19 25/85/17
f 27/90/30 25/87/30 23/80/30
f 24/91/18 28/92/16 23/93/18
f 26/94/17 25/95/17 29/96/15
f 30/97/30 25/87/30 27/90/30
f 27/98/16 23/93/18 28/92/16
f 30/99/15 29/96/15 25/95/17
f 31/100/30 30/97/30 27/90/30
f 28/101/16 32/102/14 27/103/16
f 29/104/15 30/105/15 33/106/13
f 34/107/30 30/97/30 31/100/30
f 31/108/14 27/103/16 32/102/14
f 34/109/13 33/106/13 30/105/15
f 35/110/30 34/107/30 31/100/30
f 31/111/14 32/112/14 35/113/11
f 33/114/13 34/115/13 36/116/12
f 37/117/30 34/107/30 35/110/30
f 38/118/11 35/113/11 32/112/14
f 37/119/12 36/116/12 34/115/13
f 39/120/30 37/117/30 35/110/30
f 35/121/11 38/122/11 39/123/9
f 36/124/12 37/125/12 40/126/10
f 41/127/30 37/117/30 39/120/30
f 42/128/9 39/123/9 38/122/11
f 41/129/10 40/126/10 37/125/12
f 43/130/30 41/127/30 39/120/30
f 39/131/9 42/132/9 43/133/7
f 41/134/10 44/135/8 40/136/10
f 44/137/30 41/127/30 43/130/30
f 45/138/7 43/133/7 42/132/9
f 46/139/8 40/136/10 44/135/8
f 47/140/30 44/137/30 43/130/30
f 45/141/7 48/142/6 43/143/7
f 44/144/8 49/145/5 46/146/8
f 49/147/30 44/137/30 47/140/30
f 47/148/6 43/143/7 48/142/6
f 50/149/5 46/146/8 49/145/5
f 51/150/30 49/147/30 47/140/30
f 48/151/6 52/152/4 47/153/6
f 49/154/5 53/155/2 50/156/5
f 53/157/30 49/147/30 51/150/30
f 51/158/4 47/153/6 52/152/4
f 54/159/2 50/156/5 53/155/2
f 55/160/30 53/157/30 51/150/30
f 52/161/4 56/162/3 51/163/4
f 53/164/2 55/165/3 54/166/2
f 55/167/3 51/163/4 56/162/3
f 56/168/3 54/166/2 55/165/3
