# SSTK version 0.8.0
# 39
mtllib original-39.mtl
o mesh38/mesh38-geometry#mesh38-geometry
v -0.348778 0.029587 0.044292
v -0.348950 0.039799 -0.047429
v -0.348950 0.029732 0.042992
v -0.348778 0.039944 -0.048729
v -0.348950 0.017075 0.041583
v -0.348778 0.016930 0.042883
v -0.348273 0.029452 0.045504
v -0.348950 0.027142 -0.048838
v -0.348273 0.016795 0.044095
v -0.348273 0.040079 -0.049940
v -0.348778 0.027287 -0.050138
v -0.347470 0.016679 0.045135
v -0.347470 0.029337 0.046544
v -0.347470 0.040195 -0.050981
v -0.348273 0.027421 -0.051350
v -0.346423 0.029248 0.047342
v -0.346423 0.016590 0.045933
v -0.346423 0.040283 -0.051779
v -0.347470 0.027537 -0.052390
v -0.345204 0.029192 0.047844
v -0.346423 0.027626 -0.053188
v -0.345204 0.016534 0.046435
v -0.345204 0.040339 -0.052281
v -0.345204 0.027682 -0.053690
v -0.343896 0.029173 0.048015
v -0.343896 0.016515 0.046606
v -0.343896 0.040358 -0.052452
v -0.343896 0.027701 -0.053861
v -0.247862 0.016515 0.046606
v -0.247862 0.029173 0.048015
v -0.247862 0.040358 -0.052452
v -0.247862 0.027701 -0.053861
v -0.246554 0.016534 0.046435
v -0.246554 0.029192 0.047844
v -0.246554 0.040339 -0.052281
v -0.245335 0.016590 0.045933
v -0.245335 0.029248 0.047342
v -0.246554 0.027682 -0.053690
v -0.245335 0.040283 -0.051779
v -0.244288 0.016679 0.045135
v -0.244288 0.029337 0.046544
v -0.245335 0.027626 -0.053188
v -0.244288 0.040195 -0.050981
v -0.243485 0.029452 0.045504
v -0.244288 0.027537 -0.052390
v -0.243485 0.016795 0.044095
v -0.243485 0.040079 -0.049940
v -0.243485 0.027421 -0.051350
v -0.242980 0.029587 0.044292
v -0.242980 0.016930 0.042883
v -0.242980 0.039944 -0.048729
v -0.242980 0.027287 -0.050138
v -0.242808 0.029732 0.042992
v -0.242808 0.039799 -0.047429
v -0.242808 0.017075 0.041583
v -0.242808 0.027142 -0.048838
vt 1.317089 0.488158
vt 1.316992 0.600176
vt 1.316992 0.489746
vt 1.317089 0.601764
vt 1.317373 0.486679
vt 1.317373 0.603243
vt 1.317824 0.485408
vt 1.317824 0.604514
vt 1.318413 0.484433
vt 1.318413 0.605489
vt 1.319098 0.48382
vt 1.319098 0.606102
vt 1.319833 0.483611
vt 1.319833 0.606311
vt 1.373811 0.483611
vt 1.373811 0.606311
vt 1.374546 0.48382
vt 1.374546 0.606102
vt 1.375231 0.484433
vt 1.375231 0.605489
vt 1.375819 0.485408
vt 1.375819 0.604514
vt 1.376271 0.486679
vt 1.376271 0.603243
vt 1.376555 0.488158
vt 1.376555 0.601764
vt 1.376652 0.489746
vt 1.376652 0.600176
vt 0.032444 4.460097
vt 0.032444 5.242487
vt 0.032652 4.448847
vt 0.032652 5.253737
vt -1.124807 1.728515
vt -1.126507 1.619667
vt -1.233889 1.815089
vt -1.030945 1.651382
vt -1.032631 1.542523
vt -1.032527 1.652627
vt 0.033261 4.438364
vt -1.317184 1.876614
vt -1.318869 1.767754
vt -1.318766 1.877859
vt -1.235589 1.70624
vt -1.034213 1.543768
vt -0.829997 1.373114
vt -0.828424 1.48206
vt -0.828413 1.371953
vt -0.826841 1.480899
vt 0.033261 5.26422
vt -1.320452 1.768999
vt -0.613061 1.217312
vt -0.611709 1.326408
vt -0.611475 1.216314
vt 0.03423 4.429362
vt -1.450224 1.93799
vt -1.451796 1.829044
vt -1.451808 1.939151
vt -0.610123 1.32541
vt 0.03423 5.273222
vt -1.45338 1.830205
vt -0.396855 1.227327
vt -0.395267 1.22656
vt -0.397894 1.118057
vt 0.035493 4.422454
vt -1.529205 1.904109
vt -1.530557 1.795013
vt -1.530791 1.905108
vt -0.396306 1.11729
vt 0.035493 5.28013
vt -1.532143 1.796012
vt -0.19859 1.211647
vt -0.197 1.211164
vt -0.199244 1.102225
vt 0.036963 4.418112
vt -1.549981 1.784456
vt -1.548393 1.783689
vt -1.55102 1.675186
vt -1.549432 1.674419
vt -0.197654 1.101742
vt 0.036963 5.284472
vt -1.506584 1.499289
vt -1.508175 1.499772
vt -1.50593 1.608711
vt -0.030843 1.283881
vt -0.029252 1.283716
vt -0.031067 1.174371
vt 0.038541 4.416631
vt -1.507521 1.609194
vt -0.029475 1.174206
vt 0.038541 5.285953
vt -1.404512 1.31665
vt -1.406103 1.316815
vt -1.404288 1.42616
vt 0.038541 1.238231
vt 0.038541 1.347752
vt 0.154395 1.238231
vt 0.154395 4.416631
vt -1.40588 1.426325
vt 0.154395 1.347752
vt 0.154395 5.285953
vt -1.334057 1.238231
vt -1.449911 1.238231
vt -1.334057 1.347752
vt 0.209521 1.327064
vt 0.209298 1.436573
vt 0.211113 1.327229
vt 0.155973 4.418112
vt -1.449911 1.347752
vt 0.21089 1.436738
vt 0.155973 5.284472
vt -1.365199 1.273467
vt -1.364975 1.163958
vt -1.36679 1.273302
vt 0.276042 1.519023
vt 0.275388 1.628444
vt 0.277632 1.519506
vt 0.157444 4.422454
vt -1.366567 1.163793
vt 0.276978 1.628927
vt 0.157444 5.28013
vt -1.1619 1.191913
vt -1.161246 1.082491
vt -1.16349 1.19143
vt 0.278956 1.686517
vt 0.277917 1.795787
vt 0.280544 1.687284
vt 0.158707 4.429362
vt -1.162836 1.082008
vt 0.279505 1.796554
vt 0.158707 5.273222
vt -0.923701 1.215229
vt -0.922662 1.105959
vt -0.925289 1.214462
vt 0.217205 1.89373
vt 0.218791 1.894729
vt 0.218557 1.784634
vt 0.159676 4.438364
vt -0.92425 1.105192
vt 0.220143 1.785633
vt 0.159676 5.26422
vt -0.665972 1.227691
vt -0.667557 1.226693
vt -0.667323 1.336788
vt 0.097941 1.896366
vt 0.099525 1.897527
vt 0.099513 1.78742
vt 0.160285 4.448847
vt -0.668909 1.335789
vt 0.101097 1.788581
vt 0.160285 5.253737
vt -0.408753 1.414738
vt -0.410336 1.413577
vt -0.410325 1.523684
vt -0.071462 1.803333
vt -0.06988 1.804578
vt -0.069776 1.694474
vt 0.160493 5.242487
vt -0.411908 1.522523
vt -0.068194 1.695719
vt 0.160493 4.460097
vt -0.171442 1.724663
vt -0.169859 1.725908
vt -0.169756 1.615803
vt -0.168174 1.617048
vt -0.170709 1.728515
vt -0.061627 1.815089
vt -0.169009 1.619667
vt -0.059927 1.70624
vn 0 0.9938591002356646 0.11065301115991022
vn -0.9978589560687615 0.0072369996813874925 -0.06500099713829867
vn -0.9978589560687615 -0.0072369996813874925 0.06500099713829867
vn -0.9659257572160402 -0.028638992801633078 0.2572299353456497
vn -0.9659257572160402 0.028638992801633078 -0.2572299353456497
vn -0.8660251334540503 -0.05532600852571102 0.4969300765766822
vn -0.7071066741218326 -0.07824296394083871 0.7027646761228917
vn -0.8660251334540503 0.05532600852571102 -0.4969300765766822
vn -0.5000001136417888 -0.09582802178013086 0.8607071956245661
vn -0.7071066741218326 0.07824296394083871 -0.7027646761228917
vn -0.2588190625409164 -0.1068820258269226 0.9599942319725542
vn -0.5000001136417888 0.09582802178013086 -0.8607071956245661
vn -0.2588190625409164 0.1068820258269226 -0.9599942319725542
vn -0.06540301236686057 -0.11041602087823633 0.9917311875234928
vn -0.06540301236686057 0.11041602087823633 -0.9917311875234928
vn 0.06540301236686057 -0.11041602087823633 0.9917311875234928
vn 0.06540301236686057 0.11041602087823633 -0.9917311875234928
vn 0.2588190625409164 -0.1068820258269226 0.9599942319725542
vn 0.2588190625409164 0.1068820258269226 -0.9599942319725542
vn 0.5000001136417888 -0.09582802178013086 0.8607071956245661
vn 0.5000001136417888 0.09582802178013086 -0.8607071956245661
vn 0.7071066741218326 -0.07824296394083871 0.7027646761228917
vn 0.7071066741218326 0.07824296394083871 -0.7027646761228917
vn 0.8660251334540503 -0.05532600852571102 0.4969300765766822
vn 0.8660251334540503 0.05532600852571102 -0.4969300765766822
vn 0.9659257572160402 -0.028638992801633078 0.2572299353456497
vn 0.9659257572160402 0.028638992801633078 -0.2572299353456497
vn 0.9978589560687615 -0.0072369996813874925 0.06500099713829867
vn 0.9978589560687615 0.0072369996813874925 -0.06500099713829867
vn 0 -0.9938591002356646 -0.11065301115991022
usemtl material_0_0
f 1/1/1 2/2/1 3/3/1
f 2/2/1 1/1/1 4/4/1
f 2/2/2 5/3/3 3/3/3
f 3/3/3 6/1/4 1/1/4
f 4/4/1 1/1/1 7/5/1
f 4/4/5 8/2/2 2/2/2
f 5/3/3 2/2/2 8/2/2
f 6/1/4 3/3/3 5/3/3
f 9/5/6 1/1/4 6/1/4
f 1/1/4 9/5/6 7/5/6
f 4/4/1 7/5/1 10/6/1
f 8/2/2 4/4/5 11/4/5
f 12/7/7 7/5/6 9/5/6
f 10/6/1 7/5/1 13/7/1
f 10/6/8 11/4/5 4/4/5
f 7/5/6 12/7/7 13/7/7
f 10/6/1 13/7/1 14/8/1
f 11/4/5 10/6/8 15/6/8
f 12/7/7 16/9/9 13/7/7
f 14/8/1 13/7/1 16/9/1
f 14/8/10 15/6/8 10/6/8
f 16/9/9 12/7/7 17/9/9
f 14/8/1 16/9/1 18/10/1
f 15/6/8 14/8/10 19/8/10
f 17/9/9 20/11/11 16/9/9
f 18/10/1 16/9/1 20/11/1
f 21/10/12 14/8/10 18/10/12
f 14/8/10 21/10/12 19/8/10
f 20/11/11 17/9/9 22/11/11
f 18/10/1 20/11/1 23/12/1
f 18/10/12 24/12/13 21/10/12
f 22/11/11 25/13/14 20/11/11
f 23/12/1 20/11/1 25/13/1
f 24/12/13 18/10/12 23/12/13
f 25/13/14 22/11/11 26/13/14
f 23/12/1 25/13/1 27/14/1
f 23/12/13 28/14/15 24/12/13
f 29/15/16 25/13/14 26/13/14
f 27/14/1 25/13/1 30/15/1
f 28/14/15 23/12/13 27/14/15
f 25/13/14 29/15/16 30/15/16
f 27/14/1 30/15/1 31/16/1
f 27/14/15 32/16/17 28/14/15
f 33/17/18 30/15/16 29/15/16
f 31/16/1 30/15/1 34/17/1
f 32/16/17 27/14/15 31/16/17
f 30/15/16 33/17/18 34/17/18
f 31/16/1 34/17/1 35/18/1
f 35/18/19 32/16/17 31/16/17
f 36/19/20 34/17/18 33/17/18
f 35/18/1 34/17/1 37/19/1
f 32/16/17 35/18/19 38/18/19
f 34/17/18 36/19/20 37/19/20
f 35/18/1 37/19/1 39/20/1
f 39/20/21 38/18/19 35/18/19
f 40/21/22 37/19/20 36/19/20
f 39/20/1 37/19/1 41/21/1
f 38/18/19 39/20/21 42/20/21
f 37/19/20 40/21/22 41/21/22
f 39/20/1 41/21/1 43/22/1
f 43/22/23 42/20/21 39/20/21
f 40/21/22 44/23/24 41/21/22
f 43/22/1 41/21/1 44/23/1
f 42/20/21 43/22/23 45/22/23
f 44/23/24 40/21/22 46/23/24
f 43/22/1 44/23/1 47/24/1
f 43/22/23 48/24/25 45/22/23
f 46/23/24 49/25/26 44/23/24
f 47/24/1 44/23/1 49/25/1
f 48/24/25 43/22/23 47/24/25
f 49/25/26 46/23/24 50/25/26
f 47/24/1 49/25/1 51/26/1
f 47/24/25 52/26/27 48/24/25
f 50/25/26 53/27/28 49/25/26
f 51/26/1 49/25/1 54/28/1
f 52/26/27 47/24/25 51/26/27
f 53/27/28 50/25/26 55/27/28
f 54/28/1 49/25/1 53/27/1
f 56/28/29 51/26/27 54/28/29
f 51/26/27 56/28/29 52/26/27
f 55/27/28 54/28/29 53/27/28
f 54/28/29 55/27/28 56/28/29
usemtl material_1_0
f 3/29/30 2/30/30 1/31/30
f 4/32/30 1/31/30 2/30/30
f 3/33/29 5/34/29 2/35/28
f 1/36/27 6/37/27 3/38/29
f 7/39/30 1/31/30 4/32/30
f 2/40/28 8/41/28 4/42/26
f 8/43/28 2/35/28 5/34/29
f 5/44/29 3/38/29 6/37/27
f 6/45/27 1/46/27 9/47/25
f 7/48/25 9/47/25 1/46/27
f 10/49/30 7/39/30 4/32/30
f 11/50/26 4/42/26 8/41/28
f 9/51/25 7/52/25 12/53/23
f 13/54/30 7/39/30 10/49/30
f 4/55/26 11/56/26 10/57/24
f 13/58/23 12/53/23 7/52/25
f 14/59/30 13/54/30 10/49/30
f 15/60/24 10/57/24 11/56/26
f 13/61/23 16/62/21 12/63/23
f 16/64/30 13/54/30 14/59/30
f 10/65/24 15/66/24 14/67/22
f 17/68/21 12/63/23 16/62/21
f 18/69/30 16/64/30 14/59/30
f 19/70/22 14/67/22 15/66/24
f 16/71/21 20/72/19 17/73/21
f 20/74/30 16/64/30 18/69/30
f 18/75/20 14/76/22 21/77/20
f 19/78/22 21/77/20 14/76/22
f 22/79/19 17/73/21 20/72/19
f 23/80/30 20/74/30 18/69/30
f 21/81/20 24/82/18 18/83/20
f 20/84/19 25/85/17 22/86/19
f 25/87/30 20/74/30 23/80/30
f 23/88/18 18/83/20 24/82/18
f 26/89/17 22/86/19 25/85/17
f 27/90/30 25/87/30 23/80/30
f 24/91/18 28/92/16 23/93/18
f 26/94/17 25/95/17 29/96/15
f 30/97/30 25/87/30 27/90/30
f 27/98/16 23/93/18 28/92/16
f 30/99/15 29/96/15 25/95/17
f 31/100/30 30/97/30 27/90/30
f 28/101/16 32/102/14 27/103/16
f 29/104/15 30/105/15 33/106/13
f 34/107/30 30/97/30 31/100/30
f 31/108/14 27/103/16 32/102/14
f 34/109/13 33/106/13 30/105/15
f 35/110/30 34/107/30 31/100/30
f 31/111/14 32/112/14 35/113/11
f 33/114/13 34/115/13 36/116/12
f 37/117/30 34/107/30 35/110/30
f 38/118/11 35/113/11 32/112/14
f 37/119/12 36/116/12 34/115/13
f 39/120/30 37/117/30 35/110/30
f 35/121/11 38/122/11 39/123/9
f 36/124/12 37/125/12 40/126/10
f 41/127/30 37/117/30 39/120/30
f 42/128/9 39/123/9 38/122/11
f 41/129/10 40/126/10 37/125/12
f 43/130/30 41/127/30 39/120/30
f 39/131/9 42/132/9 43/133/7
f 41/134/10 44/135/8 40/136/10
f 44/137/30 41/127/30 43/130/30
f 45/138/7 43/133/7 42/132/9
f 46/139/8 40/136/10 44/135/8
f 47/140/30 44/137/30 43/130/30
f 45/141/7 48/142/6 43/143/7
f 44/144/8 49/145/5 46/146/8
f 49/147/30 44/137/30 47/140/30
f 47/148/6 43/143/7 48/142/6
f 50/149/5 46/146/8 49/145/5
f 51/150/30 49/147/30 47/140/30
f 48/151/6 52/152/4 47/153/6
f 49/154/5 53/155/2 50/156/5
f 54/157/30 49/147/30 51/150/30
f 51/158/4 47/153/6 52/152/4
f 55/159/2 50/156/5 53/155/2
f 53/160/30 49/147/30 54/157/30
f 54/161/3 51/162/4 56/163/3
f 52/164/4 56/163/3 51/162/4
f 53/165/2 54/166/3 55/167/2
f 56/168/3 55/167/2 54/166/3
