# SSTK version 0.8.0
# 64
mtllib original-64.mtl
o mesh63/mesh63-geometry#mesh63-geometry
v -0.485419 0.016515 0.046606
v -0.581453 0.029173 0.048015
v -0.581453 0.016515 0.046606
v -0.485419 0.029173 0.048015
v -0.582761 0.016534 0.046435
v -0.484111 0.016534 0.046435
v -0.581453 0.040358 -0.052452
v -0.582761 0.029192 0.047844
v -0.484111 0.029192 0.047844
v -0.582761 0.040339 -0.052281
v -0.485419 0.040358 -0.052452
v -0.583980 0.016590 0.045933
v -0.482892 0.016590 0.045933
v -0.581453 0.027701 -0.053861
v -0.485419 0.027701 -0.053861
v -0.583980 0.040283 -0.051779
v -0.583980 0.029248 0.047342
v -0.482892 0.029248 0.047342
v -0.484111 0.040339 -0.052281
v -0.582761 0.027682 -0.053690
v -0.585027 0.016679 0.045135
v -0.481845 0.016679 0.045135
v -0.484111 0.027682 -0.053690
v -0.585027 0.040195 -0.050981
v -0.583980 0.027626 -0.053188
v -0.585027 0.029337 0.046544
v -0.481845 0.029337 0.046544
v -0.482892 0.040283 -0.051779
v -0.585830 0.029452 0.045504
v -0.481042 0.029452 0.045504
v -0.482892 0.027626 -0.053188
v -0.585830 0.040079 -0.049940
v -0.585027 0.027537 -0.052390
v -0.585830 0.016795 0.044095
v -0.481042 0.016795 0.044095
v -0.481845 0.040195 -0.050981
v -0.585830 0.027421 -0.051350
v -0.586335 0.029587 0.044292
v -0.586335 0.039944 -0.048729
v -0.480537 0.029587 0.044292
v -0.481042 0.040079 -0.049940
v -0.481845 0.027537 -0.052390
v -0.586335 0.027287 -0.050138
v -0.586335 0.016930 0.042883
v -0.480537 0.016930 0.042883
v -0.481042 0.027421 -0.051350
v -0.586508 0.029732 0.042992
v -0.586508 0.039799 -0.047429
v -0.586508 0.027142 -0.048838
v -0.480365 0.029732 0.042992
v -0.480537 0.039944 -0.048729
v -0.480537 0.027287 -0.050138
v -0.586508 0.017075 0.041583
v -0.480365 0.017075 0.041583
v -0.480365 0.039799 -0.047429
v -0.480365 0.027142 -0.048838
vt 1.240288 0.483611
vt 1.186311 0.483611
vt 1.185575 0.48382
vt 1.241023 0.48382
vt 1.186311 0.606311
vt 1.185575 0.606102
vt 1.240288 0.606311
vt 1.18489 0.484433
vt 1.241708 0.484433
vt 1.18489 0.605489
vt 1.241023 0.606102
vt 1.184302 0.485408
vt 1.242297 0.485408
vt 1.184302 0.604514
vt 1.241708 0.605489
vt 1.18385 0.486679
vt 1.242748 0.486679
vt 1.18385 0.603243
vt 1.242297 0.604514
vt 1.183566 0.488158
vt 1.183566 0.601764
vt 1.243032 0.488158
vt 1.242748 0.603243
vt 1.18347 0.489746
vt 1.18347 0.600176
vt 1.243129 0.489746
vt 1.243032 0.601764
vt 1.243129 0.600176
vt 0.038541 1.238231
vt 0.038541 1.347752
vt 0.154395 1.238231
vt 0.154395 1.347752
vt -0.026993 1.203638
vt -0.028585 1.203802
vt -0.02677 1.313147
vt 0.212003 1.297633
vt 0.21178 1.407142
vt 0.213595 1.297798
vt 0.154395 4.416631
vt 0.038541 4.416631
vt 0.038541 5.285953
vt -0.028361 1.313312
vt 0.213372 1.407307
vt 0.036963 5.284472
vt 0.154395 5.285953
vt 0.036963 4.418112
vt -0.175599 1.182085
vt -0.177189 1.182568
vt -0.174945 1.291507
vt 0.298097 1.43868
vt 0.297443 1.548102
vt 0.299687 1.439163
vt 0.155973 4.418112
vt -0.835191 1.396894
vt -0.8336 1.396729
vt -0.835414 1.287384
vt -0.87674 1.347752
vt -0.760887 1.347752
vt -0.87674 1.238231
vt 0.035493 5.28013
vt -0.176535 1.29199
vt 0.299033 1.548585
vt 0.155973 5.284472
vt -0.833823 1.287219
vt -0.760887 1.238231
vt -0.79451 1.302898
vt -0.794287 1.193389
vt -0.796101 1.302733
vt 0.035493 4.422454
vt -0.956405 1.528851
vt -0.954814 1.528368
vt -0.957059 1.419429
vt -0.336564 1.226888
vt -0.338152 1.227656
vt -0.335525 1.336159
vt 0.338698 1.576918
vt 0.337659 1.686189
vt 0.340286 1.577686
vt 0.157444 4.422454
vt -0.795878 1.193224
vt 0.03423 5.273222
vt -0.955468 1.418946
vt -0.337113 1.336926
vt 0.339247 1.686956
vt 0.157444 5.28013
vt -0.610784 1.272256
vt -0.61013 1.162834
vt -0.612374 1.271773
vt 0.03423 4.429362
vt -1.036552 1.674858
vt -1.034964 1.674091
vt -1.037591 1.565588
vt -0.497323 1.434834
vt -0.498675 1.325738
vt -0.498909 1.435832
vt 0.330005 1.784306
vt 0.331591 1.785305
vt 0.331357 1.67521
vt 0.158707 4.429362
vt -0.61172 1.162351
vt 0.033261 5.26422
vt -1.036003 1.56482
vt -0.500261 1.326736
vt 0.033261 4.438364
vt 0.332943 1.676209
vt 0.159676 4.438364
vt 0.158707 5.273222
vt -0.410273 1.324828
vt -0.409234 1.215558
vt -0.411861 1.324061
vt -1.068834 1.794686
vt -1.070186 1.685589
vt -1.07042 1.795684
vt -1.071772 1.686588
vt -0.649352 1.560893
vt -0.650924 1.451947
vt -0.650935 1.562054
vt 0.032652 5.253737
vt 0.275431 1.816373
vt 0.277014 1.817534
vt 0.277003 1.707427
vt 0.159676 5.26422
vt -0.410822 1.21479
vt -1.057698 1.750211
vt -1.056126 1.859157
vt -1.056115 1.74905
vt -0.652507 1.453108
vt 0.032652 4.448847
vt -1.054543 1.857996
vt 0.278586 1.708588
vt 0.160285 4.448847
vt -0.208538 1.445213
vt -0.206953 1.446211
vt -0.207186 1.336117
vt -0.205601 1.337115
vt -0.781541 1.680639
vt -0.783226 1.571779
vt -0.783123 1.681884
vt 0.032444 5.242487
vt -0.996685 1.739743
vt -0.994999 1.848602
vt -0.995103 1.738498
vt 0.177942 1.774077
vt 0.179524 1.775322
vt 0.179628 1.665217
vt 0.160285 5.253737
vt -0.013072 1.494732
vt -0.014655 1.493571
vt -0.014644 1.603678
vt -0.784809 1.573024
vt 0.032444 4.460097
vt -0.993417 1.847357
vt 0.18121 1.666462
vt 0.160493 4.460097
vt -0.016227 1.602517
vt -0.838222 1.728515
vt -0.839922 1.619667
vt -0.947304 1.815089
vt -0.949004 1.70624
vt 0.115876 1.728515
vt 0.224959 1.815089
vt 0.117577 1.619667
vt 0.160493 5.242487
vt 0.155593 1.646305
vt 0.154011 1.64506
vt 0.153907 1.755164
vt 0.226659 1.70624
vt 0.152325 1.753919
vn 0.06540301236686057 -0.11041602087823633 0.9917311875234928
vn -0.06540301236686057 -0.11041602087823633 0.9917311875234928
vn -0.2588190625409164 -0.1068820258269226 0.9599942319725542
vn 0.2588190625409164 -0.1068820258269226 0.9599942319725542
vn 0 0.9938591002356646 0.11065301115991022
vn -0.5000001136417888 -0.09582802178013086 0.8607071956245661
vn 0.5000001136417888 -0.09582802178013086 0.8607071956245661
vn -0.06540301236686057 0.11041602087823633 -0.9917311875234928
vn -0.2588190625409164 0.1068820258269226 -0.9599942319725542
vn 0.06540301236686057 0.11041602087823633 -0.9917311875234928
vn 0.2588190625409164 0.1068820258269226 -0.9599942319725542
vn -0.5000001136417888 0.09582802178013086 -0.8607071956245661
vn -0.7071066741218326 -0.07824296394083871 0.7027646761228917
vn 0.7071066741218326 -0.07824296394083871 0.7027646761228917
vn 0.5000001136417888 0.09582802178013086 -0.8607071956245661
vn -0.7071066741218326 0.07824296394083871 -0.7027646761228917
vn -0.8660251334540503 -0.05532600852571102 0.4969300765766822
vn 0.8660251334540503 -0.05532600852571102 0.4969300765766822
vn 0.7071066741218326 0.07824296394083871 -0.7027646761228917
vn -0.8660251334540503 0.05532600852571102 -0.4969300765766822
vn -0.9659257572160402 -0.028638992801633078 0.2572299353456497
vn 0.9659257572160402 -0.028638992801633078 0.2572299353456497
vn -0.9659257572160402 0.028638992801633078 -0.2572299353456497
vn 0.8660251334540503 0.05532600852571102 -0.4969300765766822
vn -0.9978589560687615 -0.0072369996813874925 0.06500099713829867
vn -0.9978589560687615 0.0072369996813874925 -0.06500099713829867
vn 0.9978589560687615 -0.0072369996813874925 0.06500099713829867
vn 0.9659257572160402 0.028638992801633078 -0.2572299353456497
vn 0.9978589560687615 0.0072369996813874925 -0.06500099713829867
vn 0 -0.9938591002356646 -0.11065301115991022
usemtl material_0_0
f 1/1/1 2/2/2 3/2/2
f 2/2/2 1/1/1 4/1/1
f 2/2/2 5/3/3 3/2/2
f 6/4/4 4/1/1 1/1/1
f 7/5/5 2/2/5 4/1/5
f 5/3/3 2/2/2 8/3/3
f 4/1/1 6/4/4 9/4/4
f 10/6/5 2/2/5 7/5/5
f 7/5/5 4/1/5 11/7/5
f 10/6/5 8/3/5 2/2/5
f 8/3/3 12/8/6 5/3/3
f 13/9/7 9/4/4 6/4/4
f 11/7/5 4/1/5 9/4/5
f 14/5/8 10/6/9 7/5/8
f 15/7/10 7/5/8 11/7/10
f 16/10/5 8/3/5 10/6/5
f 12/8/6 8/3/3 17/8/6
f 9/4/4 13/9/7 18/9/7
f 11/7/5 9/4/5 19/11/5
f 10/6/9 14/5/8 20/6/9
f 7/5/8 15/7/10 14/5/8
f 19/11/11 15/7/10 11/7/10
f 16/10/5 17/8/5 8/3/5
f 20/6/9 16/10/12 10/6/9
f 17/8/6 21/12/13 12/8/6
f 22/13/14 18/9/7 13/9/7
f 19/11/5 9/4/5 18/9/5
f 15/7/10 19/11/11 23/11/11
f 24/14/5 17/8/5 16/10/5
f 16/10/12 20/6/9 25/10/12
f 21/12/13 17/8/6 26/12/13
f 18/9/7 22/13/14 27/13/14
f 19/11/5 18/9/5 28/15/5
f 28/15/15 23/11/11 19/11/11
f 24/14/5 26/12/5 17/8/5
f 25/10/12 24/14/16 16/10/12
f 29/16/17 21/12/13 26/12/13
f 22/13/14 30/17/18 27/13/14
f 28/15/5 18/9/5 27/13/5
f 23/11/11 28/15/15 31/15/15
f 32/18/5 26/12/5 24/14/5
f 24/14/16 25/10/12 33/14/16
f 21/12/13 29/16/17 34/16/17
f 32/18/5 29/16/5 26/12/5
f 30/17/18 22/13/14 35/17/18
f 36/19/5 27/13/5 30/17/5
f 28/15/5 27/13/5 36/19/5
f 36/19/19 31/15/15 28/15/15
f 24/14/16 37/18/20 32/18/20
f 37/18/20 24/14/16 33/14/16
f 38/20/21 34/16/17 29/16/17
f 39/21/5 29/16/5 32/18/5
f 35/17/18 40/22/22 30/17/18
f 36/19/5 30/17/5 41/23/5
f 31/15/15 36/19/19 42/19/19
f 43/21/23 32/18/20 37/18/20
f 34/16/17 38/20/21 44/20/21
f 39/21/5 38/20/5 29/16/5
f 32/18/20 43/21/23 39/21/23
f 40/22/22 35/17/18 45/22/22
f 41/23/5 30/17/5 40/22/5
f 46/23/24 36/19/19 41/23/24
f 36/19/19 46/23/24 42/19/19
f 47/24/25 44/20/21 38/20/21
f 48/25/5 38/20/5 39/21/5
f 49/25/26 39/21/23 43/21/23
f 45/22/22 50/26/27 40/22/22
f 41/23/5 40/22/5 51/27/5
f 41/23/24 52/27/28 46/23/24
f 44/20/21 47/24/25 53/24/25
f 38/20/5 48/25/5 47/24/5
f 39/21/23 49/25/26 48/25/26
f 50/26/27 45/22/22 54/26/27
f 51/27/5 40/22/5 50/26/5
f 52/27/28 41/23/24 51/27/28
f 48/25/26 53/24/25 47/24/25
f 53/24/25 48/25/26 49/25/26
f 54/26/27 55/28/29 50/26/27
f 51/27/5 50/26/5 55/28/5
f 51/27/28 56/28/29 52/27/28
f 55/28/29 54/26/27 56/28/29
f 56/28/29 51/27/28 55/28/29
usemtl material_1_0
f 3/29/10 2/30/10 1/31/8
f 4/32/8 1/31/8 2/30/10
f 3/33/10 5/34/11 2/35/10
f 1/36/8 4/37/8 6/38/9
f 4/39/30 2/40/30 7/41/30
f 8/42/11 2/35/10 5/34/11
f 9/43/9 6/38/9 4/37/8
f 7/41/30 2/40/30 10/44/30
f 11/45/30 4/39/30 7/41/30
f 2/40/30 8/46/30 10/44/30
f 5/47/11 12/48/15 8/49/11
f 6/50/9 9/51/9 13/52/12
f 9/53/30 4/39/30 11/45/30
f 7/54/1 10/55/4 14/56/1
f 11/57/2 7/58/1 15/59/2
f 10/44/30 8/46/30 16/60/30
f 17/61/15 8/49/11 12/48/15
f 18/62/12 13/52/12 9/51/9
f 19/63/30 9/53/30 11/45/30
f 20/64/4 14/56/1 10/55/4
f 14/65/1 15/59/2 7/58/1
f 11/66/2 15/67/2 19/68/3
f 8/46/30 17/69/30 16/60/30
f 10/70/4 16/71/7 20/72/4
f 12/73/15 21/74/19 17/75/15
f 13/76/12 18/77/12 22/78/16
f 18/79/30 9/53/30 19/63/30
f 23/80/3 19/68/3 15/67/2
f 16/60/30 17/69/30 24/81/30
f 25/82/7 20/72/4 16/71/7
f 26/83/19 17/75/15 21/74/19
f 27/84/16 22/78/16 18/77/12
f 28/85/30 18/79/30 19/63/30
f 19/86/3 23/87/3 28/88/6
f 17/69/30 26/89/30 24/81/30
f 16/90/7 24/91/14 25/92/7
f 26/93/19 21/94/19 29/95/24
f 27/96/16 30/97/20 22/98/16
f 27/99/30 18/79/30 28/85/30
f 31/100/6 28/88/6 23/87/3
f 24/81/30 26/89/30 32/101/30
f 33/102/14 25/92/7 24/91/14
f 34/103/24 29/95/24 21/94/19
f 26/89/30 29/104/30 32/101/30
f 35/105/20 22/98/16 30/97/20
f 30/106/30 27/99/30 36/107/30
f 36/107/30 27/99/30 28/85/30
f 28/108/6 31/109/6 36/110/13
f 32/111/18 37/112/18 24/113/14
f 33/114/14 24/113/14 37/112/18
f 29/115/24 34/116/24 38/117/28
f 32/101/30 29/104/30 39/118/30
f 30/119/20 40/120/23 35/121/20
f 41/122/30 30/106/30 36/107/30
f 42/123/13 36/110/13 31/109/6
f 37/124/18 32/125/18 43/126/22
f 44/127/28 38/117/28 34/116/24
f 29/104/30 38/128/30 39/118/30
f 39/129/22 43/126/22 32/125/18
f 45/130/23 35/121/20 40/120/23
f 40/131/30 30/106/30 41/122/30
f 41/132/17 36/133/13 46/134/17
f 42/135/13 46/134/17 36/133/13
f 38/136/28 44/137/28 47/138/29
f 39/118/30 38/128/30 48/139/30
f 43/140/22 39/141/22 49/142/27
f 40/143/23 50/144/26 45/145/23
f 51/146/30 40/131/30 41/122/30
f 46/147/17 52/148/21 41/149/17
f 53/150/29 47/138/29 44/137/28
f 47/151/30 48/139/30 38/128/30
f 48/152/27 49/142/27 39/141/22
f 54/153/26 45/145/23 50/144/26
f 50/154/30 40/131/30 51/146/30
f 51/155/21 41/149/17 52/148/21
f 47/156/29 53/157/29 48/158/27
f 49/159/27 48/158/27 53/157/29
f 50/160/26 55/161/25 54/162/26
f 55/163/30 50/154/30 51/146/30
f 52/164/21 56/165/25 51/166/21
f 56/167/25 54/162/26 55/161/25
f 55/168/25 51/166/21 56/165/25
