# SSTK version 0.8.0
# 56
mtllib original-56.mtl
o mesh55/mesh55-geometry#mesh55-geometry
v -0.376414 0.002961 0.283441
v -0.377461 -0.009607 0.281233
v -0.376414 -0.009696 0.282032
v -0.377461 0.003050 0.282643
v -0.375195 0.002905 0.283943
v -0.377461 0.013908 0.185118
v -0.378264 0.003166 0.281602
v -0.375195 -0.009752 0.282534
v -0.376414 0.013997 0.184320
v -0.378264 0.013792 0.186158
v -0.378264 -0.009491 0.280193
v -0.373887 0.002886 0.284114
v -0.375195 0.014053 0.183818
v -0.378264 0.001135 0.184749
v -0.376414 0.001340 0.182910
v -0.378769 0.003301 0.280391
v -0.378769 0.013658 0.187370
v -0.373887 -0.009771 0.282705
v -0.375195 0.001396 0.182408
v -0.377461 0.001251 0.183709
v -0.378769 0.001000 0.185961
v -0.378769 -0.009356 0.278981
v -0.277853 -0.009771 0.282705
v -0.373887 0.014072 0.183647
v -0.373887 0.001415 0.182237
v -0.378941 0.003446 0.279091
v -0.378941 0.013513 0.188670
v -0.378941 0.000855 0.187261
v -0.277853 0.002886 0.284114
v -0.378941 -0.009212 0.277681
v -0.276545 -0.009752 0.282534
v -0.277853 0.014072 0.183647
v -0.277853 0.001415 0.182237
v -0.276545 0.002905 0.283943
v -0.275326 -0.009696 0.282032
v -0.276545 0.014053 0.183818
v -0.275326 0.002961 0.283441
v -0.276545 0.001396 0.182408
v -0.274279 -0.009607 0.281233
v -0.275326 0.013997 0.184320
v -0.274279 0.003050 0.282643
v -0.275326 0.001340 0.182910
v -0.273476 0.003166 0.281602
v -0.274279 0.013908 0.185118
v -0.273476 -0.009491 0.280193
v -0.274279 0.001251 0.183709
v -0.272971 0.003301 0.280391
v -0.273476 0.013792 0.186158
v -0.273476 0.001135 0.184749
v -0.272971 -0.009356 0.278981
v -0.272798 0.003446 0.279091
v -0.272971 0.013658 0.187370
v -0.272971 0.001000 0.185961
v -0.272798 -0.009212 0.277681
v -0.272798 0.013513 0.188670
v -0.272798 0.000855 0.187261
vt 1.301556 0.19609
vt 1.300968 0.197065
vt 1.302241 0.195477
vt 1.300968 0.31617
vt 1.300516 0.198335
vt 1.301556 0.317145
vt 1.300516 0.3149
vt 1.302977 0.195268
vt 1.302241 0.317758
vt 1.300232 0.199815
vt 1.300232 0.31342
vt 1.356954 0.195268
vt 1.302977 0.317967
vt 1.300136 0.201403
vt 1.300136 0.311832
vt 1.357689 0.195477
vt 1.356954 0.317967
vt 1.358374 0.19609
vt 1.357689 0.317758
vt 1.358963 0.197065
vt 1.358374 0.317145
vt 1.359414 0.198335
vt 1.358963 0.31617
vt 1.359698 0.199815
vt 1.359414 0.3149
vt 1.359795 0.201403
vt 1.359698 0.31342
vt 1.359795 0.311832
vt -0.214701 3.089935
vt -0.216289 3.090702
vt -0.213662 3.199205
vt -0.21525 3.199973
vt -0.086234 3.231418
vt -0.084644 3.230934
vt -0.086888 3.121996
vt 0.035493 4.422454
vt 0.03423 4.429362
vt 0.03423 5.273222
vt -0.369401 3.239527
vt -0.370753 3.130431
vt -0.370986 3.240526
vt -0.085298 3.121513
vt 0.036963 4.418112
vt 0.035493 5.28013
vt 0.033261 5.26422
vt -0.372338 3.131429
vt 0.033261 4.438364
vt 0.006873 3.326628
vt 0.008465 3.326463
vt 0.00665 3.217119
vt 0.036963 5.284472
vt -1.244603 3.790598
vt -1.245955 3.681502
vt -1.246189 3.791596
vt -1.311099 3.729429
vt -1.309511 3.728661
vt -1.312138 3.620159
vt -0.541053 3.340783
vt -0.542625 3.231837
vt -0.542636 3.341944
vt 0.032652 5.253737
vt 0.008241 3.216954
vt 0.038541 4.416631
vt -1.328372 3.608678
vt -1.326782 3.608195
vt -1.329026 3.499257
vt -1.247541 3.6825
vt -1.140045 3.669891
vt -1.138473 3.778837
vt -1.138462 3.66873
vt -1.31055 3.619391
vt -1.327436 3.498774
vt -0.544208 3.232998
vt 0.032652 4.448847
vt -1.13689 3.777676
vt 0.038541 3.281138
vt 0.038541 3.390659
vt 0.154395 3.281138
vt 0.038541 5.285953
vt -1.295061 3.351967
vt -1.296653 3.352132
vt -1.294838 3.461476
vt -0.71704 3.475757
vt -0.718726 3.366898
vt -0.718623 3.477002
vt 0.032444 5.242487
vt -0.997159 3.585987
vt -0.995473 3.694847
vt -0.995577 3.584742
vt 0.154395 3.390659
vt 0.154395 4.416631
vt -1.29643 3.461641
vt -0.720308 3.368143
vt 0.032444 4.460097
vt -0.993891 3.693602
vt 0.172432 3.362381
vt 0.172209 3.47189
vt 0.174023 3.362545
vt 0.154395 5.285953
vt -1.261697 3.281138
vt -1.37755 3.281138
vt -1.261697 3.390659
vt -0.803801 3.545368
vt -0.805501 3.43652
vt -0.912883 3.631942
vt -0.914583 3.523094
vt 0.1738 3.472055
vt 0.155973 4.418112
vt -1.37755 3.390659
vt 0.169254 3.518507
vt 0.1686 3.627929
vt 0.170845 3.51899
vt 0.155973 5.284472
vt -1.330554 3.316214
vt -1.330331 3.206705
vt -1.332146 3.31605
vt 0.170191 3.628412
vt 0.157444 4.422454
vt -1.331922 3.20654
vt 0.112435 3.631489
vt 0.111396 3.74076
vt 0.114023 3.632257
vt 0.157444 5.28013
vt -1.201895 3.211684
vt -1.201241 3.102262
vt -1.203486 3.211201
vt 0.112984 3.741527
vt 0.158707 4.429362
vt -1.202832 3.101779
vt 0.004964 3.780219
vt 0.00655 3.781217
vt 0.006316 3.671123
vt 0.158707 5.273222
vt -1.032945 3.187875
vt -1.031906 3.078604
vt -1.034533 3.187107
vt 0.007902 3.672121
vt 0.159676 4.438364
vt -1.033494 3.077837
vt -0.143032 3.736052
vt -0.141448 3.737213
vt -0.14146 3.627106
vt 0.159676 5.26422
vt -0.834333 3.141809
vt -0.835919 3.14081
vt -0.835685 3.250905
vt -0.139876 3.628267
vt 0.160285 4.448847
vt -0.83727 3.249906
vt -0.322394 3.620321
vt -0.320812 3.621566
vt -0.320708 3.511462
vt 0.160285 5.253737
vt -0.62218 3.274622
vt -0.623764 3.273461
vt -0.623752 3.383568
vt -0.319126 3.512707
vt 0.160493 4.460097
vt -0.625336 3.382407
vt -0.419354 3.545368
vt -0.310272 3.631942
vt -0.417654 3.43652
vt 0.160493 5.242487
vt -0.409718 3.441423
vt -0.4113 3.440178
vt -0.411403 3.550283
vt -0.308572 3.523094
vt -0.412985 3.549038
vn -0.5000001136417888 -0.09582802178013086 0.8607071956245661
vn -0.7071066741218326 -0.07824296394083871 0.7027646761228917
vn -0.2588190625409164 -0.1068820258269226 0.9599942319725542
vn 0 0.9938591002356646 0.11065301115991022
vn -0.8660251334540503 -0.05532600852571102 0.4969300765766822
vn -0.06540301236686057 -0.11041602087823633 0.9917311875234928
vn -0.7071066741218326 0.07824296394083871 -0.7027646761228917
vn -0.8660251334540503 0.05532600852571102 -0.4969300765766822
vn -0.5000001136417888 0.09582802178013086 -0.8607071956245661
vn -0.9659257572160402 -0.028638992801633078 0.2572299353456497
vn -0.2588190625409164 0.1068820258269226 -0.9599942319725542
vn -0.9659257572160402 0.028638992801633078 -0.2572299353456497
vn 0.06540301236686057 -0.11041602087823633 0.9917311875234928
vn -0.06540301236686057 0.11041602087823633 -0.9917311875234928
vn -0.9978589560687615 -0.0072369996813874925 0.06500099713829867
vn -0.9978589560687615 0.0072369996813874925 -0.06500099713829867
vn 0.2588190625409164 -0.1068820258269226 0.9599942319725542
vn 0.06540301236686057 0.11041602087823633 -0.9917311875234928
vn 0.5000001136417888 -0.09582802178013086 0.8607071956245661
vn 0.2588190625409164 0.1068820258269226 -0.9599942319725542
vn 0.7071066741218326 -0.07824296394083871 0.7027646761228917
vn 0.5000001136417888 0.09582802178013086 -0.8607071956245661
vn 0.8660251334540503 -0.05532600852571102 0.4969300765766822
vn 0.7071066741218326 0.07824296394083871 -0.7027646761228917
vn 0.9659257572160402 -0.028638992801633078 0.2572299353456497
vn 0.8660251334540503 0.05532600852571102 -0.4969300765766822
vn 0.9978589560687615 -0.0072369996813874925 0.06500099713829867
vn 0.9659257572160402 0.028638992801633078 -0.2572299353456497
vn 0.9978589560687615 0.0072369996813874925 -0.06500099713829867
vn 0 -0.9938591002356646 -0.11065301115991022
usemtl material_0_0
f 1/1/1 2/2/2 3/1/1
f 2/2/2 1/1/1 4/2/2
f 3/1/1 5/3/3 1/1/1
f 6/4/4 4/2/4 1/1/4
f 7/5/5 2/2/2 4/2/2
f 5/3/3 3/1/1 8/3/3
f 9/6/4 1/1/4 5/3/4
f 10/7/4 4/2/4 6/4/4
f 6/4/4 1/1/4 9/6/4
f 2/2/2 7/5/5 11/5/5
f 10/7/4 7/5/4 4/2/4
f 8/3/3 12/8/6 5/3/3
f 9/6/4 5/3/4 13/9/4
f 6/4/7 14/7/8 10/7/8
f 15/6/9 6/4/7 9/6/9
f 16/10/10 11/5/5 7/5/5
f 17/11/4 7/5/4 10/7/4
f 12/8/6 8/3/3 18/8/6
f 13/9/4 5/3/4 12/8/4
f 19/9/11 9/6/9 13/9/11
f 14/7/8 6/4/7 20/4/7
f 21/11/12 10/7/8 14/7/8
f 6/4/7 15/6/9 20/4/7
f 9/6/9 19/9/11 15/6/9
f 11/5/5 16/10/10 22/10/10
f 17/11/4 16/10/4 7/5/4
f 10/7/8 21/11/12 17/11/12
f 23/12/13 12/8/6 18/8/6
f 13/9/4 12/8/4 24/13/4
f 13/9/11 25/13/14 19/9/11
f 26/14/15 22/10/10 16/10/10
f 27/15/4 16/10/4 17/11/4
f 28/15/16 17/11/12 21/11/12
f 12/8/6 23/12/13 29/12/13
f 24/13/4 12/8/4 29/12/4
f 25/13/14 13/9/11 24/13/14
f 22/10/10 26/14/15 30/14/15
f 16/10/4 27/15/4 26/14/4
f 17/11/12 28/15/16 27/15/16
f 31/16/17 29/12/13 23/12/13
f 24/13/4 29/12/4 32/17/4
f 24/13/14 33/17/18 25/13/14
f 27/15/16 30/14/15 26/14/15
f 30/14/15 27/15/16 28/15/16
f 29/12/13 31/16/17 34/16/17
f 32/17/4 29/12/4 34/16/4
f 33/17/18 24/13/14 32/17/18
f 35/18/19 34/16/17 31/16/17
f 32/17/4 34/16/4 36/19/4
f 36/19/20 33/17/18 32/17/18
f 34/16/17 35/18/19 37/18/19
f 36/19/4 34/16/4 37/18/4
f 33/17/18 36/19/20 38/19/20
f 39/20/21 37/18/19 35/18/19
f 36/19/4 37/18/4 40/21/4
f 40/21/22 38/19/20 36/19/20
f 37/18/19 39/20/21 41/20/21
f 40/21/4 37/18/4 41/20/4
f 38/19/20 40/21/22 42/21/22
f 39/20/21 43/22/23 41/20/21
f 40/21/4 41/20/4 44/23/4
f 44/23/24 42/21/22 40/21/22
f 43/22/23 39/20/21 45/22/23
f 44/23/4 41/20/4 43/22/4
f 42/21/22 44/23/24 46/23/24
f 45/22/23 47/24/25 43/22/23
f 44/23/4 43/22/4 48/25/4
f 44/23/24 49/25/26 46/23/24
f 47/24/25 45/22/23 50/24/25
f 48/25/4 43/22/4 47/24/4
f 49/25/26 44/23/24 48/25/26
f 50/24/25 51/26/27 47/24/25
f 48/25/4 47/24/4 52/27/4
f 48/25/26 53/27/28 49/25/26
f 51/26/27 50/24/25 54/26/27
f 52/27/4 47/24/4 51/26/4
f 53/27/28 48/25/26 52/27/28
f 54/26/27 55/28/29 51/26/27
f 52/27/4 51/26/4 55/28/4
f 52/27/28 56/28/29 53/27/28
f 55/28/29 54/26/27 56/28/29
f 56/28/29 52/27/28 55/28/29
usemtl material_1_0
f 3/29/22 2/30/24 1/31/22
f 4/32/24 1/31/22 2/30/24
f 1/33/22 5/34/20 3/35/22
f 1/36/30 4/37/30 6/38/30
f 4/39/24 2/40/24 7/41/26
f 8/42/20 3/35/22 5/34/20
f 5/43/30 1/36/30 9/44/30
f 6/38/30 4/37/30 10/45/30
f 9/44/30 1/36/30 6/38/30
f 11/46/26 7/41/26 2/40/24
f 4/37/30 7/47/30 10/45/30
f 5/48/20 12/49/18 8/50/20
f 13/51/30 5/43/30 9/44/30
f 10/52/23 14/53/23 6/54/21
f 9/55/19 6/56/21 15/57/19
f 7/58/26 11/59/26 16/60/28
f 10/45/30 7/47/30 17/61/30
f 18/62/18 8/50/20 12/49/18
f 12/63/30 5/43/30 13/51/30
f 13/64/17 9/65/19 19/66/17
f 20/67/21 6/54/21 14/53/23
f 14/68/23 10/69/23 21/70/25
f 20/71/21 15/57/19 6/56/21
f 15/72/19 19/66/17 9/65/19
f 22/73/28 16/60/28 11/59/26
f 7/47/30 16/74/30 17/61/30
f 17/75/25 21/70/25 10/69/23
f 18/76/18 12/77/18 23/78/14
f 24/79/30 12/63/30 13/51/30
f 19/80/17 25/81/13 13/82/17
f 16/83/28 22/84/28 26/85/29
f 17/61/30 16/74/30 27/86/30
f 21/87/25 17/88/25 28/89/27
f 29/90/14 23/78/14 12/77/18
f 29/91/30 12/63/30 24/79/30
f 24/92/13 13/82/17 25/81/13
f 30/93/29 26/85/29 22/84/28
f 26/94/30 27/86/30 16/74/30
f 27/95/27 28/89/27 17/88/25
f 23/96/14 29/97/14 31/98/11
f 32/99/30 29/91/30 24/79/30
f 25/100/13 33/101/6 24/102/13
f 26/103/29 30/104/29 27/105/27
f 28/106/27 27/105/27 30/104/29
f 34/107/11 31/98/11 29/97/14
f 34/108/30 29/91/30 32/99/30
f 32/109/6 24/102/13 33/101/6
f 31/110/11 34/111/11 35/112/9
f 36/113/30 34/108/30 32/99/30
f 32/114/6 33/115/6 36/116/3
f 37/117/9 35/112/9 34/111/11
f 37/118/30 34/108/30 36/113/30
f 38/119/3 36/116/3 33/115/6
f 35/120/9 37/121/9 39/122/7
f 40/123/30 37/118/30 36/113/30
f 36/124/3 38/125/3 40/126/1
f 41/127/7 39/122/7 37/121/9
f 41/128/30 37/118/30 40/123/30
f 42/129/1 40/126/1 38/125/3
f 41/130/7 43/131/8 39/132/7
f 44/133/30 41/128/30 40/123/30
f 40/134/1 42/135/1 44/136/2
f 45/137/8 39/132/7 43/131/8
f 43/138/30 41/128/30 44/133/30
f 46/139/2 44/136/2 42/135/1
f 43/140/8 47/141/12 45/142/8
f 48/143/30 43/138/30 44/133/30
f 46/144/2 49/145/5 44/146/2
f 50/147/12 45/142/8 47/141/12
f 47/148/30 43/138/30 48/143/30
f 48/149/5 44/146/2 49/145/5
f 47/150/12 51/151/16 50/152/12
f 52/153/30 47/148/30 48/143/30
f 49/154/5 53/155/10 48/156/5
f 54/157/16 50/152/12 51/151/16
f 51/158/30 47/148/30 52/153/30
f 52/159/10 48/156/5 53/155/10
f 51/160/16 55/161/15 54/162/16
f 55/163/30 51/158/30 52/153/30
f 53/164/10 56/165/15 52/166/10
f 56/167/15 54/162/16 55/161/15
f 55/168/15 52/166/10 56/165/15
