# SSTK version 0.8.0
# 37
mtllib original-37.mtl
o mesh36/mesh36-geometry#mesh36-geometry
v 0.136273 0.040358 -0.052452
v 0.232307 0.027701 -0.053861
v 0.136273 0.027701 -0.053861
v 0.232307 0.040358 -0.052452
v 0.134965 0.040339 -0.052281
v 0.232307 0.029173 0.048015
v 0.233615 0.040339 -0.052281
v 0.134965 0.027682 -0.053690
v 0.136273 0.029173 0.048015
v 0.233615 0.029192 0.047844
v 0.233615 0.027682 -0.053690
v 0.133746 0.040283 -0.051779
v 0.134965 0.029192 0.047844
v 0.232307 0.016515 0.046606
v 0.233615 0.016534 0.046435
v 0.234834 0.040283 -0.051779
v 0.234834 0.029248 0.047342
v 0.133746 0.027626 -0.053188
v 0.134965 0.016534 0.046435
v 0.136273 0.016515 0.046606
v 0.234834 0.016590 0.045933
v 0.234834 0.027626 -0.053188
v 0.132699 0.040195 -0.050981
v 0.133746 0.029248 0.047342
v 0.133746 0.016590 0.045933
v 0.235881 0.040195 -0.050981
v 0.235881 0.029337 0.046544
v 0.235881 0.016679 0.045135
v 0.132699 0.027537 -0.052390
v 0.235881 0.027537 -0.052390
v 0.131896 0.027421 -0.051350
v 0.132699 0.029337 0.046544
v 0.132699 0.016679 0.045135
v 0.236684 0.027421 -0.051350
v 0.236684 0.029452 0.045504
v 0.131896 0.040079 -0.049940
v 0.236684 0.040079 -0.049940
v 0.236684 0.016795 0.044095
v 0.131391 0.027287 -0.050138
v 0.131896 0.029452 0.045504
v 0.237189 0.027287 -0.050138
v 0.237189 0.029587 0.044292
v 0.131391 0.039944 -0.048729
v 0.131896 0.016795 0.044095
v 0.237189 0.039944 -0.048729
v 0.237189 0.016930 0.042883
v 0.131219 0.027142 -0.048838
v 0.131391 0.029587 0.044292
v 0.237361 0.027142 -0.048838
v 0.237361 0.029732 0.042992
v 0.131219 0.039799 -0.047429
v 0.131391 0.016930 0.042883
v 0.237361 0.039799 -0.047429
v 0.237361 0.017075 0.041583
v 0.131219 0.017075 0.041583
v 0.131219 0.029732 0.042992
vt 1.58972 0.606311
vt 1.643697 0.606311
vt 1.588984 0.606102
vt 1.643697 0.483611
vt 1.644432 0.606102
vt 1.58972 0.483611
vt 1.644432 0.48382
vt 1.588299 0.605489
vt 1.588984 0.48382
vt 1.645117 0.605489
vt 1.645117 0.484433
vt 1.587711 0.604514
vt 1.588299 0.484433
vt 1.645706 0.604514
vt 1.645706 0.485408
vt 1.587259 0.603243
vt 1.587711 0.485408
vt 1.646157 0.603243
vt 1.646157 0.486679
vt 1.586976 0.601764
vt 1.587259 0.486679
vt 1.646441 0.601764
vt 1.646441 0.488158
vt 1.586879 0.600176
vt 1.586976 0.488158
vt 1.646538 0.600176
vt 1.646538 0.489746
vt 1.586879 0.489746
vt -2.492594 1.238231
vt -2.608448 1.238231
vt -2.492594 1.347752
vt -2.608448 1.347752
vt -2.5594 1.485813
vt -2.557809 1.485648
vt -2.559624 1.376304
vt 0.154395 5.285953
vt 0.154395 4.416631
vt 0.038541 5.285953
vt -2.518719 1.213978
vt -2.518496 1.104469
vt -2.520311 1.213814
vt -2.558032 1.376139
vt 0.038541 4.416631
vt 0.036963 5.284472
vt 0.155973 4.418112
vt -2.520087 1.104304
vt 0.155973 5.284472
vt -2.621478 1.771589
vt -2.619887 1.771106
vt -2.622132 1.662167
vt 0.036963 4.418112
vt 0.154395 1.347752
vt 0.154395 1.238231
vt 0.038541 1.347752
vt 0.205873 1.496227
vt 0.206097 1.386717
vt 0.204282 1.496062
vt -2.275857 1.029518
vt -2.275203 0.920096
vt -2.277447 1.029035
vt 0.157444 4.422454
vt -2.620541 1.661684
vt 0.035493 5.28013
vt -0.03586 1.224392
vt -0.034268 1.224227
vt -0.036083 1.114883
vt 0.038541 1.238231
vt 0.204505 1.386553
vt 0.231463 1.681418
vt 0.230809 1.79084
vt 0.233053 1.681901
vt -2.276793 0.919613
vt 0.157444 5.28013
vt 0.232399 1.791323
vt -2.587761 2.005985
vt -2.586173 2.005218
vt -2.5888 1.896715
vt 0.035493 4.422454
vt -0.034491 1.114718
vt -0.242233 0.939347
vt -0.243824 0.93983
vt -0.241579 1.048769
vt -1.961482 0.9937
vt -1.960443 0.88443
vt -1.96307 0.992933
vt 0.158707 4.429362
vt 0.1582 1.908046
vt 0.157161 2.017316
vt 0.159788 1.908813
vt -2.587212 1.895948
vt 0.03423 5.273222
vt -0.24317 1.049252
vt -1.962031 0.883663
vt 0.158707 5.273222
vt 0.158749 2.018083
vt -2.46268 2.017188
vt -2.461328 2.126284
vt -2.461094 2.016189
vt 0.03423 4.429362
vt -0.517062 0.895761
vt -0.51865 0.896528
vt -0.516023 1.005031
vt -1.596508 1.006515
vt -1.598094 1.005517
vt -1.59786 1.115612
vt 0.159676 4.438364
vt -0.010795 2.114906
vt -0.009209 2.115905
vt -0.009443 2.00581
vt -2.459742 2.125285
vt 0.033261 5.26422
vt -0.517611 1.005799
vt -1.599446 1.114613
vt 0.159676 5.26422
vt -0.007857 2.006809
vt -2.253161 1.991894
vt -2.251589 2.10084
vt -2.251577 1.990733
vt 0.033261 4.438364
vt -0.838123 1.104234
vt -0.839475 0.995138
vt -0.839709 1.105232
vt -1.208534 1.253049
vt -1.210118 1.251888
vt -1.210106 1.361995
vt 0.160285 4.448847
vt -0.260814 2.058056
vt -0.259231 2.059217
vt -0.259242 1.94911
vt -2.250005 2.099679
vt 0.032652 5.253737
vt -0.84106 0.996136
vt -1.21169 1.360834
vt 0.160285 5.253737
vt -0.257659 1.950271
vt -1.974873 1.828135
vt -1.973187 1.936994
vt -1.973291 1.82689
vt 0.032652 4.448847
vt -1.185596 1.31921
vt -1.187169 1.210264
vt -1.18718 1.320371
vt -0.822595 1.557913
vt -0.824177 1.556668
vt -0.824281 1.666772
vt 0.160493 4.460097
vt -0.575577 1.862469
vt -0.573995 1.863714
vt -0.573891 1.753609
vt -1.971605 1.935749
vt 0.032444 5.242487
vt -1.188752 1.211425
vt -0.825863 1.665527
vt 0.160493 5.242487
vt -0.572309 1.754854
vt -1.814858 1.70624
vt -1.813158 1.815089
vt -1.705776 1.619667
vt 0.032444 4.460097
vt -1.53506 1.592247
vt -1.536746 1.483387
vt -1.536642 1.593492
vt -0.639195 1.70624
vt -0.748277 1.619667
vt -0.640895 1.815089
vt -0.749977 1.728515
vt -1.704076 1.728515
vt -1.538328 1.484632
vn -0.06540301236686057 0.11041602087823633 -0.9917311875234928
vn 0.06540301236686057 0.11041602087823633 -0.9917311875234928
vn -0.2588190625409164 0.1068820258269226 -0.9599942319725542
vn 0 0.9938591002356646 0.11065301115991022
vn 0.2588190625409164 0.1068820258269226 -0.9599942319725542
vn -0.5000001136417888 0.09582802178013086 -0.8607071956245661
vn -0.06540301236686057 -0.11041602087823633 0.9917311875234928
vn 0.06540301236686057 -0.11041602087823633 0.9917311875234928
vn 0.2588190625409164 -0.1068820258269226 0.9599942319725542
vn 0.5000001136417888 0.09582802178013086 -0.8607071956245661
vn -0.2588190625409164 -0.1068820258269226 0.9599942319725542
vn 0.5000001136417888 -0.09582802178013086 0.8607071956245661
vn -0.7071066741218326 0.07824296394083871 -0.7027646761228917
vn -0.5000001136417888 -0.09582802178013086 0.8607071956245661
vn 0.7071066741218326 0.07824296394083871 -0.7027646761228917
vn 0.7071066741218326 -0.07824296394083871 0.7027646761228917
vn -0.8660251334540503 0.05532600852571102 -0.4969300765766822
vn -0.7071066741218326 -0.07824296394083871 0.7027646761228917
vn 0.8660251334540503 0.05532600852571102 -0.4969300765766822
vn 0.8660251334540503 -0.05532600852571102 0.4969300765766822
vn -0.9659257572160402 0.028638992801633078 -0.2572299353456497
vn -0.8660251334540503 -0.05532600852571102 0.4969300765766822
vn 0.9659257572160402 0.028638992801633078 -0.2572299353456497
vn 0.9659257572160402 -0.028638992801633078 0.2572299353456497
vn -0.9978589560687615 0.0072369996813874925 -0.06500099713829867
vn -0.9659257572160402 -0.028638992801633078 0.2572299353456497
vn 0.9978589560687615 0.0072369996813874925 -0.06500099713829867
vn 0.9978589560687615 -0.0072369996813874925 0.06500099713829867
vn -0.9978589560687615 -0.0072369996813874925 0.06500099713829867
vn 0 -0.9938591002356646 -0.11065301115991022
usemtl material_0_0
f 1/1/1 2/2/2 3/1/1
f 2/2/2 1/1/1 4/2/2
f 3/1/1 5/3/3 1/1/1
f 1/1/4 6/4/4 4/2/4
f 7/5/5 2/2/2 4/2/2
f 5/3/3 3/1/1 8/3/3
f 5/3/4 9/6/4 1/1/4
f 1/1/4 9/6/4 6/4/4
f 4/2/4 6/4/4 10/7/4
f 2/2/2 7/5/5 11/5/5
f 4/2/4 10/7/4 7/5/4
f 8/3/3 12/8/6 5/3/3
f 5/3/4 13/9/4 9/6/4
f 9/6/7 14/4/8 6/4/8
f 6/4/8 15/7/9 10/7/9
f 16/10/10 11/5/5 7/5/5
f 7/5/4 10/7/4 17/11/4
f 12/8/6 8/3/3 18/8/6
f 12/8/4 13/9/4 5/3/4
f 19/9/11 9/6/7 13/9/11
f 14/4/8 9/6/7 20/6/7
f 15/7/9 6/4/8 14/4/8
f 21/11/12 10/7/9 15/7/9
f 11/5/5 16/10/10 22/10/10
f 7/5/4 17/11/4 16/10/4
f 10/7/9 21/11/12 17/11/12
f 18/8/6 23/12/13 12/8/6
f 12/8/4 24/13/4 13/9/4
f 9/6/7 19/9/11 20/6/7
f 13/9/11 25/13/14 19/9/11
f 26/14/15 22/10/10 16/10/10
f 16/10/4 17/11/4 27/15/4
f 28/15/16 17/11/12 21/11/12
f 23/12/13 18/8/6 29/12/13
f 23/12/4 24/13/4 12/8/4
f 25/13/14 13/9/11 24/13/14
f 22/10/10 26/14/15 30/14/15
f 16/10/4 27/15/4 26/14/4
f 17/11/12 28/15/16 27/15/16
f 31/16/17 23/12/13 29/12/13
f 23/12/4 32/17/4 24/13/4
f 24/13/14 33/17/18 25/13/14
f 26/14/15 34/18/19 30/14/15
f 26/14/4 27/15/4 35/19/4
f 28/15/16 35/19/20 27/15/16
f 23/12/13 31/16/17 36/16/17
f 36/16/4 32/17/4 23/12/4
f 33/17/18 24/13/14 32/17/18
f 34/18/19 26/14/15 37/18/19
f 26/14/4 35/19/4 37/18/4
f 35/19/20 28/15/16 38/19/20
f 39/20/21 36/16/17 31/16/17
f 36/16/4 40/21/4 32/17/4
f 40/21/22 33/17/18 32/17/18
f 37/18/19 41/22/23 34/18/19
f 37/18/4 35/19/4 42/23/4
f 38/19/20 42/23/24 35/19/20
f 36/16/17 39/20/21 43/20/21
f 43/20/4 40/21/4 36/16/4
f 33/17/18 40/21/22 44/21/22
f 41/22/23 37/18/19 45/22/23
f 37/18/4 42/23/4 45/22/4
f 42/23/24 38/19/20 46/23/24
f 47/24/25 43/20/21 39/20/21
f 43/20/4 48/25/4 40/21/4
f 48/25/26 44/21/22 40/21/22
f 45/22/23 49/26/27 41/22/23
f 45/22/4 42/23/4 50/27/4
f 46/23/24 50/27/28 42/23/24
f 43/20/21 47/24/25 51/24/25
f 51/24/4 48/25/4 43/20/4
f 44/21/22 48/25/26 52/25/26
f 49/26/27 45/22/23 53/26/27
f 45/22/4 50/27/4 53/26/4
f 50/27/28 46/23/24 54/27/28
f 55/28/29 51/24/25 47/24/25
f 48/25/4 51/24/4 56/28/4
f 56/28/29 52/25/26 48/25/26
f 53/26/27 54/27/28 49/26/27
f 54/27/28 53/26/27 50/27/28
f 51/24/25 55/28/29 56/28/29
f 52/25/26 56/28/29 55/28/29
usemtl material_1_0
f 3/29/8 2/30/7 1/31/8
f 4/32/7 1/31/8 2/30/7
f 1/33/8 5/34/9 3/35/8
f 4/36/30 6/37/30 1/38/30
f 4/39/7 2/40/7 7/41/11
f 8/42/9 3/35/8 5/34/9
f 1/38/30 9/43/30 5/44/30
f 6/37/30 9/43/30 1/38/30
f 10/45/30 6/37/30 4/36/30
f 11/46/11 7/41/11 2/40/7
f 7/47/30 10/45/30 4/36/30
f 5/48/9 12/49/12 8/50/9
f 9/43/30 13/51/30 5/44/30
f 6/52/1 14/53/1 9/54/2
f 10/55/3 15/56/3 6/57/1
f 7/58/11 11/59/11 16/60/14
f 17/61/30 10/45/30 7/47/30
f 18/62/12 8/50/9 12/49/12
f 5/44/30 13/51/30 12/63/30
f 13/64/5 9/65/2 19/66/5
f 20/67/2 9/54/2 14/53/1
f 14/68/1 6/57/1 15/56/3
f 15/69/3 10/70/3 21/71/6
f 22/72/14 16/60/14 11/59/11
f 16/73/30 17/61/30 7/47/30
f 17/74/6 21/71/6 10/70/3
f 12/75/12 23/76/16 18/77/12
f 13/51/30 24/78/30 12/63/30
f 20/79/2 19/66/5 9/65/2
f 19/80/5 25/81/10 13/82/5
f 16/83/14 22/84/14 26/85/18
f 27/86/30 17/61/30 16/73/30
f 21/87/6 17/88/6 28/89/13
f 29/90/16 18/77/12 23/76/16
f 12/63/30 24/78/30 23/91/30
f 24/92/10 13/82/5 25/81/10
f 30/93/18 26/85/18 22/84/14
f 26/94/30 27/86/30 16/73/30
f 27/95/13 28/89/13 17/88/6
f 29/96/16 23/97/16 31/98/20
f 24/78/30 32/99/30 23/91/30
f 25/100/10 33/101/15 24/102/10
f 30/103/18 34/104/22 26/105/18
f 35/106/30 27/86/30 26/94/30
f 27/107/13 35/108/17 28/109/13
f 36/110/20 31/98/20 23/97/16
f 23/91/30 32/99/30 36/111/30
f 32/112/15 24/102/10 33/101/15
f 37/113/22 26/105/18 34/104/22
f 37/114/30 35/106/30 26/94/30
f 38/115/17 28/109/13 35/108/17
f 31/116/20 36/117/20 39/118/24
f 32/99/30 40/119/30 36/111/30
f 32/120/15 33/121/15 40/122/19
f 34/123/22 41/124/26 37/125/22
f 42/126/30 35/106/30 37/114/30
f 35/127/17 42/128/21 38/129/17
f 43/130/24 39/118/24 36/117/20
f 36/111/30 40/119/30 43/131/30
f 44/132/19 40/122/19 33/121/15
f 45/133/26 37/125/22 41/124/26
f 45/134/30 42/126/30 37/114/30
f 46/135/21 38/129/17 42/128/21
f 39/136/24 43/137/24 47/138/28
f 40/119/30 48/139/30 43/131/30
f 40/140/19 44/141/19 48/142/23
f 41/143/26 49/144/29 45/145/26
f 50/146/30 42/126/30 45/134/30
f 42/147/21 50/148/25 46/149/21
f 51/150/28 47/138/28 43/137/24
f 43/131/30 48/139/30 51/151/30
f 52/152/23 48/142/23 44/141/19
f 53/153/29 45/145/26 49/144/29
f 53/154/30 50/146/30 45/134/30
f 54/155/25 46/149/21 50/148/25
f 47/156/28 51/157/28 55/158/27
f 56/159/30 51/151/30 48/139/30
f 48/160/23 52/161/23 56/162/27
f 49/163/29 54/164/25 53/165/29
f 50/166/25 53/165/29 54/164/25
f 56/167/27 55/158/27 51/157/28
f 55/168/27 56/162/27 52/161/23
