# SSTK version 0.8.0
# 7
mtllib original-7.mtl
o mesh6/mesh6-geometry#mesh6-geometry
v 0.717693 0.447579 0.006864
v 0.732094 0.449485 0.006864
v 0.725093 0.447111 0.006864
v 0.711055 0.450854 0.006864
v 0.737657 0.454355 0.006864
v 0.706186 0.456417 0.006864
v 0.740933 0.460993 0.006864
v 0.703794 0.463436 0.006864
v 0.741418 0.468392 0.006864
v 0.704279 0.470819 0.006864
v 0.739044 0.475394 0.006864
v 0.707555 0.477456 0.006864
v 0.734156 0.480957 0.006864
v 0.713118 0.482343 0.006864
v 0.727519 0.484232 0.006864
v 0.720136 0.484717 0.006864
vn 0 0 -1
vn 0 0 1
usemtl material_0_0
f 1//1 2//1 3//1
f 2//1 1//1 4//1
f 2//1 4//1 5//1
f 5//1 4//1 6//1
f 5//1 6//1 7//1
f 7//1 6//1 8//1
f 7//1 8//1 9//1
f 9//1 8//1 10//1
f 9//1 10//1 11//1
f 11//1 10//1 12//1
f 11//1 12//1 13//1
f 13//1 12//1 14//1
f 13//1 14//1 15//1
f 15//1 14//1 16//1
usemtl material_1_0
f 3//2 2//2 1//2
f 4//2 1//2 2//2
f 5//2 4//2 2//2
f 6//2 4//2 5//2
f 7//2 6//2 5//2
f 8//2 6//2 7//2
f 9//2 8//2 7//2
f 10//2 8//2 9//2
f 11//2 10//2 9//2
f 12//2 10//2 11//2
f 13//2 12//2 11//2
f 14//2 12//2 13//2
f 15//2 14//2 13//2
f 16//2 14//2 15//2
