# SSTK version 0.8.0
# 17
mtllib original-17.mtl
o frame/mesh16/mesh16-geometry#mesh16-geometry
v 0.160808 0.941054 0.112040
v -0.018854 0.958748 -0.106284
v -0.018854 0.958748 0.112040
v 0.160808 0.941054 -0.106284
v -0.198515 0.941054 -0.106284
v 0.167497 0.974674 0.112040
v 0.333571 0.888647 0.112040
v 0.167497 0.974674 -0.106284
v -0.198515 0.941054 0.112040
v -0.205204 0.974674 -0.106284
v -0.018854 0.993027 0.112040
v 0.346690 0.920309 0.112040
v 0.333571 0.888647 -0.106284
v -0.018854 0.993027 -0.106284
v 0.346690 0.920309 -0.106284
v -0.371278 0.888647 -0.106284
v -0.205204 0.974674 0.112040
v -0.384397 0.920309 -0.106284
v 0.492783 0.803539 0.112040
v 0.511829 0.832047 0.112040
v -0.371278 0.888647 0.112040
v -0.384397 0.920309 0.112040
v 0.511829 0.832047 -0.106284
v 0.492783 0.803539 -0.106284
v -0.530490 0.803539 -0.106284
v -0.549536 0.832047 -0.106284
v -0.549536 0.832047 0.112040
v 0.632342 0.689022 0.112040
v 0.656570 0.713249 0.112040
v 0.656570 0.713249 -0.106284
v -0.530490 0.803539 0.112040
v 0.632342 0.689022 -0.106284
v -0.670049 0.689022 -0.106284
v -0.694277 0.713249 -0.106284
v -0.694277 0.713249 0.112040
v 0.746859 0.549463 -0.106284
v 0.775367 0.568508 0.112040
v -0.670049 0.689022 0.112040
v 0.746859 0.549463 0.112040
v 0.775367 0.568508 -0.106284
v -0.784567 0.549463 0.112040
v -0.813075 0.568508 -0.106284
v 0.831968 0.390251 -0.106284
v 0.863630 0.403370 -0.106284
v 0.863630 0.403370 0.112040
v -0.784567 0.549463 -0.106284
v -0.813075 0.568508 0.112040
v 0.831968 0.390251 0.112040
v -0.869675 0.390251 0.112040
v -0.901337 0.403370 0.112040
v -0.901337 0.403370 -0.106284
v 0.884374 0.217487 -0.106284
v 0.917994 0.224177 -0.106284
v 0.917994 0.224177 0.112040
v -0.869675 0.390251 -0.106284
v 0.884374 0.217487 0.112040
v -0.922081 0.217487 0.112040
v -0.955701 0.224177 0.112040
v -0.955701 0.224177 -0.106284
v 0.902068 0.037826 -0.106284
v 0.936347 0.037826 0.112040
v -0.922081 0.217487 -0.106284
v 0.902068 0.037826 0.112040
v 0.936347 0.037826 -0.106284
v -0.939775 0.037826 0.112040
v -0.974054 0.037826 -0.106284
v 0.884374 -0.141835 -0.106284
v 0.917994 -0.148524 0.112040
v 0.884374 -0.141835 0.112040
v -0.939775 0.037826 -0.106284
v -0.974054 0.037826 0.112040
v 0.917994 -0.148524 -0.106284
v -0.922081 -0.141835 0.112040
v -0.955701 -0.148524 -0.106284
v -0.922081 -0.141835 -0.106284
v 0.831968 -0.314599 -0.106284
v 0.863630 -0.327718 0.112040
v 0.831968 -0.314599 0.112040
v -0.955701 -0.148524 0.112040
v 0.863630 -0.327718 -0.106284
v -0.869675 -0.314599 0.112040
v -0.901337 -0.327718 -0.106284
v -0.869675 -0.314599 -0.106284
v 0.746859 -0.473810 -0.106284
v 0.775367 -0.492856 0.112040
v 0.746859 -0.473810 0.112040
v -0.901337 -0.327718 0.112040
v 0.775367 -0.492856 -0.106284
v -0.784567 -0.473810 0.112040
v -0.813075 -0.492856 -0.106284
v -0.784567 -0.473810 -0.106284
v 0.632342 -0.613370 -0.106284
v 0.656570 -0.637597 0.112040
v 0.632342 -0.613370 0.112040
v -0.813075 -0.492856 0.112040
v 0.656570 -0.637597 -0.106284
v -0.670049 -0.613370 0.112040
v -0.694277 -0.637597 -0.106284
v -0.670049 -0.613370 -0.106284
v 0.492783 -0.727887 0.112040
v 0.492783 -0.727887 -0.106284
v 0.511829 -0.756395 -0.106284
v -0.694277 -0.637597 0.112040
v 0.511829 -0.756395 0.112040
v -0.530490 -0.727887 -0.106284
v -0.530490 -0.727887 0.112040
v -0.549536 -0.756395 0.112040
v 0.333571 -0.812995 0.112040
v 0.333571 -0.812995 -0.106284
v 0.346690 -0.844657 -0.106284
v -0.549536 -0.756395 -0.106284
v 0.346690 -0.844657 0.112040
v -0.371278 -0.812995 -0.106284
v -0.371278 -0.812995 0.112040
v -0.384397 -0.844657 0.112040
v 0.160808 -0.865401 0.112040
v 0.160808 -0.865401 -0.106284
v 0.167497 -0.899022 -0.106284
v -0.384397 -0.844657 -0.106284
v 0.167497 -0.899022 0.112040
v -0.198515 -0.865401 -0.106284
v -0.198515 -0.865401 0.112040
v -0.205204 -0.899022 0.112040
v -0.018854 -0.883095 0.112040
v -0.018854 -0.883095 -0.106284
v -0.018854 -0.917374 -0.106284
v -0.205204 -0.899022 -0.106284
v -0.018854 -0.917374 0.112040
vn 0.19508506486374638 0.9807863261012093 0
vn 0 1 0
vn 0 -1 0
vn -0.19508506486374638 -0.9807863261012093 0
vn -0.19508506486374638 0.9807863261012093 0
vn 0.19508506486374638 -0.9807863261012093 0
vn 0 0 -1
vn 0 0 1
vn 0.38269817616883134 0.9238734252899855 0
vn -0.38269817616883134 -0.9238734252899855 0
vn -0.38269817616883134 0.9238734252899855 0
vn 0.38269817616883134 -0.9238734252899855 0
vn -0.19510391572439395 -0.9807825763486056 0
vn 0.19510391572439395 0.9807825763486056 0
vn -0.382686165802644 -0.9238784002796424 0
vn 0.382686165802644 0.9238784002796424 0
vn 0.555557209797053 0.8314783139941254 0
vn -0.555557209797053 -0.8314783139941254 0
vn 0.19510391572439395 -0.9807825763486056 0
vn -0.19510391572439395 0.9807825763486056 0
vn 0.382686165802644 -0.9238784002796424 0
vn -0.382686165802644 0.9238784002796424 0
vn -0.5555788865127458 -0.831463830158148 0
vn 0.5555788865127458 0.831463830158148 0
vn -0.555557209797053 0.8314783139941254 0
vn 0.555557209797053 -0.8314783139941254 0
vn 0.5555788865127458 -0.831463830158148 0
vn -0.5555788865127458 0.831463830158148 0
vn 0.7071067811865474 0.7071067811865476 0
vn -0.7071067811865474 -0.7071067811865476 0
vn -0.7071067811865474 0.7071067811865476 0
vn 0.7071067811865474 -0.7071067811865476 0
vn 0.8314783139941252 0.5555572097970534 0
vn -0.8314783139941252 -0.5555572097970534 0
vn -0.831463830158148 -0.555578886512746 0
vn 0.831463830158148 0.555578886512746 0
vn -0.8314783139941252 0.5555572097970534 0
vn 0.8314783139941252 -0.5555572097970534 0
vn 0.831463830158148 -0.555578886512746 0
vn -0.831463830158148 0.555578886512746 0
vn 0.9238734252899853 0.38269817616883156 0
vn -0.9238734252899853 -0.38269817616883156 0
vn -0.9238784002796424 -0.38268616580264425 0
vn 0.9238784002796424 0.38268616580264425 0
vn -0.9238734252899853 0.38269817616883156 0
vn 0.9238734252899853 -0.38269817616883156 0
vn 0.9238784002796424 -0.38268616580264425 0
vn -0.9238784002796424 0.38268616580264425 0
vn 0.9807863261012093 0.1950850648637465 0
vn -0.9807863261012093 -0.1950850648637465 0
vn -0.9807825763486057 -0.19510391572439412 0
vn 0.9807825763486057 0.19510391572439412 0
vn -0.9807863261012093 0.1950850648637465 0
vn 0.9807863261012093 -0.1950850648637465 0
vn 0.9807825763486057 -0.19510391572439412 0
vn -0.9807825763486057 0.19510391572439412 0
vn 1 0 0
vn -1 0 0
usemtl material_0_0
f 1//1 2//2 3//2
f 2//2 1//1 4//1
f 3//3 2//3 1//4
f 4//4 1//4 2//3
f 5//5 3//2 2//2
f 2//3 3//3 5//6
f 3//7 6//7 1//7
f 1//8 6//8 3//8
f 7//9 4//1 1//1
f 1//4 4//4 7//10
f 8//8 2//8 4//8
f 4//7 2//7 8//7
f 3//2 5//5 9//5
f 9//6 5//6 3//3
f 2//8 10//8 5//8
f 5//7 10//7 2//7
f 6//7 3//7 11//7
f 11//8 3//8 6//8
f 12//7 1//7 6//7
f 6//8 1//8 12//8
f 4//1 7//9 13//9
f 13//10 7//10 4//4
f 1//7 12//7 7//7
f 7//8 12//8 1//8
f 2//8 8//8 14//8
f 14//7 8//7 2//7
f 4//8 15//8 8//8
f 8//7 15//7 4//7
f 16//11 9//5 5//5
f 5//6 9//6 16//12
f 17//7 3//7 9//7
f 9//8 3//8 17//8
f 10//8 2//8 14//8
f 14//7 2//7 10//7
f 18//8 5//8 10//8
f 10//7 5//7 18//7
f 3//7 17//7 11//7
f 11//8 17//8 3//8
f 11//3 8//13 6//13
f 6//14 8//14 11//2
f 6//13 15//15 12//15
f 12//16 15//16 6//14
f 19//17 13//9 7//9
f 7//10 13//10 19//18
f 15//8 4//8 13//8
f 13//7 4//7 15//7
f 20//7 7//7 12//7
f 12//8 7//8 20//8
f 8//13 11//3 14//3
f 14//2 11//2 8//14
f 15//15 6//13 8//13
f 8//14 6//14 15//16
f 9//5 16//11 21//11
f 21//12 16//12 9//6
f 5//8 18//8 16//8
f 16//7 18//7 5//7
f 9//7 22//7 17//7
f 17//8 22//8 9//8
f 14//3 17//19 10//19
f 10//20 17//20 14//2
f 10//19 22//21 18//21
f 18//22 22//22 10//20
f 17//19 14//3 11//3
f 11//2 14//2 17//20
f 23//23 12//15 15//15
f 15//16 12//16 23//24
f 13//9 19//17 24//17
f 24//18 19//18 13//10
f 7//7 20//7 19//7
f 19//8 20//8 7//8
f 13//8 23//8 15//8
f 15//7 23//7 13//7
f 12//15 23//23 20//23
f 20//24 23//24 12//16
f 25//25 21//11 16//11
f 16//12 21//12 25//26
f 22//7 9//7 21//7
f 21//8 9//8 22//8
f 26//8 16//8 18//8
f 18//7 16//7 26//7
f 22//21 10//19 17//19
f 17//20 10//20 22//22
f 27//27 18//21 22//21
f 22//22 18//22 27//28
f 28//29 24//17 19//17
f 19//18 24//18 28//30
f 23//8 13//8 24//8
f 24//7 13//7 23//7
f 29//7 19//7 20//7
f 20//8 19//8 29//8
f 30//30 20//23 23//23
f 23//24 20//24 30//29
f 21//11 25//25 31//25
f 31//26 25//26 21//12
f 16//8 26//8 25//8
f 25//7 26//7 16//7
f 21//7 27//7 22//7
f 22//8 27//8 21//8
f 18//21 27//27 26//27
f 26//28 27//28 18//22
f 24//17 28//29 32//29
f 32//30 28//30 24//18
f 19//7 29//7 28//7
f 28//8 29//8 19//8
f 24//8 30//8 23//8
f 23//7 30//7 24//7
f 20//23 30//30 29//30
f 29//29 30//29 20//24
f 33//31 31//25 25//25
f 25//26 31//26 33//32
f 27//7 21//7 31//7
f 31//8 21//8 27//8
f 34//8 25//8 26//8
f 26//7 25//7 34//7
f 35//32 26//27 27//27
f 27//28 26//28 35//31
f 28//29 36//33 32//29
f 32//30 36//34 28//30
f 30//8 24//8 32//8
f 32//7 24//7 30//7
f 37//7 28//7 29//7
f 29//8 28//8 37//8
f 30//30 37//35 29//30
f 29//29 37//36 30//29
f 31//25 33//31 38//31
f 38//32 33//32 31//26
f 25//8 34//8 33//8
f 33//7 34//7 25//7
f 31//7 35//7 27//7
f 27//8 35//8 31//8
f 26//27 35//32 34//32
f 34//31 35//31 26//28
f 36//33 28//29 39//33
f 39//34 28//30 36//34
f 40//8 32//8 36//8
f 36//7 32//7 40//7
f 32//8 40//8 30//8
f 30//7 40//7 32//7
f 28//7 37//7 39//7
f 39//8 37//8 28//8
f 37//35 30//30 40//35
f 40//36 30//29 37//36
f 33//31 41//37 38//31
f 38//32 41//38 33//32
f 35//7 31//7 38//7
f 38//8 31//8 35//8
f 42//8 33//8 34//8
f 34//7 33//7 42//7
f 35//32 42//39 34//32
f 34//31 42//40 35//31
f 39//33 43//41 36//33
f 36//34 43//42 39//34
f 36//8 44//8 40//8
f 40//7 44//7 36//7
f 45//7 39//7 37//7
f 37//8 39//8 45//8
f 40//35 45//43 37//35
f 37//36 45//44 40//36
f 41//37 33//31 46//37
f 46//38 33//32 41//38
f 47//7 38//7 41//7
f 41//8 38//8 47//8
f 38//7 47//7 35//7
f 35//8 47//8 38//8
f 33//8 42//8 46//8
f 46//7 42//7 33//7
f 42//39 35//32 47//39
f 47//40 35//31 42//40
f 43//41 39//33 48//41
f 48//42 39//34 43//42
f 44//8 36//8 43//8
f 43//7 36//7 44//7
f 45//43 40//35 44//43
f 44//44 40//36 45//44
f 39//7 45//7 48//7
f 48//8 45//8 39//8
f 46//37 49//45 41//37
f 41//38 49//46 46//38
f 41//7 50//7 47//7
f 47//8 50//8 41//8
f 51//8 46//8 42//8
f 42//7 46//7 51//7
f 47//39 51//47 42//39
f 42//40 51//48 47//40
f 48//41 52//49 43//41
f 43//42 52//50 48//42
f 43//8 53//8 44//8
f 44//7 53//7 43//7
f 44//43 54//51 45//43
f 45//44 54//52 44//44
f 54//7 48//7 45//7
f 45//8 48//8 54//8
f 49//45 46//37 55//45
f 55//46 46//38 49//46
f 50//7 41//7 49//7
f 49//8 41//8 50//8
f 51//47 47//39 50//47
f 50//48 47//40 51//48
f 46//8 51//8 55//8
f 55//7 51//7 46//7
f 52//49 48//41 56//49
f 56//50 48//42 52//50
f 53//8 43//8 52//8
f 52//7 43//7 53//7
f 54//51 44//43 53//51
f 53//52 44//44 54//52
f 48//7 54//7 56//7
f 56//8 54//8 48//8
f 55//45 57//53 49//45
f 49//46 57//54 55//46
f 49//7 58//7 50//7
f 50//8 58//8 49//8
f 50//47 59//55 51//47
f 51//48 59//56 50//48
f 59//8 55//8 51//8
f 51//7 55//7 59//7
f 56//49 60//57 52//49
f 52//50 60//58 56//50
f 60//8 53//8 52//8
f 52//7 53//7 60//7
f 53//51 61//58 54//51
f 54//52 61//57 53//52
f 61//7 56//7 54//7
f 54//8 56//8 61//8
f 57//53 55//45 62//53
f 62//54 55//46 57//54
f 58//7 49//7 57//7
f 57//8 49//8 58//8
f 59//55 50//47 58//55
f 58//56 50//48 59//56
f 55//8 59//8 62//8
f 62//7 59//7 55//7
f 60//57 56//49 63//57
f 63//58 56//50 60//58
f 53//8 60//8 64//8
f 64//7 60//7 53//7
f 61//58 53//51 64//58
f 64//57 53//52 61//57
f 56//7 61//7 63//7
f 63//8 61//8 56//8
f 62//53 65//58 57//53
f 57//54 65//57 62//54
f 65//7 58//7 57//7
f 57//8 58//8 65//8
f 58//55 66//57 59//55
f 59//56 66//58 58//56
f 66//8 62//8 59//8
f 59//7 62//7 66//7
f 63//57 67//54 60//57
f 60//58 67//53 63//58
f 67//8 64//8 60//8
f 60//7 64//7 67//7
f 64//58 68//56 61//58
f 61//57 68//55 64//57
f 61//7 69//7 63//7
f 63//8 69//8 61//8
f 65//58 62//53 70//58
f 70//57 62//54 65//57
f 58//7 65//7 71//7
f 71//8 65//8 58//8
f 66//57 58//55 71//57
f 71//58 58//56 66//58
f 62//8 66//8 70//8
f 70//7 66//7 62//7
f 67//54 63//57 69//54
f 69//53 63//58 67//53
f 64//8 67//8 72//8
f 72//7 67//7 64//7
f 68//56 64//58 72//56
f 72//55 64//57 68//55
f 69//7 61//7 68//7
f 68//8 61//8 69//8
f 70//58 73//50 65//58
f 65//57 73//49 70//57
f 73//7 71//7 65//7
f 65//8 71//8 73//8
f 71//57 74//52 66//57
f 66//58 74//51 71//58
f 66//8 75//8 70//8
f 70//7 75//7 66//7
f 69//54 76//46 67//54
f 67//53 76//45 69//53
f 76//8 72//8 67//8
f 67//7 72//7 76//7
f 72//56 77//48 68//56
f 68//55 77//47 72//55
f 68//7 78//7 69//7
f 69//8 78//8 68//8
f 73//50 70//58 75//50
f 75//49 70//57 73//49
f 71//7 73//7 79//7
f 79//8 73//8 71//8
f 74//52 71//57 79//52
f 79//51 71//58 74//51
f 75//8 66//8 74//8
f 74//7 66//7 75//7
f 76//46 69//54 78//46
f 78//45 69//53 76//45
f 72//8 76//8 80//8
f 80//7 76//7 72//7
f 77//48 72//56 80//48
f 80//47 72//55 77//47
f 78//7 68//7 77//7
f 77//8 68//8 78//8
f 75//50 81//42 73//50
f 73//49 81//41 75//49
f 81//7 79//7 73//7
f 73//8 79//8 81//8
f 79//52 82//44 74//52
f 74//51 82//43 79//51
f 74//8 83//8 75//8
f 75//7 83//7 74//7
f 78//46 84//38 76//46
f 76//45 84//37 78//45
f 84//8 80//8 76//8
f 76//7 80//7 84//7
f 80//48 85//40 77//48
f 77//47 85//39 80//47
f 77//7 86//7 78//7
f 78//8 86//8 77//8
f 81//42 75//50 83//42
f 83//41 75//49 81//41
f 79//7 81//7 87//7
f 87//8 81//8 79//8
f 82//44 79//52 87//44
f 87//43 79//51 82//43
f 83//8 74//8 82//8
f 82//7 74//7 83//7
f 84//38 78//46 86//38
f 86//37 78//45 84//37
f 80//8 84//8 88//8
f 88//7 84//7 80//7
f 85//40 80//48 88//40
f 88//39 80//47 85//39
f 86//7 77//7 85//7
f 85//8 77//8 86//8
f 83//42 89//34 81//42
f 81//41 89//33 83//41
f 89//7 87//7 81//7
f 81//8 87//8 89//8
f 87//44 90//36 82//44
f 82//43 90//35 87//43
f 82//8 91//8 83//8
f 83//7 91//7 82//7
f 86//38 92//32 84//38
f 84//37 92//31 86//37
f 92//8 88//8 84//8
f 84//7 88//7 92//7
f 88//40 93//31 85//40
f 85//39 93//32 88//39
f 85//7 94//7 86//7
f 86//8 94//8 85//8
f 89//34 83//42 91//34
f 91//33 83//41 89//33
f 87//7 89//7 95//7
f 95//8 89//8 87//8
f 90//36 87//44 95//36
f 95//35 87//43 90//35
f 91//8 82//8 90//8
f 90//7 82//7 91//7
f 92//32 86//38 94//32
f 94//31 86//37 92//31
f 88//8 92//8 96//8
f 96//7 92//7 88//7
f 93//31 88//40 96//31
f 96//32 88//39 93//32
f 94//7 85//7 93//7
f 93//8 85//8 94//8
f 91//34 97//30 89//34
f 89//33 97//29 91//33
f 97//7 95//7 89//7
f 89//8 95//8 97//8
f 95//36 98//29 90//36
f 90//35 98//30 95//35
f 90//8 99//8 91//8
f 91//7 99//7 90//7
f 100//26 92//32 94//32
f 94//31 92//31 100//25
f 101//8 96//8 92//8
f 92//7 96//7 101//7
f 102//28 93//31 96//31
f 96//32 93//32 102//27
f 93//7 100//7 94//7
f 94//8 100//8 93//8
f 97//30 91//34 99//30
f 99//29 91//33 97//29
f 95//7 97//7 103//7
f 103//8 97//8 95//8
f 98//29 95//36 103//29
f 103//30 95//35 98//30
f 99//8 90//8 98//8
f 98//7 90//7 99//7
f 92//32 100//26 101//26
f 101//25 100//25 92//31
f 96//8 101//8 102//8
f 102//7 101//7 96//7
f 93//31 102//28 104//28
f 104//27 102//27 93//32
f 100//7 93//7 104//7
f 104//8 93//8 100//8
f 105//18 97//30 99//30
f 99//29 97//29 105//17
f 106//7 103//7 97//7
f 97//8 103//8 106//8
f 107//24 98//29 103//29
f 103//30 98//30 107//23
f 98//8 105//8 99//8
f 99//7 105//7 98//7
f 108//12 101//26 100//26
f 100//25 101//25 108//11
f 109//8 102//8 101//8
f 101//7 102//7 109//7
f 110//22 104//28 102//28
f 102//27 104//27 110//21
f 104//7 108//7 100//7
f 100//8 108//8 104//8
f 97//30 105//18 106//18
f 106//17 105//17 97//29
f 103//7 106//7 107//7
f 107//8 106//8 103//8
f 98//29 107//24 111//24
f 111//23 107//23 98//30
f 105//8 98//8 111//8
f 111//7 98//7 105//7
f 101//26 108//12 109//12
f 109//11 108//11 101//25
f 102//8 109//8 110//8
f 110//7 109//7 102//7
f 104//28 110//22 112//22
f 112//21 110//21 104//27
f 108//7 104//7 112//7
f 112//8 104//8 108//8
f 113//10 106//18 105//18
f 105//17 106//17 113//9
f 114//7 107//7 106//7
f 106//8 107//8 114//8
f 115//16 111//24 107//24
f 107//23 111//23 115//15
f 111//8 113//8 105//8
f 105//7 113//7 111//7
f 116//6 109//12 108//12
f 108//11 109//11 116//5
f 117//8 110//8 109//8
f 109//7 110//7 117//7
f 118//20 112//22 110//22
f 110//21 112//21 118//19
f 112//7 116//7 108//7
f 108//8 116//8 112//8
f 106//18 113//10 114//10
f 114//9 113//9 106//17
f 107//7 114//7 115//7
f 115//8 114//8 107//8
f 111//24 115//16 119//16
f 119//15 115//15 111//23
f 113//8 111//8 119//8
f 119//7 111//7 113//7
f 109//12 116//6 117//6
f 117//5 116//5 109//11
f 110//8 117//8 118//8
f 118//7 117//7 110//7
f 112//22 118//20 120//20
f 120//19 118//19 112//21
f 116//7 112//7 120//7
f 120//8 112//8 116//8
f 121//4 114//10 113//10
f 113//9 114//9 121//1
f 122//7 115//7 114//7
f 114//8 115//8 122//8
f 123//14 119//16 115//16
f 115//15 119//15 123//13
f 119//8 121//8 113//8
f 113//7 121//7 119//7
f 124//3 117//6 116//6
f 116//5 117//5 124//2
f 125//8 118//8 117//8
f 117//7 118//7 125//7
f 126//2 120//20 118//20
f 118//19 120//19 126//3
f 120//7 124//7 116//7
f 116//8 124//8 120//8
f 114//10 121//4 122//4
f 122//1 121//1 114//9
f 115//7 122//7 123//7
f 123//8 122//8 115//8
f 119//16 123//14 127//14
f 127//13 123//13 119//15
f 121//8 119//8 127//8
f 127//7 119//7 121//7
f 117//6 124//3 125//3
f 125//2 124//2 117//5
f 118//8 125//8 126//8
f 126//7 125//7 118//7
f 120//20 126//2 128//2
f 128//3 126//3 120//19
f 124//7 120//7 128//7
f 128//8 120//8 124//8
f 125//3 122//4 121//4
f 121//1 122//1 125//2
f 124//7 123//7 122//7
f 122//8 123//8 124//8
f 128//2 127//14 123//14
f 123//13 127//13 128//3
f 127//8 125//8 121//8
f 121//7 125//7 127//7
f 122//4 125//3 124//3
f 124//2 125//2 122//1
f 125//8 127//8 126//8
f 126//7 127//7 125//7
f 127//14 128//2 126//2
f 126//3 128//3 127//13
f 123//7 124//7 128//7
f 128//8 124//8 123//8
