# SSTK version 0.8.0
# 1
mtllib original-1.mtl
o face_back/mesh1/mesh1-geometry#mesh1-geometry
v -0.198515 -0.865401 -0.004730
v 0.160808 -0.865401 -0.004730
v -0.018854 -0.883095 -0.004730
v -0.371278 -0.812995 -0.004730
v 0.333571 -0.812995 -0.004730
v -0.530490 -0.727887 -0.004730
v 0.492783 -0.727887 -0.004730
v -0.670049 -0.613370 -0.004730
v 0.632342 -0.613370 -0.004730
v -0.784567 -0.473810 -0.004730
v 0.746859 -0.473810 -0.004730
v -0.869675 -0.314599 -0.004730
v 0.831968 -0.314599 -0.004730
v -0.922081 -0.141835 -0.004730
v 0.884374 -0.141835 -0.004730
v -0.939775 0.037826 -0.004730
v 0.902068 0.037826 -0.004730
v -0.922081 0.217487 -0.004730
v 0.884374 0.217487 -0.004730
v -0.869675 0.390251 -0.004730
v 0.831968 0.390251 -0.004730
v -0.784567 0.549463 -0.004730
v 0.746859 0.549463 -0.004730
v -0.670049 0.689022 -0.004730
v 0.632342 0.689022 -0.004730
v -0.530490 0.803539 -0.004730
v 0.492783 0.803539 -0.004730
v -0.371278 0.888647 -0.004730
v 0.333571 0.888647 -0.004730
v -0.198515 0.941054 -0.004730
v 0.160808 0.941054 -0.004730
v -0.018854 0.958748 -0.004730
vn 0 0 -1
vn 0 0 1
usemtl material_0_0
f 1//1 2//1 3//1
f 2//1 1//1 4//1
f 3//2 2//2 1//2
f 4//2 1//2 2//2
f 2//1 4//1 5//1
f 5//2 4//2 2//2
f 5//1 4//1 6//1
f 6//2 4//2 5//2
f 5//1 6//1 7//1
f 7//2 6//2 5//2
f 7//1 6//1 8//1
f 8//2 6//2 7//2
f 7//1 8//1 9//1
f 9//2 8//2 7//2
f 9//1 8//1 10//1
f 10//2 8//2 9//2
f 9//1 10//1 11//1
f 11//2 10//2 9//2
f 11//1 10//1 12//1
f 12//2 10//2 11//2
f 11//1 12//1 13//1
f 13//2 12//2 11//2
f 13//1 12//1 14//1
f 14//2 12//2 13//2
f 13//1 14//1 15//1
f 15//2 14//2 13//2
f 15//1 14//1 16//1
f 16//2 14//2 15//2
f 15//1 16//1 17//1
f 17//2 16//2 15//2
f 17//1 16//1 18//1
f 18//2 16//2 17//2
f 17//1 18//1 19//1
f 19//2 18//2 17//2
f 19//1 18//1 20//1
f 20//2 18//2 19//2
f 19//1 20//1 21//1
f 21//2 20//2 19//2
f 21//1 20//1 22//1
f 22//2 20//2 21//2
f 21//1 22//1 23//1
f 23//2 22//2 21//2
f 23//1 22//1 24//1
f 24//2 22//2 23//2
f 23//1 24//1 25//1
f 25//2 24//2 23//2
f 25//1 24//1 26//1
f 26//2 24//2 25//2
f 25//1 26//1 27//1
f 27//2 26//2 25//2
f 27//1 26//1 28//1
f 28//2 26//2 27//2
f 27//1 28//1 29//1
f 29//2 28//2 27//2
f 29//1 28//1 30//1
f 30//2 28//2 29//2
f 29//1 30//1 31//1
f 31//2 30//2 29//2
f 31//1 30//1 32//1
f 32//2 30//2 31//2
