# SSTK version 0.8.0
# 6
mtllib original-6.mtl
o mesh5/mesh5-geometry#mesh5-geometry
v 0.399738 0.762865 0.006864
v 0.414139 0.760959 0.006864
v 0.406756 0.760474 0.006864
v 0.420776 0.764235 0.006864
v 0.394175 0.767735 0.006864
v 0.425663 0.769798 0.006864
v 0.390899 0.774373 0.006864
v 0.428038 0.776816 0.006864
v 0.390431 0.781773 0.006864
v 0.427552 0.784199 0.006864
v 0.392806 0.788774 0.006864
v 0.424277 0.790836 0.006864
v 0.397675 0.794337 0.006864
v 0.418714 0.795723 0.006864
v 0.404313 0.797612 0.006864
v 0.411713 0.798098 0.006864
vn 0 0 -1
vn 0 0 1
usemtl material_0_0
f 1//1 2//1 3//1
f 2//1 1//1 4//1
f 4//1 1//1 5//1
f 4//1 5//1 6//1
f 6//1 5//1 7//1
f 6//1 7//1 8//1
f 8//1 7//1 9//1
f 8//1 9//1 10//1
f 10//1 9//1 11//1
f 10//1 11//1 12//1
f 12//1 11//1 13//1
f 12//1 13//1 14//1
f 14//1 13//1 15//1
f 14//1 15//1 16//1
usemtl material_1_0
f 3//2 2//2 1//2
f 4//2 1//2 2//2
f 5//2 1//2 4//2
f 6//2 5//2 4//2
f 7//2 5//2 6//2
f 8//2 7//2 6//2
f 9//2 7//2 8//2
f 10//2 9//2 8//2
f 11//2 9//2 10//2
f 12//2 11//2 10//2
f 13//2 11//2 12//2
f 14//2 13//2 12//2
f 15//2 13//2 14//2
f 16//2 15//2 14//2
