# SSTK version 0.8.0
# 2
mtllib original-2.mtl
o z_divided_drawer_bottom1/z_divided_drawer_bottom/mesh1/mesh1-geometry#mesh1-geometry
v 0.026813 0.538927 0.415468
v 0.413830 0.538927 -0.371186
v 0.026813 0.538927 -0.371186
v 0.413830 0.538927 0.415468
v 0.026813 0.530514 -0.371186
v 0.413830 0.530514 0.415468
v 0.413830 0.530514 -0.371186
v 0.026813 0.530514 0.415468
vt 0.324653 0
vt 0 0.159722
vt 0 0
vt 0.324653 0.159722
vt -0.159722 0.003472
vt 0 0.003472
vt 0.324653 0.003472
vt 0.159722 0
vt 0.159722 0.003472
vt -0.324653 0
vt -0.324653 0.003472
vt -0.159722 0
vt -0.324653 0.159722
vn 0 1 0
vn 0 -1 0
vn 0 0 -1
vn 0 0 1
vn -1 0 0
vn 1 0 0
usemtl material_0_0
f 1/1/1 2/2/1 3/3/1
f 2/2/1 1/1/1 4/4/1
f 3/3/2 2/2/2 1/1/2
f 4/4/2 1/1/2 2/2/2
f 2/5/3 5/3/3 3/6/3
f 3/6/4 5/3/4 2/5/4
f 5/3/5 1/7/5 3/6/5
f 3/6/6 1/7/6 5/3/6
f 1/6/4 6/8/4 4/9/4
f 4/9/3 6/8/3 1/6/3
f 6/10/6 2/6/6 4/11/6
f 4/11/5 2/6/5 6/10/5
f 5/3/3 2/5/3 7/12/3
f 7/12/4 2/5/4 5/3/4
f 1/7/5 5/3/5 8/1/5
f 8/1/6 5/3/6 1/7/6
f 6/8/4 1/6/4 8/3/4
f 8/3/3 1/6/3 6/8/3
f 2/6/6 6/10/6 7/3/6
f 7/3/5 6/10/5 2/6/5
f 7/2/2 8/10/2 5/3/2
f 5/3/1 8/10/1 7/2/1
f 8/10/2 7/2/2 6/13/2
f 6/13/1 7/2/1 8/10/1
