# SSTK version 0.8.0
# 9
mtllib original-9.mtl
o zdrawer_divider1/zdrawer_divider/mesh13/mesh13-geometry#mesh13-geometry
v 0.031020 0.513687 0.411261
v 0.014193 0.530514 0.411261
v 0.014193 0.513687 0.411261
v 0.018400 0.530514 0.411261
v 0.014193 0.513687 -0.362773
v 0.018400 0.538927 0.411261
v 0.018400 0.530514 -0.362773
v 0.014193 0.530514 -0.362773
v 0.031020 0.513687 -0.362773
v 0.026813 0.530514 0.411261
v 0.031020 0.530514 -0.362773
v 0.031020 0.530514 0.411261
v 0.026813 0.538927 0.411261
v 0.018400 0.538927 -0.362773
v 0.026813 0.530514 -0.362773
v 0.031020 0.761883 0.411261
v 0.026813 0.538927 -0.362773
v 0.014193 0.538927 -0.362773
v 0.014193 0.538927 0.411261
v 0.031020 0.538927 0.411261
v 0.031020 0.761883 -0.362773
v 0.014193 0.761883 0.411261
v 0.031020 0.538927 -0.362773
v 0.014193 0.761883 -0.362773
vt 0.006944 0
vt 0 0.006944
vt 0 0
vt 0.001736 0.006944
vt 0.319444 0.006944
vt 0.319444 0
vt -0.319444 0.006944
vt -0.319444 0
vt 0.001736 0.010417
vt 0 0.001736
vt 0.319444 0.001736
vt 0.005208 0.006944
vt 0.319444 0.010417
vt -0.001736 0.006944
vt -0.006944 0
vt 0.006944 0.006944
vt 0.005208 0.010417
vt 0 0.010417
vt -0.001736 0.010417
vt -0.005208 0.006944
vt -0.006944 0.006944
vt 0.319444 0.005208
vt 0.006944 0.102431
vt -0.319444 0.010417
vt -0.319444 0.001736
vt 0 0.005208
vt 0.006944 0.010417
vt -0.319444 0.005208
vt -0.006944 0.102431
vt -0.005208 0.010417
vt 0 0.102431
vt -0.319444 0.102431
vt 0.319444 0.102431
vt -0.006944 0.010417
vn 0 0 1
vn 0 0 -1
vn -1 0 0
vn 1 0 0
vn 0 -1 0
vn 0 1 0
usemtl material_0_0
f 1/1/1 2/2/1 3/3/1
f 2/2/1 1/1/1 4/4/1
f 3/3/2 2/2/2 1/1/2
f 4/4/2 1/1/2 2/2/2
f 2/5/3 5/3/3 3/6/3
f 3/6/4 5/3/4 2/5/4
f 5/3/5 1/7/5 3/8/5
f 3/8/6 1/7/6 5/3/6
f 4/4/1 1/1/1 6/9/1
f 6/9/2 1/1/2 4/4/2
f 7/10/6 2/6/6 4/11/6
f 4/11/5 2/6/5 7/10/5
f 5/3/3 2/5/3 8/2/3
f 8/2/4 2/5/4 5/3/4
f 1/7/5 5/3/5 9/2/5
f 9/2/6 5/3/6 1/7/6
f 6/9/1 1/1/1 10/12/1
f 10/12/2 1/1/2 6/9/2
f 6/13/3 7/2/3 4/5/3
f 4/5/4 7/2/4 6/13/4
f 2/6/6 7/10/6 8/3/6
f 8/3/5 7/10/5 2/6/5
f 7/14/2 5/3/2 8/2/2
f 8/2/1 5/3/1 7/14/1
f 5/3/2 7/14/2 9/15/2
f 9/15/1 7/14/1 5/3/1
f 11/2/4 1/8/4 9/3/4
f 9/3/3 1/8/3 11/2/3
f 10/12/1 1/1/1 12/16/1
f 12/16/2 1/1/2 10/12/2
f 13/17/1 6/9/1 10/12/1
f 10/12/2 6/9/2 13/17/2
f 7/2/3 6/13/3 14/18/3
f 14/18/4 6/13/4 7/2/4
f 9/15/2 7/14/2 14/19/2
f 14/19/1 7/14/1 9/15/1
f 1/8/4 11/2/4 12/7/4
f 12/7/3 11/2/3 1/8/3
f 9/15/2 15/20/2 11/21/2
f 11/21/1 15/20/1 9/15/1
f 11/2/6 10/22/6 12/5/6
f 12/5/5 10/22/5 11/2/5
f 16/23/1 6/9/1 13/17/1
f 13/17/2 6/9/2 16/23/2
f 10/7/4 17/18/4 13/24/4
f 13/24/3 17/18/3 10/7/3
f 6/25/5 18/3/5 14/10/5
f 14/10/6 18/3/6 6/25/6
f 9/15/2 14/19/2 15/20/2
f 15/20/1 14/19/1 9/15/1
f 10/22/6 11/2/6 15/26/6
f 15/26/5 11/2/5 10/22/5
f 16/23/1 19/18/1 6/9/1
f 6/9/2 19/18/2 16/23/2
f 16/23/1 13/17/1 20/27/1
f 20/27/2 13/17/2 16/23/2
f 17/18/4 10/7/4 15/2/4
f 15/2/3 10/7/3 17/18/3
f 17/26/5 20/7/5 13/28/5
f 13/28/6 20/7/6 17/26/6
f 18/3/5 6/25/5 19/8/5
f 19/8/6 6/25/6 18/3/6
f 18/18/2 21/29/2 14/19/2
f 14/19/1 21/29/1 18/18/1
f 15/20/2 14/19/2 17/30/2
f 17/30/1 14/19/1 15/20/1
f 19/18/1 16/23/1 22/31/1
f 22/31/2 16/23/2 19/18/2
f 20/24/4 21/31/4 16/32/4
f 16/32/3 21/31/3 20/24/3
f 20/7/5 17/26/5 23/2/5
f 23/2/6 17/26/6 20/7/6
f 22/33/3 18/18/3 19/13/3
f 19/13/4 18/18/4 22/33/4
f 21/29/2 18/18/2 24/31/2
f 24/31/1 18/18/1 21/29/1
f 14/19/2 21/29/2 17/30/2
f 17/30/1 21/29/1 14/19/1
f 21/2/6 22/6/6 16/5/6
f 16/5/5 22/6/5 21/2/5
f 21/31/4 20/24/4 23/18/4
f 23/18/3 20/24/3 21/31/3
f 17/30/2 21/29/2 23/34/2
f 23/34/1 21/29/1 17/30/1
f 18/18/3 22/33/3 24/31/3
f 24/31/4 22/33/4 18/18/4
f 22/6/6 21/2/6 24/3/6
f 24/3/5 21/2/5 22/6/5
