# SSTK version 0.8.0
# 16
mtllib original-16.mtl
o zdrawer_face1/zdrawer_face/mesh15/mesh15-geometry#mesh15-geometry
v 0.476931 0.485081 0.411261
v 0.476931 0.165371 0.436502
v 0.476931 0.165371 0.411261
v 0.476931 0.485081 0.436502
v -0.431718 0.165371 0.411261
v 0.413830 0.207438 0.411261
v -0.431718 0.485081 0.436502
v -0.431718 0.165371 0.436502
v -0.368618 0.207438 0.411261
v 0.413830 0.215852 0.411261
v -0.431718 0.485081 0.411261
v -0.368618 0.215852 0.411261
v 0.413830 0.215852 0.419675
v 0.413830 0.207438 0.419675
v -0.368618 0.207438 0.419675
v -0.368618 0.215852 0.419675
vt 0 0.131944
vt -0.010417 0
vt 0 0
vt -0.010417 0.131944
vt -0.010417 0.375
vt 0 0.375
vt -0.348958 0.017361
vt -0.375 0.131944
vt -0.375 0
vt 0.010417 0
vt 0.010417 0.375
vt 0.375 0
vt 0.375 0.131944
vt -0.026042 0.017361
vt -0.348958 0.020833
vt 0.010417 0.131944
vt -0.026042 0.020833
vt 0 0.017361
vt 0.003472 0.020833
vt 0 0.020833
vt 0 0.026042
vt 0.003472 0.348958
vt 0 0.348958
vt -0.003472 0.017361
vt -0.003472 0.348958
vt 0.003472 0.017361
vt 0.003472 0.026042
vt -0.003472 0.020833
vt -0.003472 0.026042
vn 1 0 0
vn -1 0 0
vn 0 -1 0
vn 0 1 0
vn 0 0 -1
vn 0 0 1
usemtl material_0_0
f 1/1/1 2/2/1 3/3/1
f 2/2/1 1/1/1 4/4/1
f 3/3/2 2/2/2 1/1/2
f 4/4/2 1/1/2 2/2/2
f 2/5/3 5/3/3 3/6/3
f 3/6/4 5/3/4 2/5/4
f 6/7/5 1/8/5 3/9/5
f 3/9/6 1/8/6 6/7/6
f 1/6/4 7/10/4 4/11/4
f 4/11/3 7/10/3 1/6/3
f 7/1/6 2/12/6 4/13/6
f 4/13/5 2/12/5 7/1/5
f 5/3/3 2/5/3 8/2/3
f 8/2/4 2/5/4 5/3/4
f 5/3/5 9/14/5 3/9/5
f 3/9/6 9/14/6 5/3/6
f 10/15/5 1/8/5 6/7/5
f 6/7/6 1/8/6 10/15/6
f 3/9/5 9/14/5 6/7/5
f 6/7/6 9/14/6 3/9/6
f 7/10/4 1/6/4 11/3/4
f 11/3/3 1/6/3 7/10/3
f 2/12/6 7/1/6 8/3/6
f 8/3/5 7/1/5 2/12/5
f 7/16/2 5/3/2 8/10/2
f 8/10/1 5/3/1 7/16/1
f 9/14/5 5/3/5 12/17/5
f 12/17/6 5/3/6 9/14/6
f 12/17/5 1/8/5 10/15/5
f 10/15/6 1/8/6 12/17/6
f 6/18/2 13/19/2 10/20/2
f 10/20/1 13/19/1 6/18/1
f 9/21/4 14/22/4 6/23/4
f 6/23/3 14/22/3 9/21/3
f 12/17/5 11/1/5 1/8/5
f 1/8/6 11/1/6 12/17/6
f 5/3/2 7/16/2 11/1/2
f 11/1/1 7/16/1 5/3/1
f 11/1/5 12/17/5 5/3/5
f 5/3/6 12/17/6 11/1/6
f 12/20/1 15/24/1 9/18/1
f 9/18/2 15/24/2 12/20/2
f 13/25/3 12/21/3 10/23/3
f 10/23/4 12/21/4 13/25/4
f 13/19/2 6/18/2 14/26/2
f 14/26/1 6/18/1 13/19/1
f 14/22/4 9/21/4 15/27/4
f 15/27/3 9/21/3 14/22/3
f 15/24/1 12/20/1 16/28/1
f 16/28/2 12/20/2 15/24/2
f 12/21/3 13/25/3 16/29/3
f 16/29/4 13/25/4 12/21/4
f 15/14/5 13/15/5 14/7/5
f 14/7/6 13/15/6 15/14/6
f 13/15/5 15/14/5 16/17/5
f 16/17/6 15/14/6 13/15/6
