# SSTK version 0.8.0
# 31
mtllib original-31.mtl
o back_board1/back_board/mesh28/mesh28-geometry#mesh28-geometry
v 0.476931 -0.829095 -0.413254
v -0.431718 -0.829095 -0.396427
v -0.431718 -0.829095 -0.413254
v 0.476931 -0.829095 -0.396427
v -0.431718 0.786281 -0.396427
v 0.476931 0.786281 -0.413254
v 0.476931 0.786281 -0.396427
v -0.431718 0.786281 -0.413254
vt 0 0.375
vt -0.006944 0
vt 0 0
vt -0.006944 0.375
vt 0.006944 0.666667
vt 0.006944 0
vt -0.375 0.666667
vt -0.375 0
vt -0.006944 0.666667
vt 0.375 0
vt 0 0.666667
vt 0.375 0.666667
vt 0.006944 0.375
vn 0 -1 0
vn 0 1 0
vn -1 0 0
vn 1 0 0
vn 0 0 -1
vn 0 0 1
usemtl material_0_0
f 1/1/1 2/2/1 3/3/1
f 2/2/1 1/1/1 4/4/1
f 3/3/2 2/2/2 1/1/2
f 4/4/2 1/1/2 2/2/2
f 5/5/3 3/3/3 2/6/3
f 2/6/4 3/3/4 5/5/4
f 3/3/5 6/7/5 1/8/5
f 1/8/6 6/7/6 3/3/6
f 1/3/4 7/9/4 4/2/4
f 4/2/3 7/9/3 1/3/3
f 4/10/6 5/11/6 2/3/6
f 2/3/5 5/11/5 4/10/5
f 3/3/3 5/5/3 8/11/3
f 8/11/4 5/5/4 3/3/4
f 6/7/5 3/3/5 8/11/5
f 8/11/6 3/3/6 6/7/6
f 7/9/4 1/3/4 6/11/4
f 6/11/3 1/3/3 7/9/3
f 5/11/6 4/10/6 7/12/6
f 7/12/5 4/10/5 5/11/5
f 5/6/2 6/1/2 8/3/2
f 8/3/1 6/1/1 5/6/1
f 6/1/2 5/6/2 7/13/2
f 7/13/1 5/6/1 6/1/1
