# SSTK version 0.8.0
# 32
mtllib original-32.mtl
o _2x4x1_5_1/_2x4x1_5_/mesh30/mesh30-geometry#mesh30-geometry
v 0.375970 -0.778614 0.293474
v -0.330757 -0.829095 0.293474
v -0.330757 -0.778614 0.293474
v 0.375970 -0.829095 0.293474
v -0.330757 -0.829095 0.411261
v 0.375970 -0.778614 0.411261
v -0.330757 -0.778614 0.411261
v 0.375970 -0.829095 0.411261
vt 0 0.291667
vt -0.020833 0
vt 0 0
vt -0.020833 0.291667
vt -0.048611 0.020833
vt 0 0.020833
vt 0.048611 0.291667
vt 0.048611 0
vt -0.048611 0
vt 0.048611 0.020833
vt -0.048611 0.291667
vt 0.020833 0
vt 0.020833 0.291667
vn 0 0 -1
vn 0 0 1
vn -1 0 0
vn 1 0 0
vn 0 1 0
vn 0 -1 0
usemtl material_0_0
f 1/1/1 2/2/1 3/3/1
f 2/2/1 1/1/1 4/4/1
f 3/3/2 2/2/2 1/1/2
f 4/4/2 1/1/2 2/2/2
f 5/5/3 3/3/3 2/6/3
f 2/6/4 3/3/4 5/5/4
f 3/3/5 6/7/5 1/1/5
f 1/1/6 6/7/6 3/3/6
f 6/8/4 4/6/4 1/3/4
f 1/3/3 4/6/3 6/8/3
f 4/1/6 5/9/6 2/3/6
f 2/3/5 5/9/5 4/1/5
f 3/3/3 5/5/3 7/9/3
f 7/9/4 5/5/4 3/3/4
f 6/7/5 3/3/5 7/8/5
f 7/8/6 3/3/6 6/7/6
f 4/6/4 6/8/4 8/10/4
f 8/10/3 6/8/3 4/6/3
f 5/9/6 4/1/6 8/11/6
f 8/11/5 4/1/5 5/9/5
f 5/12/2 6/1/2 7/3/2
f 7/3/1 6/1/1 5/12/1
f 6/1/2 5/12/2 8/13/2
f 8/13/1 5/12/1 6/1/1
