# SSTK version 0.8.0
# 42
mtllib original-42.mtl
o DF_11_CR1/DF_11_CR/mesh28/mesh28-geometry#mesh28-geometry
v 0.482744 0.565986 0.393940
v 0.481060 0.467995 0.394926
v 0.482744 0.467995 0.393940
v 0.481060 0.565986 0.394926
v 0.483590 0.467995 0.392914
v 0.479325 0.467995 0.395109
v 0.483590 0.565986 0.392914
v 0.479325 0.565986 0.395109
v 0.484104 0.467995 0.391675
v 0.479298 0.565986 0.396471
v 0.484104 0.565986 0.391675
v 0.479298 0.467995 0.396471
v 0.486655 0.565986 0.391675
v 0.478040 0.565986 0.397795
v 0.486655 0.467995 0.391675
v 0.478040 0.467995 0.397795
v 0.486682 0.565986 0.393444
v 0.408486 0.467995 0.397795
v 0.486682 0.467995 0.393444
v 0.408486 0.565986 0.397795
v 0.487024 0.565986 0.394795
v 0.407270 0.467995 0.396521
v 0.487024 0.467995 0.394795
v 0.407270 0.565986 0.396521
v 0.488027 0.565986 0.395764
v 0.407181 0.467995 0.391730
v 0.488027 0.467995 0.395764
v 0.407181 0.565986 0.391730
v 0.489390 0.565986 0.396058
v 0.405985 0.467995 0.390691
v 0.489390 0.467995 0.396058
v 0.405985 0.565986 0.390691
v 0.490703 0.565986 0.395591
v 0.401664 0.467995 0.390691
v 0.490703 0.467995 0.395591
v 0.401664 0.565986 0.390691
v 0.492122 0.565986 0.394535
v 0.401074 0.565986 0.393352
v 0.492122 0.467995 0.394535
v 0.401074 0.467995 0.393352
v 0.497467 0.565986 0.391945
v 0.399198 0.565986 0.395328
v 0.497467 0.467995 0.391945
v 0.399198 0.467995 0.395328
v 0.503388 0.565986 0.390540
v 0.396573 0.467995 0.396056
v 0.503388 0.467995 0.390540
v 0.396573 0.565986 0.396056
v 0.506985 0.565986 0.390463
v 0.393947 0.467995 0.395328
v 0.506985 0.467995 0.390463
v 0.393947 0.565986 0.395328
v 0.508685 0.467995 0.388748
v 0.392071 0.467995 0.393352
v 0.508685 0.565986 0.388748
v 0.392071 0.565986 0.393352
v 0.508685 0.467995 0.369218
v 0.391481 0.467995 0.390691
v 0.508685 0.565986 0.369218
v 0.391481 0.565986 0.390691
v 0.505550 0.467995 0.365230
v 0.389561 0.467995 0.390691
v 0.505550 0.565986 0.365230
v 0.389561 0.565986 0.390691
v 0.386377 0.565986 0.365230
v 0.387955 0.467995 0.390231
v 0.386377 0.467995 0.365230
v 0.387955 0.565986 0.390231
v 0.344647 0.565986 0.365230
v 0.386812 0.467995 0.389022
v 0.344647 0.467995 0.365230
v 0.386812 0.565986 0.389022
v 0.386377 0.467995 0.387324
v 0.386377 0.565986 0.387324
v 0.386377 0.467995 0.380337
v 0.386377 0.565986 0.380337
v 0.344647 0.467995 0.380337
v 0.344647 0.565986 0.380337
vt 0.327397 0.079498
vt 0.326589 0.048106
vt 0.327397 0.048106
vt 0.326589 0.079498
vt 0.327803 0.048106
vt 0.325757 0.048106
vt 0.327803 0.079498
vt 0.325757 0.079498
vt 0.32805 0.048106
vt 0.325744 0.079498
vt 0.32805 0.079498
vt 0.325744 0.048106
vt 0.329274 0.079498
vt 0.32514 0.079498
vt 0.329274 0.048106
vt 0.32514 0.048106
vt 0.329287 0.079498
vt 0.291768 0.048106
vt 0.329287 0.048106
vt 0.291768 0.079498
vt 0.329451 0.079498
vt 0.291184 0.048106
vt 0.329451 0.048106
vt 0.291184 0.079498
vt 0.329932 0.079498
vt 0.291141 0.048106
vt 0.329932 0.048106
vt 0.291141 0.079498
vt 0.330586 0.079498
vt 0.290567 0.048106
vt 0.330586 0.048106
vt 0.290567 0.079498
vt 0.331216 0.079498
vt 0.288494 0.048106
vt 0.331216 0.048106
vt 0.288494 0.079498
vt 0.331897 0.079498
vt 0.288211 0.079498
vt 0.331897 0.048106
vt 0.288211 0.048106
vt 0.334461 0.079498
vt 0.287311 0.079498
vt 0.334461 0.048106
vt 0.287311 0.048106
vt 0.337302 0.079498
vt 0.286051 0.048106
vt 0.337302 0.048106
vt 0.286051 0.079498
vt 0.339028 0.079498
vt 0.284791 0.048106
vt 0.339028 0.048106
vt 0.284791 0.079498
vt 0.339844 0.048106
vt 0.283891 0.048106
vt 0.339844 0.079498
vt 0.283891 0.079498
vt 0.283608 0.048106
vt 0.283608 0.079498
vt 0.33834 0.048106
vt 0.282687 0.048106
vt 0.33834 0.079498
vt 0.282687 0.079498
vt 0.281159 0.079498
vt 0.281916 0.048106
vt 0.281159 0.048106
vt 0.281916 0.079498
vt 0.072644 0.679865
vt 0.104036 0.699887
vt 0.104036 0.679865
vt 0.281368 0.048106
vt 0.072644 0.699887
vt 0.281368 0.079498
vn 0.6485230293281576 0 0.7611950344235238
vn 0.31213702994361886 0 0.9500370911380126
vn 0.8569058686513362 0 0.515472920987028
vn 0.1050979863872893 0 0.994461871193329
vn 0.9233742208355902 0 0.383901091814372
vn 0.9250025784162961 0 0.37996082682719323
vn 0.9997994393469632 0 0.020027008800570546
vn 0 0 1
vn 0.39462388950039357 0 0.9188427427125825
vn -0.9998810892883854 0 0.015421001377080064
vn -0.9913292929170314 0 0.13140103882625329
vn -0.3934158431496589 0 0.9193606334615612
vn -0.8650370308675494 0 0.5017080179026985
vn -0.9247981708250347 0 0.3804580702766994
vn -0.47094918221003834 0 0.882160341307461
vn -0.905991543525336 0 0.42329578672670465
vn 0.06444700844094749 0 0.9979211307027286
vn -0.3499859772122388 0 0.9367549390074195
vn 0.4712621119971036 0 0.881993209608798
vn 0.5187288783160753 0 0.8549387994476251
vn 0.8829048588548675 0 0.46955192493532233
vn 0.9762715506789323 0 0.21654990033466368
vn 0.3355149569785974 0 0.9420348792075853
vn 0.5149989020261031 0 0.8571908369271733
vn 0.12685097270896753 0 0.9919217865954899
vn 0.39455801380854444 0 0.9188710321581897
vn -0.5149989020261031 0 0.8571908369271733
vn 0.9247352064258888 0 0.3806110849626801
vn -0.8829048588548675 0 0.46955192493532233
vn 0.9450278200270291 0 -0.32698993772738827
vn -0.9762715506789323 0 0.21654990033466368
vn 0.43701910779842407 0 -0.8994522218656583
vn -0.13917903303205972 0 0.990267235025102
vn 0 0 -1
vn -0.5196688573548158 0 0.8543677654824884
vn -0.8756788571430764 0 0.48289392122141644
vn -0.9921490536147441 0 0.12506100675817194
vn -1 0 0
vn -0.6485230293281576 0 -0.7611950344235238
vn -0.31213702994361886 0 -0.9500370911380126
vn -0.8569058686513362 0 -0.515472920987028
vn -0.1050979863872893 0 -0.994461871193329
vn -0.9233742208355902 0 -0.383901091814372
vn -0.9997994393469632 0 -0.020027008800570546
vn -0.9250025784162961 0 -0.37996082682719323
vn -0.39462388950039357 0 -0.9188427427125825
vn 0.9998810892883854 0 -0.015421001377080064
vn 0.9913292929170314 0 -0.13140103882625329
vn 0.3934158431496589 0 -0.9193606334615612
vn 0.8650370308675494 0 -0.5017080179026985
vn 0.9247981708250347 0 -0.3804580702766994
vn 0.47094918221003834 0 -0.882160341307461
vn 0.905991543525336 0 -0.42329578672670465
vn -0.06444700844094749 0 -0.9979211307027286
vn 0.3499859772122388 0 -0.9367549390074195
vn -0.4712621119971036 0 -0.881993209608798
vn -0.5187288783160753 0 -0.8549387994476251
vn -0.9762715506789323 0 -0.21654990033466368
vn -0.8829048588548675 0 -0.46955192493532233
vn -0.3355149569785974 0 -0.9420348792075853
vn -0.5149989020261031 0 -0.8571908369271733
vn -0.12685097270896753 0 -0.9919217865954899
vn -0.39455801380854444 0 -0.9188710321581897
vn 0.5149989020261031 0 -0.8571908369271733
vn -0.9247352064258888 0 -0.3806110849626801
vn 0.8829048588548675 0 -0.46955192493532233
vn -0.9450278200270291 0 0.32698993772738827
vn 0.9762715506789323 0 -0.21654990033466368
vn -0.43701910779842407 0 0.8994522218656583
vn 0.13917903303205972 0 -0.990267235025102
vn 0.5196688573548158 0 -0.8543677654824884
vn 0.8756788571430764 0 -0.48289392122141644
vn 0.9921490536147441 0 -0.12506100675817194
vn 1 0 0
usemtl material_0_0
f 1/1/1 2/2/2 3/3/1
f 2/2/2 1/1/1 4/4/2
f 5/5/3 1/1/1 3/3/1
f 4/4/2 6/6/4 2/2/2
f 1/1/1 5/5/3 7/7/3
f 6/6/4 4/4/2 8/8/4
f 9/9/5 7/7/3 5/5/3
f 10/10/6 6/6/7 8/8/7
f 7/7/3 9/9/5 11/11/5
f 6/6/7 10/10/6 12/12/6
f 9/9/8 13/13/8 11/11/8
f 14/14/9 12/12/6 10/10/6
f 13/13/8 9/9/8 15/15/8
f 12/12/6 14/14/9 16/16/9
f 15/15/10 17/17/11 13/13/10
f 14/14/9 18/18/12 16/16/9
f 17/17/11 15/15/10 19/19/11
f 18/18/12 14/14/9 20/20/12
f 19/19/11 21/21/13 17/17/11
f 20/20/12 22/22/14 18/18/12
f 21/21/13 19/19/11 23/23/13
f 22/22/14 20/20/12 24/24/14
f 23/23/13 25/25/15 21/21/13
f 24/24/14 26/26/16 22/22/14
f 25/25/15 23/23/13 27/27/15
f 26/26/16 24/24/14 28/28/16
f 27/27/15 29/29/17 25/25/15
f 28/28/16 30/30/18 26/26/16
f 29/29/17 27/27/15 31/31/17
f 30/30/18 28/28/16 32/32/18
f 31/31/17 33/33/19 29/29/17
f 32/32/18 34/34/8 30/30/18
f 33/33/19 31/31/17 35/35/19
f 34/34/8 32/32/18 36/36/8
f 35/35/19 37/37/20 33/33/19
f 38/38/21 34/34/22 36/36/22
f 37/37/20 35/35/19 39/39/20
f 34/34/22 38/38/21 40/40/21
f 39/39/20 41/41/23 37/37/20
f 42/42/24 40/40/21 38/38/21
f 41/41/23 39/39/20 43/43/23
f 40/40/21 42/42/24 44/44/24
f 43/43/23 45/45/25 41/41/23
f 42/42/24 46/46/8 44/44/24
f 45/45/25 43/43/23 47/47/25
f 46/46/8 42/42/24 48/48/8
f 47/47/25 49/49/26 45/45/25
f 48/48/8 50/50/27 46/46/8
f 49/49/26 47/47/25 51/51/26
f 50/50/27 48/48/8 52/52/27
f 53/53/28 49/49/26 51/51/26
f 52/52/27 54/54/29 50/50/27
f 49/49/26 53/53/28 55/55/28
f 54/54/29 52/52/27 56/56/29
f 57/53/30 55/55/28 53/53/28
f 56/56/29 58/57/31 54/54/29
f 55/55/28 57/53/30 59/55/30
f 58/57/31 56/56/29 60/58/31
f 61/59/32 59/55/30 57/53/30
f 60/58/8 62/60/33 58/57/8
f 59/55/30 61/59/32 63/61/32
f 62/60/33 60/58/8 64/62/33
f 61/59/32 65/63/34 63/61/32
f 64/62/33 66/64/35 62/60/33
f 65/63/34 61/59/32 67/65/34
f 66/64/35 64/62/33 68/66/35
f 67/67/34 69/68/34 65/69/34
f 68/66/35 70/70/36 66/64/35
f 69/68/34 67/67/34 71/71/34
f 70/70/36 68/66/35 72/72/36
f 72/72/36 73/65/37 70/70/36
f 73/65/37 72/72/36 74/63/37
f 74/63/37 75/65/38 73/65/37
f 75/65/38 74/63/37 76/63/38
f 76/69/8 77/71/8 75/67/8
f 77/71/8 76/69/8 78/68/8
usemtl material_1_0
f 3//39 2//40 1//39
f 4//40 1//39 2//40
f 3//39 1//39 5//41
f 2//40 6//42 4//40
f 7//41 5//41 1//39
f 8//42 4//40 6//42
f 5//41 7//41 9//43
f 8//44 6//44 10//45
f 11//43 9//43 7//41
f 12//45 10//45 6//44
f 11//34 13//34 9//34
f 10//45 12//45 14//46
f 15//34 9//34 13//34
f 16//46 14//46 12//45
f 13//47 17//48 15//47
f 16//46 18//49 14//46
f 19//48 15//47 17//48
f 20//49 14//46 18//49
f 17//48 21//50 19//48
f 18//49 22//51 20//49
f 23//50 19//48 21//50
f 24//51 20//49 22//51
f 21//50 25//52 23//50
f 22//51 26//53 24//51
f 27//52 23//50 25//52
f 28//53 24//51 26//53
f 25//52 29//54 27//52
f 26//53 30//55 28//53
f 31//54 27//52 29//54
f 32//55 28//53 30//55
f 29//54 33//56 31//54
f 30//55 34//34 32//55
f 35//56 31//54 33//56
f 36//34 32//55 34//34
f 33//56 37//57 35//56
f 36//58 34//58 38//59
f 39//57 35//56 37//57
f 40//59 38//59 34//58
f 37//57 41//60 39//57
f 38//59 40//59 42//61
f 43//60 39//57 41//60
f 44//61 42//61 40//59
f 41//60 45//62 43//60
f 44//61 46//34 42//61
f 47//62 43//60 45//62
f 48//34 42//61 46//34
f 45//62 49//63 47//62
f 46//34 50//64 48//34
f 51//63 47//62 49//63
f 52//64 48//34 50//64
f 51//63 49//63 53//65
f 50//64 54//66 52//64
f 55//65 53//65 49//63
f 56//66 52//64 54//66
f 53//65 55//65 57//67
f 54//66 58//68 56//66
f 59//67 57//67 55//65
f 60//68 56//66 58//68
f 57//67 59//67 61//69
f 58//34 62//70 60//34
f 63//69 61//69 59//67
f 64//70 60//34 62//70
f 63//69 65//8 61//69
f 62//70 66//71 64//70
f 67//8 61//69 65//8
f 68//71 64//70 66//71
f 65//8 69//8 67//8
f 66//71 70//72 68//71
f 71//8 67//8 69//8
f 72//72 68//71 70//72
f 70//72 73//73 72//72
f 74//73 72//72 73//73
f 73//73 75//74 74//73
f 76//74 74//73 75//74
f 75//34 77//34 76//34
f 78//34 76//34 77//34
