# SSTK version 0.8.0
# 58
mtllib original-58.mtl
o DF_11_TL2/DF_11_TL/mesh21/mesh21-geometry#mesh21-geometry
v -0.353072 -0.191296 0.388807
v -0.517110 -0.191296 0.369276
v -0.517110 -0.191296 0.388807
v -0.353072 -0.191296 0.369276
v -0.517110 -0.291557 0.369276
v -0.515410 -0.192589 0.390522
v -0.513975 -0.193681 0.365289
v -0.517110 -0.291557 0.388807
v -0.513975 -0.291557 0.365289
v -0.353072 -0.192589 0.390522
v -0.353072 -0.193681 0.365289
v -0.511813 -0.195327 0.390598
v -0.515410 -0.291557 0.390522
v -0.394802 -0.284376 0.365289
v -0.394802 -0.291557 0.365289
v -0.353072 -0.195327 0.390598
v -0.353072 -0.284376 0.365289
v -0.505892 -0.199833 0.392004
v -0.511813 -0.291557 0.390598
v -0.353072 -0.291557 0.365289
v -0.353072 -0.199833 0.392004
v -0.500547 -0.203901 0.394594
v -0.505892 -0.291557 0.392004
v -0.353072 -0.203901 0.394594
v -0.499128 -0.204981 0.395649
v -0.500547 -0.291557 0.394594
v -0.353072 -0.204981 0.395649
v -0.497815 -0.205980 0.396117
v -0.499128 -0.291557 0.395649
v -0.353072 -0.205980 0.396117
v -0.496452 -0.207017 0.395822
v -0.497815 -0.291557 0.396117
v -0.353072 -0.207017 0.395822
v -0.495449 -0.207780 0.394854
v -0.496452 -0.291557 0.395822
v -0.353072 -0.207780 0.394854
v -0.495107 -0.208041 0.393503
v -0.495449 -0.291557 0.394854
v -0.353072 -0.208041 0.393503
v -0.495107 -0.291557 0.393503
v -0.495080 -0.208061 0.391734
v -0.495080 -0.291557 0.391734
v -0.353072 -0.208061 0.391734
v -0.492529 -0.210002 0.391734
v -0.353072 -0.210002 0.391734
v -0.492529 -0.291557 0.391734
v -0.492014 -0.210394 0.392972
v -0.353072 -0.210394 0.392972
v -0.492014 -0.291557 0.392972
v -0.491169 -0.211038 0.393999
v -0.353072 -0.211038 0.393999
v -0.491169 -0.291557 0.393999
v -0.489485 -0.212319 0.394984
v -0.353072 -0.212319 0.394984
v -0.489485 -0.291557 0.394984
v -0.487750 -0.213640 0.395168
v -0.353072 -0.213640 0.395168
v -0.487750 -0.291557 0.395168
v -0.487723 -0.213660 0.396529
v -0.353072 -0.213660 0.396529
v -0.487723 -0.291557 0.396529
v -0.486465 -0.214617 0.397854
v -0.353072 -0.214617 0.397854
v -0.486465 -0.291557 0.397854
v -0.416911 -0.267550 0.397854
v -0.353072 -0.267550 0.397854
v -0.416911 -0.291557 0.397854
v -0.415695 -0.268476 0.396579
v -0.415695 -0.291557 0.396579
v -0.353072 -0.268476 0.396579
v -0.415606 -0.268543 0.391789
v -0.415606 -0.291557 0.391789
v -0.353072 -0.268543 0.391789
v -0.414410 -0.269454 0.390750
v -0.353072 -0.269454 0.390750
v -0.414410 -0.291557 0.390750
v -0.410089 -0.272742 0.390750
v -0.353072 -0.272742 0.390750
v -0.410089 -0.291557 0.390750
v -0.409499 -0.273191 0.393410
v -0.353072 -0.273191 0.393410
v -0.409499 -0.291557 0.393410
v -0.407623 -0.274619 0.395386
v -0.353072 -0.274619 0.395386
v -0.407623 -0.291557 0.395386
v -0.404998 -0.276617 0.396115
v -0.353072 -0.276617 0.396115
v -0.404998 -0.291557 0.396115
v -0.402372 -0.278615 0.395386
v -0.353072 -0.278615 0.395386
v -0.402372 -0.291557 0.395386
v -0.400496 -0.280043 0.393410
v -0.400496 -0.291557 0.393410
v -0.353072 -0.280043 0.393410
v -0.399906 -0.280492 0.390750
v -0.399906 -0.291557 0.390750
v -0.353072 -0.280492 0.390750
v -0.397986 -0.281953 0.390750
v -0.353072 -0.281953 0.390750
v -0.397986 -0.291557 0.390750
v -0.396380 -0.283175 0.390289
v -0.353072 -0.283175 0.390289
v -0.396380 -0.291557 0.390289
v -0.395237 -0.284045 0.389081
v -0.395237 -0.291557 0.389081
v -0.353072 -0.284045 0.389081
v -0.394802 -0.284376 0.387383
v -0.394802 -0.291557 0.387383
v -0.353072 -0.284376 0.387383
v -0.353072 -0.284376 0.380395
v -0.394802 -0.291557 0.380395
v -0.394802 -0.284376 0.380395
v -0.353072 -0.291557 0.380395
vt 0.152142 0.882317
vt 0.152142 0.961024
vt 0 0.079498
vt 0 0.127604
vt 0.151522 0.960209
vt 0.150998 0.95952
vt 0.001504 0.079498
vt 0.151522 0.882317
vt 0.000815 0.126984
vt 0.150998 0.882317
vt 0.001504 0.12646
vt 0.150208 0.958483
vt 0.000815 0.079498
vt 0.107482 0.90234
vt 0.058684 0.079498
vt 0.150208 0.882317
vt 0.002541 0.12567
vt 0.107482 0.882317
vt 0.058684 0.082943
vt 0.148046 0.955642
vt 0.002541 0.079498
vt 0.104036 0.882317
vt 0.104036 0.90234
vt 0.148046 0.882317
vt 0.005382 0.123508
vt 0.146094 0.953077
vt 0.005382 0.079498
vt 0.146094 0.882317
vt 0.007947 0.121556
vt 0.145576 0.952396
vt 0.007947 0.079498
vt 0.145576 0.882317
vt 0.008628 0.121038
vt 0.145097 0.951766
vt 0.008628 0.079498
vt 0.145097 0.882317
vt 0.009258 0.120559
vt 0.144599 0.951112
vt 0.009258 0.079498
vt 0.144599 0.882317
vt 0.009912 0.120061
vt 0.144233 0.950631
vt 0.009912 0.079498
vt 0.144233 0.882317
vt 0.010393 0.119695
vt 0.144108 0.950467
vt 0.010393 0.079498
vt 0.144108 0.882317
vt 0.010557 0.079498
vt 0.010557 0.11957
vt 0.144098 0.950454
vt 0.01057 0.079498
vt 0.144098 0.882317
vt 0.01057 0.11956
vt 0.143167 0.94923
vt 0.011794 0.118629
vt 0.143167 0.882317
vt 0.011794 0.079498
vt 0.142979 0.948983
vt 0.012041 0.118441
vt 0.142979 0.882317
vt 0.012041 0.079498
vt 0.14267 0.948577
vt 0.012447 0.118132
vt 0.14267 0.882317
vt 0.012447 0.079498
vt 0.142055 0.94777
vt 0.013255 0.117517
vt 0.142055 0.882317
vt 0.013255 0.079498
vt 0.141422 0.946937
vt 0.014087 0.116883
vt 0.141422 0.882317
vt 0.014087 0.079498
vt 0.141412 0.946924
vt 0.0141 0.116874
vt 0.141412 0.882317
vt 0.0141 0.079498
vt 0.140953 0.946321
vt 0.014703 0.116414
vt 0.140953 0.882317
vt 0.014703 0.079498
vt 0.115555 0.912948
vt 0.048076 0.091017
vt 0.115555 0.882317
vt 0.048076 0.079498
vt 0.115111 0.912364
vt 0.04866 0.079498
vt 0.115111 0.882317
vt 0.04866 0.090572
vt 0.115078 0.912322
vt 0.048702 0.079498
vt 0.115078 0.882317
vt 0.048702 0.09054
vt 0.114641 0.911748
vt 0.049276 0.090103
vt 0.114641 0.882317
vt 0.049276 0.079498
vt 0.113064 0.909674
vt 0.05135 0.088525
vt 0.113064 0.882317
vt 0.05135 0.079498
vt 0.112848 0.909391
vt 0.051633 0.08831
vt 0.112848 0.882317
vt 0.051633 0.079498
vt 0.112163 0.908491
vt 0.052533 0.087625
vt 0.112163 0.882317
vt 0.052533 0.079498
vt 0.111205 0.907232
vt 0.053793 0.086666
vt 0.111205 0.882317
vt 0.053793 0.079498
vt 0.110246 0.905972
vt 0.055052 0.085707
vt 0.110246 0.882317
vt 0.055052 0.079498
vt 0.109561 0.905072
vt 0.055952 0.079498
vt 0.109561 0.882317
vt 0.055952 0.085023
vt 0.109345 0.904789
vt 0.056236 0.079498
vt 0.109345 0.882317
vt 0.056236 0.084807
vt 0.108644 0.903867
vt 0.057157 0.084106
vt 0.108644 0.882317
vt 0.057157 0.079498
vt 0.108058 0.903097
vt 0.057928 0.083519
vt 0.108058 0.882317
vt 0.057928 0.079498
vt 0.107641 0.902548
vt 0.058476 0.079498
vt 0.107641 0.882317
vt 0.058476 0.083102
vn 0 0.9482546301115439 0.3175108761476044
vn 0 0.9638838526293996 -0.26632295928121985
vn -0.9450278200270291 0 -0.32698993772738827
vn -0.9247352064258888 0 0.3806110849626801
vn 0 0.4584771114179747 0.8887062159711892
vn 0 0.49324982858486305 -0.8698876976949399
vn -0.43701910779842407 0 -0.8994522218656583
vn -0.39455801380854444 0 0.9188710321581897
vn 0 0.16443401423176432 0.9863880853718925
vn 0 0 -1
vn -0.12685097270896753 0 0.9919217865954899
vn 0 0.42111915114263815 0.907005325530619
vn -0.3355149569785974 0 0.9420348792075853
vn 0 0.621342234406062 0.7835392955961317
vn -0.5187288783160753 0 0.8549387994476251
vn 0 0.5693311846839494 0.8221082666816887
vn -0.4712621119971036 0 0.881993209608798
vn 0 0.0802259759801456 0.9967767015626082
vn -0.06444700844094749 0 0.9979211307027286
vn 0 -0.5563769913680896 0.8309299871085368
vn 0.47094918221003834 0 0.882160341307461
vn 0 -0.9093713929094546 0.41598517973350724
vn 0.8650370308675494 0 0.5017080179026985
vn 0 -0.994892821208822 0.10093698186071733
vn 0.9913292929170314 0 0.13140103882625329
vn 0 -0.9999311307625024 0.011736001534734402
vn 0.9998810892883854 0 0.015421001377080064
vn 0 0 1
vn 0 0.9076170820985067 0.41979903797292384
vn 0 0.9534139868328761 0.30166499583385586
vn -0.9233742208355902 0 0.383901091814372
vn -0.8569058686513362 0 0.515472920987028
vn 0 0.7401037165902877 0.6724927424807223
vn -0.6485230293281576 0 0.7611950344235238
vn 0 0.3864910635913121 0.9222931517495162
vn -0.31213702994361886 0 0.9500370911380126
vn 0 0.1375489950189381 0.9904949641312064
vn -0.1050979863872893 0 0.994461871193329
vn 0 0.9490847306184719 0.31502091058668286
vn 0 0.9998838340092985 0.015241997469676432
vn -0.9997994393469632 0 0.020027008800570546
vn -0.9250025784162961 0 0.37996082682719323
vn 0 0.45514991017048445 0.8904148242655217
vn -0.39462388950039357 0 0.9188427427125825
vn 0 -0.45403693106403226 0.8909828647229728
vn 0.3934158431496589 0 0.9193606334615612
vn 0 -0.9488767202057117 0.3156469069255257
vn 0.9247981708250347 0 0.3804580702766994
vn 0 -0.9334743605956143 0.35864413854210536
vn 0.905991543525336 0 0.42329578672670465
vn 0 -0.4128801629586718 0.9107853594756675
vn 0.3499859772122388 0 0.9367549390074195
vn 0 0.922464395728086 0.386082165625424
vn 0 0.9860495706721384 0.16645192752651386
vn -0.9762715506789323 0 0.21654990033466368
vn -0.8829048588548675 0 0.46955192493532233
vn 0 0.6030701295865171 0.7976881714056574
vn -0.5149989020261031 0 0.8571908369271733
vn 0 -0.6030701295865174 0.7976881714056571
vn 0.5149989020261031 0 0.8571908369271733
vn 0 -0.922464395728086 0.38608216562542347
vn 0.8829048588548675 0 0.46955192493532233
vn 0 -0.9860495706721384 0.16645192752651342
vn 0.9762715506789323 0 0.21654990033466368
vn 0 -0.17920108514338404 0.9838124674364692
vn 0.13917903303205972 0 0.990267235025102
vn 0 -0.6082310343769151 0.793760044862922
vn 0.5196688573548158 0 0.8543677654824884
vn 0 -0.9179111222120718 0.3967860528286935
vn 0.8756788571430764 0 0.48289392122141644
vn 0 -0.9953696598120719 0.09612096714869439
vn 0.9921490536147441 0 0.12506100675817194
vn 0 -1 0
vn 1 0 0
vn 0 -0.9482546301115439 -0.3175108761476044
vn 0 -0.9638838526293996 0.26632295928121985
vn 0.9450278200270291 0 0.32698993772738827
vn 0.9247352064258888 0 -0.3806110849626801
vn 0 -0.4584771114179747 -0.8887062159711892
vn 0 -0.49324982858486305 0.8698876976949399
vn 0.43701910779842407 0 0.8994522218656583
vn 0.39455801380854444 0 -0.9188710321581897
vn 0 -0.16443401423176432 -0.9863880853718925
vn 0.12685097270896753 0 -0.9919217865954899
vn 0 -0.42111915114263815 -0.907005325530619
vn 0.3355149569785974 0 -0.9420348792075853
vn 0 -0.621342234406062 -0.7835392955961317
vn 0.5187288783160753 0 -0.8549387994476251
vn 0 -0.5693311846839494 -0.8221082666816887
vn 0.4712621119971036 0 -0.881993209608798
vn 0 -0.0802259759801456 -0.9967767015626082
vn 0.06444700844094749 0 -0.9979211307027286
vn 0 0.5563769913680896 -0.8309299871085368
vn -0.47094918221003834 0 -0.882160341307461
vn 0 0.9093713929094546 -0.41598517973350724
vn -0.8650370308675494 0 -0.5017080179026985
vn 0 0.994892821208822 -0.10093698186071733
vn -0.9913292929170314 0 -0.13140103882625329
vn 0 0.9999311307625024 -0.011736001534734402
vn -0.9998810892883854 0 -0.015421001377080064
vn 0 -0.9534139868328761 -0.30166499583385586
vn 0 -0.9076170820985067 -0.41979903797292384
vn 0.9233742208355902 0 -0.383901091814372
vn 0.8569058686513362 0 -0.515472920987028
vn 0 -0.7401037165902877 -0.6724927424807223
vn 0.6485230293281576 0 -0.7611950344235238
vn 0 -0.3864910635913121 -0.9222931517495162
vn 0.31213702994361886 0 -0.9500370911380126
vn 0 -0.1375489950189381 -0.9904949641312064
vn 0.1050979863872893 0 -0.994461871193329
vn 0 -0.9998838340092985 -0.015241997469676432
vn 0 -0.9490847306184719 -0.31502091058668286
vn 0.9997994393469632 0 -0.020027008800570546
vn 0.9250025784162961 0 -0.37996082682719323
vn 0 -0.45514991017048445 -0.8904148242655217
vn 0.39462388950039357 0 -0.9188427427125825
vn 0 0.45403693106403226 -0.8909828647229728
vn -0.3934158431496589 0 -0.9193606334615612
vn 0 0.9488767202057117 -0.3156469069255257
vn -0.9247981708250347 0 -0.3804580702766994
vn 0 0.9334743605956143 -0.35864413854210536
vn -0.905991543525336 0 -0.42329578672670465
vn 0 0.4128801629586718 -0.9107853594756675
vn -0.3499859772122388 0 -0.9367549390074195
vn 0 -0.9860495706721384 -0.16645192752651386
vn 0 -0.922464395728086 -0.386082165625424
vn 0.9762715506789323 0 -0.21654990033466368
vn 0.8829048588548675 0 -0.46955192493532233
vn 0 -0.6030701295865171 -0.7976881714056574
vn 0.5149989020261031 0 -0.8571908369271733
vn 0 0.6030701295865174 -0.7976881714056571
vn -0.5149989020261031 0 -0.8571908369271733
vn 0 0.922464395728086 -0.38608216562542347
vn -0.8829048588548675 0 -0.46955192493532233
vn 0 0.9860495706721384 -0.16645192752651342
vn -0.9762715506789323 0 -0.21654990033466368
vn 0 0.17920108514338404 -0.9838124674364692
vn -0.13917903303205972 0 -0.990267235025102
vn 0 0.6082310343769151 -0.793760044862922
vn -0.5196688573548158 0 -0.8543677654824884
vn 0 0.9179111222120718 -0.3967860528286935
vn -0.8756788571430764 0 -0.48289392122141644
vn 0 0.9953696598120719 -0.09612096714869439
vn -0.9921490536147441 0 -0.12506100675817194
vn 0 1 0
vn -1 0 0
usemtl material_0_0
f 1/1/1 2/2/2 3/2/1
f 2/2/2 1/1/1 4/1/2
f 5/3/3 3/4/4 2/4/3
f 6/5/5 1/1/1 3/2/1
f 4/1/2 7/6/6 2/2/2
f 3/4/4 5/3/3 8/3/4
f 2/4/3 9/7/7 5/3/3
f 1/1/1 6/5/5 10/8/5
f 8/3/4 6/9/8 3/4/4
f 7/6/6 4/1/2 11/10/6
f 9/7/7 2/4/3 7/11/7
f 12/12/9 10/8/5 6/5/5
f 6/9/8 8/3/4 13/13/8
f 11/10/6 14/14/10 7/6/6
f 7/11/7 15/15/10 9/7/7
f 10/8/5 12/12/9 16/16/9
f 13/13/8 12/17/11 6/9/8
f 14/14/10 11/10/6 17/18/10
f 15/15/10 7/11/7 14/19/10
f 18/20/12 16/16/9 12/12/9
f 12/17/11 13/13/8 19/21/11
f 20/22/10 14/14/10 17/18/10
f 14/14/10 20/22/10 15/23/10
f 16/16/9 18/20/12 21/24/12
f 19/21/11 18/25/13 12/17/11
f 22/26/14 21/24/12 18/20/12
f 18/25/13 19/21/11 23/27/13
f 21/24/12 22/26/14 24/28/14
f 23/27/13 22/29/15 18/25/13
f 25/30/16 24/28/14 22/26/14
f 22/29/15 23/27/13 26/31/15
f 24/28/14 25/30/16 27/32/16
f 26/31/15 25/33/17 22/29/15
f 28/34/18 27/32/16 25/30/16
f 25/33/17 26/31/15 29/35/17
f 27/32/16 28/34/18 30/36/18
f 29/35/17 28/37/19 25/33/17
f 31/38/20 30/36/18 28/34/18
f 28/37/19 29/35/17 32/39/19
f 30/36/18 31/38/20 33/40/20
f 32/39/19 31/41/21 28/37/19
f 34/42/22 33/40/20 31/38/20
f 31/41/21 32/39/19 35/43/21
f 33/40/20 34/42/22 36/44/22
f 35/43/21 34/45/23 31/41/21
f 37/46/24 36/44/22 34/42/22
f 34/45/23 35/43/21 38/47/23
f 36/44/22 37/46/24 39/48/24
f 34/45/23 40/49/25 37/50/25
f 40/49/25 34/45/23 38/47/23
f 41/51/26 39/48/24 37/46/24
f 42/52/27 37/50/25 40/49/25
f 39/48/24 41/51/26 43/53/26
f 37/50/25 42/52/27 41/54/27
f 44/55/28 43/53/28 41/51/28
f 42/52/28 44/56/28 41/54/28
f 43/53/28 44/55/28 45/57/28
f 44/56/28 42/52/28 46/58/28
f 47/59/29 45/57/30 44/55/30
f 46/58/31 47/60/32 44/56/31
f 45/57/30 47/59/29 48/61/29
f 47/60/32 46/58/31 49/62/32
f 50/63/33 48/61/29 47/59/29
f 49/62/32 50/64/34 47/60/32
f 48/61/29 50/63/33 51/65/33
f 50/64/34 49/62/32 52/66/34
f 53/67/35 51/65/33 50/63/33
f 52/66/34 53/68/36 50/64/34
f 51/65/33 53/67/35 54/69/35
f 53/68/36 52/66/34 55/70/36
f 56/71/37 54/69/35 53/67/35
f 55/70/36 56/72/38 53/68/36
f 54/69/35 56/71/37 57/73/37
f 56/72/38 55/70/36 58/74/38
f 59/75/39 57/73/40 56/71/40
f 58/74/41 59/76/42 56/72/41
f 57/73/40 59/75/39 60/77/39
f 59/76/42 58/74/41 61/78/42
f 62/79/43 60/77/39 59/75/39
f 61/78/42 62/80/44 59/76/42
f 60/77/39 62/79/43 63/81/43
f 62/80/44 61/78/42 64/82/44
f 65/83/45 63/81/43 62/79/43
f 64/82/44 65/84/46 62/80/44
f 63/81/43 65/83/45 66/85/45
f 65/84/46 64/82/44 67/86/46
f 68/87/47 66/85/45 65/83/45
f 69/88/48 65/84/46 67/86/46
f 66/85/45 68/87/47 70/89/47
f 65/84/46 69/88/48 68/90/48
f 71/91/49 70/89/47 68/87/47
f 72/92/50 68/90/48 69/88/48
f 70/89/47 71/91/49 73/93/49
f 68/90/48 72/92/50 71/94/50
f 74/95/51 73/93/49 71/91/49
f 72/92/50 74/96/52 71/94/50
f 73/93/49 74/95/51 75/97/51
f 74/96/52 72/92/50 76/98/52
f 77/99/28 75/97/51 74/95/51
f 76/98/52 77/100/28 74/96/52
f 75/97/51 77/99/28 78/101/28
f 77/100/28 76/98/52 79/102/28
f 80/103/53 78/101/54 77/99/54
f 79/102/55 80/104/56 77/100/55
f 78/101/54 80/103/53 81/105/53
f 80/104/56 79/102/55 82/106/56
f 83/107/57 81/105/53 80/103/53
f 82/106/56 83/108/58 80/104/56
f 81/105/53 83/107/57 84/109/57
f 83/108/58 82/106/56 85/110/58
f 86/111/28 84/109/57 83/107/57
f 85/110/58 86/112/28 83/108/58
f 84/109/57 86/111/28 87/113/28
f 86/112/28 85/110/58 88/114/28
f 89/115/59 87/113/28 86/111/28
f 88/114/28 89/116/60 86/112/28
f 87/113/28 89/115/59 90/117/59
f 89/116/60 88/114/28 91/118/60
f 92/119/61 90/117/59 89/115/59
f 93/120/62 89/116/60 91/118/60
f 90/117/59 92/119/61 94/121/61
f 89/116/60 93/120/62 92/122/62
f 95/123/63 94/121/61 92/119/61
f 96/124/64 92/122/62 93/120/62
f 94/121/61 95/123/63 97/125/63
f 92/122/62 96/124/64 95/126/64
f 98/127/65 97/125/28 95/123/28
f 96/124/28 98/128/66 95/126/28
f 97/125/28 98/127/65 99/129/65
f 98/128/66 96/124/28 100/130/66
f 101/131/67 99/129/65 98/127/65
f 100/130/66 101/132/68 98/128/66
f 99/129/65 101/131/67 102/133/67
f 101/132/68 100/130/66 103/134/68
f 104/135/69 102/133/67 101/131/67
f 105/136/70 101/132/68 103/134/68
f 102/133/67 104/135/69 106/137/69
f 101/132/68 105/136/70 104/138/70
f 107/14/71 106/137/69 104/135/69
f 108/15/72 104/138/70 105/136/70
f 106/137/69 107/14/71 109/18/71
f 104/138/70 108/15/72 107/19/72
f 107/14/71 110/18/73 109/18/71
f 111/15/74 107/19/72 108/15/72
f 110/18/73 107/14/71 112/14/73
f 107/19/72 111/15/74 112/19/74
f 111/23/28 110/18/28 112/14/28
f 110/18/28 111/23/28 113/22/28
usemtl material_1_0
f 3//75 2//76 1//75
f 4//76 1//75 2//76
f 2//77 3//78 5//77
f 3//75 1//75 6//79
f 2//76 7//80 4//76
f 8//78 5//77 3//78
f 5//77 9//81 2//77
f 10//79 6//79 1//75
f 3//78 6//82 8//78
f 11//80 4//76 7//80
f 7//81 2//77 9//81
f 6//79 10//79 12//83
f 13//82 8//78 6//82
f 7//80 14//28 11//80
f 9//81 15//28 7//81
f 16//83 12//83 10//79
f 6//82 12//84 13//82
f 17//28 11//80 14//28
f 14//28 7//81 15//28
f 12//83 16//83 18//85
f 19//84 13//82 12//84
f 17//28 14//28 20//28
f 15//28 20//28 14//28
f 21//85 18//85 16//83
f 12//84 18//86 19//84
f 18//85 21//85 22//87
f 23//86 19//84 18//86
f 24//87 22//87 21//85
f 18//86 22//88 23//86
f 22//87 24//87 25//89
f 26//88 23//86 22//88
f 27//89 25//89 24//87
f 22//88 25//90 26//88
f 25//89 27//89 28//91
f 29//90 26//88 25//90
f 30//91 28//91 27//89
f 25//90 28//92 29//90
f 28//91 30//91 31//93
f 32//92 29//90 28//92
f 33//93 31//93 30//91
f 28//92 31//94 32//92
f 31//93 33//93 34//95
f 35//94 32//92 31//94
f 36//95 34//95 33//93
f 31//94 34//96 35//94
f 34//95 36//95 37//97
f 38//96 35//94 34//96
f 39//97 37//97 36//95
f 37//98 40//98 34//96
f 38//96 34//96 40//98
f 37//97 39//97 41//99
f 40//98 37//98 42//100
f 43//99 41//99 39//97
f 41//100 42//100 37//98
f 41//10 43//10 44//10
f 41//10 44//10 42//10
f 45//10 44//10 43//10
f 46//10 42//10 44//10
f 44//101 45//101 47//102
f 44//103 47//104 46//103
f 48//102 47//102 45//101
f 49//104 46//103 47//104
f 47//102 48//102 50//105
f 47//104 50//106 49//104
f 51//105 50//105 48//102
f 52//106 49//104 50//106
f 50//105 51//105 53//107
f 50//106 53//108 52//106
f 54//107 53//107 51//105
f 55//108 52//106 53//108
f 53//107 54//107 56//109
f 53//108 56//110 55//108
f 57//109 56//109 54//107
f 58//110 55//108 56//110
f 56//111 57//111 59//112
f 56//113 59//114 58//113
f 60//112 59//112 57//111
f 61//114 58//113 59//114
f 59//112 60//112 62//115
f 59//114 62//116 61//114
f 63//115 62//115 60//112
f 64//116 61//114 62//116
f 62//115 63//115 65//117
f 62//116 65//118 64//116
f 66//117 65//117 63//115
f 67//118 64//116 65//118
f 65//117 66//117 68//119
f 67//118 65//118 69//120
f 70//119 68//119 66//117
f 68//120 69//120 65//118
f 68//119 70//119 71//121
f 69//120 68//120 72//122
f 73//121 71//121 70//119
f 71//122 72//122 68//120
f 71//121 73//121 74//123
f 71//122 74//124 72//122
f 75//123 74//123 73//121
f 76//124 72//122 74//124
f 74//123 75//123 77//10
f 74//124 77//10 76//124
f 78//10 77//10 75//123
f 79//10 76//124 77//10
f 77//125 78//125 80//126
f 77//127 80//128 79//127
f 81//126 80//126 78//125
f 82//128 79//127 80//128
f 80//126 81//126 83//129
f 80//128 83//130 82//128
f 84//129 83//129 81//126
f 85//130 82//128 83//130
f 83//129 84//129 86//10
f 83//130 86//10 85//130
f 87//10 86//10 84//129
f 88//10 85//130 86//10
f 86//10 87//10 89//131
f 86//10 89//132 88//10
f 90//131 89//131 87//10
f 91//132 88//10 89//132
f 89//131 90//131 92//133
f 91//132 89//132 93//134
f 94//133 92//133 90//131
f 92//134 93//134 89//132
f 92//133 94//133 95//135
f 93//134 92//134 96//136
f 97//135 95//135 94//133
f 95//136 96//136 92//134
f 95//10 97//10 98//137
f 95//10 98//138 96//10
f 99//137 98//137 97//10
f 100//138 96//10 98//138
f 98//137 99//137 101//139
f 98//138 101//140 100//138
f 102//139 101//139 99//137
f 103//140 100//138 101//140
f 101//139 102//139 104//141
f 103//140 101//140 105//142
f 106//141 104//141 102//139
f 104//142 105//142 101//140
f 104//141 106//141 107//143
f 105//142 104//142 108//144
f 109//143 107//143 106//141
f 107//144 108//144 104//142
f 109//143 110//145 107//143
f 108//144 107//144 111//146
f 112//145 107//143 110//145
f 112//146 111//146 107//144
f 112//10 110//10 111//10
f 113//10 111//10 110//10
