# SSTK version 0.8.0
# 61
mtllib original-61.mtl
o DF_11_BL2/DF_11_BL/mesh24/mesh24-geometry#mesh24-geometry
v -0.353072 -0.543813 0.397854
v -0.415695 -0.542887 0.396579
v -0.416911 -0.543813 0.397854
v -0.353072 -0.542887 0.396579
v -0.416911 -0.519807 0.397854
v -0.353072 -0.596746 0.397854
v -0.415606 -0.542820 0.391789
v -0.415695 -0.519807 0.396579
v -0.486465 -0.519807 0.397854
v -0.486465 -0.596746 0.397854
v -0.353072 -0.542820 0.391789
v -0.353072 -0.597703 0.396529
v -0.414410 -0.541909 0.390750
v -0.415606 -0.519807 0.391789
v -0.487723 -0.597703 0.396529
v -0.353072 -0.541909 0.390750
v -0.487723 -0.519807 0.396529
v -0.353072 -0.597724 0.395168
v -0.353072 -0.538621 0.390750
v -0.414410 -0.519807 0.390750
v -0.487750 -0.597724 0.395168
v -0.410089 -0.538621 0.390750
v -0.487750 -0.519807 0.395168
v -0.489485 -0.599044 0.394984
v -0.409499 -0.538172 0.393410
v -0.410089 -0.519807 0.390750
v -0.489485 -0.519807 0.394984
v -0.353072 -0.599044 0.394984
v -0.353072 -0.538172 0.393410
v -0.409499 -0.519807 0.393410
v -0.353072 -0.600325 0.393999
v -0.491169 -0.519807 0.393999
v -0.407623 -0.536745 0.395386
v -0.407623 -0.519807 0.395386
v -0.491169 -0.600325 0.393999
v -0.353072 -0.536745 0.395386
v -0.353072 -0.600969 0.392972
v -0.492014 -0.600969 0.392972
v -0.404998 -0.534746 0.396115
v -0.492014 -0.519807 0.392972
v -0.353072 -0.534746 0.396115
v -0.404998 -0.519807 0.396115
v -0.353072 -0.601361 0.391734
v -0.492529 -0.601361 0.391734
v -0.353072 -0.532748 0.395386
v -0.402372 -0.532748 0.395386
v -0.492529 -0.519807 0.391734
v -0.402372 -0.519807 0.395386
v -0.495080 -0.603302 0.391734
v -0.495080 -0.519807 0.391734
v -0.400496 -0.531321 0.393410
v -0.353072 -0.603302 0.391734
v -0.353072 -0.531321 0.393410
v -0.400496 -0.519807 0.393410
v -0.353072 -0.603323 0.393503
v -0.495107 -0.519807 0.393503
v -0.399906 -0.530872 0.390750
v -0.495107 -0.603323 0.393503
v -0.353072 -0.530872 0.390750
v -0.399906 -0.519807 0.390750
v -0.353072 -0.603583 0.394854
v -0.495449 -0.519807 0.394854
v -0.353072 -0.529410 0.390750
v -0.397986 -0.529410 0.390750
v -0.495449 -0.603583 0.394854
v -0.397986 -0.519807 0.390750
v -0.353072 -0.604346 0.395822
v -0.496452 -0.519807 0.395822
v -0.353072 -0.528188 0.390289
v -0.396380 -0.528188 0.390289
v -0.496452 -0.604346 0.395822
v -0.396380 -0.519807 0.390289
v -0.353072 -0.605383 0.396117
v -0.497815 -0.519807 0.396117
v -0.395237 -0.527318 0.389081
v -0.497815 -0.605383 0.396117
v -0.353072 -0.527318 0.389081
v -0.395237 -0.519807 0.389081
v -0.499128 -0.606382 0.395649
v -0.499128 -0.519807 0.395649
v -0.394802 -0.526987 0.387383
v -0.353072 -0.606382 0.395649
v -0.353072 -0.526987 0.387383
v -0.394802 -0.519807 0.387383
v -0.500547 -0.607462 0.394594
v -0.500547 -0.519807 0.394594
v -0.394802 -0.526987 0.380395
v -0.353072 -0.607462 0.394594
v -0.353072 -0.526987 0.380395
v -0.394802 -0.519807 0.380395
v -0.353072 -0.611530 0.392004
v -0.505892 -0.519807 0.392004
v -0.505892 -0.611530 0.392004
v -0.353072 -0.519807 0.380395
v -0.511813 -0.616036 0.390598
v -0.511813 -0.519807 0.390598
v -0.353072 -0.616036 0.390598
v -0.515410 -0.618774 0.390522
v -0.515410 -0.519807 0.390522
v -0.353072 -0.618774 0.390522
v -0.353072 -0.620067 0.388807
v -0.517110 -0.620067 0.388807
v -0.517110 -0.519807 0.388807
v -0.353072 -0.620067 0.369276
v -0.517110 -0.620067 0.369276
v -0.517110 -0.519807 0.369276
v -0.513975 -0.617682 0.365289
v -0.353072 -0.617682 0.365289
v -0.513975 -0.519807 0.365289
v -0.353072 -0.526987 0.365289
v -0.394802 -0.526987 0.365289
v -0.394802 -0.519807 0.365289
v -0.353072 -0.519807 0.365289
vt 0.061126 0.882317
vt 0.06157 0.912364
vt 0.061126 0.912948
vt 0.06157 0.882317
vt 0.04866 0.037032
vt 0.048076 0.048106
vt 0.048076 0.036588
vt 0.035728 0.882317
vt 0.061602 0.912322
vt 0.04866 0.048106
vt 0.014703 0.048106
vt 0.035728 0.946321
vt 0.061602 0.882317
vt 0.048702 0.037064
vt 0.014703 0.01119
vt 0.035269 0.882317
vt 0.062039 0.911748
vt 0.048702 0.048106
vt 0.0141 0.010731
vt 0.035269 0.946924
vt 0.062039 0.882317
vt 0.049276 0.037501
vt 0.0141 0.048106
vt 0.035259 0.882317
vt 0.063617 0.882317
vt 0.049276 0.048106
vt 0.014087 0.010721
vt 0.035259 0.946937
vt 0.063617 0.909674
vt 0.05135 0.039079
vt 0.014087 0.048106
vt 0.034625 0.94777
vt 0.063832 0.909391
vt 0.05135 0.048106
vt 0.013255 0.048106
vt 0.034625 0.882317
vt 0.013255 0.010087
vt 0.063832 0.882317
vt 0.051633 0.048106
vt 0.051633 0.039294
vt 0.034011 0.882317
vt 0.012447 0.048106
vt 0.064517 0.908491
vt 0.052533 0.048106
vt 0.034011 0.948577
vt 0.012447 0.009472
vt 0.064517 0.882317
vt 0.052533 0.039979
vt 0.033702 0.882317
vt 0.012041 0.009164
vt 0.065476 0.907231
vt 0.053793 0.040938
vt 0.033702 0.948983
vt 0.012041 0.048106
vt 0.065476 0.882317
vt 0.053793 0.048106
vt 0.033514 0.882317
vt 0.011794 0.008976
vt 0.066435 0.882317
vt 0.055052 0.041897
vt 0.033514 0.94923
vt 0.011794 0.048106
vt 0.066435 0.905972
vt 0.055052 0.048106
vt 0.032583 0.950454
vt 0.01057 0.048106
vt 0.06712 0.905072
vt 0.055952 0.042582
vt 0.032583 0.882317
vt 0.01057 0.008044
vt 0.06712 0.882317
vt 0.055952 0.048106
vt 0.032573 0.882317
vt 0.010557 0.048106
vt 0.067335 0.904789
vt 0.056236 0.042797
vt 0.032573 0.950467
vt 0.010557 0.008034
vt 0.067335 0.882317
vt 0.056236 0.048106
vt 0.032448 0.882317
vt 0.010393 0.048106
vt 0.068037 0.882317
vt 0.057157 0.043498
vt 0.032448 0.950631
vt 0.010393 0.007909
vt 0.068037 0.903867
vt 0.057157 0.048106
vt 0.032081 0.882317
vt 0.009912 0.048106
vt 0.068623 0.882317
vt 0.057928 0.044085
vt 0.032081 0.951112
vt 0.009912 0.007543
vt 0.068623 0.903097
vt 0.057928 0.048106
vt 0.031584 0.882317
vt 0.009258 0.048106
vt 0.06904 0.902548
vt 0.058476 0.044502
vt 0.031584 0.951766
vt 0.009258 0.007046
vt 0.06904 0.882317
vt 0.058476 0.048106
vt 0.031104 0.952396
vt 0.008628 0.048106
vt 0.069199 0.90234
vt 0.058684 0.044661
vt 0.031104 0.882317
vt 0.008628 0.006566
vt 0.069199 0.882317
vt 0.058684 0.048106
vt 0.030586 0.953077
vt 0.007947 0.048106
vt 0.030586 0.882317
vt 0.007947 0.006048
vt 0.028635 0.882317
vt 0.005382 0.048106
vt 0.072644 0.90234
vt 0.028635 0.955642
vt 0.005382 0.004096
vt 0.072644 0.882317
vt 0.026472 0.958483
vt 0.002541 0.048106
vt 0.026472 0.882317
vt 0.002541 0.001934
vt 0.025159 0.960209
vt 0.000815 0.048106
vt 0.025159 0.882317
vt 0.000815 0.000621
vt 0.024538 0.882317
vt 0 0
vt 0.024538 0.961024
vt 0 0.048106
vt 0.025683 0.95952
vt 0.001504 0.001145
vt 0.025683 0.882317
vt 0.001504 0.048106
vn 0 0.4540369310640318 0.8909828647229731
vn 0 0.9488767202057117 0.3156469069255262
vn 0.9247981708250347 0 0.3804580702766994
vn 0.3934158431496589 0 0.9193606334615612
vn 0 -0.455149910170485 0.8904148242655215
vn 0 0.9334743605956143 0.3586441385421059
vn -0.39462388950039357 0 0.9188427427125825
vn 0.905991543525336 0 0.42329578672670465
vn 0 -0.9490847306184719 0.31502091058668236
vn 0 0.41288016295867136 0.9107853594756677
vn -0.9250025784162961 0 0.37996082682719323
vn 0.3499859772122388 0 0.9367549390074195
vn 0 -0.9998838340092985 0.015241997469675988
vn 0 0 1
vn -0.9997994393469632 0 0.020027008800570546
vn 0 -0.3864910635913125 0.922293151749516
vn 0 -0.13754899501893855 0.9904949641312064
vn 0 -0.9860495706721384 0.16645192752651342
vn 0 -0.922464395728086 0.38608216562542347
vn -0.31213702994361886 0 0.9500370911380126
vn -0.1050979863872893 0 0.994461871193329
vn -0.8829048588548675 0 0.46955192493532233
vn -0.9762715506789323 0 0.21654990033466368
vn 0 -0.740103716590288 0.6724927424807221
vn -0.6485230293281576 0 0.7611950344235238
vn 0 -0.6030701295865174 0.7976881714056571
vn -0.5149989020261031 0 0.8571908369271733
vn 0 -0.9076170820985069 0.4197990379729234
vn -0.8569058686513362 0 0.515472920987028
vn 0 -0.9534139868328761 0.30166499583385536
vn -0.9233742208355902 0 0.383901091814372
vn 0 0.6030701295865171 0.7976881714056574
vn 0.5149989020261031 0 0.8571908369271733
vn 0 0.922464395728086 0.386082165625424
vn 0.8829048588548675 0 0.46955192493532233
vn 0 0.9999311307625024 0.011736001534734846
vn 0 0.994892821208822 0.10093698186071777
vn 0.9913292929170314 0 0.13140103882625329
vn 0.9998810892883854 0 0.015421001377080064
vn 0 0.9860495706721384 0.16645192752651386
vn 0.9762715506789323 0 0.21654990033466368
vn 0 0.9093713929094543 0.4159851797335077
vn 0.8650370308675494 0 0.5017080179026985
vn 0 0.1792010851433836 0.9838124674364692
vn 0.13917903303205972 0 0.990267235025102
vn 0 0.5563769913680892 0.830929987108537
vn 0.47094918221003834 0 0.882160341307461
vn 0 0.6082310343769147 0.7937600448629223
vn 0.5196688573548158 0 0.8543677654824884
vn 0 -0.08022597598014604 0.9967767015626082
vn -0.06444700844094749 0 0.9979211307027286
vn 0 0.9179111222120716 0.39678605282869395
vn 0.8756788571430764 0 0.48289392122141644
vn 0 -0.5693311846839498 0.8221082666816885
vn -0.4712621119971036 0 0.881993209608798
vn 0 0.9953696598120719 0.09612096714869484
vn 0.9921490536147441 0 0.12506100675817194
vn 0 -0.6213422344060624 0.7835392955961314
vn -0.5187288783160753 0 0.8549387994476251
vn 0 1 0
vn 1 0 0
vn 0 -0.4211191511426386 0.9070053255306187
vn -0.3355149569785974 0 0.9420348792075853
vn 0 -0.16443401423176476 0.9863880853718925
vn -0.12685097270896753 0 0.9919217865954899
vn 0 -0.45847711141797515 0.8887062159711889
vn -0.39455801380854444 0 0.9188710321581897
vn 0 -0.9482546301115439 0.3175108761476039
vn -0.9247352064258888 0 0.3806110849626801
vn 0 -0.9638838526293994 -0.2663229592812203
vn -0.9450278200270291 0 -0.32698993772738827
vn 0 -0.4932498285848627 -0.8698876976949401
vn -0.43701910779842407 0 -0.8994522218656583
vn 0 0 -1
vn 0 -0.4540369310640318 -0.8909828647229731
vn 0 -0.9488767202057117 -0.3156469069255262
vn -0.3934158431496589 0 -0.9193606334615612
vn -0.9247981708250347 0 -0.3804580702766994
vn 0 0.455149910170485 -0.8904148242655215
vn 0 -0.9334743605956143 -0.3586441385421059
vn 0.39462388950039357 0 -0.9188427427125825
vn -0.905991543525336 0 -0.42329578672670465
vn 0 0.9490847306184719 -0.31502091058668236
vn 0 -0.41288016295867136 -0.9107853594756677
vn 0.9250025784162961 0 -0.37996082682719323
vn -0.3499859772122388 0 -0.9367549390074195
vn 0 0.9998838340092985 -0.015241997469675988
vn 0.9997994393469632 0 -0.020027008800570546
vn 0 0.13754899501893855 -0.9904949641312064
vn 0 0.3864910635913125 -0.922293151749516
vn 0 0.9860495706721384 -0.16645192752651342
vn 0 0.922464395728086 -0.38608216562542347
vn 0.1050979863872893 0 -0.994461871193329
vn 0.31213702994361886 0 -0.9500370911380126
vn 0.8829048588548675 0 -0.46955192493532233
vn 0.9762715506789323 0 -0.21654990033466368
vn 0 0.740103716590288 -0.6724927424807221
vn 0.6485230293281576 0 -0.7611950344235238
vn 0 0.6030701295865174 -0.7976881714056571
vn 0.5149989020261031 0 -0.8571908369271733
vn 0 0.9076170820985069 -0.4197990379729234
vn 0.8569058686513362 0 -0.515472920987028
vn 0 0.9534139868328761 -0.30166499583385536
vn 0.9233742208355902 0 -0.383901091814372
vn 0 -0.6030701295865171 -0.7976881714056574
vn -0.5149989020261031 0 -0.8571908369271733
vn 0 -0.922464395728086 -0.386082165625424
vn -0.8829048588548675 0 -0.46955192493532233
vn 0 -0.9999311307625024 -0.011736001534734846
vn 0 -0.994892821208822 -0.10093698186071777
vn -0.9998810892883854 0 -0.015421001377080064
vn -0.9913292929170314 0 -0.13140103882625329
vn 0 -0.9860495706721384 -0.16645192752651386
vn -0.9762715506789323 0 -0.21654990033466368
vn 0 -0.9093713929094543 -0.4159851797335077
vn -0.8650370308675494 0 -0.5017080179026985
vn 0 -0.1792010851433836 -0.9838124674364692
vn -0.13917903303205972 0 -0.990267235025102
vn 0 -0.5563769913680892 -0.830929987108537
vn -0.47094918221003834 0 -0.882160341307461
vn 0 -0.6082310343769147 -0.7937600448629223
vn -0.5196688573548158 0 -0.8543677654824884
vn 0 0.08022597598014604 -0.9967767015626082
vn 0.06444700844094749 0 -0.9979211307027286
vn 0 -0.9179111222120716 -0.39678605282869395
vn -0.8756788571430764 0 -0.48289392122141644
vn 0 0.5693311846839498 -0.8221082666816885
vn 0.4712621119971036 0 -0.881993209608798
vn 0 -0.9953696598120719 -0.09612096714869484
vn -0.9921490536147441 0 -0.12506100675817194
vn 0 0.6213422344060624 -0.7835392955961314
vn 0.5187288783160753 0 -0.8549387994476251
vn 0 -1 0
vn -1 0 0
vn 0 0.4211191511426386 -0.9070053255306187
vn 0.3355149569785974 0 -0.9420348792075853
vn 0 0.16443401423176476 -0.9863880853718925
vn 0.12685097270896753 0 -0.9919217865954899
vn 0 0.45847711141797515 -0.8887062159711889
vn 0.39455801380854444 0 -0.9188710321581897
vn 0 0.9482546301115439 -0.3175108761476039
vn 0.9247352064258888 0 -0.3806110849626801
vn 0 0.9638838526293994 0.2663229592812203
vn 0.9450278200270291 0 0.32698993772738827
vn 0 0.4932498285848627 0.8698876976949401
vn 0.43701910779842407 0 0.8994522218656583
usemtl material_0_0
f 1/1/1 2/2/2 3/3/1
f 2/2/2 1/1/1 4/4/2
f 2/5/3 5/6/4 3/7/4
f 3/3/1 6/8/5 1/1/1
f 4/4/2 7/9/6 2/2/2
f 5/6/4 2/5/3 8/10/3
f 9/11/7 3/7/4 5/6/4
f 6/8/5 3/3/1 10/12/5
f 7/9/6 4/4/2 11/13/6
f 7/14/8 8/10/3 2/5/3
f 3/7/4 9/11/7 10/15/7
f 10/12/5 12/16/9 6/8/5
f 11/13/6 13/17/10 7/9/6
f 8/10/3 7/14/8 14/18/8
f 9/11/7 15/19/11 10/15/7
f 12/16/9 10/12/5 15/20/9
f 13/17/10 11/13/6 16/21/10
f 13/22/12 14/18/8 7/14/8
f 15/19/11 9/11/7 17/23/11
f 15/20/9 18/24/13 12/16/9
f 19/25/14 13/17/10 16/21/10
f 14/18/8 13/22/12 20/26/12
f 17/23/11 21/27/15 15/19/11
f 18/24/13 15/20/9 21/28/13
f 13/17/10 19/25/14 22/29/14
f 22/30/14 20/26/12 13/22/12
f 21/27/15 17/23/11 23/31/15
f 24/32/16 18/24/17 21/28/17
f 19/25/18 25/33/19 22/29/18
f 20/26/12 22/30/14 26/34/14
f 27/35/20 21/27/21 23/31/21
f 18/24/17 24/32/16 28/36/16
f 21/27/21 27/35/20 24/37/20
f 25/33/19 19/25/18 29/38/19
f 30/39/22 22/30/23 25/40/22
f 22/30/23 30/39/22 26/34/23
f 24/32/16 31/41/24 28/36/16
f 32/42/25 24/37/20 27/35/20
f 29/38/19 33/43/26 25/33/19
f 25/40/22 34/44/27 30/39/22
f 31/41/24 24/32/16 35/45/24
f 24/37/20 32/42/25 35/46/25
f 33/43/26 29/38/19 36/47/26
f 34/44/27 25/40/22 33/48/27
f 35/45/24 37/49/28 31/41/24
f 32/42/25 38/50/29 35/46/25
f 36/47/26 39/51/14 33/43/26
f 39/52/14 34/44/27 33/48/27
f 37/49/28 35/45/24 38/53/28
f 38/50/29 32/42/25 40/54/29
f 39/51/14 36/47/26 41/55/14
f 34/44/27 39/52/14 42/56/14
f 38/53/28 43/57/30 37/49/28
f 40/54/29 44/58/31 38/50/29
f 45/59/32 39/51/14 41/55/14
f 46/60/33 42/56/14 39/52/14
f 43/57/30 38/53/28 44/61/30
f 44/58/31 40/54/29 47/62/31
f 39/51/14 45/59/32 46/63/32
f 42/56/14 46/60/33 48/64/33
f 49/65/14 43/57/14 44/61/14
f 50/66/14 44/58/14 47/62/14
f 45/59/32 51/67/34 46/63/32
f 51/68/35 48/64/33 46/60/33
f 43/57/14 49/65/14 52/69/14
f 44/58/14 50/66/14 49/70/14
f 51/67/34 45/59/32 53/71/34
f 48/64/33 51/68/35 54/72/35
f 49/65/36 55/73/37 52/69/36
f 56/74/38 49/70/39 50/66/39
f 53/71/34 57/75/40 51/67/34
f 57/76/41 54/72/35 51/68/35
f 55/73/37 49/65/36 58/77/37
f 49/70/39 56/74/38 58/78/38
f 57/75/40 53/71/34 59/79/40
f 54/72/35 57/76/41 60/80/41
f 58/77/37 61/81/42 55/73/37
f 62/82/43 58/78/38 56/74/38
f 63/83/44 57/75/14 59/79/14
f 64/84/45 60/80/14 57/76/14
f 61/81/42 58/77/37 65/85/42
f 58/78/38 62/82/43 65/86/43
f 57/75/14 63/83/44 64/87/44
f 60/80/14 64/84/45 66/88/45
f 65/85/42 67/89/46 61/81/42
f 68/90/47 65/86/43 62/82/43
f 69/91/48 64/87/44 63/83/44
f 70/92/49 66/88/45 64/84/45
f 67/89/46 65/85/42 71/93/46
f 65/86/43 68/90/47 71/94/47
f 64/87/44 69/91/48 70/95/48
f 66/88/45 70/92/49 72/96/49
f 71/93/46 73/97/50 67/89/46
f 74/98/51 71/94/47 68/90/47
f 69/91/48 75/99/52 70/95/48
f 75/100/53 72/96/49 70/92/49
f 73/97/50 71/93/46 76/101/50
f 71/94/47 74/98/51 76/102/51
f 75/99/52 69/91/48 77/103/52
f 72/96/49 75/100/53 78/104/53
f 79/105/54 73/97/50 76/101/50
f 80/106/55 76/102/51 74/98/51
f 77/103/52 81/107/56 75/99/52
f 81/108/57 78/104/53 75/100/53
f 73/97/50 79/105/54 82/109/54
f 76/102/51 80/106/55 79/110/55
f 81/107/56 77/103/52 83/111/56
f 78/104/53 81/108/57 84/112/57
f 85/113/58 82/109/54 79/105/54
f 86/114/59 79/110/55 80/106/55
f 83/111/56 87/107/60 81/107/56
f 87/108/61 84/112/57 81/108/57
f 82/109/54 85/113/58 88/115/58
f 79/110/55 86/114/59 85/116/59
f 87/107/60 83/111/56 89/111/60
f 84/112/57 87/108/61 90/112/61
f 85/113/58 91/117/62 88/115/58
f 92/118/63 85/116/59 86/114/59
f 89/111/14 90/119/14 87/107/14
f 91/117/62 85/113/58 93/120/62
f 85/116/59 92/118/63 93/121/63
f 90/119/14 89/111/14 94/122/14
f 95/123/64 91/117/62 93/120/62
f 96/124/65 93/121/63 92/118/63
f 91/117/62 95/123/64 97/125/64
f 93/121/63 96/124/65 95/126/65
f 98/127/66 97/125/64 95/123/64
f 99/128/67 95/126/65 96/124/65
f 97/125/64 98/127/66 100/129/66
f 95/126/65 99/128/67 98/130/67
f 98/127/66 101/131/68 100/129/66
f 99/128/67 102/132/69 98/130/67
f 101/131/68 98/127/66 102/133/68
f 102/132/69 99/128/67 103/134/69
f 102/133/68 104/131/70 101/131/68
f 103/134/69 105/132/71 102/132/69
f 104/131/70 102/133/68 105/133/70
f 105/132/71 103/134/69 106/134/71
f 107/135/72 104/131/70 105/133/70
f 106/134/71 107/136/73 105/132/71
f 104/131/70 107/135/72 108/137/72
f 107/136/73 106/134/71 109/138/73
f 107/135/72 110/111/74 108/137/72
f 109/138/73 111/108/74 107/136/73
f 110/111/74 107/135/72 111/107/74
f 111/108/74 109/138/73 112/112/74
f 111/107/74 113/122/74 110/111/74
f 113/122/74 111/107/74 112/119/74
usemtl material_1_0
f 3//75 2//76 1//75
f 4//76 1//75 2//76
f 3//77 5//77 2//78
f 1//75 6//79 3//75
f 2//76 7//80 4//76
f 8//78 2//78 5//77
f 5//77 3//77 9//81
f 10//79 3//75 6//79
f 11//80 4//76 7//80
f 2//78 8//78 7//82
f 10//81 9//81 3//77
f 6//79 12//83 10//79
f 7//80 13//84 11//80
f 14//82 7//82 8//78
f 10//81 15//85 9//81
f 15//83 10//79 12//83
f 16//84 11//80 13//84
f 7//82 14//82 13//86
f 17//85 9//81 15//85
f 12//83 18//87 15//83
f 16//84 13//84 19//74
f 20//86 13//86 14//82
f 15//85 21//88 17//85
f 21//87 15//83 18//87
f 22//74 19//74 13//84
f 13//86 20//86 22//74
f 23//88 17//85 21//88
f 21//89 18//89 24//90
f 22//91 25//92 19//91
f 26//74 22//74 20//86
f 23//93 21//93 27//94
f 28//90 24//90 18//89
f 24//94 27//94 21//93
f 29//92 19//91 25//92
f 25//95 22//96 30//95
f 26//96 30//95 22//96
f 28//90 31//97 24//90
f 27//94 24//94 32//98
f 25//92 33//99 29//92
f 30//95 34//100 25//95
f 35//97 24//90 31//97
f 35//98 32//98 24//94
f 36//99 29//92 33//99
f 33//100 25//95 34//100
f 31//97 37//101 35//97
f 35//98 38//102 32//98
f 33//99 39//74 36//99
f 33//100 34//100 39//74
f 38//101 35//97 37//101
f 40//102 32//98 38//102
f 41//74 36//99 39//74
f 42//74 39//74 34//100
f 37//101 43//103 38//101
f 38//102 44//104 40//102
f 41//74 39//74 45//105
f 39//74 42//74 46//106
f 44//103 38//101 43//103
f 47//104 40//102 44//104
f 46//105 45//105 39//74
f 48//106 46//106 42//74
f 44//74 43//74 49//74
f 47//74 44//74 50//74
f 46//105 51//107 45//105
f 46//106 48//106 51//108
f 52//74 49//74 43//74
f 49//74 50//74 44//74
f 53//107 45//105 51//107
f 54//108 51//108 48//106
f 52//109 55//110 49//109
f 50//111 49//111 56//112
f 51//107 57//113 53//107
f 51//108 54//108 57//114
f 58//110 49//109 55//110
f 58//112 56//112 49//111
f 59//113 53//107 57//113
f 60//114 57//114 54//108
f 55//110 61//115 58//110
f 56//112 58//112 62//116
f 59//74 57//74 63//117
f 57//74 60//74 64//118
f 65//115 58//110 61//115
f 65//116 62//116 58//112
f 64//117 63//117 57//74
f 66//118 64//118 60//74
f 61//115 67//119 65//115
f 62//116 65//116 68//120
f 63//117 64//117 69//121
f 64//118 66//118 70//122
f 71//119 65//115 67//119
f 71//120 68//120 65//116
f 70//121 69//121 64//117
f 72//122 70//122 66//118
f 67//119 73//123 71//119
f 68//120 71//120 74//124
f 70//121 75//125 69//121
f 70//122 72//122 75//126
f 76//123 71//119 73//123
f 76//124 74//124 71//120
f 77//125 69//121 75//125
f 78//126 75//126 72//122
f 76//123 73//123 79//127
f 74//124 76//124 80//128
f 75//125 81//129 77//125
f 75//126 78//126 81//130
f 82//127 79//127 73//123
f 79//128 80//128 76//124
f 83//129 77//125 81//129
f 84//130 81//130 78//126
f 79//127 82//127 85//131
f 80//128 79//128 86//132
f 81//129 87//133 83//129
f 81//130 84//130 87//134
f 88//131 85//131 82//127
f 85//132 86//132 79//128
f 89//133 83//129 87//133
f 90//134 87//134 84//130
f 88//131 91//135 85//131
f 86//132 85//132 92//136
f 87//74 90//74 89//74
f 93//135 85//131 91//135
f 93//136 92//136 85//132
f 94//74 89//74 90//74
f 93//135 91//135 95//137
f 92//136 93//136 96//138
f 97//137 95//137 91//135
f 95//138 96//138 93//136
f 95//137 97//137 98//139
f 96//138 95//138 99//140
f 100//139 98//139 97//137
f 98//140 99//140 95//138
f 100//139 101//141 98//139
f 98//140 102//142 99//140
f 102//141 98//139 101//141
f 103//142 99//140 102//142
f 101//141 104//143 102//141
f 102//142 105//144 103//142
f 105//143 102//141 104//143
f 106//144 103//142 105//144
f 105//143 104//143 107//145
f 105//144 107//146 106//144
f 108//145 107//145 104//143
f 109//146 106//144 107//146
f 108//145 110//14 107//145
f 107//146 111//14 109//146
f 111//14 107//145 110//14
f 112//14 109//146 111//14
f 110//14 113//14 111//14
f 112//14 111//14 113//14
