# SSTK version 0.8.0
# 62
mtllib original-62.mtl
o DF_11_TC2/DF_11_TC/mesh25/mesh25-geometry#mesh25-geometry
v -0.353072 -0.284376 0.365289
v 0.344647 -0.291557 0.365289
v -0.353072 -0.291557 0.365289
v 0.344647 -0.284376 0.365289
v -0.353072 -0.193681 0.365289
v 0.344647 -0.193681 0.365289
v 0.344647 -0.191296 0.369276
v -0.353072 -0.191296 0.369276
v 0.344647 -0.191296 0.388807
v -0.353072 -0.191296 0.388807
v 0.344647 -0.192589 0.390522
v -0.353072 -0.192589 0.390522
v -0.353072 -0.195327 0.390598
v 0.344647 -0.195327 0.390598
v -0.353072 -0.199833 0.392004
v 0.344647 -0.199833 0.392004
v -0.353072 -0.203901 0.394594
v 0.344647 -0.203901 0.394594
v -0.353072 -0.204981 0.395649
v 0.344647 -0.204981 0.395649
v -0.353072 -0.205980 0.396117
v 0.344647 -0.205980 0.396117
v -0.353072 -0.207017 0.395822
v 0.344647 -0.207017 0.395822
v 0.344647 -0.207780 0.394854
v -0.353072 -0.207780 0.394854
v 0.344647 -0.208041 0.393503
v -0.353072 -0.208041 0.393503
v 0.344647 -0.208061 0.391734
v -0.353072 -0.208061 0.391734
v -0.353072 -0.210002 0.391734
v 0.344647 -0.210002 0.391734
v 0.344647 -0.210394 0.392972
v -0.353072 -0.210394 0.392972
v 0.344647 -0.211038 0.393999
v -0.353072 -0.211038 0.393999
v -0.353072 -0.212319 0.394984
v 0.344647 -0.212319 0.394984
v -0.353072 -0.213640 0.395168
v 0.344647 -0.213640 0.395168
v 0.344647 -0.213660 0.396529
v -0.353072 -0.213660 0.396529
v 0.344647 -0.214617 0.397854
v -0.353072 -0.214617 0.397854
v -0.353072 -0.267550 0.397854
v 0.344647 -0.267550 0.397854
v 0.344647 -0.268476 0.396579
v -0.353072 -0.268476 0.396579
v 0.344647 -0.268543 0.391789
v -0.353072 -0.268543 0.391789
v 0.344647 -0.269454 0.390750
v -0.353072 -0.269454 0.390750
v -0.353072 -0.272742 0.390750
v 0.344647 -0.272742 0.390750
v 0.344647 -0.273191 0.393410
v -0.353072 -0.273191 0.393410
v 0.344647 -0.274619 0.395386
v -0.353072 -0.274619 0.395386
v -0.353072 -0.276617 0.396115
v 0.344647 -0.276617 0.396115
v -0.353072 -0.278615 0.395386
v 0.344647 -0.278615 0.395386
v 0.344647 -0.280043 0.393410
v -0.353072 -0.280043 0.393410
v 0.344647 -0.280492 0.390750
v -0.353072 -0.280492 0.390750
v -0.353072 -0.281953 0.390750
v 0.344647 -0.281953 0.390750
v -0.353072 -0.283175 0.390289
v 0.344647 -0.283175 0.390289
v 0.344647 -0.284045 0.389081
v -0.353072 -0.284045 0.389081
v 0.344647 -0.284376 0.387383
v -0.353072 -0.284376 0.387383
v 0.344647 -0.284376 0.380395
v -0.353072 -0.284376 0.380395
v -0.353072 -0.291557 0.380395
v 0.344647 -0.291557 0.380395
vt 0.107482 0.882317
vt 0.104036 0.699887
vt 0.104036 0.882317
vt 0.107482 0.699887
vt 0.150998 0.882317
vt 0.150998 0.699887
vt 0.152142 0.699887
vt 0.152142 0.882317
vt 0.151522 0.699887
vt 0.151522 0.882317
vt 0.150208 0.882317
vt 0.150208 0.699887
vt 0.148046 0.882317
vt 0.148046 0.699887
vt 0.146094 0.882317
vt 0.146095 0.699887
vt 0.145576 0.882317
vt 0.145576 0.699887
vt 0.145097 0.882317
vt 0.145097 0.699887
vt 0.144599 0.882317
vt 0.144599 0.699887
vt 0.144233 0.699887
vt 0.144233 0.882317
vt 0.144108 0.699887
vt 0.144108 0.882317
vt 0.144098 0.699887
vt 0.144098 0.882317
vt 0.143167 0.882317
vt 0.143167 0.699887
vt 0.142979 0.699887
vt 0.142979 0.882317
vt 0.14267 0.699887
vt 0.14267 0.882317
vt 0.142055 0.882317
vt 0.142055 0.699887
vt 0.141422 0.882317
vt 0.141422 0.699887
vt 0.141412 0.699887
vt 0.141412 0.882317
vt 0.140953 0.699887
vt 0.140953 0.882317
vt 0.115555 0.882317
vt 0.115555 0.699887
vt 0.115111 0.699887
vt 0.115111 0.882317
vt 0.115078 0.699887
vt 0.115078 0.882317
vt 0.114641 0.699887
vt 0.114641 0.882317
vt 0.113064 0.882317
vt 0.113064 0.699887
vt 0.112848 0.699887
vt 0.112848 0.882317
vt 0.112163 0.699887
vt 0.112163 0.882317
vt 0.111205 0.882317
vt 0.111205 0.699887
vt 0.110246 0.882317
vt 0.110246 0.699887
vt 0.109561 0.699887
vt 0.109561 0.882317
vt 0.109345 0.699887
vt 0.109345 0.882317
vt 0.108644 0.882317
vt 0.108644 0.699887
vt 0.108058 0.882317
vt 0.108058 0.699887
vt 0.107641 0.699887
vt 0.107641 0.882317
vn 0 0 -1
vn 0 0.49324982858486305 -0.8698876976949399
vn 0 0.9638838526293996 -0.26632295928121985
vn 0 0.9482546301115439 0.3175108761476044
vn 0 0.4584771114179747 0.8887062159711892
vn 0 0.16443401423176432 0.9863880853718925
vn 0 0.42111915114263815 0.907005325530619
vn 0 0.621342234406062 0.7835392955961317
vn 0 0.5693311846839494 0.8221082666816887
vn 0 0.0802259759801456 0.9967767015626082
vn 0 -0.5563769913680896 0.8309299871085368
vn 0 -0.9093713929094546 0.41598517973350724
vn 0 -0.994892821208822 0.10093698186071733
vn 0 -0.9999311307625024 0.011736001534734402
vn 0 0 1
vn 0 0.9534139868328761 0.30166499583385586
vn 0 0.9076170820985067 0.41979903797292384
vn 0 0.7401037165902877 0.6724927424807223
vn 0 0.3864910635913121 0.9222931517495162
vn 0 0.1375489950189381 0.9904949641312064
vn 0 0.9998838340092985 0.015241997469676432
vn 0 0.9490847306184719 0.31502091058668286
vn 0 0.45514991017048445 0.8904148242655217
vn 0 -0.45403693106403226 0.8909828647229728
vn 0 -0.9488767202057117 0.3156469069255257
vn 0 -0.9334743605956143 0.35864413854210536
vn 0 -0.4128801629586718 0.9107853594756675
vn 0 0.9860495706721384 0.16645192752651386
vn 0 0.922464395728086 0.386082165625424
vn 0 0.6030701295865171 0.7976881714056574
vn 0 -0.6030701295865174 0.7976881714056571
vn 0 -0.922464395728086 0.38608216562542347
vn 0 -0.9860495706721384 0.16645192752651342
vn 0 -0.17920108514338404 0.9838124674364692
vn 0 -0.6082310343769151 0.793760044862922
vn 0 -0.9179111222120718 0.3967860528286935
vn 0 -0.9953696598120719 0.09612096714869439
vn 0 -1 0
vn 0 -0.49324982858486305 0.8698876976949399
vn 0 -0.9638838526293996 0.26632295928121985
vn 0 -0.9482546301115439 -0.3175108761476044
vn 0 -0.4584771114179747 -0.8887062159711892
vn 0 -0.16443401423176432 -0.9863880853718925
vn 0 -0.42111915114263815 -0.907005325530619
vn 0 -0.621342234406062 -0.7835392955961317
vn 0 -0.5693311846839494 -0.8221082666816887
vn 0 -0.0802259759801456 -0.9967767015626082
vn 0 0.5563769913680896 -0.8309299871085368
vn 0 0.9093713929094546 -0.41598517973350724
vn 0 0.994892821208822 -0.10093698186071733
vn 0 0.9999311307625024 -0.011736001534734402
vn 0 -0.9534139868328761 -0.30166499583385586
vn 0 -0.9076170820985067 -0.41979903797292384
vn 0 -0.7401037165902877 -0.6724927424807223
vn 0 -0.3864910635913121 -0.9222931517495162
vn 0 -0.1375489950189381 -0.9904949641312064
vn 0 -0.9998838340092985 -0.015241997469676432
vn 0 -0.9490847306184719 -0.31502091058668286
vn 0 -0.45514991017048445 -0.8904148242655217
vn 0 0.45403693106403226 -0.8909828647229728
vn 0 0.9488767202057117 -0.3156469069255257
vn 0 0.9334743605956143 -0.35864413854210536
vn 0 0.4128801629586718 -0.9107853594756675
vn 0 -0.9860495706721384 -0.16645192752651386
vn 0 -0.922464395728086 -0.386082165625424
vn 0 -0.6030701295865171 -0.7976881714056574
vn 0 0.6030701295865174 -0.7976881714056571
vn 0 0.922464395728086 -0.38608216562542347
vn 0 0.9860495706721384 -0.16645192752651342
vn 0 0.17920108514338404 -0.9838124674364692
vn 0 0.6082310343769151 -0.793760044862922
vn 0 0.9179111222120718 -0.3967860528286935
vn 0 0.9953696598120719 -0.09612096714869439
vn 0 1 0
usemtl material_0_0
f 1/1/1 2/2/1 3/3/1
f 2/2/1 1/1/1 4/4/1
f 5/5/2 4/4/1 1/1/1
f 4/4/1 5/5/2 6/6/2
f 5/5/2 7/7/3 6/6/2
f 7/7/3 5/5/2 8/8/3
f 8/8/3 9/7/4 7/7/3
f 9/7/4 8/8/3 10/8/4
f 10/8/4 11/9/5 9/7/4
f 11/9/5 10/8/4 12/10/5
f 13/11/6 11/9/5 12/10/5
f 11/9/5 13/11/6 14/12/6
f 15/13/7 14/12/6 13/11/6
f 14/12/6 15/13/7 16/14/7
f 17/15/8 16/14/7 15/13/7
f 16/14/7 17/15/8 18/16/8
f 19/17/9 18/16/8 17/15/8
f 18/16/8 19/17/9 20/18/9
f 21/19/10 20/18/9 19/17/9
f 20/18/9 21/19/10 22/20/10
f 23/21/11 22/20/10 21/19/10
f 22/20/10 23/21/11 24/22/11
f 23/21/11 25/23/12 24/22/11
f 25/23/12 23/21/11 26/24/12
f 26/24/12 27/25/13 25/23/12
f 27/25/13 26/24/12 28/26/13
f 28/26/13 29/27/14 27/25/13
f 29/27/14 28/26/13 30/28/14
f 31/29/15 29/27/15 30/28/15
f 29/27/15 31/29/15 32/30/15
f 31/29/16 33/31/17 32/30/16
f 33/31/17 31/29/16 34/32/17
f 34/32/17 35/33/18 33/31/17
f 35/33/18 34/32/17 36/34/18
f 37/35/19 35/33/18 36/34/18
f 35/33/18 37/35/19 38/36/19
f 39/37/20 38/36/19 37/35/19
f 38/36/19 39/37/20 40/38/20
f 39/37/21 41/39/22 40/38/21
f 41/39/22 39/37/21 42/40/22
f 42/40/22 43/41/23 41/39/22
f 43/41/23 42/40/22 44/42/23
f 45/43/24 43/41/23 44/42/23
f 43/41/23 45/43/24 46/44/24
f 45/43/24 47/45/25 46/44/24
f 47/45/25 45/43/24 48/46/25
f 48/46/25 49/47/26 47/45/25
f 49/47/26 48/46/25 50/48/26
f 50/48/26 51/49/27 49/47/26
f 51/49/27 50/48/26 52/50/27
f 53/51/15 51/49/27 52/50/27
f 51/49/27 53/51/15 54/52/15
f 53/51/28 55/53/29 54/52/28
f 55/53/29 53/51/28 56/54/29
f 56/54/29 57/55/30 55/53/29
f 57/55/30 56/54/29 58/56/30
f 59/57/15 57/55/30 58/56/30
f 57/55/30 59/57/15 60/58/15
f 61/59/31 60/58/15 59/57/15
f 60/58/15 61/59/31 62/60/31
f 61/59/31 63/61/32 62/60/31
f 63/61/32 61/59/31 64/62/32
f 64/62/32 65/63/33 63/61/32
f 65/63/33 64/62/32 66/64/33
f 67/65/34 65/63/15 66/64/15
f 65/63/15 67/65/34 68/66/34
f 69/67/35 68/66/34 67/65/34
f 68/66/34 69/67/35 70/68/35
f 69/67/35 71/69/36 70/68/35
f 71/69/36 69/67/35 72/70/36
f 72/70/36 73/4/37 71/69/36
f 73/4/37 72/70/36 74/1/37
f 74/1/37 75/4/38 73/4/37
f 75/4/38 74/1/37 76/1/38
f 77/3/15 75/4/15 76/1/15
f 75/4/15 77/3/15 78/2/15
usemtl material_1_0
f 3//15 2//15 1//15
f 4//15 1//15 2//15
f 1//15 4//15 5//39
f 6//39 5//39 4//15
f 6//39 7//40 5//39
f 8//40 5//39 7//40
f 7//40 9//41 8//40
f 10//41 8//40 9//41
f 9//41 11//42 10//41
f 12//42 10//41 11//42
f 12//42 11//42 13//43
f 14//43 13//43 11//42
f 13//43 14//43 15//44
f 16//44 15//44 14//43
f 15//44 16//44 17//45
f 18//45 17//45 16//44
f 17//45 18//45 19//46
f 20//46 19//46 18//45
f 19//46 20//46 21//47
f 22//47 21//47 20//46
f 21//47 22//47 23//48
f 24//48 23//48 22//47
f 24//48 25//49 23//48
f 26//49 23//48 25//49
f 25//49 27//50 26//49
f 28//50 26//49 27//50
f 27//50 29//51 28//50
f 30//51 28//50 29//51
f 30//1 29//1 31//1
f 32//1 31//1 29//1
f 32//52 33//53 31//52
f 34//53 31//52 33//53
f 33//53 35//54 34//53
f 36//54 34//53 35//54
f 36//54 35//54 37//55
f 38//55 37//55 35//54
f 37//55 38//55 39//56
f 40//56 39//56 38//55
f 40//57 41//58 39//57
f 42//58 39//57 41//58
f 41//58 43//59 42//58
f 44//59 42//58 43//59
f 44//59 43//59 45//60
f 46//60 45//60 43//59
f 46//60 47//61 45//60
f 48//61 45//60 47//61
f 47//61 49//62 48//61
f 50//62 48//61 49//62
f 49//62 51//63 50//62
f 52//63 50//62 51//63
f 52//63 51//63 53//1
f 54//1 53//1 51//63
f 54//64 55//65 53//64
f 56//65 53//64 55//65
f 55//65 57//66 56//65
f 58//66 56//65 57//66
f 58//66 57//66 59//1
f 60//1 59//1 57//66
f 59//1 60//1 61//67
f 62//67 61//67 60//1
f 62//67 63//68 61//67
f 64//68 61//67 63//68
f 63//68 65//69 64//68
f 66//69 64//68 65//69
f 66//1 65//1 67//70
f 68//70 67//70 65//1
f 67//70 68//70 69//71
f 70//71 69//71 68//70
f 70//71 71//72 69//71
f 72//72 69//71 71//72
f 71//72 73//73 72//72
f 74//73 72//72 73//73
f 73//73 75//74 74//73
f 76//74 74//73 75//74
f 76//1 75//1 77//1
f 78//1 77//1 75//1
