# SSTK version 0.8.0
# 1
mtllib original-1.mtl
o group_0/ID4#ID4
v 0.086722 0.260367 -0.624524
v 0.149425 0.258146 -0.619583
v 0.132297 0.218680 -0.735086
v 0.132297 0.218680 -0.735086
v 0.149425 0.258146 -0.619583
v 0.086722 0.260367 -0.624524
v 0.092139 0.282838 -0.503642
v 0.092139 0.282838 -0.503642
v 0.190120 0.211454 -0.726082
v 0.190120 0.211454 -0.726082
v 0.077313 0.221694 -0.738200
v 0.077313 0.221694 -0.738200
v 0.158371 0.280055 -0.494138
v 0.158371 0.280055 -0.494138
v 0.023757 0.283704 -0.507044
v 0.023757 0.283704 -0.507044
v 0.166569 0.162237 -0.820660
v 0.166569 0.162237 -0.820660
v 0.211586 0.252995 -0.607352
v 0.211586 0.252995 -0.607352
v 0.115236 0.170882 -0.827696
v 0.115236 0.170882 -0.827696
v 0.023746 0.260745 -0.625171
v 0.023746 0.260745 -0.625171
v 0.217100 0.148206 -0.812591
v 0.217100 0.148206 -0.812591
v 0.068373 0.174872 -0.830816
v 0.068373 0.174872 -0.830816
v 0.023744 0.222147 -0.738281
v 0.023744 0.222147 -0.738281
v -0.039228 0.260370 -0.624515
v -0.039228 0.260370 -0.624515
v -0.029823 0.221694 -0.738200
v -0.029823 0.221694 -0.738200
v -0.044625 0.282844 -0.503595
v -0.044625 0.282844 -0.503595
v 0.023748 0.175704 -0.831396
v 0.023748 0.175704 -0.831396
v -0.020879 0.174872 -0.830816
v -0.020879 0.174872 -0.830816
v -0.084809 0.218680 -0.735086
v -0.084809 0.218680 -0.735086
v -0.101931 0.258149 -0.619569
v -0.101931 0.258149 -0.619569
v -0.067740 0.170882 -0.827696
v -0.067740 0.170882 -0.827696
v -0.110855 0.280063 -0.494072
v -0.110855 0.280063 -0.494072
v -0.142630 0.211454 -0.726082
v -0.142630 0.211454 -0.726082
v -0.119074 0.162237 -0.820660
v -0.119074 0.162237 -0.820660
v -0.164087 0.252998 -0.607342
v -0.164087 0.252998 -0.607342
v -0.169608 0.148206 -0.812591
v -0.169608 0.148206 -0.812591
vt -1.566411 -1.567371
vt -1.647315 -1.581622
vt -1.637552 -1.397664
vt -1.560576 -1.752959
vt -1.711747 -1.415882
vt -1.56647 -1.387272
vt -1.64559 -1.774212
vt -1.472153 -1.7399
vt -1.691556 -1.259229
vt -1.726781 -1.605727
vt -1.625567 -1.245112
vt -1.484721 -1.558895
vt -1.75645 -1.273225
vt -1.565017 -1.235978
vt -1.496933 -1.380795
vt -1.402905 -1.552126
vt -1.427391 -1.374293
vt -1.383029 -1.736461
vt -1.507139 -1.229954
vt -1.449154 -1.225165
vt -1.355714 -1.371362
vt -1.321011 -1.551192
vt -1.388034 -1.222944
vt -1.296083 -1.741696
vt -1.279782 -1.375569
vt -1.320745 -1.224624
vt -1.239095 -1.56023
vt -1.254439 -1.226376
vt 0.1509605 0.1827612
vt 0.1031516 0.3333884
vt 0.1834 0.3418658
vt 0.07833043 0.3283325
vt 0.1109357 0.4939603
vt 0.1576379 0.3432315
vt 0.03105305 0.1942044
vt 0.01728404 0.3515647
vt 0.1026256 0.2185568
vt 0.145711 0.1873695
vt 0.1730612 0.3474275
vt 0.2154746 0.1989392
vt 0.0477533 0.3342398
vt -0.01980161 0.4833263
vt 0.06394696 0.5022679
vt 0.2014587 0.3170907
vt 0.1764781 0.4728991
vt 0.2640644 0.4788993
vt 0.1184903 0.0731668
vt 0.04777176 0.1939889
vt 0.1212633 0.2117274
vt 0.04181224 0.1919528
vt -0.04204929 0.3324371
vt 0.03756262 0.3498571
vt 0.1942256 0.05757877
vt 0.1538983 0.1868369
vt 0.2241437 0.1949856
vt 0.2426464 0.1582958
vt 0.2265303 0.3118795
vt 0.3072674 0.3133785
vt -0.0944457 0.3088799
vt -0.1162696 0.4715255
vt -0.01906049 0.3398409
vt 0.2229124 0.301971
vt 0.2973892 0.4586703
vt 0.3036237 0.3045056
vt 0.1150975 0.07860515
vt 0.1114196 0.2171447
vt 0.1790187 0.09982318
vt 0.04442513 0.0601061
vt 0.01603525 0.1989215
vt 0.1050884 0.09090011
vt 0.1913 0.06911944
vt 0.2128215 0.208089
vt 0.250742 0.08003305
vt 0.2428422 0.1579545
vt 0.3076909 0.3129421
vt 0.3115046 0.1597532
vt 0.3253278 0.2791463
vt 0.3315251 0.4333126
vt 0.4060376 0.276629
vt 0.257474 0.03197273
vt 0.243852 0.1648288
vt 0.312526 0.1661148
vt 0.31778 0.1440961
vt 0.3215892 0.2972851
vt 0.3864404 0.1422974
vt 0.3866129 0.1417018
vt 0.321994 0.2967865
vt 0.4027293 0.2952976
vt 0.4238034 0.2447971
vt 0.3612176 0.4066146
vt 0.4488094 0.400649
vt 0.3143475 0.04146954
vt 0.2571665 0.03908196
vt 0.3083442 0.1747494
vt 0.3719169 0.02175206
vt 0.3168718 0.155894
vt 0.3855436 0.154608
vt 0.3999781 0.0742907
vt 0.4423886 0.2227924
vt 0.4697451 0.06272078
vt 0.4505607 0.1837533
vt 0.4972669 0.3345301
vt 0.5298681 0.1688513
vt 0.3143475 0.01312978
vt 0.32036 0.1464092
vt 0.3715311 0.01074221
vt 0.3625695 -0.04523751
vt 0.4004954 0.08281727
vt 0.4220088 -0.05615101
vt 0.468621 0.07785444
vt 0.4361876 0.2369751
vt 0.5164364 0.2284974
vt 0.42739 -0.02982426
vt 0.3974782 0.1075813
vt 0.4677269 0.09943268
vt 0.5411624 0.1157707
vt 0.524979 0.2838492
vt 0.608732 0.2649214
vt 0.4616268 -0.03956409
vt 0.5469739 0.0934603
vt 0.5331961 -0.06391794
vt 0.3977883 -0.1151452
vt 0.4653953 0.002173643
vt 0.461711 -0.1363627
vt 0.5470344 0.004891086
vt 0.644266 0.1366393
vt 0.6224095 -0.02607762
vt 0.5394421 -0.03168785
vt 0.5436895 0.1262352
vt 0.6232946 0.1088141
vt 0.4712094 -0.1146665
vt 0.468446 0.02389127
vt 0.541935 0.006153148
vt 0.4318553 -0.1757676
vt 0.5209111 -0.06774642
vt 0.492523 -0.2065615
vn 0.033821141022069665 0.9653970291741494 -0.2585821078143112
vn 0.09792260846105846 0.9594592849212379 -0.26428969584645046
vn 0.12641470209043207 0.9035629149415921 -0.4093817067696606
vn 0.04329699958296547 0.9825326905362944 -0.18098309825677966
vn 0.18972619917180342 0.8883583961221203 -0.4181187981748193
vn 0.04287121029184268 0.9182178062507018 -0.39374880268041645
vn 0.07991335769545743 0.9809576717111285 -0.17701949489510901
vn -0.000019693631055797454 0.9825863526775468 -0.18580650996129336
vn 0.2457261068896908 0.8365930234564709 -0.4896231137280969
vn 0.1310234978273461 0.9557599841514257 -0.26335469563300745
vn 0.14619390462872348 0.8709696275762359 -0.469083414851901
vn 7.231687060501259e-7 0.9662111080834512 -0.25775200215638744
vn 0.3049279921536707 0.8116204791155891 -0.4982881871781754
vn 0.059263729309426944 0.8898048896315118 -0.4524765947274975
vn -2.450425056472067e-7 0.9218598212450204 -0.38752350893079884
vn -0.033833809924978156 0.9654019978593532 -0.2585618994266741
vn -0.04287160787539373 0.9182180544954827 -0.3937481804868559
vn -0.043330189080895504 0.9825387791587383 -0.18094209616192064
vn 0.0000010318959936181799 0.8948685944656339 -0.44632969723964816
vn -0.05926469759639518 0.8898037639121317 -0.4524786816487725
vn -0.1264196942674416 0.9035638590274869 -0.40937808143656496
vn -0.09792334801773218 0.9594691805774117 -0.2642534946507014
vn -0.14619080611602114 0.870965836437623 -0.4690914196248525
vn -0.0799106464832303 0.9809661568288808 -0.17697369221160433
vn -0.18972690181138913 0.8883612084814954 -0.41811250399186617
vn -0.24571730248358886 0.8365887084558246 -0.48963490494898704
vn -0.13100710123176412 0.9557709089864163 -0.2633232024758356
vn -0.3049107907946153 0.8116195754968646 -0.4983001849561082
vn -0.12641470209043207 -0.9035629149415921 0.4093817067696606
vn -0.09792260846105846 -0.9594592849212379 0.26428969584645046
vn -0.033821141022069665 -0.9653970291741494 0.2585821078143112
vn -0.04329699958296547 -0.9825326905362944 0.18098309825677966
vn -0.18972619917180342 -0.8883583961221203 0.4181187981748193
vn -0.04287121029184268 -0.9182178062507018 0.39374880268041645
vn -0.07991335769545743 -0.9809576717111285 0.17701949489510901
vn 0.000019693631055797454 -0.9825863526775468 0.18580650996129336
vn -0.2457261068896908 -0.8365930234564709 0.4896231137280969
vn -0.1310234978273461 -0.9557599841514257 0.26335469563300745
vn -0.14619390462872348 -0.8709696275762359 0.469083414851901
vn -7.231687060501259e-7 -0.9662111080834512 0.25775200215638744
vn -0.3049279921536707 -0.8116204791155891 0.4982881871781754
vn -0.059263729309426944 -0.8898048896315118 0.4524765947274975
vn 2.450425056472067e-7 -0.9218598212450204 0.38752350893079884
vn 0.033833809924978156 -0.9654019978593532 0.2585618994266741
vn 0.04287160787539373 -0.9182180544954827 0.3937481804868559
vn 0.043330189080895504 -0.9825387791587383 0.18094209616192064
vn -0.0000010318959936181799 -0.8948685944656339 0.44632969723964816
vn 0.05926469759639518 -0.8898037639121317 0.4524786816487725
vn 0.1264196942674416 -0.9035638590274869 0.40937808143656496
vn 0.09792334801773218 -0.9594691805774117 0.2642534946507014
vn 0.14619080611602114 -0.870965836437623 0.4690914196248525
vn 0.0799106464832303 -0.9809661568288808 0.17697369221160433
vn 0.18972690181138913 -0.8883612084814954 0.41811250399186617
vn 0.24571730248358886 -0.8365887084558246 0.48963490494898704
vn 0.13100710123176412 -0.9557709089864163 0.2633232024758356
vn 0.3049107907946153 -0.8116195754968646 0.4983001849561082
usemtl material_0_0
f 1/1/1 2/2/2 3/3/3
f 1/1/1 7/4/4 2/2/2
f 3/3/3 2/2/2 9/5/5
f 11/6/6 1/1/1 3/3/3
f 7/4/4 13/7/7 2/2/2
f 15/8/8 7/4/4 1/1/1
f 3/3/3 9/5/5 17/9/9
f 2/2/2 19/10/10 9/5/5
f 11/6/6 3/3/3 21/11/11
f 23/12/12 1/1/1 11/6/6
f 2/2/2 13/7/7 19/10/10
f 23/12/12 15/8/8 1/1/1
f 21/11/11 3/3/3 17/9/9
f 17/9/9 9/5/5 25/13/13
f 27/14/14 11/6/6 21/11/11
f 29/15/15 23/12/12 11/6/6
f 31/16/16 15/8/8 23/12/12
f 29/15/15 11/6/6 27/14/14
f 33/17/17 23/12/12 29/15/15
f 31/16/16 23/12/12 33/17/17
f 35/18/18 15/8/8 31/16/16
f 29/15/15 27/14/14 37/19/19
f 33/17/17 29/15/15 39/20/20
f 41/21/21 31/16/16 33/17/17
f 43/22/22 35/18/18 31/16/16
f 39/20/20 29/15/15 37/19/19
f 45/23/23 33/17/17 39/20/20
f 43/22/22 31/16/16 41/21/21
f 41/21/21 33/17/17 45/23/23
f 47/24/24 35/18/18 43/22/22
f 49/25/25 43/22/22 41/21/21
f 51/26/26 41/21/21 45/23/23
f 53/27/27 47/24/24 43/22/22
f 53/27/27 43/22/22 49/25/25
f 49/25/25 41/21/21 51/26/26
f 55/28/28 49/25/25 51/26/26
usemtl material_1_0
f 4/29/29 5/30/30 6/31/31
f 5/32/30 8/33/32 6/34/31
f 10/35/33 5/36/30 4/37/29
f 4/38/29 6/39/31 12/40/34
f 5/41/30 14/42/35 8/43/32
f 6/44/31 8/45/32 16/46/36
f 18/47/37 10/48/33 4/49/29
f 10/50/33 20/51/38 5/52/30
f 22/53/39 4/54/29 12/55/34
f 12/56/34 6/57/31 24/58/40
f 20/59/38 14/60/35 5/61/30
f 6/62/31 16/63/36 24/64/40
f 18/65/37 4/66/29 22/67/39
f 26/68/41 10/69/33 18/70/37
f 22/71/39 12/72/34 28/73/42
f 12/74/34 24/75/40 30/76/43
f 24/77/40 16/78/36 32/79/44
f 28/80/42 12/81/34 30/82/43
f 30/83/43 24/84/40 34/85/45
f 34/86/45 24/87/40 32/88/44
f 32/89/44 16/90/36 36/91/46
f 38/92/47 28/93/42 30/94/43
f 40/95/48 30/96/43 34/97/45
f 34/98/45 32/99/44 42/100/49
f 32/101/44 36/102/46 44/103/50
f 38/104/47 30/105/43 40/106/48
f 40/107/48 34/108/45 46/109/51
f 42/110/49 32/111/44 44/112/50
f 46/113/51 34/114/45 42/115/49
f 44/116/50 36/117/46 48/118/52
f 42/119/49 44/120/50 50/121/53
f 46/122/51 42/123/49 52/124/54
f 44/125/50 48/126/52 54/127/55
f 50/128/53 44/129/50 54/130/55
f 52/131/54 42/132/49 50/133/53
f 52/134/54 50/135/53 56/136/56
