# Blender v2.93.1 OBJ File: ''
# www.blender.org
mtllib sugar_box_simp.mtl
o textured
v -0.014760 -0.049323 -0.083243
v 0.022345 -0.051546 -0.082378
v -0.019190 -0.047987 0.036366
v -0.019976 -0.008958 0.019202
v 0.027905 -0.009918 -0.049269
v 0.016121 -0.047749 0.091418
v -0.014648 0.021314 -0.081361
v -0.009544 0.039890 -0.081909
v 0.027233 0.037246 -0.082607
v 0.018370 0.040806 0.090315
v 0.022587 0.039389 -0.013478
v -0.015889 0.041788 0.057503
v -0.018652 0.041544 0.089352
v -0.021896 -0.046491 0.090092
vt 0.167043 0.629194
vt 0.170089 0.493079
vt 0.644558 0.647025
vt 0.533718 0.860394
vt 0.161347 0.640062
vt 0.340685 0.341949
vt 0.830600 0.425574
vt 0.186167 0.910983
vt 0.169264 0.977871
vt 0.018748 0.658510
vt 0.177351 0.151848
vt 0.023976 0.978414
vt 0.832510 0.154570
vt 0.427334 0.117870
vt 0.188828 0.017861
vt 0.670391 0.980280
vt 0.837345 0.980076
vt 0.835416 0.645467
vt 0.833640 0.525654
vt 0.955322 0.666678
vt 0.709848 0.020471
vt 0.834711 0.018802
vt 0.977811 0.963833
vn -0.5883 -0.5417 -0.6004
vn 0.5435 -0.6119 -0.5746
vn -0.7227 -0.6910 0.0165
vn -0.9996 0.0274 0.0094
vn 0.9985 -0.0547 0.0045
vn 0.5244 -0.5822 0.6214
vn -0.7717 0.1159 -0.6253
vn -0.4610 0.6648 -0.5878
vn 0.5726 0.5652 -0.5939
vn 0.5268 0.5657 0.6344
vn 0.3095 0.9508 0.0123
vn -0.6610 0.7500 -0.0262
vn -0.5914 0.5721 0.5683
vn -0.6181 -0.5539 0.5579
usemtl material_0
s 1
f 1/1/1 2/2/2 3/3/3
f 3/3/3 4/4/4 1/5/1
f 5/6/5 6/7/6 2/2/2
f 3/3/3 2/2/2 6/7/6
f 4/4/4 7/8/7 1/5/1
f 8/9/8 2/10/2 1/5/1
f 5/6/5 2/2/2 9/11/9
f 8/9/8 1/5/1 7/8/7
f 9/12/9 2/10/2 8/9/8
f 10/13/10 5/6/5 9/11/9
f 11/14/11 9/11/9 8/15/8
f 10/13/10 9/11/9 11/14/11
f 7/8/7 12/16/12 8/9/8
f 12/16/12 4/4/4 3/3/3
f 13/17/13 12/16/12 14/18/14
f 14/18/14 3/3/3 6/19/6
f 12/16/12 3/3/3 14/18/14
f 14/18/14 6/20/6 13/17/13
f 12/16/12 7/8/7 4/4/4
f 12/21/12 11/14/11 8/15/8
f 11/14/11 12/21/12 10/13/10
f 6/7/6 5/6/5 10/13/10
f 12/21/12 13/22/13 10/13/10
f 13/17/13 6/20/6 10/23/10
