# SSTK version 0.8.0
# 5
mtllib original-5.mtl
o Component_11_1/Component_11/mesh7/mesh7-geometry#mesh7-geometry
v 0.763345 0.482850 -0.461754
v 0.760748 0.475092 0.259660
v 0.760748 0.475092 -0.461754
v 0.763345 0.482850 0.262256
v 0.760382 0.469109 0.259293
v 0.755695 0.469109 -0.461754
v 0.767861 0.489672 -0.461754
v 0.755695 0.504925 0.254606
v 0.760382 0.469109 -0.461754
v 0.755695 0.504925 -0.461754
v 0.767861 0.489672 0.266773
v 0.755695 0.469109 0.254606
v 0.773989 0.495092 0.272900
v 0.773989 0.495092 -0.461754
v 0.791511 0.504925 -0.461754
v 0.781311 0.498742 0.280222
v 0.791511 0.504925 0.290422
v 0.781311 0.498742 -0.461754
v 0.789328 0.500372 0.288240
v 0.791511 0.500238 0.290422
v 0.789328 0.500372 -0.461754
v 0.791511 0.500238 -0.461754
vn 0.8987442924222312 -0.4384731426649335 0
vn 0.9816056144077214 -0.19091992500323163 0
vn -0.9816056144077214 0.19091992500323163 0
vn -0.8987442924222312 0.4384731426649335 0
vn 0.9981278529618042 -0.061161990989983116 0
vn -0.9981278529618042 0.061161990989983116 0
vn 0 0 -1
vn 0 0 1
vn 0.7546349078402176 -0.6561449198683066 0
vn -0.7546349078402176 0.6561449198683066 0
vn -0.7071067811865476 0 0.7071067811865476
vn 0.7071067811865476 0 -0.7071067811865476
vn 0 -1 0
vn 0 1 0
vn -1 0 0
vn 1 0 0
vn 0.5590989552715262 -0.8291009336710987 0
vn -0.5590989552715262 0.8291009336710987 0
vn 0.3254608353726755 -0.9455555217111897 0
vn -0.3254608353726755 0.9455555217111897 0
vn 0.06964299851545504 -0.9975719787352573 0
vn -0.06964299851545504 0.9975719787352573 0
vn -0.061161990989983116 -0.9981278529618042 0
vn 0.061161990989983116 0.9981278529618042 0
usemtl material_0_0
f 1//1 2//2 3//2
f 2//2 1//1 4//1
f 3//3 2//3 1//4
f 4//4 1//4 2//3
f 5//5 3//2 2//2
f 2//3 3//3 5//6
f 6//7 1//7 3//7
f 3//8 1//8 6//8
f 7//9 4//1 1//1
f 1//4 4//4 7//10
f 8//11 2//11 4//11
f 4//12 2//12 8//12
f 3//2 5//5 9//5
f 9//6 5//6 3//3
f 8//11 5//11 2//11
f 2//12 5//12 8//12
f 10//7 1//7 6//7
f 6//8 1//8 10//8
f 6//7 3//7 9//7
f 9//8 3//8 6//8
f 4//1 7//9 11//9
f 11//10 7//10 4//4
f 1//7 10//7 7//7
f 7//8 10//8 1//8
f 8//11 4//11 11//11
f 11//12 4//12 8//12
f 5//13 6//13 9//13
f 9//14 6//14 5//14
f 5//11 8//11 12//11
f 12//12 8//12 5//12
f 6//15 8//15 10//15
f 10//16 8//16 6//16
f 7//9 13//17 11//9
f 11//10 13//18 7//10
f 7//7 10//7 14//7
f 14//8 10//8 7//8
f 8//11 11//11 13//11
f 13//12 11//12 8//12
f 6//13 5//13 12//13
f 12//14 5//14 6//14
f 8//15 6//15 12//15
f 12//16 6//16 8//16
f 8//14 15//14 10//14
f 10//13 15//13 8//13
f 13//17 7//9 14//17
f 14//18 7//10 13//18
f 14//7 10//7 15//7
f 15//8 10//8 14//8
f 8//11 13//11 16//11
f 16//12 13//12 8//12
f 15//14 8//14 17//14
f 17//13 8//13 15//13
f 14//17 16//19 13//17
f 13//18 16//20 14//18
f 14//7 15//7 18//7
f 18//8 15//8 14//8
f 8//11 16//11 19//11
f 19//12 16//12 8//12
f 8//11 19//11 17//11
f 17//12 19//12 8//12
f 20//16 15//16 17//16
f 17//15 15//15 20//15
f 16//19 14//17 18//19
f 18//20 14//18 16//20
f 18//7 15//7 21//7
f 21//8 15//8 18//8
f 18//19 19//21 16//19
f 16//20 19//22 18//20
f 17//11 19//11 20//11
f 20//12 19//12 17//12
f 15//16 20//16 22//16
f 22//15 20//15 15//15
f 21//7 15//7 22//7
f 22//8 15//8 21//8
f 19//21 18//19 21//21
f 21//22 18//20 19//22
f 21//21 20//23 19//21
f 19//22 20//24 21//22
f 20//23 21//21 22//23
f 22//24 21//22 20//24
