# SSTK version 0.8.0
# 6
mtllib original-6.mtl
o Component_13_1/Component_13/mesh9/mesh9-geometry#mesh9-geometry
v 0.778169 -0.493247 0.277057
v -0.748182 -0.493247 0.272580
v 0.773687 -0.493247 0.272580
v -0.752659 -0.493247 0.277057
v -0.748182 -0.484293 0.272580
v 0.773687 -0.484293 0.272580
v 0.779329 -0.493094 0.278215
v 0.778169 -0.484293 0.277057
v -0.753817 -0.493094 0.278215
v 0.779329 -0.484445 0.278215
v 0.780410 -0.492647 0.279295
v -0.754897 -0.492647 0.279295
v -0.752659 -0.484293 0.277057
v 0.780410 -0.484893 0.279295
v -0.755824 -0.491936 0.280222
v -0.753817 -0.484445 0.278215
v 0.781339 -0.491936 0.280222
v -0.756536 -0.491008 0.280934
v -0.754897 -0.484893 0.279295
v 0.781339 -0.485604 0.280222
v -0.756983 -0.489929 0.281381
v 0.782051 -0.491008 0.280934
v -0.755824 -0.485604 0.280222
v -0.757136 -0.488770 0.281534
v 0.782499 -0.489929 0.281381
v -0.756536 -0.486531 0.280934
v 0.782051 -0.486531 0.280934
v -0.756983 -0.487611 0.281381
v 0.782651 -0.488770 0.281534
v 0.782499 -0.487611 0.281381
vn 0 -0.9978589320009053 0.06540299554311302
vn 0 -1 0
vn 0 1 0
vn 0 0.9978589320009053 -0.06540299554311302
vn 0 0 -1
vn 0 0 1
vn 0.7066831542728362 0 -0.707530154457741
vn -0.7066831542728362 0 0.707530154457741
vn 0 -0.965925849201117 0.2588189595935754
vn 0 0.965925849201117 -0.2588189595935754
vn 0.7071067811865476 0 0.7071067811865476
vn -0.7071067811865476 0 -0.7071067811865476
vn 0 0.9978589320009053 0.06540299554311302
vn 0 -0.9978589320009053 -0.06540299554311302
vn 0 -0.8660253028382762 0.5000001748438417
vn 0 0.8660253028382762 -0.5000001748438417
vn 0 0.965925849201117 0.2588189595935754
vn 0 -0.965925849201117 -0.2588189595935754
vn 0 -0.7071067811865476 0.7071067811865476
vn 0 0.7071067811865476 -0.7071067811865476
vn 0 0.8660253028382762 0.5000001748438417
vn 0 -0.8660253028382762 -0.5000001748438417
vn 0 -0.5000001748438417 0.8660253028382762
vn 0 0.5000001748438417 -0.8660253028382762
vn 0 0.7071067811865476 0.7071067811865476
vn 0 -0.7071067811865476 -0.7071067811865476
vn 0 -0.2588189595935754 0.965925849201117
vn 0 0.2588189595935754 -0.965925849201117
vn 0 0.5000001748438417 0.8660253028382762
vn 0 -0.5000001748438417 -0.8660253028382762
vn 0 0.2588189595935754 0.965925849201117
vn 0 -0.2588189595935754 -0.965925849201117
usemtl material_0_0
f 1//1 2//2 3//2
f 2//2 1//1 4//1
f 3//3 2//3 1//4
f 4//4 1//4 2//3
f 5//5 3//5 2//5
f 2//6 3//6 5//6
f 6//7 1//7 3//7
f 3//8 1//8 6//8
f 7//9 4//1 1//1
f 1//4 4//4 7//10
f 5//11 4//11 2//11
f 2//12 4//12 5//12
f 3//5 5//5 6//5
f 6//6 5//6 3//6
f 1//7 6//7 8//7
f 8//8 6//8 1//8
f 4//1 7//9 9//9
f 9//10 7//10 4//4
f 1//7 10//7 7//7
f 7//8 10//8 1//8
f 4//11 5//11 9//11
f 9//12 5//12 4//12
f 5//3 8//13 6//3
f 6//2 8//14 5//2
f 1//7 8//7 10//7
f 10//8 8//8 1//8
f 11//15 9//9 7//9
f 7//10 9//10 11//16
f 7//7 10//7 11//7
f 11//8 10//8 7//8
f 9//11 5//11 12//11
f 12//12 5//12 9//12
f 8//13 5//3 13//13
f 13//14 5//2 8//14
f 13//13 10//17 8//13
f 8//14 10//18 13//14
f 9//9 11//15 12//15
f 12//16 11//16 9//10
f 11//7 10//7 14//7
f 14//8 10//8 11//8
f 12//11 5//11 15//11
f 15//12 5//12 12//12
f 16//11 5//11 13//11
f 13//12 5//12 16//12
f 10//17 13//13 16//17
f 16//18 13//14 10//18
f 17//19 12//15 11//15
f 11//16 12//16 17//20
f 16//17 14//21 10//17
f 10//18 14//22 16//18
f 11//7 14//7 17//7
f 17//8 14//8 11//8
f 15//11 5//11 18//11
f 18//12 5//12 15//12
f 12//15 17//19 15//19
f 15//20 17//20 12//16
f 19//11 5//11 16//11
f 16//12 5//12 19//12
f 14//21 16//17 19//21
f 19//22 16//18 14//22
f 17//7 14//7 20//7
f 20//8 14//8 17//8
f 18//11 5//11 21//11
f 21//12 5//12 18//12
f 15//19 22//23 18//23
f 18//24 22//24 15//20
f 22//23 15//19 17//19
f 17//20 15//20 22//24
f 23//11 5//11 19//11
f 19//12 5//12 23//12
f 19//21 20//25 14//21
f 14//22 20//26 19//22
f 17//7 20//7 22//7
f 22//8 20//8 17//8
f 21//11 5//11 24//11
f 24//12 5//12 21//12
f 18//23 25//27 21//27
f 21//28 25//28 18//24
f 25//27 18//23 22//23
f 22//24 18//24 25//28
f 26//11 5//11 23//11
f 23//12 5//12 26//12
f 20//25 19//21 23//25
f 23//26 19//22 20//26
f 22//7 20//7 27//7
f 27//8 20//8 22//8
f 24//11 5//11 28//11
f 28//12 5//12 24//12
f 21//27 29//6 24//6
f 24//5 29//5 21//28
f 29//6 21//27 25//27
f 25//28 21//28 29//5
f 22//7 27//7 25//7
f 25//8 27//8 22//8
f 28//11 5//11 26//11
f 26//12 5//12 28//12
f 27//29 23//25 26//29
f 26//30 23//26 27//30
f 23//25 27//29 20//25
f 20//26 27//30 23//26
f 29//6 28//31 24//6
f 24//5 28//32 29//5
f 25//7 30//7 29//7
f 29//8 30//8 25//8
f 25//7 27//7 30//7
f 30//8 27//8 25//8
f 30//31 26//29 28//31
f 28//32 26//30 30//32
f 26//29 30//31 27//29
f 27//30 30//32 26//30
f 28//31 29//6 30//31
f 30//32 29//5 28//32
