# SSTK version 0.8.0
# 13
mtllib original-13.mtl
o Component_20_1/Component_20/mesh21/mesh21-geometry#mesh21-geometry
v -0.735596 0.475115 -0.461760
v -0.735596 0.475115 0.259654
v -0.738193 0.482873 -0.461760
v -0.735230 0.469132 0.259287
v -0.738193 0.482873 0.262250
v -0.730543 0.469132 -0.461760
v -0.735230 0.469132 -0.461760
v -0.730543 0.504948 0.254600
v -0.742709 0.489695 -0.461760
v -0.730543 0.504948 -0.461760
v -0.730543 0.469132 0.254600
v -0.742709 0.489695 0.266767
v -0.748837 0.495115 0.272895
v -0.748837 0.495115 -0.461760
v -0.766359 0.504948 -0.461760
v -0.756159 0.498765 0.280217
v -0.766359 0.504948 0.290416
v -0.756159 0.498765 -0.461760
v -0.764176 0.500395 0.288234
v -0.766359 0.500261 0.290416
v -0.764176 0.500395 -0.461760
v -0.766359 0.500261 -0.461760
vn -0.9816056144077214 -0.19091992500323163 0
vn -0.8987442924222312 -0.4384731426649335 0
vn 0.8987442924222312 0.4384731426649335 0
vn 0.9816056144077214 0.19091992500323163 0
vn -0.9981278529618042 -0.061161990989983116 0
vn 0.9981278529618042 0.061161990989983116 0
vn 0 0 -1
vn 0 0 1
vn 0.7071067811865476 0 0.7071067811865476
vn -0.7071067811865476 0 -0.7071067811865476
vn -0.7546349078402176 -0.6561449198683066 0
vn 0.7546349078402176 0.6561449198683066 0
vn 0 -1 0
vn 0 1 0
vn 1 0 0
vn -1 0 0
vn -0.5590989552715262 -0.8291009336710987 0
vn 0.5590989552715262 0.8291009336710987 0
vn -0.3254608353726755 -0.9455555217111897 0
vn 0.3254608353726755 0.9455555217111897 0
vn -0.06964299851545504 -0.9975719787352573 0
vn 0.06964299851545504 0.9975719787352573 0
vn 0.061161990989983116 -0.9981278529618042 0
vn -0.061161990989983116 0.9981278529618042 0
usemtl material_0_0
f 1//1 2//1 3//2
f 3//3 2//4 1//4
f 2//1 1//1 4//5
f 4//6 1//4 2//4
f 5//2 3//2 2//1
f 2//4 3//3 5//3
f 1//7 3//7 6//7
f 6//8 3//8 1//8
f 7//5 4//5 1//1
f 1//4 4//6 7//6
f 2//9 4//9 8//9
f 8//10 4//10 2//10
f 3//2 5//2 9//11
f 9//12 5//3 3//3
f 5//9 2//9 8//9
f 8//10 2//10 5//10
f 6//7 3//7 10//7
f 10//8 3//8 6//8
f 7//7 1//7 6//7
f 6//8 1//8 7//8
f 7//13 6//13 4//13
f 4//14 6//14 7//14
f 11//9 8//9 4//9
f 4//10 8//10 11//10
f 12//11 9//11 5//2
f 5//3 9//12 12//12
f 9//7 10//7 3//7
f 3//8 10//8 9//8
f 12//9 5//9 8//9
f 8//10 5//10 12//10
f 10//15 8//15 6//15
f 6//16 8//16 10//16
f 11//13 4//13 6//13
f 6//14 4//14 11//14
f 11//15 6//15 8//15
f 8//16 6//16 11//16
f 12//11 13//17 9//11
f 9//12 13//18 12//12
f 14//7 10//7 9//7
f 9//8 10//8 14//8
f 13//9 12//9 8//9
f 8//10 12//10 13//10
f 10//14 15//14 8//14
f 8//13 15//13 10//13
f 14//17 9//11 13//17
f 13//18 9//12 14//18
f 15//7 10//7 14//7
f 14//8 10//8 15//8
f 16//9 13//9 8//9
f 8//10 13//10 16//10
f 17//14 8//14 15//14
f 15//13 8//13 17//13
f 13//17 16//19 14//17
f 14//18 16//20 13//18
f 18//7 15//7 14//7
f 14//8 15//8 18//8
f 19//9 16//9 8//9
f 8//10 16//10 19//10
f 17//9 19//9 8//9
f 8//10 19//10 17//10
f 17//16 15//16 20//16
f 20//15 15//15 17//15
f 18//19 14//17 16//19
f 16//20 14//18 18//20
f 21//7 15//7 18//7
f 18//8 15//8 21//8
f 16//19 19//21 18//19
f 18//20 19//22 16//20
f 20//9 19//9 17//9
f 17//10 19//10 20//10
f 22//16 20//16 15//16
f 15//15 20//15 22//15
f 22//7 15//7 21//7
f 21//8 15//8 22//8
f 21//21 18//19 19//21
f 19//22 18//20 21//22
f 19//21 20//23 21//21
f 21//22 20//24 19//22
f 22//23 21//21 20//23
f 20//24 21//22 22//24
