# SSTK version 0.8.0
# 20
mtllib original-20.mtl
o Component_24_1/Component_24/mesh99/mesh99-geometry#mesh99-geometry
v 0.728753 -0.408064 0.227815
v -0.703885 -0.381202 0.227815
v -0.703885 -0.408064 0.227815
v 0.728753 -0.381202 0.227815
v -0.703885 -0.408064 -0.461589
v 0.012434 -0.408064 -0.354194
v 0.728746 -0.381202 -0.461589
v 0.012434 -0.381202 -0.354194
v -0.703885 -0.381202 -0.461589
v -0.012892 -0.408064 -0.415336
v 0.003164 -0.408064 -0.355414
v 0.021704 -0.408064 -0.355414
v 0.728746 -0.408064 -0.461589
v 0.037759 -0.381202 -0.415336
v 0.021704 -0.381202 -0.355414
v 0.003164 -0.381202 -0.355414
v -0.012892 -0.381202 -0.415336
v -0.703885 -0.408064 -0.461642
v -0.005474 -0.408064 -0.421027
v -0.018584 -0.408064 -0.407918
v -0.005474 -0.408064 -0.358992
v 0.030342 -0.408064 -0.358992
v 0.037759 -0.408064 -0.415336
v 0.728753 -0.381202 -0.461642
v 0.030342 -0.381202 -0.421027
v 0.043451 -0.381202 -0.407918
v 0.030342 -0.381202 -0.358992
v -0.005474 -0.381202 -0.358992
v -0.005474 -0.381202 -0.421027
v -0.018584 -0.381202 -0.407918
v -0.703885 -0.381202 -0.461642
v 0.003164 -0.408064 -0.424605
v -0.022162 -0.408064 -0.399280
v -0.012892 -0.408064 -0.364684
v 0.037759 -0.408064 -0.364684
v 0.030342 -0.408064 -0.421027
v 0.043451 -0.408064 -0.407918
v 0.728753 -0.408064 -0.461642
v 0.021704 -0.381202 -0.424605
v 0.047029 -0.381202 -0.399280
v 0.037759 -0.381202 -0.364684
v -0.012892 -0.381202 -0.364684
v 0.003164 -0.381202 -0.424605
v -0.022162 -0.381202 -0.399280
v 0.012434 -0.408064 -0.425826
v -0.023382 -0.408064 -0.390010
v -0.018584 -0.408064 -0.372102
v 0.043451 -0.408064 -0.372102
v 0.021704 -0.408064 -0.424605
v 0.047029 -0.408064 -0.399280
v 0.012434 -0.381202 -0.425826
v 0.048250 -0.381202 -0.390010
v 0.043451 -0.381202 -0.372102
v -0.018584 -0.381202 -0.372102
v -0.023382 -0.381202 -0.390010
v -0.022162 -0.408064 -0.380740
v 0.047029 -0.408064 -0.380740
v 0.048250 -0.408064 -0.390010
v 0.047029 -0.381202 -0.380740
v -0.022162 -0.381202 -0.380740
vn 0 0 1
vn -1 0 0
vn 0 -1 0
vn 1 0 -0.0000099999999995
vn 0 1 0
vn 0.2588189595935754 0 -0.965925849201117
vn 0 0 -1
vn -0.2588189595935754 0 -0.965925849201117
vn 0.9924326806406732 0 0.12278996048687242
vn 0.5000001748438417 0 0.8660253028382762
vn 0.7071067811865476 0 0.7071067811865476
vn 0.8660253028382762 0 0.5000001748438417
vn 0.5000001748438417 0 -0.8660253028382762
vn -0.5000001748438417 0 -0.8660253028382762
vn -0.5000001748438417 0 0.8660253028382762
vn -0.7071067811865476 0 0.7071067811865476
vn -0.8660253028382762 0 0.5000001748438417
vn 0.2588189595935754 0 0.965925849201117
vn 0.965925849201117 0 0.2588189595935754
vn 0.7071067811865476 0 -0.7071067811865476
vn -0.7071067811865476 0 -0.7071067811865476
vn -0.2588189595935754 0 0.965925849201117
vn -0.965925849201117 0 0.2588189595935754
vn 1 0 0
vn 0.8660253028382762 0 -0.5000001748438417
vn -0.8660253028382762 0 -0.5000001748438417
vn 0.965925849201117 0 -0.2588189595935754
vn -0.965925849201117 0 -0.2588189595935754
vn -1 0 0.0000099999999995
vn -0.9924326806406732 0 -0.12278996048687242
usemtl material_0_0
f 1//1 2//1 3//1
f 2//1 1//1 4//1
f 2//2 5//2 3//2
f 3//3 6//3 1//3
f 1//4 7//4 4//4
f 4//5 8//5 2//5
f 5//2 2//2 9//2
f 5//3 10//3 3//3
f 3//3 11//3 6//3
f 12//3 1//3 6//3
f 7//4 1//4 13//4
f 7//5 14//5 4//5
f 4//5 15//5 8//5
f 16//5 2//5 8//5
f 17//5 9//5 2//5
f 9//2 18//2 5//2
f 5//3 19//3 10//3
f 3//3 10//3 20//3
f 3//3 21//3 11//3
f 11//6 8//7 6//7
f 22//3 1//3 12//3
f 6//7 15//8 12//8
f 23//3 13//3 1//3
f 13//9 24//9 7//9
f 14//5 7//5 25//5
f 4//5 14//5 26//5
f 4//5 27//5 15//5
f 15//8 6//7 8//7
f 28//5 2//5 16//5
f 8//7 11//6 16//6
f 29//5 9//5 17//5
f 17//5 2//5 30//5
f 18//2 9//2 31//2
f 18//3 13//3 5//3
f 5//3 32//3 19//3
f 19//10 17//11 10//11
f 17//11 20//12 10//11
f 3//3 20//3 33//3
f 3//3 34//3 21//3
f 21//13 16//6 11//6
f 35//3 1//3 22//3
f 12//8 27//14 22//14
f 27//14 12//8 15//8
f 36//3 13//3 23//3
f 23//3 1//3 37//3
f 24//9 13//9 38//9
f 24//5 9//5 7//5
f 25//5 7//5 39//5
f 25//15 23//16 14//16
f 23//16 26//17 14//16
f 4//5 26//5 40//5
f 4//5 41//5 27//5
f 42//5 2//5 28//5
f 16//6 21//13 28//13
f 43//5 9//5 29//5
f 17//11 19//10 29//10
f 30//5 2//5 44//5
f 20//12 17//11 30//12
f 9//5 24//5 31//5
f 24//7 18//7 31//7
f 13//3 18//3 38//3
f 5//3 13//3 45//3
f 5//3 45//3 32//3
f 32//18 29//10 19//10
f 30//12 33//19 20//12
f 3//3 33//3 46//3
f 3//3 47//3 34//3
f 34//20 28//13 21//13
f 48//3 1//3 35//3
f 22//14 41//21 35//21
f 41//21 22//14 27//14
f 49//3 13//3 36//3
f 23//16 25//15 36//15
f 37//3 1//3 50//3
f 26//17 23//16 37//17
f 18//7 24//7 38//7
f 7//5 9//5 51//5
f 39//5 7//5 51//5
f 39//22 36//15 25//15
f 37//17 40//23 26//17
f 4//5 40//5 52//5
f 4//5 53//5 41//5
f 54//5 2//5 42//5
f 28//13 34//20 42//20
f 51//5 9//5 43//5
f 29//10 32//18 43//18
f 44//5 2//5 55//5
f 33//19 30//12 44//19
f 13//3 49//3 45//3
f 45//1 43//18 32//18
f 44//19 46//24 33//19
f 3//3 46//3 56//3
f 3//3 56//3 47//3
f 54//25 34//20 47//25
f 57//3 1//3 48//3
f 41//21 48//26 35//21
f 36//15 39//22 49//22
f 50//3 1//3 58//3
f 40//23 37//17 50//23
f 51//1 49//22 39//22
f 50//23 52//2 40//23
f 4//5 52//5 59//5
f 4//5 59//5 53//5
f 48//26 41//21 53//26
f 60//5 2//5 54//5
f 34//20 54//25 42//20
f 43//18 45//1 51//1
f 55//5 2//5 60//5
f 46//24 44//19 55//24
f 49//22 51//1 45//1
f 55//24 56//27 46//24
f 60//27 47//25 56//27
f 47//25 60//27 54//25
f 58//3 1//3 57//3
f 53//26 57//28 48//26
f 52//2 50//23 58//2
f 58//2 59//28 52//2
f 57//28 53//26 59//28
f 56//27 55//24 60//27
f 59//28 58//2 57//28
usemtl material_1_0
f 3//7 2//7 1//7
f 4//7 1//7 2//7
f 3//24 5//24 2//24
f 1//5 6//5 3//5
f 4//29 7//29 1//29
f 2//3 8//3 4//3
f 9//24 2//24 5//24
f 3//5 10//5 5//5
f 6//5 11//5 3//5
f 6//5 1//5 12//5
f 13//29 1//29 7//29
f 4//3 14//3 7//3
f 8//3 15//3 4//3
f 8//3 2//3 16//3
f 2//3 9//3 17//3
f 5//24 18//24 9//24
f 10//5 19//5 5//5
f 20//5 10//5 3//5
f 11//5 21//5 3//5
f 6//1 8//1 11//22
f 12//5 1//5 22//5
f 12//18 15//18 6//1
f 1//5 13//5 23//5
f 7//30 24//30 13//30
f 25//3 7//3 14//3
f 26//3 14//3 4//3
f 15//3 27//3 4//3
f 8//1 6//1 15//18
f 16//3 2//3 28//3
f 16//22 11//22 8//1
f 17//3 9//3 29//3
f 30//3 2//3 17//3
f 31//24 9//24 18//24
f 5//5 13//5 18//5
f 19//5 32//5 5//5
f 10//21 17//21 19//14
f 10//21 20//26 17//21
f 33//5 20//5 3//5
f 21//5 34//5 3//5
f 11//22 16//22 21//15
f 22//5 1//5 35//5
f 22//10 27//10 12//18
f 15//18 12//18 27//10
f 23//5 13//5 36//5
f 37//5 1//5 23//5
f 38//30 13//30 24//30
f 7//3 9//3 24//3
f 39//3 7//3 25//3
f 14//20 23//20 25//13
f 14//20 26//25 23//20
f 40//3 26//3 4//3
f 27//3 41//3 4//3
f 28//3 2//3 42//3
f 28//15 21//15 16//22
f 29//3 9//3 43//3
f 29//14 19//14 17//21
f 44//3 2//3 30//3
f 30//26 17//21 20//26
f 31//3 24//3 9//3
f 31//1 18//1 24//1
f 38//5 18//5 13//5
f 45//5 13//5 5//5
f 32//5 45//5 5//5
f 19//14 29//14 32//8
f 20//26 33//28 30//26
f 46//5 33//5 3//5
f 34//5 47//5 3//5
f 21//15 28//15 34//16
f 35//5 1//5 48//5
f 35//11 41//11 22//10
f 27//10 22//10 41//11
f 36//5 13//5 49//5
f 36//13 25//13 23//20
f 50//5 1//5 37//5
f 37//25 23//20 26//25
f 38//1 24//1 18//1
f 51//3 9//3 7//3
f 51//3 7//3 39//3
f 25//13 36//13 39//6
f 26//25 40//27 37//25
f 52//3 40//3 4//3
f 41//3 53//3 4//3
f 42//3 2//3 54//3
f 42//16 34//16 28//15
f 43//3 9//3 51//3
f 43//8 32//8 29//14
f 55//3 2//3 44//3
f 44//28 30//26 33//28
f 45//5 49//5 13//5
f 32//8 43//8 45//7
f 33//28 46//2 44//28
f 56//5 46//5 3//5
f 47//5 56//5 3//5
f 47//17 34//16 54//17
f 48//5 1//5 57//5
f 35//11 48//12 41//11
f 49//6 39//6 36//13
f 58//5 1//5 50//5
f 50//27 37//25 40//27
f 39//6 49//6 51//7
f 40//27 52//24 50//27
f 59//3 52//3 4//3
f 53//3 59//3 4//3
f 53//12 41//11 48//12
f 54//3 2//3 60//3
f 42//16 54//17 34//16
f 51//7 45//7 43//8
f 60//3 2//3 55//3
f 55//2 44//28 46//2
f 45//7 51//7 49//6
f 46//2 56//23 55//2
f 56//23 47//17 60//23
f 54//17 60//23 47//17
f 57//5 1//5 58//5
f 48//12 57//19 53//12
f 58//24 50//27 52//24
f 52//24 59//19 58//24
f 59//19 53//12 57//19
f 60//23 55//2 56//23
f 57//19 58//24 59//19
