# SSTK version 0.8.0
# 2
mtllib original-2.mtl
o trim_1_1_1/trim_1_1/mesh3/mesh3-geometry#mesh3-geometry
v 0.773175 -0.484486 -0.461507
v 0.777652 -0.484486 0.276495
v 0.777652 -0.484486 -0.461507
v 0.773175 -0.484486 0.272018
v 0.778810 -0.484639 -0.461507
v 0.773175 -0.493440 -0.461507
v 0.778810 -0.484639 0.277654
v 0.777652 -0.493440 -0.461507
v 0.773175 -0.493440 0.272018
v 0.779890 -0.485086 0.278734
v 0.779890 -0.485086 -0.461507
v 0.778810 -0.493288 -0.461507
v 0.777652 -0.493440 0.276495
v 0.778810 -0.493288 0.277654
v 0.780817 -0.485798 0.279661
v 0.779890 -0.492841 0.278734
v 0.781529 -0.486725 0.280373
v 0.780817 -0.485798 -0.461507
v 0.779890 -0.492841 -0.461507
v 0.780817 -0.492129 0.279661
v 0.781976 -0.487805 0.280820
v 0.781529 -0.486725 -0.461507
v 0.781529 -0.491202 0.280373
v 0.782129 -0.488963 0.280972
v 0.781976 -0.487805 -0.461507
v 0.780817 -0.492129 -0.461507
v 0.781976 -0.490122 0.280820
v 0.782129 -0.488963 -0.461507
v 0.781529 -0.491202 -0.461507
v 0.781976 -0.490122 -0.461507
vn 0 1 0
vn 0.06540299554311302 0.9978589320009053 0
vn -0.06540299554311302 -0.9978589320009053 0
vn 0 -1 0
vn 0.2588189595935754 0.965925849201117 0
vn -0.2588189595935754 -0.965925849201117 0
vn 0 0 -1
vn 0 0 1
vn -1 0 0
vn 1 0 0
vn 0.7071067811865476 0 -0.7071067811865476
vn -0.7071067811865476 0 0.7071067811865476
vn 0.5000001748438417 0.8660253028382762 0
vn -0.5000001748438417 -0.8660253028382762 0
vn 0.06540299554311302 -0.9978589320009053 0
vn -0.06540299554311302 0.9978589320009053 0
vn 0.2588189595935754 -0.965925849201117 0
vn -0.2588189595935754 0.965925849201117 0
vn 0.7071067811865476 0.7071067811865476 0
vn -0.7071067811865476 -0.7071067811865476 0
vn 0.5000001748438417 -0.8660253028382762 0
vn -0.5000001748438417 0.8660253028382762 0
vn 0.8660253028382762 0.5000001748438417 0
vn -0.8660253028382762 -0.5000001748438417 0
vn 0.7071067811865476 -0.7071067811865476 0
vn -0.7071067811865476 0.7071067811865476 0
vn 0.965925849201117 0.2588189595935754 0
vn -0.965925849201117 -0.2588189595935754 0
vn 0.8660253028382762 -0.5000001748438417 0
vn -0.8660253028382762 0.5000001748438417 0
vn 0.965925849201117 -0.2588189595935754 0
vn -0.965925849201117 0.2588189595935754 0
usemtl material_0_0
f 1//1 2//2 3//2
f 2//2 1//1 4//1
f 3//3 2//3 1//4
f 4//4 1//4 2//3
f 2//2 5//5 3//2
f 3//3 5//6 2//3
f 3//7 6//7 1//7
f 1//8 6//8 3//8
f 6//9 4//9 1//9
f 1//10 4//10 6//10
f 7//11 4//11 2//11
f 2//12 4//12 7//12
f 5//5 2//2 7//5
f 7//6 2//3 5//6
f 8//7 3//7 5//7
f 5//8 3//8 8//8
f 6//7 3//7 8//7
f 8//8 3//8 6//8
f 4//9 6//9 9//9
f 9//10 6//10 4//10
f 10//11 4//11 7//11
f 7//12 4//12 10//12
f 7//5 11//13 5//5
f 5//6 11//14 7//6
f 8//7 5//7 12//7
f 12//8 5//8 8//8
f 13//15 6//4 8//15
f 8//16 6//1 13//16
f 6//4 13//15 9//4
f 9//1 13//16 6//1
f 14//11 9//11 4//11
f 4//12 9//12 14//12
f 15//11 4//11 10//11
f 10//12 4//12 15//12
f 11//13 7//5 10//13
f 10//14 7//6 11//14
f 12//7 5//7 11//7
f 11//8 5//8 12//8
f 12//17 13//15 8//15
f 8//16 13//16 12//18
f 9//11 14//11 13//11
f 13//12 14//12 9//12
f 14//11 4//11 16//11
f 16//12 4//12 14//12
f 17//11 4//11 15//11
f 15//12 4//12 17//12
f 18//19 10//13 15//19
f 15//20 10//14 18//20
f 10//13 18//19 11//13
f 11//14 18//20 10//14
f 12//7 11//7 19//7
f 19//8 11//8 12//8
f 13//15 12//17 14//17
f 14//18 12//18 13//16
f 16//11 4//11 20//11
f 20//12 4//12 16//12
f 12//17 16//21 14//17
f 14//18 16//22 12//18
f 21//11 4//11 17//11
f 17//12 4//12 21//12
f 22//23 15//19 17//23
f 17//24 15//20 22//24
f 15//19 22//23 18//19
f 18//20 22//24 15//20
f 19//7 11//7 18//7
f 18//8 11//8 19//8
f 16//21 12//17 19//21
f 19//22 12//18 16//22
f 20//11 4//11 23//11
f 23//12 4//12 20//12
f 19//21 20//25 16//21
f 16//22 20//26 19//22
f 24//11 4//11 21//11
f 21//12 4//12 24//12
f 25//27 17//23 21//27
f 21//28 17//24 25//28
f 17//23 25//27 22//23
f 22//24 25//28 17//24
f 26//7 18//7 22//7
f 22//8 18//8 26//8
f 19//7 18//7 26//7
f 26//8 18//8 19//8
f 23//11 4//11 27//11
f 27//12 4//12 23//12
f 26//25 23//29 20//25
f 20//26 23//30 26//26
f 20//25 19//21 26//25
f 26//26 19//22 20//26
f 27//11 4//11 24//11
f 24//12 4//12 27//12
f 28//10 21//27 24//10
f 24//9 21//28 28//9
f 21//27 28//10 25//27
f 25//28 28//9 21//28
f 29//7 22//7 25//7
f 25//8 22//8 29//8
f 26//7 22//7 29//7
f 29//8 22//8 26//8
f 29//29 27//31 23//29
f 23//30 27//32 29//30
f 23//29 26//25 29//29
f 29//30 26//26 23//30
f 30//31 24//10 27//31
f 27//32 24//9 30//32
f 24//10 30//31 28//10
f 28//9 30//32 24//9
f 30//7 25//7 28//7
f 28//8 25//8 30//8
f 29//7 25//7 30//7
f 30//8 25//8 29//8
f 27//31 29//29 30//31
f 30//32 29//30 27//32
