# SSTK version 0.8.0
# 48
mtllib original-48.mtl
o Component_36_1/Component_36/mesh160/mesh160-geometry#mesh160-geometry
v -0.061352 -0.379095 0.227703
v -0.052398 -0.316417 0.227703
v -0.061352 -0.316417 0.227703
v 0.010280 -0.379095 0.227703
v -0.061352 -0.316417 0.236657
v -0.629930 -0.379095 0.227703
v -0.052398 0.350655 0.227703
v 0.010280 -0.379095 0.254565
v -0.052398 -0.316417 0.236657
v -0.629930 -0.316417 0.236657
v -0.061352 -0.307463 0.254565
v -0.629930 -0.316417 0.227703
v -0.061352 -0.379095 0.254565
v 0.010280 0.413333 0.227703
v -0.052398 0.350655 0.236657
v -0.061352 -0.307463 0.236657
v -0.701562 -0.379095 0.227703
v -0.629930 -0.379095 0.254565
v -0.061352 0.350655 0.227703
v 0.010280 0.413333 0.254565
v -0.061352 0.341701 0.236657
v -0.061352 -0.000789 0.236657
v -0.638884 -0.316417 0.236657
v -0.327733 -0.307463 0.236657
v -0.629930 -0.307463 0.254565
v -0.327733 -0.307463 0.245611
v -0.061352 -0.000789 0.245611
v -0.638884 -0.316417 0.227703
v -0.061352 0.413333 0.227703
v -0.061352 0.350655 0.236657
v -0.061352 0.341701 0.254565
v -0.061352 0.413333 0.254565
v -0.061352 0.035027 0.236657
v -0.629930 -0.307463 0.236657
v -0.363549 -0.307463 0.236657
v -0.638884 0.350655 0.227703
v -0.701562 -0.379095 0.254565
v -0.629930 0.350655 0.227703
v -0.629930 0.341701 0.236657
v -0.061352 0.035027 0.245611
v -0.327733 -0.000789 0.236657
v -0.629930 -0.000789 0.236657
v -0.363549 -0.307463 0.245611
v -0.701562 0.413333 0.227703
v -0.701562 0.413333 0.254565
v -0.629930 0.341701 0.254565
v -0.629930 -0.000789 0.245611
v -0.629930 0.413333 0.254565
v -0.629930 0.413333 0.227703
v -0.629930 0.350655 0.236657
v -0.363549 0.341701 0.236657
v -0.327733 0.035027 0.245611
v -0.327733 0.035027 0.236657
v -0.327733 -0.000789 0.245611
v -0.638884 0.350655 0.236657
v -0.629930 0.035027 0.236657
v -0.363549 -0.000789 0.245611
v -0.363549 -0.000789 0.236657
v -0.629930 0.035027 0.245611
v -0.327733 0.341701 0.236657
v -0.363549 0.341701 0.245611
v -0.363549 0.035027 0.236657
v -0.327733 0.341701 0.245611
v -0.363549 0.035027 0.245611
vn 0 0 1
vn 0 0 -1
vn 0 -1 0
vn 0 1 0
vn 1 0 0
vn -1 0 0
usemtl material_0_0
f 1//1 2//1 3//1
f 4//1 2//1 1//1
f 3//2 2//2 1//2
f 1//2 2//2 4//2
f 2//3 5//3 3//3
f 3//4 5//4 2//4
f 5//5 1//5 3//5
f 3//6 1//6 5//6
f 3//1 6//1 1//1
f 1//2 6//2 3//2
f 4//1 7//1 2//1
f 2//2 7//2 4//2
f 1//4 8//4 4//4
f 4//3 8//3 1//3
f 5//3 2//3 9//3
f 9//4 2//4 5//4
f 10//3 3//3 5//3
f 5//4 3//4 10//4
f 11//5 1//5 5//5
f 5//6 1//6 11//6
f 6//1 3//1 12//1
f 12//2 3//2 6//2
f 6//4 13//4 1//4
f 1//3 13//3 6//3
f 14//1 7//1 4//1
f 4//2 7//2 14//2
f 15//5 2//5 7//5
f 7//6 2//6 15//6
f 8//4 1//4 13//4
f 13//3 1//3 8//3
f 8//6 14//6 4//6
f 4//5 14//5 8//5
f 2//5 15//5 9//5
f 9//6 15//6 2//6
f 9//1 16//1 5//1
f 5//2 16//2 9//2
f 3//3 10//3 12//3
f 12//4 10//4 3//4
f 16//1 10//1 5//1
f 5//2 10//2 16//2
f 1//5 11//5 13//5
f 13//6 11//6 1//6
f 16//5 11//5 5//5
f 5//6 11//6 16//6
f 12//1 17//1 6//1
f 6//2 17//2 12//2
f 6//6 10//6 12//6
f 12//5 10//5 6//5
f 13//4 6//4 18//4
f 18//3 6//3 13//3
f 14//1 19//1 7//1
f 7//2 19//2 14//2
f 19//4 15//4 7//4
f 7//3 15//3 19//3
f 11//2 8//2 13//2
f 13//1 8//1 11//1
f 14//6 8//6 20//6
f 20//5 8//5 14//5
f 15//1 21//1 9//1
f 9//2 21//2 15//2
f 9//1 22//1 16//1
f 16//2 22//2 9//2
f 23//3 12//3 10//3
f 10//4 12//4 23//4
f 24//1 10//1 16//1
f 16//2 10//2 24//2
f 13//2 25//2 11//2
f 11//1 25//1 13//1
f 11//3 26//3 16//3
f 16//4 26//4 11//4
f 27//5 11//5 16//5
f 16//6 11//6 27//6
f 28//1 17//1 12//1
f 12//2 17//2 28//2
f 17//4 18//4 6//4
f 6//3 18//3 17//3
f 18//6 10//6 6//6
f 6//5 10//5 18//5
f 25//2 13//2 18//2
f 18//1 13//1 25//1
f 19//1 14//1 29//1
f 29//2 14//2 19//2
f 15//4 19//4 30//4
f 30//3 19//3 15//3
f 31//2 8//2 11//2
f 11//1 8//1 31//1
f 8//2 32//2 20//2
f 20//1 32//1 8//1
f 32//3 14//3 20//3
f 20//4 14//4 32//4
f 21//1 15//1 30//1
f 30//2 15//2 21//2
f 9//1 21//1 33//1
f 33//2 21//2 9//2
f 9//1 33//1 22//1
f 22//2 33//2 9//2
f 27//5 16//5 22//5
f 22//6 16//6 27//6
f 12//3 23//3 28//3
f 28//4 23//4 12//4
f 34//1 23//1 10//1
f 10//2 23//2 34//2
f 35//1 10//1 24//1
f 24//2 10//2 35//2
f 24//3 16//3 26//3
f 26//4 16//4 24//4
f 26//3 11//3 25//3
f 25//4 11//4 26//4
f 11//5 27//5 31//5
f 31//6 27//6 11//6
f 36//1 17//1 28//1
f 28//2 17//2 36//2
f 18//4 17//4 37//4
f 37//3 17//3 18//3
f 18//6 34//6 10//6
f 10//5 34//5 18//5
f 37//2 25//2 18//2
f 18//1 25//1 37//1
f 34//6 18//6 25//6
f 25//5 18//5 34//5
f 14//3 32//3 29//3
f 29//4 32//4 14//4
f 29//1 38//1 19//1
f 19//2 38//2 29//2
f 29//5 30//5 19//5
f 19//6 30//6 29//6
f 38//4 30//4 19//4
f 19//3 30//3 38//3
f 32//2 8//2 31//2
f 31//1 8//1 32//1
f 30//1 39//1 21//1
f 21//2 39//2 30//2
f 32//5 21//5 30//5
f 30//6 21//6 32//6
f 21//5 40//5 33//5
f 33//6 40//6 21//6
f 33//1 41//1 22//1
f 22//2 41//2 33//2
f 40//5 22//5 33//5
f 33//6 22//6 40//6
f 41//4 27//4 22//4
f 22//3 27//3 41//3
f 22//5 40//5 27//5
f 27//6 40//6 22//6
f 23//6 36//6 28//6
f 28//5 36//5 23//5
f 42//1 23//1 34//1
f 34//2 23//2 42//2
f 10//1 35//1 34//1
f 34//2 35//2 10//2
f 24//3 43//3 35//3
f 35//4 43//4 24//4
f 41//1 35//1 24//1
f 24//2 35//2 41//2
f 43//3 24//3 26//3
f 26//4 24//4 43//4
f 26//6 41//6 24//6
f 24//5 41//5 26//5
f 26//3 25//3 43//3
f 43//4 25//4 26//4
f 40//5 31//5 27//5
f 27//6 31//6 40//6
f 36//1 44//1 17//1
f 17//2 44//2 36//2
f 17//5 45//5 37//5
f 37//6 45//6 17//6
f 37//2 46//2 25//2
f 25//1 46//1 37//1
f 25//6 47//6 34//6
f 34//5 47//5 25//5
f 35//3 25//3 34//3
f 34//4 25//4 35//4
f 48//3 29//3 32//3
f 32//4 29//4 48//4
f 32//5 30//5 29//5
f 29//6 30//6 32//6
f 38//1 29//1 49//1
f 49//2 29//2 38//2
f 30//4 38//4 50//4
f 50//3 38//3 30//3
f 21//5 32//5 31//5
f 31//6 32//6 21//6
f 31//2 48//2 32//2
f 32//1 48//1 31//1
f 39//1 30//1 50//1
f 50//2 30//2 39//2
f 21//1 39//1 51//1
f 51//2 39//2 21//2
f 31//5 40//5 21//5
f 21//6 40//6 31//6
f 52//3 33//3 40//3
f 40//4 33//4 52//4
f 41//1 33//1 53//1
f 53//2 33//2 41//2
f 27//4 41//4 54//4
f 54//3 41//3 27//3
f 27//2 52//2 40//2
f 40//1 52//1 27//1
f 36//6 23//6 55//6
f 55//5 23//5 36//5
f 56//1 23//1 42//1
f 42//2 23//2 56//2
f 34//6 47//6 42//6
f 42//5 47//5 34//5
f 43//3 25//3 35//3
f 35//4 25//4 43//4
f 35//5 57//5 43//5
f 43//6 57//6 35//6
f 41//1 58//1 35//1
f 35//2 58//2 41//2
f 57//2 26//2 43//2
f 43//1 26//1 57//1
f 41//6 26//6 54//6
f 54//5 26//5 41//5
f 44//1 36//1 49//1
f 49//2 36//2 44//2
f 45//5 17//5 44//5
f 44//6 17//6 45//6
f 45//2 46//2 37//2
f 37//1 46//1 45//1
f 46//6 59//6 25//6
f 25//5 59//5 46//5
f 47//6 25//6 59//6
f 59//5 25//5 47//5
f 29//3 48//3 49//3
f 49//4 48//4 29//4
f 50//6 49//6 38//6
f 38//5 49//5 50//5
f 38//1 49//1 36//1
f 36//2 49//2 38//2
f 36//4 50//4 38//4
f 38//3 50//3 36//3
f 60//4 31//4 21//4
f 21//3 31//3 60//3
f 48//2 31//2 46//2
f 46//1 31//1 48//1
f 50//1 23//1 39//1
f 39//2 23//2 50//2
f 39//6 46//6 50//6
f 50//5 46//5 39//5
f 39//4 61//4 51//4
f 51//3 61//3 39//3
f 21//1 51//1 60//1
f 60//2 51//2 21//2
f 33//3 52//3 53//3
f 53//4 52//4 33//4
f 53//1 58//1 41//1
f 41//2 58//2 53//2
f 54//6 53//6 41//6
f 41//5 53//5 54//5
f 52//2 27//2 54//2
f 54//1 27//1 52//1
f 23//1 50//1 55//1
f 55//2 50//2 23//2
f 50//4 36//4 55//4
f 55//3 36//3 50//3
f 39//1 23//1 56//1
f 56//2 23//2 39//2
f 47//6 56//6 42//6
f 42//5 56//5 47//5
f 42//1 62//1 56//1
f 56//2 62//2 42//2
f 57//4 42//4 47//4
f 47//3 42//3 57//3
f 57//5 35//5 58//5
f 58//6 35//6 57//6
f 57//2 54//2 26//2
f 26//1 54//1 57//1
f 49//3 45//3 44//3
f 44//4 45//4 49//4
f 46//2 45//2 48//2
f 48//1 45//1 46//1
f 59//6 46//6 39//6
f 39//5 46//5 59//5
f 59//2 57//2 47//2
f 47//1 57//1 59//1
f 56//6 47//6 59//6
f 59//5 47//5 56//5
f 45//3 49//3 48//3
f 48//4 49//4 45//4
f 49//6 46//6 48//6
f 48//5 46//5 49//5
f 46//6 49//6 50//6
f 50//5 49//5 46//5
f 31//4 60//4 63//4
f 63//3 60//3 31//3
f 31//4 63//4 46//4
f 46//3 63//3 31//3
f 46//4 61//4 39//4
f 39//3 61//3 46//3
f 61//5 62//5 51//5
f 51//6 62//6 61//6
f 63//4 51//4 61//4
f 61//3 51//3 63//3
f 62//1 60//1 51//1
f 51//2 60//2 62//2
f 51//4 63//4 60//4
f 60//3 63//3 51//3
f 52//6 60//6 53//6
f 53//5 60//5 52//5
f 53//6 54//6 52//6
f 52//5 54//5 53//5
f 53//1 62//1 58//1
f 58//2 62//2 53//2
f 64//2 52//2 54//2
f 54//1 52//1 64//1
f 59//6 39//6 56//6
f 56//5 39//5 59//5
f 62//1 42//1 58//1
f 58//2 42//2 62//2
f 62//3 59//3 56//3
f 56//4 59//4 62//4
f 42//4 57//4 58//4
f 58//3 57//3 42//3
f 58//5 64//5 57//5
f 57//6 64//6 58//6
f 64//2 54//2 57//2
f 57//1 54//1 64//1
f 57//2 59//2 64//2
f 64//1 59//1 57//1
f 60//6 52//6 63//6
f 63//5 52//5 60//5
f 46//4 63//4 61//4
f 61//3 63//3 46//3
f 62//5 61//5 64//5
f 64//6 61//6 62//6
f 52//2 61//2 63//2
f 63//1 61//1 52//1
f 60//1 62//1 53//1
f 53//2 62//2 60//2
f 64//5 58//5 62//5
f 62//6 58//6 64//6
f 61//2 52//2 64//2
f 64//1 52//1 61//1
f 59//3 62//3 64//3
f 64//4 62//4 59//4
