# SSTK version 0.8.0
# 8
mtllib original-8.mtl
o right_side_base_4_1/right_side_base_4/mesh13/mesh13-geometry#mesh13-geometry
v 0.764444 -0.426191 -0.461347
v 0.755490 -0.551547 -0.461347
v 0.755490 -0.426191 -0.461347
v 0.773398 -0.551547 -0.461347
v 0.755490 -0.426191 0.254202
v 0.766762 -0.426496 -0.461347
v 0.773398 -0.551547 0.272110
v 0.755490 -0.551547 0.254202
v 0.764444 -0.426191 0.263156
v 0.768921 -0.427391 -0.461347
v 0.773398 -0.435145 -0.461347
v 0.773398 -0.435145 0.272110
v 0.766762 -0.426496 0.265473
v 0.770776 -0.428814 -0.461347
v 0.773093 -0.432828 -0.461347
v 0.773093 -0.432828 0.271805
v 0.768921 -0.427391 0.267633
v 0.772199 -0.430668 -0.461347
v 0.772199 -0.430668 0.270910
v 0.770776 -0.428814 0.269487
vn 0 0 -1
vn 0 0 1
vn -1 0 0
vn 1 0 0
vn 0 1 0
vn 0 -1 0
vn 0.1305259853353411 0.9914448886106773 0
vn 0.2588189595935754 0.965925849201117 0
vn -0.1305259853353411 -0.9914448886106773 0
vn -0.2588189595935754 -0.965925849201117 0
vn -0.7071067811865476 0 0.7071067811865476
vn 0.7071067811865476 0 -0.7071067811865476
vn 0.5000001748438417 0.8660253028382762 0
vn -0.5000001748438417 -0.8660253028382762 0
vn 0.7071067811865476 0.7071067811865476 0
vn -0.7071067811865476 -0.7071067811865476 0
vn 0.965925849201117 0.2588189595935754 0
vn 0.9914448886106773 0.1305259853353411 0
vn -0.9914448886106773 -0.1305259853353411 0
vn -0.965925849201117 -0.2588189595935754 0
vn 0.8660253028382762 0.5000001748438417 0
vn -0.8660253028382762 -0.5000001748438417 0
usemtl material_0_0
f 1//1 2//1 3//1
f 2//1 1//1 4//1
f 3//2 2//2 1//2
f 4//2 1//2 2//2
f 2//3 5//3 3//3
f 3//4 5//4 2//4
f 5//5 1//5 3//5
f 3//6 1//6 5//6
f 4//1 1//1 6//1
f 6//2 1//2 4//2
f 7//6 2//6 4//6
f 4//5 2//5 7//5
f 5//3 2//3 8//3
f 8//4 2//4 5//4
f 1//5 5//5 9//5
f 9//6 5//6 1//6
f 9//7 6//8 1//7
f 1//9 6//10 9//9
f 4//1 6//1 10//1
f 10//2 6//2 4//2
f 2//6 7//6 8//6
f 8//5 7//5 2//5
f 11//4 7//4 4//4
f 4//3 7//3 11//3
f 8//11 12//11 5//11
f 5//12 12//12 8//12
f 5//11 13//11 9//11
f 9//12 13//12 5//12
f 6//8 9//7 13//8
f 13//10 9//9 6//10
f 13//8 10//13 6//8
f 6//10 10//14 13//10
f 4//1 10//1 14//1
f 14//2 10//2 4//2
f 12//11 8//11 7//11
f 7//12 8//12 12//12
f 7//4 11//4 12//4
f 12//3 11//3 7//3
f 4//1 15//1 11//1
f 11//2 15//2 4//2
f 5//11 12//11 16//11
f 16//12 12//12 5//12
f 5//11 17//11 13//11
f 13//12 17//12 5//12
f 10//13 13//8 17//13
f 17//14 13//10 10//14
f 17//13 14//15 10//13
f 10//14 14//16 17//14
f 4//1 14//1 18//1
f 18//2 14//2 4//2
f 15//17 12//18 11//18
f 11//19 12//19 15//20
f 4//1 18//1 15//1
f 15//2 18//2 4//2
f 12//18 15//17 16//17
f 16//20 15//20 12//19
f 5//11 16//11 19//11
f 19//12 16//12 5//12
f 5//11 20//11 17//11
f 17//12 20//12 5//12
f 14//15 17//13 20//15
f 20//16 17//14 14//16
f 20//15 18//21 14//15
f 14//16 18//22 20//16
f 18//21 16//17 15//17
f 15//20 16//20 18//22
f 16//17 18//21 19//21
f 19//22 18//22 16//20
f 5//11 19//11 20//11
f 20//12 19//12 5//12
f 18//21 20//15 19//21
f 19//22 20//16 18//22
