# Blender v2.92.0 OBJ File: ''
# www.blender.org
mtllib book.mtl
o book_Cube.001
v -0.103000 -0.008500 0.128000
v -0.103000 0.008500 0.128000
v -0.103000 -0.008500 -0.128000
v -0.103000 0.008500 -0.128000
v 0.103000 -0.008500 0.128000
v 0.103000 0.008500 0.128000
v 0.103000 -0.008500 -0.128000
v 0.103000 0.008500 -0.128000
vt 0.915716 0.029165
vt 0.948511 0.030331
vt 0.949823 0.969788
vt 0.914404 0.968622
vt 0.897350 0.966986
vt 0.856071 0.968576
vt 0.852041 0.030332
vt 0.893976 0.028742
vt 0.854032 0.050861
vt 0.894702 0.048528
vt 0.896014 0.923822
vt 0.854689 0.923822
vt 0.852064 0.032545
vt 0.894046 0.032545
vt 0.897327 0.968502
vt 0.854689 0.968502
vt 0.418703 0.973460
vt 0.016776 0.970109
vt 0.019113 0.031393
vt 0.419995 0.031024
vt 0.835105 0.969404
vt 0.436385 0.968679
vt 0.435096 0.032265
vt 0.833407 0.030488
vn -1.0000 0.0000 0.0000
vn 0.0000 0.0000 -1.0000
vn 1.0000 0.0000 0.0000
vn 0.0000 0.0000 1.0000
vn 0.0000 -1.0000 0.0000
vn 0.0000 1.0000 0.0000
usemtl Material.001
s off
f 1/1/1 2/2/1 4/3/1 3/4/1
f 3/5/2 4/6/2 8/7/2 7/8/2
f 7/9/3 8/10/3 6/11/3 5/12/3
f 5/13/4 6/14/4 2/15/4 1/16/4
f 3/17/5 7/18/5 5/19/5 1/20/5
f 8/21/6 4/22/6 2/23/6 6/24/6
