# SSTK version 0.8.0
# 13
mtllib original-13.mtl
o Obj_000013_1/Obj_000013/mesh13/mesh13-geometry#mesh13-geometry
v -0.360170 -0.856392 0.196546
v -0.360170 -0.797174 -0.209218
v -0.360170 -0.856392 -0.209218
v -0.360170 -0.792422 -0.209004
v -0.360170 -0.787550 -0.208335
v -0.360170 -0.782621 -0.207176
v -0.360170 -0.777705 -0.205504
v -0.360170 -0.772882 -0.203309
v -0.360170 -0.768232 -0.200597
v -0.360170 -0.763837 -0.197389
v -0.360170 -0.759775 -0.193727
v -0.360170 -0.756112 -0.189664
v -0.360170 -0.752905 -0.185269
v -0.360170 -0.750192 -0.180619
v -0.360170 -0.747997 -0.175796
v -0.360170 -0.746325 -0.170880
v -0.360170 -0.745166 -0.165951
v -0.360170 -0.744497 -0.161079
v -0.360170 -0.744283 -0.156327
v -0.360170 -0.744283 0.143654
v -0.360170 -0.744497 0.148407
v -0.360170 -0.745166 0.153279
v -0.360170 -0.746325 0.158208
v -0.360170 -0.747997 0.163123
v -0.360170 -0.750192 0.167947
v -0.360170 -0.752905 0.172597
v -0.360170 -0.756112 0.176992
v -0.360170 -0.759775 0.181054
v -0.360170 -0.763837 0.184717
v -0.360170 -0.768232 0.187924
v -0.360170 -0.772882 0.190637
v -0.360170 -0.777705 0.192832
v -0.360170 -0.782621 0.194504
v -0.360170 -0.787550 0.195663
v -0.360170 -0.792422 0.196332
v -0.360170 -0.797174 0.196546
vn -1 0 0
vn 1 0 0
usemtl material_0_0
f 1//1 2//1 3//1
f 2//1 1//1 4//1
f 4//1 1//1 5//1
f 5//1 1//1 6//1
f 6//1 1//1 7//1
f 7//1 1//1 8//1
f 8//1 1//1 9//1
f 9//1 1//1 10//1
f 10//1 1//1 11//1
f 11//1 1//1 12//1
f 12//1 1//1 13//1
f 13//1 1//1 14//1
f 14//1 1//1 15//1
f 15//1 1//1 16//1
f 16//1 1//1 17//1
f 17//1 1//1 18//1
f 18//1 1//1 19//1
f 19//1 1//1 20//1
f 20//1 1//1 21//1
f 21//1 1//1 22//1
f 22//1 1//1 23//1
f 23//1 1//1 24//1
f 24//1 1//1 25//1
f 25//1 1//1 26//1
f 26//1 1//1 27//1
f 27//1 1//1 28//1
f 28//1 1//1 29//1
f 29//1 1//1 30//1
f 30//1 1//1 31//1
f 31//1 1//1 32//1
f 32//1 1//1 33//1
f 33//1 1//1 34//1
f 34//1 1//1 35//1
f 35//1 1//1 36//1
usemtl material_1_0
f 3//2 2//2 1//2
f 4//2 1//2 2//2
f 5//2 1//2 4//2
f 6//2 1//2 5//2
f 7//2 1//2 6//2
f 8//2 1//2 7//2
f 9//2 1//2 8//2
f 10//2 1//2 9//2
f 11//2 1//2 10//2
f 12//2 1//2 11//2
f 13//2 1//2 12//2
f 14//2 1//2 13//2
f 15//2 1//2 14//2
f 16//2 1//2 15//2
f 17//2 1//2 16//2
f 18//2 1//2 17//2
f 19//2 1//2 18//2
f 20//2 1//2 19//2
f 21//2 1//2 20//2
f 22//2 1//2 21//2
f 23//2 1//2 22//2
f 24//2 1//2 23//2
f 25//2 1//2 24//2
f 26//2 1//2 25//2
f 27//2 1//2 26//2
f 28//2 1//2 27//2
f 29//2 1//2 28//2
f 30//2 1//2 29//2
f 31//2 1//2 30//2
f 32//2 1//2 31//2
f 33//2 1//2 32//2
f 34//2 1//2 33//2
f 35//2 1//2 34//2
f 36//2 1//2 35//2
