# SSTK version 0.8.0
# 30
mtllib original-30.mtl
o Obj_000030_1/Obj_000030/mesh31/mesh31-geometry#mesh31-geometry
v 0.516548 -0.709040 -0.033983
v 0.516470 -0.709040 0.022748
v 0.517288 -0.709040 -0.006339
v 0.516167 -0.709040 -0.006336
v 0.514336 -0.709040 -0.061548
v 0.514022 -0.709040 0.051743
v 0.514074 -0.709040 -0.052810
v 0.514074 -0.709040 0.040138
v 0.510659 -0.709040 -0.088956
v 0.511383 -0.709040 0.063847
v 0.511383 -0.709040 -0.076520
v 0.509952 -0.709040 0.080552
v 0.507532 -0.709040 -0.100450
v 0.507532 -0.709040 0.087778
v 0.505527 -0.709040 -0.116128
v 0.504272 -0.709040 0.109087
v 0.502482 -0.709040 -0.124522
v 0.502482 -0.709040 0.111850
v 0.498949 -0.709040 -0.142987
v 0.492069 -0.709040 0.153368
v 0.496202 -0.709040 -0.148652
v 0.496202 -0.709040 0.135980
v 0.490949 -0.709040 -0.169457
v 0.488664 -0.709040 0.160077
v 0.488664 -0.709040 -0.172749
v 0.475997 -0.709040 0.196394
v 0.481550 -0.709040 -0.195463
v 0.479852 -0.709040 0.184048
v 0.479852 -0.709040 -0.196720
v 0.469759 -0.709040 0.207794
v 0.470779 -0.709040 -0.220931
v 0.466096 -0.709040 0.218267
v 0.469759 -0.709040 -0.220467
v 0.458385 -0.709040 0.231218
v 0.460309 -0.709040 -0.242601
v 0.455193 -0.709040 0.239659
v 0.458385 -0.709040 -0.243890
v 0.445744 -0.709040 0.254216
v 0.448843 -0.709040 -0.263762
v 0.443312 -0.709040 0.260524
v 0.445744 -0.709040 -0.266888
v 0.431858 -0.709040 0.276689
v 0.436409 -0.709040 -0.284369
v 0.430478 -0.709040 0.280816
v 0.431858 -0.709040 -0.289361
v 0.416760 -0.709040 0.298536
v 0.423032 -0.709040 -0.304376
v 0.416717 -0.709040 0.300491
v 0.416760 -0.709040 -0.311209
v 0.400493 -0.709040 0.319663
v 0.408739 -0.709040 -0.323740
v 0.402059 -0.709040 0.319508
v 0.400493 -0.709040 -0.332335
v 0.386537 -0.709040 0.337827
v 0.393563 -0.709040 -0.342419
v 0.383112 -0.709040 0.339976
v 0.383112 -0.709040 -0.352649
v 0.370184 -0.709040 0.355407
v 0.377537 -0.709040 -0.360375
v 0.364678 -0.709040 0.359390
v 0.364678 -0.709040 -0.372062
v 0.352991 -0.709040 0.372249
v 0.360696 -0.709040 -0.377568
v 0.345265 -0.709040 0.377823
v 0.345265 -0.709040 -0.390495
v 0.335035 -0.709040 0.388274
v 0.343115 -0.709040 -0.393921
v 0.324951 -0.709040 0.395205
v 0.324951 -0.709040 -0.407877
v 0.316356 -0.709040 0.403450
v 0.324797 -0.709040 -0.409443
v 0.303825 -0.709040 0.411472
v 0.303825 -0.709040 -0.424144
v 0.296992 -0.709040 0.417743
v 0.305780 -0.709040 -0.424101
v 0.281977 -0.709040 0.426570
v 0.286105 -0.709040 -0.437862
v 0.276985 -0.709040 0.431121
v 0.281977 -0.709040 -0.439242
v 0.259504 -0.709040 0.440456
v 0.265813 -0.709040 -0.450696
v 0.256378 -0.709040 0.443555
v 0.259504 -0.709040 -0.453128
v 0.236506 -0.709040 0.453097
v 0.244948 -0.709040 -0.462577
v 0.235217 -0.709040 0.455020
v 0.236506 -0.709040 -0.465769
v 0.213083 -0.709040 0.464470
v 0.223556 -0.709040 -0.473480
v 0.213547 -0.709040 0.465491
v 0.213083 -0.709040 -0.477143
v 0.188079 -0.709040 0.476262
v 0.201682 -0.709040 -0.483381
v 0.189336 -0.709040 0.474564
v 0.189336 -0.709040 -0.487236
v 0.165365 -0.709040 0.483375
v 0.158656 -0.709040 -0.499453
v 0.162073 -0.709040 0.485660
v 0.165365 -0.709040 -0.496048
v 0.141268 -0.709040 0.490913
v 0.141268 -0.709040 -0.503586
v 0.135603 -0.709040 0.493661
v 0.114376 -0.709040 -0.511656
v 0.117138 -0.709040 0.497194
v 0.117138 -0.709040 -0.509866
v 0.108744 -0.709040 0.500238
v 0.093066 -0.709040 -0.514916
v 0.093066 -0.709040 0.502243
v 0.085841 -0.709040 -0.517336
v 0.081572 -0.709040 0.505371
v 0.069136 -0.709040 -0.518767
v 0.069136 -0.709040 0.506094
v 0.057031 -0.709040 -0.521406
v 0.054164 -0.709040 0.509047
v 0.045426 -0.709040 -0.521458
v 0.045426 -0.709040 0.508786
v 0.028037 -0.709040 -0.523854
v 0.026599 -0.709040 0.511260
v -0.001048 -0.709040 -0.523551
v -0.001048 -0.709040 0.510878
v -0.001050 -0.709040 -0.524672
v -0.001045 -0.709040 0.511999
v -0.047522 -0.709040 -0.521458
v -0.030132 -0.709040 0.511182
v -0.028695 -0.709040 -0.523932
v -0.047522 -0.709040 0.508786
v -0.056260 -0.709040 -0.521720
v -0.059127 -0.709040 0.508733
v -0.071231 -0.709040 -0.518767
v -0.071231 -0.709040 0.506094
v -0.083668 -0.709040 -0.518043
v -0.087936 -0.709040 0.504663
v -0.095162 -0.709040 -0.514916
v -0.095162 -0.709040 0.502243
v -0.110840 -0.709040 -0.512911
v -0.116471 -0.709040 0.498983
v -0.119234 -0.709040 -0.509866
v -0.119234 -0.709040 0.497194
v -0.137698 -0.709040 -0.506333
v -0.160752 -0.709040 0.486781
v -0.143364 -0.709040 -0.503586
v -0.143364 -0.709040 0.490913
v -0.164168 -0.709040 -0.498333
v -0.167461 -0.709040 0.483375
v -0.167461 -0.709040 -0.496048
v -0.203777 -0.709040 0.470709
v -0.190174 -0.709040 -0.488934
v -0.191432 -0.709040 0.474564
v -0.191432 -0.709040 -0.487236
v -0.215178 -0.709040 0.464470
v -0.215643 -0.709040 -0.478163
v -0.225651 -0.709040 0.460808
v -0.215178 -0.709040 -0.477143
v -0.238601 -0.709040 0.453097
v -0.238601 -0.709040 -0.465769
v -0.247043 -0.709040 0.449904
v -0.237313 -0.709040 -0.467693
v -0.261600 -0.709040 0.440456
v -0.258474 -0.709040 -0.456227
v -0.267908 -0.709040 0.438024
v -0.261600 -0.709040 -0.453128
v -0.284072 -0.709040 0.426570
v -0.279080 -0.709040 -0.443793
v -0.288200 -0.709040 0.425190
v -0.284072 -0.709040 -0.439242
v -0.305920 -0.709040 0.411472
v -0.299087 -0.709040 -0.430416
v -0.307875 -0.709040 0.411428
v -0.305920 -0.709040 -0.424144
v -0.327047 -0.709040 0.395205
v -0.318451 -0.709040 -0.416123
v -0.326892 -0.709040 0.396770
v -0.327047 -0.709040 -0.407877
v -0.345211 -0.709040 0.381248
v -0.337131 -0.709040 -0.400947
v -0.347360 -0.709040 0.377823
v -0.347360 -0.709040 -0.390495
v -0.362791 -0.709040 0.364895
v -0.355087 -0.709040 -0.384921
v -0.366773 -0.709040 0.359390
v -0.366773 -0.709040 -0.372062
v -0.379633 -0.709040 0.347703
v -0.372279 -0.709040 -0.368080
v -0.385207 -0.709040 0.339976
v -0.385207 -0.709040 -0.352649
v -0.395658 -0.709040 0.329747
v -0.388632 -0.709040 -0.350499
v -0.402589 -0.709040 0.319663
v -0.402589 -0.709040 -0.332335
v -0.410834 -0.709040 0.311067
v -0.404154 -0.709040 -0.332181
v -0.418856 -0.709040 0.298536
v -0.418856 -0.709040 -0.311209
v -0.425127 -0.709040 0.291703
v -0.418812 -0.709040 -0.313164
v -0.433954 -0.709040 0.276689
v -0.432574 -0.709040 -0.293489
v -0.438504 -0.709040 0.271696
v -0.433954 -0.709040 -0.289361
v -0.447840 -0.709040 0.254216
v -0.445408 -0.709040 -0.273197
v -0.450939 -0.709040 0.251090
v -0.447840 -0.709040 -0.266888
v -0.460481 -0.709040 0.231218
v -0.457289 -0.709040 -0.252332
v -0.462404 -0.709040 0.229929
v -0.460481 -0.709040 -0.243890
v -0.471854 -0.709040 0.207794
v -0.468192 -0.709040 -0.230940
v -0.472875 -0.709040 0.208259
v -0.471854 -0.709040 -0.220467
v -0.481948 -0.709040 0.184048
v -0.478092 -0.709040 -0.209066
v -0.483646 -0.709040 0.182790
v -0.481948 -0.709040 -0.196720
v -0.490759 -0.709040 0.160077
v -0.494165 -0.709040 -0.166040
v -0.493044 -0.709040 0.156784
v -0.490759 -0.709040 -0.172749
v -0.498297 -0.709040 0.135980
v -0.498297 -0.709040 -0.148652
v -0.501044 -0.709040 0.130314
v -0.506368 -0.709040 -0.121760
v -0.504578 -0.709040 0.111850
v -0.504578 -0.709040 -0.124522
v -0.507622 -0.709040 0.103456
v -0.509627 -0.709040 -0.100450
v -0.509627 -0.709040 0.087778
v -0.512047 -0.709040 -0.093224
v -0.512755 -0.709040 0.076284
v -0.513478 -0.709040 -0.076520
v -0.513478 -0.709040 0.063847
v -0.516117 -0.709040 -0.064414
v -0.516432 -0.709040 0.048877
v -0.516170 -0.709040 -0.052810
v -0.516170 -0.709040 0.040138
v -0.518566 -0.709040 -0.035421
v -0.518262 -0.709040 -0.006336
v -0.518644 -0.709040 0.021311
v -0.519382 -0.709040 -0.006336
vn 0 1 0
vn 0 -1 0
usemtl material_0_0
f 1//1 2//1 3//1
f 2//1 1//1 4//1
f 4//1 1//1 5//1
f 4//1 6//1 2//1
f 4//1 5//1 7//1
f 6//1 4//1 8//1
f 7//1 5//1 9//1
f 6//1 8//1 10//1
f 7//1 9//1 11//1
f 6//1 10//1 12//1
f 11//1 9//1 13//1
f 12//1 10//1 14//1
f 13//1 9//1 15//1
f 12//1 14//1 16//1
f 13//1 15//1 17//1
f 16//1 14//1 18//1
f 17//1 15//1 19//1
f 16//1 18//1 20//1
f 17//1 19//1 21//1
f 20//1 18//1 22//1
f 21//1 19//1 23//1
f 20//1 22//1 24//1
f 21//1 23//1 25//1
f 20//1 24//1 26//1
f 25//1 23//1 27//1
f 26//1 24//1 28//1
f 25//1 27//1 29//1
f 26//1 28//1 30//1
f 29//1 27//1 31//1
f 26//1 30//1 32//1
f 29//1 31//1 33//1
f 32//1 30//1 34//1
f 33//1 31//1 35//1
f 32//1 34//1 36//1
f 33//1 35//1 37//1
f 36//1 34//1 38//1
f 37//1 35//1 39//1
f 36//1 38//1 40//1
f 37//1 39//1 41//1
f 40//1 38//1 42//1
f 41//1 39//1 43//1
f 40//1 42//1 44//1
f 41//1 43//1 45//1
f 44//1 42//1 46//1
f 45//1 43//1 47//1
f 44//1 46//1 48//1
f 45//1 47//1 49//1
f 48//1 46//1 50//1
f 49//1 47//1 51//1
f 48//1 50//1 52//1
f 49//1 51//1 53//1
f 52//1 50//1 54//1
f 53//1 51//1 55//1
f 54//1 50//1 56//1
f 53//1 55//1 57//1
f 54//1 56//1 58//1
f 57//1 55//1 59//1
f 58//1 56//1 60//1
f 57//1 59//1 61//1
f 58//1 60//1 62//1
f 61//1 59//1 63//1
f 62//1 60//1 64//1
f 61//1 63//1 65//1
f 62//1 64//1 66//1
f 65//1 63//1 67//1
f 66//1 64//1 68//1
f 65//1 67//1 69//1
f 66//1 68//1 70//1
f 69//1 67//1 71//1
f 70//1 68//1 72//1
f 69//1 71//1 73//1
f 70//1 72//1 74//1
f 73//1 71//1 75//1
f 74//1 72//1 76//1
f 73//1 75//1 77//1
f 74//1 76//1 78//1
f 73//1 77//1 79//1
f 78//1 76//1 80//1
f 79//1 77//1 81//1
f 78//1 80//1 82//1
f 79//1 81//1 83//1
f 82//1 80//1 84//1
f 83//1 81//1 85//1
f 82//1 84//1 86//1
f 83//1 85//1 87//1
f 86//1 84//1 88//1
f 87//1 85//1 89//1
f 86//1 88//1 90//1
f 87//1 89//1 91//1
f 90//1 88//1 92//1
f 91//1 89//1 93//1
f 92//1 88//1 94//1
f 91//1 93//1 95//1
f 92//1 94//1 96//1
f 95//1 93//1 97//1
f 92//1 96//1 98//1
f 95//1 97//1 99//1
f 98//1 96//1 100//1
f 99//1 97//1 101//1
f 98//1 100//1 102//1
f 101//1 97//1 103//1
f 102//1 100//1 104//1
f 101//1 103//1 105//1
f 102//1 104//1 106//1
f 105//1 103//1 107//1
f 106//1 104//1 108//1
f 107//1 103//1 109//1
f 106//1 108//1 110//1
f 107//1 109//1 111//1
f 110//1 108//1 112//1
f 111//1 109//1 113//1
f 110//1 112//1 114//1
f 111//1 113//1 115//1
f 114//1 112//1 116//1
f 115//1 113//1 117//1
f 114//1 116//1 118//1
f 115//1 117//1 119//1
f 118//1 116//1 120//1
f 119//1 117//1 121//1
f 118//1 120//1 122//1
f 119//1 121//1 123//1
f 122//1 120//1 124//1
f 123//1 121//1 125//1
f 124//1 120//1 126//1
f 123//1 125//1 127//1
f 124//1 126//1 128//1
f 123//1 127//1 129//1
f 128//1 126//1 130//1
f 129//1 127//1 131//1
f 128//1 130//1 132//1
f 129//1 131//1 133//1
f 132//1 130//1 134//1
f 133//1 131//1 135//1
f 132//1 134//1 136//1
f 133//1 135//1 137//1
f 136//1 134//1 138//1
f 137//1 135//1 139//1
f 136//1 138//1 140//1
f 137//1 139//1 141//1
f 140//1 138//1 142//1
f 141//1 139//1 143//1
f 140//1 142//1 144//1
f 141//1 143//1 145//1
f 140//1 144//1 146//1
f 145//1 143//1 147//1
f 146//1 144//1 148//1
f 145//1 147//1 149//1
f 146//1 148//1 150//1
f 149//1 147//1 151//1
f 146//1 150//1 152//1
f 149//1 151//1 153//1
f 152//1 150//1 154//1
f 153//1 151//1 155//1
f 152//1 154//1 156//1
f 155//1 151//1 157//1
f 156//1 154//1 158//1
f 155//1 157//1 159//1
f 156//1 158//1 160//1
f 155//1 159//1 161//1
f 160//1 158//1 162//1
f 161//1 159//1 163//1
f 160//1 162//1 164//1
f 161//1 163//1 165//1
f 164//1 162//1 166//1
f 165//1 163//1 167//1
f 164//1 166//1 168//1
f 165//1 167//1 169//1
f 168//1 166//1 170//1
f 169//1 167//1 171//1
f 168//1 170//1 172//1
f 169//1 171//1 173//1
f 172//1 170//1 174//1
f 173//1 171//1 175//1
f 174//1 170//1 176//1
f 173//1 175//1 177//1
f 174//1 176//1 178//1
f 177//1 175//1 179//1
f 178//1 176//1 180//1
f 177//1 179//1 181//1
f 178//1 180//1 182//1
f 181//1 179//1 183//1
f 182//1 180//1 184//1
f 181//1 183//1 185//1
f 182//1 184//1 186//1
f 185//1 183//1 187//1
f 186//1 184//1 188//1
f 185//1 187//1 189//1
f 186//1 188//1 190//1
f 189//1 187//1 191//1
f 190//1 188//1 192//1
f 189//1 191//1 193//1
f 190//1 192//1 194//1
f 193//1 191//1 195//1
f 194//1 192//1 196//1
f 193//1 195//1 197//1
f 194//1 196//1 198//1
f 193//1 197//1 199//1
f 198//1 196//1 200//1
f 199//1 197//1 201//1
f 198//1 200//1 202//1
f 199//1 201//1 203//1
f 202//1 200//1 204//1
f 203//1 201//1 205//1
f 202//1 204//1 206//1
f 203//1 205//1 207//1
f 206//1 204//1 208//1
f 207//1 205//1 209//1
f 206//1 208//1 210//1
f 207//1 209//1 211//1
f 210//1 208//1 212//1
f 211//1 209//1 213//1
f 210//1 212//1 214//1
f 211//1 213//1 215//1
f 214//1 212//1 216//1
f 215//1 213//1 217//1
f 214//1 216//1 218//1
f 215//1 217//1 219//1
f 218//1 216//1 220//1
f 219//1 217//1 221//1
f 218//1 220//1 222//1
f 221//1 217//1 223//1
f 222//1 220//1 224//1
f 221//1 223//1 225//1
f 222//1 224//1 226//1
f 225//1 223//1 227//1
f 226//1 224//1 228//1
f 227//1 223//1 229//1
f 226//1 228//1 230//1
f 227//1 229//1 231//1
f 230//1 228//1 232//1
f 231//1 229//1 233//1
f 230//1 232//1 234//1
f 231//1 233//1 235//1
f 234//1 232//1 236//1
f 235//1 233//1 237//1
f 234//1 236//1 238//1
f 235//1 237//1 238//1
f 234//1 238//1 239//1
f 239//1 238//1 237//1
f 239//1 237//1 240//1
usemtl material_1_0
f 3//2 2//2 1//2
f 4//2 1//2 2//2
f 5//2 1//2 4//2
f 2//2 6//2 4//2
f 7//2 5//2 4//2
f 8//2 4//2 6//2
f 9//2 5//2 7//2
f 10//2 8//2 6//2
f 11//2 9//2 7//2
f 12//2 10//2 6//2
f 13//2 9//2 11//2
f 14//2 10//2 12//2
f 15//2 9//2 13//2
f 16//2 14//2 12//2
f 17//2 15//2 13//2
f 18//2 14//2 16//2
f 19//2 15//2 17//2
f 20//2 18//2 16//2
f 21//2 19//2 17//2
f 22//2 18//2 20//2
f 23//2 19//2 21//2
f 24//2 22//2 20//2
f 25//2 23//2 21//2
f 26//2 24//2 20//2
f 27//2 23//2 25//2
f 28//2 24//2 26//2
f 29//2 27//2 25//2
f 30//2 28//2 26//2
f 31//2 27//2 29//2
f 32//2 30//2 26//2
f 33//2 31//2 29//2
f 34//2 30//2 32//2
f 35//2 31//2 33//2
f 36//2 34//2 32//2
f 37//2 35//2 33//2
f 38//2 34//2 36//2
f 39//2 35//2 37//2
f 40//2 38//2 36//2
f 41//2 39//2 37//2
f 42//2 38//2 40//2
f 43//2 39//2 41//2
f 44//2 42//2 40//2
f 45//2 43//2 41//2
f 46//2 42//2 44//2
f 47//2 43//2 45//2
f 48//2 46//2 44//2
f 49//2 47//2 45//2
f 50//2 46//2 48//2
f 51//2 47//2 49//2
f 52//2 50//2 48//2
f 53//2 51//2 49//2
f 54//2 50//2 52//2
f 55//2 51//2 53//2
f 56//2 50//2 54//2
f 57//2 55//2 53//2
f 58//2 56//2 54//2
f 59//2 55//2 57//2
f 60//2 56//2 58//2
f 61//2 59//2 57//2
f 62//2 60//2 58//2
f 63//2 59//2 61//2
f 64//2 60//2 62//2
f 65//2 63//2 61//2
f 66//2 64//2 62//2
f 67//2 63//2 65//2
f 68//2 64//2 66//2
f 69//2 67//2 65//2
f 70//2 68//2 66//2
f 71//2 67//2 69//2
f 72//2 68//2 70//2
f 73//2 71//2 69//2
f 74//2 72//2 70//2
f 75//2 71//2 73//2
f 76//2 72//2 74//2
f 77//2 75//2 73//2
f 78//2 76//2 74//2
f 79//2 77//2 73//2
f 80//2 76//2 78//2
f 81//2 77//2 79//2
f 82//2 80//2 78//2
f 83//2 81//2 79//2
f 84//2 80//2 82//2
f 85//2 81//2 83//2
f 86//2 84//2 82//2
f 87//2 85//2 83//2
f 88//2 84//2 86//2
f 89//2 85//2 87//2
f 90//2 88//2 86//2
f 91//2 89//2 87//2
f 92//2 88//2 90//2
f 93//2 89//2 91//2
f 94//2 88//2 92//2
f 95//2 93//2 91//2
f 96//2 94//2 92//2
f 97//2 93//2 95//2
f 98//2 96//2 92//2
f 99//2 97//2 95//2
f 100//2 96//2 98//2
f 101//2 97//2 99//2
f 102//2 100//2 98//2
f 103//2 97//2 101//2
f 104//2 100//2 102//2
f 105//2 103//2 101//2
f 106//2 104//2 102//2
f 107//2 103//2 105//2
f 108//2 104//2 106//2
f 109//2 103//2 107//2
f 110//2 108//2 106//2
f 111//2 109//2 107//2
f 112//2 108//2 110//2
f 113//2 109//2 111//2
f 114//2 112//2 110//2
f 115//2 113//2 111//2
f 116//2 112//2 114//2
f 117//2 113//2 115//2
f 118//2 116//2 114//2
f 119//2 117//2 115//2
f 120//2 116//2 118//2
f 121//2 117//2 119//2
f 122//2 120//2 118//2
f 123//2 121//2 119//2
f 124//2 120//2 122//2
f 125//2 121//2 123//2
f 126//2 120//2 124//2
f 127//2 125//2 123//2
f 128//2 126//2 124//2
f 129//2 127//2 123//2
f 130//2 126//2 128//2
f 131//2 127//2 129//2
f 132//2 130//2 128//2
f 133//2 131//2 129//2
f 134//2 130//2 132//2
f 135//2 131//2 133//2
f 136//2 134//2 132//2
f 137//2 135//2 133//2
f 138//2 134//2 136//2
f 139//2 135//2 137//2
f 140//2 138//2 136//2
f 141//2 139//2 137//2
f 142//2 138//2 140//2
f 143//2 139//2 141//2
f 144//2 142//2 140//2
f 145//2 143//2 141//2
f 146//2 144//2 140//2
f 147//2 143//2 145//2
f 148//2 144//2 146//2
f 149//2 147//2 145//2
f 150//2 148//2 146//2
f 151//2 147//2 149//2
f 152//2 150//2 146//2
f 153//2 151//2 149//2
f 154//2 150//2 152//2
f 155//2 151//2 153//2
f 156//2 154//2 152//2
f 157//2 151//2 155//2
f 158//2 154//2 156//2
f 159//2 157//2 155//2
f 160//2 158//2 156//2
f 161//2 159//2 155//2
f 162//2 158//2 160//2
f 163//2 159//2 161//2
f 164//2 162//2 160//2
f 165//2 163//2 161//2
f 166//2 162//2 164//2
f 167//2 163//2 165//2
f 168//2 166//2 164//2
f 169//2 167//2 165//2
f 170//2 166//2 168//2
f 171//2 167//2 169//2
f 172//2 170//2 168//2
f 173//2 171//2 169//2
f 174//2 170//2 172//2
f 175//2 171//2 173//2
f 176//2 170//2 174//2
f 177//2 175//2 173//2
f 178//2 176//2 174//2
f 179//2 175//2 177//2
f 180//2 176//2 178//2
f 181//2 179//2 177//2
f 182//2 180//2 178//2
f 183//2 179//2 181//2
f 184//2 180//2 182//2
f 185//2 183//2 181//2
f 186//2 184//2 182//2
f 187//2 183//2 185//2
f 188//2 184//2 186//2
f 189//2 187//2 185//2
f 190//2 188//2 186//2
f 191//2 187//2 189//2
f 192//2 188//2 190//2
f 193//2 191//2 189//2
f 194//2 192//2 190//2
f 195//2 191//2 193//2
f 196//2 192//2 194//2
f 197//2 195//2 193//2
f 198//2 196//2 194//2
f 199//2 197//2 193//2
f 200//2 196//2 198//2
f 201//2 197//2 199//2
f 202//2 200//2 198//2
f 203//2 201//2 199//2
f 204//2 200//2 202//2
f 205//2 201//2 203//2
f 206//2 204//2 202//2
f 207//2 205//2 203//2
f 208//2 204//2 206//2
f 209//2 205//2 207//2
f 210//2 208//2 206//2
f 211//2 209//2 207//2
f 212//2 208//2 210//2
f 213//2 209//2 211//2
f 214//2 212//2 210//2
f 215//2 213//2 211//2
f 216//2 212//2 214//2
f 217//2 213//2 215//2
f 218//2 216//2 214//2
f 219//2 217//2 215//2
f 220//2 216//2 218//2
f 221//2 217//2 219//2
f 222//2 220//2 218//2
f 223//2 217//2 221//2
f 224//2 220//2 222//2
f 225//2 223//2 221//2
f 226//2 224//2 222//2
f 227//2 223//2 225//2
f 228//2 224//2 226//2
f 229//2 223//2 227//2
f 230//2 228//2 226//2
f 231//2 229//2 227//2
f 232//2 228//2 230//2
f 233//2 229//2 231//2
f 234//2 232//2 230//2
f 235//2 233//2 231//2
f 236//2 232//2 234//2
f 237//2 233//2 235//2
f 238//2 236//2 234//2
f 238//2 237//2 235//2
f 239//2 238//2 234//2
f 237//2 238//2 239//2
f 240//2 237//2 239//2
