# SSTK version 0.8.0
# 7
mtllib original-7.mtl
o Obj_000007_1/Obj_000007/mesh7/mesh7-geometry#mesh7-geometry
v -0.378741 -0.856392 0.348655
v -0.360170 -0.856392 0.196546
v -0.348561 -0.856392 0.378245
v -0.462333 -0.856392 0.196546
v -0.360170 -0.856392 -0.209218
v -0.406410 -0.856392 0.316705
v -0.335528 -0.856392 -0.402315
v -0.426568 -0.856392 0.289638
v -0.317678 -0.856392 0.404045
v -0.365119 -0.856392 -0.375293
v -0.444924 -0.856392 0.261317
v -0.303939 -0.856392 -0.426972
v -0.462333 -0.856392 -0.209218
v -0.461403 -0.856392 0.231864
v -0.284888 -0.856392 0.427374
v -0.393758 -0.856392 -0.344647
v -0.475933 -0.856392 0.201402
v -0.270180 -0.856392 -0.449331
v -0.419827 -0.856392 -0.311788
v -0.469504 -0.856392 0.197366
v -0.250140 -0.856392 0.448221
v -0.444078 -0.856392 -0.275407
v -0.234779 -0.856392 -0.468987
v -0.465179 -0.856392 -0.237114
v -0.213870 -0.856392 0.466292
v -0.469504 -0.856392 -0.210038
v -0.198017 -0.856392 -0.485793
v -0.475933 -0.856392 -0.214073
v -0.176497 -0.856392 0.481401
v -0.160057 -0.856392 -0.499684
v -0.138064 -0.856392 0.493561
v -0.121670 -0.856392 -0.510444
v -0.099477 -0.856392 0.502567
v -0.082570 -0.856392 -0.518224
v -0.060315 -0.856392 0.508600
v -0.043985 -0.856392 -0.522892
v -0.021922 -0.856392 0.511578
v -0.005159 -0.856392 -0.524658
v 0.016585 -0.856392 0.511699
v 0.032314 -0.856392 -0.523598
v 0.053530 -0.856392 0.509118
v 0.069612 -0.856392 -0.519834
v 0.090196 -0.856392 0.503906
v 0.092822 -0.856392 -0.516101
v 0.113399 -0.856392 0.499207
v 0.115838 -0.856392 -0.511320
v 0.136362 -0.856392 0.493453
v 0.138615 -0.856392 -0.505501
v 0.159040 -0.856392 0.486658
v 0.161103 -0.856392 -0.498656
v 0.181383 -0.856392 0.478836
v 0.196845 -0.856392 -0.485406
v 0.216899 -0.856392 0.463953
v 0.231519 -0.856392 -0.469567
v 0.251211 -0.856392 0.446475
v 0.265986 -0.856392 -0.450591
v 0.285063 -0.856392 0.425882
v 0.298916 -0.856392 -0.429055
v 0.317244 -0.856392 0.402764
v 0.330744 -0.856392 -0.404560
v 0.348073 -0.856392 0.376791
v 0.360581 -0.856392 -0.377676
v 0.376791 -0.856392 0.348502
v 0.388477 -0.856392 -0.348298
v 0.403355 -0.856392 0.317901
v 0.413994 -0.856392 -0.316832
v 0.427448 -0.856392 0.285320
v 0.436901 -0.856392 -0.283588
v 0.448781 -0.856392 0.251199
v 0.457150 -0.856392 -0.248662
v 0.467402 -0.856392 0.215527
v 0.474372 -0.856392 -0.212836
v 0.482928 -0.856392 0.179221
v 0.488800 -0.856392 -0.175797
v 0.495648 -0.856392 0.141838
v 0.500075 -0.856392 -0.138785
v 0.505239 -0.856392 0.104738
v 0.508560 -0.856392 -0.101035
v 0.512066 -0.856392 0.067031
v 0.512370 -0.856392 -0.077538
v 0.515098 -0.856392 -0.053889
v 0.515978 -0.856392 0.030440
v 0.516737 -0.856392 -0.030139
v 0.517284 -0.856392 -0.006338
vn 0 -1 0
vn 0 1 0
usemtl material_0_0
f 1//1 2//1 3//1
f 2//1 1//1 4//1
f 5//1 3//1 2//1
f 4//1 1//1 6//1
f 7//1 3//1 5//1
f 4//1 6//1 8//1
f 7//1 9//1 3//1
f 7//1 5//1 10//1
f 4//1 8//1 11//1
f 12//1 9//1 7//1
f 10//1 5//1 13//1
f 4//1 11//1 14//1
f 12//1 15//1 9//1
f 10//1 13//1 16//1
f 4//1 14//1 17//1
f 18//1 15//1 12//1
f 16//1 13//1 19//1
f 4//1 17//1 20//1
f 18//1 21//1 15//1
f 19//1 13//1 22//1
f 23//1 21//1 18//1
f 22//1 13//1 24//1
f 23//1 25//1 21//1
f 24//1 13//1 26//1
f 27//1 25//1 23//1
f 24//1 26//1 28//1
f 27//1 29//1 25//1
f 30//1 29//1 27//1
f 30//1 31//1 29//1
f 32//1 31//1 30//1
f 32//1 33//1 31//1
f 34//1 33//1 32//1
f 34//1 35//1 33//1
f 36//1 35//1 34//1
f 36//1 37//1 35//1
f 38//1 37//1 36//1
f 38//1 39//1 37//1
f 40//1 39//1 38//1
f 40//1 41//1 39//1
f 42//1 41//1 40//1
f 42//1 43//1 41//1
f 44//1 43//1 42//1
f 44//1 45//1 43//1
f 46//1 45//1 44//1
f 46//1 47//1 45//1
f 48//1 47//1 46//1
f 48//1 49//1 47//1
f 50//1 49//1 48//1
f 50//1 51//1 49//1
f 52//1 51//1 50//1
f 52//1 53//1 51//1
f 54//1 53//1 52//1
f 54//1 55//1 53//1
f 56//1 55//1 54//1
f 56//1 57//1 55//1
f 58//1 57//1 56//1
f 58//1 59//1 57//1
f 60//1 59//1 58//1
f 60//1 61//1 59//1
f 62//1 61//1 60//1
f 62//1 63//1 61//1
f 64//1 63//1 62//1
f 64//1 65//1 63//1
f 66//1 65//1 64//1
f 66//1 67//1 65//1
f 68//1 67//1 66//1
f 68//1 69//1 67//1
f 70//1 69//1 68//1
f 70//1 71//1 69//1
f 72//1 71//1 70//1
f 72//1 73//1 71//1
f 74//1 73//1 72//1
f 74//1 75//1 73//1
f 76//1 75//1 74//1
f 76//1 77//1 75//1
f 78//1 77//1 76//1
f 78//1 79//1 77//1
f 80//1 79//1 78//1
f 81//1 79//1 80//1
f 81//1 82//1 79//1
f 83//1 82//1 81//1
f 82//1 83//1 84//1
usemtl material_1_0
f 3//2 2//2 1//2
f 4//2 1//2 2//2
f 2//2 3//2 5//2
f 6//2 1//2 4//2
f 5//2 3//2 7//2
f 8//2 6//2 4//2
f 3//2 9//2 7//2
f 10//2 5//2 7//2
f 11//2 8//2 4//2
f 7//2 9//2 12//2
f 13//2 5//2 10//2
f 14//2 11//2 4//2
f 9//2 15//2 12//2
f 16//2 13//2 10//2
f 17//2 14//2 4//2
f 12//2 15//2 18//2
f 19//2 13//2 16//2
f 20//2 17//2 4//2
f 15//2 21//2 18//2
f 22//2 13//2 19//2
f 18//2 21//2 23//2
f 24//2 13//2 22//2
f 21//2 25//2 23//2
f 26//2 13//2 24//2
f 23//2 25//2 27//2
f 28//2 26//2 24//2
f 25//2 29//2 27//2
f 27//2 29//2 30//2
f 29//2 31//2 30//2
f 30//2 31//2 32//2
f 31//2 33//2 32//2
f 32//2 33//2 34//2
f 33//2 35//2 34//2
f 34//2 35//2 36//2
f 35//2 37//2 36//2
f 36//2 37//2 38//2
f 37//2 39//2 38//2
f 38//2 39//2 40//2
f 39//2 41//2 40//2
f 40//2 41//2 42//2
f 41//2 43//2 42//2
f 42//2 43//2 44//2
f 43//2 45//2 44//2
f 44//2 45//2 46//2
f 45//2 47//2 46//2
f 46//2 47//2 48//2
f 47//2 49//2 48//2
f 48//2 49//2 50//2
f 49//2 51//2 50//2
f 50//2 51//2 52//2
f 51//2 53//2 52//2
f 52//2 53//2 54//2
f 53//2 55//2 54//2
f 54//2 55//2 56//2
f 55//2 57//2 56//2
f 56//2 57//2 58//2
f 57//2 59//2 58//2
f 58//2 59//2 60//2
f 59//2 61//2 60//2
f 60//2 61//2 62//2
f 61//2 63//2 62//2
f 62//2 63//2 64//2
f 63//2 65//2 64//2
f 64//2 65//2 66//2
f 65//2 67//2 66//2
f 66//2 67//2 68//2
f 67//2 69//2 68//2
f 68//2 69//2 70//2
f 69//2 71//2 70//2
f 70//2 71//2 72//2
f 71//2 73//2 72//2
f 72//2 73//2 74//2
f 73//2 75//2 74//2
f 74//2 75//2 76//2
f 75//2 77//2 76//2
f 76//2 77//2 78//2
f 77//2 79//2 78//2
f 78//2 79//2 80//2
f 80//2 79//2 81//2
f 79//2 82//2 81//2
f 81//2 82//2 83//2
f 84//2 83//2 82//2
