# SSTK version 0.8.0
# 2
mtllib original-2.mtl
o Obj_000002_1/Obj_000002/mesh2/mesh2-geometry#mesh2-geometry
v 0.498813 0.778854 -0.024048
v 0.548381 0.778794 -0.024048
v 0.500017 0.778794 -0.024048
v 0.550960 0.779075 -0.024048
v 0.500017 0.778794 0.011213
v 0.498813 0.778854 0.011213
v 0.496275 0.779395 -0.024048
v 0.548381 0.778794 0.011213
v 0.496275 0.779395 0.011213
v 0.553356 0.779879 -0.024048
v 0.550960 0.779075 0.011213
v 0.493944 0.780453 0.011213
v 0.493944 0.780453 -0.024048
v 0.553356 0.779879 0.011213
v 0.555656 0.781266 -0.024048
v 0.491913 0.781964 0.011213
v 0.555656 0.781266 0.011213
v 0.491913 0.781964 -0.024048
v 0.557526 0.783056 -0.024048
v 0.490193 0.783945 -0.024048
v 0.557526 0.783056 0.011213
v 0.490193 0.783945 0.011213
v 0.559021 0.785314 -0.024048
v 0.488937 0.786281 -0.024048
v 0.559021 0.785314 0.011213
v 0.488937 0.786281 0.011213
v 0.559882 0.787523 -0.024048
v 0.559882 0.787523 0.011213
v 0.488249 0.788705 -0.024048
v 0.488249 0.788705 0.011213
v 0.560307 0.790131 -0.024048
v 0.560307 0.790131 0.011213
v 0.488090 0.791340 -0.024048
v 0.488090 0.791340 0.011213
v 0.560149 0.792766 -0.024048
v 0.560149 0.792766 0.011213
v 0.488515 0.793948 -0.024048
v 0.488515 0.793948 0.011213
v 0.559461 0.795190 -0.024048
v 0.559461 0.795190 0.011213
v 0.489376 0.796157 -0.024048
v 0.489376 0.796157 0.011213
v 0.558204 0.797526 -0.024048
v 0.558204 0.797526 0.011213
v 0.490872 0.798415 -0.024048
v 0.490872 0.798415 0.011213
v 0.556484 0.799507 -0.024048
v 0.556484 0.799507 0.011213
v 0.492741 0.800205 0.011213
v 0.492741 0.800205 -0.024048
v 0.554453 0.801018 -0.024048
v 0.495042 0.801592 0.011213
v 0.554453 0.801018 0.011213
v 0.495042 0.801592 -0.024048
v 0.552122 0.802076 -0.024048
v 0.497438 0.802395 0.011213
v 0.552122 0.802076 0.011213
v 0.497438 0.802395 -0.024048
v 0.549585 0.802616 -0.024048
v 0.500017 0.802677 0.011213
v 0.549585 0.802616 0.011213
v 0.500017 0.802677 -0.024048
v 0.548381 0.802677 -0.024048
v 0.548381 0.802677 0.011213
vn 0 0 -1
vn 0.054392978546080856 -0.9985196061594812 0
vn -0.025227993023098583 -0.9996817235340588 0
vn -0.12978095919622396 -0.9915426882540701 0
vn 0.21457892370755013 -0.9767066527368949 0
vn -0.31261287465320386 -0.949880619131194 0
vn 0 0 1
vn -0.5079741759978433 -0.861372298439712 0
vn 0.419626036993184 -0.9076970800203089 0
vn -0.6799969468806806 -0.7332149427234506 0
vn 0.607600721035383 -0.7942426353434339 0
vn -0.82294865186934 -0.5681157596708931 0
vn 0.7674203510427062 -0.6411442932799835 0
vn -0.9267810535841653 -0.3756020217163706 0
vn 0.8877660187402969 -0.4602950097165976 0
vn 0.964657195963859 -0.26350805352995377 0
vn -0.985864775679312 -0.1675429618777814 0
vn 0.9987147914114467 -0.050682989414503984 0
vn -0.9987153987541807 0.05067102023127027 0
vn 0.9858639217224078 0.1675479866966904 0
vn -0.9646599461700472 0.2634979852962859 0
vn 0.9267827281315704 0.3755978898196898 0
vn -0.887767456511006 0.4602922366931458 0
vn 0.8229499096828982 0.5681139376506349 0
vn -0.7674125532566677 0.6411536267573335 0
vn 0.6799959106920629 0.7332159037023623 0
vn -0.6076023170211486 0.794241414401523 0
vn 0.5079799404238621 0.8613688989782309 0
vn -0.4196418858020299 0.9076897529886058 0
vn 0.3126110701058538 0.9498812130194347 0
vn -0.21457892370755013 0.9767066527368949 0
vn 0.12977997603943905 0.9915428169369201 0
vn -0.054392978546080856 0.9985196061594812 0
vn 0.02522999174949129 0.9996816730921503 0
vn 0.025227993023098583 0.9996817235340588 0
vn 0.12978095919622396 0.9915426882540701 0
vn 0.31261287465320386 0.949880619131194 0
vn 0.5079741759978433 0.861372298439712 0
vn -0.419626036993184 0.9076970800203089 0
vn 0.6799969468806806 0.7332149427234506 0
vn -0.607600721035383 0.7942426353434339 0
vn 0.82294865186934 0.5681157596708931 0
vn -0.7674203510427062 0.6411442932799835 0
vn 0.9267810535841653 0.3756020217163706 0
vn -0.8877660187402969 0.4602950097165976 0
vn -0.964657195963859 0.26350805352995377 0
vn 0.985864775679312 0.1675429618777814 0
vn -0.9987147914114467 0.050682989414503984 0
vn 0.9987153987541807 -0.05067102023127027 0
vn -0.9858639217224078 -0.1675479866966904 0
vn 0.9646599461700472 -0.2634979852962859 0
vn -0.9267827281315704 -0.3755978898196898 0
vn 0.887767456511006 -0.4602922366931458 0
vn -0.8229499096828982 -0.5681139376506349 0
vn 0.7674125532566677 -0.6411536267573335 0
vn -0.6799959106920629 -0.7332159037023623 0
vn 0.6076023170211486 -0.794241414401523 0
vn -0.5079799404238621 -0.8613688989782309 0
vn 0.4196418858020299 -0.9076897529886058 0
vn -0.3126110701058538 -0.9498812130194347 0
vn -0.12977997603943905 -0.9915428169369201 0
vn -0.02522999174949129 -0.9996816730921503 0
usemtl material_0_0
f 1//1 2//1 3//1
f 2//1 1//1 4//1
f 2//2 5//3 3//3
f 3//3 6//4 1//4
f 4//1 1//1 7//1
f 4//5 8//2 2//2
f 5//3 2//2 8//2
f 6//4 3//3 5//3
f 9//6 1//4 6//4
f 1//4 9//6 7//6
f 4//1 7//1 10//1
f 8//2 4//5 11//5
f 11//7 5//7 8//7
f 5//7 11//7 6//7
f 6//7 11//7 9//7
f 12//8 7//6 9//6
f 10//1 7//1 13//1
f 10//9 11//5 4//5
f 9//7 11//7 14//7
f 7//6 12//8 13//8
f 9//7 14//7 12//7
f 10//1 13//1 15//1
f 11//5 10//9 14//9
f 16//10 13//8 12//8
f 12//7 14//7 17//7
f 15//1 13//1 18//1
f 15//11 14//9 10//9
f 13//8 16//10 18//10
f 12//7 17//7 16//7
f 14//9 15//11 17//11
f 15//1 18//1 19//1
f 16//10 20//12 18//10
f 16//7 17//7 21//7
f 19//13 17//11 15//11
f 19//1 18//1 20//1
f 20//12 16//10 22//12
f 17//11 19//13 21//13
f 16//7 21//7 22//7
f 19//1 20//1 23//1
f 22//12 24//14 20//12
f 19//13 25//15 21//13
f 22//7 21//7 25//7
f 23//1 20//1 24//1
f 25//15 19//13 23//15
f 24//14 22//12 26//14
f 22//7 25//7 26//7
f 23//1 24//1 27//1
f 23//15 28//16 25//15
f 26//14 29//17 24//14
f 26//7 25//7 28//7
f 27//1 24//1 29//1
f 28//16 23//15 27//16
f 29//17 26//14 30//17
f 26//7 28//7 30//7
f 27//1 29//1 31//1
f 27//16 32//18 28//16
f 30//17 33//19 29//17
f 30//7 28//7 32//7
f 31//1 29//1 33//1
f 32//18 27//16 31//18
f 33//19 30//17 34//19
f 30//7 32//7 34//7
f 31//1 33//1 35//1
f 31//18 36//20 32//18
f 34//19 37//21 33//19
f 34//7 32//7 36//7
f 35//1 33//1 37//1
f 36//20 31//18 35//20
f 37//21 34//19 38//21
f 34//7 36//7 38//7
f 35//1 37//1 39//1
f 35//20 40//22 36//20
f 38//21 41//23 37//21
f 38//7 36//7 40//7
f 39//1 37//1 41//1
f 40//22 35//20 39//22
f 41//23 38//21 42//23
f 38//7 40//7 42//7
f 39//1 41//1 43//1
f 39//22 44//24 40//22
f 42//23 45//25 41//23
f 42//7 40//7 44//7
f 43//1 41//1 45//1
f 44//24 39//22 43//24
f 45//25 42//23 46//25
f 42//7 44//7 46//7
f 43//1 45//1 47//1
f 43//24 48//26 44//24
f 49//27 45//25 46//25
f 46//7 44//7 48//7
f 47//1 45//1 50//1
f 48//26 43//24 47//26
f 45//25 49//27 50//27
f 46//7 48//7 49//7
f 47//1 50//1 51//1
f 51//28 48//26 47//26
f 52//29 50//27 49//27
f 49//7 48//7 53//7
f 51//1 50//1 54//1
f 48//26 51//28 53//28
f 50//27 52//29 54//29
f 49//7 53//7 52//7
f 51//1 54//1 55//1
f 55//30 53//28 51//28
f 56//31 54//29 52//29
f 52//7 53//7 57//7
f 55//1 54//1 58//1
f 53//28 55//30 57//30
f 54//29 56//31 58//31
f 52//7 57//7 56//7
f 55//1 58//1 59//1
f 59//32 57//30 55//30
f 60//33 58//31 56//31
f 56//7 57//7 61//7
f 59//1 58//1 62//1
f 57//30 59//32 61//32
f 58//31 60//33 62//33
f 56//7 61//7 60//7
f 59//1 62//1 63//1
f 63//34 61//32 59//32
f 64//34 62//33 60//33
f 60//7 61//7 64//7
f 62//33 64//34 63//34
f 61//32 63//34 64//34
usemtl material_1_0
f 3//7 2//7 1//7
f 4//7 1//7 2//7
f 3//35 5//35 2//33
f 1//36 6//36 3//35
f 7//7 1//7 4//7
f 2//33 8//33 4//31
f 8//33 2//33 5//35
f 5//35 3//35 6//36
f 6//36 1//36 9//37
f 7//37 9//37 1//36
f 10//7 7//7 4//7
f 11//31 4//31 8//33
f 8//1 5//1 11//1
f 6//1 11//1 5//1
f 9//1 11//1 6//1
f 9//37 7//37 12//38
f 13//7 7//7 10//7
f 4//31 11//31 10//39
f 14//1 11//1 9//1
f 13//38 12//38 7//37
f 12//1 14//1 9//1
f 15//7 13//7 10//7
f 14//39 10//39 11//31
f 12//38 13//38 16//40
f 17//1 14//1 12//1
f 18//7 13//7 15//7
f 10//39 14//39 15//41
f 18//40 16//40 13//38
f 16//1 17//1 12//1
f 17//41 15//41 14//39
f 19//7 18//7 15//7
f 18//40 20//42 16//40
f 21//1 17//1 16//1
f 15//41 17//41 19//43
f 20//7 18//7 19//7
f 22//42 16//40 20//42
f 21//43 19//43 17//41
f 22//1 21//1 16//1
f 23//7 20//7 19//7
f 20//42 24//44 22//42
f 21//43 25//45 19//43
f 25//1 21//1 22//1
f 24//7 20//7 23//7
f 23//45 19//43 25//45
f 26//44 22//42 24//44
f 26//1 25//1 22//1
f 27//7 24//7 23//7
f 25//45 28//46 23//45
f 24//44 29//47 26//44
f 28//1 25//1 26//1
f 29//7 24//7 27//7
f 27//46 23//45 28//46
f 30//47 26//44 29//47
f 30//1 28//1 26//1
f 31//7 29//7 27//7
f 28//46 32//48 27//46
f 29//47 33//49 30//47
f 32//1 28//1 30//1
f 33//7 29//7 31//7
f 31//48 27//46 32//48
f 34//49 30//47 33//49
f 34//1 32//1 30//1
f 35//7 33//7 31//7
f 32//48 36//50 31//48
f 33//49 37//51 34//49
f 36//1 32//1 34//1
f 37//7 33//7 35//7
f 35//50 31//48 36//50
f 38//51 34//49 37//51
f 38//1 36//1 34//1
f 39//7 37//7 35//7
f 36//50 40//52 35//50
f 37//51 41//53 38//51
f 40//1 36//1 38//1
f 41//7 37//7 39//7
f 39//52 35//50 40//52
f 42//53 38//51 41//53
f 42//1 40//1 38//1
f 43//7 41//7 39//7
f 40//52 44//54 39//52
f 41//53 45//55 42//53
f 44//1 40//1 42//1
f 45//7 41//7 43//7
f 43//54 39//52 44//54
f 46//55 42//53 45//55
f 46//1 44//1 42//1
f 47//7 45//7 43//7
f 44//54 48//56 43//54
f 46//55 45//55 49//57
f 48//1 44//1 46//1
f 50//7 45//7 47//7
f 47//56 43//54 48//56
f 50//57 49//57 45//55
f 49//1 48//1 46//1
f 51//7 50//7 47//7
f 47//56 48//56 51//58
f 49//57 50//57 52//59
f 53//1 48//1 49//1
f 54//7 50//7 51//7
f 53//58 51//58 48//56
f 54//59 52//59 50//57
f 52//1 53//1 49//1
f 55//7 54//7 51//7
f 51//58 53//58 55//60
f 52//59 54//59 56//5
f 57//1 53//1 52//1
f 58//7 54//7 55//7
f 57//60 55//60 53//58
f 58//5 56//5 54//59
f 56//1 57//1 52//1
f 59//7 58//7 55//7
f 55//60 57//60 59//61
f 56//5 58//5 60//2
f 61//1 57//1 56//1
f 62//7 58//7 59//7
f 61//61 59//61 57//60
f 62//2 60//2 58//5
f 60//1 61//1 56//1
f 63//7 62//7 59//7
f 59//61 61//61 63//62
f 60//2 62//2 64//62
f 64//1 61//1 60//1
f 63//62 64//62 62//2
f 64//62 63//62 61//61
