# SSTK version 0.8.0
# 11
mtllib original-11.mtl
o Obj_000011_1/Obj_000011/mesh11/mesh11-geometry#mesh11-geometry
v 0.525725 -0.679852 0.041189
v 0.525725 -0.679852 -0.053861
v 0.527865 -0.679852 -0.006336
v 0.522973 -0.679852 0.065435
v 0.522973 -0.679852 -0.078107
v 0.519035 -0.679852 0.089906
v 0.519035 -0.679852 -0.102579
v 0.513871 -0.679852 0.114523
v 0.516167 -0.679852 -0.006336
v 0.514074 -0.679852 0.040138
v 0.513871 -0.679852 -0.127195
v 0.511383 -0.679852 0.063847
v 0.514074 -0.679852 -0.052810
v 0.507448 -0.679852 0.139198
v 0.511383 -0.679852 -0.076520
v 0.507532 -0.679852 0.087778
v 0.507448 -0.679852 -0.151871
v 0.502482 -0.679852 0.111850
v 0.507532 -0.679852 -0.100450
v 0.499740 -0.679852 0.163841
v 0.502482 -0.679852 -0.124522
v 0.496202 -0.679852 0.135980
v 0.499740 -0.679852 -0.176513
v 0.490729 -0.679852 0.188354
v 0.496202 -0.679852 -0.148652
v 0.488664 -0.679852 0.160077
v 0.490729 -0.679852 -0.201026
v 0.480407 -0.679852 0.212638
v 0.488664 -0.679852 -0.172749
v 0.479852 -0.679852 0.184048
v 0.480407 -0.679852 -0.225310
v 0.468777 -0.679852 0.236590
v 0.479852 -0.679852 -0.196720
v 0.469759 -0.679852 0.207794
v 0.468777 -0.679852 -0.249263
v 0.458385 -0.679852 0.231218
v 0.469759 -0.679852 -0.220467
v 0.455850 -0.679852 0.260109
v 0.458385 -0.679852 -0.243890
v 0.445744 -0.679852 0.254216
v 0.455850 -0.679852 -0.272781
v 0.441650 -0.679852 0.283090
v 0.445744 -0.679852 -0.266888
v 0.431858 -0.679852 0.276689
v 0.441650 -0.679852 -0.295762
v 0.426210 -0.679852 0.305432
v 0.431858 -0.679852 -0.289361
v 0.416760 -0.679852 0.298536
v 0.426210 -0.679852 -0.318104
v 0.409575 -0.679852 0.327036
v 0.416760 -0.679852 -0.311209
v 0.400493 -0.679852 0.319663
v 0.409575 -0.679852 -0.339709
v 0.391800 -0.679852 0.347809
v 0.400493 -0.679852 -0.332335
v 0.383112 -0.679852 0.339976
v 0.391800 -0.679852 -0.360481
v 0.372950 -0.679852 0.367661
v 0.383112 -0.679852 -0.352649
v 0.364678 -0.679852 0.359390
v 0.372950 -0.679852 -0.380334
v 0.353097 -0.679852 0.386512
v 0.364678 -0.679852 -0.372062
v 0.345265 -0.679852 0.377823
v 0.353097 -0.679852 -0.399184
v 0.332325 -0.679852 0.404287
v 0.345265 -0.679852 -0.390495
v 0.324951 -0.679852 0.395205
v 0.332325 -0.679852 -0.416959
v 0.310720 -0.679852 0.420921
v 0.324951 -0.679852 -0.407877
v 0.303825 -0.679852 0.411472
v 0.310720 -0.679852 -0.433594
v 0.288378 -0.679852 0.436361
v 0.303825 -0.679852 -0.424144
v 0.281977 -0.679852 0.426570
v 0.288378 -0.679852 -0.449034
v 0.265397 -0.679852 0.450561
v 0.281977 -0.679852 -0.439242
v 0.259504 -0.679852 0.440456
v 0.265397 -0.679852 -0.463234
v 0.241879 -0.679852 0.463488
v 0.259504 -0.679852 -0.453128
v 0.236506 -0.679852 0.453097
v 0.241879 -0.679852 -0.476161
v 0.217926 -0.679852 0.475119
v 0.236506 -0.679852 -0.465769
v 0.213083 -0.679852 0.464470
v 0.217926 -0.679852 -0.487791
v 0.193642 -0.679852 0.485440
v 0.213083 -0.679852 -0.477143
v 0.189336 -0.679852 0.474564
v 0.193642 -0.679852 -0.498113
v 0.169129 -0.679852 0.494451
v 0.189336 -0.679852 -0.487236
v 0.165365 -0.679852 0.483375
v 0.169129 -0.679852 -0.507124
v 0.144487 -0.679852 0.502160
v 0.165365 -0.679852 -0.496048
v 0.141268 -0.679852 0.490913
v 0.144487 -0.679852 -0.514832
v 0.119811 -0.679852 0.508583
v 0.141268 -0.679852 -0.503586
v 0.117138 -0.679852 0.497194
v 0.119811 -0.679852 -0.521255
v 0.095195 -0.679852 0.513746
v 0.117138 -0.679852 -0.509866
v 0.093066 -0.679852 0.502243
v 0.095195 -0.679852 -0.526419
v 0.070723 -0.679852 0.517684
v 0.093066 -0.679852 -0.514916
v 0.069136 -0.679852 0.506094
v 0.070723 -0.679852 -0.530356
v 0.046477 -0.679852 0.520437
v 0.069136 -0.679852 -0.518767
v 0.045426 -0.679852 0.508786
v 0.046477 -0.679852 -0.533109
v -0.001048 -0.679852 0.522576
v 0.045426 -0.679852 -0.521458
v -0.001048 -0.679852 0.510878
v -0.001048 -0.679852 -0.535249
v -0.048573 -0.679852 0.520437
v -0.001048 -0.679852 -0.523551
v -0.047522 -0.679852 0.508786
v -0.047522 -0.679852 -0.521458
v -0.071231 -0.679852 0.506094
v -0.048573 -0.679852 -0.533109
v -0.072819 -0.679852 0.517684
v -0.071231 -0.679852 -0.518767
v -0.095162 -0.679852 0.502243
v -0.072819 -0.679852 -0.530356
v -0.097290 -0.679852 0.513746
v -0.095162 -0.679852 -0.514916
v -0.119234 -0.679852 0.497194
v -0.097290 -0.679852 -0.526419
v -0.121907 -0.679852 0.508583
v -0.119234 -0.679852 -0.509866
v -0.143364 -0.679852 0.490913
v -0.121907 -0.679852 -0.521255
v -0.146582 -0.679852 0.502160
v -0.143364 -0.679852 -0.503586
v -0.167461 -0.679852 0.483375
v -0.146582 -0.679852 -0.514832
v -0.171225 -0.679852 0.494451
v -0.167461 -0.679852 -0.496048
v -0.191432 -0.679852 0.474564
v -0.171225 -0.679852 -0.507124
v -0.195738 -0.679852 0.485440
v -0.191432 -0.679852 -0.487236
v -0.215178 -0.679852 0.464470
v -0.195738 -0.679852 -0.498113
v -0.220022 -0.679852 0.475119
v -0.215178 -0.679852 -0.477143
v -0.238601 -0.679852 0.453097
v -0.220022 -0.679852 -0.487791
v -0.243974 -0.679852 0.463488
v -0.238601 -0.679852 -0.465769
v -0.261600 -0.679852 0.440456
v -0.243974 -0.679852 -0.476161
v -0.267493 -0.679852 0.450561
v -0.261600 -0.679852 -0.453128
v -0.284072 -0.679852 0.426570
v -0.267493 -0.679852 -0.463234
v -0.290474 -0.679852 0.436361
v -0.284072 -0.679852 -0.439242
v -0.305920 -0.679852 0.411472
v -0.290474 -0.679852 -0.449034
v -0.312816 -0.679852 0.420921
v -0.305920 -0.679852 -0.424144
v -0.327047 -0.679852 0.395205
v -0.312816 -0.679852 -0.433594
v -0.334420 -0.679852 0.404287
v -0.327047 -0.679852 -0.407877
v -0.347360 -0.679852 0.377823
v -0.334420 -0.679852 -0.416959
v -0.355193 -0.679852 0.386512
v -0.347360 -0.679852 -0.390495
v -0.366773 -0.679852 0.359390
v -0.355193 -0.679852 -0.399184
v -0.375045 -0.679852 0.367661
v -0.366773 -0.679852 -0.372062
v -0.385207 -0.679852 0.339976
v -0.375045 -0.679852 -0.380334
v -0.393896 -0.679852 0.347809
v -0.385207 -0.679852 -0.352649
v -0.402589 -0.679852 0.319663
v -0.393896 -0.679852 -0.360481
v -0.411671 -0.679852 0.327036
v -0.402589 -0.679852 -0.332335
v -0.418856 -0.679852 0.298536
v -0.411671 -0.679852 -0.339709
v -0.428305 -0.679852 0.305432
v -0.418856 -0.679852 -0.311209
v -0.433954 -0.679852 0.276689
v -0.428305 -0.679852 -0.318104
v -0.443745 -0.679852 0.283090
v -0.433954 -0.679852 -0.289361
v -0.447840 -0.679852 0.254216
v -0.443745 -0.679852 -0.295762
v -0.457945 -0.679852 0.260109
v -0.447840 -0.679852 -0.266888
v -0.460481 -0.679852 0.231218
v -0.457945 -0.679852 -0.272781
v -0.470872 -0.679852 0.236590
v -0.460481 -0.679852 -0.243890
v -0.471854 -0.679852 0.207794
v -0.470872 -0.679852 -0.249263
v -0.482503 -0.679852 0.212638
v -0.471854 -0.679852 -0.220467
v -0.481948 -0.679852 0.184048
v -0.482503 -0.679852 -0.225310
v -0.490759 -0.679852 0.160077
v -0.481948 -0.679852 -0.196720
v -0.492824 -0.679852 0.188354
v -0.490759 -0.679852 -0.172749
v -0.498297 -0.679852 0.135980
v -0.492824 -0.679852 -0.201026
v -0.501835 -0.679852 0.163841
v -0.498297 -0.679852 -0.148652
v -0.504578 -0.679852 0.111850
v -0.501835 -0.679852 -0.176513
v -0.509544 -0.679852 0.139198
v -0.504578 -0.679852 -0.124522
v -0.509627 -0.679852 0.087778
v -0.509544 -0.679852 -0.151871
v -0.515967 -0.679852 0.114523
v -0.509627 -0.679852 -0.100450
v -0.513478 -0.679852 0.063847
v -0.515967 -0.679852 -0.127195
v -0.516170 -0.679852 0.040138
v -0.513478 -0.679852 -0.076520
v -0.521130 -0.679852 0.089906
v -0.516170 -0.679852 -0.052810
v -0.518262 -0.679852 -0.006336
v -0.521130 -0.679852 -0.102579
v -0.525068 -0.679852 0.065435
v -0.525068 -0.679852 -0.078107
v -0.527821 -0.679852 0.041189
v -0.527821 -0.679852 -0.053861
v -0.529960 -0.679852 -0.006336
vn 0 -1 0
vn 0 1 0
usemtl material_0_0
f 1//1 2//1 3//1
f 2//1 1//1 4//1
f 2//1 4//1 5//1
f 5//1 4//1 6//1
f 5//1 6//1 7//1
f 7//1 6//1 8//1
f 7//1 8//1 9//1
f 9//1 8//1 10//1
f 9//1 11//1 7//1
f 10//1 8//1 12//1
f 11//1 9//1 13//1
f 12//1 8//1 14//1
f 11//1 13//1 15//1
f 12//1 14//1 16//1
f 11//1 15//1 17//1
f 16//1 14//1 18//1
f 17//1 15//1 19//1
f 18//1 14//1 20//1
f 17//1 19//1 21//1
f 18//1 20//1 22//1
f 17//1 21//1 23//1
f 22//1 20//1 24//1
f 23//1 21//1 25//1
f 22//1 24//1 26//1
f 23//1 25//1 27//1
f 26//1 24//1 28//1
f 27//1 25//1 29//1
f 26//1 28//1 30//1
f 27//1 29//1 31//1
f 30//1 28//1 32//1
f 31//1 29//1 33//1
f 30//1 32//1 34//1
f 31//1 33//1 35//1
f 34//1 32//1 36//1
f 35//1 33//1 37//1
f 36//1 32//1 38//1
f 35//1 37//1 39//1
f 36//1 38//1 40//1
f 35//1 39//1 41//1
f 40//1 38//1 42//1
f 41//1 39//1 43//1
f 40//1 42//1 44//1
f 41//1 43//1 45//1
f 44//1 42//1 46//1
f 45//1 43//1 47//1
f 44//1 46//1 48//1
f 45//1 47//1 49//1
f 48//1 46//1 50//1
f 49//1 47//1 51//1
f 48//1 50//1 52//1
f 49//1 51//1 53//1
f 52//1 50//1 54//1
f 53//1 51//1 55//1
f 52//1 54//1 56//1
f 53//1 55//1 57//1
f 56//1 54//1 58//1
f 57//1 55//1 59//1
f 56//1 58//1 60//1
f 57//1 59//1 61//1
f 60//1 58//1 62//1
f 61//1 59//1 63//1
f 60//1 62//1 64//1
f 61//1 63//1 65//1
f 64//1 62//1 66//1
f 65//1 63//1 67//1
f 64//1 66//1 68//1
f 65//1 67//1 69//1
f 68//1 66//1 70//1
f 69//1 67//1 71//1
f 68//1 70//1 72//1
f 69//1 71//1 73//1
f 72//1 70//1 74//1
f 73//1 71//1 75//1
f 72//1 74//1 76//1
f 73//1 75//1 77//1
f 76//1 74//1 78//1
f 77//1 75//1 79//1
f 76//1 78//1 80//1
f 77//1 79//1 81//1
f 80//1 78//1 82//1
f 81//1 79//1 83//1
f 80//1 82//1 84//1
f 81//1 83//1 85//1
f 84//1 82//1 86//1
f 85//1 83//1 87//1
f 84//1 86//1 88//1
f 85//1 87//1 89//1
f 88//1 86//1 90//1
f 89//1 87//1 91//1
f 88//1 90//1 92//1
f 89//1 91//1 93//1
f 92//1 90//1 94//1
f 93//1 91//1 95//1
f 92//1 94//1 96//1
f 93//1 95//1 97//1
f 96//1 94//1 98//1
f 97//1 95//1 99//1
f 96//1 98//1 100//1
f 97//1 99//1 101//1
f 100//1 98//1 102//1
f 101//1 99//1 103//1
f 100//1 102//1 104//1
f 101//1 103//1 105//1
f 104//1 102//1 106//1
f 105//1 103//1 107//1
f 104//1 106//1 108//1
f 105//1 107//1 109//1
f 108//1 106//1 110//1
f 109//1 107//1 111//1
f 108//1 110//1 112//1
f 109//1 111//1 113//1
f 112//1 110//1 114//1
f 113//1 111//1 115//1
f 112//1 114//1 116//1
f 113//1 115//1 117//1
f 116//1 114//1 118//1
f 117//1 115//1 119//1
f 116//1 118//1 120//1
f 117//1 119//1 121//1
f 120//1 118//1 122//1
f 121//1 119//1 123//1
f 120//1 122//1 124//1
f 121//1 123//1 125//1
f 124//1 122//1 126//1
f 121//1 125//1 127//1
f 126//1 122//1 128//1
f 127//1 125//1 129//1
f 126//1 128//1 130//1
f 127//1 129//1 131//1
f 130//1 128//1 132//1
f 131//1 129//1 133//1
f 130//1 132//1 134//1
f 131//1 133//1 135//1
f 134//1 132//1 136//1
f 135//1 133//1 137//1
f 134//1 136//1 138//1
f 135//1 137//1 139//1
f 138//1 136//1 140//1
f 139//1 137//1 141//1
f 138//1 140//1 142//1
f 139//1 141//1 143//1
f 142//1 140//1 144//1
f 143//1 141//1 145//1
f 142//1 144//1 146//1
f 143//1 145//1 147//1
f 146//1 144//1 148//1
f 147//1 145//1 149//1
f 146//1 148//1 150//1
f 147//1 149//1 151//1
f 150//1 148//1 152//1
f 151//1 149//1 153//1
f 150//1 152//1 154//1
f 151//1 153//1 155//1
f 154//1 152//1 156//1
f 155//1 153//1 157//1
f 154//1 156//1 158//1
f 155//1 157//1 159//1
f 158//1 156//1 160//1
f 159//1 157//1 161//1
f 158//1 160//1 162//1
f 159//1 161//1 163//1
f 162//1 160//1 164//1
f 163//1 161//1 165//1
f 162//1 164//1 166//1
f 163//1 165//1 167//1
f 166//1 164//1 168//1
f 167//1 165//1 169//1
f 166//1 168//1 170//1
f 167//1 169//1 171//1
f 170//1 168//1 172//1
f 171//1 169//1 173//1
f 170//1 172//1 174//1
f 171//1 173//1 175//1
f 174//1 172//1 176//1
f 175//1 173//1 177//1
f 174//1 176//1 178//1
f 175//1 177//1 179//1
f 178//1 176//1 180//1
f 179//1 177//1 181//1
f 178//1 180//1 182//1
f 179//1 181//1 183//1
f 182//1 180//1 184//1
f 183//1 181//1 185//1
f 182//1 184//1 186//1
f 183//1 185//1 187//1
f 186//1 184//1 188//1
f 187//1 185//1 189//1
f 186//1 188//1 190//1
f 187//1 189//1 191//1
f 190//1 188//1 192//1
f 191//1 189//1 193//1
f 190//1 192//1 194//1
f 191//1 193//1 195//1
f 194//1 192//1 196//1
f 195//1 193//1 197//1
f 194//1 196//1 198//1
f 195//1 197//1 199//1
f 198//1 196//1 200//1
f 199//1 197//1 201//1
f 198//1 200//1 202//1
f 199//1 201//1 203//1
f 202//1 200//1 204//1
f 203//1 201//1 205//1
f 202//1 204//1 206//1
f 203//1 205//1 207//1
f 206//1 204//1 208//1
f 207//1 205//1 209//1
f 206//1 208//1 210//1
f 207//1 209//1 211//1
f 210//1 208//1 212//1
f 211//1 209//1 213//1
f 212//1 208//1 214//1
f 211//1 213//1 215//1
f 212//1 214//1 216//1
f 211//1 215//1 217//1
f 216//1 214//1 218//1
f 217//1 215//1 219//1
f 216//1 218//1 220//1
f 217//1 219//1 221//1
f 220//1 218//1 222//1
f 221//1 219//1 223//1
f 220//1 222//1 224//1
f 221//1 223//1 225//1
f 224//1 222//1 226//1
f 225//1 223//1 227//1
f 224//1 226//1 228//1
f 225//1 227//1 229//1
f 228//1 226//1 230//1
f 229//1 227//1 231//1
f 230//1 226//1 232//1
f 229//1 231//1 233//1
f 230//1 232//1 234//1
f 229//1 233//1 235//1
f 235//1 234//1 232//1
f 235//1 233//1 234//1
f 235//1 232//1 236//1
f 235//1 236//1 237//1
f 237//1 236//1 238//1
f 237//1 238//1 239//1
f 239//1 238//1 240//1
usemtl material_1_0
f 3//2 2//2 1//2
f 4//2 1//2 2//2
f 5//2 4//2 2//2
f 6//2 4//2 5//2
f 7//2 6//2 5//2
f 8//2 6//2 7//2
f 9//2 8//2 7//2
f 10//2 8//2 9//2
f 7//2 11//2 9//2
f 12//2 8//2 10//2
f 13//2 9//2 11//2
f 14//2 8//2 12//2
f 15//2 13//2 11//2
f 16//2 14//2 12//2
f 17//2 15//2 11//2
f 18//2 14//2 16//2
f 19//2 15//2 17//2
f 20//2 14//2 18//2
f 21//2 19//2 17//2
f 22//2 20//2 18//2
f 23//2 21//2 17//2
f 24//2 20//2 22//2
f 25//2 21//2 23//2
f 26//2 24//2 22//2
f 27//2 25//2 23//2
f 28//2 24//2 26//2
f 29//2 25//2 27//2
f 30//2 28//2 26//2
f 31//2 29//2 27//2
f 32//2 28//2 30//2
f 33//2 29//2 31//2
f 34//2 32//2 30//2
f 35//2 33//2 31//2
f 36//2 32//2 34//2
f 37//2 33//2 35//2
f 38//2 32//2 36//2
f 39//2 37//2 35//2
f 40//2 38//2 36//2
f 41//2 39//2 35//2
f 42//2 38//2 40//2
f 43//2 39//2 41//2
f 44//2 42//2 40//2
f 45//2 43//2 41//2
f 46//2 42//2 44//2
f 47//2 43//2 45//2
f 48//2 46//2 44//2
f 49//2 47//2 45//2
f 50//2 46//2 48//2
f 51//2 47//2 49//2
f 52//2 50//2 48//2
f 53//2 51//2 49//2
f 54//2 50//2 52//2
f 55//2 51//2 53//2
f 56//2 54//2 52//2
f 57//2 55//2 53//2
f 58//2 54//2 56//2
f 59//2 55//2 57//2
f 60//2 58//2 56//2
f 61//2 59//2 57//2
f 62//2 58//2 60//2
f 63//2 59//2 61//2
f 64//2 62//2 60//2
f 65//2 63//2 61//2
f 66//2 62//2 64//2
f 67//2 63//2 65//2
f 68//2 66//2 64//2
f 69//2 67//2 65//2
f 70//2 66//2 68//2
f 71//2 67//2 69//2
f 72//2 70//2 68//2
f 73//2 71//2 69//2
f 74//2 70//2 72//2
f 75//2 71//2 73//2
f 76//2 74//2 72//2
f 77//2 75//2 73//2
f 78//2 74//2 76//2
f 79//2 75//2 77//2
f 80//2 78//2 76//2
f 81//2 79//2 77//2
f 82//2 78//2 80//2
f 83//2 79//2 81//2
f 84//2 82//2 80//2
f 85//2 83//2 81//2
f 86//2 82//2 84//2
f 87//2 83//2 85//2
f 88//2 86//2 84//2
f 89//2 87//2 85//2
f 90//2 86//2 88//2
f 91//2 87//2 89//2
f 92//2 90//2 88//2
f 93//2 91//2 89//2
f 94//2 90//2 92//2
f 95//2 91//2 93//2
f 96//2 94//2 92//2
f 97//2 95//2 93//2
f 98//2 94//2 96//2
f 99//2 95//2 97//2
f 100//2 98//2 96//2
f 101//2 99//2 97//2
f 102//2 98//2 100//2
f 103//2 99//2 101//2
f 104//2 102//2 100//2
f 105//2 103//2 101//2
f 106//2 102//2 104//2
f 107//2 103//2 105//2
f 108//2 106//2 104//2
f 109//2 107//2 105//2
f 110//2 106//2 108//2
f 111//2 107//2 109//2
f 112//2 110//2 108//2
f 113//2 111//2 109//2
f 114//2 110//2 112//2
f 115//2 111//2 113//2
f 116//2 114//2 112//2
f 117//2 115//2 113//2
f 118//2 114//2 116//2
f 119//2 115//2 117//2
f 120//2 118//2 116//2
f 121//2 119//2 117//2
f 122//2 118//2 120//2
f 123//2 119//2 121//2
f 124//2 122//2 120//2
f 125//2 123//2 121//2
f 126//2 122//2 124//2
f 127//2 125//2 121//2
f 128//2 122//2 126//2
f 129//2 125//2 127//2
f 130//2 128//2 126//2
f 131//2 129//2 127//2
f 132//2 128//2 130//2
f 133//2 129//2 131//2
f 134//2 132//2 130//2
f 135//2 133//2 131//2
f 136//2 132//2 134//2
f 137//2 133//2 135//2
f 138//2 136//2 134//2
f 139//2 137//2 135//2
f 140//2 136//2 138//2
f 141//2 137//2 139//2
f 142//2 140//2 138//2
f 143//2 141//2 139//2
f 144//2 140//2 142//2
f 145//2 141//2 143//2
f 146//2 144//2 142//2
f 147//2 145//2 143//2
f 148//2 144//2 146//2
f 149//2 145//2 147//2
f 150//2 148//2 146//2
f 151//2 149//2 147//2
f 152//2 148//2 150//2
f 153//2 149//2 151//2
f 154//2 152//2 150//2
f 155//2 153//2 151//2
f 156//2 152//2 154//2
f 157//2 153//2 155//2
f 158//2 156//2 154//2
f 159//2 157//2 155//2
f 160//2 156//2 158//2
f 161//2 157//2 159//2
f 162//2 160//2 158//2
f 163//2 161//2 159//2
f 164//2 160//2 162//2
f 165//2 161//2 163//2
f 166//2 164//2 162//2
f 167//2 165//2 163//2
f 168//2 164//2 166//2
f 169//2 165//2 167//2
f 170//2 168//2 166//2
f 171//2 169//2 167//2
f 172//2 168//2 170//2
f 173//2 169//2 171//2
f 174//2 172//2 170//2
f 175//2 173//2 171//2
f 176//2 172//2 174//2
f 177//2 173//2 175//2
f 178//2 176//2 174//2
f 179//2 177//2 175//2
f 180//2 176//2 178//2
f 181//2 177//2 179//2
f 182//2 180//2 178//2
f 183//2 181//2 179//2
f 184//2 180//2 182//2
f 185//2 181//2 183//2
f 186//2 184//2 182//2
f 187//2 185//2 183//2
f 188//2 184//2 186//2
f 189//2 185//2 187//2
f 190//2 188//2 186//2
f 191//2 189//2 187//2
f 192//2 188//2 190//2
f 193//2 189//2 191//2
f 194//2 192//2 190//2
f 195//2 193//2 191//2
f 196//2 192//2 194//2
f 197//2 193//2 195//2
f 198//2 196//2 194//2
f 199//2 197//2 195//2
f 200//2 196//2 198//2
f 201//2 197//2 199//2
f 202//2 200//2 198//2
f 203//2 201//2 199//2
f 204//2 200//2 202//2
f 205//2 201//2 203//2
f 206//2 204//2 202//2
f 207//2 205//2 203//2
f 208//2 204//2 206//2
f 209//2 205//2 207//2
f 210//2 208//2 206//2
f 211//2 209//2 207//2
f 212//2 208//2 210//2
f 213//2 209//2 211//2
f 214//2 208//2 212//2
f 215//2 213//2 211//2
f 216//2 214//2 212//2
f 217//2 215//2 211//2
f 218//2 214//2 216//2
f 219//2 215//2 217//2
f 220//2 218//2 216//2
f 221//2 219//2 217//2
f 222//2 218//2 220//2
f 223//2 219//2 221//2
f 224//2 222//2 220//2
f 225//2 223//2 221//2
f 226//2 222//2 224//2
f 227//2 223//2 225//2
f 228//2 226//2 224//2
f 229//2 227//2 225//2
f 230//2 226//2 228//2
f 231//2 227//2 229//2
f 232//2 226//2 230//2
f 233//2 231//2 229//2
f 234//2 232//2 230//2
f 235//2 233//2 229//2
f 232//2 234//2 235//2
f 234//2 233//2 235//2
f 236//2 232//2 235//2
f 237//2 236//2 235//2
f 238//2 236//2 237//2
f 239//2 238//2 237//2
f 240//2 238//2 239//2
