# SSTK version 0.8.0
# 1
mtllib original-1.mtl
o Obj_000001_1/Obj_000001/mesh1/mesh1-geometry#mesh1-geometry
v 0.526688 0.785481 -0.033200
v 0.538967 0.603760 -0.033200
v 0.526688 0.603760 -0.033200
v 0.560123 0.624917 -0.033200
v 0.526688 0.603760 0.021128
v 0.526688 0.756184 -0.026409
v 0.560123 0.785481 -0.033200
v 0.560123 0.624917 0.021128
v 0.538967 0.603760 0.021128
v 0.548981 0.801242 -0.033200
v 0.560123 0.785481 -0.026195
v 0.560123 0.773244 -0.026195
v 0.526688 0.773244 -0.026195
v 0.557398 0.794629 -0.026195
v 0.559844 0.788523 -0.026195
v 0.560123 0.773244 0.013084
v 0.526688 0.785481 0.021128
v 0.526688 0.773244 0.013084
v 0.526688 0.785481 -0.026195
v 0.558256 0.793160 -0.026195
v 0.556384 0.796018 -0.026195
v 0.559478 0.790081 -0.026195
v 0.560123 0.785481 0.021128
v 0.526688 0.756184 0.014337
v 0.526967 0.788523 -0.026195
v 0.558950 0.791635 -0.026195
v 0.528556 0.793160 -0.026195
v 0.555227 0.797302 -0.026195
v 0.529413 0.794629 -0.026195
v 0.560123 0.785481 0.013084
v 0.548981 0.801242 0.021128
v 0.526688 0.785481 0.013084
v 0.527333 0.790081 -0.026195
v 0.527862 0.791635 -0.026195
v 0.553943 0.798460 -0.026195
v 0.530427 0.796018 -0.026195
v 0.559844 0.788523 0.013084
v 0.557398 0.794629 0.013084
v 0.552554 0.799474 -0.026195
v 0.531584 0.797302 -0.026195
v 0.526967 0.788523 0.013084
v 0.559478 0.790081 0.013084
v 0.558256 0.793160 0.013084
v 0.556384 0.796018 0.013084
v 0.551084 0.800331 -0.026195
v 0.532868 0.798460 -0.026195
v 0.527333 0.790081 0.013084
v 0.558950 0.791635 0.013084
v 0.529413 0.794629 0.013084
v 0.530427 0.796018 0.013084
v 0.555227 0.797302 0.013084
v 0.549559 0.801025 -0.026195
v 0.534258 0.799474 -0.026195
v 0.527862 0.791635 0.013084
v 0.528556 0.793160 0.013084
v 0.531584 0.797302 0.013084
v 0.553943 0.798460 0.013084
v 0.548006 0.801553 -0.026195
v 0.535727 0.800331 -0.026195
v 0.532868 0.798460 0.013084
v 0.552554 0.799474 0.013084
v 0.537252 0.801025 -0.026195
v 0.546448 0.801920 -0.026195
v 0.534258 0.799474 0.013084
v 0.551084 0.800331 0.013084
v 0.538806 0.801553 -0.026195
v 0.543406 0.802199 -0.026195
v 0.535727 0.800331 0.013084
v 0.549559 0.801025 0.013084
v 0.540364 0.801920 -0.026195
v 0.537252 0.801025 0.013084
v 0.548006 0.801553 0.013084
v 0.538806 0.801553 0.013084
v 0.546448 0.801920 0.013084
v 0.543406 0.802199 0.013084
v 0.540364 0.801920 0.013084
vn 0 0 -1
vn 0.38268289803626016 -0.9238797538373538 0
vn 0 -1 0
vn -1 0 0
vn 0.9238797538373538 -0.38268289803626016 0
vn -0.1576429866263578 0.22298898108273038 0.9619899183895888
vn 0.9989539280253722 0.04572799670529796 0
vn 0.9392085258397561 0.30283884711154385 -0.1617899183202185
vn 1 0 0
vn 0 0 1
vn -0.01919200327307169 0.7341351252019844 -0.6787321157533602
vn -0.3133119024157334 0.011900996293310534 -0.9495757042447225
vn -0.30654908051543317 0.005951001563036929 -0.9518362500007758
vn 0.7737102242347953 0.5187721503492695 -0.3636591053947879
vn 0.9865949013321289 0.16034598396403948 -0.03032599696714265
vn -0.3091139348625912 0.01460899692154888 -0.9509127996208233
vn 0.8584952157441673 0.44357811147341136 -0.25734106467110424
vn 0.7322942000712241 0.5959461628193674 -0.32953509003278847
vn 0.957192750505349 0.2744299284691624 -0.09203397601111714
vn 0 1 0
vn 0.9416951072906256 0.3049380347426595 0.142208016202258
vn -0.3315208156933744 0.055100969367010505 -0.9418374763921933
vn 0.9169330555941113 0.36315502201827127 -0.16538501002737607
vn 0.688370108309194 0.6892041084404168 -0.22615103558294578
vn -0.15764298662635778 0.22298898108273077 -0.9619899183895886
vn -0.04541497898043118 0.7609486478075553 0.6472207004446474
vn -0.37612105188853556 0.03343400461245509 0.925967127743656
vn -0.41180988267867563 0.06677798097548995 0.9088197410845632
vn -0.35353097404888306 0.10214699250184944 -0.929828931745445
vn 0.6242568207106577 0.7691657790921588 -0.1367019607385872
vn 0.986701993749243 0.16037899898399904 0.026414999832661015
vn 0.7862679345805449 0.5273659561218358 0.32197497321087853
vn -0.3496861439691371 0.016512006798151253 0.9367213856571728
vn -0.3714039358774874 0.14817897441705064 -0.9165708417549744
vn -0.3883150024725958 0.20214600128716487 -0.8990820057249047
vn -0.4031469571759183 0.26521397182778017 -0.8758619069620118
vn 0.5460911293750109 0.834981197816254 -0.06775601605214725
vn -0.4142269781665108 0.3382599821706552 -0.8449829554617944
vn 0.9581635333591423 0.27474386619537383 0.08023996092186476
vn 0.8653515790221356 0.4472957823987061 0.22603789003666203
vn 0.7421880039180105 0.6037170031870219 0.291003001536205
vn -0.374027031957806 0.06211900530760312 0.9253350790629458
vn 0.45954286287863394 0.8878697350716969 -0.022531993276758193
vn -0.41921592696819004 0.42151892656698353 -0.8041018599170249
vn 0.9199414529765231 0.3644351794468331 0.144550071176039
vn 0.6927463144040252 0.6933913146967597 0.19827008998519835
vn -0.3974969657101245 0.11481599009545625 0.9103919214654995
vn 0.3685668895932248 0.929599721531938 -0.0016749994982420441
vn -0.41508399872880525 0.5139379984260651 -0.7507149977009352
vn 0.6257211829030214 0.7708622253288429 0.11935003488691558
vn -0.41603687771325837 0.165935951226038 0.8940797372009462
vn 0.27573399740037985 0.9612239909375803 -0.004381999958686291
vn -0.39839912710946096 0.6123371953665195 -0.6828772178723523
vn -0.4466770568671297 0.29373803739623233 0.8451021075912238
vn -0.43289898009465605 0.22527898964133422 0.8728389598655564
vn -0.4553848941398737 0.3716989135937654 0.8089898119398234
vn -0.45641715203120947 0.45866915278134407 0.7624342539646051
vn 0.5464141614400002 0.8354312468311224 0.05904401744476437
vn 0.16044792798609242 0.9863335573035157 -0.037450983190860036
vn -0.366114036340298 0.711038070577287 -0.6003210595875711
vn -0.446678749700506 0.5526876902976706 0.703572605748276
vn 0.4595750731659661 0.887922141360324 0.019622003123892024
vn 0.0008780000325386819 0.9908860367222374 -0.13470000499198206
vn -0.3166689756527484 0.8026469382880913 -0.5054489611383052
vn -0.42306603793929476 0.6497410582668314 0.631547056635248
vn 0.3685670148803406 0.9296000375312078 0.001458000058864773
vn -0.2511730621429861 0.8795852176190853 -0.404032099961998
vn -0.15261604653286862 0.9479302890254113 -0.27952908522885017
vn -0.38336083995339987 0.7438776894437753 0.547430771457007
vn 0.2757341070278688 0.9612263731058566 0.0038160014812043718
vn -0.3271359764458834 0.8283949403547379 0.45469096726179703
vn 0.16045904899369096 0.9865033012135381 0.0326210099603215
vn -0.25648108882621323 0.8973193107655101 0.3592151244057386
vn 0.0006710000254235205 0.9930500376256736 0.11769100445919478
vn -0.15440299962981882 0.9568749977058922 0.2460689994100498
vn -0.38268289803626016 0.9238797538373538 0
vn -0.9238797538373538 0.38268289803626016 0
vn 0.1576429866263578 -0.22298898108273038 -0.9619899183895888
vn -0.9392085258397561 -0.30283884711154385 0.1617899183202185
vn -0.9989539280253722 -0.04572799670529796 0
vn 0.30654908051543317 -0.005951001563036929 0.9518362500007758
vn 0.3133119024157334 -0.011900996293310534 0.9495757042447225
vn 0.01919200327307169 -0.7341351252019844 0.6787321157533602
vn -0.7737102242347953 -0.5187721503492695 0.3636591053947879
vn -0.9865949013321289 -0.16034598396403948 0.03032599696714265
vn 0.3091139348625912 -0.01460899692154888 0.9509127996208233
vn -0.8584952157441673 -0.44357811147341136 0.25734106467110424
vn -0.7322942000712241 -0.5959461628193674 0.32953509003278847
vn -0.957192750505349 -0.2744299284691624 0.09203397601111714
vn -0.9416951072906256 -0.3049380347426595 -0.142208016202258
vn 0.3315208156933744 -0.055100969367010505 0.9418374763921933
vn -0.9169330555941113 -0.36315502201827127 0.16538501002737607
vn -0.688370108309194 -0.6892041084404168 0.22615103558294578
vn 0.15764298662635778 -0.22298898108273077 0.9619899183895886
vn 0.41180988267867563 -0.06677798097548995 -0.9088197410845632
vn 0.37612105188853556 -0.03343400461245509 -0.925967127743656
vn 0.04541497898043118 -0.7609486478075553 -0.6472207004446474
vn 0.35353097404888306 -0.10214699250184944 0.929828931745445
vn -0.6242568207106577 -0.7691657790921588 0.1367019607385872
vn -0.986701993749243 -0.16037899898399904 -0.026414999832661015
vn -0.7862679345805449 -0.5273659561218358 -0.32197497321087853
vn 0.3496861439691371 -0.016512006798151253 -0.9367213856571728
vn 0.3714039358774874 -0.14817897441705064 0.9165708417549744
vn 0.3883150024725958 -0.20214600128716487 0.8990820057249047
vn 0.4031469571759183 -0.26521397182778017 0.8758619069620118
vn -0.5460911293750109 -0.834981197816254 0.06775601605214725
vn 0.4142269781665108 -0.3382599821706552 0.8449829554617944
vn -0.9581635333591423 -0.27474386619537383 -0.08023996092186476
vn -0.8653515790221356 -0.4472957823987061 -0.22603789003666203
vn -0.7421880039180105 -0.6037170031870219 -0.291003001536205
vn 0.374027031957806 -0.06211900530760312 -0.9253350790629458
vn -0.45954286287863394 -0.8878697350716969 0.022531993276758193
vn 0.41921592696819004 -0.42151892656698353 0.8041018599170249
vn -0.9199414529765231 -0.3644351794468331 -0.144550071176039
vn -0.6927463144040252 -0.6933913146967597 -0.19827008998519835
vn 0.3974969657101245 -0.11481599009545625 -0.9103919214654995
vn -0.3685668895932248 -0.929599721531938 0.0016749994982420441
vn 0.41508399872880525 -0.5139379984260651 0.7507149977009352
vn -0.6257211829030214 -0.7708622253288429 -0.11935003488691558
vn 0.41603687771325837 -0.165935951226038 -0.8940797372009462
vn -0.27573399740037985 -0.9612239909375803 0.004381999958686291
vn 0.39839912710946096 -0.6123371953665195 0.6828772178723523
vn 0.43289898009465605 -0.22527898964133422 -0.8728389598655564
vn 0.4466770568671297 -0.29373803739623233 -0.8451021075912238
vn 0.4553848941398737 -0.3716989135937654 -0.8089898119398234
vn 0.45641715203120947 -0.45866915278134407 -0.7624342539646051
vn -0.5464141614400002 -0.8354312468311224 -0.05904401744476437
vn -0.16044792798609242 -0.9863335573035157 0.037450983190860036
vn 0.366114036340298 -0.711038070577287 0.6003210595875711
vn 0.446678749700506 -0.5526876902976706 -0.703572605748276
vn -0.4595750731659661 -0.887922141360324 -0.019622003123892024
vn -0.0008780000325386819 -0.9908860367222374 0.13470000499198206
vn 0.3166689756527484 -0.8026469382880913 0.5054489611383052
vn 0.42306603793929476 -0.6497410582668314 -0.631547056635248
vn -0.3685670148803406 -0.9296000375312078 -0.001458000058864773
vn 0.2511730621429861 -0.8795852176190853 0.404032099961998
vn 0.15261604653286862 -0.9479302890254113 0.27952908522885017
vn 0.38336083995339987 -0.7438776894437753 -0.547430771457007
vn -0.2757341070278688 -0.9612263731058566 -0.0038160014812043718
vn 0.3271359764458834 -0.8283949403547379 -0.45469096726179703
vn -0.16045904899369096 -0.9865033012135381 -0.0326210099603215
vn 0.25648108882621323 -0.8973193107655101 -0.3592151244057386
vn -0.0006710000254235205 -0.9930500376256736 -0.11769100445919478
vn 0.15440299962981882 -0.9568749977058922 -0.2460689994100498
usemtl material_0_0
f 1//1 2//1 3//1
f 2//1 1//1 4//1
f 2//2 5//3 3//3
f 3//4 6//4 1//4
f 4//1 1//1 7//1
f 8//5 2//2 4//5
f 5//3 2//2 9//2
f 6//4 3//4 5//4
f 10//6 1//6 6//6
f 7//1 1//1 10//1
f 11//7 4//5 7//8
f 2//2 8//5 9//2
f 4//5 12//9 8//5
f 8//10 5//10 9//10
f 6//4 5//4 13//4
f 10//11 6//12 13//13
f 14//14 7//8 10//11
f 4//5 11//7 12//9
f 11//7 7//8 15//15
f 8//5 12//9 16//9
f 5//10 8//10 17//10
f 13//4 5//4 18//4
f 10//11 13//13 19//16
f 20//17 7//8 14//14
f 14//14 10//11 21//18
f 11//10 13//10 12//10
f 15//15 7//8 22//19
f 19//10 11//10 15//10
f 13//20 16//20 12//20
f 8//5 16//9 23//21
f 17//10 8//10 23//10
f 24//4 5//4 17//4
f 18//4 5//4 24//4
f 16//20 13//20 18//20
f 13//10 11//10 19//10
f 10//11 19//16 25//22
f 26//23 7//8 20//17
f 27//10 20//10 14//10
f 21//18 10//11 28//24
f 29//10 14//10 21//10
f 22//19 7//8 26//23
f 25//10 15//10 22//10
f 19//10 15//10 25//10
f 23//21 16//9 30//7
f 17//10 23//10 31//10
f 31//25 24//25 17//25
f 31//26 18//27 24//28
f 32//1 16//1 18//1
f 10//11 25//22 33//29
f 34//10 26//10 20//10
f 34//10 20//10 27//10
f 27//10 14//10 29//10
f 10//11 35//30 28//24
f 36//10 21//10 28//10
f 29//10 21//10 36//10
f 33//10 22//10 26//10
f 25//10 22//10 33//10
f 16//1 32//1 30//1
f 23//21 30//7 37//31
f 23//21 38//32 31//26
f 31//26 32//33 18//27
f 10//11 33//29 34//34
f 33//10 26//10 34//10
f 10//11 34//34 27//35
f 10//11 27//35 29//36
f 10//11 39//37 35//30
f 40//10 28//10 35//10
f 36//10 28//10 40//10
f 10//11 29//36 36//38
f 30//1 32//1 41//1
f 30//1 41//1 37//1
f 23//21 37//31 42//39
f 23//21 43//40 38//32
f 31//26 38//32 44//41
f 31//26 41//42 32//33
f 10//11 45//43 39//37
f 46//10 35//10 39//10
f 40//10 35//10 46//10
f 10//11 36//38 40//44
f 37//1 41//1 47//1
f 37//1 47//1 42//1
f 23//21 42//39 48//45
f 23//21 48//45 43//40
f 43//1 49//1 38//1
f 38//1 50//1 44//1
f 31//26 44//41 51//46
f 31//26 47//47 41//42
f 10//11 52//48 45//43
f 53//10 39//10 45//10
f 46//10 39//10 53//10
f 10//11 40//44 46//49
f 42//1 47//1 54//1
f 42//1 54//1 48//1
f 48//1 55//1 43//1
f 43//1 55//1 49//1
f 38//1 49//1 50//1
f 44//1 50//1 56//1
f 44//1 56//1 51//1
f 31//26 51//46 57//50
f 31//26 54//51 47//47
f 58//52 52//48 10//11
f 59//10 45//10 52//10
f 53//10 45//10 59//10
f 10//11 46//49 53//53
f 48//1 54//1 55//1
f 31//26 49//54 55//55
f 31//26 50//56 49//54
f 31//26 56//57 50//56
f 51//1 56//1 60//1
f 51//1 60//1 57//1
f 31//26 57//50 61//58
f 31//26 55//55 54//51
f 62//10 52//10 58//10
f 63//59 58//52 10//11
f 59//10 52//10 62//10
f 53//53 59//60 10//11
f 31//26 60//61 56//57
f 57//1 60//1 64//1
f 57//1 64//1 61//1
f 31//26 61//58 65//62
f 62//10 58//10 66//10
f 66//10 58//10 63//10
f 67//63 63//59 10//11
f 59//60 62//64 10//11
f 31//26 64//65 60//61
f 61//1 64//1 68//1
f 61//1 68//1 65//1
f 31//26 65//62 69//66
f 62//64 66//67 10//11
f 66//10 63//10 70//10
f 70//10 63//10 67//10
f 70//68 67//63 10//11
f 64//65 31//26 68//69
f 65//1 68//1 71//1
f 65//1 71//1 69//1
f 72//70 31//26 69//66
f 66//67 70//68 10//11
f 68//69 31//26 71//71
f 69//1 71//1 73//1
f 74//72 31//26 72//70
f 69//1 73//1 72//1
f 71//71 31//26 73//73
f 75//74 31//26 74//72
f 72//1 76//1 74//1
f 72//1 73//1 76//1
f 73//73 31//26 76//75
f 76//75 31//26 75//74
f 74//1 76//1 75//1
usemtl material_1_0
f 3//10 2//10 1//10
f 4//10 1//10 2//10
f 3//20 5//20 2//76
f 1//9 6//9 3//9
f 7//10 1//10 4//10
f 4//77 2//76 8//77
f 9//76 2//76 5//20
f 5//9 3//9 6//9
f 6//78 1//78 10//78
f 10//10 1//10 7//10
f 7//79 4//77 11//80
f 9//76 8//77 2//76
f 8//77 12//4 4//77
f 9//1 5//1 8//1
f 13//9 5//9 6//9
f 13//81 6//82 10//83
f 10//83 7//79 14//84
f 12//4 11//80 4//77
f 15//85 7//79 11//80
f 16//4 12//4 8//77
f 17//1 8//1 5//1
f 18//9 5//9 13//9
f 19//86 13//81 10//83
f 14//84 7//79 20//87
f 21//88 10//83 14//84
f 12//1 13//1 11//1
f 22//89 7//79 15//85
f 15//1 11//1 19//1
f 12//3 16//3 13//3
f 23//90 16//4 8//77
f 23//1 8//1 17//1
f 17//9 5//9 24//9
f 24//9 5//9 18//9
f 18//3 13//3 16//3
f 19//1 11//1 13//1
f 25//91 19//86 10//83
f 20//87 7//79 26//92
f 14//1 20//1 27//1
f 28//93 10//83 21//88
f 21//1 14//1 29//1
f 26//92 7//79 22//89
f 22//1 15//1 25//1
f 25//1 15//1 19//1
f 30//80 16//4 23//90
f 31//1 23//1 17//1
f 17//94 24//94 31//94
f 24//95 18//96 31//97
f 18//10 16//10 32//10
f 33//98 25//91 10//83
f 20//1 26//1 34//1
f 27//1 20//1 34//1
f 29//1 14//1 27//1
f 28//93 35//99 10//83
f 28//1 21//1 36//1
f 36//1 21//1 29//1
f 26//1 22//1 33//1
f 33//1 22//1 25//1
f 30//10 32//10 16//10
f 37//100 30//80 23//90
f 31//97 38//101 23//90
f 18//96 32//102 31//97
f 34//103 33//98 10//83
f 34//1 26//1 33//1
f 27//104 34//103 10//83
f 29//105 27//104 10//83
f 35//99 39//106 10//83
f 35//1 28//1 40//1
f 40//1 28//1 36//1
f 36//107 29//105 10//83
f 41//10 32//10 30//10
f 37//10 41//10 30//10
f 42//108 37//100 23//90
f 38//101 43//109 23//90
f 44//110 38//101 31//97
f 32//102 41//111 31//97
f 39//106 45//112 10//83
f 39//1 35//1 46//1
f 46//1 35//1 40//1
f 40//113 36//107 10//83
f 47//10 41//10 37//10
f 42//10 47//10 37//10
f 48//114 42//108 23//90
f 43//109 48//114 23//90
f 38//10 49//10 43//10
f 44//10 50//10 38//10
f 51//115 44//110 31//97
f 41//111 47//116 31//97
f 45//112 52//117 10//83
f 45//1 39//1 53//1
f 53//1 39//1 46//1
f 46//118 40//113 10//83
f 54//10 47//10 42//10
f 48//10 54//10 42//10
f 43//10 55//10 48//10
f 49//10 55//10 43//10
f 50//10 49//10 38//10
f 56//10 50//10 44//10
f 51//10 56//10 44//10
f 57//119 51//115 31//97
f 47//116 54//120 31//97
f 10//83 52//117 58//121
f 52//1 45//1 59//1
f 59//1 45//1 53//1
f 53//122 46//118 10//83
f 55//10 54//10 48//10
f 55//123 49//124 31//97
f 49//124 50//125 31//97
f 50//125 56//126 31//97
f 60//10 56//10 51//10
f 57//10 60//10 51//10
f 61//127 57//119 31//97
f 54//120 55//123 31//97
f 58//1 52//1 62//1
f 10//83 58//121 63//128
f 62//1 52//1 59//1
f 10//83 59//129 53//122
f 56//126 60//130 31//97
f 64//10 60//10 57//10
f 61//10 64//10 57//10
f 65//131 61//127 31//97
f 66//1 58//1 62//1
f 63//1 58//1 66//1
f 10//83 63//128 67//132
f 10//83 62//133 59//129
f 60//130 64//134 31//97
f 68//10 64//10 61//10
f 65//10 68//10 61//10
f 69//135 65//131 31//97
f 10//83 66//136 62//133
f 70//1 63//1 66//1
f 67//1 63//1 70//1
f 10//83 67//132 70//137
f 68//138 31//97 64//134
f 71//10 68//10 65//10
f 69//10 71//10 65//10
f 69//135 31//97 72//139
f 10//83 70//137 66//136
f 71//140 31//97 68//138
f 73//10 71//10 69//10
f 72//139 31//97 74//141
f 72//10 73//10 69//10
f 73//142 31//97 71//140
f 74//141 31//97 75//143
f 74//10 76//10 72//10
f 76//10 73//10 72//10
f 76//144 31//97 73//142
f 75//143 31//97 76//144
f 75//10 76//10 74//10
