# SSTK version 0.8.0
# 9
mtllib original-9.mtl
o Obj_000009_1/Obj_000009/mesh9/mesh9-geometry#mesh9-geometry
v 0.503148 -0.669450 -0.051824
v 0.503148 -0.669450 0.039152
v 0.505196 -0.669450 -0.006336
v 0.500513 -0.669450 -0.075031
v 0.500513 -0.669450 0.062359
v 0.496744 -0.669450 -0.098454
v 0.496744 -0.669450 0.085781
v 0.491802 -0.669450 -0.122015
v 0.491802 -0.669450 0.109343
v 0.485654 -0.669450 -0.145633
v 0.485654 -0.669450 0.132961
v 0.478276 -0.669450 -0.169219
v 0.478276 -0.669450 0.156547
v 0.469652 -0.669450 -0.192682
v 0.469652 -0.669450 0.180009
v 0.459772 -0.669450 -0.215925
v 0.459772 -0.669450 0.203252
v 0.448640 -0.669450 -0.238851
v 0.448640 -0.669450 0.226179
v 0.436267 -0.669450 -0.261362
v 0.436267 -0.669450 0.248689
v 0.422676 -0.669450 -0.283358
v 0.422676 -0.669450 0.270685
v 0.407898 -0.669450 -0.304742
v 0.407898 -0.669450 0.292070
v 0.391976 -0.669450 -0.325421
v 0.391976 -0.669450 0.312748
v 0.374963 -0.669450 -0.345303
v 0.374963 -0.669450 0.332630
v 0.356920 -0.669450 -0.364304
v 0.356920 -0.669450 0.351632
v 0.337919 -0.669450 -0.382347
v 0.337919 -0.669450 0.369674
v 0.318037 -0.669450 -0.399360
v 0.318037 -0.669450 0.386688
v 0.297358 -0.669450 -0.415282
v 0.297358 -0.669450 0.402609
v 0.275974 -0.669450 -0.430060
v 0.275974 -0.669450 0.417387
v 0.253978 -0.669450 -0.443651
v 0.253978 -0.669450 0.430979
v 0.231467 -0.669450 -0.456024
v 0.231467 -0.669450 0.443352
v 0.208541 -0.669450 -0.467156
v 0.208541 -0.669450 0.454484
v 0.185298 -0.669450 -0.477036
v 0.185298 -0.669450 0.464363
v 0.161835 -0.669450 -0.485660
v 0.161835 -0.669450 0.472988
v 0.138249 -0.669450 -0.493038
v 0.138249 -0.669450 0.480366
v 0.114632 -0.669450 -0.499186
v 0.114632 -0.669450 0.486513
v 0.091070 -0.669450 -0.504128
v 0.091070 -0.669450 0.491456
v 0.067647 -0.669450 -0.507897
v 0.067647 -0.669450 0.495225
v 0.044440 -0.669450 -0.510532
v 0.044440 -0.669450 0.497859
v -0.001048 -0.669450 -0.512580
v -0.001048 -0.669450 0.499907
v -0.046536 -0.669450 -0.510532
v -0.046536 -0.669450 0.497859
v -0.069743 -0.669450 -0.507897
v -0.069743 -0.669450 0.495225
v -0.093165 -0.669450 -0.504128
v -0.093165 -0.669450 0.491456
v -0.116727 -0.669450 -0.499186
v -0.116727 -0.669450 0.486513
v -0.140345 -0.669450 -0.493038
v -0.140345 -0.669450 0.480366
v -0.163931 -0.669450 -0.485660
v -0.163931 -0.669450 0.472988
v -0.187393 -0.669450 -0.477036
v -0.187393 -0.669450 0.464363
v -0.210636 -0.669450 -0.467156
v -0.210636 -0.669450 0.454484
v -0.233563 -0.669450 -0.456024
v -0.233563 -0.669450 0.443352
v -0.256073 -0.669450 -0.443651
v -0.256073 -0.669450 0.430979
v -0.278069 -0.669450 -0.430060
v -0.278069 -0.669450 0.417387
v -0.299454 -0.669450 -0.415282
v -0.299454 -0.669450 0.402609
v -0.320132 -0.669450 -0.399360
v -0.320132 -0.669450 0.386688
v -0.340014 -0.669450 -0.382347
v -0.340014 -0.669450 0.369674
v -0.359016 -0.669450 -0.364304
v -0.359016 -0.669450 0.351632
v -0.377058 -0.669450 -0.345303
v -0.377058 -0.669450 0.332630
v -0.394071 -0.669450 -0.325421
v -0.394071 -0.669450 0.312748
v -0.409993 -0.669450 -0.304742
v -0.409993 -0.669450 0.292070
v -0.424771 -0.669450 -0.283358
v -0.424771 -0.669450 0.270685
v -0.438363 -0.669450 -0.261362
v -0.438363 -0.669450 0.248689
v -0.450736 -0.669450 -0.238851
v -0.450736 -0.669450 0.226179
v -0.461868 -0.669450 -0.215925
v -0.461868 -0.669450 0.203252
v -0.471747 -0.669450 -0.192682
v -0.471747 -0.669450 0.180009
v -0.480372 -0.669450 -0.169219
v -0.480372 -0.669450 0.156547
v -0.487750 -0.669450 -0.145633
v -0.487750 -0.669450 0.132961
v -0.493897 -0.669450 -0.122015
v -0.493897 -0.669450 0.109343
v -0.498840 -0.669450 -0.098454
v -0.498840 -0.669450 0.085781
v -0.502609 -0.669450 -0.075031
v -0.502609 -0.669450 0.062359
v -0.505243 -0.669450 -0.051824
v -0.505243 -0.669450 0.039152
v -0.507291 -0.669450 -0.006336
vn 0 1 0
vn 0 -1 0
usemtl material_0_0
f 1//1 2//1 3//1
f 2//1 1//1 4//1
f 2//1 4//1 5//1
f 5//1 4//1 6//1
f 5//1 6//1 7//1
f 7//1 6//1 8//1
f 7//1 8//1 9//1
f 9//1 8//1 10//1
f 9//1 10//1 11//1
f 11//1 10//1 12//1
f 11//1 12//1 13//1
f 13//1 12//1 14//1
f 13//1 14//1 15//1
f 15//1 14//1 16//1
f 15//1 16//1 17//1
f 17//1 16//1 18//1
f 17//1 18//1 19//1
f 19//1 18//1 20//1
f 19//1 20//1 21//1
f 21//1 20//1 22//1
f 21//1 22//1 23//1
f 23//1 22//1 24//1
f 23//1 24//1 25//1
f 25//1 24//1 26//1
f 25//1 26//1 27//1
f 27//1 26//1 28//1
f 27//1 28//1 29//1
f 29//1 28//1 30//1
f 29//1 30//1 31//1
f 31//1 30//1 32//1
f 31//1 32//1 33//1
f 33//1 32//1 34//1
f 33//1 34//1 35//1
f 35//1 34//1 36//1
f 35//1 36//1 37//1
f 37//1 36//1 38//1
f 37//1 38//1 39//1
f 39//1 38//1 40//1
f 39//1 40//1 41//1
f 41//1 40//1 42//1
f 41//1 42//1 43//1
f 43//1 42//1 44//1
f 43//1 44//1 45//1
f 45//1 44//1 46//1
f 45//1 46//1 47//1
f 47//1 46//1 48//1
f 47//1 48//1 49//1
f 49//1 48//1 50//1
f 49//1 50//1 51//1
f 51//1 50//1 52//1
f 51//1 52//1 53//1
f 53//1 52//1 54//1
f 53//1 54//1 55//1
f 55//1 54//1 56//1
f 55//1 56//1 57//1
f 57//1 56//1 58//1
f 57//1 58//1 59//1
f 59//1 58//1 60//1
f 59//1 60//1 61//1
f 61//1 60//1 62//1
f 61//1 62//1 63//1
f 63//1 62//1 64//1
f 63//1 64//1 65//1
f 65//1 64//1 66//1
f 65//1 66//1 67//1
f 67//1 66//1 68//1
f 67//1 68//1 69//1
f 69//1 68//1 70//1
f 69//1 70//1 71//1
f 71//1 70//1 72//1
f 71//1 72//1 73//1
f 73//1 72//1 74//1
f 73//1 74//1 75//1
f 75//1 74//1 76//1
f 75//1 76//1 77//1
f 77//1 76//1 78//1
f 77//1 78//1 79//1
f 79//1 78//1 80//1
f 79//1 80//1 81//1
f 81//1 80//1 82//1
f 81//1 82//1 83//1
f 83//1 82//1 84//1
f 83//1 84//1 85//1
f 85//1 84//1 86//1
f 85//1 86//1 87//1
f 87//1 86//1 88//1
f 87//1 88//1 89//1
f 89//1 88//1 90//1
f 89//1 90//1 91//1
f 91//1 90//1 92//1
f 91//1 92//1 93//1
f 93//1 92//1 94//1
f 93//1 94//1 95//1
f 95//1 94//1 96//1
f 95//1 96//1 97//1
f 97//1 96//1 98//1
f 97//1 98//1 99//1
f 99//1 98//1 100//1
f 99//1 100//1 101//1
f 101//1 100//1 102//1
f 101//1 102//1 103//1
f 103//1 102//1 104//1
f 103//1 104//1 105//1
f 105//1 104//1 106//1
f 105//1 106//1 107//1
f 107//1 106//1 108//1
f 107//1 108//1 109//1
f 109//1 108//1 110//1
f 109//1 110//1 111//1
f 111//1 110//1 112//1
f 111//1 112//1 113//1
f 113//1 112//1 114//1
f 113//1 114//1 115//1
f 115//1 114//1 116//1
f 115//1 116//1 117//1
f 117//1 116//1 118//1
f 117//1 118//1 119//1
f 119//1 118//1 120//1
usemtl material_1_0
f 3//2 2//2 1//2
f 4//2 1//2 2//2
f 5//2 4//2 2//2
f 6//2 4//2 5//2
f 7//2 6//2 5//2
f 8//2 6//2 7//2
f 9//2 8//2 7//2
f 10//2 8//2 9//2
f 11//2 10//2 9//2
f 12//2 10//2 11//2
f 13//2 12//2 11//2
f 14//2 12//2 13//2
f 15//2 14//2 13//2
f 16//2 14//2 15//2
f 17//2 16//2 15//2
f 18//2 16//2 17//2
f 19//2 18//2 17//2
f 20//2 18//2 19//2
f 21//2 20//2 19//2
f 22//2 20//2 21//2
f 23//2 22//2 21//2
f 24//2 22//2 23//2
f 25//2 24//2 23//2
f 26//2 24//2 25//2
f 27//2 26//2 25//2
f 28//2 26//2 27//2
f 29//2 28//2 27//2
f 30//2 28//2 29//2
f 31//2 30//2 29//2
f 32//2 30//2 31//2
f 33//2 32//2 31//2
f 34//2 32//2 33//2
f 35//2 34//2 33//2
f 36//2 34//2 35//2
f 37//2 36//2 35//2
f 38//2 36//2 37//2
f 39//2 38//2 37//2
f 40//2 38//2 39//2
f 41//2 40//2 39//2
f 42//2 40//2 41//2
f 43//2 42//2 41//2
f 44//2 42//2 43//2
f 45//2 44//2 43//2
f 46//2 44//2 45//2
f 47//2 46//2 45//2
f 48//2 46//2 47//2
f 49//2 48//2 47//2
f 50//2 48//2 49//2
f 51//2 50//2 49//2
f 52//2 50//2 51//2
f 53//2 52//2 51//2
f 54//2 52//2 53//2
f 55//2 54//2 53//2
f 56//2 54//2 55//2
f 57//2 56//2 55//2
f 58//2 56//2 57//2
f 59//2 58//2 57//2
f 60//2 58//2 59//2
f 61//2 60//2 59//2
f 62//2 60//2 61//2
f 63//2 62//2 61//2
f 64//2 62//2 63//2
f 65//2 64//2 63//2
f 66//2 64//2 65//2
f 67//2 66//2 65//2
f 68//2 66//2 67//2
f 69//2 68//2 67//2
f 70//2 68//2 69//2
f 71//2 70//2 69//2
f 72//2 70//2 71//2
f 73//2 72//2 71//2
f 74//2 72//2 73//2
f 75//2 74//2 73//2
f 76//2 74//2 75//2
f 77//2 76//2 75//2
f 78//2 76//2 77//2
f 79//2 78//2 77//2
f 80//2 78//2 79//2
f 81//2 80//2 79//2
f 82//2 80//2 81//2
f 83//2 82//2 81//2
f 84//2 82//2 83//2
f 85//2 84//2 83//2
f 86//2 84//2 85//2
f 87//2 86//2 85//2
f 88//2 86//2 87//2
f 89//2 88//2 87//2
f 90//2 88//2 89//2
f 91//2 90//2 89//2
f 92//2 90//2 91//2
f 93//2 92//2 91//2
f 94//2 92//2 93//2
f 95//2 94//2 93//2
f 96//2 94//2 95//2
f 97//2 96//2 95//2
f 98//2 96//2 97//2
f 99//2 98//2 97//2
f 100//2 98//2 99//2
f 101//2 100//2 99//2
f 102//2 100//2 101//2
f 103//2 102//2 101//2
f 104//2 102//2 103//2
f 105//2 104//2 103//2
f 106//2 104//2 105//2
f 107//2 106//2 105//2
f 108//2 106//2 107//2
f 109//2 108//2 107//2
f 110//2 108//2 109//2
f 111//2 110//2 109//2
f 112//2 110//2 111//2
f 113//2 112//2 111//2
f 114//2 112//2 113//2
f 115//2 114//2 113//2
f 116//2 114//2 115//2
f 117//2 116//2 115//2
f 118//2 116//2 117//2
f 119//2 118//2 117//2
f 120//2 118//2 119//2
