# SSTK version 0.8.0
# 28
mtllib original-28.mtl
o Obj_000028_1/Obj_000028/mesh29/mesh29-geometry#mesh29-geometry
v -0.528784 0.708332 0.028863
v -0.522365 0.715811 0.062269
v -0.525693 0.715812 0.028656
v -0.525437 0.708332 0.062673
v -0.526865 0.715811 -0.006336
v -0.517086 0.715812 0.094604
v -0.529960 0.708330 -0.006336
v -0.520127 0.708332 0.095198
v -0.509373 0.715813 0.128161
v -0.512368 0.708333 0.128953
v -0.498500 0.715814 0.164011
v -0.501431 0.708334 0.165015
v -0.487150 0.715814 0.194115
v -0.490015 0.708334 0.195296
v -0.472688 0.715813 0.226124
v -0.475467 0.708333 0.227493
v -0.457220 0.715813 0.255187
v -0.459908 0.708333 0.256727
v -0.438396 0.715813 0.285568
v -0.440973 0.708334 0.287288
v -0.418035 0.715814 0.313974
v -0.420492 0.708334 0.315862
v -0.396814 0.715814 0.339856
v -0.399146 0.708334 0.341895
v -0.373901 0.715813 0.364424
v -0.376098 0.708334 0.366608
v -0.348643 0.715813 0.388199
v -0.350691 0.708333 0.390524
v -0.322169 0.715813 0.410030
v -0.324061 0.708333 0.412483
v -0.294080 0.708334 0.433983
v -0.292363 0.715814 0.431403
v -0.264780 0.708334 0.452133
v -0.263235 0.715814 0.449447
v -0.235157 0.708334 0.467943
v -0.233786 0.715814 0.465165
v -0.201363 0.715814 0.479827
v -0.202544 0.708334 0.482691
v -0.170967 0.715814 0.491268
v -0.171968 0.708334 0.494200
v -0.138302 0.715814 0.501248
v -0.139111 0.708334 0.504239
v -0.105179 0.715813 0.509061
v -0.105792 0.708333 0.512098
v -0.071118 0.708334 0.517913
v -0.070707 0.715813 0.514842
v -0.034486 0.708334 0.521521
v -0.034290 0.715814 0.518429
v -0.001562 0.708334 0.522580
v -0.001559 0.715814 0.519481
v 0.031957 0.715814 0.518439
v 0.032151 0.708334 0.521531
v 0.067082 0.715814 0.515040
v 0.067483 0.708334 0.518113
v 0.101932 0.715813 0.509295
v 0.102539 0.708333 0.512333
v 0.134149 0.715813 0.501805
v 0.134946 0.708333 0.504799
v 0.168597 0.708334 0.494632
v 0.167603 0.715814 0.491697
v 0.200751 0.708334 0.482563
v 0.199569 0.715814 0.479699
v 0.231270 0.715814 0.465376
v 0.232639 0.708334 0.468155
v 0.262322 0.715813 0.448764
v 0.263874 0.708333 0.451445
v 0.292013 0.708334 0.433962
v 0.290296 0.715813 0.431383
v 0.319924 0.708334 0.414052
v 0.318044 0.715814 0.411589
v 0.345020 0.715814 0.389539
v 0.347060 0.708334 0.391872
v 0.370095 0.715813 0.366133
v 0.372282 0.708333 0.368327
v 0.396374 0.708333 0.342669
v 0.394046 0.715813 0.340625
v 0.417675 0.708333 0.316804
v 0.415222 0.715813 0.314911
v 0.438510 0.708334 0.287837
v 0.435935 0.715814 0.286113
v 0.456963 0.708334 0.258190
v 0.454280 0.715814 0.256640
v 0.473512 0.708334 0.227205
v 0.470732 0.715814 0.225837
v 0.487250 0.708334 0.196922
v 0.484389 0.715814 0.195731
v 0.499469 0.708333 0.164637
v 0.496537 0.715813 0.163636
v 0.510030 0.708333 0.129852
v 0.507036 0.715813 0.129054
v 0.517581 0.708335 0.097452
v 0.514543 0.715815 0.096844
v 0.523212 0.708335 0.063644
v 0.520141 0.715815 0.063234
v 0.526658 0.708334 0.029333
v 0.523566 0.715814 0.029124
v 0.524768 0.715813 -0.006336
v 0.527866 0.708333 -0.006336
vn -0.9219000516909374 0.3825980214522716 0.06098400341937324
vn -0.9160537282229302 0.3826798864655915 0.12000696439603917
vn -0.9235071874525845 0.3823370776064056 0.03086800626555777
vn -0.9065732313475457 0.3826820976562742 0.17798704542034202
vn -0.8927858974095321 0.3826799560260574 0.2376749726886517
vn -0.8747748982833677 0.38267695550328285 0.29719896544244945
vn -0.8536394042273411 0.38267873292056914 0.353350753389175
vn -0.829180411753682 0.38267919003049655 0.40745120233176096
vn -0.8008868568599075 0.38268193160441244 0.4605809176817618
vn -0.7685638073099336 0.3826819040561097 0.5127028714579722
vn -0.7330572315094066 0.382682120856199 0.5623001775820153
vn -0.6953930304491753 0.3826840167565853 0.6082610266339263
vn -0.6547838210783811 0.3826848954302184 0.651774821900599
vn -0.6108331952824875 0.3826831223432396 0.6931352215943262
vn -0.5634060872789339 0.38268305928258517 0.7322071134284095
vn -0.5127561242295433 0.38268209271546316 0.7685281861974945
vn -0.4610089869250938 0.3826809891465931 0.8006409772926214
vn -0.4080587458331402 0.3826837616384135 0.8288794837172401
vn -0.353245953236244 0.3826829493392862 0.8536808869871706
vn -0.2978620062926328 0.3826800080844978 0.8745480184757017
vn -0.24115801423399047 0.3826830225872918 0.8918500526401133
vn -0.1825380365444837 0.3826860766145254 0.9056661813161991
vn -0.1217530644739871 0.3826842026493249 0.9158214849706484
vn -0.06016800849244425 0.3826860540144181 0.9219171301244636
vn -0.00048199986032778773 0.3826898891054792 0.923876732282273
vn 0.058884002942669225 0.38268601912435135 0.9220000460760315
vn 0.1197020178826449 0.3826810571698752 0.9160931368579124
vn 0.1798450599536987 0.3826801275714164 0.9062073020960353
vn 0.2383309337261348 0.3826828935854689 0.892609751787578
vn 0.2960859258568365 0.38268490417150225 0.8751487808531462
vn 0.3527139985951402 0.38268699847575754 0.8538989965989204
vn 0.40833799689908123 0.38268799709386714 0.8287399937065486
vn 0.4619311687354029 0.3826851397882099 0.8001072922652455
vn 0.5123070812408949 0.38268706068594466 0.7688251219191443
vn 0.5609139735501022 0.38268498195448986 0.7341169653827153
vn 0.607891663762448 0.3826827883301718 0.6957166151846366
vn 0.6523303559278475 0.38268320880158263 0.6542313569650817
vn 0.6937062560522292 0.38268214125087446 0.6101852252239847
vn 0.7319847314476611 0.3826818596007483 0.5636957931899161
vn 0.7676130053260828 0.38268500265525973 0.5141230035672425
vn 0.8000769074271068 0.3826849557214396 0.46198394654615066
vn 0.8285758627344053 0.3826869366023651 0.4086719322975743
vn 0.8531478960857395 0.3826869533883492 0.35452695681826485
vn 0.874538336467758 0.3826841472329704 0.2978851146075965
vn 0.8923777963915357 0.382687912684405 0.23918994542547162
vn 0.9060052917255969 0.38268812322215123 0.18084305822984661
vn 0.915775987069243 0.3826799945965585 0.12210799827583514
vn 0.9218112597069926 0.38267810781402317 0.06181801741633257
vn 0.9234274373607322 0.38249618116075296 0.03128001481507881
vn 0.9219000516909374 -0.3825980214522716 -0.06098400341937324
vn 0.9160537282229302 -0.3826798864655915 -0.12000696439603917
vn 0.9235071874525845 -0.3823370776064056 -0.03086800626555777
vn 0.9065732313475457 -0.3826820976562742 -0.17798704542034202
vn 0.8927858974095321 -0.3826799560260574 -0.2376749726886517
vn 0.8747748982833677 -0.38267695550328285 -0.29719896544244945
vn 0.8536394042273411 -0.38267873292056914 -0.353350753389175
vn 0.829180411753682 -0.38267919003049655 -0.40745120233176096
vn 0.8008868568599075 -0.38268193160441244 -0.4605809176817618
vn 0.7685638073099336 -0.3826819040561097 -0.5127028714579722
vn 0.7330572315094066 -0.382682120856199 -0.5623001775820153
vn 0.6953930304491753 -0.3826840167565853 -0.6082610266339263
vn 0.6547838210783811 -0.3826848954302184 -0.651774821900599
vn 0.6108331952824875 -0.3826831223432396 -0.6931352215943262
vn 0.5634060872789339 -0.38268305928258517 -0.7322071134284095
vn 0.5127561242295433 -0.38268209271546316 -0.7685281861974945
vn 0.4610089869250938 -0.3826809891465931 -0.8006409772926214
vn 0.4080587458331402 -0.3826837616384135 -0.8288794837172401
vn 0.353245953236244 -0.3826829493392862 -0.8536808869871706
vn 0.2978620062926328 -0.3826800080844978 -0.8745480184757017
vn 0.24115801423399047 -0.3826830225872918 -0.8918500526401133
vn 0.1825380365444837 -0.3826860766145254 -0.9056661813161991
vn 0.1217530644739871 -0.3826842026493249 -0.9158214849706484
vn 0.06016800849244425 -0.3826860540144181 -0.9219171301244636
vn 0.00048199986032778773 -0.3826898891054792 -0.923876732282273
vn -0.058884002942669225 -0.38268601912435135 -0.9220000460760315
vn -0.1197020178826449 -0.3826810571698752 -0.9160931368579124
vn -0.1798450599536987 -0.3826801275714164 -0.9062073020960353
vn -0.2383309337261348 -0.3826828935854689 -0.892609751787578
vn -0.2960859258568365 -0.38268490417150225 -0.8751487808531462
vn -0.3527139985951402 -0.38268699847575754 -0.8538989965989204
vn -0.40833799689908123 -0.38268799709386714 -0.8287399937065486
vn -0.4619311687354029 -0.3826851397882099 -0.8001072922652455
vn -0.5123070812408949 -0.38268706068594466 -0.7688251219191443
vn -0.5609139735501022 -0.38268498195448986 -0.7341169653827153
vn -0.607891663762448 -0.3826827883301718 -0.6957166151846366
vn -0.6523303559278475 -0.38268320880158263 -0.6542313569650817
vn -0.6937062560522292 -0.38268214125087446 -0.6101852252239847
vn -0.7319847314476611 -0.3826818596007483 -0.5636957931899161
vn -0.7676130053260828 -0.38268500265525973 -0.5141230035672425
vn -0.8000769074271068 -0.3826849557214396 -0.46198394654615066
vn -0.8285758627344053 -0.3826869366023651 -0.4086719322975743
vn -0.8531478960857395 -0.3826869533883492 -0.35452695681826485
vn -0.874538336467758 -0.3826841472329704 -0.2978851146075965
vn -0.8923777963915357 -0.382687912684405 -0.23918994542547162
vn -0.9060052917255969 -0.38268812322215123 -0.18084305822984661
vn -0.915775987069243 -0.3826799945965585 -0.12210799827583514
vn -0.9218112597069926 -0.38267810781402317 -0.06181801741633257
vn -0.9234274373607322 -0.38249618116075296 -0.03128001481507881
usemtl material_0_0
f 1//1 2//2 3//1
f 2//2 1//1 4//2
f 5//3 1//1 3//1
f 4//2 6//4 2//2
f 1//1 5//3 7//3
f 6//4 4//2 8//4
f 8//4 9//5 6//4
f 9//5 8//4 10//5
f 10//5 11//6 9//5
f 11//6 10//5 12//6
f 12//6 13//7 11//6
f 13//7 12//6 14//7
f 14//7 15//8 13//7
f 15//8 14//7 16//8
f 16//8 17//9 15//8
f 17//9 16//8 18//9
f 18//9 19//10 17//9
f 19//10 18//9 20//10
f 20//10 21//11 19//10
f 21//11 20//10 22//11
f 22//11 23//12 21//11
f 23//12 22//11 24//12
f 24//12 25//13 23//12
f 25//13 24//12 26//13
f 26//13 27//14 25//13
f 27//14 26//13 28//14
f 28//14 29//15 27//14
f 29//15 28//14 30//15
f 31//16 29//15 30//15
f 29//15 31//16 32//16
f 33//17 32//16 31//16
f 32//16 33//17 34//17
f 35//18 34//17 33//17
f 34//17 35//18 36//18
f 35//18 37//19 36//18
f 37//19 35//18 38//19
f 38//19 39//20 37//19
f 39//20 38//19 40//20
f 40//20 41//21 39//20
f 41//21 40//20 42//21
f 42//21 43//22 41//21
f 43//22 42//21 44//22
f 45//23 43//22 44//22
f 43//22 45//23 46//23
f 47//24 46//23 45//23
f 46//23 47//24 48//24
f 49//25 48//24 47//24
f 48//24 49//25 50//25
f 49//25 51//26 50//25
f 51//26 49//25 52//26
f 52//26 53//27 51//26
f 53//27 52//26 54//27
f 54//27 55//28 53//27
f 55//28 54//27 56//28
f 56//28 57//29 55//28
f 57//29 56//28 58//29
f 59//30 57//29 58//29
f 57//29 59//30 60//30
f 61//31 60//30 59//30
f 60//30 61//31 62//31
f 61//31 63//32 62//31
f 63//32 61//31 64//32
f 64//32 65//33 63//32
f 65//33 64//32 66//33
f 67//34 65//33 66//33
f 65//33 67//34 68//34
f 69//35 68//34 67//34
f 68//34 69//35 70//35
f 69//35 71//36 70//35
f 71//36 69//35 72//36
f 72//36 73//37 71//36
f 73//37 72//36 74//37
f 75//38 73//37 74//37
f 73//37 75//38 76//38
f 77//39 76//38 75//38
f 76//38 77//39 78//39
f 79//40 78//39 77//39
f 78//39 79//40 80//40
f 81//41 80//40 79//40
f 80//40 81//41 82//41
f 83//42 82//41 81//41
f 82//41 83//42 84//42
f 85//43 84//42 83//42
f 84//42 85//43 86//43
f 87//44 86//43 85//43
f 86//43 87//44 88//44
f 89//45 88//44 87//44
f 88//44 89//45 90//45
f 91//46 90//45 89//45
f 90//45 91//46 92//46
f 93//47 92//46 91//46
f 92//46 93//47 94//47
f 95//48 94//47 93//47
f 94//47 95//48 96//48
f 95//48 97//49 96//48
f 97//49 95//48 98//49
usemtl material_1_0
f 3//50 2//51 1//50
f 4//51 1//50 2//51
f 3//50 1//50 5//52
f 2//51 6//53 4//51
f 7//52 5//52 1//50
f 8//53 4//51 6//53
f 6//53 9//54 8//53
f 10//54 8//53 9//54
f 9//54 11//55 10//54
f 12//55 10//54 11//55
f 11//55 13//56 12//55
f 14//56 12//55 13//56
f 13//56 15//57 14//56
f 16//57 14//56 15//57
f 15//57 17//58 16//57
f 18//58 16//57 17//58
f 17//58 19//59 18//58
f 20//59 18//58 19//59
f 19//59 21//60 20//59
f 22//60 20//59 21//60
f 21//60 23//61 22//60
f 24//61 22//60 23//61
f 23//61 25//62 24//61
f 26//62 24//61 25//62
f 25//62 27//63 26//62
f 28//63 26//62 27//63
f 27//63 29//64 28//63
f 30//64 28//63 29//64
f 30//64 29//64 31//65
f 32//65 31//65 29//64
f 31//65 32//65 33//66
f 34//66 33//66 32//65
f 33//66 34//66 35//67
f 36//67 35//67 34//66
f 36//67 37//68 35//67
f 38//68 35//67 37//68
f 37//68 39//69 38//68
f 40//69 38//68 39//69
f 39//69 41//70 40//69
f 42//70 40//69 41//70
f 41//70 43//71 42//70
f 44//71 42//70 43//71
f 44//71 43//71 45//72
f 46//72 45//72 43//71
f 45//72 46//72 47//73
f 48//73 47//73 46//72
f 47//73 48//73 49//74
f 50//74 49//74 48//73
f 50//74 51//75 49//74
f 52//75 49//74 51//75
f 51//75 53//76 52//75
f 54//76 52//75 53//76
f 53//76 55//77 54//76
f 56//77 54//76 55//77
f 55//77 57//78 56//77
f 58//78 56//77 57//78
f 58//78 57//78 59//79
f 60//79 59//79 57//78
f 59//79 60//79 61//80
f 62//80 61//80 60//79
f 62//80 63//81 61//80
f 64//81 61//80 63//81
f 63//81 65//82 64//81
f 66//82 64//81 65//82
f 66//82 65//82 67//83
f 68//83 67//83 65//82
f 67//83 68//83 69//84
f 70//84 69//84 68//83
f 70//84 71//85 69//84
f 72//85 69//84 71//85
f 71//85 73//86 72//85
f 74//86 72//85 73//86
f 74//86 73//86 75//87
f 76//87 75//87 73//86
f 75//87 76//87 77//88
f 78//88 77//88 76//87
f 77//88 78//88 79//89
f 80//89 79//89 78//88
f 79//89 80//89 81//90
f 82//90 81//90 80//89
f 81//90 82//90 83//91
f 84//91 83//91 82//90
f 83//91 84//91 85//92
f 86//92 85//92 84//91
f 85//92 86//92 87//93
f 88//93 87//93 86//92
f 87//93 88//93 89//94
f 90//94 89//94 88//93
f 89//94 90//94 91//95
f 92//95 91//95 90//94
f 91//95 92//95 93//96
f 94//96 93//96 92//95
f 93//96 94//96 95//97
f 96//97 95//97 94//96
f 96//97 97//98 95//97
f 98//98 95//97 97//98
