# SSTK version 0.8.0
# 19
mtllib original-19.mtl
o Obj_000019_1/Obj_000019/mesh19/mesh19-geometry#mesh19-geometry
v -0.480117 -0.826601 0.208686
v -0.479764 -0.797174 0.207578
v -0.479764 -0.841371 0.207578
v -0.480117 -0.797174 0.208686
v -0.479294 -0.797174 0.206404
v -0.480023 -0.855021 0.208369
v -0.480410 -0.841371 0.209911
v -0.479294 -0.826601 0.206404
v -0.480117 -0.841371 0.208686
v -0.479294 -0.841371 0.206404
v -0.480410 -0.797174 0.209911
v -0.478755 -0.797174 0.205297
v -0.480560 -0.853847 0.210811
v -0.479145 -0.855823 0.206080
v -0.480681 -0.853145 0.212047
v -0.480596 -0.841371 0.211075
v -0.478755 -0.841371 0.205297
v -0.480334 -0.854488 0.209556
v -0.479615 -0.855477 0.207180
v -0.480700 -0.852352 0.213322
v -0.480596 -0.797174 0.211075
v -0.478137 -0.797174 0.204227
v -0.480696 -0.841371 0.212331
v -0.480614 -0.851516 0.214568
v -0.478137 -0.841371 0.204227
v -0.478137 -0.826601 0.204227
v -0.480696 -0.797174 0.212331
v -0.478000 -0.856252 0.204013
v -0.477411 -0.797174 0.203156
v -0.480694 -0.841371 0.213537
v -0.480423 -0.850616 0.215826
v -0.478591 -0.856085 0.204997
v -0.477411 -0.841371 0.203156
v -0.480694 -0.797174 0.213537
v -0.476690 -0.797174 0.202240
v -0.480581 -0.841371 0.214849
v -0.480134 -0.849694 0.217049
v -0.476690 -0.841371 0.202240
v -0.480581 -0.797174 0.214849
v -0.476663 -0.856385 0.202210
v -0.480376 -0.841371 0.216057
v -0.479749 -0.848736 0.218267
v -0.477341 -0.856348 0.203063
v -0.475857 -0.797174 0.201323
v -0.480376 -0.797174 0.216057
v -0.475857 -0.841371 0.201323
v -0.480071 -0.841371 0.217272
v -0.479295 -0.847770 0.219456
v -0.474954 -0.841371 0.200466
v -0.480071 -0.797174 0.217272
v -0.474954 -0.797174 0.200466
v -0.474479 -0.856392 0.200065
v -0.479700 -0.841371 0.218415
v -0.478792 -0.846793 0.220631
v -0.473979 -0.841371 0.199673
v -0.475223 -0.856392 0.200708
v -0.479700 -0.797174 0.218415
v -0.473979 -0.826601 0.199673
v -0.473705 -0.856392 0.199473
v -0.475933 -0.856392 0.201402
v -0.479262 -0.841371 0.219537
v -0.478239 -0.845813 0.221780
v -0.473979 -0.797174 0.199673
v -0.472968 -0.841371 0.198977
v -0.479262 -0.797174 0.219537
v -0.472968 -0.797174 0.198977
v -0.472905 -0.856392 0.198937
v -0.478743 -0.841371 0.220712
v -0.471958 -0.841371 0.198392
v -0.472081 -0.856392 0.198458
v -0.478743 -0.797174 0.220712
v -0.471958 -0.797174 0.198392
v -0.478239 -0.797174 0.221780
v -0.471237 -0.856392 0.198036
v -0.470746 -0.841371 0.197821
v -0.470746 -0.826601 0.197821
v -0.470377 -0.856392 0.197672
v -0.470746 -0.797174 0.197821
v -0.469682 -0.841371 0.197424
v -0.469682 -0.826601 0.197424
v -0.469504 -0.856392 0.197366
v -0.469682 -0.797174 0.197424
v -0.468494 -0.841371 0.197084
v -0.468494 -0.797174 0.197084
v -0.468620 -0.856392 0.197115
v -0.467207 -0.841371 0.196824
v -0.467730 -0.856392 0.196917
v -0.467207 -0.797174 0.196824
v -0.466044 -0.841371 0.196674
v -0.465935 -0.856392 0.196663
v -0.466044 -0.797174 0.196674
v -0.464808 -0.841371 0.196585
v -0.464133 -0.856392 0.196561
v -0.464808 -0.797174 0.196585
v -0.463617 -0.841371 0.196551
v -0.462333 -0.856392 0.196546
v -0.463617 -0.797174 0.196551
v -0.462333 -0.797174 0.196546
vn -0.9527655271402045 0 -0.30370684926956887
vn -0.928447308660038 0 -0.37146412349233976
vn -0.9522102931222723 0.0002720000837308185 -0.3054430940256312
vn -0.9725646149063092 0 -0.23263290788738997
vn -0.9284404606361002 -0.003860001915099813 -0.37146118429661196
vn -0.899110296084262 0 -0.43772214414542754
vn -0.9768286622195447 -0.0017169994062736793 -0.2140159259948037
vn -0.9338148972640251 -0.001598999824081967 -0.3577529606409158
vn -0.972374565087098 -0.019762991160628633 -0.23258789597066762
vn -0.9875012704163973 0 -0.15761104316005636
vn -0.8983031639250713 0.0002930000534676313 -0.4393760801786726
vn -0.9941067147018519 0.017110995089324805 -0.10704696927864822
vn -0.5353359358086748 0.7091639149652239 -0.4588049449853904
vn -0.5712711311164512 0.6813371563784782 -0.4576341050348188
vn -0.9994907339151125 0.01830799512603704 -0.026135993042063786
vn -0.987243500697945 -0.022846011586757482 -0.15757007991444374
vn -0.865939271072806 0 -0.5001491565662163
vn -0.9968308778578214 0 -0.0795499902527005
vn -0.9982806360014902 0.02073099244095288 0.05482698000868865
vn -0.8659330617280405 -0.0037250002655365424 -0.5001460356529114
vn -0.9965059214573992 -0.02553199798761904 -0.0795239937320781
vn -0.874802155691178 -0.001097000195236326 -0.48447908622420416
vn -0.8275633966706789 0 -0.5613722690789853
vn -0.9999985617922262 0 0.0016959992567988726
vn -0.9905670418162934 0.021879000923611076 0.13527100571039802
vn -0.82669918062015 0.0002360000515622478 -0.5626441229284707
vn -0.5646270922222444 0.6881471123971415 -0.45568607442857945
vn -0.9995812173439655 -0.028888006281264325 0.0016950003685524385
vn -0.7858390645637543 0 -0.6184310508096786
vn -0.9963524838323707 0 0.08533304143803365
vn -0.9768537339617368 0.02399799346433931 0.21255794211155285
vn -0.785831853821144 -0.004493999164035205 -0.6184238849620365
vn -0.9958740282285478 -0.030987000878342066 0.08529200241764451
vn -0.8033406453826222 -0.00022399990111994926 -0.5955197371206739
vn -0.7404112041043721 0.000006000001654130932 -0.6721541852884008
vn -0.9858373833996268 0 0.16770406522138143
vn -0.9583372899694287 0.02372400717830436 0.28465208612876036
vn -0.46307290665794043 0.7900418407504921 -0.40174291902028597
vn -0.985279360175833 -0.033642012298075376 0.16760906127067682
vn -0.9700275088988753 0 0.2429951274808662
vn -0.9400772196561185 0.022016005144205243 0.34025007950199215
vn -0.6885268539462566 0 -0.7252108461646656
vn -0.6885151190725035 -0.0058830010174120055 -0.7251981254164999
vn -0.969443827845211 -0.034684993840604715 0.24284895687464325
vn -0.7008257571075007 -0.003102998924561109 -0.7133257527752468
vn -0.9509375623153973 0 0.30938285760146783
vn -0.9243117555616293 0.018013995236118442 0.3812128991865467
vn -0.6305591562645589 0 -0.776141192342558
vn -0.6305589559961294 0.0007969999443811347 -0.7761409458366179
vn -0.022171002150166062 0.999426096925347 -0.02561100248378053
vn -0.950427477848118 -0.03274998200760702 0.30921683012049467
vn -0.6069159231216615 -0.0004769999395780066 -0.7947658993266126
vn -0.06733600623410242 0.9953480921513215 -0.06890600637945596
vn -0.931685407155463 0 0.3632661587507971
vn -0.907350522826754 0.019704989637197846 0.4199127791689773
vn -0.5654687568979653 0.00034199985297020294 -0.8247696454212959
vn -0.9312318478423158 -0.031191994903415683 0.3630899406732871
vn -0.5672799931855491 0 -0.8235249901074061
vn -0.5562967814460577 -0.0001589999375330453 -0.8309836735290155
vn -0.9146799238798826 0 0.4041789663640257
vn -0.9146598622572657 -0.006632999001106996 0.40416993913423466
vn -0.5013800832847539 0.000043000007142966904 -0.865227143723758
vn -0.5028952158781271 0.00015500006653716228 -0.8643473710389078
vn -0.9043068887982931 0 0.42688294750663414
vn -0.44708797644293513 -0.00025599998651116245 -0.8944899528693256
vn -0.42655283360646423 0 -0.9044626471791394
vn -0.42655302038731535 0.000966000046170657 -0.9044620432292165
vn -0.3896049747165859 -0.0004789999689150935 -0.9209819402328787
vn -0.3475409076580455 0.00036399990328508274 -0.9376647508615711
vn -0.34972688731224455 0 -0.9368516981309734
vn -0.3313448806613582 -0.00030199989123017024 -0.943509660181376
vn -0.2736220730716052 0.00022900006115537507 -0.9618372568615593
vn -0.27518996309702837 0 -0.9613898710776269
vn -0.27339005950157586 0.000302000065728572 -0.9619032093520038
vn -0.1975580387169343 0 -0.9802911921150359
vn -0.21707995670123614 -0.0002019999597088753 -0.9761538052963814
vn -0.19755796934997003 0.000837999869989157 -0.9802908479132785
vn -0.12761300474809717 -0.000029000001078782832 -0.9918240369027977
vn -0.13982506455647817 -0.0012310005683461034 -0.9901754571586682
vn -0.07104102805815687 0.000026000010269109566 -0.9974733939591771
vn -0.056515017889097054 -0.000930000294379328 -0.9984013160310073
vn -0.02867599305752858 0.00004799998837940217 -0.9995887579990911
vn -0.008694001244042114 -0.00035600005094054083 -0.9999621430865931
vn -0.004524998923672572 0 -0.9999897621399636
vn 0.9527655271402045 0 0.30370684926956887
vn 0.928447308660038 0 0.37146412349233976
vn 0.9522102931222723 -0.0002720000837308185 0.3054430940256312
vn 0.9725646149063092 0 0.23263290788738997
vn 0.9284404606361002 0.003860001915099813 0.37146118429661196
vn 0.899110296084262 0 0.43772214414542754
vn 0.9768286622195447 0.0017169994062736793 0.2140159259948037
vn 0.9338148972640251 0.001598999824081967 0.3577529606409158
vn 0.972374565087098 0.019762991160628633 0.23258789597066762
vn 0.9875012704163973 0 0.15761104316005636
vn 0.8983031639250713 -0.0002930000534676313 0.4393760801786726
vn 0.9941067147018519 -0.017110995089324805 0.10704696927864822
vn 0.5353359358086748 -0.7091639149652239 0.4588049449853904
vn 0.5712711311164512 -0.6813371563784782 0.4576341050348188
vn 0.9994907339151125 -0.01830799512603704 0.026135993042063786
vn 0.987243500697945 0.022846011586757482 0.15757007991444374
vn 0.865939271072806 0 0.5001491565662163
vn 0.9968308778578214 0 0.0795499902527005
vn 0.9982806360014902 -0.02073099244095288 -0.05482698000868865
vn 0.8659330617280405 0.0037250002655365424 0.5001460356529114
vn 0.9965059214573992 0.02553199798761904 0.0795239937320781
vn 0.874802155691178 0.001097000195236326 0.48447908622420416
vn 0.8275633966706789 0 0.5613722690789853
vn 0.9999985617922262 0 -0.0016959992567988726
vn 0.9905670418162934 -0.021879000923611076 -0.13527100571039802
vn 0.82669918062015 -0.0002360000515622478 0.5626441229284707
vn 0.5646270922222444 -0.6881471123971415 0.45568607442857945
vn 0.9995812173439655 0.028888006281264325 -0.0016950003685524385
vn 0.7858390645637543 0 0.6184310508096786
vn 0.9963524838323707 0 -0.08533304143803365
vn 0.9768537339617368 -0.02399799346433931 -0.21255794211155285
vn 0.785831853821144 0.004493999164035205 0.6184238849620365
vn 0.9958740282285478 0.030987000878342066 -0.08529200241764451
vn 0.8033406453826222 0.00022399990111994926 0.5955197371206739
vn 0.7404112041043721 -0.000006000001654130932 0.6721541852884008
vn 0.9858373833996268 0 -0.16770406522138143
vn 0.9583372899694287 -0.02372400717830436 -0.28465208612876036
vn 0.46307290665794043 -0.7900418407504921 0.40174291902028597
vn 0.985279360175833 0.033642012298075376 -0.16760906127067682
vn 0.9700275088988753 0 -0.2429951274808662
vn 0.9400772196561185 -0.022016005144205243 -0.34025007950199215
vn 0.6885268539462566 0 0.7252108461646656
vn 0.6885151190725035 0.0058830010174120055 0.7251981254164999
vn 0.969443827845211 0.034684993840604715 -0.24284895687464325
vn 0.7008257571075007 0.003102998924561109 0.7133257527752468
vn 0.9509375623153973 0 -0.30938285760146783
vn 0.9243117555616293 -0.018013995236118442 -0.3812128991865467
vn 0.6305591562645589 0 0.776141192342558
vn 0.6305589559961294 -0.0007969999443811347 0.7761409458366179
vn 0.022171002150166062 -0.999426096925347 0.02561100248378053
vn 0.950427477848118 0.03274998200760702 -0.30921683012049467
vn 0.6069159231216615 0.0004769999395780066 0.7947658993266126
vn 0.06733600623410242 -0.9953480921513215 0.06890600637945596
vn 0.931685407155463 0 -0.3632661587507971
vn 0.907350522826754 -0.019704989637197846 -0.4199127791689773
vn 0.5654687568979653 -0.00034199985297020294 0.8247696454212959
vn 0.9312318478423158 0.031191994903415683 -0.3630899406732871
vn 0.5672799931855491 0 0.8235249901074061
vn 0.5562967814460577 0.0001589999375330453 0.8309836735290155
vn 0.9146799238798826 0 -0.4041789663640257
vn 0.9146598622572657 0.006632999001106996 -0.40416993913423466
vn 0.5013800832847539 -0.000043000007142966904 0.865227143723758
vn 0.5028952158781271 -0.00015500006653716228 0.8643473710389078
vn 0.9043068887982931 0 -0.42688294750663414
vn 0.44708797644293513 0.00025599998651116245 0.8944899528693256
vn 0.42655283360646423 0 0.9044626471791394
vn 0.42655302038731535 -0.000966000046170657 0.9044620432292165
vn 0.3896049747165859 0.0004789999689150935 0.9209819402328787
vn 0.3475409076580455 -0.00036399990328508274 0.9376647508615711
vn 0.34972688731224455 0 0.9368516981309734
vn 0.3313448806613582 0.00030199989123017024 0.943509660181376
vn 0.2736220730716052 -0.00022900006115537507 0.9618372568615593
vn 0.27518996309702837 0 0.9613898710776269
vn 0.27339005950157586 -0.000302000065728572 0.9619032093520038
vn 0.1975580387169343 0 0.9802911921150359
vn 0.21707995670123614 0.0002019999597088753 0.9761538052963814
vn 0.19755796934997003 -0.000837999869989157 0.9802908479132785
vn 0.12761300474809717 0.000029000001078782832 0.9918240369027977
vn 0.13982506455647817 0.0012310005683461034 0.9901754571586682
vn 0.07104102805815687 -0.000026000010269109566 0.9974733939591771
vn 0.056515017889097054 0.000930000294379328 0.9984013160310073
vn 0.02867599305752858 -0.00004799998837940217 0.9995887579990911
vn 0.008694001244042114 0.00035600005094054083 0.9999621430865931
vn 0.004524998923672572 0 0.9999897621399636
usemtl material_0_0
f 1//1 2//1 3//1
f 2//1 1//1 4//1
f 5//2 3//2 2//2
f 6//3 1//3 3//3
f 1//4 7//4 4//4
f 8//2 3//2 5//2
f 1//3 6//3 9//3
f 6//5 3//5 10//5
f 7//4 1//4 9//4
f 4//4 7//4 11//4
f 3//2 8//2 10//2
f 12//6 8//6 5//6
f 13//7 9//7 6//7
f 6//8 10//8 14//8
f 15//9 7//9 9//9
f 16//10 11//10 7//10
f 8//11 14//11 10//11
f 8//6 12//6 17//6
f 15//12 9//12 13//12
f 13//13 6//13 18//13
f 6//14 14//14 19//14
f 20//15 7//15 15//15
f 11//10 16//10 21//10
f 20//16 16//16 7//16
f 14//11 8//11 17//11
f 22//17 17//17 12//17
f 23//18 21//18 16//18
f 24//19 16//19 20//19
f 14//20 17//20 25//20
f 26//17 17//17 22//17
f 21//18 23//18 27//18
f 24//21 23//21 16//21
f 17//17 26//17 25//17
f 14//22 25//22 28//22
f 29//23 26//23 22//23
f 30//24 27//24 23//24
f 31//25 23//25 24//25
f 26//26 28//26 25//26
f 14//27 28//27 32//27
f 26//23 29//23 33//23
f 27//24 30//24 34//24
f 31//28 30//28 23//28
f 28//26 26//26 33//26
f 35//29 33//29 29//29
f 36//30 34//30 30//30
f 37//31 30//31 31//31
f 28//32 33//32 38//32
f 33//29 35//29 38//29
f 34//30 36//30 39//30
f 37//33 36//33 30//33
f 28//34 38//34 40//34
f 35//35 40//35 38//35
f 41//36 39//36 36//36
f 42//37 36//37 37//37
f 28//38 40//38 43//38
f 44//35 40//35 35//35
f 39//36 41//36 45//36
f 42//39 41//39 36//39
f 40//35 44//35 46//35
f 47//40 45//40 41//40
f 48//41 41//41 42//41
f 44//42 49//42 46//42
f 49//43 40//43 46//43
f 45//40 47//40 50//40
f 48//44 47//44 41//44
f 49//42 44//42 51//42
f 49//45 52//45 40//45
f 53//46 50//46 47//46
f 54//47 47//47 48//47
f 51//48 55//48 49//48
f 55//49 52//49 49//49
f 40//50 52//50 56//50
f 50//46 53//46 57//46
f 54//51 53//51 47//51
f 55//48 51//48 58//48
f 55//52 59//52 52//52
f 40//53 56//53 60//53
f 61//54 57//54 53//54
f 62//55 53//55 54//55
f 58//48 51//48 63//48
f 64//56 55//56 58//56
f 55//56 64//56 59//56
f 57//54 61//54 65//54
f 62//57 61//57 53//57
f 66//58 58//58 63//58
f 58//58 66//58 64//58
f 64//59 67//59 59//59
f 68//60 65//60 61//60
f 62//61 68//61 61//61
f 69//62 64//62 66//62
f 64//63 70//63 67//63
f 65//60 68//60 71//60
f 62//64 71//64 68//64
f 64//62 69//62 70//62
f 69//62 66//62 72//62
f 71//64 62//64 73//64
f 69//65 74//65 70//65
f 72//66 75//66 69//66
f 75//67 74//67 69//67
f 75//66 72//66 76//66
f 75//68 77//68 74//68
f 76//66 72//66 78//66
f 79//69 75//69 76//69
f 75//69 79//69 77//69
f 80//70 76//70 78//70
f 76//70 80//70 79//70
f 79//71 81//71 77//71
f 80//70 78//70 82//70
f 83//72 79//72 80//72
f 79//72 83//72 81//72
f 84//73 80//73 82//73
f 80//73 84//73 83//73
f 83//74 85//74 81//74
f 84//75 86//75 83//75
f 83//76 87//76 85//76
f 86//75 84//75 88//75
f 86//77 87//77 83//77
f 89//78 86//78 88//78
f 86//79 90//79 87//79
f 86//78 89//78 90//78
f 89//78 88//78 91//78
f 89//80 92//80 90//80
f 92//80 89//80 91//80
f 92//81 93//81 90//81
f 92//80 91//80 94//80
f 92//82 95//82 93//82
f 95//82 92//82 94//82
f 95//83 96//83 93//83
f 95//82 94//82 97//82
f 95//84 98//84 96//84
f 98//84 95//84 97//84
usemtl material_1_0
f 3//85 2//85 1//85
f 4//85 1//85 2//85
f 2//86 3//86 5//86
f 3//87 1//87 6//87
f 4//88 7//88 1//88
f 5//86 3//86 8//86
f 9//87 6//87 1//87
f 10//89 3//89 6//89
f 9//88 1//88 7//88
f 11//88 7//88 4//88
f 10//86 8//86 3//86
f 5//90 8//90 12//90
f 6//91 9//91 13//91
f 14//92 10//92 6//92
f 9//93 7//93 15//93
f 7//94 11//94 16//94
f 10//95 14//95 8//95
f 17//90 12//90 8//90
f 13//96 9//96 15//96
f 18//97 6//97 13//97
f 19//98 14//98 6//98
f 15//99 7//99 20//99
f 21//94 16//94 11//94
f 7//100 16//100 20//100
f 17//95 8//95 14//95
f 12//101 17//101 22//101
f 16//102 21//102 23//102
f 20//103 16//103 24//103
f 25//104 17//104 14//104
f 22//101 17//101 26//101
f 27//102 23//102 21//102
f 16//105 23//105 24//105
f 25//101 26//101 17//101
f 28//106 25//106 14//106
f 22//107 26//107 29//107
f 23//108 27//108 30//108
f 24//109 23//109 31//109
f 25//110 28//110 26//110
f 32//111 28//111 14//111
f 33//107 29//107 26//107
f 34//108 30//108 27//108
f 23//112 30//112 31//112
f 33//110 26//110 28//110
f 29//113 33//113 35//113
f 30//114 34//114 36//114
f 31//115 30//115 37//115
f 38//116 33//116 28//116
f 38//113 35//113 33//113
f 39//114 36//114 34//114
f 30//117 36//117 37//117
f 40//118 38//118 28//118
f 38//119 40//119 35//119
f 36//120 39//120 41//120
f 37//121 36//121 42//121
f 43//122 40//122 28//122
f 35//119 40//119 44//119
f 45//120 41//120 39//120
f 36//123 41//123 42//123
f 46//119 44//119 40//119
f 41//124 45//124 47//124
f 42//125 41//125 48//125
f 46//126 49//126 44//126
f 46//127 40//127 49//127
f 50//124 47//124 45//124
f 41//128 47//128 48//128
f 51//126 44//126 49//126
f 40//129 52//129 49//129
f 47//130 50//130 53//130
f 48//131 47//131 54//131
f 49//132 55//132 51//132
f 49//133 52//133 55//133
f 56//134 52//134 40//134
f 57//130 53//130 50//130
f 47//135 53//135 54//135
f 58//132 51//132 55//132
f 52//136 59//136 55//136
f 60//137 56//137 40//137
f 53//138 57//138 61//138
f 54//139 53//139 62//139
f 63//132 51//132 58//132
f 58//140 55//140 64//140
f 59//140 64//140 55//140
f 65//138 61//138 57//138
f 53//141 61//141 62//141
f 63//142 58//142 66//142
f 64//142 66//142 58//142
f 59//143 67//143 64//143
f 61//144 65//144 68//144
f 61//145 68//145 62//145
f 66//146 64//146 69//146
f 67//147 70//147 64//147
f 71//144 68//144 65//144
f 68//148 71//148 62//148
f 70//146 69//146 64//146
f 72//146 66//146 69//146
f 73//148 62//148 71//148
f 70//149 74//149 69//149
f 69//150 75//150 72//150
f 69//151 74//151 75//151
f 76//150 72//150 75//150
f 74//152 77//152 75//152
f 78//150 72//150 76//150
f 76//153 75//153 79//153
f 77//153 79//153 75//153
f 78//154 76//154 80//154
f 79//154 80//154 76//154
f 77//155 81//155 79//155
f 82//154 78//154 80//154
f 80//156 79//156 83//156
f 81//156 83//156 79//156
f 82//157 80//157 84//157
f 83//157 84//157 80//157
f 81//158 85//158 83//158
f 83//159 86//159 84//159
f 85//160 87//160 83//160
f 88//159 84//159 86//159
f 83//161 87//161 86//161
f 88//162 86//162 89//162
f 87//163 90//163 86//163
f 90//162 89//162 86//162
f 91//162 88//162 89//162
f 90//164 92//164 89//164
f 91//164 89//164 92//164
f 90//165 93//165 92//165
f 94//164 91//164 92//164
f 93//166 95//166 92//166
f 94//166 92//166 95//166
f 93//167 96//167 95//167
f 97//166 94//166 95//166
f 96//168 98//168 95//168
f 97//168 95//168 98//168
